<?xml version="1.0" standalone="no"?>
  <!DOCTYPE svg PUBLIC "-//W3C//DTD SVG 1.1//EN" 
    "http://www.w3.org/Graphics/SVG/1.1/DTD/svg11.dtd">
  <svg width="12.7cm" height="8.89cm"
       xmlns="http://www.w3.org/2000/svg" version="1.1" viewBox="0 0 449.99999 314.99999">
   <g>
     <path d="M 210.70585 154.29108 L 202.99889 179.06645 L 209.25918 180.18010 L 210.70585 154.29108 M 207.87902 153.16980 L 186.64457 171.20986 L 200.17207 177.94517 L 207.87902 153.16980 M 248.45806 178.48823 L 239.27413 179.05009 L 259.30052 181.43419 L 248.45806 178.48823 M 212.66894 179.81441 L 230.27701 176.14091 L 214.11561 153.92538 L 212.66894 179.81441 M 181.87278 174.66895 L 178.25487 180.83029 L 186.85013 181.41655 L 181.87278 174.66895 M 178.05450 129.24748 L 171.56833 164.66691 L 180.15254 167.07646 L 178.05450 129.24748 M 258.02794 189.74281 L 238.00154 187.35871 L 238.27738 244.95717 L 258.02794 189.74281 M 234.51830 174.17690 L 246.59925 164.10234 L 218.35690 151.96137 L 234.51830 174.17690 M 177.69217 184.36863 L 179.03775 195.20827 L 184.62087 192.72234 L 177.69217 184.36863 M 170.22789 193.86684 L 177.23862 195.35133 L 175.89305 184.51170 L 170.22789 193.86684 M 192.20442 199.82318 L 226.56532 247.08207 L 198.41652 196.40243 L 192.20442 199.82318 M 158.32026 185.67320 L 164.53821 185.88293 L 166.34548 180.34088 L 158.32026 185.67320 M 168.36794 179.86305 L 166.56067 185.40510 L 174.49995 181.85058 L 168.36794 179.86305 M 170.04042 196.16739 L 174.39326 202.91606 L 177.05115 197.65187 L 170.04042 196.16739 M 178.85027 197.50881 L 176.19238 202.77300 L 184.43340 195.02288 L 178.85027 197.50881 M 253.67396 161.03937 L 261.09950 154.46541 L 255.44808 144.10617 L 253.67396 161.03937 M 261.83852 165.96782 L 261.89831 157.19811 L 254.47277 163.77208 L 261.83852 165.96782 M 164.84099 188.84938 L 160.27570 198.06213 L 167.11512 194.65001 L 164.84099 188.84938 M 168.55930 197.25522 L 165.20221 206.35451 L 172.91214 204.00389 L 168.55930 197.25522 M 264.28881 165.70560 L 274.07503 161.67424 L 264.34859 156.93589 L 264.28881 165.70560 M 123.71161 147.88035 L 140.59700 187.32826 L 150.92303 182.22707 L 123.71161 147.88035 M 215.31805 113.53947 L 205.00613 112.91092 L 211.60208 139.53595 L 215.31805 113.53947 M 160.12099 200.19069 L 163.60331 205.87786 L 166.96041 196.77857 L 160.12099 200.19069 M 254.05608 137.44463 L 263.72242 137.74925 L 238.52299 117.80162 L 254.05608 137.44463 M 230.31896 111.12339 L 224.39072 105.52760 L 219.55154 109.56215 L 230.31896 111.12339 M 215.00603 108.83395 L 209.10598 101.89181 L 204.69412 108.20541 L 215.00603 108.83395 M 194.89325 103.14720 L 191.41182 110.33020 L 200.49335 108.51114 L 194.89325 103.14720 M 179.93843 106.92225 L 174.52200 111.37578 L 178.35889 116.64244 L 179.93843 106.92225 M 143.92551 193.38089 L 150.33970 196.30141 L 154.25154 188.27970 L 143.92551 193.38089 M 155.96278 188.89703 L 152.05094 196.91874 L 157.61543 198.31951 L 155.96278 188.89703 M 158.38648 201.44308 L 153.08432 206.79766 L 161.86880 207.13025 L 158.38648 201.44308 M 272.41660 168.93337 L 275.08353 163.17393 L 265.29731 167.20528 L 272.41660 168.93337 M 216.42309 100.25850 L 210.57210 100.89845 L 216.47215 107.84059 L 216.42309 100.25850 M 206.83283 101.03574 L 196.82088 101.98539 L 202.42098 107.34934 L 206.83283 101.03574 M 192.72796 102.73518 L 183.17106 105.21505 L 189.24653 109.91819 L 192.72796 102.73518 M 266.00428 180.57588 L 275.52213 177.77246 L 272.54389 172.04105 L 266.00428 180.57588 M 275.46301 159.81632 L 275.39261 150.84218 L 265.73657 155.07796 L 275.46301 159.81632 M 164.38657 208.73134 L 162.03420 216.26988 L 172.09651 206.38072 L 164.38657 208.73134 M 235.12167 75.01514 L 237.04189 91.01444 L 291.38882 75.20326 L 235.12167 75.01514 M 291.97831 79.14757 L 237.63138 94.95875 L 239.83756 106.56967 L 291.97831 79.14757 M 224.06854 102.78575 L 227.79059 96.77061 L 219.18030 99.23820 L 224.06854 102.78575 M 179.12777 105.19966 L 171.87363 102.86168 L 173.71134 109.65318 L 179.12777 105.19966 M 186.18484 96.21210 L 182.78834 103.50179 L 192.34525 101.02192 L 186.18484 96.21210 M 282.82425 167.87522 L 285.07483 162.34676 L 278.43744 162.51652 L 282.82425 167.87522 M 217.12877 92.79397 L 210.65417 99.01762 L 216.50517 98.37767 L 217.12877 92.79397 M 227.18136 95.46615 L 219.19467 92.35004 L 218.57107 97.93374 L 227.18136 95.46615 M 278.81591 177.24303 L 285.30081 176.74117 L 282.89141 171.11088 L 278.81591 177.24303 M 283.02785 188.28043 L 276.83262 179.80238 L 267.31478 182.60580 L 283.02785 188.28043 M 289.09398 155.16785 L 279.14196 150.83220 L 285.84975 159.63657 L 289.09398 155.16785 M 203.41926 91.67631 L 195.22069 91.69594 L 195.64156 99.20619 L 203.41926 91.67631 M 180.51246 88.41712 L 177.83825 94.20194 L 184.32007 93.77825 L 180.51246 88.41712 M 132.73146 210.34277 L 136.19336 203.71114 L 127.37144 203.19422 L 132.73146 210.34277 M 232.62519 187.54291 L 215.01712 191.21641 L 232.90103 245.14137 L 232.62519 187.54291 M 293.31619 172.89876 L 284.70395 170.56784 L 287.11334 176.19813 L 293.31619 172.89876 M 167.83513 90.74356 L 163.19048 96.18804 L 169.44990 99.75932 L 167.83513 90.74356 M 169.32488 90.60688 L 170.93965 99.62265 L 175.10847 95.09463 L 169.32488 90.60688 M 297.85227 179.51373 L 294.95973 174.01699 L 288.75688 177.31637 L 297.85227 179.51373 M 191.80553 90.63153 L 182.25837 87.97082 L 186.06598 93.33195 L 191.80553 90.63153 M 212.12249 80.48984 L 207.59280 89.37889 L 216.30166 89.73547 L 212.12249 80.48984 M 301.34175 153.67454 L 296.52366 149.94751 L 292.74661 154.40710 L 301.34175 153.67454 M 158.62861 87.77626 L 166.22326 87.66128 L 159.50488 80.43066 L 158.62861 87.77626 M 138.21758 205.07224 L 134.75567 211.70387 L 143.56513 214.08307 L 138.21758 205.07224 M 226.15272 74.77972 L 221.80218 79.72572 L 225.90803 84.37319 L 226.15272 74.77972 M 202.85823 80.68812 L 197.66584 73.86250 L 196.48766 80.96703 L 202.85823 80.68812 M 304.69437 170.74364 L 300.26630 166.60181 L 296.99879 171.85203 L 304.69437 170.74364 M 143.04705 227.85537 L 150.74405 231.83964 L 150.42001 223.10268 L 143.04705 227.85537 M 219.50684 80.71533 L 213.61175 79.40690 L 217.79091 88.65252 L 219.50684 80.71533 M 170.39520 82.24641 L 169.59110 87.71175 L 178.04890 86.41467 L 170.39520 82.24641 M 287.53971 188.05047 L 296.92477 181.26792 L 287.82938 179.07056 L 287.53971 188.05047 M 113.78087 196.80426 L 125.31638 200.70170 L 136.64840 194.81698 L 113.78087 196.80426 M 307.92156 161.15951 L 303.56460 155.96078 L 301.35441 163.77122 L 307.92156 161.15951 M 299.79484 199.87382 L 299.14631 191.68523 L 289.11605 191.51942 L 299.79484 199.87382 M 288.93123 189.35700 L 298.96149 189.52281 L 298.31628 182.57445 L 288.93123 189.35700 M 299.83776 178.88405 L 304.64080 172.27892 L 296.94522 173.38731 L 299.83776 178.88405 M 166.51950 89.47201 L 158.92486 89.58699 L 161.87485 94.91650 L 166.51950 89.47201 M 158.36742 102.02430 L 127.41294 130.64214 L 166.46456 112.38708 L 158.36742 102.02430 M 171.09839 80.59222 L 178.75209 84.76048 L 175.21658 74.47826 L 171.09839 80.59222 M 145.88102 91.44296 L 124.84000 128.02412 L 155.79448 99.40628 L 145.88102 91.44296 M 185.75868 75.73220 L 182.34420 85.01799 L 192.88531 81.65587 L 185.75868 75.73220 M 313.96046 170.44194 L 308.11729 171.76885 L 314.11094 177.23873 L 313.96046 170.44194 M 226.41916 58.29425 L 227.10243 68.87574 L 229.83840 52.66884 L 226.41916 58.29425 M 195.73766 73.05611 L 187.43287 74.23696 L 194.55949 80.16064 L 195.73766 73.05611 M 215.72137 71.17416 L 207.81385 70.52982 L 212.08258 76.33314 L 215.72137 71.17416 M 183.74774 74.74361 L 176.79775 73.74718 L 180.33326 84.02941 L 183.74774 74.74361 M 190.61179 66.37213 L 186.93940 72.51340 L 195.24420 71.33254 L 190.61179 66.37213 M 161.08752 234.90885 L 219.61128 254.10028 L 166.94706 224.48067 L 161.08752 234.90885 M 313.99516 166.84892 L 312.24948 155.24806 L 310.29107 161.42229 L 313.99516 166.84892 M 303.47182 153.43053 L 309.78718 152.45504 L 298.65373 149.70350 L 303.47182 153.43053 M 156.84513 89.22715 L 149.88166 86.59334 L 159.79512 94.55666 L 156.84513 89.22715 M 157.42515 80.07082 L 149.58541 84.78261 L 156.54888 87.41642 L 157.42515 80.07082 M 118.96968 148.89299 L 112.98753 190.32817 L 135.85507 188.34089 L 118.96968 148.89299 M 310.41021 189.34572 L 301.00116 182.57304 L 301.64637 189.52140 L 310.41021 189.34572 M 302.47971 199.87241 L 310.59503 191.50814 L 301.83119 191.68382 L 302.47971 199.87241 M 201.26003 63.49417 L 198.39926 70.62711 L 204.68667 69.04249 L 201.26003 63.49417 M 215.26487 62.97747 L 203.36823 62.53797 L 206.79487 68.08628 L 215.26487 62.97747 M 110.39660 198.08736 L 109.57429 205.08185 L 121.93212 201.98481 L 110.39660 198.08736 M 151.80454 66.16486 L 150.14666 75.43706 L 156.96036 76.67115 L 151.80454 66.16486 M 142.17982 89.54665 L 126.18490 84.23585 L 121.13880 126.12782 L 142.17982 89.54665 M 114.88332 149.04358 L 103.16421 189.54562 L 108.90117 190.47876 L 114.88332 149.04358 M 123.03216 235.11619 L 130.25233 232.27218 L 126.71930 226.70087 L 123.03216 235.11619 M 121.33765 234.86037 L 125.02478 226.44506 L 116.69621 230.22565 L 121.33765 234.86037 M 124.66422 224.97410 L 118.45314 223.09275 L 116.33565 228.75470 L 124.66422 224.97410 M 186.48006 56.72267 L 179.89752 60.55088 L 188.85556 63.41964 L 186.48006 56.72267 M 316.64386 166.48142 L 331.48061 158.48232 L 314.89817 154.88057 L 316.64386 166.48142 M 195.93152 55.50745 L 192.09340 63.35477 L 199.58658 61.18224 L 195.93152 55.50745 M 175.59564 60.26713 L 171.08681 55.11010 L 165.53184 62.47843 L 175.59564 60.26713 M 143.99884 70.85976 L 138.26568 76.27036 L 147.20217 75.91419 L 143.99884 70.85976 M 306.30193 213.06936 L 313.01262 213.16534 L 303.24508 204.65493 L 306.30193 213.06936 M 220.03418 50.36229 L 209.69944 53.04085 L 217.43938 59.95290 L 220.03418 50.36229 M 97.51096 208.23787 L 101.67472 212.83463 L 105.89173 207.41522 L 97.51096 208.23787 M 332.40002 191.18796 L 326.25127 190.19435 L 322.71913 197.63447 L 332.40002 191.18796 M 153.24095 64.89102 L 158.39678 75.39730 L 161.63799 65.24633 L 153.24095 64.89102 M 150.37353 65.26650 L 145.51232 69.48428 L 148.71565 74.53871 L 150.37353 65.26650 M 83.19851 202.95249 L 94.58710 206.01165 L 98.05322 197.26138 L 83.19851 202.95249 M 118.81319 245.36327 L 127.52330 242.05167 L 121.85048 238.27640 L 118.81319 245.36327 M 130.17659 242.91755 L 127.05908 248.05172 L 137.48418 243.38086 L 130.17659 242.91755 M 229.34560 50.25953 L 223.16008 49.60125 L 225.92637 55.88494 L 229.34560 50.25953 M 224.67204 57.16099 L 221.90575 50.87730 L 219.31095 60.46792 L 224.67204 57.16099 M 191.39835 45.17784 L 188.39743 53.82012 L 194.61105 52.66978 L 191.39835 45.17784 M 178.45074 49.30199 L 178.59692 58.78618 L 185.17945 54.95796 L 178.45074 49.30199 M 103.22059 233.65365 L 110.82181 236.57608 L 113.10510 231.21724 L 103.22059 233.65365 M 304.02111 87.96882 L 289.40413 139.88621 L 296.44998 141.03344 L 304.02111 87.96882 M 176.86626 49.11216 L 172.50361 53.43931 L 177.01244 58.59634 L 176.86626 49.11216 M 179.81981 47.52049 L 186.54852 53.17646 L 189.54945 44.53417 L 179.81981 47.52049 M 118.75222 259.72780 L 134.26270 261.31426 L 125.43176 251.91212 L 118.75222 259.72780 M 130.69210 67.98202 L 126.39026 76.26891 L 134.47472 75.99003 L 130.69210 67.98202 M 136.14516 77.93256 L 128.06070 78.21144 L 144.05562 83.52225 L 136.14516 77.93256 M 335.13906 179.09139 L 334.73067 162.02389 L 325.65349 174.14465 L 335.13906 179.09139 M 96.17296 209.46793 L 95.18775 217.25565 L 100.33672 214.06469 L 96.17296 209.46793 M 103.52793 224.53817 L 102.30886 232.14892 L 112.19336 229.71250 L 103.52793 224.53817 M 352.50178 220.93031 L 324.31216 203.57522 L 320.48673 213.91881 L 352.50178 220.93031 M 326.65739 186.93221 L 334.12990 182.20493 L 324.64433 177.25819 L 326.65739 186.93221 M 333.97211 189.44976 L 335.29587 183.72888 L 327.82336 188.45615 L 333.97211 189.44976 M 91.41946 229.33466 L 99.71212 232.10168 L 100.93119 224.49094 L 91.41946 229.33466 M 226.68518 36.12107 L 214.70799 41.75737 L 221.61799 46.46058 L 226.68518 36.12107 M 102.63293 235.17141 L 108.40379 243.35928 L 110.23415 238.09383 L 102.63293 235.17141 M 117.77865 248.48602 L 116.69171 258.12427 L 123.37125 250.30859 L 117.77865 248.48602 M 142.18647 56.81161 L 144.69617 67.26839 L 149.55738 63.05061 L 142.18647 56.81161 M 70.71570 187.16593 L 77.37761 185.63627 L 68.85451 179.57727 L 70.71570 187.16593 M 94.58316 220.29353 L 90.77834 227.85864 L 100.29007 223.01492 L 94.58316 220.29353 M 163.03330 45.36486 L 169.96366 51.19467 L 167.98580 42.14182 L 163.03330 45.36486 M 251.53944 254.74253 L 310.07093 237.26557 L 305.31714 227.90417 L 251.53944 254.74253 M 181.87946 41.03679 L 179.23618 46.00303 L 188.96581 43.01671 L 181.87946 41.03679 M 160.73413 46.37042 L 155.88120 49.62206 L 161.37576 52.76446 L 160.73413 46.37042 M 192.27985 34.13994 L 183.50992 39.55390 L 190.59627 41.53383 L 192.27985 34.13994 M 143.19097 40.16593 L 142.26941 52.22491 L 151.80903 48.87272 L 143.19097 40.16593 M 152.73037 51.48672 L 143.19074 54.83890 L 150.56166 61.07790 L 152.73037 51.48672 M 169.59909 42.35648 L 171.57694 51.40933 L 175.93959 47.08217 L 169.59909 42.35648 M 105.69789 251.67616 L 107.55128 246.02957 L 99.49664 245.62168 L 105.69789 251.67616 M 179.58372 40.78831 L 170.59993 41.02885 L 176.94044 45.75455 L 179.58372 40.78831 M 159.61785 44.59797 L 152.44549 38.58488 L 154.76491 47.84961 L 159.61785 44.59797 M 98.93700 243.64533 L 106.99165 244.05322 L 101.22078 235.86535 L 98.93700 243.64533 M 349.65097 142.91645 L 319.02406 151.93494 L 335.60650 155.53670 L 349.65097 142.91645 M 90.91905 231.53334 L 96.92793 242.08035 L 99.21171 234.30036 L 90.91905 231.53334 M 198.99786 39.36338 L 194.21584 34.11613 L 192.53227 41.51001 L 198.99786 39.36338 M 73.59273 174.46424 L 82.11583 180.52324 L 108.62145 146.26170 L 73.59273 174.46424 M 78.58545 188.20635 L 71.92354 189.73602 L 78.51725 200.13797 L 78.58545 188.20635 M 80.44983 206.55466 L 77.04899 218.29107 L 90.85321 217.40155 L 80.44983 206.55466 M 211.91896 31.70966 L 204.57365 31.89396 L 211.17348 39.64870 L 211.91896 31.70966 M 225.80453 34.31504 L 214.57282 32.01229 L 213.82734 39.95133 L 225.80453 34.31504 M 252.47257 257.22486 L 312.78212 247.76285 L 311.00405 239.74790 L 252.47257 257.22486 M 354.24385 181.88312 L 350.61500 175.68053 L 347.10031 181.59913 L 354.24385 181.88312 M 345.17729 181.54178 L 348.69197 175.62319 L 338.85963 181.42433 L 345.17729 181.54178 M 66.89956 166.75424 L 71.69070 172.74312 L 106.71942 144.54058 L 66.89956 166.75424 M 132.72893 291.37853 L 150.47655 291.13516 L 144.56941 285.17035 L 132.72893 291.37853 M 130.59485 278.95173 L 134.92102 265.75411 L 119.51396 272.64678 L 130.59485 278.95173 M 120.07038 51.59580 L 113.76937 63.41757 L 127.68930 63.84362 L 120.07038 51.59580 M 184.72490 31.05549 L 182.77600 38.24411 L 191.54593 32.83015 L 184.72490 31.05549 M 105.40810 261.33264 L 113.49992 260.07094 L 107.01568 254.98197 L 105.40810 261.33264 M 88.50023 232.17858 L 79.86114 239.46227 L 94.50911 242.72558 L 88.50023 232.17858 M 88.45926 256.89357 L 102.27802 260.93547 L 103.88560 254.58480 L 88.45926 256.89357 M 64.82386 192.35181 L 76.79705 200.65615 L 70.20334 190.25420 L 64.82386 192.35181 M 87.80302 255.12140 L 103.22936 252.81263 L 97.02811 246.75816 L 87.80302 255.12140 M 106.34920 263.27094 L 114.54444 270.48837 L 114.44101 262.00924 L 106.34920 263.27094 M 93.93653 74.71492 L 91.39374 81.60980 L 99.44277 79.95174 L 93.93653 74.71492 M 101.83266 86.38739 L 93.78363 88.04544 L 113.05564 126.20008 L 101.83266 86.38739 M 158.26315 27.23129 L 152.73902 35.24468 L 158.76133 35.15448 L 158.26315 27.23129 M 158.99679 37.15826 L 152.97448 37.24846 L 160.14683 43.26156 L 158.99679 37.15826 M 352.32979 224.57910 L 320.31474 217.56760 L 322.93626 232.76557 L 352.32979 224.57910 M 349.91528 171.50076 L 355.37214 165.62989 L 339.67455 160.23440 L 349.91528 171.50076 M 62.77593 184.80721 L 63.07122 190.37069 L 68.45070 188.27309 L 62.77593 184.80721 M 355.88383 152.75213 L 354.25844 143.01860 L 340.21397 155.63885 L 355.88383 152.75213 M 112.38620 279.96895 L 119.92546 280.23027 L 115.82460 274.36826 L 112.38620 279.96895 M 117.89879 274.46887 L 121.99965 280.33088 L 128.97968 280.77383 L 117.89879 274.46887 M 140.76659 39.62638 L 132.41400 44.55637 L 139.84503 51.68536 L 140.76659 39.62638 M 108.19378 67.38090 L 96.03653 72.93631 L 101.54277 78.17313 L 108.19378 67.38090 M 356.14773 163.60802 L 356.11999 155.32580 L 340.45013 158.21253 L 356.14773 163.60802 M 312.16764 260.00265 L 312.92756 250.29469 L 252.61801 259.75671 L 312.16764 260.00265 M 175.36672 25.90242 L 180.75359 37.37814 L 182.70250 30.18953 L 175.36672 25.90242 M 150.52107 37.80557 L 144.22242 38.36351 L 152.84049 47.07030 L 150.52107 37.80557 M 68.52133 215.94574 L 74.16269 227.77218 L 73.86910 220.48681 L 68.52133 215.94574 M 313.78511 268.52867 L 312.27484 262.28190 L 252.72521 262.03595 L 313.78511 268.52867 M 95.74996 62.69015 L 95.31243 71.00094 L 107.46968 65.44553 L 95.74996 62.69015 M 207.19124 23.46671 L 194.81370 23.42605 L 202.23059 29.17556 L 207.19124 23.46671 M 355.70504 180.96107 L 358.78981 174.22269 L 352.07619 174.75848 L 355.70504 180.96107 M 359.31739 165.70631 L 365.80745 174.99887 L 359.28965 157.42410 L 359.31739 165.70631 M 365.72981 178.66898 L 360.49651 174.71151 L 357.41174 181.44988 L 365.72981 178.66898 M 113.89074 40.59645 L 119.53869 45.83569 L 122.78275 34.82372 L 113.89074 40.59645 M 119.87939 291.00906 L 126.81928 291.15921 L 121.97967 283.32261 L 119.87939 291.00906 M 76.09242 100.28171 L 109.83811 127.93687 L 90.56610 89.78223 L 76.09242 100.28171 M 59.85983 170.77774 L 54.21524 172.60580 L 60.83739 180.88941 L 59.85983 170.77774 M 83.26653 77.57782 L 89.37172 81.31306 L 91.91450 74.41818 L 83.26653 77.57782 M 81.68246 78.98746 L 79.24195 85.69528 L 87.78765 82.72269 L 81.68246 78.98746 M 55.68689 193.17296 L 61.47574 190.98318 L 61.18045 185.41969 L 55.68689 193.17296 M 64.16599 217.98618 L 39.02637 236.81028 L 69.80735 229.81261 L 64.16599 217.98618 M 110.08374 279.10470 L 113.52214 273.50402 L 101.50576 273.31628 L 110.08374 279.10470 M 139.14074 37.42632 L 126.83825 34.08489 L 130.78815 42.35631 L 139.14074 37.42632 M 79.40169 242.16374 L 84.82457 253.79029 L 94.04965 245.42705 L 79.40169 242.16374 M 60.42094 93.48044 L 61.14093 100.50490 L 67.33216 97.64462 L 60.42094 93.48044 M 49.91858 188.84090 L 54.24225 192.90517 L 59.73581 185.15191 L 49.91858 188.84090 M 103.32554 48.88391 L 110.72391 61.54760 L 117.02491 49.72584 L 103.32554 48.88391 M 100.75116 50.17911 L 96.42980 60.08743 L 108.14952 62.84280 L 100.75116 50.17911 M 413.57812 147.21783 L 369.01626 132.81729 L 365.67515 150.68298 L 413.57812 147.21783 M 358.59968 149.78750 L 361.94078 131.92181 L 356.97429 140.05397 L 358.59968 149.78750 M 352.36682 139.95182 L 357.33331 131.81966 L 321.73991 148.97031 L 352.36682 139.95182 M 93.00219 63.13097 L 85.48748 68.97203 L 92.56465 71.44175 L 93.00219 63.13097 M 67.41234 86.97823 L 69.72099 95.53345 L 75.64897 88.00656 L 67.41234 86.97823 M 169.17038 23.88641 L 148.71631 24.62435 L 158.97274 24.79925 L 169.17038 23.88641 M 43.37464 173.23280 L 49.92730 171.28457 L 38.73110 166.54328 L 43.37464 173.23280 M 52.20996 181.53281 L 49.66455 187.41935 L 59.48177 183.73036 L 52.20996 181.53281 M 91.62561 61.90721 L 81.55200 61.65173 L 84.11090 67.74827 L 91.62561 61.90721 M 124.61731 35.18068 L 121.37325 46.19264 L 128.56722 43.45210 L 124.61731 35.18068 M 132.39590 28.63759 L 127.03922 32.37005 L 139.34171 35.71148 L 132.39590 28.63759 M 91.79217 49.21125 L 98.05892 46.78275 L 88.55705 43.15176 L 91.79217 49.21125 M 72.73704 74.21060 L 80.30255 76.38130 L 81.87334 70.75194 L 72.73704 74.21060 M 100.03498 287.05974 L 108.39784 280.79916 L 99.81986 275.01075 L 100.03498 287.05974 M 48.45001 190.68740 L 47.98718 199.92395 L 52.77367 194.75168 L 48.45001 190.68740 M 70.58863 264.29775 L 81.89194 256.14913 L 76.46906 244.52257 L 70.58863 264.29775 M 85.85325 259.88875 L 86.85860 271.51659 L 95.85087 270.96035 L 85.85325 259.88875 M 73.21080 67.80803 L 71.85057 73.13894 L 80.98687 69.68028 L 73.21080 67.80803 M 65.57817 87.45861 L 60.97559 91.84965 L 67.88681 96.01384 L 65.57817 87.45861 M 32.81511 135.77694 L 37.57941 160.74220 L 50.12160 156.53071 L 32.81511 135.77694 M 98.79900 48.71693 L 92.53225 51.14543 L 94.47764 58.62525 L 98.79900 48.71693 M 114.37965 33.37676 L 113.24586 39.03908 L 122.13787 33.26635 L 114.37965 33.37676 M 334.05329 262.30484 L 340.85457 262.06418 L 329.13805 255.97830 L 334.05329 262.30484 M 118.78123 26.92205 L 115.07157 31.86213 L 122.82979 31.75173 L 118.78123 26.92205 M 91.19942 281.92183 L 97.88517 287.20007 L 97.67006 275.15108 L 91.19942 281.92183 M 33.91548 189.31705 L 39.81183 191.82586 L 41.14716 184.10367 L 33.91548 189.31705 M 42.73300 184.01206 L 41.39767 191.73425 L 46.60221 188.58414 L 42.73300 184.01206 M 87.36245 274.06550 L 89.88408 280.28001 L 96.35472 273.50926 L 87.36245 274.06550 M 51.67031 88.71073 L 49.34347 96.31621 L 57.36990 92.02238 L 51.67031 88.71073 M 325.55418 269.73720 L 337.62539 270.43133 L 333.29629 264.76329 L 325.55418 269.73720 M 346.14209 259.21826 L 352.31522 260.39312 L 358.46382 232.27668 L 346.14209 259.21826 M 130.06004 27.47029 L 120.65479 26.37307 L 124.70335 31.20275 L 130.06004 27.47029 M 89.19609 51.18530 L 82.18334 49.29133 L 81.06788 58.40963 L 89.19609 51.18530 M 104.94396 25.18049 L 119.24889 25.41125 L 137.16627 24.83614 L 104.94396 25.18049 M 42.08895 175.17462 L 35.50985 174.67728 L 41.57733 180.62689 L 42.08895 175.17462 M 107.51270 28.28565 L 103.12476 33.08202 L 111.63006 32.16145 L 107.51270 28.28565 M 61.64015 76.81876 L 65.76161 83.52908 L 68.87325 75.67889 L 61.64015 76.81876 M 58.28699 93.49896 L 50.26055 97.79280 L 59.00698 100.52342 L 58.28699 93.49896 M 25.45794 165.27770 L 25.66719 172.63437 L 31.89417 172.68956 L 25.45794 165.27770 M 348.64921 270.25579 L 351.08839 265.14051 L 344.91526 263.96565 L 348.64921 270.25579 M 117.08472 26.38414 L 109.25769 27.44842 L 113.37506 31.32422 L 117.08472 26.38414 M 33.23642 191.13265 L 35.71467 198.62851 L 39.13277 193.64147 L 33.23642 191.13265 M 40.65249 194.86936 L 37.23439 199.85640 L 45.39421 200.95581 L 40.65249 194.86936 M 61.50506 268.18575 L 68.04027 265.80233 L 73.92070 246.02715 L 61.50506 268.18575 M 54.27559 79.48215 L 63.93690 84.00448 L 59.81544 77.29417 L 54.27559 79.48215 M 53.39263 80.59496 L 52.75177 86.19670 L 63.05394 85.11730 L 53.39263 80.59496 M 80.55827 49.61015 L 76.19554 53.73584 L 79.44281 58.72845 L 80.55827 49.61015 M 62.82994 46.28420 L 65.83482 59.59784 L 72.71373 53.46289 L 62.82994 46.28420 M 34.40367 176.20094 L 33.23946 187.36394 L 40.47114 182.15056 L 34.40367 176.20094 M 341.20805 270.55060 L 347.41417 270.93205 L 343.68022 264.64191 L 341.20805 270.55060 M 98.06424 27.07282 L 94.34346 34.11416 L 100.15420 33.16423 L 98.06424 27.07282 M 179.75667 288.77323 L 303.91510 288.13376 L 236.90430 267.15778 L 179.75667 288.77323 M 73.84428 55.80512 L 66.96538 61.94007 L 71.87438 65.02203 L 73.84428 55.80512 M 74.99198 276.64392 L 79.57155 282.96582 L 83.84298 274.71222 L 74.99198 276.64392 M 98.61585 290.15193 L 89.59759 291.84537 L 105.84800 291.79433 L 98.61585 290.15193 M 74.31967 51.99708 L 78.68240 47.87139 L 64.43588 44.81839 L 74.31967 51.99708 M 65.31165 63.37171 L 60.61442 67.25823 L 70.22064 66.45367 L 65.31165 63.37171 M 34.06281 95.76668 L 31.80492 122.32820 L 44.54653 100.46752 L 34.06281 95.76668 M 115.57111 25.64545 L 101.26619 25.41468 L 107.74408 26.70973 L 115.57111 25.64545 M 29.82739 136.20434 L 26.21991 159.94993 L 34.59170 161.16960 L 29.82739 136.20434 M 23.10283 189.84118 L 24.74747 183.71133 L 24.61143 176.58829 L 23.10283 189.84118 M 71.83236 239.12944 L 70.76565 232.45552 L 39.98467 239.45319 L 71.83236 239.12944 M 346.83922 278.43023 L 354.59845 275.16499 L 349.25299 272.97679 L 346.83922 278.43023 M 24.35285 167.16309 L 23.05350 187.77264 L 24.56211 174.51976 L 24.35285 167.16309 M 25.47072 185.31393 L 23.82608 191.44377 L 30.39746 189.40907 L 25.47072 185.31393 M 43.43402 68.81285 L 44.50260 77.26334 L 50.29606 77.79076 L 43.43402 68.81285 M 397.48934 97.80262 L 390.88583 101.89083 L 419.54298 137.90596 L 397.48934 97.80262 M 308.38366 64.91142 L 371.38291 35.88442 L 253.73413 37.51862 L 308.38366 64.91142 M 85.89149 292.15479 L 55.45748 292.43238 L 115.65149 292.29872 L 85.89149 292.15479 M 365.88569 276.49237 L 369.63462 267.01457 L 362.15208 268.09029 L 365.88569 276.49237 M 38.01410 82.34315 L 48.89761 85.78400 L 43.74500 79.65484 L 38.01410 82.34315 M 36.92011 83.63369 L 34.99306 89.97918 L 47.80362 87.07454 L 36.92011 83.63369 M 28.43936 128.99267 L 23.48742 103.47617 L 24.83187 152.73825 L 28.43936 128.99267 M 57.54292 279.44695 L 63.41005 277.67064 L 59.17083 273.21776 L 57.54292 279.44695 M 58.02005 280.85595 L 62.98786 284.48972 L 63.88717 279.07963 L 58.02005 280.85595 M 364.40884 277.44279 L 360.67522 269.04071 L 357.81977 274.61793 L 364.40884 277.44279 M 37.16830 74.47094 L 36.54794 80.92902 L 42.27884 78.24071 L 37.16830 74.47094 M 63.32137 286.90155 L 55.64705 290.28988 L 69.26171 291.35218 L 63.32137 286.90155 M 50.29784 65.21780 L 44.15842 67.30716 L 51.02046 76.28507 L 50.29784 65.21780 M 44.37769 56.88437 L 43.32807 64.88207 L 49.46749 62.79272 L 44.37769 56.88437 M 358.71784 282.66998 L 364.16417 279.14645 L 357.57510 276.32159 L 358.71784 282.66998 M 393.74772 91.21767 L 389.61006 85.22637 L 387.14421 95.30588 L 393.74772 91.21767 M 351.80865 289.30581 L 358.36311 291.30214 L 357.43256 285.46330 L 351.80865 289.30581 M 379.78318 272.07702 L 381.05224 266.54131 L 373.27880 266.35187 L 379.78318 272.07702 M 25.05823 82.33995 L 32.14989 89.38736 L 34.07693 83.04187 L 25.05823 82.33995 M 31.53516 95.24442 L 24.32533 96.28944 L 29.27727 121.80594 L 31.53516 95.24442 M 24.13090 159.07470 L 22.78644 109.81262 L 22.83154 179.68425 L 24.13090 159.07470 M 35.45623 247.57162 L 46.95378 275.24436 L 54.88828 269.40647 L 35.45623 247.57162 M 416.32752 141.57779 L 387.67037 105.56266 L 371.76566 127.17725 L 416.32752 141.57779 M 44.04929 38.73544 L 45.33558 51.86765 L 57.36731 43.78891 L 44.04929 38.73544 M 25.88680 74.45696 L 24.27534 80.47365 L 33.29405 81.17557 L 25.88680 74.45696 M 374.27934 278.58670 L 371.15052 268.32662 L 367.40160 277.80442 L 374.27934 278.58670 M 375.74410 278.05060 L 379.11966 273.51568 L 372.61528 267.79053 L 375.74410 278.05060 M 382.06386 265.01776 L 387.87615 259.88859 L 374.29042 264.82832 L 382.06386 265.01776 M 392.99286 268.83241 L 390.21396 260.38910 L 384.40166 265.51827 L 392.99286 268.83241 M 77.02564 30.51752 L 65.71751 25.98607 L 63.29600 40.00007 L 77.02564 30.51752 M 42.53015 56.27021 L 34.68716 57.87944 L 41.48053 64.26791 L 42.53015 56.27021 M 93.14281 25.47206 L 69.44836 24.17007 L 80.75649 28.70152 L 93.14281 25.47206 M 177.38846 22.77783 L 88.11190 23.29433 L 164.48275 23.51403 L 177.38846 22.77783 M 381.13858 80.25228 L 381.03625 68.47587 L 323.61230 73.28088 L 381.13858 80.25228 M 401.17482 85.88032 L 395.87289 78.91939 L 391.40515 82.81261 L 401.17482 85.88032 M 34.25149 46.07212 L 33.78352 55.60497 L 41.62652 53.99574 L 34.25149 46.07212 M 47.48187 282.33660 L 44.01535 291.05828 L 51.08196 289.75001 L 47.48187 282.33660 M 410.71306 87.19593 L 403.54705 87.66380 L 397.91504 90.58739 L 410.71306 87.19593 M 396.91245 64.97232 L 391.08031 58.40139 L 390.28535 65.12482 L 396.91245 64.97232 M 40.59553 284.90866 L 42.70455 290.45311 L 46.17107 281.73143 L 40.59553 284.90866 M 53.54121 290.96083 L 46.47460 292.26910 L 67.15586 292.02312 L 53.54121 290.96083 M 394.72036 253.84181 L 407.82988 249.49085 L 410.12233 225.93421 L 394.72036 253.84181 M 362.20519 291.53223 L 376.32460 288.97810 L 367.49526 287.86187 L 362.20519 291.53223 M 31.64941 58.35288 L 24.75297 60.74824 L 31.91797 64.05085 L 31.64941 58.35288 M 380.14698 286.90843 L 386.68076 279.88462 L 377.42108 280.88248 L 380.14698 286.90843 M 388.66440 277.41071 L 392.64053 271.65207 L 382.78028 273.87364 L 388.66440 277.41071 M 25.55045 52.81041 L 23.95703 59.34318 L 30.85347 56.94783 L 25.55045 52.81041 M 41.27689 38.75760 L 35.18816 43.96620 L 42.56319 51.88982 L 41.27689 38.75760 M 412.11073 85.95752 L 409.09643 80.68018 L 404.94472 86.42539 L 412.11073 85.95752 M 412.91065 216.79010 L 423.01124 212.22017 L 404.63387 208.81547 L 412.91065 216.79010 M 422.31463 136.83743 L 413.05901 93.34263 L 400.26098 96.73409 L 422.31463 136.83743 M 61.34201 23.77767 L 48.02940 23.75819 L 52.91274 26.88380 L 61.34201 23.77767 M 22.83482 202.43499 L 23.74823 265.47784 L 23.19858 208.16613 L 22.83482 202.43499 M 390.65721 278.24198 L 398.72270 280.52382 L 394.63333 272.48334 L 390.65721 278.24198 M 421.97405 231.14840 L 425.17876 215.01178 L 415.07817 219.58171 L 421.97405 231.14840 M 416.51035 77.00773 L 410.89177 68.23013 L 410.24606 77.66406 L 416.51035 77.00773 M 390.86195 286.80502 L 398.25127 282.31403 L 390.18578 280.03219 L 390.86195 286.80502 M 408.56524 64.72339 L 405.29476 58.20522 L 400.52293 64.90592 L 408.56524 64.72339 M 421.85990 84.29826 L 418.25815 79.67591 L 415.00817 85.60959 L 421.85990 84.29826 M 425.12173 136.16560 L 422.71785 91.35947 L 415.86611 92.67080 L 425.12173 136.16560 M 422.12893 67.19872 L 418.16573 61.55994 L 412.39602 65.35089 L 422.12893 67.19872 M 43.17868 24.98498 L 29.84653 27.73758 L 40.75177 33.96500 L 43.17868 24.98498 M 365.78810 291.81473 L 396.15858 290.12185 L 379.90751 289.26060 L 365.78810 291.81473 M 392.25013 287.93146 L 401.29124 289.04370 L 399.63945 283.44047 L 392.25013 287.93146 M 408.24322 271.01307 L 422.10309 264.37778 L 410.66361 255.67028 L 408.24322 271.01307 M 403.16244 53.85409 L 397.33882 36.48530 L 392.55847 53.98386 L 403.16244 53.85409 M 422.10734 68.99423 L 412.37443 67.14640 L 417.99301 75.92400 L 422.10734 68.99423 M 403.27132 288.78755 L 408.09078 285.88223 L 401.61954 283.18431 L 403.27132 288.78755 M 422.91195 82.46063 L 423.42453 70.90850 L 419.31020 77.83827 L 422.91195 82.46063 M 418.76544 282.60357 L 420.66539 276.21748 L 408.98368 275.32118 L 418.76544 282.60357 M 369.99416 292.18061 L 413.55602 292.18766 L 400.36464 290.48774 L 369.99416 292.18061 M 426.45312 129.70566 L 426.00462 52.54340 L 424.56182 73.34741 L 426.45312 129.70566 M 423.90742 63.49913 L 425.35023 42.69511 L 421.21796 50.91940 L 423.90742 63.49913 M 418.52838 47.24300 L 422.66065 39.01872 L 402.39083 34.08794 L 418.52838 47.24300" fill="none" stroke="black" stroke-width="0.01cm" />
   </g>
</svg>