<?xml version="1.0" standalone="no"?>
  <!DOCTYPE svg PUBLIC "-//W3C//DTD SVG 1.1//EN" 
    "http://www.w3.org/Graphics/SVG/1.1/DTD/svg11.dtd">
  <svg width="12.7cm" height="8.89cm"
       xmlns="http://www.w3.org/2000/svg" version="1.1" viewBox="0 0 449.99999 314.99999">
   <g>
     <path d="M 184.32213 174.75095 L 189.29948 181.49855 L 197.84962 181.48627 L 184.32213 174.75095 M 201.32581 183.22850 L 197.32120 187.58748 L 207.58610 184.34215 L 201.32581 183.22850 M 190.65989 183.08344 L 195.20543 187.43014 L 199.21004 183.07116 L 190.65989 183.08344 M 189.20036 184.19483 L 187.53380 191.96228 L 193.74590 188.54153 L 189.20036 184.19483 M 178.72784 182.90387 L 185.65654 191.25757 L 187.32310 183.49012 L 178.72784 182.90387 M 200.77037 195.45014 L 228.91917 246.12977 L 211.03527 192.20481 L 200.77037 195.45014 M 179.93542 173.36079 L 171.35121 170.95124 L 176.31750 179.52213 L 179.93542 173.36079 M 247.32300 176.70842 L 250.22001 167.19572 L 238.13906 177.27028 L 247.32300 176.70842 M 169.95836 171.54750 L 168.79266 178.13085 L 174.92466 180.11838 L 169.95836 171.54750 M 166.62736 187.02548 L 168.90149 192.82611 L 174.56664 183.47097 L 166.62736 187.02548 M 248.57855 160.24408 L 250.35267 143.31089 L 220.33620 148.10312 L 248.57855 160.24408 M 250.10110 175.58288 L 260.36387 168.26592 L 252.99812 166.07017 L 250.10110 175.58288 M 167.93590 172.02533 L 158.74497 183.94100 L 166.77019 178.60868 L 167.93590 172.02533 M 278.84665 196.56869 L 263.13357 190.89406 L 243.38302 246.10842 L 278.84665 196.56869 M 251.23616 177.36269 L 262.07862 180.30865 L 261.49894 170.04573 L 251.23616 177.36269 M 190.76317 115.87664 L 183.10816 120.89368 L 206.44065 140.68261 L 190.76317 115.87664 M 205.64680 146.80347 L 182.31430 127.01455 L 184.41235 164.84353 L 205.64680 146.80347 M 229.09680 115.41353 L 218.32938 113.85230 L 214.61341 139.84877 L 229.09680 115.41353 M 202.23564 113.08100 L 193.15411 114.90005 L 208.83159 139.70602 L 202.23564 113.08100 M 248.38710 138.08571 L 232.85401 118.44271 L 218.37063 142.87795 L 248.38710 138.08571 M 157.40989 187.78103 L 159.06255 197.20351 L 163.62784 187.99075 L 157.40989 187.78103 M 300.32418 202.24567 L 289.64538 193.89128 L 303.38103 210.66010 L 300.32418 202.24567 M 264.56178 179.51024 L 271.10138 170.97541 L 263.98209 169.24732 L 264.56178 179.51024 M 262.73385 152.08990 L 266.74878 142.03528 L 257.08244 141.73066 L 262.73385 152.08990 M 274.57668 148.72890 L 268.93556 142.91006 L 264.92063 152.96468 L 274.57668 148.72890 M 181.58013 106.95791 L 180.00059 116.67810 L 187.65561 111.66105 L 181.58013 106.95791 M 229.33581 98.07680 L 225.61375 104.09194 L 231.54199 109.68772 L 229.33581 98.07680 M 171.62784 125.69882 L 128.73933 138.68722 L 165.14168 161.11826 L 171.62784 125.69882 M 274.44132 169.12299 L 281.49506 168.72225 L 277.10825 163.36355 L 274.44132 169.12299 M 284.43809 160.29921 L 277.73030 151.49484 L 277.80070 160.46897 L 284.43809 160.29921 M 222.84550 104.22141 L 217.95727 100.67387 L 218.00633 108.25596 L 222.84550 104.22141 M 193.22953 92.08452 L 187.48999 94.78494 L 193.65040 99.59476 L 193.22953 92.08452 M 151.52958 199.02975 L 151.79191 205.78510 L 157.09407 200.43051 L 151.52958 199.02975 M 126.49975 145.44937 L 153.71116 179.79609 L 162.90209 167.88041 L 126.49975 145.44937 M 149.45975 199.32694 L 140.53547 202.80805 L 149.72209 206.08229 L 149.45975 199.32694 M 153.24574 208.68705 L 159.67785 216.55817 L 162.03022 209.01963 L 153.24574 208.68705 M 285.31396 187.80825 L 285.60362 178.82834 L 279.11873 179.33020 L 285.31396 187.80825 M 277.46403 176.49595 L 281.53953 170.36380 L 274.48580 170.76454 L 277.46403 176.49595 M 204.90966 92.61354 L 197.13196 100.14341 L 207.14392 99.19377 L 204.90966 92.61354 M 168.16942 114.61986 L 129.11780 132.87492 L 172.00631 119.88652 L 168.16942 114.61986 M 176.37546 96.71659 L 172.20664 101.24461 L 179.46079 103.58258 L 176.37546 96.71659 M 284.68126 168.97373 L 293.29350 171.30465 L 286.93184 163.44527 L 284.68126 168.97373 M 215.97374 91.94536 L 207.26488 91.58878 L 209.49914 98.16901 L 215.97374 91.94536 M 289.09047 153.72849 L 285.82167 148.12166 L 279.13845 149.39284 L 289.09047 153.72849 M 276.91086 147.94219 L 283.59408 146.67102 L 271.26974 142.12335 L 276.91086 147.94219 M 184.37880 95.58551 L 177.89698 96.00920 L 180.98231 102.87520 L 184.37880 95.58551 M 142.09178 195.02415 L 139.58168 201.42579 L 148.50596 197.94467 L 142.09178 195.02415 M 152.02632 210.00558 L 152.27486 219.56794 L 158.45843 217.87671 L 152.02632 210.00558 M 146.71994 215.43724 L 150.80755 219.26300 L 150.55901 209.70065 L 146.71994 215.43724 M 169.22161 221.57819 L 221.88583 251.19781 L 179.28391 211.68903 L 169.22161 221.57819 M 140.02451 204.59262 L 145.37206 213.60344 L 149.21113 207.86685 L 140.02451 204.59262 M 297.81277 163.87623 L 291.42783 156.79835 L 288.18360 161.26707 L 297.81277 163.87623 M 228.10213 94.19852 L 225.93721 87.79269 L 220.11544 91.08241 L 228.10213 94.19852 M 210.75922 79.54146 L 205.39549 82.14839 L 206.22953 88.43050 L 210.75922 79.54146 M 193.76140 83.36252 L 183.22030 86.72464 L 192.76746 89.38535 L 193.76140 83.36252 M 227.04854 76.35877 L 226.80385 85.95224 L 228.96877 92.35806 L 227.04854 76.35877 M 169.94312 102.01750 L 163.68369 98.44622 L 171.78083 108.80900 L 169.94312 102.01750 M 196.29651 83.73981 L 195.30256 89.76265 L 203.50113 89.74302 L 196.29651 83.73981 M 203.71916 82.56065 L 197.34858 82.83956 L 204.55320 88.84277 L 203.71916 82.56065 M 291.05177 153.71078 L 294.82881 149.25119 L 287.78297 148.10396 L 291.05177 153.71078 M 286.63696 139.07266 L 301.25394 87.15526 L 274.31262 134.52499 L 286.63696 139.07266 M 178.76026 87.83654 L 170.30246 89.13362 L 176.08605 93.62136 L 178.76026 87.83654 M 128.22459 201.33232 L 137.04651 201.84924 L 139.55661 195.44760 L 128.22459 201.33232 M 145.70217 217.48224 L 142.41682 226.06070 L 149.78978 221.30801 L 145.70217 217.48224 M 225.04139 86.21365 L 220.93554 81.56618 L 219.21962 89.50337 L 225.04139 86.21365 M 294.99061 170.88761 L 298.25812 165.63739 L 288.62895 163.02823 L 294.99061 170.88761 M 134.73557 213.42825 L 138.05675 218.86727 L 143.54503 215.80744 L 134.73557 213.42825 M 152.35666 222.18212 L 152.68070 230.91908 L 158.54023 220.49090 L 152.35666 222.18212 M 129.25719 224.56688 L 139.16421 226.85053 L 136.96128 221.33190 L 129.25719 224.56688 M 126.71505 216.34545 L 135.95300 218.93452 L 132.63182 213.49550 L 126.71505 216.34545 M 138.84590 220.43265 L 141.04883 225.95128 L 144.33419 217.37282 L 138.84590 220.43265 M 299.50411 163.13319 L 301.71431 155.32275 L 293.11917 156.05531 L 299.50411 163.13319 M 295.89340 83.65594 L 243.75265 111.07804 L 268.95209 131.02566 L 295.89340 83.65594 M 206.52778 71.63924 L 205.43277 80.04948 L 210.79650 77.44255 L 206.52778 71.63924 M 205.01976 71.03657 L 198.73235 72.62119 L 203.92475 79.44681 L 205.01976 71.03657 M 219.42964 78.65753 L 217.17335 72.19012 L 213.53455 77.34910 L 219.42964 78.65753 M 116.85234 211.53174 L 123.65746 214.52654 L 124.21422 204.52804 L 116.85234 211.53174 M 126.03163 204.54873 L 125.47488 214.54723 L 131.39165 211.69728 L 126.03163 204.54873 M 225.24384 73.19188 L 218.63701 71.67047 L 220.89330 78.13788 L 225.24384 73.19188 M 224.50059 248.67791 L 190.13969 201.41902 L 181.89867 209.16913 L 224.50059 248.67791 M 312.59006 178.37188 L 306.59641 172.90199 L 301.79337 179.50712 L 312.59006 178.37188 M 306.09932 169.62051 L 308.23840 162.86698 L 301.67125 165.47868 L 306.09932 169.62051 M 313.40981 168.69574 L 309.70572 163.26911 L 307.56664 170.02264 L 313.40981 168.69574 M 178.19477 63.11989 L 176.53044 71.13349 L 183.48043 72.12992 L 178.19477 63.11989 M 141.90609 230.01579 L 141.29235 240.38604 L 149.60309 234.00006 L 141.90609 230.01579 M 126.08892 217.58459 L 127.62278 223.40864 L 135.32687 220.17366 L 126.08892 217.58459 M 168.22718 81.39876 L 160.70470 79.63347 L 167.42308 86.86410 L 168.22718 81.39876 M 309.13949 159.90438 L 311.09790 153.73015 L 304.78254 154.70564 L 309.13949 159.90438 M 165.69983 73.55471 L 160.48929 77.96980 L 168.01177 79.73508 L 165.69983 73.55471 M 128.66132 225.82492 L 132.19436 231.39623 L 138.56834 228.10857 L 128.66132 225.82492 M 160.44704 242.22815 L 161.82316 283.03503 L 218.97079 261.41958 L 160.44704 242.22815 M 124.10103 217.77797 L 119.42381 221.72065 L 125.63489 223.60201 L 124.10103 217.77797 M 123.31583 236.85770 L 128.98865 240.63298 L 130.53600 234.01369 L 123.31583 236.85770 M 313.24806 180.28300 L 302.45137 181.41824 L 311.86042 188.19092 L 313.24806 180.28300 M 110.17052 206.63916 L 115.16647 210.54582 L 122.52835 203.54211 L 110.17052 206.63916 M 130.84300 241.23849 L 138.15059 241.70180 L 132.39035 234.61920 L 130.84300 241.23849 M 133.52197 233.20393 L 139.28221 240.28652 L 139.89595 229.91627 L 133.52197 233.20393 M 173.79291 72.99988 L 167.36278 72.93347 L 169.67473 79.11384 L 173.79291 72.99988 M 156.57694 78.84516 L 149.76324 77.61107 L 148.73721 83.55694 L 156.57694 78.84516 M 164.78185 65.49526 L 166.75117 71.23114 L 173.18131 71.29756 L 164.78185 65.49526 M 199.70005 63.01192 L 192.20687 65.18444 L 196.83928 70.14486 L 199.70005 63.01192 M 225.00187 71.44609 L 218.95752 64.17153 L 218.39504 69.92467 L 225.00187 71.44609 M 216.32156 69.61528 L 216.88404 63.86213 L 208.41404 68.97095 L 216.32156 69.61528 M 225.16483 59.57030 L 219.80374 62.87723 L 225.84809 70.15179 L 225.16483 59.57030 M 113.90793 228.55559 L 116.02542 222.89364 L 105.24250 223.38126 L 113.90793 228.55559 M 116.10463 213.52334 L 118.23253 220.46082 L 122.90975 216.51813 L 116.10463 213.52334 M 247.58998 249.31463 L 296.78925 216.54372 L 283.05361 199.77490 L 247.58998 249.31463 M 304.51421 200.78032 L 318.10718 198.94714 L 312.62953 192.41605 L 304.51421 200.78032 M 163.11889 66.11650 L 159.87768 76.26747 L 165.08822 71.85238 L 163.11889 66.11650 M 179.71225 62.38492 L 184.99791 71.39495 L 188.67030 65.25367 L 179.71225 62.38492 M 107.92911 197.39728 L 102.19215 196.46415 L 107.10679 204.39177 L 107.92911 197.39728 M 140.97694 243.87793 L 139.38277 257.95093 L 149.28768 237.49195 L 140.97694 243.87793 M 188.30808 56.01145 L 190.68359 62.70842 L 194.52171 54.86110 L 188.30808 56.01145 M 324.50101 186.60769 L 322.48795 176.93367 L 316.87885 179.60880 L 324.50101 186.60769 M 315.76848 177.63799 L 321.37757 174.96286 L 315.61800 170.84119 L 315.76848 177.63799 M 323.50148 188.11955 L 315.87932 181.12066 L 314.49169 189.02858 L 323.50148 188.11955 M 237.97417 54.20736 L 235.23820 70.41426 L 291.50536 70.60237 L 237.97417 54.20736 M 205.40756 53.47468 L 197.59579 54.27244 L 201.25085 59.94723 L 205.40756 53.47468 M 116.02394 221.09372 L 113.89603 214.15624 L 105.24101 221.58134 L 116.02394 221.09372 M 176.00199 62.14865 L 165.93820 64.35995 L 174.33766 70.16224 L 176.00199 62.14865 M 103.58568 213.27521 L 112.79864 211.76246 L 107.80269 207.85580 L 103.58568 213.27521 M 314.51778 211.70139 L 318.34321 201.35781 L 304.75024 203.19099 L 314.51778 211.70139 M 147.51321 77.48566 L 138.57672 77.84183 L 146.48718 83.43152 L 147.51321 77.48566 M 311.97110 221.05147 L 314.10338 215.21491 L 307.39268 215.11893 L 311.97110 221.05147 M 207.62923 54.34815 L 203.47253 60.82070 L 215.36917 61.26020 L 207.62923 54.34815 M 320.55363 197.62238 L 324.08576 190.18227 L 315.07598 191.09130 L 320.55363 197.62238 M 250.20627 252.55768 L 303.98396 225.71932 L 299.40554 219.78677 L 250.20627 252.55768 M 354.43125 218.53172 L 335.92252 194.73013 L 326.24163 201.17664 L 354.43125 218.53172 M 100.87742 197.58088 L 97.41129 206.33115 L 105.79206 205.50850 L 100.87742 197.58088 M 112.89695 236.89012 L 119.82167 236.16601 L 115.18023 231.53129 L 112.89695 236.89012 M 103.62089 220.80638 L 112.27591 213.38128 L 103.06295 214.89403 L 103.62089 220.80638 M 119.17823 246.63605 L 124.77083 248.45861 L 127.88835 243.32445 L 119.17823 246.63605 M 161.26243 56.02008 L 153.59916 62.46886 L 161.99619 62.82418 L 161.26243 56.02008 M 95.86228 218.75695 L 101.56918 221.47834 L 101.01125 215.56599 L 95.86228 218.75695 M 127.87528 250.12833 L 136.70622 259.53047 L 138.30039 245.45748 L 127.87528 250.12833 M 111.95139 148.01878 L 85.44577 182.28031 L 100.23229 188.52082 L 111.95139 148.01878 M 132.66605 67.16923 L 136.44866 75.17724 L 142.18182 69.76664 L 132.66605 67.16923 M 113.12611 238.56464 L 117.01354 244.92739 L 120.05083 237.84052 L 113.12611 238.56464 M 169.54430 54.45398 L 163.25558 55.01822 L 163.98934 61.82232 L 169.54430 54.45398 M 140.13261 57.04309 L 133.12654 64.90246 L 142.64232 67.49987 L 140.13261 57.04309 M 162.41746 46.73873 L 163.05909 53.13277 L 169.34782 52.56854 L 162.41746 46.73873 M 323.47561 172.84916 L 332.55279 160.72840 L 317.71604 168.72750 L 323.47561 172.84916 M 310.18047 144.34195 L 306.61815 88.52579 L 299.04702 141.59041 L 310.18047 144.34195 M 111.87538 239.42029 L 110.04502 244.68574 L 115.76281 245.78304 L 111.87538 239.42029 M 192.75071 43.63656 L 195.96341 51.12851 L 199.21630 41.48993 L 192.75071 43.63656 M 219.41772 48.32031 L 212.50771 43.61709 L 209.08298 50.99887 L 219.41772 48.32031 M 200.79123 42.44624 L 197.53834 52.08482 L 205.35011 51.28706 L 200.79123 42.44624 M 154.87811 51.45675 L 152.70940 61.04793 L 160.37267 54.59915 L 154.87811 51.45675 M 93.95120 208.37422 L 82.56261 205.31506 L 92.96598 216.16195 L 93.95120 208.37422 M 210.38005 42.73677 L 202.39644 41.27774 L 206.95532 50.11855 L 210.38005 42.73677 M 313.30427 223.23632 L 318.05807 232.59772 L 315.43655 217.39975 L 313.30427 223.23632 M 81.64951 188.87933 L 81.58131 200.81095 L 96.43603 195.11984 L 81.64951 188.87933 M 107.66538 251.89118 L 115.23656 247.34190 L 109.51877 246.24460 L 107.66538 251.89118 M 108.32693 253.42483 L 114.81117 258.51380 L 115.89811 248.87555 L 108.32693 253.42483 M 77.99164 220.92135 L 87.99104 227.59695 L 91.79586 220.03184 L 77.99164 220.92135 M 352.65012 183.52912 L 345.50658 183.24513 L 337.86516 188.84856 L 352.65012 183.52912 M 335.94214 188.79121 L 343.58356 183.18778 L 337.26590 183.07033 L 335.94214 188.79121 M 337.89876 178.96934 L 347.73111 173.16819 L 337.49037 161.90183 L 337.89876 178.96934 M 352.44913 125.13428 L 313.29341 86.46877 L 316.85574 142.28493 L 352.44913 125.13428 M 229.67430 47.88479 L 228.55597 36.88700 L 223.48878 47.22651 L 229.67430 47.88479 M 133.56356 280.02179 L 143.26361 281.20727 L 137.88972 266.82417 L 133.56356 280.02179 M 139.92273 262.01608 L 145.29662 276.39919 L 149.82764 241.55711 L 139.92273 262.01608 M 291.73645 66.71599 L 237.08693 39.32319 L 238.20526 50.32097 L 291.73645 66.71599 M 201.50298 31.86164 L 195.33718 32.91008 L 200.11919 38.15734 L 201.50298 31.86164 M 171.64971 26.58663 L 161.95026 35.42265 L 168.05280 38.30290 L 171.64971 26.58663 M 111.30454 67.83198 L 104.65353 78.62421 L 120.92262 76.54493 L 111.30454 67.83198 M 121.57576 83.77420 L 105.30667 85.85348 L 116.52966 125.66617 L 121.57576 83.77420 M 114.24324 66.35110 L 123.86132 75.06405 L 128.16317 66.77715 L 114.24324 66.35110 M 203.32664 32.81968 L 201.94285 39.11538 L 209.92647 40.57441 L 203.32664 32.81968 M 357.92637 216.85087 L 354.20260 187.72984 L 339.41764 193.04928 L 357.92637 216.85087 M 325.63146 254.26215 L 322.05425 249.60787 L 321.29432 259.31583 L 325.63146 254.26215 M 146.90819 279.30603 L 152.81533 285.27083 L 151.43921 244.46396 L 146.90819 279.30603 M 131.28148 47.40185 L 131.70644 62.39021 L 138.71251 54.53084 L 131.28148 47.40185 M 173.80490 26.96373 L 170.20799 38.68000 L 179.19178 38.43945 L 173.80490 26.96373 M 166.83146 40.43709 L 160.72891 37.55684 L 161.87895 43.66013 L 166.83146 40.43709 M 117.91620 270.53476 L 133.32326 263.64209 L 117.81277 262.05563 L 117.91620 270.53476 M 193.22421 24.39138 L 194.47531 31.18934 L 200.64110 30.14089 L 193.22421 24.39138 M 191.36895 24.28763 L 185.79902 29.31093 L 192.62005 31.08559 L 191.36895 24.28763 M 68.96523 213.22835 L 74.31299 217.76942 L 77.71383 206.03301 L 68.96523 213.22835 M 61.35065 171.37215 L 62.32821 181.48381 L 66.14180 177.36102 L 61.35065 171.37215 M 67.09213 179.30067 L 63.27854 183.42346 L 68.95332 186.88933 L 67.09213 179.30067 M 61.30242 157.75615 L 65.60102 164.88087 L 105.42088 142.66721 L 61.30242 157.75615 M 58.71773 201.00757 L 61.16790 192.93166 L 55.37905 195.12144 L 58.71773 201.00757 M 359.05095 172.49791 L 357.79419 167.16283 L 352.33733 173.03370 L 359.05095 172.49791 M 132.63976 282.96340 L 130.49933 290.35706 L 142.33981 284.14888 L 132.63976 282.96340 M 225.57036 32.39167 L 211.95399 24.56437 L 214.33865 30.08892 L 225.57036 32.39167 M 211.68479 29.78629 L 209.30012 24.26174 L 204.33948 29.97059 L 211.68479 29.78629 M 144.78137 27.12400 L 143.21504 35.87022 L 149.51368 35.31228 L 144.78137 27.12400 M 325.34283 244.09664 L 352.95830 227.89523 L 323.56477 236.08170 L 325.34283 244.09664 M 76.06155 222.08919 L 76.35514 229.37456 L 86.06095 228.76479 L 76.06155 222.08919 M 61.71582 204.09532 L 67.39058 211.51909 L 76.13919 204.32375 L 61.71582 204.09532 M 129.19220 46.77492 L 121.99823 49.51547 L 129.61715 61.76329 L 129.19220 46.77492 M 189.34655 23.42166 L 176.44084 24.15786 L 183.77662 28.44497 L 189.34655 23.42166 M 57.79545 265.40697 L 70.21109 243.24837 L 38.36339 243.57212 L 57.79545 265.40697 M 76.54947 231.36874 L 77.61619 238.04267 L 86.25528 230.75897 L 76.54947 231.36874 M 65.46723 111.15682 L 61.28570 151.04064 L 105.40416 135.95170 L 65.46723 111.15682 M 63.70534 193.80517 L 61.25517 201.88108 L 75.67853 202.10951 L 63.70534 193.80517 M 123.27686 282.28782 L 128.11647 290.12443 L 130.25689 282.73077 L 123.27686 282.28782 M 170.70675 25.04328 L 160.50912 25.95612 L 161.00730 33.87931 L 170.70675 25.04328 M 100.82621 271.48512 L 112.84259 271.67286 L 104.64734 264.45542 L 100.82621 271.48512 M 54.80750 161.19068 L 53.46150 170.14346 L 59.10610 168.31540 L 54.80750 161.19068 M 78.04645 87.72881 L 72.11846 95.25570 L 86.59215 84.75622 L 78.04645 87.72881 M 83.81561 271.09902 L 82.81026 259.47119 L 71.50695 267.61981 L 83.81561 271.09902 M 87.68373 258.80505 L 97.68135 269.87665 L 101.50249 262.84695 L 87.68373 258.80505 M 84.18955 70.61066 L 82.61876 76.24002 L 91.26673 73.08038 L 84.18955 70.61066 M 58.49461 203.96071 L 50.36944 203.24685 L 64.16936 211.38447 L 58.49461 203.96071 M 53.31606 173.73639 L 52.66640 179.82244 L 59.93821 182.01999 L 53.31606 173.73639 M 322.50753 260.88452 L 331.75991 262.15738 L 326.84467 255.83084 L 322.50753 260.88452 M 361.22680 215.69368 L 365.82110 183.79175 L 357.50303 186.57265 L 361.22680 215.69368 M 320.80189 285.97337 L 314.85099 271.49011 L 253.79109 264.99739 L 320.80189 285.97337 M 353.72334 229.70512 L 326.10787 245.90653 L 329.68508 250.56081 L 353.72334 229.70512 M 360.75766 172.98673 L 365.99095 176.94420 L 359.50089 167.65164 L 360.75766 172.98673 M 110.30271 290.89907 L 116.87241 290.94387 L 111.43343 282.99610 L 110.30271 290.89907 M 112.67200 281.90444 L 118.11098 289.85221 L 120.21126 282.16576 L 112.67200 281.90444 M 156.72678 26.07442 L 146.47034 25.89952 L 151.20265 34.08781 L 156.72678 26.07442 M 83.34622 23.50492 L 139.26299 24.46256 L 159.71706 23.72462 L 83.34622 23.50492 M 323.61397 268.74564 L 331.35608 263.77173 L 322.10369 262.49887 L 323.61397 268.74564 M 67.52705 84.63460 L 75.76368 85.66293 L 70.63869 76.78441 L 67.52705 84.63460 M 73.14029 102.19024 L 66.94906 105.05052 L 106.88598 129.84540 L 73.14029 102.19024 M 44.88128 174.77957 L 50.78428 178.91739 L 51.43394 172.83134 L 44.88128 174.77957 M 43.84014 182.72111 L 47.70934 187.29319 L 50.25476 181.40666 L 43.84014 182.72111 M 53.86829 196.17317 L 49.08180 201.34544 L 57.20697 202.05929 L 53.86829 196.17317 M 343.58643 258.18101 L 355.90816 231.23943 L 331.86990 252.09512 L 343.58643 258.18101 M 142.88931 26.19315 L 134.37716 27.86548 L 141.32297 34.93937 L 142.88931 26.19315 M 101.55891 45.02076 L 109.61033 40.62345 L 102.23882 35.88170 L 101.55891 45.02076 M 111.47025 42.04931 L 103.41884 46.44662 L 117.11820 47.28855 L 111.47025 42.04931 M 72.16400 75.97305 L 77.28899 84.85158 L 79.72951 78.14375 L 72.16400 75.97305 M 39.85948 164.98599 L 51.05568 169.72728 L 52.40167 160.77451 L 39.85948 164.98599 M 101.09887 289.01565 L 108.33102 290.65804 L 109.46174 282.75508 L 101.09887 289.01565 M 41.88430 193.70691 L 46.62601 199.79336 L 47.08883 190.55681 L 41.88430 193.70691 M 43.87210 175.83678 L 43.36048 181.28906 L 49.77510 179.97461 L 43.87210 175.83678 M 53.47445 87.47004 L 59.17405 90.78168 L 63.77662 86.39064 L 53.47445 87.47004 M 339.70302 269.68639 L 342.17519 263.77770 L 335.37391 264.01835 L 339.70302 269.68639 M 90.47582 52.52441 L 82.34761 59.74874 L 92.42122 60.00423 L 90.47582 52.52441 M 47.58874 206.99655 L 36.24904 233.95827 L 61.38867 215.13417 L 47.58874 206.99655 M 81.19621 283.57765 L 87.98927 281.53856 L 85.46764 275.32405 L 81.19621 283.57765 M 75.29088 55.64192 L 73.32097 64.85884 L 78.53815 60.63453 L 75.29088 55.64192 M 79.36760 62.21870 L 74.15042 66.44300 L 81.92650 68.31525 L 79.36760 62.21870 M 331.24920 287.00006 L 337.36950 273.21093 L 325.29829 272.51680 L 331.24920 287.00006 M 140.55344 25.02585 L 122.63605 25.60096 L 132.04130 26.69818 L 140.55344 25.02585 M 112.05629 33.52404 L 103.55099 34.44461 L 110.92250 39.18636 L 112.05629 33.52404 M 35.20421 129.47761 L 52.51071 150.23138 L 56.69224 110.34756 L 35.20421 129.47761 M 36.85514 166.75055 L 34.91958 172.94273 L 41.49867 173.44007 L 36.85514 166.75055 M 59.89376 69.38447 L 60.90667 75.05068 L 68.13977 73.91081 L 59.89376 69.38447 M 61.12138 68.46007 L 69.36738 72.98641 L 70.72761 67.65550 L 61.12138 68.46007 M 86.65998 43.22812 L 82.88235 47.39364 L 89.89510 49.28761 L 86.65998 43.22812 M 89.94183 283.88504 L 87.60931 290.85670 L 96.62758 289.16327 L 89.94183 283.88504 M 88.71932 41.63496 L 98.22120 45.26594 L 93.09036 37.07681 L 88.71932 41.63496 M 94.54490 36.28994 L 99.67574 44.47908 L 100.35564 35.34001 L 94.54490 36.28994 M 70.38615 269.55689 L 73.84380 274.96781 L 82.69480 273.03610 L 70.38615 269.55689 M 345.18899 278.06314 L 347.60276 272.60970 L 341.39664 272.22826 L 345.18899 278.06314 M 53.48434 61.24392 L 63.43115 60.57047 L 60.42626 47.25683 L 53.48434 61.24392 M 57.17442 68.59140 L 51.92484 65.37834 L 52.64746 76.44560 L 57.17442 68.59140 M 81.22323 285.46139 L 85.68377 290.39397 L 88.01628 283.42230 L 81.22323 285.46139 M 58.06906 69.85987 L 53.54210 77.71407 L 59.08196 75.52609 L 58.06906 69.85987 M 49.02600 88.65259 L 36.21545 91.55723 L 46.69916 96.25807 L 49.02600 88.65259 M 333.51542 287.93277 L 343.42808 279.97852 L 339.63573 274.14364 L 333.51542 287.93277 M 356.46329 273.17103 L 359.31874 267.59381 L 353.55701 265.86755 L 356.46329 273.17103 M 47.29369 101.52916 L 34.55208 123.38984 L 56.04011 104.25978 L 47.29369 101.52916 M 32.66675 176.36069 L 26.57581 183.42854 L 31.50254 187.52368 L 32.66675 176.36069 M 105.99909 27.54696 L 99.52119 26.25192 L 101.61115 32.34333 L 105.99909 27.54696 M 91.11945 35.36238 L 82.45390 31.55049 L 86.74841 39.92053 L 91.11945 35.36238 M 75.82102 23.65953 L 99.51548 24.96152 L 131.73779 24.61717 L 75.82102 23.65953 M 26.62402 164.40099 L 33.06025 171.81285 L 34.99581 165.62066 L 26.62402 164.40099 M 31.50728 191.88366 L 25.29967 199.64950 L 33.98553 199.37951 L 31.50728 191.88366 M 25.71652 174.70290 L 25.85255 181.82594 L 31.94350 174.75809 L 25.71652 174.70290 M 60.33699 271.98739 L 64.57621 276.44027 L 66.87221 269.60397 L 60.33699 271.98739 M 355.29173 273.65517 L 352.38545 266.35170 L 349.94627 271.46698 L 355.29173 273.65517 M 355.08913 260.65389 L 368.33340 261.30443 L 361.23774 232.53745 L 355.08913 260.65389 M 365.73114 218.13169 L 393.53772 206.07672 L 370.32543 186.22976 L 365.73114 218.13169 M 66.02235 286.34414 L 71.96269 290.79476 L 77.25489 285.83057 L 66.02235 286.34414 M 79.49676 286.46186 L 74.20456 291.42605 L 83.95730 291.39444 L 79.49676 286.46186 M 68.29977 270.03647 L 66.00376 276.87277 L 71.75742 275.44739 L 68.29977 270.03647 M 356.66808 282.73289 L 355.52534 276.38450 L 347.76611 279.64974 L 356.66808 282.73289 M 33.11194 232.63869 L 44.45164 205.67697 L 36.29183 204.57757 L 33.11194 232.63869 M 51.18480 79.87357 L 45.39134 79.34614 L 50.54395 85.47530 L 51.18480 79.87357 M 53.24258 63.70109 L 58.49216 66.91416 L 63.18939 63.02764 L 53.24258 63.70109 M 23.64310 193.13820 L 24.00686 198.86933 L 30.21448 191.10349 L 23.64310 193.13820 M 359.80601 119.59639 L 375.71071 97.98179 L 320.65029 80.93088 L 359.80601 119.59639 M 414.03193 152.28075 L 366.12897 155.74590 L 372.64677 173.32068 L 414.03193 152.28075 M 81.28981 32.79673 L 81.80669 45.33228 L 85.58432 41.16676 L 81.28981 32.79673 M 64.64797 284.03233 L 71.30095 277.19687 L 65.54729 278.62225 L 64.64797 284.03233 M 66.12415 284.73184 L 77.35670 284.21828 L 72.77713 277.89638 L 66.12415 284.73184 M 95.99620 26.66397 L 83.60987 29.89342 L 92.27542 33.70531 L 95.99620 26.66397 M 334.52548 289.75571 L 347.71620 288.72711 L 344.43814 281.80145 L 334.52548 289.75571 M 360.79560 266.64339 L 368.27814 265.56767 L 355.03386 264.91713 L 360.79560 266.64339 M 350.40400 288.03124 L 356.02791 284.18873 L 347.12594 281.10558 L 350.40400 288.03124 M 25.19944 204.72907 L 30.70541 232.52021 L 33.88530 204.45908 L 25.19944 204.72907 M 49.49723 279.25350 L 55.80382 279.64481 L 57.43173 273.41562 L 49.49723 279.25350 M 78.71493 32.95566 L 64.98529 42.43821 L 79.23181 45.49121 L 78.71493 32.95566 M 406.31294 218.02585 L 398.03616 210.05123 L 370.22958 222.10620 L 406.31294 218.02585 M 365.99038 286.05515 L 365.21608 280.36314 L 359.76975 283.88667 L 365.99038 286.05515 M 372.16626 260.69168 L 385.75199 255.75196 L 365.07060 231.92471 L 372.16626 260.69168 M 34.26672 66.20261 L 36.74958 71.57382 L 40.79153 66.89311 L 34.26672 66.20261 M 41.87630 68.19896 L 37.83435 72.87968 L 42.94488 76.64945 L 41.87630 68.19896 M 23.75296 83.39574 L 23.63479 91.48817 L 30.84462 90.44314 L 23.75296 83.39574 M 378.33508 93.45406 L 380.80093 83.37455 L 323.27465 76.40315 L 378.33508 93.45406 M 335.93012 291.03028 L 355.67531 291.99801 L 349.12084 290.00168 L 335.93012 291.03028 M 56.79524 282.11286 L 54.08874 289.13497 L 61.76306 285.74664 L 56.79524 282.11286 M 58.27818 46.50899 L 46.24645 54.58773 L 51.33625 60.49608 L 58.27818 46.50899 M 360.05519 291.06299 L 365.34526 287.39263 L 359.12464 285.22415 L 360.05519 291.06299 M 48.87803 281.14655 L 52.47812 288.55996 L 55.18462 281.53785 L 48.87803 281.14655 M 33.60509 58.92333 L 33.87366 64.62130 L 40.39847 65.31179 L 33.60509 58.92333 M 367.75096 285.66354 L 373.85440 280.75381 L 366.97666 279.97154 L 367.75096 285.66354 M 27.26381 73.63465 L 34.67106 80.35326 L 35.29143 73.89518 L 27.26381 73.63465 M 23.99922 62.29233 L 25.61947 70.70563 L 31.16423 65.59495 L 23.99922 62.29233 M 32.54249 66.83407 L 26.99774 71.94475 L 35.02536 72.20528 L 32.54249 66.83407 M 394.46260 76.79880 L 389.89254 68.91561 L 389.99486 80.69202 L 394.46260 76.79880 M 401.12767 87.29239 L 391.35800 84.22468 L 395.49565 90.21598 L 401.12767 87.29239 M 27.86185 282.59728 L 38.74020 283.92668 L 44.31573 280.74945 L 27.86185 282.59728 M 32.02345 290.54927 L 37.20366 285.15166 L 26.32531 283.82226 L 32.02345 290.54927 M 389.89309 251.05948 L 405.29505 223.15188 L 369.21169 227.23223 L 389.89309 251.05948 M 400.10622 198.51359 L 418.27909 157.62671 L 376.89393 178.66664 L 400.10622 198.51359 M 62.89788 25.78246 L 54.46861 28.88858 L 60.47638 39.79645 L 62.89788 25.78246 M 369.12290 286.63614 L 377.95224 287.75237 L 375.22634 281.72642 L 369.12290 286.63614 M 377.51389 279.37378 L 386.77357 278.37592 L 380.88945 274.83885 L 377.51389 279.37378 M 382.12099 272.57753 L 391.98124 270.35596 L 383.39004 267.04182 L 382.12099 272.57753 M 397.45175 67.05898 L 390.82465 67.21148 L 395.39471 75.09467 L 397.45175 67.05898 M 381.13520 65.83303 L 381.93016 59.10960 L 323.71125 70.63804 L 381.13520 65.83303 M 52.22011 30.16866 L 44.90985 36.02307 L 58.22787 41.07653 L 52.22011 30.16866 M 24.59716 72.29526 L 22.97691 63.88196 L 22.98570 78.31195 L 24.59716 72.29526 M 401.98383 72.92092 L 398.84664 67.77266 L 396.78961 75.80835 L 401.98383 72.92092 M 407.31530 79.75260 L 397.86165 78.53689 L 403.16359 85.49781 L 407.31530 79.75260 M 407.29991 78.34569 L 403.04049 74.24255 L 397.84627 77.12998 L 407.29991 78.34569 M 424.42497 205.23995 L 424.22047 160.94837 L 406.04760 201.83526 L 424.42497 205.23995 M 32.37349 45.71095 L 26.60251 51.10638 L 31.90552 55.24380 L 32.37349 45.71095 M 403.42659 71.74689 L 408.33172 66.41610 L 400.28941 66.59863 L 403.42659 71.74689 M 395.69597 267.47810 L 406.02658 254.68384 L 392.91707 259.03479 L 395.69597 267.47810 M 405.13321 271.59689 L 407.55360 256.25410 L 397.22299 269.04837 L 405.13321 271.59689 M 39.35857 37.21670 L 27.21662 39.56263 L 33.26984 42.42530 L 39.35857 37.21670 M 31.57560 43.94016 L 25.52238 41.07749 L 25.80462 49.33559 L 31.57560 43.94016 M 50.66424 28.16387 L 45.78090 25.03827 L 43.35398 34.01828 L 50.66424 28.16387 M 164.57654 22.74366 L 61.98738 23.24067 L 75.29998 23.26016 L 164.57654 22.74366 M 27.01584 278.19015 L 43.46973 276.34231 L 31.97217 248.66957 L 27.01584 278.19015 M 39.05900 286.13364 L 33.87879 291.53124 L 41.16801 291.67809 L 39.05900 286.13364 M 24.03712 212.95502 L 24.58677 270.26674 L 29.54310 240.74616 L 24.03712 212.95502 M 399.20563 289.72112 L 390.16452 288.60889 L 382.95457 288.85986 L 399.20563 289.72112 M 381.56638 287.73343 L 388.77634 287.48245 L 388.10017 280.70962 L 381.56638 287.73343 M 423.76148 260.47310 L 421.51034 239.77564 L 412.32200 251.76560 L 423.76148 260.47310 M 411.01528 247.15643 L 420.20362 235.16648 L 413.30773 223.59979 L 411.01528 247.15643 M 416.84872 79.10934 L 410.58443 79.76567 L 413.59873 85.04302 L 416.84872 79.10934 M 408.74267 77.17166 L 409.38838 67.73773 L 404.48325 73.06852 L 408.74267 77.17166 M 398.54087 63.99329 L 403.31270 57.29259 L 392.70873 57.42236 L 398.54087 63.99329 M 27.76526 29.35557 L 26.52855 37.92891 L 38.67050 35.58299 L 27.76526 29.35557 M 24.75256 51.03962 L 24.47032 42.78152 L 23.15913 57.57239 L 24.75256 51.03962 M 382.72663 55.64932 L 387.50698 38.15075 L 324.50772 67.17776 L 382.72663 55.64932 M 400.42075 280.06523 L 404.24160 274.57328 L 396.33138 272.02476 L 400.42075 280.06523 M 410.53839 64.15575 L 416.30810 60.36480 L 407.26791 57.63758 L 410.53839 64.15575 M 401.92940 281.59929 L 408.40064 284.29720 L 405.75026 276.10734 L 401.92940 281.59929 M 416.46464 49.01986 L 400.32709 35.86480 L 406.15071 53.23359 L 416.46464 49.01986 M 426.17378 134.32797 L 424.28248 77.96972 L 423.76990 89.52184 L 426.17378 134.32797 M 421.24798 274.22924 L 423.42614 266.69765 L 409.56627 273.33294 L 421.24798 274.22924 M 423.28077 235.75756 L 425.53191 256.45502 L 426.48548 219.62094 L 423.28077 235.75756 M 423.13514 65.66559 L 420.44567 53.08586 L 419.17194 60.02682 L 423.13514 65.66559 M 417.31431 58.83167 L 418.58804 51.89072 L 408.27412 56.10445 L 417.31431 58.83167 M 420.29041 290.98609 L 419.04987 285.47338 L 411.91849 286.38085 L 420.29041 290.98609 M 410.34388 284.55298 L 417.47525 283.64551 L 407.69349 276.36311 L 410.34388 284.55298 M 405.39177 289.83085 L 418.58315 291.53078 L 410.21123 286.92554 L 405.39177 289.83085 M 420.34006 284.43144 L 421.58060 289.94415 L 422.24001 278.04535 L 420.34006 284.43144 M 422.82259 276.05711 L 422.16319 287.95591 L 425.00075 268.52552 L 422.82259 276.05711" fill="none" stroke="black" stroke-width="0.01cm" />
   </g>
</svg>