<?xml version="1.0" standalone="no"?>
  <!DOCTYPE svg PUBLIC "-//W3C//DTD SVG 1.1//EN" 
    "http://www.w3.org/Graphics/SVG/1.1/DTD/svg11.dtd">
  <svg width="12.7cm" height="8.89cm"
       xmlns="http://www.w3.org/2000/svg" version="1.1" viewBox="0 0 449.99999 314.99999">
   <g>
     <path d="M 229.95782 151.49352 L 236.36968 150.18686 L 233.01392 144.38400 L 229.95782 151.49352 M 231.71845 143.47562 L 226.00595 142.91981 L 228.66236 150.58514 L 231.71845 143.47562 M 231.62038 141.61774 L 227.87776 135.72212 L 225.90787 141.06193 L 231.62038 141.61774 M 224.44760 143.50395 L 219.25167 148.14874 L 227.10401 151.16928 L 224.44760 143.50395 M 226.17003 135.43132 L 217.95852 139.29133 L 224.20014 140.77113 L 226.17003 135.43132 M 225.34315 134.02880 L 217.58517 129.55096 L 217.13164 137.88881 L 225.34315 134.02880 M 223.44710 125.99800 L 213.40589 121.66649 L 216.96052 126.85617 L 223.44710 125.99800 M 232.77291 129.70100 L 226.83772 127.56204 L 228.10914 132.89805 L 232.77291 129.70100 M 237.81204 137.39945 L 229.36578 135.26431 L 233.10840 141.15993 L 237.81204 137.39945 M 242.99615 130.89555 L 235.84849 130.38458 L 239.63098 135.71677 L 242.99615 130.89555 M 247.72002 137.15120 L 244.48009 131.74138 L 241.11492 136.56260 L 247.72002 137.15120 M 249.50199 136.53663 L 255.37066 131.64603 L 246.26205 131.12681 L 249.50199 136.53663 M 255.97727 130.14949 L 254.35483 124.56436 L 246.86866 129.63028 L 255.97727 130.14949 M 265.04297 128.17111 L 256.62662 124.38196 L 258.24906 129.96710 L 265.04297 128.17111 M 275.73836 125.03568 L 267.85506 118.17988 L 268.23383 126.93406 L 275.73836 125.03568 M 276.73873 123.55217 L 276.23682 115.06600 L 268.85543 116.69637 L 276.73873 123.55217 M 279.08302 123.92928 L 287.60972 119.71323 L 278.58111 115.44311 L 279.08302 123.92928 M 286.92979 129.28245 L 288.65330 121.44314 L 280.12660 125.65919 L 286.92979 129.28245 M 297.43793 133.06103 L 290.81722 122.36837 L 289.09370 130.20768 L 297.43793 133.06103 M 288.58704 118.01131 L 286.90158 110.31398 L 279.55843 113.74120 L 288.58704 118.01131 M 276.83555 111.74632 L 279.08792 103.62923 L 271.89483 106.74220 L 276.83555 111.74632 M 278.78365 101.85686 L 274.40138 97.56731 L 271.59056 104.96982 L 278.78365 101.85686 M 273.25591 96.12075 L 269.61991 90.28436 L 270.44509 103.52326 L 273.25591 96.12075 M 281.14379 91.49749 L 278.97296 85.72460 L 275.48388 94.27791 L 281.14379 91.49749 M 277.64497 85.28803 L 270.51989 88.00495 L 274.15590 93.84135 L 277.64497 85.28803 M 276.86088 83.72241 L 267.88311 81.31640 L 269.73579 86.43934 L 276.86088 83.72241 M 276.84304 82.00623 L 269.59314 72.70989 L 267.86528 79.60022 L 276.84304 82.00623 M 263.05856 81.27278 L 258.92369 76.85126 L 244.25198 92.91786 L 263.05856 81.27278 M 257.09811 75.66563 L 248.45399 71.78780 L 242.42641 91.73224 L 257.09811 75.66563 M 259.18664 72.50635 L 259.13464 66.45800 L 250.54252 68.62852 L 259.18664 72.50635 M 259.45806 64.75936 L 261.77393 58.91725 L 250.86593 66.92988 L 259.45806 64.75936 M 260.50767 56.66519 L 249.32799 46.74286 L 249.59967 64.67782 L 260.50767 56.66519 M 266.62744 54.63458 L 298.55783 48.43300 L 255.44776 44.71226 L 266.62744 54.63458 M 246.59886 47.32422 L 238.67459 61.31604 L 246.87054 65.25918 L 246.59886 47.32422 M 244.03007 40.35451 L 233.09904 29.30752 L 229.32703 34.54028 L 244.03007 40.35451 M 243.04944 26.35624 L 326.52213 23.42889 L 236.38859 24.90439 L 243.04944 26.35624 M 233.72403 24.58353 L 323.85757 23.10803 L 221.73293 23.78936 L 233.72403 24.58353 M 230.58591 27.52197 L 223.92506 26.07012 L 226.81391 32.75473 L 230.58591 27.52197 M 222.46482 27.05792 L 218.90393 35.42444 L 225.35366 33.74254 L 222.46482 27.05792 M 220.03620 24.96555 L 208.04511 24.17138 L 214.35496 26.16420 L 220.03620 24.96555 M 214.24491 28.33313 L 210.72560 33.15629 L 216.36527 35.50099 L 214.24491 28.33313 M 209.77811 34.70340 L 206.66495 40.70998 L 215.41777 37.04810 L 209.77811 34.70340 M 206.51195 33.40338 L 196.47389 29.04677 L 196.21337 37.01111 L 206.51195 33.40338 M 204.79398 25.09829 L 197.54647 27.55766 L 207.58452 31.91427 L 204.79398 25.09829 M 201.37195 24.40238 L 180.20830 26.34700 L 194.12444 26.86175 L 201.37195 24.40238 M 195.93682 24.00837 L 150.64338 23.70968 L 174.77317 25.95299 L 195.93682 24.00837 M 193.05187 28.35086 L 179.13573 27.83611 L 192.79134 36.31520 L 193.05187 28.35086 M 177.19251 31.89925 L 177.50610 60.85603 L 190.84812 40.37835 L 177.19251 31.89925 M 171.01140 28.86100 L 157.63405 33.10970 L 155.09022 40.78037 L 171.01140 28.86100 M 169.83874 26.83775 L 145.70895 24.59444 L 156.46139 31.08646 L 169.83874 26.83775 M 154.07951 34.10202 L 142.57506 36.79956 L 151.53568 41.77269 L 154.07951 34.10202 M 150.33580 43.19542 L 141.37518 38.22229 L 144.48042 45.48381 L 150.33580 43.19542 M 150.82364 45.13843 L 144.96826 47.42682 L 145.27791 53.76636 L 150.82364 45.13843 M 153.97937 47.24543 L 148.43364 55.87336 L 170.21414 64.28283 L 153.97937 47.24543 M 157.04607 44.31010 L 173.28084 61.34750 L 172.96725 32.39072 L 157.04607 44.31010 M 142.15441 25.58676 L 141.40240 34.77632 L 152.90685 32.07878 L 142.15441 25.58676 M 136.89382 23.42417 L 120.60495 23.25179 L 126.35898 24.14002 L 136.89382 23.42417 M 125.15173 26.47171 L 118.70046 34.72423 L 127.93300 32.93695 L 125.15173 26.47171 M 123.93240 25.42121 L 118.17836 24.53299 L 117.48113 33.67374 L 123.93240 25.42121 M 116.77193 24.95873 L 112.68093 28.82711 L 116.07470 34.09947 L 116.77193 24.95873 M 125.69553 45.54551 L 116.34678 41.23992 L 106.20607 72.50439 L 125.69553 45.54551 M 98.43813 38.34541 L 84.64923 40.82478 L 99.65552 71.65826 L 98.43813 38.34541 M 90.39554 28.37411 L 85.19047 24.94368 L 82.14838 34.52635 L 90.39554 28.37411 M 83.23997 24.43331 L 74.79151 24.29117 L 80.19788 34.01598 L 83.23997 24.43331 M 67.69603 23.00698 L 46.84060 23.24216 L 52.73796 23.64945 L 67.69603 23.00698 M 65.40725 22.88566 L 34.42768 22.67885 L 44.55182 23.12084 L 65.40725 22.88566 M 60.80186 26.24502 L 59.17298 33.18146 L 66.30792 30.81985 L 60.80186 26.24502 M 59.53887 36.46925 L 62.40147 45.10388 L 68.00135 41.55116 L 59.53887 36.46925 M 56.20257 36.49575 L 48.13274 41.10101 L 52.24334 45.79246 L 56.20257 36.49575 M 49.28600 33.00349 L 47.76307 39.50238 L 55.83290 34.89712 L 49.28600 33.00349 M 50.31356 24.54174 L 44.41620 24.13446 L 48.30087 30.14535 L 50.31356 24.54174 M 40.88649 23.86452 L 30.76235 23.42254 L 36.08461 28.83517 L 40.88649 23.86452 M 28.80713 24.09823 L 25.24470 29.26999 L 34.12938 29.51085 L 28.80713 24.09823 M 25.53563 30.84360 L 31.13461 36.68712 L 34.42032 31.08446 L 25.53563 30.84360 M 32.50707 38.11313 L 36.51527 42.25168 L 35.79277 32.51047 L 32.50707 38.11313 M 27.59836 45.71593 L 23.69182 40.70974 L 27.19001 52.53568 L 27.59836 45.71593 M 26.79173 54.22450 L 23.29354 42.39856 L 24.41214 59.22650 L 26.79173 54.22450 M 38.09468 61.39055 L 43.60301 66.30992 L 45.51457 60.30371 L 38.09468 61.39055 M 34.70203 70.78495 L 36.95675 78.15463 L 42.27518 69.33718 L 34.70203 70.78495 M 43.37066 70.65926 L 38.05223 79.47671 L 43.46588 81.36164 L 43.37066 70.65926 M 44.95344 70.00471 L 45.04865 80.70709 L 50.71443 74.24029 L 44.95344 70.00471 M 48.89826 59.80397 L 53.56786 64.64094 L 58.58307 58.56188 L 48.89826 59.80397 M 54.08132 48.66871 L 59.97400 55.47637 L 60.90314 48.00662 L 54.08132 48.66871 M 53.80512 46.36809 L 60.62694 45.70599 L 57.76434 37.07137 L 53.80512 46.36809 M 44.95156 42.63452 L 38.51045 44.83659 L 41.30487 51.25324 L 44.95156 42.63452 M 68.27756 43.85178 L 62.67767 47.40450 L 61.74853 54.87426 L 68.27756 43.85178 M 72.27384 47.24949 L 65.74480 58.27196 L 94.64788 74.58617 L 72.27384 47.24949 M 81.62685 41.67852 L 74.25909 45.17531 L 96.63314 72.51199 L 81.62685 41.67852 M 59.12026 85.17991 L 67.56006 104.89101 L 93.38807 83.98056 L 59.12026 85.17991 M 55.39589 105.59940 L 62.55250 108.68584 L 52.04441 97.71456 L 55.39589 105.59940 M 54.43010 108.28274 L 49.52184 114.05880 L 56.38300 116.49163 L 54.43010 108.28274 M 56.30226 118.73047 L 49.44110 116.29764 L 53.78419 126.19349 L 56.30226 118.73047 M 58.08471 120.22955 L 55.56664 127.69257 L 63.70066 128.29026 L 58.08471 120.22955 M 64.66417 112.26888 L 59.46045 117.39133 L 66.98485 118.16997 L 64.66417 112.26888 M 70.11369 108.66796 L 79.54926 115.39555 L 95.94169 87.75751 L 70.11369 108.66796 M 69.03460 121.13737 L 67.12615 128.41944 L 75.44617 127.94736 L 69.03460 121.13737 M 66.22549 131.22966 L 61.82934 143.61911 L 74.54551 130.75757 L 66.22549 131.22966 M 76.85556 133.51491 L 64.13939 146.37645 L 84.70591 153.28834 L 76.85556 133.51491 M 85.74497 130.19893 L 79.55626 131.49272 L 87.40660 151.26615 L 85.74497 130.19893 M 93.66775 130.81802 L 87.50891 130.11459 L 89.17054 151.18181 L 93.66775 130.81802 M 96.15316 131.83684 L 91.65595 152.20063 L 107.39219 138.26515 L 96.15316 131.83684 M 112.99709 128.14139 L 107.01049 128.47566 L 110.96979 135.21844 L 112.99709 128.14139 M 114.52281 129.47338 L 112.49552 136.55042 L 119.21627 139.13152 L 114.52281 129.47338 M 112.06983 122.50432 L 103.55171 90.12189 L 106.08323 122.83859 L 112.06983 122.50432 M 114.57819 121.84323 L 126.15009 117.54986 L 106.06006 89.46080 L 114.57819 121.84323 M 123.74028 128.74195 L 122.02914 139.14525 L 128.59393 137.40535 L 123.74028 128.74195 M 125.03785 127.66388 L 129.89150 136.32728 L 132.40972 130.52068 L 125.03785 127.66388 M 133.80282 132.60189 L 131.28460 138.40849 L 136.18265 144.31353 L 133.80282 132.60189 M 135.90121 131.85810 L 138.28103 143.56974 L 148.07169 132.45823 L 135.90121 131.85810 M 137.14720 116.67061 L 131.75803 121.21505 L 133.96260 127.62007 L 137.14720 116.67061 M 140.59542 115.88503 L 149.58130 127.43461 L 147.17336 114.33023 L 140.59542 115.88503 M 128.57309 116.28732 L 133.96226 111.74289 L 108.48307 88.19826 L 128.57309 116.28732 M 146.37668 102.48949 L 140.19484 112.76689 L 146.77278 111.21209 L 146.37668 102.48949 M 159.53808 101.39782 L 154.93064 95.55496 L 154.44939 104.49263 L 159.53808 101.39782 M 160.56464 102.93855 L 155.47594 106.03336 L 163.14310 107.88083 L 160.56464 102.93855 M 161.63525 101.14024 L 171.22672 102.43202 L 157.02780 95.29739 L 161.63525 101.14024 M 162.66181 102.68098 L 165.24026 107.62325 L 172.25327 103.97275 L 162.66181 102.68098 M 163.10083 109.43475 L 155.43368 107.58728 L 160.22655 115.36990 L 163.10083 109.43475 M 172.08456 116.86175 L 175.52597 123.31350 L 182.59246 119.18649 L 172.08456 116.86175 M 181.07254 111.53296 L 172.77788 115.38918 L 183.28578 117.71392 L 181.07254 111.53296 M 174.90359 105.47934 L 171.73010 113.85986 L 180.02477 110.00364 L 174.90359 105.47934 M 175.77551 99.87027 L 183.11301 98.51400 L 176.48920 74.86789 L 175.77551 99.87027 M 183.74266 102.73210 L 176.40515 104.08837 L 181.52634 108.61267 L 183.74266 102.73210 M 187.22490 103.52659 L 191.97467 111.59135 L 197.29704 108.26007 L 187.22490 103.52659 M 199.03367 110.06000 L 193.71130 113.39128 L 201.11796 117.92602 L 199.03367 110.06000 M 205.98715 113.05124 L 200.56815 110.01749 L 202.65244 117.88351 L 205.98715 113.05124 M 207.18389 114.23583 L 203.84918 119.06811 L 210.14205 119.49424 L 207.18389 114.23583 M 207.69409 112.64264 L 210.65225 117.90105 L 207.93078 106.32257 L 207.69409 112.64264 M 206.73404 105.13798 L 201.07835 108.42430 L 206.49735 111.45805 L 206.73404 105.13798 M 211.15395 104.73081 L 213.87542 116.30929 L 233.47944 99.90853 L 211.15395 104.73081 M 233.28799 94.10448 L 213.24950 80.06988 L 210.05685 88.73369 L 233.28799 94.10448 M 237.58502 103.10574 L 228.02221 123.83800 L 233.95740 125.97696 L 237.58502 103.10574 M 240.52345 102.76060 L 236.89583 125.63182 L 251.52965 121.07688 L 240.52345 102.76060 M 244.51970 71.45514 L 225.62378 73.00435 L 238.49212 91.39958 L 244.51970 71.45514 M 219.38206 70.35605 L 214.62442 64.30332 L 212.21190 74.71668 L 219.38206 70.35605 M 207.81392 57.43897 L 210.76589 73.10205 L 213.17840 62.68868 L 207.81392 57.43897 M 202.33567 54.21938 L 193.99102 43.16837 L 180.64899 63.64605 L 202.33567 54.21938 M 212.57153 49.39440 L 206.06493 44.08561 L 207.22417 52.73778 L 212.57153 49.39440 M 213.50349 51.38038 L 208.15613 54.72376 L 213.52060 59.97348 L 213.50349 51.38038 M 204.10893 42.98452 L 196.92351 40.58568 L 205.26816 51.63669 L 204.10893 42.98452 M 217.82967 38.99049 L 215.58345 47.96116 L 222.56667 44.93376 L 217.82967 38.99049 M 225.52168 35.78679 L 219.07195 37.46870 L 223.80895 43.41197 L 225.52168 35.78679 M 295.39916 45.43738 L 241.35805 30.66965 L 252.28909 41.71664 L 295.39916 45.43738 M 305.76225 43.44105 L 335.19384 25.74597 L 251.72115 28.67332 L 305.76225 43.44105 M 297.90996 88.67755 L 305.22170 56.26841 L 284.14007 81.18799 L 297.90996 88.67755 M 295.20841 93.06219 L 281.43853 85.57263 L 283.60936 91.34553 L 295.20841 93.06219 M 310.10924 115.13189 L 290.72043 110.48781 L 292.40589 118.18515 L 310.10924 115.13189 M 327.48263 116.96510 L 337.62212 130.51416 L 401.86469 114.65766 L 327.48263 116.96510 M 325.41287 132.80750 L 315.27339 119.25843 L 304.19075 133.00435 L 325.41287 132.80750 M 322.91945 145.24712 L 326.36863 136.05609 L 305.14651 136.25294 L 322.91945 145.24712 M 338.41427 162.95760 L 330.52710 139.39417 L 327.07792 148.58521 L 338.41427 162.95760 M 348.08452 159.37938 L 404.43993 119.95944 L 340.19735 135.81595 L 348.08452 159.37938 M 333.29807 178.02743 L 338.62714 170.02558 L 326.22272 173.56378 L 333.29807 178.02743 M 334.47870 188.77606 L 333.01196 181.22312 L 327.79618 183.57451 L 334.47870 188.77606 M 336.07606 188.96867 L 340.57502 185.11539 L 334.60932 181.41573 L 336.07606 188.96867 M 342.89123 193.21966 L 341.61026 186.59088 L 337.11129 190.44417 L 342.89123 193.21966 M 344.96689 193.17710 L 353.71661 190.10366 L 343.68593 186.54832 L 344.96689 193.17710 M 335.79370 199.85760 L 334.06353 192.50207 L 321.27791 198.47409 L 335.79370 199.85760 M 321.99101 214.50016 L 334.28463 202.60737 L 319.76885 201.22385 L 321.99101 214.50016 M 321.35883 226.01812 L 320.04783 219.74767 L 315.20600 225.04071 L 321.35883 226.01812 M 318.64537 234.67587 L 313.68408 227.25503 L 309.06405 231.01880 L 318.64537 234.67587 M 307.47704 240.76266 L 306.58458 232.87595 L 302.53719 237.88258 L 307.47704 240.76266 M 304.65412 247.31547 L 314.07185 245.99982 L 308.54417 243.26897 L 304.65412 247.31547 M 303.15876 246.51391 L 307.04881 242.46741 L 302.10897 239.58733 L 303.15876 246.51391 M 304.59011 257.30620 L 302.38172 250.05480 L 297.57430 256.61659 L 304.59011 257.30620 M 306.71599 256.95912 L 314.58139 253.83999 L 304.50760 249.70773 L 306.71599 256.95912 M 312.98314 264.39261 L 315.64083 255.67560 L 307.77543 258.79473 L 312.98314 264.39261 M 306.20338 268.15306 L 311.80346 265.95229 L 306.59575 260.35442 L 306.20338 268.15306 M 294.95306 265.52832 L 303.66152 259.24039 L 296.64572 258.55078 L 294.95306 265.52832 M 289.01154 273.50703 L 292.07397 267.89384 L 285.38387 265.57381 L 289.01154 273.50703 M 280.01012 271.88294 L 287.50356 274.00567 L 283.87589 266.07244 L 280.01012 271.88294 M 275.55758 263.96510 L 282.09530 263.38111 L 275.93079 257.70150 L 275.55758 263.96510 M 273.78388 263.50312 L 274.15708 257.23953 L 267.90567 259.68529 L 273.78388 263.50312 M 267.39794 258.15622 L 273.64936 255.71046 L 269.72211 251.27055 L 267.39794 258.15622 M 267.15677 246.57996 L 268.39408 235.62693 L 249.56520 236.02438 L 267.15677 246.57996 M 270.52164 246.97750 L 276.48414 239.20470 L 271.75895 236.02447 L 270.52164 246.97750 M 280.27785 238.99358 L 286.96569 245.09406 L 289.45827 236.00784 L 280.27785 238.99358 M 272.70129 231.74441 L 281.02689 224.15438 L 274.45996 223.50724 L 272.70129 231.74441 M 281.62382 221.91056 L 277.47673 213.79383 L 275.05689 221.26342 L 281.62382 221.91056 M 283.20862 221.34886 L 287.73524 216.76985 L 279.06153 213.23213 L 283.20862 221.34886 M 291.31485 216.52244 L 297.05832 219.55357 L 297.42839 212.80070 L 291.31485 216.52244 M 295.53830 220.73939 L 289.79483 217.70826 L 285.26821 222.28727 L 295.53830 220.73939 M 296.34458 227.49443 L 296.35702 221.96266 L 286.08693 223.51054 L 296.34458 227.49443 M 277.68403 209.26895 L 283.36574 202.66685 L 275.18064 199.78319 L 277.68403 209.26895 M 275.55162 209.07665 L 273.04823 199.59089 L 266.30649 201.12846 L 275.55162 209.07665 M 262.51135 211.56672 L 263.10835 201.73135 L 257.30525 202.52681 L 262.51135 211.56672 M 253.81534 208.75213 L 261.34972 212.44431 L 256.14362 203.40441 L 253.81534 208.75213 M 252.00794 207.04288 L 254.33622 201.69516 L 246.89051 198.77031 L 252.00794 207.04288 M 243.89089 207.24943 L 250.70227 207.73716 L 245.58485 199.46460 L 243.89089 207.24943 M 246.07553 195.54072 L 253.16267 190.36000 L 245.84663 189.31171 L 246.07553 195.54072 M 246.78295 187.31189 L 254.09899 188.36019 L 253.56610 179.54222 L 246.78295 187.31189 M 245.62401 186.28231 L 252.40716 178.51264 L 244.82745 180.12353 L 245.62401 186.28231 M 238.38895 190.96931 L 244.22882 195.61689 L 243.99992 189.38787 L 238.38895 190.96931 M 237.23301 189.44105 L 242.84398 187.85961 L 234.98133 183.39083 L 237.23301 189.44105 M 225.43645 188.08143 L 235.05707 189.46878 L 232.80539 183.41856 L 225.43645 188.08143 M 224.61325 196.28432 L 231.50862 196.95329 L 224.13194 190.34257 L 224.61325 196.28432 M 225.33360 198.02132 L 229.89476 204.23861 L 232.22897 198.69029 L 225.33360 198.02132 M 220.89023 206.44473 L 225.62802 213.58171 L 228.66762 206.82915 L 220.89023 206.44473 M 217.86007 212.48800 L 224.27708 214.28907 L 219.53929 207.15209 L 217.86007 212.48800 M 231.79265 205.36404 L 240.51672 207.02476 L 234.12686 199.81572 L 231.79265 205.36404 M 242.34447 230.04436 L 241.16397 211.64741 L 229.40031 216.73926 L 242.34447 230.04436 M 244.99805 229.38663 L 250.62892 211.47742 L 243.81754 210.98968 L 244.99805 229.38663 M 247.04744 229.98376 L 260.21270 215.76673 L 252.67832 212.07455 L 247.04744 229.98376 M 248.93287 232.48544 L 267.76175 232.08799 L 262.09813 218.26841 L 248.93287 232.48544 M 246.46191 262.59437 L 242.51706 239.91052 L 225.65567 254.58773 L 246.46191 262.59437 M 253.90883 273.14861 L 259.45460 270.98836 L 251.48310 268.10978 L 253.90883 273.14861 M 255.71423 274.21694 L 265.92633 276.65641 L 261.26001 272.05669 L 255.71423 274.21694 M 261.55056 269.01132 L 264.90161 260.89012 L 259.35392 262.57485 L 261.55056 269.01132 M 268.03705 275.73304 L 272.59999 266.82996 L 263.37073 271.13332 L 268.03705 275.73304 M 269.73722 275.86492 L 276.97211 272.18835 L 274.30016 266.96184 L 269.73722 275.86492 M 270.47400 277.65487 L 280.19437 281.28147 L 277.70889 273.97830 L 270.47400 277.65487 M 282.29842 281.05949 L 287.30637 275.87905 L 279.81294 273.75632 L 282.29842 281.05949 M 276.42201 290.92708 L 286.30846 290.74170 L 281.81077 284.61876 L 276.42201 290.92708 M 293.33232 291.49722 L 315.20581 291.27897 L 306.24175 291.06657 L 293.33232 291.49722 M 295.75441 283.10082 L 301.17364 280.17353 L 291.17490 276.81889 L 295.75441 283.10082 M 305.34537 289.24487 L 302.94495 281.72678 L 297.52572 284.65406 L 305.34537 289.24487 M 306.98193 289.14530 L 310.61824 283.85752 L 304.58151 281.62721 L 306.98193 289.14530 M 308.60543 290.24965 L 317.56949 290.46205 L 312.24174 284.96188 L 308.60543 290.24965 M 313.07389 282.53643 L 319.94024 282.11240 L 313.72408 276.77031 L 313.07389 282.53643 M 322.87859 281.15499 L 330.08636 276.03734 L 323.15672 274.65267 L 322.87859 281.15499 M 320.39284 272.98287 L 314.19149 268.02101 L 313.89854 274.14309 L 320.39284 272.98287 M 321.48988 271.94647 L 322.67487 265.85187 L 315.28853 266.98461 L 321.48988 271.94647 M 325.37406 264.33367 L 330.89265 265.69829 L 330.17845 259.56902 L 325.37406 264.33367 M 332.69016 265.69798 L 339.75418 264.33119 L 331.97596 259.56871 L 332.69016 265.69798 M 340.47470 263.04004 L 338.45431 255.36880 L 332.69648 258.27756 L 340.47470 263.04004 M 342.44385 263.38549 L 348.44972 261.04120 L 340.42346 255.71426 L 342.44385 263.38549 M 350.64550 260.33030 L 360.01010 257.69832 L 342.61924 255.00336 L 350.64550 260.33030 M 344.07821 272.33065 L 348.90657 263.11825 L 342.90070 265.46254 L 344.07821 272.33065 M 354.81431 274.61015 L 350.39577 264.26170 L 345.56741 273.47410 L 354.81431 274.61015 M 346.49741 283.73657 L 354.32701 277.04450 L 345.08012 275.90846 L 346.49741 283.73657 M 347.68379 285.38213 L 354.57112 289.07295 L 355.51339 278.69006 L 347.68379 285.38213 M 338.05026 291.46339 L 326.40578 291.40002 L 362.32351 292.18989 L 338.05026 291.46339 M 336.47463 282.65144 L 344.26587 284.43743 L 342.84857 276.60933 L 336.47463 282.65144 M 335.12710 281.62075 L 341.50103 275.57865 L 333.48557 276.19198 L 335.12710 281.62075 M 333.21877 274.54292 L 341.23423 273.92959 L 332.99270 268.42827 L 333.21877 274.54292 M 331.08375 274.43273 L 330.85769 268.31808 L 324.15410 273.04806 L 331.08375 274.43273 M 331.75633 256.62915 L 337.51415 253.72039 L 332.95345 249.85277 L 331.75633 256.62915 M 331.49392 249.47114 L 325.83791 250.66731 L 330.29680 256.24752 L 331.49392 249.47114 M 333.81436 244.08850 L 350.23780 229.27765 L 326.78087 229.19342 L 333.81436 244.08850 M 324.83393 248.49188 L 330.48993 247.29571 L 322.26490 238.84406 L 324.83393 248.49188 M 317.77528 252.81208 L 322.84945 250.05149 L 317.11923 247.36417 L 317.77528 252.81208 M 296.49163 255.17684 L 301.29905 248.61506 L 295.92874 245.78821 L 296.49163 255.17684 M 285.87266 254.96141 L 293.90567 256.25192 L 288.08149 249.11761 L 285.87266 254.96141 M 285.15740 262.59398 L 293.54016 257.93647 L 285.50715 256.64596 L 285.15740 262.59398 M 254.26697 288.14632 L 265.05220 278.66762 L 254.84010 276.22815 L 254.26697 288.14632 M 235.02038 272.68914 L 250.85455 273.36121 L 248.42882 268.32238 L 235.02038 272.68914 M 231.70152 270.82551 L 245.10997 266.45874 L 224.30373 258.45210 L 231.70152 270.82551 M 226.35823 273.06660 L 210.40436 266.57948 L 210.91965 278.50124 L 226.35823 273.06660 M 211.91520 281.30279 L 218.36879 288.99186 L 227.35378 275.86815 L 211.91520 281.30279 M 201.92390 287.21107 L 206.42197 279.70401 L 194.35960 263.25987 L 201.92390 287.21107 M 204.56903 290.65867 L 215.52069 290.84067 L 209.06711 283.15161 L 204.56903 290.65867 M 211.55305 264.03547 L 227.50691 270.52260 L 220.10911 258.14919 L 211.55305 264.03547 M 207.90404 254.86309 L 209.10269 262.07804 L 217.65875 256.19176 L 207.90404 254.86309 M 207.14824 251.67711 L 214.04686 246.48811 L 205.91240 243.10785 L 207.14824 251.67711 M 198.94519 250.10785 L 205.26053 252.12958 L 204.02469 243.56032 L 198.94519 250.10785 M 198.50888 251.86348 L 200.53427 257.60540 L 204.82423 253.88521 L 198.50888 251.86348 M 192.99745 256.96244 L 199.05592 257.99006 L 197.03053 252.24814 L 192.99745 256.96244 M 191.51392 256.22953 L 195.54701 251.51522 L 187.18775 252.12674 L 191.51392 256.22953 M 187.04114 250.79123 L 195.40040 250.17971 L 190.34103 245.54543 L 187.04114 250.79123 M 185.50358 249.94309 L 188.80348 244.69728 L 183.09993 243.39457 L 185.50358 249.94309 M 183.00711 241.68649 L 188.71066 242.98920 L 184.76103 236.27845 L 183.00711 241.68649 M 181.08607 241.11084 L 182.84000 235.70280 L 173.34239 238.38398 L 181.08607 241.11084 M 186.09822 235.76548 L 190.04785 242.47623 L 193.70463 237.58274 L 186.09822 235.76548 M 188.43117 233.37130 L 201.07273 231.91939 L 203.67627 226.59191 L 188.43117 233.37130 M 185.24590 228.90206 L 200.49101 222.12266 L 175.59057 196.16546 L 185.24590 228.90206 M 196.95898 237.10200 L 203.44107 240.08225 L 201.99413 233.83284 L 196.95898 237.10200 M 196.44004 238.93014 L 197.84262 248.45792 L 202.92213 241.91039 L 196.44004 238.93014 M 216.55911 235.51613 L 218.70471 243.87057 L 238.42220 235.71103 L 216.55911 235.51613 M 216.41553 233.26843 L 238.27861 233.46333 L 217.55606 225.88900 L 216.41553 233.26843 M 219.41924 245.99516 L 222.27533 252.51283 L 239.13672 237.83562 L 219.41924 245.99516 M 201.60770 258.92493 L 207.09631 262.41968 L 205.89766 255.20474 L 201.60770 258.92493 M 175.76025 247.02270 L 183.87318 250.23377 L 181.46952 243.68525 L 175.76025 247.02270 M 174.31064 245.69765 L 180.01990 242.36020 L 172.27622 239.63334 L 174.31064 245.69765 M 174.03892 251.23859 L 167.69885 277.41235 L 182.15184 254.44965 L 174.03892 251.23859 M 156.63500 245.23867 L 151.44789 249.06103 L 162.75836 247.23740 L 156.63500 245.23867 M 150.25152 239.35290 L 156.12030 242.98587 L 159.32244 236.67034 L 150.25152 239.35290 M 141.41924 245.57916 L 148.04690 248.39962 L 147.36524 240.94429 L 141.41924 245.57916 M 140.05617 247.32206 L 136.46067 254.88752 L 146.68383 250.14253 L 140.05617 247.32206 M 131.76296 240.03734 L 138.34371 244.12514 L 135.96941 236.22043 L 131.76296 240.03734 M 130.66206 238.42160 L 134.86851 234.60469 L 129.53654 231.19924 L 130.66206 238.42160 M 130.63051 229.96711 L 135.96249 233.37256 L 139.41385 228.56456 L 130.63051 229.96711 M 130.20519 228.66793 L 138.98853 227.26537 L 132.55993 222.97908 L 130.20519 228.66793 M 119.47995 230.37432 L 118.52750 224.56044 L 113.79094 229.25933 L 119.47995 230.37432 M 113.80072 230.96432 L 118.60574 238.20037 L 119.48973 232.07931 L 113.80072 230.96432 M 112.18763 228.07626 L 116.92419 223.37737 L 106.65343 220.90976 L 112.18763 228.07626 M 105.09420 221.61927 L 104.45041 229.05347 L 110.62840 228.78578 L 105.09420 221.61927 M 106.88397 219.41228 L 117.15473 221.87989 L 114.03195 216.09641 L 106.88397 219.41228 M 105.86488 217.71793 L 113.01287 214.40207 L 109.00207 208.32514 L 105.86488 217.71793 M 96.30452 223.18092 L 102.65993 228.35287 L 103.30372 220.91867 L 96.30452 223.18092 M 92.27935 229.82693 L 101.28188 229.46640 L 94.92647 224.29445 L 92.27935 229.82693 M 92.27965 231.63327 L 94.92889 238.74511 L 101.28218 231.27273 L 92.27965 231.63327 M 81.44877 230.66267 L 84.82168 236.41568 L 88.95291 231.30666 L 81.44877 230.66267 M 71.89992 238.11219 L 82.69006 237.26637 L 79.31715 231.51336 L 71.89992 238.11219 M 71.70315 239.58259 L 77.74299 243.27663 L 82.49329 238.73677 L 71.70315 239.58259 M 79.65128 244.60174 L 86.96945 250.18351 L 84.40157 240.06189 L 79.65128 244.60174 M 88.61671 249.82108 L 92.82930 241.70228 L 86.04883 239.69946 L 88.61671 249.82108 M 72.71416 253.17999 L 70.51927 259.84060 L 84.65618 253.33428 L 72.71416 253.17999 M 72.12834 261.88287 L 85.58676 269.51821 L 86.26526 255.37656 L 72.12834 261.88287 M 62.69693 253.35967 L 69.51164 251.79907 L 63.65591 247.38690 L 62.69693 253.35967 M 64.42716 245.86088 L 70.28289 250.27305 L 68.86691 241.15154 L 64.42716 245.86088 M 55.78793 244.18848 L 61.65547 244.88903 L 58.41670 238.48939 L 55.78793 244.18848 M 60.51689 236.25987 L 68.19541 237.95016 L 68.14972 231.06164 L 60.51689 236.25987 M 59.06083 229.46978 L 59.37507 235.19982 L 67.00790 230.00159 L 59.06083 229.46978 M 60.07555 227.74607 L 68.02263 228.27788 L 67.49289 221.41012 L 60.07555 227.74607 M 52.37502 219.93391 L 58.86700 213.92022 L 54.33283 209.99263 L 52.37502 219.93391 M 43.88598 220.68612 L 49.72010 221.08526 L 45.41952 213.58883 L 43.88598 220.68612 M 46.53266 212.22566 L 50.83323 219.72209 L 52.79104 209.78081 L 46.53266 212.22566 M 35.41848 205.00928 L 35.81842 210.91192 L 41.50423 204.50903 L 35.41848 205.00928 M 24.53706 197.94218 L 24.92829 207.84590 L 32.32323 203.93896 L 24.53706 197.94218 M 24.60629 213.99178 L 26.84619 233.30398 L 27.11607 223.89013 L 24.60629 213.99178 M 29.80021 222.59876 L 40.52441 220.97732 L 35.08530 214.69612 L 29.80021 222.59876 M 29.99878 225.40757 L 36.67390 237.16659 L 40.72299 223.78613 L 29.99878 225.40757 M 28.42820 226.98404 L 28.15832 236.39788 L 35.10332 238.74306 L 28.42820 226.98404 M 38.61085 238.30030 L 45.49438 234.47729 L 42.65994 224.91985 L 38.61085 238.30030 M 38.98373 244.50507 L 40.25890 267.83376 L 51.25131 247.40630 L 38.98373 244.50507 M 28.53233 248.33154 L 37.41903 267.94941 L 36.14386 244.62073 L 28.53233 248.33154 M 48.79650 236.40355 L 54.18055 243.12780 L 56.80933 237.42870 L 48.79650 236.40355 M 48.41098 233.31603 L 56.10957 228.61115 L 51.41066 224.15773 L 48.41098 233.31603 M 62.59405 214.12944 L 68.21832 218.26060 L 72.03301 213.54888 L 62.59405 214.12944 M 73.81791 210.41164 L 79.28120 202.21108 L 67.59523 201.94377 L 73.81791 210.41164 M 75.94744 211.91685 L 84.63147 213.98550 L 81.41073 203.71629 L 75.94744 211.91685 M 75.60991 213.79305 L 78.71055 218.72590 L 84.29395 215.86170 L 75.60991 213.79305 M 67.91913 199.20935 L 79.60510 199.47666 L 76.40908 188.53629 L 67.91913 199.20935 M 65.55546 187.67353 L 66.16292 197.73396 L 74.65288 187.06090 L 65.55546 187.67353 M 55.32258 183.03393 L 55.83078 194.71409 L 62.25963 186.89055 L 55.32258 183.03393 M 56.69433 171.04517 L 55.34285 179.02347 L 61.57851 174.46528 L 56.69433 171.04517 M 50.57149 165.40719 L 55.64786 168.14395 L 56.93160 161.97055 L 50.57149 165.40719 M 58.35453 162.85010 L 57.07079 169.02350 L 61.95497 172.44361 L 58.35453 162.85010 M 61.61211 161.61847 L 65.21255 171.21198 L 83.13143 159.17046 L 61.61211 161.61847 M 67.12673 173.69708 L 76.92554 181.49925 L 85.04561 161.65556 L 67.12673 173.69708 M 79.97656 182.71540 L 91.53490 183.42624 L 88.09663 162.87170 L 79.97656 182.71540 M 79.69059 185.94109 L 85.80889 188.67724 L 91.24893 186.65193 L 79.69059 185.94109 M 78.49597 187.40245 L 81.69199 198.34282 L 84.61427 190.13860 L 78.49597 187.40245 M 96.63760 202.41821 L 97.63143 210.19065 L 106.26777 206.15723 L 96.63760 202.41821 M 109.46004 204.00994 L 114.08815 197.78583 L 108.91127 195.49739 L 109.46004 204.00994 M 110.73356 205.12077 L 119.09944 204.38405 L 115.36167 198.89667 L 110.73356 205.12077 M 110.64537 206.87806 L 114.65616 212.95500 L 119.01125 206.14134 L 110.64537 206.87806 M 116.47385 197.08396 L 120.21162 202.57134 L 119.63099 190.61908 L 116.47385 197.08396 M 107.96222 192.24048 L 110.90403 185.81994 L 104.10273 186.66363 L 107.96222 192.24048 M 114.72419 177.86386 L 113.27346 184.19792 L 118.66568 186.44203 L 114.72419 177.86386 M 116.14600 175.32352 L 120.08749 183.90169 L 124.64794 163.87521 L 116.14600 175.32352 M 125.14751 189.67479 L 125.72814 201.62704 L 160.60599 189.52958 L 125.14751 189.67479 M 130.65697 212.65943 L 135.19698 217.48706 L 162.27025 193.84565 L 130.65697 212.65943 M 146.10231 224.45842 L 160.04216 229.85372 L 166.74697 196.53073 L 146.10231 224.45842 M 164.37073 230.54071 L 180.73087 229.95431 L 171.07554 197.21771 L 164.37073 230.54071 M 138.97121 258.74687 L 160.14050 278.19685 L 149.19437 254.00188 L 138.97121 258.74687 M 117.84569 253.66809 L 120.75476 259.47134 L 124.91172 250.35822 L 117.84569 253.66809 M 113.24900 263.17020 L 117.20647 276.61672 L 119.38788 263.44474 L 113.24900 263.17020 M 123.88965 278.44328 L 156.97741 281.25203 L 135.80812 261.80204 L 123.88965 278.44328 M 120.59753 281.69859 L 109.47114 287.84452 L 153.68529 284.50734 L 120.59753 281.69859 M 93.42382 291.81394 L 84.62270 291.93002 L 189.34407 291.94442 L 93.42382 291.81394 M 88.18433 276.20117 L 83.68036 289.60582 L 98.09134 287.80019 L 88.18433 276.20117 M 71.56323 289.99643 L 80.36435 289.88035 L 84.86831 276.47570 L 71.56323 289.99643 M 104.60709 237.85194 L 110.56752 230.81486 L 104.38952 231.08256 L 104.60709 237.85194 M 121.00640 240.94504 L 126.15079 246.87752 L 128.74563 240.86811 L 121.00640 240.94504 M 162.17546 285.63592 L 117.96131 288.97310 L 188.51892 290.72719 L 162.17546 285.63592 M 171.17451 282.46490 L 197.51797 287.55618 L 189.95367 263.60498 L 171.17451 282.46490 M 169.47587 278.45719 L 188.25503 259.59727 L 183.92886 255.49449 L 169.47587 278.45719 M 178.81618 194.01004 L 203.71662 219.96724 L 211.05079 211.65868 L 178.81618 194.01004 M 180.72616 185.32517 L 217.37490 185.86329 L 214.58233 167.59887 L 180.72616 185.32517 M 212.68728 163.89594 L 202.21455 156.23982 L 178.83112 181.62224 L 212.68728 163.89594 M 213.00711 155.99391 L 206.48655 153.03628 L 216.95928 160.69240 L 213.00711 155.99391 M 215.46174 156.11149 L 219.41391 160.80998 L 226.12361 153.97692 L 215.46174 156.11149 M 220.80569 161.92182 L 226.59595 165.00621 L 227.51538 155.08876 L 220.80569 161.92182 M 228.09191 168.52625 L 226.54201 176.43355 L 235.24264 172.25734 L 228.09191 168.52625 M 242.69815 163.07658 L 245.97314 167.79984 L 247.62841 159.55000 L 242.69815 163.07658 M 249.38555 156.98690 L 255.86962 157.94401 L 248.61590 149.86450 L 249.38555 156.98690 M 257.37032 157.05148 L 261.39119 149.84666 L 250.11661 148.97197 L 257.37032 157.05148 M 261.38909 148.16055 L 257.35351 143.56259 L 250.11450 147.28586 L 261.38909 148.16055 M 263.56298 147.64645 L 267.50564 143.17302 L 259.52740 143.04849 L 263.56298 147.64645 M 269.43981 142.98687 L 265.49716 147.46030 L 275.00077 141.55930 L 269.43981 142.98687 M 269.80377 140.93822 L 275.36473 139.51065 L 268.40884 131.07109 L 269.80377 140.93822 M 276.23753 137.82986 L 276.78617 127.49193 L 269.28164 129.39031 L 276.23753 137.82986 M 278.28149 138.07627 L 285.63331 131.36159 L 278.83013 127.73834 L 278.28149 138.07627 M 277.05900 144.12640 L 267.55538 150.02740 L 285.90561 163.52364 L 277.05900 144.12640 M 258.92080 141.25641 L 266.89904 141.38094 L 258.71020 133.30979 L 258.92080 141.25641 M 238.92807 149.14935 L 245.72133 146.95388 L 240.27595 139.58600 L 238.92807 149.14935 M 215.23638 140.86391 L 209.58886 143.36715 L 216.28207 146.98850 L 215.23638 140.86391 M 206.31507 144.22573 L 198.37622 145.53510 L 203.67820 150.04456 L 206.31507 144.22573 M 206.32331 151.62862 L 212.84388 154.58625 L 215.65340 149.43115 L 206.32331 151.62862 M 199.22211 129.70627 L 188.98307 135.86559 L 200.39220 135.74784 L 199.22211 129.70627 M 191.89541 126.14230 L 187.92097 134.66490 L 198.16001 128.50558 L 191.89541 126.14230 M 189.34446 125.82845 L 177.75236 125.99475 L 185.37001 134.35104 L 189.34446 125.82845 M 157.05705 130.92399 L 181.33409 134.98799 L 173.71643 126.63169 L 157.05705 130.92399 M 153.27848 133.12453 L 143.48782 144.23605 L 177.55551 137.18853 L 153.27848 133.12453 M 139.49468 152.18010 L 131.99884 160.96414 L 162.89686 180.84540 L 139.49468 152.18010 M 126.03726 149.68614 L 127.39139 157.06923 L 134.88723 148.28519 L 126.03726 149.68614 M 130.27651 165.07992 L 125.71605 185.10640 L 161.17454 184.96119 L 130.27651 165.07992 M 113.53928 138.72531 L 122.87290 146.87251 L 120.26003 141.30642 L 113.53928 138.72531 M 101.65652 90.21457 L 96.90832 123.24574 L 104.18804 122.93127 L 101.65652 90.21457 M 152.64625 90.32274 L 145.77835 64.04552 L 147.64967 94.75496 L 152.64625 90.32274 M 57.32007 138.70783 L 59.67616 144.61289 L 64.07231 132.22344 L 57.32007 138.70783 M 48.25656 137.53641 L 50.40271 145.32689 L 54.53238 139.37749 L 48.25656 137.53641 M 37.54147 137.15564 L 31.77566 141.96353 L 39.62746 143.55929 L 37.54147 137.15564 M 31.58500 143.68307 L 36.01619 150.91194 L 39.43680 145.27882 L 31.58500 143.68307 M 23.04129 146.60161 L 22.66711 123.39728 L 22.89882 161.57012 L 23.04129 146.60161 M 28.49882 155.90599 L 30.67840 163.34272 L 34.70013 154.27714 L 28.49882 155.90599 M 32.01286 164.18142 L 39.17453 162.61561 L 36.03459 155.11584 L 32.01286 164.18142 M 24.10093 167.40704 L 29.35350 164.98396 L 27.17392 157.54723 L 24.10093 167.40704 M 24.87202 169.12878 L 33.34267 171.32119 L 30.12459 166.70570 L 24.87202 169.12878 M 24.41246 170.40734 L 26.44806 176.93415 L 32.88310 172.59975 L 24.41246 170.40734 M 38.45495 180.74527 L 44.87565 185.32888 L 43.50263 175.92083 L 38.45495 180.74527 M 46.26693 174.13322 L 53.42890 178.98196 L 54.78038 171.00366 L 46.26693 174.13322 M 45.73480 172.60249 L 54.24826 169.47294 L 49.17189 166.73619 L 45.73480 172.60249 M 41.81348 164.71013 L 44.18045 172.00714 L 47.61754 166.14084 L 41.81348 164.71013 M 50.47034 149.46069 L 47.39430 155.34190 L 56.00330 158.77626 L 50.47034 149.46069 M 58.32207 148.56986 L 51.83631 148.61419 L 57.36927 157.92976 L 58.32207 148.56986 M 39.58226 126.84233 L 33.26659 125.98796 L 37.70211 133.52314 L 39.58226 126.84233 M 31.24264 123.07915 L 34.23125 118.21924 L 24.83753 115.96691 L 31.24264 123.07915 M 29.92987 123.63011 L 23.52477 116.51787 L 23.72910 122.62694 L 29.92987 123.63011 M 28.38799 133.10200 L 30.37072 140.65637 L 36.13654 135.84848 L 28.38799 133.10200 M 23.54104 112.76628 L 30.05464 109.61788 L 23.75081 102.87488 L 23.54104 112.76628 M 33.23089 110.74184 L 36.11100 116.14257 L 39.76710 109.61419 L 33.23089 110.74184 M 41.36258 110.05469 L 37.70648 116.58307 L 45.99472 114.26584 L 41.36258 110.05469 M 43.24779 108.89851 L 47.87994 113.10966 L 52.78820 107.33360 L 43.24779 108.89851 M 42.70529 107.44746 L 52.24570 105.88256 L 43.53992 101.50130 L 42.70529 107.44746 M 34.57946 101.14577 L 40.49701 106.85536 L 41.33164 100.90920 L 34.57946 101.14577 M 38.40553 94.13019 L 42.58352 98.85103 L 47.93782 95.34744 L 38.40553 94.13019 M 24.20283 90.01148 L 24.13383 84.47922 L 23.16648 97.55338 L 24.20283 90.01148 M 23.96452 82.61085 L 22.84839 75.06453 L 22.99717 95.68501 L 23.96452 82.61085 M 25.49771 82.47608 L 25.56672 88.00833 L 34.07755 81.52821 L 25.49771 82.47608 M 26.39145 80.49753 L 34.97128 79.54967 L 32.71657 72.17999 L 26.39145 80.49753 M 22.82901 98.96581 L 22.68023 78.34533 L 22.61924 108.85721 L 22.82901 98.96581 M 24.76970 101.44836 L 31.07353 108.19136 L 31.69220 101.35412 L 24.76970 101.44836 M 44.52339 194.76754 L 44.78488 188.79601 L 36.61730 193.10275 L 44.52339 194.76754 M 55.88814 198.87099 L 55.17401 206.22871 L 62.92446 201.10788 L 55.88814 198.87099 M 255.91593 188.08085 L 261.31843 185.07720 L 255.38303 179.26289 L 255.91593 188.08085 M 256.87229 190.38486 L 263.03396 197.69497 L 262.27479 187.38121 L 256.87229 190.38486 M 274.19587 193.78305 L 285.49188 172.92765 L 266.69496 185.00686 L 274.19587 193.78305 M 276.43673 195.44874 L 284.62183 198.33240 L 287.73274 174.59335 L 276.43673 195.44874 M 319.46878 175.48049 L 295.91446 171.83428 L 315.22525 193.46910 L 319.46878 175.48049 M 320.22758 170.35203 L 321.29564 152.44144 L 296.67326 166.70583 L 320.22758 170.35203 M 357.90800 188.37049 L 379.13464 191.01329 L 347.24068 173.11365 L 357.90800 188.37049 M 357.89563 220.36180 L 371.29490 198.57839 L 358.22080 194.46085 L 357.89563 220.36180 M 354.77795 220.21264 L 355.10311 194.31170 L 346.35339 197.38514 L 354.77795 220.21264 M 352.94945 221.30599 L 344.52490 198.47850 L 340.47513 203.05853 L 352.94945 221.30599 M 349.04573 226.25400 L 324.27780 219.89933 L 325.58880 226.16978 L 349.04573 226.25400 M 365.81842 251.42029 L 385.24934 228.78449 L 360.29031 230.04685 L 365.81842 251.42029 M 368.18860 282.87991 L 377.31747 289.19859 L 367.54468 275.04474 L 368.18860 282.87991 M 371.43720 291.44719 L 377.80403 291.24889 L 368.67517 284.93022 L 371.43720 291.44719 M 397.62602 263.49909 L 368.25114 259.67345 L 369.80813 269.61074 L 397.62602 263.49909 M 404.42359 255.51611 L 404.75777 228.38268 L 394.47963 229.05468 L 404.42359 255.51611 M 403.46777 223.61356 L 394.10358 217.36315 L 393.18963 224.28556 L 403.46777 223.61356 M 404.55234 222.47102 L 401.86620 215.14520 L 395.18815 216.22061 L 404.55234 222.47102 M 406.33661 222.62762 L 409.46230 217.47341 L 403.65047 215.30180 L 406.33661 222.62762 M 413.71260 223.73072 L 410.72007 218.52702 L 407.59437 223.68123 L 413.71260 223.73072 M 416.31653 222.60133 L 423.73962 217.77429 L 418.01021 214.26949 L 416.31653 222.60133 M 411.33580 215.81109 L 416.02201 212.68294 L 410.82652 210.28564 L 411.33580 215.81109 M 418.29906 210.84014 L 424.17325 204.38936 L 418.48253 205.12216 L 418.29906 210.84014 M 415.50852 204.84465 L 405.57664 204.56654 L 410.12956 208.16533 L 415.50852 204.84465 M 415.41149 203.25910 L 421.10221 202.52629 L 393.73076 195.93565 L 415.41149 203.25910 M 413.17969 203.32406 L 391.49896 196.00061 L 403.24781 203.04595 L 413.17969 203.32406 M 401.58955 213.10542 L 402.33919 206.15279 L 394.91150 214.18083 L 401.58955 213.10542 M 391.83009 215.96119 L 385.27989 212.39787 L 390.91614 222.88360 L 391.83009 215.96119 M 387.22000 224.05285 L 381.58375 213.56712 L 362.26097 225.31521 L 387.22000 224.05285 M 390.75548 200.87792 L 400.44479 202.74018 L 388.69593 195.69484 L 390.75548 200.87792 M 387.91242 200.08212 L 385.85287 194.89904 L 377.70033 196.37378 L 387.91242 200.08212 M 424.82075 215.66249 L 424.96552 205.70690 L 419.09134 212.15768 L 424.82075 215.66249 M 413.72098 96.14720 L 392.01171 37.53715 L 379.79958 43.34802 L 413.72098 96.14720 M 372.27490 52.05052 L 331.81423 107.15714 L 406.19629 104.84970 L 372.27490 52.05052 M 370.60137 35.30695 L 363.45628 26.49639 L 359.49251 34.81833 L 370.60137 35.30695 M 378.70182 31.04266 L 374.90651 26.20930 L 374.00799 34.85553 L 378.70182 31.04266 M 388.90610 28.09590 L 384.18226 24.43008 L 381.38780 30.09389 L 388.90610 28.09590 M 363.92441 23.82883 L 378.55779 23.16270 L 355.74926 22.95454 L 363.92441 23.82883 M 357.30390 33.43479 L 361.26768 25.11284 L 353.09253 24.23855 L 357.30390 33.43479 M 351.93151 35.83776 L 347.72013 26.64152 L 318.28854 44.33660 L 351.93151 35.83776 M 321.31496 289.62995 L 331.70287 284.01687 L 322.85356 283.70574 L 321.31496 289.62995" fill="none" stroke="black" stroke-width="0.01cm" />
   </g>
</svg>