<?xml version="1.0" standalone="no"?>
  <!DOCTYPE svg PUBLIC "-//W3C//DTD SVG 1.1//EN" 
    "http://www.w3.org/Graphics/SVG/1.1/DTD/svg11.dtd">
  <svg width="12.7cm" height="8.89cm"
       xmlns="http://www.w3.org/2000/svg" version="1.1" viewBox="0 0 449.99999 314.99999">
   <g>
     <path d="M 227.16406 155.14958 L 235.72615 160.32877 L 235.81880 152.90835 L 227.16406 155.14958 M 225.60467 157.09890 L 223.34371 168.50296 L 234.16676 162.27809 L 225.60467 157.09890 M 223.12505 156.92202 L 214.32974 160.86302 L 220.86408 168.32608 L 223.12505 156.92202 M 212.23443 162.54915 L 206.36256 170.41109 L 218.76877 170.01221 L 212.23443 162.54915 M 202.31282 159.02037 L 204.30557 169.03711 L 210.17744 161.17517 L 202.31282 159.02037 M 199.55877 157.84934 L 193.57935 156.34488 L 196.11716 163.32813 L 199.55877 157.84934 M 187.22327 156.58365 L 155.35080 159.54649 L 183.12042 163.77992 L 187.22327 156.58365 M 187.43327 166.25144 L 187.31574 172.33540 L 194.07392 166.03842 L 187.43327 166.25144 M 208.15503 172.51884 L 226.57417 179.41123 L 220.56124 172.11997 L 208.15503 172.51884 M 223.65035 172.23087 L 229.66329 179.52213 L 232.86792 173.40604 L 223.65035 172.23087 M 224.33751 170.29999 L 233.55508 171.47517 L 235.16056 164.07513 L 224.33751 170.29999 M 231.45109 181.19321 L 237.95281 185.59954 L 234.65573 175.07713 L 231.45109 181.19321 M 240.97859 185.41170 L 248.26932 180.23018 L 245.06952 174.34955 L 240.97859 185.41170 M 241.30072 188.97630 L 245.43619 197.59518 L 250.80179 189.06595 L 241.30072 188.97630 M 246.88196 201.14540 L 250.18919 208.97802 L 254.92531 201.01625 L 246.88196 201.14540 M 252.28953 209.65654 L 263.68476 206.57353 L 257.02566 201.69476 L 252.28953 209.65654 M 254.85768 220.46494 L 263.04751 217.07543 L 251.97784 212.90899 L 254.85768 220.46494 M 243.84545 230.96344 L 252.45742 222.20094 L 249.57759 214.64499 L 243.84545 230.96344 M 244.67637 233.54278 L 256.22495 235.27974 L 253.28834 224.78029 L 244.67637 233.54278 M 240.62796 241.76391 L 252.07782 244.17738 L 242.80887 236.41847 L 240.62796 241.76391 M 245.58723 248.91851 L 252.42511 245.73988 L 240.97525 243.32641 L 245.58723 248.91851 M 244.99037 258.13167 L 261.73093 258.76858 L 247.06733 252.01117 L 244.99037 258.13167 M 235.35090 253.94809 L 241.69287 257.52911 L 243.76983 251.40861 L 235.35090 253.94809 M 225.84901 253.80685 L 231.97690 253.13709 L 229.24777 247.83182 L 225.84901 253.80685 M 225.63454 255.79588 L 227.53202 263.74411 L 231.76244 255.12613 L 225.63454 255.79588 M 223.45428 254.26407 L 226.85304 248.28904 L 212.81907 256.79487 L 223.45428 254.26407 M 229.47572 265.80896 L 234.84218 268.73363 L 240.04811 260.77198 L 229.47572 265.80896 M 226.53523 273.42582 L 233.15307 270.31536 L 227.78661 267.39069 L 226.53523 273.42582 M 229.88053 280.50287 L 233.41481 271.95438 L 226.79697 275.06485 L 229.88053 280.50287 M 217.88940 282.00385 L 227.93985 281.75905 L 224.85629 276.32103 L 217.88940 282.00385 M 214.91907 280.88784 L 216.44947 272.92376 L 209.61369 275.11219 L 214.91907 280.88784 M 210.95694 288.16079 L 217.33224 290.22606 L 215.16640 284.26016 L 210.95694 288.16079 M 206.92877 287.00872 L 205.83285 277.33244 L 190.41225 286.78511 L 206.92877 287.00872 M 219.36937 289.63385 L 227.25399 283.42315 L 217.20353 283.66795 L 219.36937 289.63385 M 238.42703 290.33666 L 258.26780 291.59100 L 246.09153 289.53007 L 238.42703 290.33666 M 246.23035 287.13344 L 254.95819 278.62564 L 242.98607 281.73239 L 246.23035 287.13344 M 248.20650 271.16824 L 257.42814 274.74177 L 263.23948 262.74271 L 248.20650 271.16824 M 260.72914 275.36415 L 274.61446 276.14731 L 266.54048 263.36509 L 260.72914 275.36415 M 269.52363 291.89824 L 299.93954 292.19886 L 285.88151 290.43296 L 269.52363 291.89824 M 286.22566 287.41362 L 292.25589 277.82969 L 280.30468 279.09331 L 286.22566 287.41362 M 288.24421 288.21109 L 296.45306 285.47313 L 294.27444 278.62717 L 288.24421 288.21109 M 289.39104 289.83250 L 303.44907 291.59840 L 297.59989 287.09453 L 289.39104 289.83250 M 296.90180 275.78827 L 302.98551 276.72431 L 305.35802 271.40981 L 296.90180 275.78827 M 293.54665 274.07826 L 292.80942 267.55119 L 285.33781 265.19282 L 293.54665 274.07826 M 301.11909 261.26202 L 295.70185 255.06008 L 294.80236 265.00131 L 301.11909 261.26202 M 293.44608 251.75060 L 291.21513 246.32090 L 284.40440 250.15706 L 293.44608 251.75060 M 290.98262 243.18003 L 292.29774 234.24303 L 283.46014 239.39681 L 290.98262 243.18003 M 282.64216 238.12055 L 291.47976 232.96677 L 284.43876 232.96995 L 282.64216 238.12055 M 280.65436 238.32981 L 282.45096 233.17920 L 275.57736 234.64080 L 280.65436 238.32981 M 283.57503 230.35196 L 285.96626 222.90959 L 280.38208 224.61578 L 283.57503 230.35196 M 279.69513 223.01144 L 285.27931 221.30525 L 278.07949 217.51720 L 279.69513 223.01144 M 278.65588 216.44370 L 285.85570 220.23175 L 284.30623 214.42344 L 278.65588 216.44370 M 285.22664 212.87323 L 291.62498 214.89335 L 281.17037 207.83021 L 285.22664 212.87323 M 291.06830 212.81329 L 280.77324 196.23274 L 280.61370 205.75014 L 291.06830 212.81329 M 287.57694 220.23173 L 292.42580 216.44354 L 286.02747 214.42342 L 287.57694 220.23173 M 289.08980 221.47710 L 298.13037 224.38638 L 293.93866 217.68891 L 289.08980 221.47710 M 293.71114 230.52019 L 298.10193 225.99029 L 289.06136 223.08101 L 293.71114 230.52019 M 304.33432 232.97564 L 307.83541 226.96596 L 301.36829 226.69478 L 304.33432 232.97564 M 305.89851 233.68465 L 313.88176 232.36685 L 309.39959 227.67497 L 305.89851 233.68465 M 316.62021 231.79947 L 327.80608 229.14562 L 312.13804 227.10759 L 316.62021 231.79947 M 322.19620 238.64078 L 316.48349 234.75928 L 316.51747 244.25077 L 322.19620 238.64078 M 314.56090 243.88453 L 314.52693 234.39304 L 306.54367 235.71084 L 314.56090 243.88453 M 313.48493 245.24493 L 305.46770 237.07124 L 305.91915 245.27624 L 313.48493 245.24493 M 322.05104 251.69711 L 316.22083 247.80719 L 313.95894 253.71074 L 322.05104 251.69711 M 324.42847 259.49812 L 330.27097 258.06086 L 324.77544 253.47945 L 324.42847 259.49812 M 331.64728 257.20956 L 335.43899 252.68775 L 326.15176 252.62815 L 331.64728 257.20956 M 333.16449 270.99321 L 339.73916 268.30470 L 332.90427 260.98534 L 333.16449 270.99321 M 330.19962 271.34192 L 324.09691 262.77131 L 321.86269 269.65708 L 330.19962 271.34192 M 325.18060 279.12050 L 320.70298 272.30068 L 318.67859 278.78509 L 325.18060 279.12050 M 316.69418 277.77333 L 318.71857 271.28892 L 309.30529 271.02645 L 316.69418 277.77333 M 320.15914 268.65517 L 322.39336 261.76940 L 316.57128 263.32665 L 320.15914 268.65517 M 313.70912 261.87587 L 311.78608 256.31358 L 305.00698 261.05403 L 313.70912 261.87587 M 308.56478 284.39236 L 303.65868 279.20287 L 299.75359 285.11279 L 308.56478 284.39236 M 308.25790 291.69059 L 319.05049 291.29044 L 311.21990 286.46629 L 308.25790 291.69059 M 315.47949 292.43010 L 368.99261 292.38239 L 326.27208 292.02996 L 315.47949 292.43010 M 321.78972 289.51858 L 325.31644 281.27274 L 318.81443 280.93733 L 321.78972 289.51858 M 323.40355 290.33974 L 331.72511 287.50664 L 326.93028 282.09390 L 323.40355 290.33974 M 328.04605 291.64793 L 356.54369 290.90470 L 343.89416 290.46952 L 328.04605 291.64793 M 335.04626 287.30999 L 342.57281 288.96469 L 337.65134 281.69915 L 335.04626 287.30999 M 343.79557 287.99973 L 344.82835 279.59033 L 338.87410 280.73419 L 343.79557 287.99973 M 345.45466 288.40857 L 352.14680 284.00493 L 346.48744 279.99917 L 345.45466 288.40857 M 347.11419 289.67208 L 359.76373 290.10726 L 353.80634 285.26844 L 347.11419 289.67208 M 355.56191 282.41735 L 362.62682 279.56766 L 360.05126 274.55186 L 355.56191 282.41735 M 345.97543 276.64245 L 349.93815 272.04206 L 343.05525 270.16092 L 345.97543 276.64245 M 344.55872 277.46305 L 341.63854 270.98152 L 338.60447 278.60691 L 344.55872 277.46305 M 342.95495 267.19968 L 350.36428 263.17902 L 344.64662 258.85436 L 342.95495 267.19968 M 351.72411 261.58232 L 353.83355 254.42606 L 346.00645 257.25766 L 351.72411 261.58232 M 360.99607 261.81992 L 362.59383 254.66322 L 356.70681 254.16419 L 360.99607 261.81992 M 362.32826 262.53281 L 367.36435 259.86733 L 363.92602 255.37611 L 362.32826 262.53281 M 368.84370 258.67516 L 374.16312 252.99545 L 365.40538 254.18394 L 368.84370 258.67516 M 364.67772 252.45798 L 373.43547 251.26949 L 363.02244 244.86745 L 364.67772 252.45798 M 358.67573 242.37779 L 352.69446 237.67454 L 346.29834 243.64598 L 358.67573 242.37779 M 342.58718 243.65087 L 342.89524 237.95359 L 335.07444 242.14278 L 342.58718 243.65087 M 341.91226 245.20178 L 334.39953 243.69368 L 337.49596 250.36083 L 341.91226 245.20178 M 333.87703 240.58052 L 341.69784 236.39133 L 333.00793 231.15282 L 333.87703 240.58052 M 372.34406 221.62478 L 369.33604 205.23640 L 352.63269 223.53163 L 372.34406 221.62478 M 375.69415 219.10544 L 379.43340 203.37693 L 372.68613 202.71706 L 375.69415 219.10544 M 379.59936 200.25196 L 377.02177 194.10573 L 372.85208 199.59210 L 379.59936 200.25196 M 381.89132 199.69027 L 391.18778 195.09853 L 379.31373 193.54404 L 381.89132 199.69027 M 389.76001 201.27582 L 392.49356 196.06500 L 383.19710 200.65674 L 389.76001 201.27582 M 399.15155 200.16343 L 394.48787 196.00334 L 391.75431 201.21416 L 399.15155 200.16343 M 401.12382 188.08215 L 395.65906 194.36184 L 400.32274 198.52193 L 401.12382 188.08215 M 411.71220 195.65884 L 403.32947 200.19601 L 412.13125 201.85194 L 411.71220 195.65884 M 412.02705 203.70289 L 403.22527 202.04697 L 410.87864 210.46647 L 412.02705 203.70289 M 409.26250 211.44438 L 401.60914 203.02488 L 399.09795 211.52618 L 409.26250 211.44438 M 411.31642 215.82367 L 401.15187 215.90547 L 418.04047 238.05921 L 411.31642 215.82367 M 419.12669 211.18312 L 414.01473 204.84491 L 412.86632 211.60848 L 419.12669 211.18312 M 420.52730 209.87226 L 424.07117 201.12159 L 415.41533 203.53405 L 420.52730 209.87226 M 425.39103 197.00029 L 425.75627 185.29201 L 422.06514 191.02257 L 425.39103 197.00029 M 420.71655 192.15509 L 414.96757 194.35217 L 424.04244 198.13281 L 420.71655 192.15509 M 421.01286 189.56550 L 424.70400 183.83494 L 416.97285 185.34371 L 421.01286 189.56550 M 424.87689 182.31074 L 422.39604 177.37186 L 417.14575 183.81950 L 424.87689 182.31074 M 421.23181 176.39803 L 415.56307 174.52010 L 415.98152 182.84567 L 421.23181 176.39803 M 411.97259 174.50041 L 401.79862 175.72423 L 403.10042 183.34225 L 411.97259 174.50041 M 413.90425 183.84052 L 413.48580 175.51495 L 404.61362 184.35679 L 413.90425 183.84052 M 397.54724 174.65315 L 390.04959 168.71839 L 386.76099 179.48455 L 397.54724 174.65315 M 390.25492 164.40873 L 396.02243 159.81652 L 390.13371 155.53425 L 390.25492 164.40873 M 388.08480 164.44632 L 387.96359 155.57184 L 378.66152 160.11719 L 388.08480 164.44632 M 396.94803 158.18043 L 397.65975 151.32004 L 391.05931 153.89817 L 396.94803 158.18043 M 396.62178 149.79267 L 388.64426 145.96149 L 390.02134 152.37080 L 396.62178 149.79267 M 393.98897 141.02329 L 389.14021 144.54305 L 397.11773 148.37423 L 393.98897 141.02329 M 394.21027 137.39042 L 397.47717 128.72271 L 390.77249 131.49876 L 394.21027 137.39042 M 401.81378 138.07290 L 398.85733 129.54448 L 395.59043 138.21219 L 401.81378 138.07290 M 401.79405 140.36128 L 395.57069 140.50057 L 398.69946 147.85151 L 401.79405 140.36128 M 412.33157 137.19833 L 407.57017 133.58711 L 404.64200 138.40943 L 412.33157 137.19833 M 413.34636 148.01534 L 413.05360 139.00186 L 405.36402 140.21296 L 413.34636 148.01534 M 415.65484 148.26002 L 423.83189 142.17038 L 415.36208 139.24654 L 415.65484 148.26002 M 423.00269 150.80497 L 424.78697 143.61519 L 416.60992 149.70482 L 423.00269 150.80497 M 424.45761 165.66894 L 426.08998 177.06455 L 426.00197 148.30671 L 424.45761 165.66894 M 421.86338 166.69189 L 413.39771 163.30717 L 415.34615 171.27070 L 421.86338 166.69189 M 411.01326 164.13612 L 402.78773 173.32347 L 412.96170 172.09964 L 411.01326 164.13612 M 409.31267 162.80710 L 399.35700 161.46747 L 401.08714 171.99445 L 409.31267 162.80710 M 375.32718 158.07581 L 376.41732 150.95590 L 369.62197 150.68984 L 375.32718 158.07581 M 368.86020 147.34857 L 376.68163 139.82654 L 368.20699 139.13374 L 368.86020 147.34857 M 366.90859 147.82006 L 366.25538 139.60522 L 361.06869 143.59840 L 366.90859 147.82006 M 377.33828 137.40123 L 374.11347 127.94605 L 368.86365 136.70842 L 377.33828 137.40123 M 373.28116 124.72163 L 371.30858 118.37641 L 367.40251 126.71340 L 373.28116 124.72163 M 368.79650 116.24108 L 359.81037 112.04652 L 358.26460 120.17052 L 368.79650 116.24108 M 370.34237 114.76745 L 370.63157 108.38148 L 361.35625 110.57289 L 370.34237 114.76745 M 371.47944 105.03358 L 373.87810 95.56636 L 365.45133 99.64283 L 371.47944 105.03358 M 380.54030 100.52242 L 375.76422 95.67631 L 373.36556 105.14353 L 380.54030 100.52242 M 381.73118 98.83423 L 382.89255 91.63799 L 376.95510 93.98812 L 381.73118 98.83423 M 373.35159 92.29796 L 367.26733 78.88636 L 364.92481 96.37443 L 373.35159 92.29796 M 385.14755 79.93079 L 370.53736 76.53714 L 382.55907 87.59861 L 385.14755 79.93079 M 390.83467 87.64695 L 387.68471 81.31952 L 385.09623 88.98734 L 390.83467 87.64695 M 391.12650 89.89944 L 385.38806 91.23983 L 390.01934 99.33948 L 391.12650 89.89944 M 395.55528 75.47410 L 388.99209 79.63036 L 392.14205 85.95779 L 395.55528 75.47410 M 395.08894 73.63870 L 388.41139 71.27460 L 388.52576 77.79497 L 395.08894 73.63870 M 396.15754 71.83091 L 397.07449 63.33262 L 389.47998 69.46681 L 396.15754 71.83091 M 387.33247 67.58637 L 394.92697 61.45219 L 378.97745 56.78742 L 387.33247 67.58637 M 394.62914 57.24070 L 384.94980 33.89451 L 378.67962 52.57594 L 394.62914 57.24070 M 409.37812 57.21278 L 400.70677 61.66006 L 408.94993 69.03185 L 409.37812 57.21278 M 409.81269 54.02319 L 412.42653 43.51511 L 401.14134 58.47046 L 409.81269 54.02319 M 420.77655 47.00272 L 414.88093 42.08164 L 412.26709 52.58972 L 420.77655 47.00272 M 426.03510 39.13871 L 425.24905 31.66797 L 416.90765 38.88322 L 426.03510 39.13871 M 411.36961 36.94992 L 411.03667 24.84784 L 390.40508 28.55907 L 411.36961 36.94992 M 382.77983 26.99649 L 403.41141 23.28525 L 350.36757 24.44923 L 382.77983 26.99649 M 379.46219 29.13839 L 361.04116 30.08204 L 362.87913 36.92956 L 379.46219 29.13839 M 358.77985 28.60512 L 377.20088 27.66147 L 344.78862 25.11421 L 358.77985 28.60512 M 349.23628 38.98472 L 339.82238 28.01044 L 342.04826 43.34792 L 349.23628 38.98472 M 339.46735 43.26542 L 337.24146 27.92794 L 328.58896 38.32470 L 339.46735 43.26542 M 337.90553 45.80768 L 327.02714 40.86696 L 324.74689 48.26601 L 337.90553 45.80768 M 340.95931 56.53411 L 340.29790 48.34643 L 332.34607 55.44764 L 340.95931 56.53411 M 336.14920 63.82708 L 340.44072 58.46919 L 331.82748 57.38272 L 336.14920 63.82708 M 334.57261 64.44089 L 330.25089 57.99653 L 327.82799 63.37967 L 334.57261 64.44089 M 326.28377 62.59840 L 328.70667 57.21526 L 322.21885 58.19075 L 326.28377 62.59840 M 324.91820 64.00977 L 320.85329 59.60212 L 317.78211 68.50623 L 324.91820 64.00977 M 327.22515 71.66864 L 325.71468 65.51809 L 318.57859 70.01454 L 327.22515 71.66864 M 326.26535 73.43776 L 317.61879 71.78366 L 318.03629 79.67098 L 326.26535 73.43776 M 327.75211 74.69387 L 319.52305 80.92710 L 329.51292 81.83255 L 327.75211 74.69387 M 336.52831 75.08062 L 329.87777 73.96306 L 331.63858 81.10174 L 336.52831 75.08062 M 344.11693 70.21483 L 337.32599 66.87669 L 338.74238 73.08359 L 344.11693 70.21483 M 344.52767 68.56271 L 342.02824 59.86669 L 337.73673 65.22458 L 344.52767 68.56271 M 344.38551 86.23394 L 338.34178 76.61448 L 333.45204 82.63560 L 344.38551 86.23394 M 344.71926 98.68221 L 345.58499 90.01065 L 337.86995 94.55822 L 344.71926 98.68221 M 343.32197 100.98074 L 336.47266 96.85674 L 334.40667 108.39884 L 343.32197 100.98074 M 344.49991 110.35019 L 344.32537 102.66742 L 335.41007 110.08552 L 344.49991 110.35019 M 346.51554 119.44123 L 345.09924 113.34695 L 338.61389 120.28259 L 346.51554 119.44123 M 337.11301 119.37417 L 343.59836 112.43853 L 334.50853 112.17386 L 337.11301 119.37417 M 329.59530 109.86534 L 323.48258 101.36422 L 313.00978 109.67174 L 329.59530 109.86534 M 321.18478 99.44011 L 311.21294 94.47246 L 310.71198 107.74763 L 321.18478 99.44011 M 325.08074 89.18225 L 318.13804 83.55851 L 319.71917 91.02686 L 325.08074 89.18225 M 329.32915 83.52640 L 319.33929 82.62095 L 326.28199 88.24469 L 329.32915 83.52640 M 333.72586 94.56349 L 327.46027 91.13587 L 325.54714 97.60447 L 333.72586 94.56349 M 307.90341 90.78813 L 305.50067 82.96475 L 296.61033 91.06400 L 307.90341 90.78813 M 303.74547 81.64668 L 293.86184 80.24359 L 294.85513 89.74594 L 303.74547 81.64668 M 303.71846 73.06911 L 306.95479 78.83889 L 313.88231 71.65024 L 303.71846 73.06911 M 300.40787 64.72617 L 302.09972 70.91407 L 305.86058 66.36757 L 300.40787 64.72617 M 298.88984 65.04287 L 293.71638 68.90117 L 300.58170 71.23077 L 298.88984 65.04287 M 302.20713 57.27779 L 293.20456 58.95946 L 299.01358 62.38791 L 302.20713 57.27779 M 302.07071 55.65621 L 297.92218 49.41523 L 293.06813 57.33788 L 302.07071 55.65621 M 303.81595 58.00206 L 300.62239 63.11217 L 306.07511 64.75357 L 303.81595 58.00206 M 296.53830 48.74099 L 290.99966 50.26224 L 291.68425 56.66363 L 296.53830 48.74099 M 296.07353 46.96061 L 287.96607 42.42061 L 290.53489 48.48186 L 296.07353 46.96061 M 285.45570 50.04556 L 282.88689 43.98430 L 255.44006 59.47016 L 285.45570 50.04556 M 286.60507 58.22733 L 285.92048 51.82593 L 255.90484 61.25054 L 286.60507 58.22733 M 287.42922 67.46951 L 286.79366 60.18277 L 256.09343 63.20598 L 287.42922 67.46951 M 286.68565 70.28199 L 255.34986 66.01846 L 280.84508 82.68261 L 286.68565 70.28199 M 291.41134 78.54396 L 291.19334 71.84768 L 285.35276 84.24830 L 291.41134 78.54396 M 291.53071 92.08666 L 284.47885 88.28865 L 283.20873 94.66816 L 291.53071 92.08666 M 279.66655 99.25428 L 272.62953 100.49324 L 271.50044 121.15715 L 279.66655 99.25428 M 278.82398 85.54248 L 253.32875 68.87833 L 270.51683 93.16095 L 278.82398 85.54248 M 249.77338 70.70309 L 250.38098 100.14056 L 266.96146 94.98571 L 249.77338 70.70309 M 237.30855 64.71937 L 204.62992 64.63235 L 200.52907 76.64045 L 237.30855 64.71937 M 205.85217 50.41201 L 205.29531 61.35380 L 237.97394 61.44082 L 205.85217 50.41201 M 200.24094 49.51086 L 193.08416 54.23166 L 199.68408 60.45265 L 200.24094 49.51086 M 199.20226 47.56129 L 191.37462 44.85604 L 192.04547 52.28209 L 199.20226 47.56129 M 197.95798 36.32141 L 192.11368 42.86096 L 199.94132 45.56620 L 197.95798 36.32141 M 196.68386 34.74570 L 189.74837 32.96050 L 190.83956 41.28524 L 196.68386 34.74570 M 187.88670 33.87669 L 181.79049 42.07522 L 188.97789 42.20143 L 187.88670 33.87669 M 188.12708 44.22127 L 180.93968 44.09506 L 181.08025 50.03538 L 188.12708 44.22127 M 179.03696 44.71678 L 172.90528 49.19506 L 179.17752 50.65710 L 179.03696 44.71678 M 170.77782 37.48530 L 168.16874 42.53319 L 177.57738 42.51304 L 170.77782 37.48530 M 168.41963 26.45575 L 162.78133 31.52844 L 169.16170 34.47841 L 168.41963 26.45575 M 167.42342 25.10438 L 161.19204 23.66745 L 161.78512 30.17707 L 167.42342 25.10438 M 178.13883 23.32143 L 163.23625 22.81050 L 169.46764 24.24743 L 178.13883 23.32143 M 191.99980 23.54918 L 183.43900 24.02025 L 188.40563 29.79811 L 191.99980 23.54918 M 208.12641 33.72221 L 208.98541 25.85309 L 200.74207 33.11565 L 208.12641 33.72221 M 207.23213 36.08041 L 199.84779 35.47384 L 201.83113 44.71863 L 207.23213 36.08041 M 212.84680 24.32195 L 218.87794 28.39053 L 224.74310 24.66709 L 212.84680 24.32195 M 236.33792 26.72527 L 230.15832 27.90095 L 244.12380 55.09198 L 236.33792 26.72527 M 257.94763 26.59351 L 239.81159 26.56184 L 247.59747 54.92855 L 257.94763 26.59351 M 279.94943 29.49994 L 272.95126 28.05967 L 284.22077 38.21140 L 279.94943 29.49994 M 287.62267 24.40856 L 293.25947 23.73750 L 268.33353 22.88858 L 287.62267 24.40856 M 292.68741 31.15332 L 289.15433 25.85275 L 282.69051 28.47050 L 292.68741 31.15332 M 292.37420 32.77178 L 282.37730 30.08896 L 286.64863 38.80041 L 292.37420 32.77178 M 298.44194 24.97930 L 296.33822 30.95092 L 306.26020 27.52237 L 298.44194 24.97930 M 308.32706 29.94105 L 302.94373 37.91059 L 310.43822 39.78780 L 308.32706 29.94105 M 317.35057 33.58717 L 310.12792 29.40063 L 312.23907 39.24737 L 317.35057 33.58717 M 320.52069 48.93162 L 313.00907 43.18354 L 313.88779 49.48164 L 320.52069 48.93162 M 320.12977 56.17376 L 321.41078 50.55540 L 314.77788 51.10542 L 320.12977 56.17376 M 353.14458 50.53351 L 342.89771 47.73217 L 343.55912 55.91984 L 353.14458 50.53351 M 363.33162 49.16408 L 356.94071 50.72975 L 357.29037 56.25409 L 363.33162 49.16408 M 365.28438 49.60549 L 359.24313 56.69550 L 372.56279 54.26102 L 365.28438 49.60549 M 372.72531 56.91548 L 359.40565 59.34995 L 366.58450 70.84115 L 372.72531 56.91548 M 408.24467 72.92270 L 399.08455 74.04919 L 404.65295 79.84133 L 408.24467 72.92270 M 416.48267 82.77158 L 410.41943 74.01300 L 406.82772 80.93162 L 416.48267 82.77158 M 416.83235 84.78176 L 407.17740 82.94181 L 413.21687 90.09445 L 416.83235 84.78176 M 411.38828 90.48016 L 405.34881 83.32752 L 402.20364 87.86745 L 411.38828 90.48016 M 411.57800 92.16602 L 402.39336 89.55330 L 406.86657 96.81433 L 411.57800 92.16602 M 415.91285 99.34593 L 413.26793 93.39009 L 408.55650 98.03841 L 415.91285 99.34593 M 415.04012 100.86431 L 407.68377 99.55679 L 406.28606 105.53720 L 415.04012 100.86431 M 424.10150 96.27500 L 424.46305 90.64495 L 415.94518 92.22739 L 424.10150 96.27500 M 425.05657 86.93089 L 425.23421 71.87526 L 420.15418 83.20064 L 425.05657 86.93089 M 426.00898 109.84739 L 425.72102 92.84745 L 425.35947 98.47750 L 426.00898 109.84739 M 425.45831 111.71604 L 424.80880 100.34615 L 421.31564 107.79662 L 425.45831 111.71604 M 423.42567 115.06471 L 413.39406 115.72387 L 414.43660 122.55695 L 423.42567 115.06471 M 410.32237 114.45653 L 405.43901 109.00858 L 404.77802 117.20702 L 410.32237 114.45653 M 407.07233 107.96157 L 411.95569 113.40952 L 417.84463 108.83094 L 407.07233 107.96157 M 403.06375 116.69891 L 403.72473 108.50047 L 396.60818 110.39162 L 403.06375 116.69891 M 401.77662 118.10265 L 395.32105 111.79536 L 393.42775 119.73041 L 401.77662 118.10265 M 410.92043 124.26865 L 404.33354 120.18606 L 400.84064 126.00777 L 410.92043 124.26865 M 411.26210 125.62976 L 401.18231 127.36888 L 407.06693 131.07499 L 411.26210 125.62976 M 381.66341 115.65638 L 373.09119 116.99428 L 375.06377 123.33950 L 381.66341 115.65638 M 381.42293 113.83764 L 373.13991 108.78958 L 372.85071 115.17554 L 381.42293 113.83764 M 382.48920 112.26520 L 381.38092 102.59603 L 374.20619 107.21714 L 382.48920 112.26520 M 363.96459 127.75569 L 357.33875 123.34814 L 356.30966 129.13051 L 363.96459 127.75569 M 354.49386 128.33078 L 355.52295 122.54841 L 349.43817 121.35785 L 354.49386 128.33078 M 346.48335 133.45304 L 353.36391 129.69386 L 348.30822 122.72093 L 346.48335 133.45304 M 344.63230 132.57710 L 346.45718 121.84500 L 338.55552 122.68636 L 344.63230 132.57710 M 343.16046 133.65674 L 337.08368 123.76599 L 334.68243 130.48205 L 343.16046 133.65674 M 316.71571 127.54917 L 321.88771 122.79546 L 311.40151 114.01786 L 316.71571 127.54917 M 314.61110 128.45256 L 309.29690 114.92125 L 305.05090 130.02258 L 314.61110 128.45256 M 306.64503 139.53782 L 303.09335 134.20379 L 299.64497 141.46688 L 306.64503 139.53782 M 295.84698 140.18827 L 299.29536 132.92518 L 276.26114 129.30892 L 295.84698 140.18827 M 289.06285 148.37514 L 294.56792 142.11951 L 274.98207 131.24017 L 289.06285 148.37514 M 278.30606 154.24412 L 287.03012 149.89071 L 272.94934 132.75575 L 278.30606 154.24412 M 275.72844 155.08199 L 270.37172 133.59362 L 266.40916 156.59370 L 275.72844 155.08199 M 273.74638 167.81825 L 276.15027 159.36007 L 266.83099 160.87178 L 273.74638 167.81825 M 275.47333 168.47245 L 280.64660 166.10538 L 277.87722 160.01427 L 275.47333 168.47245 M 276.01125 177.01968 L 280.41335 168.23106 L 275.24009 170.59813 L 276.01125 177.01968 M 269.55368 185.35051 L 277.76849 190.44543 L 275.08555 181.12710 L 269.55368 185.35051 M 266.56790 183.32811 L 265.86121 176.31120 L 260.12076 177.05972 L 266.56790 183.32811 M 258.82967 174.81713 L 264.57012 174.06861 L 256.23921 165.38739 L 258.82967 174.81713 M 246.25836 169.46947 L 252.89589 163.07913 L 247.05156 158.64198 L 246.25836 169.46947 M 237.88869 160.50191 L 244.46443 156.53473 L 237.98135 153.08149 L 237.88869 160.50191 M 237.22464 118.98737 L 210.62301 122.08665 L 233.88971 136.10640 L 237.22464 118.98737 M 237.33859 115.41577 L 234.80129 107.53360 L 210.73695 118.51505 L 237.33859 115.41577 M 246.41711 106.15965 L 239.26131 105.98918 L 241.79861 113.87135 L 246.41711 106.15965 M 246.99009 100.85262 L 246.38248 71.41515 L 239.83429 100.68215 L 246.99009 100.85262 M 265.09809 123.90864 L 249.64670 108.39958 L 245.02821 116.11128 L 265.09809 123.90864 M 264.75450 127.93463 L 244.68462 120.13727 L 246.89798 140.60750 L 264.75450 127.93463 M 304.87198 107.48558 L 294.07986 94.48628 L 285.75787 97.06777 L 304.87198 107.48558 M 357.89401 108.22591 L 361.14123 100.64375 L 348.67262 101.38230 L 357.89401 108.22591 M 328.39769 172.73717 L 341.32856 140.13014 L 326.88129 139.77147 L 328.39769 172.73717 M 324.68896 173.18727 L 323.17256 140.22157 L 311.65872 143.73095 L 324.68896 173.18727 M 364.45377 201.07751 L 333.28595 188.35368 L 347.75042 219.37274 L 364.45377 201.07751 M 367.43564 197.68014 L 371.60533 192.19378 L 336.26781 184.95631 L 367.43564 197.68014 M 377.15730 248.78250 L 384.44850 245.98458 L 376.74818 228.95801 L 377.15730 248.78250 M 386.50696 256.36919 L 385.66834 249.41098 L 378.37715 252.20890 L 386.50696 256.36919 M 380.22236 262.47884 L 376.01525 254.03231 L 370.69583 259.71203 L 380.22236 262.47884 M 372.16790 265.95671 L 368.39458 261.18991 L 363.35850 263.85539 L 372.16790 265.95671 M 371.34287 267.21506 L 362.53347 265.11374 L 361.79432 271.25672 L 371.34287 267.21506 M 377.70407 274.73192 L 383.43979 272.69972 L 375.43354 268.44408 L 377.70407 274.73192 M 386.01692 271.25765 L 392.56786 265.19534 L 383.76388 265.00203 L 386.01692 271.25765 M 387.02418 280.16488 L 393.16871 274.66665 L 386.44593 273.99478 L 387.02418 280.16488 M 385.24439 280.35921 L 384.66615 274.18911 L 378.93042 276.22131 L 385.24439 280.35921 M 396.61391 288.46172 L 394.43970 276.47502 L 388.29517 281.97325 L 396.61391 288.46172 M 402.29428 290.20699 L 421.37213 291.12371 L 412.48604 283.03203 L 402.29428 290.20699 M 412.51156 279.48227 L 416.87070 275.49239 L 407.02544 273.89047 L 412.51156 279.48227 M 419.98389 272.12265 L 425.81211 272.44795 L 421.74355 250.59715 L 419.98389 272.12265 M 402.84503 272.12364 L 395.79335 266.16953 L 395.96518 272.90371 L 402.84503 272.12364 M 396.60952 260.72731 L 415.26612 246.75784 L 390.88963 249.28954 L 396.60952 260.72731 M 422.43495 243.03471 L 426.50351 264.88551 L 425.51515 211.62314 L 422.43495 243.03471 M 423.45083 289.52874 L 418.92388 277.44717 L 414.56474 281.43705 L 423.45083 289.52874 M 373.85609 291.17336 L 380.64254 291.54048 L 372.74483 285.70945 L 373.85609 291.17336 M 371.28757 282.85647 L 375.31342 277.13369 L 366.06991 279.90332 L 371.28757 282.85647 M 279.49459 250.73945 L 272.12408 246.03031 L 268.34882 257.28268 L 279.49459 250.73945 M 272.78769 242.39160 L 279.44645 239.48136 L 274.36945 235.79235 L 272.78769 242.39160 M 270.50482 242.13512 L 272.08658 235.53587 L 261.18347 237.42951 L 270.50482 242.13512 M 274.00470 232.51983 L 277.68535 225.32206 L 271.26605 227.09820 L 274.00470 232.51983 M 271.56105 225.28506 L 277.98035 223.50891 L 276.36471 218.01467 L 271.56105 225.28506 M 268.25706 205.99954 L 277.24047 205.48902 L 273.22544 200.69637 L 268.25706 205.99954 M 266.88527 205.11947 L 271.85365 199.81630 L 266.26614 198.44846 L 266.88527 205.11947 M 271.98625 197.65589 L 267.94601 187.83622 L 266.39873 196.28806 L 271.98625 197.65589 M 210.23355 212.62933 L 244.60271 210.42966 L 241.29549 202.59703 L 210.23355 212.62933 M 186.39494 254.31257 L 195.97595 254.89567 L 198.73051 223.31617 L 186.39494 254.31257 M 189.12503 263.73868 L 194.77526 259.94848 L 185.19425 259.36539 L 189.12503 263.73868 M 198.84038 268.02633 L 204.26565 266.21894 L 197.97379 261.18640 L 198.84038 268.02633 M 199.93319 269.53727 L 206.71626 273.27392 L 205.35846 267.72988 L 199.93319 269.53727 M 207.36546 265.46236 L 214.99824 262.75683 L 209.71422 259.64665 L 207.36546 265.46236 M 208.20044 266.77254 L 216.39402 270.12815 L 215.83321 264.06702 L 208.20044 266.77254 M 208.66181 273.49509 L 215.49759 271.30666 L 207.30401 267.95105 L 208.66181 273.49509 M 218.51994 270.07126 L 225.20781 266.31737 L 217.95913 264.01012 L 218.51994 270.07126 M 189.28668 284.86898 L 204.70728 275.41630 L 197.92422 271.67966 L 189.28668 284.86898 M 168.93784 271.26456 L 182.70563 283.96100 L 174.46420 267.65953 L 168.93784 271.26456 M 165.64561 262.04335 L 166.80534 268.52486 L 172.33169 264.91982 L 165.64561 262.04335 M 175.06223 263.27214 L 181.49360 258.96125 L 175.53219 256.77779 L 175.06223 263.27214 M 158.07397 272.06789 L 165.02312 269.41837 L 163.86339 262.93686 L 158.07397 272.06789 M 157.85118 274.06702 L 162.08106 278.92987 L 164.80033 271.41749 L 157.85118 274.06702 M 151.96009 270.37480 L 157.74952 261.24377 L 116.11212 255.87366 L 151.96009 270.37480 M 144.93236 281.04871 L 150.35795 272.85042 L 114.50998 258.34927 L 144.93236 281.04871 M 151.30432 285.68277 L 161.25581 290.55893 L 160.95979 282.34733 L 151.30432 285.68277 M 168.02647 244.50584 L 174.65272 254.43201 L 180.61413 256.61546 L 168.02647 244.50584 M 162.44776 227.22058 L 168.04279 237.22987 L 192.96603 218.34308 L 162.44776 227.22058 M 151.67956 216.93065 L 156.57464 224.20180 L 156.47121 211.47328 L 151.67956 216.93065 M 146.46975 221.34661 L 114.79267 246.80097 L 151.36482 228.61776 L 146.46975 221.34661 M 140.90046 209.29569 L 148.85851 215.06718 L 146.75594 209.60822 L 140.90046 209.29569 M 143.64420 202.38122 L 140.24867 207.70995 L 146.10415 208.02248 L 143.64420 202.38122 M 145.20664 201.38141 L 147.66659 207.02267 L 152.74819 199.71148 L 145.20664 201.38141 M 154.08450 200.51760 L 149.00290 207.82879 L 155.89712 207.83039 L 154.08450 200.51760 M 136.64603 196.92811 L 143.82907 200.11960 L 151.37062 198.44966 L 136.64603 196.92811 M 135.08359 197.92792 L 138.87110 206.44813 L 142.26663 201.11940 L 135.08359 197.92792 M 136.95129 192.78320 L 151.67588 194.30475 L 146.27118 166.96031 L 136.95129 192.78320 M 124.48471 193.85703 L 123.83627 199.53828 L 131.43728 196.35323 L 124.48471 193.85703 M 113.55278 183.72136 L 114.25683 189.93939 L 121.43317 191.38695 L 113.55278 183.72136 M 107.26732 186.52197 L 112.48610 189.33127 L 111.78205 183.11324 L 107.26732 186.52197 M 107.09624 188.17114 L 110.41336 196.30661 L 112.31501 190.98044 L 107.09624 188.17114 M 105.50477 188.79070 L 99.58332 195.93691 L 108.82189 196.92617 L 105.50477 188.79070 M 106.73289 184.79841 L 111.24761 181.38967 L 108.21062 175.54273 L 106.73289 184.79841 M 98.28647 188.50034 L 98.26639 194.88368 L 104.18785 187.73747 L 98.28647 188.50034 M 89.64964 187.75814 L 96.29184 186.81010 L 94.85291 179.65093 L 89.64964 187.75814 M 96.64485 179.40651 L 98.08378 186.56569 L 103.98515 185.80283 L 96.64485 179.40651 M 93.23782 170.49440 L 88.25245 175.03246 L 94.35833 176.42411 L 93.23782 170.49440 M 84.97829 166.18960 L 87.07994 173.75315 L 92.06531 169.21509 L 84.97829 166.18960 M 84.57209 162.74683 L 91.40766 159.35747 L 84.08172 152.62576 L 84.57209 162.74683 M 94.60491 161.20493 L 94.85635 167.61977 L 102.57268 164.37994 L 94.60491 161.20493 M 99.11958 154.51165 L 95.13781 159.56642 L 103.10558 162.74142 L 99.11958 154.51165 M 110.93354 150.35366 L 109.25480 162.18055 L 138.66687 158.67656 L 110.93354 150.35366 M 109.33245 164.77156 L 111.55467 171.08173 L 138.74451 161.26757 L 109.33245 164.77156 M 112.30599 172.81846 L 115.34298 178.66541 L 139.49583 163.00430 L 112.30599 172.81846 M 77.04692 175.75598 L 79.55352 182.60680 L 84.80848 176.30405 L 77.04692 175.75598 M 69.79448 166.78567 L 69.87526 177.74761 L 74.30334 174.15847 L 69.79448 166.78567 M 60.69033 167.37731 L 60.23959 172.92622 L 67.21129 165.49650 L 60.69033 167.37731 M 61.18269 174.22353 L 68.23518 177.75575 L 68.15439 166.79380 L 61.18269 174.22353 M 59.93948 176.08689 L 58.20871 181.70072 L 66.99197 179.61911 L 59.93948 176.08689 M 57.41821 184.24492 L 53.76292 190.68273 L 66.05398 187.92102 L 57.41821 184.24492 M 65.57559 199.57267 L 67.07365 189.83699 L 54.78259 192.59870 L 65.57559 199.57267 M 76.55040 194.06913 L 69.77086 200.71922 L 83.06326 198.68553 L 76.55040 194.06913 M 78.65580 192.77833 L 85.16866 197.39473 L 86.61405 190.39281 L 78.65580 192.77833 M 71.00125 217.31464 L 99.11195 243.84659 L 85.70681 206.06029 L 71.00125 217.31464 M 67.23093 221.83530 L 55.54419 242.22558 L 95.34162 248.36725 L 67.23093 221.83530 M 42.37060 222.85053 L 48.92281 239.03599 L 60.60955 218.64571 L 42.37060 222.85053 M 39.55369 243.53991 L 46.29083 242.14776 L 39.73861 225.96231 L 39.55369 243.53991 M 29.97155 247.62952 L 36.19231 246.08535 L 25.80547 243.38951 L 29.97155 247.62952 M 25.09479 254.42034 L 29.31678 259.85253 L 29.12864 250.38486 L 25.09479 254.42034 M 24.99874 256.60312 L 28.36024 267.84708 L 29.22073 262.03531 L 24.99874 256.60312 M 24.44027 258.91305 L 24.75302 280.51476 L 27.80178 270.15701 L 24.44027 258.91305 M 30.74835 262.96163 L 29.88786 268.77340 L 37.21973 264.01373 L 30.74835 262.96163 M 31.71498 261.44698 L 38.18636 262.49907 L 37.62087 256.65618 L 31.71498 261.44698 M 30.93250 269.75190 L 39.10540 270.78963 L 38.26436 264.99223 L 30.93250 269.75190 M 28.65867 272.73068 L 25.60991 283.08843 L 31.29540 279.50244 L 28.65867 272.73068 M 32.25550 281.42664 L 26.57001 285.01264 L 36.33949 288.12432 L 32.25550 281.42664 M 34.23411 280.93883 L 38.31810 287.63651 L 42.39889 281.11017 L 34.23411 280.93883 M 40.48861 265.03882 L 41.32966 270.83622 L 48.72652 270.12464 L 40.48861 265.03882 M 41.05121 263.68151 L 49.28911 268.76733 L 45.83042 259.97773 L 41.05121 263.68151 M 46.73019 258.05543 L 50.18888 266.84503 L 48.24936 248.30312 L 46.73019 258.05543 M 40.12786 254.35507 L 45.47256 256.49419 L 46.99173 246.74188 L 40.12786 254.35507 M 54.15173 247.78732 L 56.09125 266.32923 L 93.94917 253.92899 L 54.15173 247.78732 M 25.29339 205.89698 L 25.24382 235.97574 L 35.81558 221.09398 L 25.29339 205.89698 M 36.36869 172.79043 L 29.45404 182.60822 L 40.72595 181.30808 L 36.36869 172.79043 M 26.80782 162.79587 L 35.73310 168.43699 L 37.65192 161.93955 L 26.80782 162.79587 M 35.43481 152.28364 L 26.77053 160.77670 L 37.61464 159.92038 L 35.43481 152.28364 M 37.99342 151.19712 L 40.17324 158.83386 L 47.23939 152.08457 L 37.99342 151.19712 M 40.71658 143.82679 L 38.06134 149.32124 L 47.30731 150.20869 L 40.71658 143.82679 M 50.49764 152.32647 L 50.17723 159.09406 L 57.31365 153.11404 L 50.49764 152.32647 M 56.32311 145.35108 L 51.26588 150.60860 L 58.08189 151.39617 L 56.32311 145.35108 M 61.58244 153.60130 L 68.46480 161.85720 L 70.62911 153.94862 L 61.58244 153.60130 M 60.34168 154.99978 L 60.70309 165.13651 L 67.22405 163.25569 L 60.34168 154.99978 M 50.14422 162.60534 L 49.87218 170.28001 L 57.64206 166.76205 L 50.14422 162.60534 M 73.06498 155.17908 L 70.90068 163.08767 L 81.06945 163.44499 L 73.06498 155.17908 M 69.63976 145.39286 L 72.84607 151.70210 L 80.36017 149.84694 L 69.63976 145.39286 M 63.18870 131.23032 L 68.51467 140.78139 L 79.89169 128.81554 L 63.18870 131.23032 M 58.86069 131.65491 L 52.86677 132.29546 L 56.58752 141.12281 L 58.86069 131.65491 M 50.87803 133.48739 L 42.95082 141.19037 L 54.59879 142.31474 L 50.87803 133.48739 M 51.07943 123.62432 L 52.17826 130.10815 L 58.17218 129.46760 L 51.07943 123.62432 M 51.64893 122.30711 L 58.74168 128.15040 L 56.73423 119.57050 L 51.64893 122.30711 M 50.47543 120.63176 L 55.56072 117.89515 L 49.35363 114.74759 L 50.47543 120.63176 M 49.42291 123.28588 L 44.91999 126.76011 L 50.52173 129.76971 L 49.42291 123.28588 M 50.67033 113.36572 L 56.87743 116.51328 L 61.00904 109.57680 L 50.67033 113.36572 M 60.13362 120.06029 L 62.14107 128.64018 L 78.84406 126.22540 L 60.13362 120.06029 M 64.96449 106.01761 L 76.33430 100.53624 L 66.81247 97.31005 L 64.96449 106.01761 M 56.29129 100.52424 L 50.59707 111.36709 L 60.93578 107.57817 L 56.29129 100.52424 M 47.70573 94.44532 L 55.51419 96.47150 L 56.83323 88.02531 L 47.70573 94.44532 M 46.45262 93.09636 L 55.58012 86.67635 L 45.48931 85.67985 L 46.45262 93.09636 M 46.17926 96.48403 L 44.62144 104.33495 L 53.98772 98.51021 L 46.17926 96.48403 M 37.49100 92.26922 L 34.30391 98.80359 L 43.19990 95.17599 L 37.49100 92.26922 M 29.30125 91.76608 L 32.56658 98.37735 L 35.75367 91.84298 L 29.30125 91.76608 M 27.95151 92.53182 L 24.95575 97.96891 L 31.21684 99.14309 L 27.95151 92.53182 M 29.52145 89.96846 L 35.97387 90.04536 L 34.32818 83.99640 L 29.52145 89.96846 M 34.89692 100.34040 L 42.23509 104.56373 L 43.79291 96.71280 L 34.89692 100.34040 M 33.45815 101.84087 L 32.28274 108.71655 L 40.79632 106.06419 L 33.45815 101.84087 M 24.73021 106.65759 L 30.27448 108.79072 L 31.44989 101.91505 L 24.73021 106.65759 M 22.92674 106.33132 L 22.61800 85.53241 L 22.87514 122.23696 L 22.92674 106.33132 M 23.85921 108.31659 L 24.48184 115.18702 L 29.40347 110.44972 L 23.85921 108.31659 M 23.68243 117.15452 L 23.05980 110.28409 L 23.00819 126.18973 L 23.68243 117.15452 M 24.97209 118.16858 L 24.29786 127.20379 L 33.37711 118.39657 L 24.97209 118.16858 M 37.83664 115.71136 L 46.53889 113.11183 L 42.86684 108.09372 L 37.83664 115.71136 M 43.36982 86.18174 L 38.62424 90.69149 L 44.33313 93.59826 L 43.36982 86.18174 M 41.94384 77.62016 L 36.47418 81.88915 L 42.86545 83.42836 L 41.94384 77.62016 M 43.56394 77.00929 L 44.48555 82.81749 L 49.43497 77.00217 L 43.56394 77.00929 M 37.77736 71.21307 L 35.83817 80.36224 L 41.30783 76.09325 L 37.77736 71.21307 M 36.45956 70.82227 L 30.76540 72.96681 L 34.52037 79.97143 L 36.45956 70.82227 M 30.33334 70.98778 L 36.02749 68.84324 L 31.06383 64.13918 L 30.33334 70.98778 M 29.56254 64.95006 L 24.01719 75.33024 L 28.83205 71.79866 L 29.56254 64.95006 M 29.07409 62.82559 L 24.92445 54.80295 L 23.52874 73.20578 L 29.07409 62.82559 M 26.30797 52.52096 L 30.45761 60.54360 L 34.59688 54.94985 L 26.30797 52.52096 M 32.89958 45.19519 L 26.61322 50.60241 L 34.90212 53.03130 L 32.89958 45.19519 M 34.55717 41.89503 L 41.21383 39.07808 L 35.21978 34.85422 L 34.55717 41.89503 M 42.35321 40.78274 L 35.69655 43.59969 L 44.33483 48.49150 L 42.35321 40.78274 M 46.50601 48.62959 L 53.06595 44.70439 L 44.52439 40.92083 L 46.50601 48.62959 M 46.47791 51.75999 L 45.46394 58.73133 L 51.87356 55.06754 L 46.47791 51.75999 M 46.73993 59.93683 L 56.68586 61.40403 L 53.14955 56.27304 L 46.73993 59.93683 M 46.05029 61.28989 L 47.63244 67.09752 L 55.99622 62.75709 L 46.05029 61.28989 M 49.19401 68.07761 L 58.54286 69.13061 L 57.55779 63.73718 L 49.19401 68.07761 M 48.43089 69.45999 L 51.45288 74.79619 L 57.77975 70.51299 L 48.43089 69.45999 M 59.09877 71.45174 L 52.77190 75.73494 L 58.98304 76.97000 L 59.09877 71.45174 M 60.66776 79.55637 L 59.59801 85.13313 L 67.43514 85.33088 L 60.66776 79.55637 M 70.27327 75.82215 L 62.00217 78.39250 L 68.76954 84.16700 L 70.27327 75.82215 M 70.71604 86.39493 L 77.57417 96.21595 L 72.21977 78.05008 L 70.71604 86.39493 M 67.45700 95.12399 L 76.97883 98.35019 L 70.12070 88.52917 L 67.45700 95.12399 M 82.66536 104.23521 L 85.87437 122.81817 L 102.88214 113.80018 L 82.66536 104.23521 M 87.75554 131.41783 L 98.40664 149.51471 L 104.07138 145.91760 L 87.75554 131.41783 M 114.24201 122.35590 L 109.19420 116.66424 L 111.10628 130.47406 L 114.24201 122.35590 M 116.14216 123.18109 L 113.00643 131.29926 L 124.39541 123.26581 L 116.14216 123.18109 M 110.72513 114.54323 L 115.77294 120.23488 L 123.35368 113.50592 L 110.72513 114.54323 M 125.25383 114.33112 L 117.67309 121.06008 L 125.92633 121.14479 L 125.25383 114.33112 M 135.09301 114.46340 L 129.08373 121.11987 L 136.25049 120.70351 L 135.09301 114.46340 M 144.52003 108.21941 L 137.84078 112.31468 L 145.54411 114.26553 L 144.52003 108.21941 M 146.49434 107.99394 L 147.51841 114.04006 L 153.63522 110.51093 L 146.49434 107.99394 M 146.98402 116.64558 L 140.43817 120.93485 L 154.88186 121.01970 L 146.98402 116.64558 M 154.88582 125.41540 L 140.44213 125.33055 L 147.01571 151.81120 L 154.88582 125.41540 M 160.37811 128.77509 L 152.50801 155.17088 L 184.38048 152.20804 L 160.37811 128.77509 M 167.07997 118.66556 L 162.19961 124.21192 L 186.20198 147.64488 L 167.07997 118.66556 M 163.39663 114.18896 L 156.73524 111.83207 L 158.51627 119.73532 L 163.39663 114.18896 M 160.30671 105.06772 L 156.95904 109.99862 L 163.62044 112.35551 L 160.30671 105.06772 M 199.88877 86.58366 L 206.05573 114.91104 L 230.12006 103.92959 L 199.88877 86.58366 M 185.54594 62.47919 L 176.39052 61.22224 L 180.76653 68.90885 L 185.54594 62.47919 M 162.42229 46.02710 L 130.93798 60.95830 L 165.69926 50.48523 L 162.42229 46.02710 M 128.44263 71.53465 L 145.14014 101.06286 L 160.52325 90.63663 L 128.44263 71.53465 M 120.62352 74.29746 L 111.33145 108.80105 L 123.96000 107.76374 L 120.62352 74.29746 M 74.73829 61.27952 L 111.36164 62.26937 L 77.19626 47.03241 L 74.73829 61.27952 M 68.49308 64.97017 L 62.09780 69.78485 L 70.25318 72.73276 L 68.49308 64.97017 M 67.18730 63.77855 L 59.80695 63.19980 L 60.79202 68.59323 L 67.18730 63.77855 M 55.22955 55.47428 L 58.76585 60.60528 L 63.37987 53.54678 L 55.22955 55.47428 M 63.90918 38.48648 L 57.18229 44.57260 L 64.16833 49.87784 L 63.90918 38.48648 M 58.09228 33.46739 L 56.42279 42.52130 L 63.14967 36.43518 L 58.09228 33.46739 M 52.54740 25.47965 L 42.52473 27.76449 L 48.39263 32.04054 L 52.54740 25.47965 M 41.36957 29.27080 L 43.30606 37.53013 L 47.23747 33.54685 L 41.36957 29.27080 M 39.95164 29.23643 L 35.89409 33.27189 L 41.88814 37.49576 L 39.95164 29.23643 M 38.24392 27.79024 L 28.22632 25.92628 L 34.18636 31.82571 L 38.24392 27.79024 M 26.63488 37.73115 L 25.90656 28.72490 L 24.91763 47.07236 L 26.63488 37.73115 M 69.57424 23.21718 L 33.90263 24.56461 L 53.94290 24.14373 L 69.57424 23.21718 M 72.74069 23.91046 L 57.10935 24.83701 L 59.23423 30.11083 L 72.74069 23.91046 M 75.27256 26.19487 L 66.82350 35.36303 L 72.30694 40.14453 L 75.27256 26.19487 M 77.97106 43.00430 L 112.13644 58.24126 L 80.93668 29.05465 L 77.97106 43.00430 M 23.07598 147.98493 L 23.65137 226.83711 L 23.70094 196.75835 L 23.07598 147.98493 M 107.36156 242.33138 L 119.69205 205.77038 L 111.26251 203.96774 L 107.36156 242.33138 M 110.98726 243.82757 L 134.70628 212.60172 L 128.87957 210.60208 L 110.98726 243.82757 M 103.68905 260.81312 L 67.29250 287.72632 L 130.60948 288.34746 L 103.68905 260.81312 M 205.36008 127.62241 L 203.54405 153.35091 L 220.20397 151.56471 L 205.36008 127.62241" fill="none" stroke="black" stroke-width="0.01cm" />
   </g>
</svg>