<?xml version="1.0" standalone="no"?>
  <!DOCTYPE svg PUBLIC "-//W3C//DTD SVG 1.1//EN" 
    "http://www.w3.org/Graphics/SVG/1.1/DTD/svg11.dtd">
  <svg width="12.7cm" height="8.89cm"
       xmlns="http://www.w3.org/2000/svg" version="1.1" viewBox="0 0 449.99999 314.99999">
   <g>
     <path d="M 215.65946 159.62856 L 225.13306 165.65644 L 222.91867 157.22940 L 215.65946 159.62856 M 213.93677 166.43873 L 224.01032 166.80760 L 214.53672 160.77973 L 213.93677 166.43873 M 214.57709 167.75254 L 219.65925 171.29019 L 224.65064 168.12141 L 214.57709 167.75254 M 212.74009 168.90861 L 209.95465 177.36994 L 217.82225 172.44626 L 212.74009 168.90861 M 210.46610 178.87828 L 216.83170 180.97529 L 218.33370 173.95460 L 210.46610 178.87828 M 218.80035 181.15711 L 226.21528 180.33285 L 220.30235 174.13642 L 218.80035 181.15711 M 218.85530 183.10637 L 220.74197 189.73051 L 226.27023 182.28211 L 218.85530 183.10637 M 227.14291 178.87721 L 226.22137 169.51200 L 221.22998 172.68078 L 227.14291 178.87721 M 236.71806 177.55021 L 238.62666 184.39771 L 244.23405 173.44584 L 236.71806 177.55021 M 236.61484 175.44584 L 244.13083 171.34148 L 237.80093 167.56280 L 236.61484 175.44584 M 239.57062 186.05514 L 244.26970 190.80964 L 245.17800 175.10327 L 239.57062 186.05514 M 235.83230 196.52331 L 243.10149 193.48715 L 238.40240 188.73264 L 235.83230 196.52331 M 231.33803 207.01886 L 240.41422 202.33519 L 234.74879 199.53822 L 231.33803 207.01886 M 237.06273 213.42137 L 240.70347 204.07058 L 231.62727 208.75426 L 237.06273 213.42137 M 239.10083 215.17802 L 246.16913 217.09236 L 244.50454 211.54231 L 239.10083 215.17802 M 236.60197 223.33201 L 245.18131 218.56608 L 238.11301 216.65173 L 236.60197 223.33201 M 237.78582 226.18998 L 245.89581 233.39895 L 248.05315 227.54060 L 237.78582 226.18998 M 228.38028 218.89169 L 234.50184 223.37271 L 236.01288 216.69243 L 228.38028 218.89169 M 227.81965 217.27064 L 235.45225 215.07138 L 230.01680 210.40426 L 227.81965 217.27064 M 223.89793 201.59841 L 229.27349 206.92676 L 232.68425 199.44613 L 223.89793 201.59841 M 222.46839 199.23171 L 227.78063 192.42354 L 221.31125 192.64904 L 222.46839 199.23171 M 204.77230 205.69932 L 217.98912 200.99820 L 204.00619 195.27174 L 204.77230 205.69932 M 202.92855 209.02626 L 192.93614 214.13083 L 212.46545 212.08166 L 202.92855 209.02626 M 192.76608 219.35817 L 201.56805 250.84504 L 212.29539 217.30901 L 192.76608 219.35817 M 184.97082 209.17179 L 188.64520 213.72746 L 191.80469 208.30581 L 184.97082 209.17179 M 177.82283 213.69902 L 182.01169 208.81482 L 175.99488 205.12155 L 177.82283 213.69902 M 177.83260 216.32418 L 172.39869 221.56722 L 185.69584 215.99566 L 177.83260 216.32418 M 174.77943 226.01841 L 196.87855 251.93371 L 188.07659 220.44685 L 174.77943 226.01841 M 161.48999 220.15125 L 162.20237 227.93976 L 167.97246 223.31957 L 161.48999 220.15125 M 161.89238 217.99587 L 168.37485 221.16420 L 165.42152 210.69678 L 161.89238 217.99587 M 167.63900 208.42603 L 176.02624 213.65042 L 174.19829 205.07295 L 167.63900 208.42603 M 165.11775 206.28167 L 167.58990 198.59556 L 159.94337 200.82853 L 165.11775 206.28167 M 154.57472 209.51736 L 160.16737 216.54002 L 163.69650 209.24093 L 154.57472 209.51736 M 152.50345 209.96595 L 147.12631 212.82963 L 158.09609 216.98861 L 152.50345 209.96595 M 148.86050 203.18416 L 145.97186 211.10408 L 151.34900 208.24040 L 148.86050 203.18416 M 140.09721 203.98037 L 147.05664 201.25740 L 140.98898 198.02331 L 140.09721 203.98037 M 141.80670 195.66925 L 149.87696 193.41840 L 144.63637 190.63281 L 141.80670 195.66925 M 145.66603 188.98775 L 150.90662 191.77334 L 150.04398 182.50876 L 145.66603 188.98775 M 153.31675 194.02890 L 157.75006 198.84051 L 159.65110 192.95611 L 153.31675 194.02890 M 160.99907 183.95830 L 161.78442 190.70350 L 169.26765 188.63764 L 160.99907 183.95830 M 157.46884 174.25862 L 159.92716 180.58999 L 163.93598 174.76768 L 157.46884 174.25862 M 157.52809 164.13189 L 157.34509 171.43148 L 165.22129 165.78149 L 157.52809 164.13189 M 152.96604 157.26653 L 156.55747 161.49927 L 160.86475 156.25288 L 152.96604 157.26653 M 140.40061 155.64845 L 139.18590 168.48343 L 144.42293 165.15435 L 140.40061 155.64845 M 140.96118 144.59605 L 135.31640 140.62354 L 139.58602 150.26865 L 140.96118 144.59605 M 145.12484 136.14611 L 136.00876 138.85822 L 141.65354 142.83073 L 145.12484 136.14611 M 152.69098 142.53646 L 156.20901 147.93561 L 160.33252 139.71566 L 152.69098 142.53646 M 155.93237 131.79937 L 152.65640 140.51943 L 160.29794 137.69863 L 155.93237 131.79937 M 156.44779 120.81864 L 162.67151 121.35989 L 159.63217 116.07664 L 156.44779 120.81864 M 147.42911 114.72120 L 140.83154 116.24775 L 142.80242 121.91233 L 147.42911 114.72120 M 139.03900 116.96716 L 133.08883 120.47650 L 141.00988 122.63174 L 139.03900 116.96716 M 132.19588 113.33515 L 131.98708 119.31443 L 137.93725 115.80509 L 132.19588 113.33515 M 132.71110 103.67347 L 125.80739 107.07539 L 130.92856 110.62730 L 132.71110 103.67347 M 134.67541 103.34665 L 132.89286 110.30047 L 141.52182 104.46076 L 134.67541 103.34665 M 142.08736 105.80701 L 133.45841 111.64672 L 139.19979 114.11666 L 142.08736 105.80701 M 139.75790 92.47760 L 143.77383 101.86163 L 148.07853 97.77734 L 139.75790 92.47760 M 136.47153 92.17926 L 128.63402 96.50470 L 133.64106 100.44917 L 136.47153 92.17926 M 146.00272 86.78202 L 140.03651 90.59265 L 148.35714 95.89239 L 146.00272 86.78202 M 148.15673 86.42564 L 150.51115 95.53600 L 157.26860 87.74160 L 148.15673 86.42564 M 142.68903 74.91665 L 146.54786 82.84648 L 150.61085 76.14851 L 142.68903 74.91665 M 141.06874 75.48196 L 137.64849 80.67102 L 144.92756 83.41179 L 141.06874 75.48196 M 137.49336 65.44086 L 132.58192 72.43150 L 139.67977 72.56969 L 137.49336 65.44086 M 139.78838 64.83753 L 141.97479 71.96635 L 150.94211 67.60482 L 139.78838 64.83753 M 152.38614 68.79920 L 143.41882 73.16074 L 151.34063 74.39260 L 152.38614 68.79920 M 154.56239 68.88882 L 153.51689 74.48222 L 160.82887 73.87769 L 154.56239 68.88882 M 164.06894 64.11859 L 155.88140 67.59337 L 162.14788 72.58224 L 164.06894 64.11859 M 162.40780 61.10535 L 148.85869 48.47637 L 154.22025 64.58013 L 162.40780 61.10535 M 174.31529 58.11239 L 169.22150 54.24545 L 166.90311 61.02772 L 174.31529 58.11239 M 175.68537 49.78418 L 168.76035 44.57631 L 169.58009 51.49216 L 175.68537 49.78418 M 180.36295 42.76014 L 170.10821 43.48481 L 177.03323 48.69267 L 180.36295 42.76014 M 182.09709 43.94000 L 178.76736 49.87254 L 183.98130 52.92375 L 182.09709 43.94000 M 183.36113 54.56767 L 178.14719 51.51646 L 177.13570 57.09139 L 183.36113 54.56767 M 176.33407 69.23262 L 174.50784 75.38570 L 180.80126 75.80886 L 176.33407 69.23262 M 174.37708 69.00215 L 165.14539 73.96506 L 172.55085 75.15522 L 174.37708 69.00215 M 173.12273 78.32753 L 169.30014 86.42872 L 175.36922 85.08925 L 173.12273 78.32753 M 180.86129 77.65383 L 174.56787 77.23067 L 176.81437 83.99239 L 180.86129 77.65383 M 188.59687 81.94065 L 182.61492 78.24257 L 178.56799 84.58114 L 188.59687 81.94065 M 189.23350 83.54986 L 179.20462 86.19035 L 187.70795 91.11626 L 189.23350 83.54986 M 175.98034 87.17703 L 169.91125 88.51649 L 178.01163 95.02972 L 175.98034 87.17703 M 168.77104 89.61899 L 166.85866 95.99703 L 176.87142 96.13222 L 168.77104 89.61899 M 166.72332 97.79641 L 167.68828 104.01404 L 176.73608 97.93160 L 166.72332 97.79641 M 164.59307 98.43884 L 159.69412 103.07101 L 165.55804 104.65646 L 164.59307 98.43884 M 162.92793 97.65681 L 152.23688 98.40029 L 158.02898 102.28898 L 162.92793 97.65681 M 157.39380 105.61703 L 151.00701 112.59572 L 158.44122 113.41377 L 157.39380 105.61703 M 167.93034 106.90928 L 170.40439 113.44493 L 175.23350 108.34023 L 167.93034 106.90928 M 177.89887 109.15168 L 178.53821 116.24631 L 183.78485 111.41088 L 177.89887 109.15168 M 179.80140 99.55142 L 178.05677 107.06482 L 183.94275 109.32402 L 179.80140 99.55142 M 177.91724 99.02425 L 168.86945 105.10669 L 176.17261 106.53765 L 177.91724 99.02425 M 189.70550 101.86487 L 181.25749 98.90142 L 185.39884 108.67402 L 189.70550 101.86487 M 196.17256 119.05117 L 193.62489 114.17728 L 188.66724 118.49138 L 196.17256 119.05117 M 186.96513 121.60288 L 183.39748 129.83282 L 191.08092 131.39915 L 186.96513 121.60288 M 179.17172 119.34173 L 181.90883 128.32564 L 185.47648 120.09571 L 179.17172 119.34173 M 177.87060 120.22627 L 175.06753 127.17197 L 180.60771 129.21017 L 177.87060 120.22627 M 169.84141 117.09277 L 165.59020 122.05166 L 172.50679 126.02842 L 169.84141 117.09277 M 174.93542 129.14429 L 176.81371 136.00480 L 180.47560 131.18249 L 174.93542 129.14429 M 175.64001 139.31743 L 169.28061 144.29600 L 175.56712 145.84444 L 175.64001 139.31743 M 178.00655 148.33865 L 180.87596 156.28513 L 185.99959 149.77613 L 178.00655 148.33865 M 172.58559 155.60213 L 179.19921 157.01338 L 176.32980 149.06690 L 172.58559 155.60213 M 167.35068 146.99809 L 163.94477 154.39889 L 169.89297 155.08176 L 167.35068 146.99809 M 168.73531 146.16204 L 171.27761 154.24571 L 175.02182 147.71048 L 168.73531 146.16204 M 182.27180 159.30311 L 186.92102 167.24347 L 189.64773 158.03312 L 182.27180 159.30311 M 192.95462 157.81260 L 196.96379 163.95157 L 201.99098 160.61034 L 192.95462 157.81260 M 198.02931 165.67366 L 201.47876 171.58933 L 203.05649 162.33243 L 198.02931 165.67366 M 196.34887 166.58975 L 189.61299 169.66113 L 199.79832 172.50542 L 196.34887 166.58975 M 189.17985 171.10832 L 192.88377 178.16724 L 199.36518 173.95261 L 189.17985 171.10832 M 176.04661 171.90843 L 181.05813 176.39099 L 185.27494 170.68382 L 176.04661 171.90843 M 167.90088 166.71317 L 166.49182 172.87221 L 172.49768 171.07627 L 167.90088 166.71317 M 172.85954 188.11923 L 182.23567 187.46011 L 172.87485 182.53605 L 172.85954 188.11923 M 170.67749 196.62310 L 180.43421 198.45225 L 172.41523 190.90581 L 170.67749 196.62310 M 176.54368 203.53850 L 182.56050 207.23177 L 182.21326 201.03463 L 176.54368 203.53850 M 185.89203 199.87046 L 193.07313 205.20163 L 199.13994 195.09114 L 185.89203 199.87046 M 203.48139 173.65313 L 208.16204 177.52080 L 210.94748 169.05947 L 203.48139 173.65313 M 204.61586 162.52129 L 203.03812 171.77819 L 210.50421 167.18453 L 204.61586 162.52129 M 207.68628 153.23446 L 205.27187 159.49595 L 211.76017 158.50018 L 207.68628 153.23446 M 213.66359 150.31035 L 205.96051 144.20564 L 207.97428 150.62556 L 213.66359 150.31035 M 213.59015 140.13907 L 206.66249 142.89483 L 214.36557 148.99954 L 213.59015 140.13907 M 212.22812 138.50099 L 203.46931 135.89493 L 205.30046 141.25676 L 212.22812 138.50099 M 204.36752 144.01673 L 200.91967 148.79904 L 206.38129 150.43664 L 204.36752 144.01673 M 203.10382 142.99199 L 196.27167 142.23870 L 199.65597 147.77429 L 203.10382 142.99199 M 194.60178 142.90222 L 189.74463 148.30016 L 197.98607 148.43781 L 194.60178 142.90222 M 206.73758 129.75494 L 203.64895 134.45720 L 212.40776 137.06327 L 206.73758 129.75494 M 204.13256 127.71630 L 198.00049 121.96808 L 194.61096 131.20456 L 204.13256 127.71630 M 229.03354 128.19164 L 220.93871 110.27429 L 219.75204 127.77074 L 229.03354 128.19164 M 229.36015 131.75839 L 220.07865 131.33749 L 223.55157 138.80831 L 229.36015 131.75839 M 236.77321 137.18683 L 231.44697 132.48956 L 225.63839 139.53948 L 236.77321 137.18683 M 238.42220 135.55067 L 238.83029 126.45017 L 233.09596 130.85340 L 238.42220 135.55067 M 236.91299 123.21951 L 223.08383 109.70539 L 231.17866 127.62274 L 236.91299 123.21951 M 242.85828 116.03982 L 224.54378 108.25752 L 238.37294 121.77164 L 242.85828 116.03982 M 249.63144 123.29160 L 245.99423 117.91908 L 241.50890 123.65090 L 249.63144 123.29160 M 255.54003 129.99043 L 251.46342 125.35045 L 248.45098 130.10920 L 255.54003 129.99043 M 250.88630 137.11742 L 255.46789 131.46131 L 248.37884 131.58007 L 250.88630 137.11742 M 253.21002 145.20525 L 257.22217 140.54357 L 251.61802 139.64047 L 253.21002 145.20525 M 251.17908 153.89222 L 251.79284 147.98720 L 244.90645 151.32930 L 251.17908 153.89222 M 263.12181 156.27982 L 262.48751 148.33256 L 254.39130 154.48065 L 263.12181 156.27982 M 272.99845 151.59868 L 274.79038 146.24672 L 265.85148 146.89755 L 272.99845 151.59868 M 274.87391 152.13471 L 280.85519 151.18580 L 276.66585 146.78275 L 274.87391 152.13471 M 275.89023 144.00514 L 277.38089 137.92945 L 271.36768 140.39250 L 275.89023 144.00514 M 276.98795 136.10044 L 272.74670 129.37309 L 270.97474 138.56349 L 276.98795 136.10044 M 268.25496 139.43406 L 264.88832 134.02971 L 260.36831 139.27891 L 268.25496 139.43406 M 268.10500 140.81518 L 260.21835 140.66003 L 263.68865 145.07864 L 268.10500 140.81518 M 263.61558 133.07051 L 258.07300 131.76050 L 259.09557 138.31972 L 263.61558 133.07051 M 271.44460 125.39491 L 271.27826 119.22488 L 264.96551 119.63545 L 271.44460 125.39491 M 281.75221 127.74293 L 281.44036 121.23162 L 274.43891 126.51871 L 281.75221 127.74293 M 280.36894 118.46697 L 273.34713 111.79572 L 273.20114 117.58403 L 280.36894 118.46697 M 288.43031 109.62501 L 282.66481 105.05419 L 283.09637 116.83357 L 288.43031 109.62501 M 292.53504 116.50975 L 289.66409 111.05695 L 284.33014 118.26552 L 292.53504 116.50975 M 292.70643 118.10064 L 284.50153 119.85641 L 291.03514 123.78414 L 292.70643 118.10064 M 294.37638 115.57154 L 299.06081 110.75984 L 291.50543 110.11874 L 294.37638 115.57154 M 299.74419 120.91860 L 300.09066 112.10982 L 295.40622 116.92152 L 299.74419 120.91860 M 298.83623 122.41791 L 294.49826 118.42083 L 292.82698 124.10433 L 298.83623 122.41791 M 294.10183 131.62584 L 291.24855 126.28870 L 285.02678 128.87229 L 294.10183 131.62584 M 288.07553 141.16208 L 278.31605 145.41117 L 282.50539 149.81422 L 288.07553 141.16208 M 292.54395 147.28119 L 289.85401 141.39583 L 284.28388 150.04797 L 292.54395 147.28119 M 297.95836 145.22583 L 323.72088 138.18131 L 299.14671 134.76430 L 297.95836 145.22583 M 283.27419 158.37584 L 274.13821 154.10823 L 267.62554 157.35436 L 283.27419 158.37584 M 271.55567 178.69841 L 282.95137 161.44961 L 267.30272 160.42813 L 271.55567 178.69841 M 267.48507 179.91476 L 263.23212 161.64449 L 250.38655 171.18043 L 267.48507 179.91476 M 273.04648 206.76553 L 300.10593 184.34199 L 274.09993 186.39061 L 273.04648 206.76553 M 255.44898 205.54407 L 266.39864 187.36551 L 248.39181 194.33755 L 255.44898 205.54407 M 247.92651 216.52417 L 253.15987 210.63243 L 246.26192 210.97411 L 247.92651 216.52417 M 247.92137 234.35440 L 253.99025 233.83355 L 250.07870 228.49605 L 247.92137 234.35440 M 248.44193 236.12549 L 254.24321 242.66477 L 254.51081 235.60464 L 248.44193 236.12549 M 255.94442 234.73136 L 255.67682 241.79149 L 259.91078 229.13924 L 255.94442 234.73136 M 260.69049 242.74546 L 296.05377 242.36314 L 264.92445 230.09321 L 260.69049 242.74546 M 261.37448 268.89099 L 266.72914 272.60215 L 260.90753 261.83071 L 261.37448 268.89099 M 271.21679 270.07134 L 297.27566 248.64454 L 265.39518 259.29991 L 271.21679 270.07134 M 272.98226 272.28781 L 279.51894 277.03166 L 299.04113 250.86100 L 272.98226 272.28781 M 271.04119 285.01915 L 276.01895 281.30143 L 269.48226 276.55758 L 271.04119 285.01915 M 272.43433 286.44656 L 280.62741 287.97684 L 277.41209 282.72884 L 272.43433 286.44656 M 262.97097 290.58689 L 287.39879 290.89919 L 280.68556 289.34470 L 262.97097 290.58689 M 248.63173 289.23738 L 255.07085 289.62753 L 248.35153 282.37226 L 248.63173 289.23738 M 249.60049 281.07614 L 256.31981 288.33141 L 258.62344 278.86843 L 249.60049 281.07614 M 249.11814 279.12140 L 258.14108 276.91369 L 252.46095 272.69347 L 249.11814 279.12140 M 248.23958 277.58889 L 251.58239 271.16096 L 251.11265 264.65362 L 248.23958 277.58889 M 243.15618 276.48506 L 246.02924 263.54979 L 210.91515 262.33034 L 243.15618 276.48506 M 210.85461 257.82140 L 245.96870 259.04086 L 242.67185 240.41358 L 210.85461 257.82140 M 209.22506 254.13051 L 241.04230 236.72269 L 232.93231 229.51372 L 209.22506 254.13051 M 207.19198 252.46051 L 230.89923 227.84372 L 224.77767 223.36270 L 207.19198 252.46051 M 185.98658 291.75359 L 275.56142 291.20030 L 251.13359 290.88800 L 185.98658 291.75359 M 155.46824 290.09029 L 161.63508 290.84709 L 152.06331 283.83952 L 155.46824 290.09029 M 154.78867 291.06740 L 146.62670 291.65641 L 160.95550 291.82420 L 154.78867 291.06740 M 151.92952 282.07725 L 161.50130 289.08482 L 154.39799 275.99211 L 151.92952 282.07725 M 142.83983 282.22906 L 143.93663 289.67567 L 148.69365 282.83589 L 142.83983 282.22906 M 145.25931 290.65532 L 153.42127 290.06632 L 150.01633 283.81555 L 145.25931 290.65532 M 142.35896 291.79089 L 120.64671 292.14330 L 156.68776 291.95869 L 142.35896 291.79089 M 135.88075 288.43411 L 142.33501 290.37544 L 141.23821 282.92883 L 135.88075 288.43411 M 132.93568 289.54825 L 117.67770 291.84199 L 139.38995 291.48959 L 132.93568 289.54825 M 122.39573 287.10218 L 115.55342 291.29357 L 130.81141 288.99983 L 122.39573 287.10218 M 113.57820 278.99361 L 120.94601 284.36768 L 119.73912 276.68931 L 113.57820 278.99361 M 109.39406 271.82869 L 112.13420 277.42623 L 118.29513 275.12193 L 109.39406 271.82869 M 110.26664 270.40626 L 119.16770 273.69950 L 119.11479 266.04679 L 110.26664 270.40626 M 100.10523 275.16014 L 109.86047 277.43101 L 107.12033 271.83346 L 100.10523 275.16014 M 98.73097 277.16237 L 96.12624 287.85125 L 108.48621 279.43323 L 98.73097 277.16237 M 85.90576 276.69347 L 93.30368 287.50878 L 95.90841 276.81990 L 85.90576 276.69347 M 67.54060 265.87896 L 81.58812 233.37244 L 54.42385 259.64487 L 67.54060 265.87896 M 52.19254 273.28818 L 54.91697 278.99055 L 64.32922 272.46357 L 52.19254 273.28818 M 54.70320 282.19505 L 52.53972 288.67933 L 62.05812 285.91287 L 54.70320 282.19505 M 51.00330 290.04484 L 35.09926 289.55611 L 67.83424 290.84136 L 51.00330 290.04484 M 42.13625 287.26174 L 50.04949 288.84794 L 52.21297 282.36366 L 42.13625 287.26174 M 39.55518 288.11825 L 31.56437 289.21572 L 47.46841 289.70445 L 39.55518 288.11825 M 31.44178 280.20280 L 38.72106 285.87552 L 40.08399 278.53281 L 31.44178 280.20280 M 31.18396 278.34442 L 39.82617 276.67442 L 36.65849 271.00842 L 31.18396 278.34442 M 38.74871 270.30446 L 41.91639 275.97046 L 47.90576 272.71271 L 38.74871 270.30446 M 43.61375 277.12912 L 52.32754 279.57375 L 49.60311 273.87137 L 43.61375 277.12912 M 31.14992 263.90750 L 26.00623 268.90370 L 35.11916 268.54091 L 31.14992 263.90750 M 23.68590 262.27866 L 24.57708 268.12092 L 29.72076 263.12472 L 23.68590 262.27866 M 22.94277 257.11040 L 23.63565 251.34903 L 23.97404 233.38227 L 22.94277 257.11040 M 24.35045 254.85963 L 23.65757 260.62100 L 29.69243 261.46706 L 24.35045 254.85963 M 26.08793 243.64480 L 24.68136 251.42852 L 30.24028 247.56326 L 26.08793 243.64480 M 32.09439 237.27045 L 32.40603 246.10213 L 38.16664 244.65270 L 32.09439 237.27045 M 32.47998 235.27011 L 38.55223 242.65235 L 35.49073 230.09936 L 32.47998 235.27011 M 30.91124 233.46267 L 33.92199 228.29193 L 26.00235 228.19285 L 30.91124 233.46267 M 24.27396 231.44726 L 23.93557 249.41402 L 25.34214 241.63030 L 24.27396 231.44726 M 40.63858 220.71133 L 40.67717 226.48360 L 77.07159 224.66923 L 40.63858 220.71133 M 36.53537 212.58685 L 51.78146 183.31440 L 29.03835 194.71811 L 36.53537 212.58685 M 25.73447 199.71035 L 25.35043 223.25227 L 33.23149 217.57908 L 25.73447 199.71035 M 29.75298 190.28056 L 52.49609 178.87685 L 42.25242 177.08644 L 29.75298 190.28056 M 36.23894 170.78075 L 27.72084 189.26855 L 40.22027 176.07443 L 36.23894 170.78075 M 31.07780 163.52750 L 36.38971 166.06500 L 38.22018 159.37381 L 31.07780 163.52750 M 23.99324 162.14808 L 25.02847 187.21056 L 28.23467 166.18525 L 23.99324 162.14808 M 23.48035 168.51482 L 24.13154 217.11924 L 24.51558 193.57731 L 23.48035 168.51482 M 24.37253 150.30618 L 24.22313 156.17936 L 30.95961 149.37122 L 24.37253 150.30618 M 24.90667 142.70394 L 24.45797 148.62175 L 31.04506 147.68680 L 24.90667 142.70394 M 26.27141 141.82891 L 32.40980 146.81176 L 35.37587 141.62150 L 26.27141 141.82891 M 24.88871 132.42793 L 25.00631 139.34181 L 31.51105 133.62147 L 24.88871 132.42793 M 23.86033 130.45340 L 23.73274 111.90743 L 23.52923 143.28510 L 23.86033 130.45340 M 32.74576 124.91315 L 34.20070 131.64435 L 41.35610 129.06255 L 32.74576 124.91315 M 34.77994 133.39352 L 37.37965 138.90645 L 41.93534 130.81171 L 34.77994 133.39352 M 43.30013 131.54214 L 38.74445 139.63687 L 45.69830 139.23694 L 43.30013 131.54214 M 45.51083 130.87538 L 47.90899 138.57018 L 56.43002 134.30281 L 45.51083 130.87538 M 55.81757 125.05457 L 59.66754 132.45655 L 66.73993 127.77459 L 55.81757 125.05457 M 52.12076 117.32481 L 54.58583 122.37174 L 63.20111 118.76081 L 52.12076 117.32481 M 41.86891 114.32811 L 43.96644 126.28901 L 48.57059 117.26755 L 41.86891 114.32811 M 39.98113 115.02412 L 33.46832 122.83562 L 42.07866 126.98502 L 39.98113 115.02412 M 26.18685 107.37622 L 31.48184 120.38452 L 37.99465 112.57302 L 26.18685 107.37622 M 44.54671 97.77059 L 27.81996 104.54947 L 39.62776 109.74628 L 44.54671 97.77059 M 31.41632 80.23670 L 26.79353 100.86078 L 43.52028 94.08189 L 31.41632 80.23670 M 28.70747 60.17067 L 23.42619 55.85542 L 23.70615 65.11016 L 28.70747 60.17067 M 25.45368 42.36882 L 23.50961 51.92553 L 27.71068 47.54302 L 25.45368 42.36882 M 24.88464 40.50844 L 23.15840 32.65999 L 22.94057 50.06515 L 24.88464 40.50844 M 33.57189 42.68970 L 29.38561 48.12254 L 30.46582 56.82030 L 33.57189 42.68970 M 32.30526 33.02835 L 27.07642 39.32757 L 33.51970 39.06893 L 32.30526 33.02835 M 33.63526 31.34265 L 34.84970 37.38323 L 37.71644 25.84193 L 33.63526 31.34265 M 36.54937 24.75767 L 25.51310 28.70915 L 32.46818 30.25839 L 36.54937 24.75767 M 42.76072 28.09916 L 39.89398 39.64046 L 73.98945 49.40054 L 42.76072 28.09916 M 52.22947 26.68418 L 83.45821 47.98555 L 115.64402 28.32059 L 52.22947 26.68418 M 24.18310 30.39486 L 25.90934 38.24331 L 31.13818 31.94410 L 24.18310 30.39486 M 77.43429 62.42015 L 52.45652 91.29758 L 61.20173 93.61858 L 77.43429 62.42015 M 79.77509 62.99756 L 63.54253 94.19599 L 71.18293 95.91686 L 79.77509 62.99756 M 91.08897 59.79272 L 112.18001 87.77577 L 124.37035 73.49349 L 91.08897 59.79272 M 87.70857 99.20090 L 107.59729 90.98920 L 86.50625 63.00614 L 87.70857 99.20090 M 93.48497 109.58933 L 98.31685 105.37690 L 87.45282 105.97544 L 93.48497 109.58933 M 100.60328 105.78915 L 95.77140 110.00158 L 105.74427 109.27342 L 100.60328 105.78915 M 100.29636 103.68753 L 109.32105 96.07437 L 89.43233 104.28607 L 100.29636 103.68753 M 107.78697 111.75445 L 104.57854 118.52760 L 110.18047 119.59239 L 107.78697 111.75445 M 116.49339 105.37278 L 117.06668 111.08258 L 122.46521 107.31479 L 116.49339 105.37278 M 123.18064 108.82890 L 117.78211 112.59668 L 122.21684 117.48561 L 123.18064 108.82890 M 125.40406 98.38067 L 117.53557 103.78505 L 123.50739 105.72705 L 125.40406 98.38067 M 121.79724 90.64882 L 115.66266 93.65829 L 125.00594 95.58011 L 121.79724 90.64882 M 114.99698 95.13482 L 116.47177 102.46102 L 124.34026 97.05664 L 114.99698 95.13482 M 128.25973 77.06115 L 116.06939 91.34342 L 122.20397 88.33395 L 128.25973 77.06115 M 164.33842 76.00139 L 167.92129 85.29274 L 171.74388 77.19155 L 164.33842 76.00139 M 165.62139 43.98507 L 150.57363 45.05420 L 166.44113 50.90091 L 165.62139 43.98507 M 213.85388 50.37735 L 186.48290 44.00311 L 188.36712 52.98685 L 213.85388 50.37735 M 214.92835 55.58408 L 190.95648 66.44282 L 193.56375 77.40767 L 214.92835 55.58408 M 229.87773 24.68043 L 162.60333 23.61910 L 183.66584 25.66777 L 229.87773 24.68043 M 237.01985 27.45447 L 190.80796 28.44180 L 219.74030 45.81138 L 237.01985 27.45447 M 248.20727 25.68351 L 254.10502 32.72110 L 257.13002 25.59351 L 248.20727 25.68351 M 260.63059 42.35499 L 255.62779 37.18858 L 258.41168 49.12940 L 260.63059 42.35499 M 266.19613 53.24313 L 261.95163 44.36181 L 259.73272 51.13622 L 266.19613 53.24313 M 272.54726 53.22158 L 285.38652 60.84960 L 293.45799 34.45443 L 272.54726 53.22158 M 271.92885 62.09889 L 267.60953 56.62055 L 262.47611 63.79587 L 271.92885 62.09889 M 277.19673 73.71093 L 273.71592 65.26172 L 268.97253 75.17096 L 277.19673 73.71093 M 277.31979 84.82893 L 268.31546 78.65761 L 267.67917 85.52350 L 277.31979 84.82893 M 278.22251 86.77520 L 268.58189 87.46977 L 275.53726 94.22778 L 278.22251 86.77520 M 283.32483 92.42044 L 280.06538 87.39403 L 277.38013 94.84662 L 283.32483 92.42044 M 274.15933 95.25847 L 267.20396 88.50046 L 267.19909 95.02065 L 274.15933 95.25847 M 274.68277 98.53335 L 267.07888 104.83121 L 272.03508 108.16390 L 274.68277 98.53335 M 280.27483 102.80213 L 276.33226 98.27972 L 273.68457 107.91026 L 280.27483 102.80213 M 293.64217 100.69489 L 283.98304 103.03686 L 289.74854 107.60767 L 293.64217 100.69489 M 299.20691 108.99333 L 295.54515 101.43945 L 291.65152 108.35223 L 299.20691 108.99333 M 300.93382 108.37966 L 305.46681 103.44289 L 297.27206 100.82578 L 300.93382 108.37966 M 307.93757 111.70586 L 306.80000 104.80290 L 302.26701 109.73967 L 307.93757 111.70586 M 309.56200 111.55314 L 315.26243 108.51793 L 308.42443 104.65019 L 309.56200 111.55314 M 310.25076 116.41942 L 304.23372 123.26200 L 325.65192 133.70256 L 310.25076 116.41942 M 306.35997 101.97024 L 308.07911 96.59840 L 298.16522 99.35313 L 306.35997 101.97024 M 306.37838 94.56007 L 292.75413 85.66353 L 296.46449 97.31479 L 306.37838 94.56007 M 316.14705 99.57928 L 310.32684 96.62667 L 308.60770 101.99851 L 316.14705 99.57928 M 328.63342 94.52549 L 320.26864 92.12930 L 319.47677 98.24924 L 328.63342 94.52549 M 329.42239 93.12005 L 325.78851 87.00571 L 321.05761 90.72386 L 329.42239 93.12005 M 324.98283 83.70482 L 329.87957 77.86839 L 313.34938 76.26758 L 324.98283 83.70482 M 330.22759 75.85702 L 327.76701 67.61389 L 313.69740 74.25621 L 330.22759 75.85702 M 326.74466 65.57128 L 322.04886 59.51618 L 312.67506 72.21361 L 326.74466 65.57128 M 316.54031 54.84107 L 298.95712 34.65687 L 290.88565 61.05204 L 316.54031 54.84107 M 305.09534 74.82496 L 288.81448 68.33850 L 291.76157 80.25116 L 305.09534 74.82496 M 290.24400 85.39898 L 286.29737 92.44361 L 293.95437 97.05023 L 290.24400 85.39898 M 264.88107 85.00850 L 265.51736 78.14261 L 254.93501 80.70893 L 264.88107 85.00850 M 263.75144 86.75480 L 253.80537 82.45522 L 256.48030 92.11296 L 263.75144 86.75480 M 265.10833 97.71829 L 258.08183 103.78372 L 264.46469 104.25396 L 265.10833 97.71829 M 255.06062 95.96959 L 249.47934 100.72266 L 255.30038 103.19706 L 255.06062 95.96959 M 256.91931 105.47658 L 255.80814 111.26117 L 263.30217 105.94682 L 256.91931 105.47658 M 253.05965 112.01548 L 248.34977 103.75650 L 247.13524 114.45569 L 253.05965 112.01548 M 244.63368 100.69380 L 241.64539 95.29621 L 225.10465 103.61069 L 244.63368 100.69380 M 213.98470 103.59378 L 192.11177 94.97377 L 194.08773 100.86399 L 213.98470 103.59378 M 232.31827 156.01503 L 232.00521 149.30586 L 225.53322 155.01116 L 232.31827 156.01503 M 227.13938 165.45711 L 231.71005 158.03393 L 224.92499 157.03007 L 227.13938 165.45711 M 228.48206 166.47851 L 235.66639 165.20131 L 233.05272 159.05534 L 228.48206 166.47851 M 301.88438 178.96717 L 287.27408 163.76699 L 275.87838 181.01579 L 301.88438 178.96717 M 309.09609 178.96368 L 323.20175 181.43861 L 304.85609 163.31271 L 309.09609 178.96368 M 314.56241 197.89691 L 305.16374 185.78028 L 278.10429 208.20382 L 314.56241 197.89691 M 314.34901 204.21845 L 277.89089 214.52536 L 303.45654 236.35260 L 314.34901 204.21845 M 323.50622 196.56664 L 335.54915 195.08668 L 328.21322 186.92494 L 323.50622 196.56664 M 339.43887 195.48513 L 345.92956 197.14627 L 340.79737 189.93142 L 339.43887 195.48513 M 339.22917 186.35832 L 340.71991 176.72320 L 330.53474 183.75029 L 339.22917 186.35832 M 342.33230 169.43702 L 349.97631 160.77178 L 334.29905 143.76116 L 342.33230 169.43702 M 358.31712 171.38411 L 352.97857 164.22464 L 345.33455 172.88989 L 358.31712 171.38411 M 360.03628 169.41270 L 359.08786 157.11863 L 354.69773 162.25324 L 360.03628 169.41270 M 361.55427 168.67364 L 366.84164 156.34080 L 360.60585 156.37957 L 361.55427 168.67364 M 373.81050 172.15159 L 374.58833 165.32215 L 363.88220 171.42402 L 373.81050 172.15159 M 373.92534 163.45638 L 368.50658 157.22540 L 363.21921 169.55825 L 373.92534 163.45638 M 375.55180 161.59426 L 376.23092 154.66133 L 370.13304 155.36329 L 375.55180 161.59426 M 375.74958 152.80517 L 371.70104 146.74501 L 369.65170 153.50713 L 375.74958 152.80517 M 368.25013 152.77470 L 370.29947 146.01258 L 364.53702 146.94573 L 368.25013 152.77470 M 367.06654 153.74626 L 363.35343 147.91728 L 360.83074 153.78503 L 367.06654 153.74626 M 357.07314 152.09399 L 359.59583 146.22625 L 337.00575 140.21799 L 357.07314 152.09399 M 360.11849 143.67572 L 361.25439 131.68975 L 337.52841 137.66745 L 360.11849 143.67572 M 370.52801 144.09787 L 370.07845 137.45700 L 364.76556 145.03101 L 370.52801 144.09787 M 380.58611 138.14197 L 372.05602 136.59587 L 372.50558 143.23674 L 380.58611 138.14197 M 380.91366 136.45494 L 375.12605 129.74052 L 372.38358 134.90884 L 380.91366 136.45494 M 375.05733 124.83785 L 380.36161 120.44837 L 372.31716 106.79141 L 375.05733 124.83785 M 381.75149 119.14325 L 386.17634 114.39689 L 373.70704 105.48629 L 381.75149 119.14325 M 387.39459 117.93415 L 382.96974 122.68052 L 383.45308 133.78442 L 387.39459 117.93415 M 387.30150 112.33570 L 390.75279 102.65375 L 374.83220 103.42510 L 387.30150 112.33570 M 389.41714 98.66596 L 376.61630 80.43338 L 373.49655 99.43731 L 389.41714 98.66596 M 368.17103 98.55241 L 362.73996 81.37489 L 355.36385 89.76037 L 368.17103 98.55241 M 366.63328 100.93282 L 353.82609 92.14078 L 350.43791 100.41821 L 366.63328 100.93282 M 351.42752 88.27486 L 351.88084 80.46304 L 343.60320 86.09468 L 351.42752 88.27486 M 350.64203 78.75475 L 341.51710 74.60848 L 342.36440 84.38638 L 350.64203 78.75475 M 351.93468 77.10533 L 352.70561 71.19105 L 342.80975 72.95906 L 351.93468 77.10533 M 362.53171 69.94908 L 356.03621 70.74309 L 362.18807 76.08372 L 362.53171 69.94908 M 373.57691 73.09876 L 370.18943 63.30116 L 365.36972 68.79054 L 373.57691 73.09876 M 380.73454 55.08344 L 372.39639 60.62437 L 378.07475 62.71468 L 380.73454 55.08344 M 379.83675 53.57658 L 370.89239 50.65977 L 371.49860 59.11750 L 379.83675 53.57658 M 380.13040 51.67992 L 373.84779 43.94424 L 371.18604 48.76311 L 380.13040 51.67992 M 384.64929 56.31348 L 381.98949 63.94471 L 403.71436 70.46463 L 384.64929 56.31348 M 368.92668 50.72817 L 364.11107 54.12384 L 369.53289 59.18591 L 368.92668 50.72817 M 367.34657 49.35045 L 356.89199 48.16412 L 362.53096 52.74612 L 367.34657 49.35045 M 369.03446 47.34905 L 371.69621 42.53017 L 362.91775 40.36741 L 369.03446 47.34905 M 361.04399 40.88635 L 356.70612 46.68165 L 367.16070 47.86798 L 361.04399 40.88635 M 367.29893 34.32413 L 360.72461 28.26229 L 361.50584 37.33488 L 367.29893 34.32413 M 369.27168 32.83969 L 377.28784 25.45934 L 362.69736 26.77785 L 369.27168 32.83969 M 359.37896 25.88495 L 373.96944 24.56643 L 342.72448 25.69645 L 359.37896 25.88495 M 346.69511 26.27685 L 355.96966 26.09875 L 339.31518 25.91026 L 346.69511 26.27685 M 339.91093 33.59387 L 336.61699 28.26204 L 338.47013 39.94776 L 339.91093 33.59387 M 337.43746 41.47123 L 335.58433 29.78551 L 331.64962 45.78163 L 337.43746 41.47123 M 345.64122 40.52903 L 341.03896 35.12724 L 339.59816 41.48113 L 345.64122 40.52903 M 349.26787 41.57187 L 354.46952 45.89463 L 358.80738 40.09933 L 349.26787 41.57187 M 352.81397 46.89967 L 347.61232 42.57691 L 345.56303 48.13960 L 352.81397 46.89967 M 352.97446 48.36166 L 345.72351 49.60160 L 348.89619 54.27288 L 352.97446 48.36166 M 343.95664 47.65808 L 346.00593 42.09539 L 339.96287 43.04749 L 343.95664 47.65808 M 347.16627 55.40777 L 343.99359 50.73650 L 339.13509 57.44084 L 347.16627 55.40777 M 354.96711 61.22002 L 347.62160 64.73467 L 353.57720 68.51219 L 354.96711 61.22002 M 340.34565 84.25846 L 339.49834 74.48056 L 334.49199 77.73135 L 340.34565 84.25846 M 338.93092 85.55663 L 333.07726 79.02952 L 328.18053 84.86596 L 338.93092 85.55663 M 338.75051 87.26389 L 328.00012 86.57321 L 331.63400 92.68755 L 338.75051 87.26389 M 346.02446 99.96361 L 341.58833 89.50601 L 339.15006 99.47624 L 346.02446 99.96361 M 344.03548 105.55149 L 330.51192 108.42654 L 332.32558 130.84663 L 344.03548 105.55149 M 359.70008 127.21784 L 347.68400 107.90040 L 335.97410 133.19554 L 359.70008 127.21784 M 386.29044 150.17047 L 383.26300 139.95423 L 382.36317 145.97245 L 386.29044 150.17047 M 386.50316 167.69738 L 377.41595 164.85632 L 376.63812 171.68576 L 386.50316 167.69738 M 394.46278 183.18758 L 387.51334 177.26189 L 384.18837 181.95729 L 394.46278 183.18758 M 397.75676 188.90664 L 388.94326 193.95935 L 412.40419 216.73143 L 397.75676 188.90664 M 408.93691 182.50269 L 416.52597 214.54472 L 414.85910 180.68293 L 408.93691 182.50269 M 407.12453 176.74837 L 413.04671 174.92861 L 402.02687 168.51016 L 407.12453 176.74837 M 405.30329 176.73697 L 400.20563 168.49876 L 398.47679 174.83737 L 405.30329 176.73697 M 414.96940 170.56281 L 422.50607 141.82196 L 403.94956 164.14436 L 414.96940 170.56281 M 426.82104 156.82115 L 425.58683 50.72846 L 426.22706 127.69335 L 426.82104 156.82115 M 418.14181 132.88445 L 391.79110 119.20965 L 387.84959 135.05991 L 418.14181 132.88445 M 419.19793 129.23699 L 396.29851 105.88023 L 392.84722 115.56219 L 419.19793 129.23699 M 421.29310 125.07958 L 409.60858 82.30288 L 398.39368 101.72282 L 421.29310 125.07958 M 424.39149 119.19287 L 423.18079 54.62918 L 412.70697 76.41617 L 424.39149 119.19287 M 404.50855 76.36154 L 380.49280 77.54891 L 393.29364 95.78149 L 404.50855 76.36154 M 411.41192 42.91965 L 402.57665 39.75129 L 394.09349 43.52093 L 411.41192 42.91965 M 413.68156 41.86537 L 412.25062 35.08669 L 404.84629 38.69701 L 413.68156 41.86537 M 423.30162 41.43374 L 421.43341 34.72126 L 416.75246 42.12885 L 423.30162 41.43374 M 424.31870 39.56284 L 424.88917 27.16165 L 422.45050 32.85036 L 424.31870 39.56284 M 425.32902 37.34396 L 424.75855 49.74515 L 425.96924 114.30885 L 425.32902 37.34396 M 420.07671 31.90779 L 413.87894 25.70462 L 413.96482 32.53669 L 420.07671 31.90779 M 403.25144 37.07079 L 410.65576 33.46048 L 400.92274 28.85568 L 403.25144 37.07079 M 398.70958 26.42532 L 408.35672 24.19805 L 385.63198 24.45998 L 398.70958 26.42532 M 380.71387 38.84540 L 370.89489 35.91737 L 373.88027 41.09087 L 380.71387 38.84540 M 332.64078 25.54267 L 363.88575 24.41265 L 278.70937 24.65470 L 332.64078 25.54267 M 297.55049 27.44148 L 324.34887 25.92128 L 270.41747 25.03330 L 297.55049 27.44148 M 291.01745 32.09595 L 265.86222 41.98177 L 270.10672 50.86310 L 291.01745 32.09595 M 256.30364 62.32249 L 254.97365 53.04026 L 229.01247 52.41877 L 256.30364 62.32249 M 324.30325 140.75189 L 298.54073 147.79641 L 303.80566 155.32894 L 324.30325 140.75189 M 372.11594 185.43455 L 364.15123 184.21316 L 365.59269 191.43171 L 372.11594 185.43455 M 383.10923 189.86287 L 381.64831 183.57987 L 376.00635 185.18986 L 383.10923 189.86287 M 374.54113 203.85949 L 375.04319 195.36840 L 370.89466 199.56675 L 374.54113 203.85949 M 368.63439 199.59808 L 365.19433 195.23456 L 364.04759 204.27530 L 368.63439 199.59808 M 362.66304 204.08855 L 363.80979 195.04781 L 357.55801 198.10403 L 362.66304 204.08855 M 352.73447 206.01513 L 347.80242 200.14980 L 344.35753 206.43317 L 352.73447 206.01513 M 349.76947 212.94477 L 352.98035 207.61450 L 344.60341 208.03254 L 349.76947 212.94477 M 349.15276 214.63827 L 343.98670 209.72605 L 348.04660 221.16254 L 349.15276 214.63827 M 342.39105 208.72175 L 336.38758 206.60392 L 346.45095 220.15825 L 342.39105 208.72175 M 342.73935 223.82533 L 332.67598 210.27101 L 312.69826 238.05843 L 342.73935 223.82533 M 347.19119 231.78518 L 344.55375 226.51460 L 314.51266 240.74771 L 347.19119 231.78518 M 352.64285 229.53499 L 358.12595 222.74618 L 350.00542 224.26441 L 352.64285 229.53499 M 362.82580 232.51883 L 369.38754 234.75729 L 367.32687 227.39129 L 362.82580 232.51883 M 359.43653 220.10042 L 362.02127 214.89319 L 352.42214 215.09439 L 359.43653 220.10042 M 370.70726 214.31191 L 364.21002 207.93461 L 364.58334 213.45449 L 370.70726 214.31191 M 408.59155 224.31512 L 376.85498 218.28524 L 375.53131 232.83398 L 408.59155 224.31512 M 418.53351 214.34004 L 424.99729 180.86520 L 416.86664 180.47824 L 418.53351 214.34004 M 387.37958 252.98188 L 409.90713 228.65220 L 376.84688 237.17106 L 387.37958 252.98188 M 382.49139 255.57193 L 371.95869 239.76111 L 370.80162 249.37261 L 382.49139 255.57193 M 395.07863 267.17469 L 408.21169 269.13696 L 389.21695 260.81392 L 395.07863 267.17469 M 410.59253 264.75261 L 414.12533 232.09989 L 391.59778 256.42957 L 410.59253 264.75261 M 414.88230 277.09627 L 412.43764 271.82298 L 407.44675 275.06657 L 414.88230 277.09627 M 416.92166 276.61564 L 423.76158 271.22149 L 414.47699 271.34235 L 416.92166 276.61564 M 425.30380 280.57767 L 425.11494 272.37591 L 418.27501 277.77005 L 425.30380 280.57767 M 422.01762 288.85814 L 424.91664 282.63795 L 417.88785 279.83033 L 422.01762 288.85814 M 413.36511 289.22073 L 420.57368 289.68099 L 416.44390 280.65318 L 413.36511 289.22073 M 395.76521 291.45212 L 417.98884 291.03086 L 410.78028 290.57060 L 395.76521 291.45212 M 392.28143 288.51152 L 402.61757 283.30916 L 394.79756 271.82689 L 392.28143 288.51152 M 387.93186 287.86084 L 390.44799 271.17621 L 367.82100 278.10370 L 387.93186 287.86084 M 364.83572 273.01720 L 381.60102 259.72894 L 369.91124 253.52962 L 364.83572 273.01720 M 361.49275 270.27135 L 366.56827 250.78377 L 354.85726 237.76215 L 361.49275 270.27135 M 331.73606 277.31285 L 345.58898 238.13496 L 312.91045 247.09749 L 331.73606 277.31285 M 321.53857 286.20436 L 328.72976 283.32152 L 309.90415 253.10616 L 321.53857 286.20436 M 322.29148 291.43096 L 310.49450 291.33269 L 334.91558 292.13439 L 322.29148 291.43096 M 331.88300 292.11653 L 307.46192 291.31483 L 298.03083 291.28806 L 331.88300 292.11653 M 282.75688 288.41752 L 289.47012 289.97202 L 279.54156 283.16952 L 282.75688 288.41752 M 297.45343 239.19034 L 271.88778 217.36310 L 266.32411 226.92042 L 297.45343 239.19034 M 158.46532 243.54942 L 156.88889 250.86317 L 191.60057 257.26119 L 158.46532 243.54942 M 156.72319 252.89311 L 157.13974 259.78886 L 191.43487 259.29113 L 156.72319 252.89311 M 145.52654 254.74588 L 151.40120 259.22071 L 150.98465 252.32495 L 145.52654 254.74588 M 137.97874 248.94257 L 134.60803 255.98520 L 142.21554 254.01056 L 137.97874 248.94257 M 132.25440 256.97303 L 135.62511 249.93040 L 123.38648 261.91320 L 132.25440 256.97303 M 129.36499 266.52712 L 129.41869 275.63295 L 134.91095 272.00411 L 129.36499 266.52712 M 122.45748 263.63634 L 128.19313 263.71550 L 131.32540 258.69617 L 122.45748 263.63634 M 122.07815 274.40017 L 127.81459 275.93245 L 127.76089 266.82662 L 122.07815 274.40017 M 140.87793 263.56985 L 145.63933 268.27573 L 150.29076 261.97346 L 140.87793 263.56985 M 141.76510 236.53484 L 139.75269 245.29444 L 151.02402 240.62774 L 141.76510 236.53484 M 143.09594 234.68520 L 152.35486 238.77809 L 150.39935 230.49728 L 143.09594 234.68520 M 152.47435 229.99864 L 154.42985 238.27946 L 159.69590 230.69613 L 152.47435 229.99864 M 144.79427 222.12458 L 151.18085 227.00572 L 157.69002 219.91469 L 144.79427 222.12458 M 144.15704 220.51743 L 157.05279 218.30754 L 146.08301 214.14857 L 144.15704 220.51743 M 142.00838 219.18087 L 143.93436 212.81201 L 139.86355 207.61505 L 142.00838 219.18087 M 130.79252 187.71773 L 142.28491 188.66862 L 139.72801 183.69223 L 130.79252 187.71773 M 131.13583 180.92943 L 129.39889 186.75033 L 138.33438 182.72483 L 131.13583 180.92943 M 132.17483 179.19300 L 139.37338 180.98839 L 137.71086 172.85883 L 132.17483 179.19300 M 139.72992 172.90066 L 141.39243 181.03022 L 148.32728 179.52763 L 139.72992 172.90066 M 145.47760 167.93463 L 140.24057 171.26371 L 148.83793 177.89068 L 145.47760 167.93463 M 119.74902 182.27879 L 127.25368 178.09589 L 113.04488 161.69452 L 119.74902 182.27879 M 85.64120 180.33075 L 90.06015 215.96849 L 112.57156 188.55755 L 85.64120 180.33075 M 62.63061 181.90680 L 83.81753 215.13715 L 79.39858 179.49940 L 62.63061 181.90680 M 47.77494 154.14166 L 48.18134 162.84998 L 62.05484 157.86103 L 47.77494 154.14166 M 40.79504 157.97693 L 45.52386 162.86446 L 45.11747 154.15615 L 40.79504 157.97693 M 34.80828 149.63113 L 39.45560 156.32276 L 43.77802 152.50198 L 34.80828 149.63113 M 33.17045 150.77034 L 30.67540 161.61566 L 37.81777 157.46197 L 33.17045 150.77034 M 37.53417 142.74345 L 34.56810 147.93372 L 43.53784 150.80457 L 37.53417 142.74345 M 38.95130 141.94485 L 44.95497 150.00597 L 45.90515 141.54492 L 38.95130 141.94485 M 58.67686 137.14213 L 50.15583 141.40950 L 63.48556 153.58992 L 58.67686 137.14213 M 74.49217 121.20728 L 71.09286 126.66542 L 80.16929 126.32131 L 74.49217 121.20728 M 81.03431 117.58173 L 75.73485 120.07182 L 81.41197 125.18585 L 81.03431 117.58173 M 83.25949 114.53697 L 91.60280 110.73434 L 85.57065 107.12045 L 83.25949 114.53697 M 72.65513 110.56339 L 67.55812 117.57337 L 73.26451 118.44618 L 72.65513 110.56339 M 84.06300 142.73803 L 84.05354 168.60390 L 104.27976 156.24644 L 84.06300 142.73803 M 134.09885 130.56675 L 127.73455 130.44254 L 133.23709 136.86183 L 134.09885 130.56675 M 136.18722 131.09634 L 135.32547 137.39143 L 144.44155 134.67931 L 136.18722 131.09634 M 142.14383 125.44798 L 137.03952 129.60341 L 145.29385 133.18638 L 142.14383 125.44798 M 144.20839 125.45055 L 147.35840 133.18895 L 153.55597 129.62397 L 144.20839 125.45055 M 97.37481 221.97313 L 135.56971 219.71040 L 128.47504 203.21966 L 97.37481 221.97313 M 98.25736 225.62453 L 135.53543 232.43086 L 136.45226 223.36180 L 98.25736 225.62453 M 95.80304 231.13468 L 118.83006 258.68340 L 131.06869 246.70060 L 95.80304 231.13468 M 45.50013 245.14849 L 51.66880 257.05356 L 78.83306 230.78113 L 45.50013 245.14849 M 65.67457 283.84465 L 72.05908 278.66052 L 67.73190 273.59984 L 65.67457 283.84465 M 66.42532 285.81719 L 73.73787 289.38017 L 72.80983 280.63306 L 66.42532 285.81719 M 64.15347 286.95299 L 54.63507 289.71944 L 71.46602 290.51597 L 64.15347 286.95299" fill="none" stroke="black" stroke-width="0.01cm" />
   </g>
</svg>