<?xml version="1.0" standalone="no"?>
  <!DOCTYPE svg PUBLIC "-//W3C//DTD SVG 1.1//EN" 
    "http://www.w3.org/Graphics/SVG/1.1/DTD/svg11.dtd">
  <svg width="15.875cm" height="11.43cm"
       xmlns="http://www.w3.org/2000/svg" version="1.1" viewBox="0 0 562.49999 404.99999">
   <g>
     <path d="M 265.23585 173.08429 L 253.15844 191.48625 L 258.66473 193.61176 L 265.23585 173.08429 M 263.13811 171.90033 L 241.88280 184.14008 L 251.06069 190.30229 L 263.13811 171.90033 M 257.37180 197.37812 L 251.86551 195.25261 L 254.89242 203.21512 L 257.37180 197.37812 M 242.83595 202.57396 L 242.06959 212.25440 L 245.83344 207.22572 L 242.83595 202.57396 M 241.32352 202.74259 L 233.73402 208.57474 L 240.55716 212.42303 L 241.32352 202.74259 M 237.51878 187.75335 L 233.91648 196.10593 L 241.00620 198.61609 L 237.51878 187.75335 M 225.26224 188.59362 L 215.21502 187.13152 L 221.66595 192.53488 L 225.26224 188.59362 M 223.39215 194.97433 L 225.40017 200.55634 L 230.61285 197.12384 L 223.39215 194.97433 M 213.01893 201.40461 L 203.91444 201.68162 L 211.84421 213.52510 L 213.01893 201.40461 M 207.56956 195.35276 L 203.38011 199.41008 L 212.48460 199.13307 L 207.56956 195.35276 M 212.48184 188.30725 L 208.70728 193.96491 L 213.62231 197.74521 L 212.48184 188.30725 M 206.38342 181.13998 L 202.53845 186.73006 L 210.99209 185.65835 L 206.38342 181.13998 M 204.36876 180.89316 L 194.87478 183.68377 L 200.52378 186.48324 L 204.36876 180.89316 M 202.65761 188.18378 L 207.33669 192.76973 L 211.11125 187.11207 L 202.65761 188.18378 M 193.64285 185.24153 L 194.51331 193.35524 L 199.29185 188.04100 L 193.64285 185.24153 M 183.20773 189.51935 L 185.15869 195.11574 L 191.78350 194.61664 L 183.20773 189.51935 M 174.97489 193.78612 L 167.59400 195.62248 L 172.29441 199.74952 L 174.97489 193.78612 M 171.78277 188.83706 L 176.29657 191.78300 L 180.00075 188.50687 L 171.78277 188.83706 M 164.71595 195.99751 L 158.72357 195.21424 L 162.64334 201.69660 L 164.71595 195.99751 M 157.43620 195.98082 L 154.41698 202.13015 L 161.35597 202.46318 L 157.43620 195.98082 M 160.16169 188.19217 L 158.41336 193.52619 L 164.40575 194.30945 L 160.16169 188.19217 M 158.30778 187.54975 L 149.57451 189.17010 L 156.55946 192.88377 L 158.30778 187.54975 M 146.11561 189.96178 L 138.62637 191.16711 L 145.11082 196.39157 L 146.11561 189.96178 M 142.83700 181.73804 L 147.85920 187.77688 L 156.59248 186.15654 L 142.83700 181.73804 M 140.51950 182.14171 L 138.05246 189.38588 L 145.54170 188.18055 L 140.51950 182.14171 M 136.92989 191.80583 L 132.54379 195.07155 L 143.41434 197.03030 L 136.92989 191.80583 M 132.87174 196.67220 L 139.55354 204.61101 L 143.74230 198.63094 L 132.87174 196.67220 M 130.48111 185.16203 L 130.92713 193.58802 L 135.31324 190.32230 L 130.48111 185.16203 M 122.25031 190.53284 L 116.81523 192.78537 L 121.53254 196.03336 L 122.25031 190.53284 M 117.55744 184.75248 L 116.31834 191.37526 L 121.75342 189.12273 L 117.55744 184.75248 M 116.32054 184.52602 L 111.85819 187.31108 L 115.08144 191.14880 L 116.32054 184.52602 M 110.88231 188.50946 L 108.51343 194.11304 L 114.10555 192.34718 L 110.88231 188.50946 M 106.51523 196.00760 L 101.03707 196.41895 L 105.96696 201.48871 L 106.51523 196.00760 M 101.45380 194.83542 L 106.93196 194.42407 L 109.30084 188.82049 L 101.45380 194.83542 M 99.87186 197.16190 L 97.19358 201.95123 L 104.80175 202.23167 L 99.87186 197.16190 M 97.10171 206.64545 L 93.44476 229.01418 L 110.40202 212.62735 L 97.10171 206.64545 M 116.38181 200.14295 L 124.13050 205.15748 L 121.69329 198.47583 L 116.38181 200.14295 M 122.07441 178.24223 L 118.85426 182.56799 L 127.66870 182.59535 L 122.07441 178.24223 M 123.72419 164.83427 L 129.20089 170.19499 L 121.99962 156.66120 L 123.72419 164.83427 M 126.79208 153.48003 L 133.99335 167.01382 L 162.06385 139.38487 L 126.79208 153.48003 M 135.93635 169.68221 L 142.33606 174.82716 L 164.00685 142.05326 L 135.93635 169.68221 M 146.00531 199.40122 L 141.81655 205.38129 L 150.97584 202.83443 L 146.00531 199.40122 M 142.08091 210.31037 L 143.45441 230.83816 L 155.90599 215.75922 L 142.08091 210.31037 M 138.75639 210.42604 L 129.30984 216.68452 L 140.12989 230.95382 L 138.75639 210.42604 M 163.86169 205.86176 L 161.58849 213.52444 L 172.81616 215.17376 L 163.86169 205.86176 M 171.92703 202.97045 L 165.15401 204.54251 L 174.10848 213.85451 L 171.92703 202.97045 M 175.79387 201.44964 L 189.93455 206.90322 L 184.12948 197.80650 L 175.79387 201.44964 M 177.09615 214.40902 L 189.05538 208.97853 L 174.91471 203.52496 L 177.09615 214.40902 M 194.33178 211.21734 L 191.14896 221.28920 L 208.34948 216.79402 L 194.33178 211.21734 M 194.59050 197.11993 L 193.77075 206.71574 L 199.85867 200.44895 L 194.59050 197.11993 M 215.10209 221.78568 L 221.12142 242.10261 L 225.13288 235.32882 L 215.10209 221.78568 M 201.59087 245.15181 L 217.33671 254.69168 L 218.75393 246.85028 L 201.59087 245.15181 M 180.71126 257.20078 L 193.53396 275.57640 L 194.71915 248.62239 L 180.71126 257.20078 M 175.22023 248.91869 L 177.10487 254.29461 L 180.57538 249.12459 L 175.22023 248.91869 M 177.47042 239.39570 L 175.26593 247.05633 L 180.62107 247.26223 L 177.47042 239.39570 M 178.46516 237.96327 L 181.61581 245.82980 L 183.22387 235.59689 L 178.46516 237.96327 M 169.09956 232.84282 L 176.12708 235.95387 L 174.69735 230.49927 L 169.09956 232.84282 M 168.50045 234.10803 L 169.90448 240.62095 L 175.52797 237.21908 L 168.50045 234.10803 M 168.93597 230.79903 L 174.53375 228.45548 L 174.81833 219.60358 L 168.93597 230.79903 M 164.72212 253.41802 L 166.17461 264.16232 L 174.33832 256.46539 L 164.72212 253.41802 M 167.93046 269.33117 L 165.94627 276.39321 L 188.91688 280.00987 L 167.93046 269.33117 M 155.33432 269.63369 L 155.60857 277.06417 L 160.84577 276.09953 L 155.33432 269.63369 M 149.62567 271.81919 L 154.20606 276.52913 L 153.93181 269.09865 L 149.62567 271.81919 M 149.19917 270.00331 L 153.50531 267.28276 L 150.79406 262.00207 L 149.19917 270.00331 M 137.94578 266.32975 L 138.51200 275.65728 L 146.10566 271.41466 L 137.94578 266.32975 M 138.60999 261.01961 L 148.36476 258.10329 L 142.23084 241.17742 L 138.60999 261.01961 M 127.77844 259.39572 L 136.03670 261.18117 L 139.65755 241.33897 L 127.77844 259.39572 M 125.93617 258.29279 L 137.81528 240.23604 L 121.29855 252.35773 L 125.93617 258.29279 M 126.37171 263.15462 L 128.40368 271.41018 L 134.62997 264.94007 L 126.37171 263.15462 M 129.66432 272.99775 L 136.45683 275.85516 L 135.89061 266.52764 L 129.66432 272.99775 M 121.65582 280.50108 L 128.25550 284.01203 L 127.17142 275.45667 L 121.65582 280.50108 M 131.12497 284.85875 L 137.81908 284.41743 L 136.83340 279.16081 L 131.12497 284.85875 M 131.11527 286.48053 L 136.75579 292.13503 L 137.80938 286.03921 L 131.11527 286.48053 M 129.14727 289.33835 L 122.06534 308.90179 L 134.78779 294.99285 L 129.14727 289.33835 M 139.41740 286.38517 L 138.36381 292.48100 L 143.97942 289.24824 L 139.41740 286.38517 M 140.72280 285.37861 L 145.28482 288.24168 L 148.80702 284.42849 L 140.72280 285.37861 M 147.21995 297.15384 L 150.71068 304.04402 L 152.89440 294.39657 L 147.21995 297.15384 M 154.98482 295.50615 L 152.80111 305.15361 L 163.94338 306.03053 L 154.98482 295.50615 M 156.31608 293.97763 L 165.27464 304.50201 L 163.45118 292.92543 L 156.31608 293.97763 M 157.82753 286.60829 L 155.38519 291.74092 L 162.52029 290.68872 L 157.82753 286.60829 M 158.66396 285.03438 L 163.35672 289.11481 L 162.07664 279.14967 L 158.66396 285.03438 M 169.39259 303.44477 L 189.25966 285.51972 L 167.56912 291.86819 L 169.39259 303.44477 M 169.36465 313.35688 L 172.39020 347.94749 L 184.18714 318.64943 L 169.36465 313.35688 M 190.26670 312.22077 L 201.15954 314.44323 L 195.31127 289.00316 L 190.26670 312.22077 M 214.17576 323.92074 L 220.65859 321.99972 L 216.62011 317.58919 L 214.17576 323.92074 M 214.21892 325.99507 L 216.96535 334.18383 L 220.70174 324.07405 L 214.21892 325.99507 M 215.10430 333.78780 L 212.35787 325.59903 L 205.81334 320.90577 L 215.10430 333.78780 M 219.99421 336.85745 L 233.18557 341.93165 L 228.99479 332.20004 L 219.99421 336.85745 M 231.09084 328.13673 L 237.93077 324.06992 L 234.11344 318.14941 L 231.09084 328.13673 M 240.40494 325.56673 L 240.68957 331.94405 L 246.78224 327.81337 L 240.40494 325.56673 M 240.57972 323.89152 L 246.95702 326.13816 L 242.08782 318.54239 L 240.57972 323.89152 M 235.30602 316.80427 L 239.12334 322.72478 L 240.63145 317.37566 L 235.30602 316.80427 M 227.29108 313.42670 L 233.15742 314.91435 L 233.12634 309.66442 L 227.29108 313.42670 M 241.00991 305.03233 L 246.36642 310.85364 L 285.03424 275.79856 L 241.00991 305.03233 M 236.25286 298.93956 L 239.74572 303.54307 L 283.77005 274.30930 L 236.25286 298.93956 M 247.82724 312.77036 L 252.69644 320.36613 L 286.49506 277.71528 L 247.82724 312.77036 M 242.18169 335.09611 L 246.40836 343.34718 L 254.20787 338.40144 L 242.18169 335.09611 M 244.27122 343.93515 L 240.04455 335.68408 L 237.11076 343.10517 L 244.27122 343.93515 M 242.21997 351.59743 L 244.54315 345.92432 L 237.38269 345.09434 L 242.21997 351.59743 M 243.76717 352.30040 L 249.76032 350.71814 L 246.09035 346.62729 L 243.76717 352.30040 M 243.54348 353.81686 L 244.30078 358.75900 L 249.53662 352.23461 L 243.54348 353.81686 M 245.54818 359.19901 L 253.52266 357.33695 L 250.78402 352.67462 L 245.54818 359.19901 M 250.88122 366.05838 L 253.53481 359.00992 L 245.56033 360.87198 L 250.88122 366.05838 M 245.10626 370.76125 L 253.73193 380.90348 L 250.85267 369.58980 L 245.10626 370.76125 M 239.42954 377.54273 L 252.30404 381.89760 L 243.67837 371.75537 L 239.42954 377.54273 M 235.05012 391.09645 L 251.22551 384.31523 L 238.35101 379.96036 L 235.05012 391.09645 M 244.27910 393.42376 L 292.27040 392.80731 L 280.36696 392.41410 L 244.27910 393.42376 M 255.42789 380.56425 L 258.67391 368.04736 L 252.54862 369.25057 L 255.42789 380.56425 M 273.86692 376.91094 L 261.33870 369.00490 L 258.09268 381.52179 L 273.86692 376.91094 M 277.05924 385.10202 L 283.71677 382.05990 L 278.46077 378.75930 L 277.05924 385.10202 M 280.18585 390.81208 L 274.64609 386.77240 L 260.27338 385.04053 L 280.18585 390.81208 M 284.85987 390.97440 L 291.00799 389.38119 L 285.97764 383.89260 L 284.85987 390.97440 M 284.30795 383.54310 L 277.65042 386.58522 L 283.19017 390.62490 L 284.30795 383.54310 M 284.64115 380.31643 L 284.45428 371.15427 L 279.38515 377.01583 L 284.64115 380.31643 M 292.78688 374.49581 L 286.12950 370.83927 L 286.31637 380.00143 L 292.78688 374.49581 M 299.92636 368.19661 L 299.70834 362.26819 L 293.65531 364.87459 L 299.92636 368.19661 M 301.79056 368.53188 L 308.56889 367.55678 L 301.57254 362.60346 L 301.79056 368.53188 M 303.71790 375.90138 L 309.07147 376.32744 L 309.61626 369.90050 L 303.71790 375.90138 M 304.86957 383.55086 L 308.47814 378.03374 L 303.12456 377.60768 L 304.86957 383.55086 M 300.84126 391.02735 L 303.48485 385.71619 L 298.29900 384.10203 L 300.84126 391.02735 M 299.64142 391.50231 L 297.09915 384.57699 L 293.88611 389.51589 L 299.64142 391.50231 M 317.40215 391.30977 L 327.92538 390.80875 L 323.66048 385.81580 L 317.40215 391.30977 M 318.51992 381.24802 L 323.43720 383.18182 L 324.79803 377.16468 L 318.51992 381.24802 M 317.73100 380.10671 L 324.00911 376.02336 L 317.12578 374.05129 L 317.73100 380.10671 M 316.11791 380.26518 L 315.51270 374.20976 L 311.10441 377.29111 L 316.11791 380.26518 M 324.86072 383.38005 L 329.90813 382.83393 L 326.22156 377.36292 L 324.86072 383.38005 M 331.79917 383.98397 L 331.01666 389.52305 L 337.08503 381.57031 L 331.79917 383.98397 M 329.54048 389.94588 L 330.32299 384.40680 L 325.27559 384.95293 L 329.54048 389.94588 M 333.97370 390.12683 L 355.45551 388.81415 L 340.04207 382.17408 L 333.97370 390.12683 M 338.21231 378.29241 L 339.11037 372.16944 L 333.85105 371.83652 L 338.21231 378.29241 M 339.69819 377.80622 L 345.73803 367.94701 L 340.59625 371.68325 L 339.69819 377.80622 M 338.61436 370.43997 L 334.24419 364.45671 L 333.35503 370.10705 L 338.61436 370.43997 M 340.86063 369.51156 L 346.00241 365.77533 L 341.81330 360.43275 L 340.86063 369.51156 M 342.16427 357.28502 L 347.54058 355.05161 L 342.48120 351.90576 L 342.16427 357.28502 M 340.04473 350.85035 L 332.76738 348.90785 L 335.00921 353.93004 L 340.04473 350.85035 M 342.54961 348.73785 L 347.14108 343.39035 L 343.17939 340.43507 L 342.54961 348.73785 M 348.24178 353.51922 L 347.77388 345.02587 L 343.18240 350.37337 L 348.24178 353.51922 M 354.84173 350.43282 L 355.55335 344.96038 L 349.88176 344.08149 L 354.84173 350.43282 M 356.27761 351.04552 L 361.36879 348.98311 L 356.98923 345.57308 L 356.27761 351.04552 M 357.80338 344.42828 L 362.18293 347.83831 L 362.79077 341.88710 L 357.80338 344.42828 M 357.23857 343.21882 L 362.22596 340.67765 L 357.66445 338.16268 L 357.23857 343.21882 M 356.43928 335.73055 L 358.42172 330.53450 L 350.01630 331.47275 L 356.43928 335.73055 M 359.23076 327.57518 L 360.55074 318.34821 L 353.18619 322.22117 L 359.23076 327.57518 M 371.02347 324.12926 L 378.95165 324.68118 L 375.44324 319.28957 L 371.02347 324.12926 M 371.90680 333.74240 L 378.50960 326.48778 L 370.58141 325.93586 L 371.90680 333.74240 M 387.44302 333.43274 L 396.31306 338.89921 L 400.19083 314.60455 L 387.44302 333.43274 M 394.24475 342.53615 L 385.37470 337.06969 L 383.64429 343.70009 L 394.24475 342.53615 M 399.12745 339.66104 L 409.95807 339.52743 L 403.00521 315.36639 L 399.12745 339.66104 M 406.14832 353.87072 L 410.35096 344.34047 L 399.52033 344.47408 L 406.14832 353.87072 M 399.70575 362.40090 L 396.51623 357.97621 L 391.32931 362.10165 L 399.70575 362.40090 M 396.18536 369.14699 L 403.16121 371.60390 L 400.98364 364.69790 L 396.18536 369.14699 M 392.57715 368.35398 L 388.99900 363.60564 L 382.67201 365.55902 L 392.57715 368.35398 M 389.91680 378.88340 L 401.77786 373.37709 L 394.80200 370.92018 L 389.91680 378.88340 M 390.93103 380.43075 L 402.91584 383.29894 L 402.79209 374.92443 L 390.93103 380.43075 M 399.96516 389.90279 L 407.99853 391.32653 L 404.49813 386.17384 L 399.96516 389.90279 M 406.81612 392.59299 L 401.01132 392.29815 L 334.76232 392.22828 L 406.81612 392.59299 M 409.53068 390.85369 L 412.22242 386.12013 L 406.03028 385.70101 L 409.53068 390.85369 M 410.86000 391.63191 L 416.66479 391.92674 L 413.55173 386.89834 L 410.86000 391.63191 M 417.87046 391.17279 L 420.50536 385.60026 L 414.75740 386.14439 L 417.87046 391.17279 M 419.13338 391.77576 L 424.86069 390.96821 L 421.76827 386.20323 L 419.13338 391.77576 M 420.47708 392.48458 L 432.51792 391.87375 L 426.20439 391.67702 L 420.47708 392.48458 M 426.08118 389.88420 L 428.89733 383.10372 L 422.98877 385.11923 L 426.08118 389.88420 M 422.70838 383.15246 L 428.61695 381.13695 L 423.83811 374.15006 L 422.70838 383.15246 M 420.21777 384.03819 L 415.56975 378.67627 L 414.46981 384.58232 L 420.21777 384.03819 M 415.86643 375.52070 L 421.64418 371.88022 L 415.71357 368.34019 L 415.86643 375.52070 M 422.58911 370.25523 L 423.42582 362.52072 L 416.65850 366.71519 L 422.58911 370.25523 M 424.49025 370.10095 L 431.86766 365.48098 L 425.32697 362.36645 L 424.49025 370.10095 M 432.82950 372.07044 L 432.80548 366.69398 L 425.42807 371.31395 L 432.82950 372.07044 M 438.55393 378.88399 L 440.48016 370.81097 L 435.14067 373.36900 L 438.55393 378.88399 M 439.94982 379.04416 L 446.30783 374.65036 L 441.87606 370.97114 L 439.94982 379.04416 M 431.38064 380.85489 L 437.41649 380.13948 L 434.00323 374.62449 L 431.38064 380.85489 M 436.25737 390.80439 L 441.54071 391.42554 L 438.79584 383.11176 L 436.25737 390.80439 M 450.44312 390.25077 L 452.74887 381.18038 L 447.49507 382.72584 L 450.44312 390.25077 M 451.33577 369.34926 L 480.17331 336.63539 L 446.90399 365.67004 L 451.33577 369.34926 M 437.48617 353.88320 L 477.28593 332.92764 L 434.76716 347.76639 L 437.48617 353.88320 M 424.13571 359.15189 L 426.79046 350.88895 L 418.84615 355.76201 L 424.13571 359.15189 M 417.64480 353.97634 L 425.58911 349.10329 L 414.52488 344.86657 L 417.64480 353.97634 M 414.22064 364.70179 L 415.69841 357.11743 L 408.37585 357.53791 L 414.22064 364.70179 M 412.66089 365.41197 L 406.81610 358.24809 L 403.22036 362.79892 L 412.66089 365.41197 M 405.19533 371.34161 L 412.45829 367.04866 L 403.01776 364.43561 L 405.19533 371.34161 M 405.66968 382.92483 L 412.96175 377.43789 L 405.54593 374.55032 L 405.66968 382.92483 M 379.73573 364.17601 L 380.48578 358.88416 L 374.66390 360.62838 L 379.73573 364.17601 M 382.91777 357.98346 L 388.49471 361.32192 L 387.79283 355.37609 L 382.91777 357.98346 M 381.56585 356.93438 L 386.44091 354.32701 L 377.67938 352.92927 L 381.56585 356.93438 M 376.06856 350.71053 L 380.27572 345.56983 L 373.23370 345.72294 L 376.06856 350.71053 M 363.26084 350.93375 L 362.92442 359.60034 L 367.37088 354.57400 L 363.26084 350.93375 M 361.60996 359.37494 L 361.94638 350.70835 L 356.85520 352.77075 L 361.60996 359.37494 M 360.24092 359.97557 L 355.48617 353.37139 L 350.99410 355.51341 L 360.24092 359.97557 M 363.96301 360.71986 L 371.56956 359.88984 L 368.40947 355.69351 L 363.96301 360.71986 M 372.51618 367.10914 L 378.73953 365.20413 L 373.66770 361.65650 L 372.51618 367.10914 M 364.47972 386.55695 L 383.23847 380.41964 L 371.99517 371.56647 L 364.47972 386.55695 M 367.15045 388.76414 L 393.36105 389.22397 L 385.90921 382.62683 L 367.15045 388.76414 M 357.18526 386.26958 L 347.81165 369.77030 L 341.77181 379.62952 L 357.18526 386.26958 M 324.55559 374.84576 L 322.10287 370.68592 L 317.67227 372.87369 L 324.55559 374.84576 M 324.53070 369.18944 L 331.59457 369.95074 L 332.48373 364.30039 L 324.53070 369.18944 M 323.97489 367.96565 L 331.92793 363.07661 L 327.14811 360.16046 L 323.97489 367.96565 M 322.37621 367.83947 L 325.54943 360.03428 L 319.13845 362.06715 L 322.37621 367.83947 M 319.35803 360.27085 L 325.76901 358.23798 L 324.13288 353.46906 L 319.35803 360.27085 M 318.43230 359.24282 L 323.20715 352.44103 L 318.36315 350.01373 L 318.43230 359.24282 M 316.35871 360.28720 L 311.48167 353.23792 L 311.42636 358.61632 L 316.35871 360.28720 M 309.99989 357.53690 L 310.05520 352.15850 L 304.94695 351.65183 L 309.99989 357.53690 M 311.24022 350.13289 L 316.04811 347.95309 L 309.56392 343.00515 L 311.24022 350.13289 M 316.98430 349.97838 L 312.17642 352.15818 L 317.05346 359.20746 L 316.98430 349.97838 M 316.90563 346.58190 L 318.10037 339.16339 L 310.42144 341.63396 L 316.90563 346.58190 M 323.84976 350.71188 L 323.57317 345.40960 L 319.00575 348.28458 L 323.84976 350.71188 M 330.00274 347.93606 L 324.94779 345.36604 L 325.22438 350.66831 L 330.00274 347.93606 M 325.92990 343.28960 L 333.65943 341.80629 L 330.40672 338.11013 L 325.92990 343.28960 M 324.34388 342.85243 L 328.82069 337.67296 L 320.97121 338.30889 L 324.34388 342.85243 M 322.48259 336.72525 L 330.33208 336.08933 L 336.43495 330.18336 L 322.48259 336.72525 M 319.10917 329.70248 L 333.06153 323.16059 L 303.34473 279.90712 L 319.10917 329.70248 M 336.25178 321.58648 L 344.63122 317.10962 L 306.53498 278.33302 L 336.25178 321.58648 M 347.75381 313.67174 L 361.23250 294.08339 L 309.65757 274.89513 L 347.75381 313.67174 M 364.04030 315.82338 L 373.68773 316.76919 L 370.13525 310.30368 L 364.04030 315.82338 M 371.32121 294.99972 L 371.30202 305.19541 L 376.90780 291.61846 L 371.32121 294.99972 M 378.48462 288.00467 L 383.32563 283.48621 L 373.48904 284.18488 L 378.48462 288.00467 M 380.27320 274.25888 L 373.89363 269.56154 L 375.01032 274.25580 L 380.27320 274.25888 M 373.95766 267.27684 L 380.87669 266.13201 L 374.98305 261.82038 L 373.95766 267.27684 M 391.78825 265.96620 L 402.08598 234.39349 L 385.86930 262.93895 L 391.78825 265.96620 M 394.04588 277.57279 L 398.25664 273.06898 L 392.27127 271.88946 L 394.04588 277.57279 M 392.26820 277.80642 L 390.49359 272.12308 L 384.03518 274.93801 L 392.26820 277.80642 M 403.36104 278.44730 L 399.64286 273.88872 L 395.43210 278.39252 L 403.36104 278.44730 M 405.35114 278.23432 L 411.35294 276.68869 L 401.63296 273.67574 L 405.35114 278.23432 M 403.64631 282.03231 L 395.71737 281.97753 L 401.92501 302.56876 L 403.64631 282.03231 M 421.14953 283.55632 L 419.31784 273.07726 L 415.07331 277.21352 L 421.14953 283.55632 M 430.05327 289.96753 L 421.52607 288.42786 L 407.72675 304.16716 L 430.05327 289.96753 M 432.90014 286.89675 L 430.50172 279.60086 L 424.37294 285.35707 L 432.90014 286.89675 M 440.30156 273.78785 L 443.55693 263.21391 L 430.76997 269.86135 L 440.30156 273.78785 M 419.07556 266.39701 L 424.61892 265.87950 L 409.42342 234.76809 L 419.07556 266.39701 M 404.78314 303.26190 L 418.58247 287.52260 L 406.50444 282.72544 L 404.78314 303.26190 M 398.44564 303.94899 L 386.44520 285.95672 L 381.60420 290.47519 L 398.44564 303.94899 M 426.34638 338.87022 L 430.65581 296.27283 L 408.32928 310.47245 L 426.34638 338.87022 M 477.51313 325.96847 L 439.30379 298.20983 L 434.99436 340.80722 L 477.51313 325.96847 M 478.80248 318.65317 L 445.30919 282.28479 L 440.59314 290.89453 L 478.80248 318.65317 M 482.69666 271.99342 L 450.57213 279.92215 L 484.06542 316.29053 L 482.69666 271.99342 M 478.37696 265.28738 L 449.50780 262.64216 L 446.25243 273.21610 L 478.37696 265.28738 M 481.35677 262.38196 L 470.09095 249.97278 L 452.48762 259.73674 L 481.35677 262.38196 M 486.31246 261.16583 L 492.13310 250.00766 L 475.04663 248.75665 L 486.31246 261.16583 M 488.82334 262.59292 L 495.13368 260.17340 L 494.64398 251.43475 L 488.82334 262.59292 M 496.78327 259.38333 L 502.02002 256.27239 L 496.29357 250.64469 L 496.78327 259.38333 M 500.25819 266.63472 L 495.83546 262.07340 L 489.52512 264.49292 L 500.25819 266.63472 M 503.24784 266.28783 L 508.20558 264.82876 L 504.06186 258.61556 L 503.24784 266.28783 M 510.43585 263.37777 L 517.41846 258.92794 L 509.96372 252.91661 L 510.43585 263.37777 M 515.60807 269.70708 L 518.12400 261.02675 L 511.14139 265.47658 L 515.60807 269.70708 M 499.55225 273.30852 L 488.81918 271.16672 L 490.18794 315.46383 L 499.55225 273.30852 M 506.89074 249.62814 L 502.70479 244.46104 L 497.49270 248.24840 L 506.89074 249.62814 M 501.56633 241.34492 L 499.97953 235.34299 L 494.15777 234.48847 L 501.56633 241.34492 M 495.83635 246.53075 L 501.04843 242.74339 L 493.63988 235.88694 L 495.83635 246.53075 M 492.65084 246.89309 L 490.45437 236.24927 L 475.56437 245.64208 L 492.65084 246.89309 M 489.36329 234.05700 L 483.92221 229.35492 L 474.47329 243.44981 L 489.36329 234.05700 M 492.06374 232.14704 L 496.07686 228.17008 L 486.62265 227.44495 L 492.06374 232.14704 M 482.52496 222.45097 L 481.80689 196.10780 L 469.45444 219.26346 L 482.52496 222.45097 M 458.63129 223.52084 L 464.34322 221.82636 L 459.69964 218.10403 L 458.63129 223.52084 M 457.36828 222.32457 L 458.43664 216.90775 L 454.23918 212.25612 L 457.36828 222.32457 M 448.90766 213.15680 L 415.78452 224.11315 L 452.03677 223.22524 L 448.90766 213.15680 M 447.94078 211.14401 L 444.30167 207.12291 L 414.81763 222.10036 L 447.94078 211.14401 M 441.98506 204.61301 L 429.40796 191.06486 L 412.50103 219.59046 L 441.98506 204.61301 M 443.96497 193.53936 L 433.34096 187.80847 L 445.91806 201.35663 L 443.96497 193.53936 M 444.69745 190.51845 L 444.63160 178.16030 L 441.21980 183.81661 L 444.69745 190.51845 M 445.81624 188.96502 L 450.17007 171.38920 L 445.75038 176.60687 L 445.81624 188.96502 M 443.22476 175.00001 L 438.16182 169.99941 L 435.09392 175.89310 L 443.22476 175.00001 M 449.29424 167.40415 L 443.87250 162.08525 L 439.81160 167.62122 L 449.29424 167.40415 M 450.65773 166.62332 L 450.71954 161.37457 L 445.23599 161.30442 L 450.65773 166.62332 M 442.70589 159.27376 L 441.32408 153.43572 L 437.28226 156.28621 L 442.70589 159.27376 M 434.48238 157.15794 L 429.05967 157.48371 L 429.77137 163.07129 L 434.48238 157.15794 M 434.53649 155.47959 L 430.20426 149.64454 L 429.11378 155.80536 L 434.53649 155.47959 M 428.07425 148.36434 L 422.97642 146.73251 L 421.50376 153.03062 L 428.07425 148.36434 M 432.56301 140.15096 L 433.75245 133.16157 L 429.35775 135.87072 L 432.56301 140.15096 M 438.04067 137.16461 L 434.83782 133.32331 L 433.64838 140.31270 L 438.04067 137.16461 M 444.44624 137.33749 L 436.18755 132.95141 L 439.39041 136.79271 L 444.44624 137.33749 M 444.93245 138.57862 L 439.87662 138.03384 L 440.07725 142.88045 L 444.93245 138.57862 M 455.28723 141.22351 L 447.78144 139.02683 L 450.30755 143.72468 L 455.28723 141.22351 M 456.61501 139.53836 L 460.92978 130.24344 L 449.10922 137.34168 L 456.61501 139.53836 M 458.87421 148.34696 L 456.67383 142.38853 L 451.69414 144.88969 L 458.87421 148.34696 M 460.60064 148.28058 L 465.50561 144.35866 L 458.40026 142.32215 L 460.60064 148.28058 M 458.84450 150.63320 L 450.83700 152.10802 L 457.26365 155.74633 L 458.84450 150.63320 M 466.35399 143.09728 L 467.38773 138.18956 L 459.24865 141.06077 L 466.35399 143.09728 M 474.05163 144.64273 L 469.23810 138.63730 L 468.20436 143.54503 L 474.05163 144.64273 M 471.36222 150.49621 L 474.31714 146.12509 L 468.46988 145.02739 L 471.36222 150.49621 M 484.16120 147.95209 L 483.02993 141.16791 L 477.35704 145.41358 L 484.16120 147.95209 M 482.40099 139.57774 L 479.12965 135.23074 L 476.72809 143.82341 L 482.40099 139.57774 M 490.27243 140.01587 L 488.67809 134.06638 L 484.96685 139.02530 L 490.27243 140.01587 M 487.45282 133.30387 L 480.47025 133.91580 L 483.74158 138.26279 L 487.45282 133.30387 M 487.56548 131.98117 L 484.64285 127.68122 L 480.58290 132.59310 L 487.56548 131.98117 M 499.52972 145.46060 L 502.22020 140.82341 L 493.39520 141.48169 L 499.52972 145.46060 M 509.55965 150.10071 L 504.24076 141.90079 L 501.55028 146.53798 L 509.55965 150.10071 M 511.81239 153.21925 L 508.51870 158.60418 L 517.54696 157.90144 L 511.81239 153.21925 M 506.39684 158.23380 L 509.69052 152.84887 L 500.57204 154.93839 L 506.39684 158.23380 M 495.62621 157.64494 L 486.42649 153.80739 L 485.14837 181.63424 L 495.62621 157.64494 M 511.92213 169.68678 L 490.12575 185.61872 L 514.92705 177.62595 L 511.92213 169.68678 M 523.88232 170.11245 L 525.38192 163.76459 L 516.83451 166.42371 L 523.88232 170.11245 M 529.76904 176.03074 L 531.47587 169.50187 L 525.99660 171.81738 L 529.76904 176.03074 M 537.75214 181.47977 L 539.79381 177.09676 L 531.99942 177.94822 L 537.75214 181.47977 M 532.68503 185.44367 L 536.86354 182.52313 L 531.11083 178.99158 L 532.68503 185.44367 M 544.37474 182.37975 L 541.34072 177.65070 L 539.29906 182.03371 L 544.37474 182.37975 M 550.45517 182.81994 L 549.74952 163.19307 L 549.28734 168.20994 L 550.45517 182.81994 M 550.02434 186.17184 L 548.76773 178.62262 L 546.39166 182.94753 L 550.02434 186.17184 M 549.61899 187.71006 L 545.98631 184.48575 L 545.52489 190.92835 L 549.61899 187.71006 M 544.28084 190.41830 L 544.74226 183.97570 L 539.66657 183.62966 L 544.28084 190.41830 M 542.67775 192.40723 L 533.88497 188.53912 L 536.09608 196.96657 L 542.67775 192.40723 M 548.19791 198.00045 L 544.46687 193.58990 L 537.88519 198.14924 L 548.19791 198.00045 M 546.64501 207.38203 L 548.47017 199.72447 L 538.15746 199.87326 L 546.64501 207.38203 M 544.41098 210.48726 L 535.92343 202.97849 L 530.59795 224.56632 L 544.41098 210.48726 M 547.71500 214.51186 L 546.71737 256.91193 L 549.54016 206.85430 L 547.71500 214.51186 M 526.02710 225.70569 L 531.35258 204.11786 L 507.84416 219.60222 L 526.02710 225.70569 M 540.47404 269.16639 L 521.79058 261.48797 L 519.27465 270.16831 L 540.47404 269.16639 M 546.69987 298.98159 L 543.58770 273.85309 L 522.38831 274.85501 L 546.69987 298.98159 M 540.98728 304.75099 L 516.67572 280.62441 L 497.88700 320.00829 L 540.98728 304.75099 M 544.34930 315.83496 L 544.44648 309.15231 L 501.34620 324.40961 L 544.34930 315.83496 M 540.84283 358.92922 L 543.89884 322.05707 L 500.89574 330.63172 L 540.84283 358.92922 M 546.98100 364.60680 L 550.00109 376.05236 L 550.03701 327.73465 L 546.98100 364.60680 M 537.67589 377.20150 L 543.68120 370.03430 L 532.66402 375.43302 L 537.67589 377.20150 M 531.60689 383.78539 L 536.16660 378.92038 L 531.15474 377.15190 L 531.60689 383.78539 M 520.36427 375.04021 L 525.50669 371.62567 L 496.57677 337.92945 L 520.36427 375.04021 M 515.28077 390.55576 L 523.65836 391.56845 L 522.23712 383.10344 L 515.28077 390.55576 M 512.09907 390.53361 L 519.05542 383.08130 L 498.20470 391.39129 L 512.09907 390.53361 M 498.40774 392.60058 L 520.67969 392.75559 L 512.30210 391.74290 L 498.40774 392.60058 M 474.86929 392.42820 L 480.79359 389.81029 L 471.63938 388.51835 L 474.86929 392.42820 M 473.09551 381.96369 L 482.24972 383.25563 L 486.51836 339.99095 L 473.09551 381.96369 M 545.97448 389.86230 L 543.65067 383.63444 L 540.89624 389.05982 L 545.97448 389.86230 M 467.14818 245.97320 L 457.81464 230.38529 L 449.54485 255.73716 L 467.14818 245.97320 M 456.81980 208.70610 L 461.01726 213.35773 L 478.01330 193.92440 L 456.81980 208.70610 M 476.89379 192.68544 L 452.06118 203.44604 L 455.70029 207.46714 L 476.89379 192.68544 M 479.27630 195.12068 L 462.28027 214.55401 L 466.92385 218.27633 L 479.27630 195.12068 M 433.20765 175.69340 L 436.27555 169.79971 L 428.13462 173.40240 L 433.20765 175.69340 M 428.09394 165.96955 L 422.41844 168.54355 L 426.02675 172.18240 L 428.09394 165.96955 M 427.75892 163.67337 L 427.04722 158.08578 L 418.38274 161.97452 L 427.75892 163.67337 M 420.99892 179.32252 L 424.54931 174.45399 L 416.21650 175.63493 L 420.99892 179.32252 M 418.46889 179.87107 L 413.68648 176.18348 L 404.30908 178.84240 L 418.46889 179.87107 M 412.28774 175.62152 L 407.27904 175.37536 L 402.91035 178.28044 L 412.28774 175.62152 M 408.25458 167.44709 L 403.84917 162.22866 L 402.91884 168.10920 L 408.25458 167.44709 M 409.63277 166.77144 L 413.94429 162.70399 L 405.22735 161.55301 L 409.63277 166.77144 M 400.53207 169.03022 L 395.79695 166.02523 L 394.82581 171.93965 L 400.53207 169.03022 M 393.08201 171.40652 L 394.05316 165.49210 L 386.58173 164.76517 L 393.08201 171.40652 M 395.27504 158.88458 L 386.85585 163.19992 L 394.32729 163.92686 L 395.27504 158.88458 M 395.06083 157.50938 L 392.61364 152.92530 L 386.64165 161.82473 L 395.06083 157.50938 M 391.43598 151.83574 L 385.63960 148.79291 L 385.46399 160.73517 L 391.43598 151.83574 M 402.12971 149.58270 L 394.54965 151.39505 L 396.99684 155.97913 L 402.12971 149.58270 M 401.97596 147.74691 L 395.76689 141.29280 L 394.39590 149.55925 L 401.97596 147.74691 M 406.24676 155.26058 L 398.40708 157.53271 L 403.12477 159.69944 L 406.24676 155.26058 M 414.53625 149.68392 L 409.75058 153.75045 L 418.53000 153.95701 L 414.53625 149.68392 M 409.99351 142.16871 L 406.04967 138.19414 L 404.85156 146.58144 L 409.99351 142.16871 M 404.24909 135.86514 L 401.79793 129.99084 L 396.84191 137.79834 L 404.24909 135.86514 M 410.35612 129.69659 L 411.22827 124.29723 L 404.07497 127.80532 L 410.35612 129.69659 M 410.02615 123.27382 L 400.73919 121.50930 L 402.87286 126.78191 L 410.02615 123.27382 M 410.77164 121.69464 L 408.83677 114.14854 L 401.48468 119.93013 L 410.77164 121.69464 M 407.63396 112.58065 L 401.14914 109.15148 L 400.28186 118.36223 L 407.63396 112.58065 M 399.43976 109.46937 L 393.95889 115.12377 L 398.57248 118.68012 L 399.43976 109.46937 M 398.52217 108.15641 L 391.23173 108.17638 L 393.04130 113.81080 L 398.52217 108.15641 M 391.93834 101.63659 L 391.09386 106.65461 L 398.38430 106.63463 L 391.93834 101.63659 M 388.44142 107.30447 L 382.41944 103.89318 L 384.03121 110.22686 L 388.44142 107.30447 M 379.73603 102.77320 L 372.57954 101.89846 L 375.74240 105.55298 L 379.73603 102.77320 M 374.13943 106.29300 L 370.97657 102.63848 L 366.91228 108.69331 L 374.13943 106.29300 M 372.10811 114.99843 L 367.68669 120.04478 L 372.12820 122.85802 L 372.10811 114.99843 M 376.76509 118.50975 L 373.24291 114.80655 L 373.26300 122.66614 L 376.76509 118.50975 M 378.09342 119.35401 L 374.59133 123.51040 L 383.86952 121.56067 L 378.09342 119.35401 M 384.95611 120.27731 L 383.28401 113.24356 L 379.18000 118.07066 L 384.95611 120.27731 M 391.87251 132.01837 L 395.29483 137.31749 L 400.25086 129.50999 L 391.87251 132.01837 M 390.14060 133.87996 L 386.39555 144.40270 L 393.56292 139.17908 L 390.14060 133.87996 M 388.22945 133.83017 L 378.27378 138.78070 L 384.48441 144.35290 L 388.22945 133.83017 M 393.85597 141.11702 L 386.68860 146.34064 L 392.48498 149.38347 L 393.85597 141.11702 M 382.16920 145.95564 L 375.95856 140.38343 L 369.70774 146.65201 L 382.16920 145.95564 M 374.55535 136.53958 L 372.31624 126.52315 L 366.93181 131.48982 L 374.55535 136.53958 M 363.41040 131.64640 L 356.47169 129.31484 L 358.70715 135.15719 L 363.41040 131.64640 M 363.45423 130.02340 L 359.05784 122.17316 L 356.51552 127.69183 L 363.45423 130.02340 M 356.57219 136.91020 L 351.50540 136.15712 L 349.16203 140.58126 L 356.57219 136.91020 M 349.85255 136.00268 L 343.34936 135.67472 L 347.50918 140.42683 L 349.85255 136.00268 M 346.10445 140.90984 L 341.94463 136.15772 L 338.61470 139.86673 L 346.10445 140.90984 M 340.36269 134.16630 L 336.40657 129.02965 L 334.07517 133.82410 L 340.36269 134.16630 M 337.12222 139.13897 L 340.45215 135.42996 L 334.16463 135.08776 L 337.12222 139.13897 M 325.52987 140.03600 L 320.12809 138.86043 L 322.74069 144.04090 L 325.52987 140.03600 M 321.52090 144.59420 L 318.90829 139.41373 L 315.77152 144.46241 L 321.52090 144.59420 M 321.86642 146.11069 L 316.11704 145.97889 L 321.67248 151.54559 L 321.86642 146.11069 M 313.38657 145.60128 L 307.91781 144.46344 L 311.04684 149.79434 L 313.38657 145.60128 M 306.27831 142.09320 L 308.03761 135.56159 L 301.64036 138.50188 L 306.27831 142.09320 M 306.02779 132.50509 L 290.19978 117.64119 L 299.63055 135.44538 L 306.02779 132.50509 M 318.04165 136.71539 L 318.29721 130.67692 L 311.19541 134.09461 L 318.04165 136.71539 M 317.55703 138.29926 L 310.71079 135.67849 L 314.42026 143.34795 L 317.55703 138.29926 M 325.90701 130.26067 L 320.13616 130.19767 L 319.88060 136.23614 L 325.90701 130.26067 M 334.91807 126.93984 L 332.13078 120.97868 L 328.91057 128.20341 L 334.91807 126.93984 M 330.26926 117.96096 L 326.37141 110.82558 L 320.70351 117.15820 L 330.26926 117.96096 M 334.82620 110.98357 L 333.18007 106.15260 L 328.26402 108.82747 L 334.82620 110.98357 M 341.95875 114.85858 L 336.41077 112.96374 L 333.74644 117.94302 L 341.95875 114.85858 M 342.76764 116.05770 L 334.55533 119.14214 L 342.88190 122.55665 L 342.76764 116.05770 M 350.03013 119.55038 L 352.04598 115.12375 L 345.50530 115.27718 L 350.03013 119.55038 M 357.40007 119.73692 L 353.53283 115.68122 L 351.51698 120.10785 L 357.40007 119.73692 M 357.58934 121.10469 L 351.70625 121.47562 L 355.04702 126.62336 L 357.58934 121.10469 M 353.64928 128.45675 L 345.89792 125.53475 L 350.81796 133.54601 L 353.64928 128.45675 M 364.97296 146.67153 L 358.89700 138.86397 L 356.61773 147.65078 L 364.97296 146.67153 M 351.15643 155.62330 L 346.23602 150.08082 L 345.65343 155.94968 L 351.15643 155.62330 M 350.86982 157.20780 L 345.36681 157.53419 L 343.94310 162.75687 L 350.86982 157.20780 M 344.16669 155.16134 L 344.74929 149.29248 L 339.26256 149.31656 L 344.16669 155.16134 M 343.32765 156.21404 L 338.42352 150.36926 L 338.03693 157.71408 L 343.32765 156.21404 M 336.62104 156.81345 L 337.00763 149.46864 L 332.00054 149.00902 L 336.62104 156.81345 M 335.79450 157.87423 L 331.17399 150.06980 L 330.39525 157.95484 L 335.79450 157.87423 M 328.11068 158.90702 L 323.15869 154.72414 L 323.24872 161.78950 L 328.11068 158.90702 M 321.70247 155.05097 L 316.46090 161.52168 L 321.79249 162.11633 L 321.70247 155.05097 M 320.97719 164.03801 L 315.64560 163.44335 L 315.18003 170.42438 L 320.97719 164.03801 M 314.12813 163.22818 L 308.83745 162.31666 L 313.66257 170.20921 L 314.12813 163.22818 M 306.44068 162.08305 L 301.27851 161.05640 L 304.94122 170.27857 L 306.44068 162.08305 M 306.34661 160.09173 L 304.18868 154.34799 L 301.18444 159.06508 L 306.34661 160.09173 M 299.15229 160.20794 L 294.91220 156.15316 L 297.33380 168.57229 L 299.15229 160.20794 M 302.84550 153.62208 L 295.60116 154.28438 L 299.84126 158.33916 L 302.84550 153.62208 M 303.69927 151.34149 L 305.36525 144.82150 L 297.76116 147.27674 L 303.69927 151.34149 M 288.93864 153.59429 L 272.02785 142.54986 L 270.69622 163.20053 L 288.93864 153.59429 M 288.03110 142.60182 L 274.19471 139.97502 L 291.10550 151.01945 L 288.03110 142.60182 M 287.29419 138.51928 L 285.21019 118.35911 L 273.45780 135.89247 L 287.29419 138.51928 M 282.51897 117.27546 L 265.76443 129.85008 L 270.76658 134.80882 L 282.51897 117.27546 M 281.37259 113.92347 L 261.59558 107.99289 L 264.61806 126.49809 L 281.37259 113.92347 M 253.67962 106.24434 L 232.56818 105.66557 L 242.17888 119.01902 L 253.67962 106.24434 M 225.16063 102.87782 L 211.28673 96.80698 L 217.90376 103.36663 L 225.16063 102.87782 M 207.75704 85.09694 L 211.35122 89.70492 L 235.88771 57.22900 L 207.75704 85.09694 M 202.97479 88.89656 L 197.62971 87.62599 L 206.56897 93.50455 L 202.97479 88.89656 M 196.14565 80.86180 L 196.32680 86.04565 L 201.67187 87.31622 L 196.14565 80.86180 M 194.26663 78.69668 L 191.67658 73.93794 L 189.41091 79.93789 L 194.26663 78.69668 M 190.48501 73.19823 L 184.73403 72.77902 L 188.21934 79.19818 L 190.48501 73.19823 M 183.02445 73.25624 L 176.80835 77.01599 L 186.50975 79.67541 L 183.02445 73.25624 M 188.13998 64.03847 L 184.72411 70.88406 L 190.47509 71.30326 L 188.13998 64.03847 M 187.69209 62.02565 L 186.89192 55.20071 L 184.27622 68.87124 L 187.69209 62.02565 M 183.11850 34.31296 L 151.59938 42.55432 L 182.75298 49.19742 L 183.11850 34.31296 M 170.73731 16.95507 L 119.28458 15.66624 L 143.17165 36.89997 L 170.73731 16.95507 M 199.58820 20.57204 L 194.03988 31.24455 L 233.05657 43.56397 L 199.58820 20.57204 M 232.21174 47.21497 L 193.19505 34.89554 L 192.82953 49.78000 L 232.21174 47.21497 M 232.27383 50.31631 L 192.89162 52.88135 L 193.69179 59.70628 L 232.27383 50.31631 M 232.72173 52.32913 L 194.13969 61.71910 L 196.47479 68.98390 L 232.72173 52.32913 M 243.38105 59.70449 L 232.71845 98.25126 L 253.82989 98.83002 L 243.38105 59.70449 M 267.49658 12.14576 L 193.89724 14.15078 L 203.39902 15.18182 L 267.49658 12.14576 M 273.63518 15.57761 L 209.53761 18.61368 L 243.00599 41.60560 L 273.63518 15.57761 M 303.96341 13.02609 L 290.19561 12.33368 L 297.62410 17.99780 L 303.96341 13.02609 M 306.76296 13.07312 L 300.42365 18.04483 L 312.59202 12.70993 L 306.76296 13.07312 M 330.04761 36.51054 L 302.48449 24.81003 L 307.85493 50.15927 L 330.04761 36.51054 M 332.39391 41.23522 L 310.20122 54.88395 L 321.25484 62.60752 L 332.39391 41.23522 M 332.31021 67.18003 L 335.15753 42.77223 L 324.01847 64.14453 L 332.31021 67.18003 M 341.10222 71.66656 L 348.26816 67.91650 L 335.66514 70.80962 L 341.10222 71.66656 M 347.81822 74.91212 L 349.78730 68.42931 L 342.62135 72.17937 L 347.81822 74.91212 M 349.04383 77.25188 L 349.38178 83.54137 L 354.05736 78.12514 L 349.04383 77.25188 M 347.61051 86.71353 L 342.25092 89.18209 L 344.90881 94.74441 L 347.61051 86.71353 M 348.86341 87.33033 L 346.16171 95.36121 L 352.27410 94.11645 L 348.86341 87.33033 M 352.51143 96.13168 L 346.39905 97.37644 L 350.76210 103.45213 L 352.51143 96.13168 M 358.39479 90.53870 L 350.39254 86.72751 L 353.80323 93.51364 L 358.39479 90.53870 M 360.33339 84.81887 L 360.95895 89.89275 L 366.93984 89.60874 L 360.33339 84.81887 M 364.61083 79.98249 L 360.78987 83.58009 L 367.39632 88.36996 L 364.61083 79.98249 M 363.28117 78.70486 L 356.75912 78.14893 L 359.46022 82.30246 L 363.28117 78.70486 M 359.22328 72.59175 L 352.48923 68.59002 L 355.53369 75.94609 L 359.22328 72.59175 M 364.56829 67.13140 L 361.01285 61.51675 L 361.17419 70.82642 L 364.56829 67.13140 M 368.74588 73.16601 L 362.07062 73.23324 L 364.90308 77.14351 L 368.74588 73.16601 M 373.37753 65.40064 L 371.27270 60.35726 L 367.06420 66.39971 L 373.37753 65.40064 M 369.86287 59.69789 L 362.09894 60.12568 L 365.65438 65.74034 L 369.86287 59.69789 M 369.87162 58.16988 L 365.72435 53.51629 L 362.10768 58.59767 L 369.87162 58.16988 M 378.39014 53.96992 L 374.91427 50.22962 L 372.70189 57.29050 L 378.39014 53.96992 M 373.43153 48.15993 L 370.67545 42.06598 L 367.07187 50.56722 L 373.43153 48.15993 M 381.08216 40.17454 L 372.42673 40.76690 L 375.18281 46.86085 L 381.08216 40.17454 M 389.48343 39.45203 L 387.90352 34.21073 L 384.39076 38.62287 L 389.48343 39.45203 M 390.76941 41.87323 L 387.82499 46.29169 L 396.04308 48.33275 L 390.76941 41.87323 M 387.71332 47.56738 L 389.87607 52.07875 L 395.93141 49.60844 L 387.71332 47.56738 M 387.95909 53.87285 L 381.22461 54.54046 L 385.16730 58.78219 L 387.95909 53.87285 M 383.69332 60.07242 L 379.75062 55.83069 L 376.16720 64.19466 L 383.69332 60.07242 M 385.35670 66.31232 L 384.39408 61.38262 L 376.86796 65.50486 L 385.35670 66.31232 M 379.32812 72.90652 L 374.79460 67.42278 L 371.76243 72.04963 L 379.32812 72.90652 M 372.56568 81.39463 L 370.05776 74.18619 L 366.21496 78.16369 L 372.56568 81.39463 M 372.41464 83.16105 L 366.06392 79.93011 L 368.84942 88.31758 L 372.41464 83.16105 M 385.60234 87.20569 L 384.48130 81.82445 L 380.58596 87.86267 L 385.60234 87.20569 M 385.37049 93.80307 L 385.71349 88.70302 L 380.69711 89.36000 L 385.37049 93.80307 M 384.54189 95.93160 L 377.67340 96.15392 L 381.27974 101.06587 L 384.54189 95.93160 M 386.03800 96.40377 L 382.77585 101.53805 L 389.64230 99.93132 L 386.03800 96.40377 M 394.73179 90.70438 L 394.15149 83.56029 L 388.24856 87.71431 L 394.73179 90.70438 M 399.00696 98.28963 L 395.74639 93.62400 L 392.52447 99.26153 L 399.00696 98.28963 M 412.29561 101.40168 L 401.88136 99.88660 L 401.84483 105.85653 L 412.29561 101.40168 M 419.36447 112.78714 L 411.07175 113.25567 L 413.00662 120.80177 L 419.36447 112.78714 M 417.08057 131.12206 L 412.85397 124.71182 L 411.98182 130.11118 L 417.08057 131.12206 M 426.67088 134.24206 L 422.36426 126.83741 L 419.76939 131.81722 L 426.67088 134.24206 M 434.40049 129.25436 L 442.05389 116.29792 L 425.69916 124.55886 L 434.40049 129.25436 M 444.47675 117.59529 L 436.82335 130.55173 L 445.08203 134.93781 L 444.47675 117.59529 M 440.74461 114.27784 L 423.92627 113.09371 L 424.38988 122.53878 L 440.74461 114.27784 M 441.41607 110.03829 L 429.76155 88.62240 L 424.59772 108.85417 L 441.41607 110.03829 M 459.77106 127.45212 L 447.34521 117.20784 L 447.95049 134.55036 L 459.77106 127.45212 M 505.98386 125.99610 L 497.31207 96.48175 L 498.95509 126.28548 L 505.98386 125.99610 M 515.92031 121.03934 L 499.43273 95.82598 L 508.10451 125.34033 L 515.92031 121.03934 M 527.79513 136.19486 L 535.52437 128.73785 L 522.11834 125.90228 L 527.79513 136.19486 M 526.46171 140.72486 L 520.90249 145.03562 L 524.73939 150.37454 L 526.46171 140.72486 M 518.66790 143.31830 L 518.07987 136.16254 L 513.00989 139.48102 L 518.66790 143.31830 M 510.71475 140.71033 L 505.38632 141.17233 L 510.70521 149.37225 L 510.71475 140.71033 M 523.13557 151.67960 L 519.29867 146.34068 L 513.63112 151.16532 L 523.13557 151.67960 M 532.58377 152.82527 L 534.45539 146.01536 L 526.92550 151.82789 L 532.58377 152.82527 M 534.72185 160.88200 L 532.77245 155.55528 L 528.35720 161.53138 L 534.72185 160.88200 M 540.14548 165.79557 L 536.14094 162.66608 L 533.75596 167.34782 L 540.14548 165.79557 M 541.23985 164.23867 L 542.51088 154.89265 L 537.23530 161.10918 L 541.23985 164.23867 M 548.37810 166.04093 L 548.84028 161.02407 L 543.18120 165.46791 L 548.37810 166.04093 M 548.16746 175.85990 L 548.25625 168.79912 L 542.75738 175.45576 L 548.16746 175.85990 M 550.73097 176.00710 L 550.99639 124.85842 L 550.52263 145.22909 L 550.73097 176.00710 M 542.02765 174.36522 L 547.52652 167.70858 L 542.32962 167.13556 L 542.02765 174.36522 M 540.37245 174.50511 L 540.67442 167.27545 L 534.28490 168.82770 L 540.37245 174.50511 M 525.92351 161.08087 L 524.68049 154.10739 L 520.91062 158.27531 L 525.92351 161.08087 M 541.66032 153.68463 L 534.43534 154.57444 L 536.38474 159.90115 L 541.66032 153.68463 M 543.37926 150.93100 L 548.26460 144.68202 L 538.02590 145.01090 L 543.37926 150.93100 M 535.24334 142.05054 L 537.16500 130.75638 L 529.43576 138.21339 L 535.24334 142.05054 M 549.82776 111.96195 L 546.67043 98.43469 L 544.06545 106.73327 L 549.82776 111.96195 M 550.59912 109.13989 L 550.23633 84.15679 L 547.44179 95.61263 L 550.59912 109.13989 M 550.97235 100.76015 L 550.42765 28.57471 L 550.60957 75.77705 L 550.97235 100.76015 M 541.14409 95.77133 L 505.61699 90.65504 L 538.53910 104.06991 L 541.14409 95.77133 M 540.32466 91.51329 L 531.98370 70.00561 L 504.79756 86.39700 L 540.32466 91.51329 M 535.81917 106.94092 L 502.89706 93.52605 L 519.38464 118.73942 L 535.81917 106.94092 M 550.02696 73.13021 L 548.36562 48.23849 L 547.79097 57.27486 L 550.02696 73.13021 M 526.27704 65.38986 L 494.67145 54.58728 L 499.09091 81.78125 L 526.27704 65.38986 M 535.62845 40.88171 L 535.08114 32.32397 L 518.75839 33.91812 L 535.62845 40.88171 M 534.83887 30.40164 L 533.69026 25.50306 L 518.51612 31.99579 L 534.83887 30.40164 M 546.25268 26.29520 L 537.15733 24.79049 L 538.30594 29.68907 L 546.25268 26.29520 M 547.18553 27.20393 L 539.23878 30.59779 L 544.62008 32.06027 L 547.18553 27.20393 M 540.18967 18.51553 L 533.29844 18.36316 L 535.92727 22.66765 L 540.18967 18.51553 M 542.30245 16.65545 L 548.28101 12.15807 L 539.95969 12.13195 L 542.30245 16.65545 M 549.94884 16.15715 L 548.80324 26.31135 L 548.46941 38.46776 L 549.94884 16.15715 M 532.12856 16.47883 L 536.67703 12.10771 L 528.91097 12.11650 L 532.12856 16.47883 M 513.59277 28.90452 L 522.92049 13.74497 L 501.29855 14.33826 L 513.59277 28.90452 M 497.63044 16.09784 L 493.57560 27.82162 L 509.92466 30.66410 L 497.63044 16.09784 M 495.83616 12.22859 L 517.45810 11.63529 L 469.89365 12.02710 L 495.83616 12.22859 M 485.66967 17.87211 L 493.01006 13.23704 L 476.24717 14.86639 L 485.66967 17.87211 M 483.47684 19.57418 L 474.05435 16.56846 L 475.46746 26.85361 L 483.47684 19.57418 M 489.43919 27.99387 L 486.15363 20.90516 L 484.17375 27.40699 L 489.43919 27.99387 M 489.46711 29.60009 L 484.20167 29.01320 L 486.37700 33.75489 L 489.46711 29.60009 M 490.34176 39.72548 L 490.23462 30.93912 L 487.14451 35.09393 L 490.34176 39.72548 M 488.82386 40.93701 L 485.62661 36.30546 L 478.09143 40.63137 L 488.82386 40.93701 M 496.48925 49.10161 L 528.09485 59.90419 L 513.63333 37.89591 L 496.48925 49.10161 M 489.31320 53.08699 L 483.41108 53.38756 L 493.73267 80.28096 L 489.31320 53.08699 M 473.35413 42.79800 L 463.22124 46.18517 L 468.59359 50.55702 L 473.35413 42.79800 M 473.99595 39.74611 L 473.32630 31.45611 L 464.26486 37.81905 L 473.99595 39.74611 M 461.00768 47.82470 L 455.64563 55.91424 L 466.38003 52.19655 L 461.00768 47.82470 M 466.67285 53.76741 L 455.93845 57.48510 L 463.35023 60.39158 L 466.67285 53.76741 M 452.01411 58.40339 L 445.06033 54.64998 L 449.64373 67.77361 L 452.01411 58.40339 M 452.30517 47.82188 L 453.88627 55.36741 L 459.24832 47.27786 L 452.30517 47.82188 M 452.21115 40.80186 L 446.26483 41.54949 L 450.67643 45.56700 L 452.21115 40.80186 M 443.25533 33.66939 L 436.07192 39.76270 L 443.64702 40.11207 L 443.25533 33.66939 M 436.83856 28.46710 L 428.47265 29.56671 L 433.67290 38.01296 L 436.83856 28.46710 M 441.84205 20.26750 L 434.49210 20.89877 L 438.41507 25.53228 L 441.84205 20.26750 M 442.22087 18.09843 L 441.14202 13.10783 L 435.17453 13.80157 L 442.22087 18.09843 M 440.57441 12.17574 L 447.47004 12.01059 L 424.81681 11.50066 L 440.57441 12.17574 M 434.27865 14.60469 L 433.97505 19.53282 L 441.32500 18.90156 L 434.27865 14.60469 M 432.76932 12.99218 L 438.73682 12.29844 L 422.97922 11.62336 L 432.76932 12.99218 M 430.75048 13.70198 L 420.96039 12.33316 L 422.58611 17.97682 L 430.75048 13.70198 M 424.87545 29.98775 L 416.34270 32.97806 L 421.79401 37.29132 L 424.87545 29.98775 M 432.12689 42.93180 L 422.49295 49.89777 L 428.90414 52.40561 L 432.12689 42.93180 M 440.45522 53.56256 L 430.61845 54.87738 L 429.59346 61.51290 L 440.45522 53.56256 M 419.24530 58.83441 L 420.57158 63.86345 L 426.12049 63.09711 L 419.24530 58.83441 M 415.91889 56.25023 L 409.98590 49.88902 L 406.76846 53.81394 L 415.91889 56.25023 M 418.67287 49.58999 L 415.39944 44.45801 L 411.25090 48.10944 L 418.67287 49.58999 M 407.97558 49.09303 L 399.83634 49.88231 L 404.75814 53.01795 L 407.97558 49.09303 M 406.56103 55.26842 L 408.32645 61.52478 L 415.71146 57.70471 L 406.56103 55.26842 M 404.19549 55.48864 L 396.78721 59.46649 L 405.96092 61.74501 L 404.19549 55.48864 M 403.24018 54.14692 L 398.31838 51.01128 L 395.83189 58.12477 L 403.24018 54.14692 M 404.14122 41.71410 L 399.45489 38.74349 L 398.82105 47.47638 L 404.14122 41.71410 M 397.94149 38.64388 L 392.03397 40.91725 L 397.30764 47.37677 L 397.94149 38.64388 M 389.47498 34.00441 L 391.05489 39.24571 L 396.96240 36.97234 L 389.47498 34.00441 M 392.27503 28.12976 L 387.72879 26.05690 L 388.58459 31.55648 L 392.27503 28.12976 M 395.18920 21.90601 L 388.55436 24.85059 L 393.10061 26.92345 L 395.18920 21.90601 M 394.29275 20.89363 L 385.92897 18.82443 L 387.65791 23.83821 L 394.29275 20.89363 M 395.15241 19.60074 L 394.53524 13.49512 L 386.78863 17.53154 L 395.15241 19.60074 M 394.47483 11.95088 L 411.11790 11.45046 L 370.27944 11.78364 L 394.47483 11.95088 M 384.72396 16.84101 L 392.47056 12.80459 L 378.63500 14.07652 L 384.72396 16.84101 M 383.07022 18.06717 L 376.98126 15.30267 L 379.24066 22.61382 L 383.07022 18.06717 M 385.33237 25.70999 L 379.77386 25.24287 L 379.51796 31.32126 L 385.33237 25.70999 M 378.24610 25.37471 L 373.11026 26.76474 L 377.99020 31.45310 L 378.24610 25.37471 M 373.48608 14.08356 L 363.12625 12.64440 L 367.72800 17.06460 L 373.48608 14.08356 M 359.44082 11.72158 L 400.27929 11.38839 L 307.76590 11.45436 L 359.44082 11.72158 M 354.02297 14.25869 L 321.94491 14.32069 L 337.33966 31.35610 L 354.02297 14.25869 M 362.28258 51.26215 L 342.33751 40.13680 L 358.66592 56.34354 L 362.28258 51.26215 M 347.89820 64.30725 L 338.14250 42.79257 L 335.29518 67.20037 L 347.89820 64.30725 M 331.89933 79.92007 L 323.02459 77.27936 L 324.57315 83.13426 L 331.89933 79.92007 M 332.61816 89.33649 L 333.09853 81.42722 L 325.77234 84.64140 L 332.61816 89.33649 M 331.69982 90.57620 L 324.85400 85.88111 L 325.75181 91.34495 L 331.69982 90.57620 M 333.27373 92.81198 L 328.78374 99.21182 L 335.98733 98.13626 L 333.27373 92.81198 M 326.08836 92.92994 L 327.54637 98.56103 L 332.03636 92.16119 L 326.08836 92.92994 M 323.31077 93.02882 L 317.63854 91.48604 L 316.94594 100.12613 L 323.31077 93.02882 M 323.19397 85.77054 L 318.41954 89.69159 L 324.09178 91.23437 L 323.19397 85.77054 M 315.20519 88.77024 L 313.59140 82.79158 L 304.76520 85.92119 L 315.20519 88.77024 M 312.47700 81.31472 L 306.29000 76.95537 L 303.65080 84.44433 L 312.47700 81.31472 M 312.27029 72.85193 L 304.05889 69.92518 L 306.31237 74.40182 L 312.27029 72.85193 M 312.23715 70.89870 L 306.04724 58.77594 L 304.02575 67.97195 L 312.23715 70.89870 M 318.96873 66.28916 L 307.91511 58.56559 L 314.10502 70.68835 L 318.96873 66.28916 M 321.06539 77.44459 L 316.22572 81.24187 L 322.61395 83.29948 L 321.06539 77.44459 M 304.57848 74.60958 L 302.32499 70.13294 L 298.39912 74.51404 L 304.57848 74.60958 M 304.31334 58.98371 L 298.36598 72.56080 L 302.29185 68.17971 L 304.31334 58.98371 M 298.39811 56.95780 L 254.96999 51.97243 L 292.45075 70.53489 L 298.39811 56.95780 M 311.61061 101.79302 L 301.86322 90.30388 L 291.06817 109.21301 L 311.61061 101.79302 M 324.74592 109.15351 L 317.26534 104.58444 L 319.07802 115.48613 L 324.74592 109.15351 M 325.60452 107.38667 L 325.94679 101.35138 L 318.12394 102.81760 L 325.60452 107.38667 M 335.99930 99.53058 L 328.79571 100.60614 L 333.36949 103.96657 L 335.99930 99.53058 M 341.81122 104.31222 L 337.62624 99.99384 L 334.99643 104.42983 L 341.81122 104.31222 M 341.67069 105.63607 L 334.85590 105.75368 L 336.50204 110.58464 L 341.67069 105.63607 M 349.73691 104.45256 L 345.37385 98.37686 L 344.30990 104.13508 L 349.73691 104.45256 M 357.34692 104.34356 L 352.09855 106.03464 L 353.59154 112.40715 L 357.34692 104.34356 M 360.54699 103.47529 L 365.21323 108.34110 L 369.27751 102.28626 L 360.54699 103.47529 M 363.86369 95.88039 L 360.07869 91.68281 L 355.48713 94.65775 L 363.86369 95.88039 M 393.70598 80.93200 L 392.28870 75.05929 L 386.68201 79.70477 L 393.70598 80.93200 M 390.90317 74.24590 L 382.62175 74.42484 L 385.29648 78.89138 L 390.90317 74.24590 M 402.73077 80.03073 L 394.29479 75.10004 L 395.71207 80.97275 L 402.73077 80.03073 M 418.19766 65.12756 L 409.48637 63.91860 L 414.51415 69.38992 L 418.19766 65.12756 M 426.74082 87.39389 L 417.25024 100.21017 L 421.57700 107.62565 L 426.74082 87.39389 M 400.65405 127.64141 L 398.52038 122.36879 L 392.27570 130.14979 L 400.65405 127.64141 M 373.64605 163.13220 L 363.73673 177.57342 L 381.05368 165.18817 L 373.64605 163.13220 M 359.69748 176.57723 L 363.69026 160.30357 L 354.65624 159.05111 L 359.69748 176.57723 M 357.41738 177.19103 L 352.37614 159.66491 L 345.44942 165.21398 L 357.41738 177.19103 M 363.72933 183.68436 L 362.13424 201.26587 L 392.49888 182.05303 L 363.72933 183.68436 M 356.34592 203.42964 L 357.94101 185.84813 L 346.19232 199.36318 L 356.34592 203.42964 M 362.43972 210.00523 L 362.72422 220.88835 L 396.25336 223.50332 L 362.43972 210.00523 M 355.36556 212.91820 L 356.36083 207.41798 L 348.90197 208.18819 L 355.36556 212.91820 M 341.26970 199.85703 L 336.97669 193.92534 L 333.00661 199.79710 L 341.26970 199.85703 M 331.11082 199.02884 L 335.08090 193.15708 L 326.10343 193.71095 L 331.11082 199.02884 M 334.88528 191.15268 L 329.54581 182.99361 L 325.90780 191.70654 L 334.88528 191.15268 M 336.16523 188.89341 L 336.14744 173.63239 L 330.82576 180.73434 L 336.16523 188.89341 M 327.70885 179.46780 L 324.17685 172.87349 L 320.08364 178.25349 L 327.70885 179.46780 M 322.67511 172.04856 L 315.69495 172.86835 L 318.58190 177.42856 L 322.67511 172.04856 M 312.69255 171.24978 L 307.86743 163.35722 L 306.36798 171.55274 L 312.69255 171.24978 M 310.68411 182.73523 L 313.04463 173.67203 L 306.72006 173.97499 L 310.68411 182.73523 M 310.19603 185.79400 L 301.82091 183.33576 L 313.55106 191.84018 L 310.19603 185.79400 M 316.81639 192.32296 L 322.69604 191.70104 L 318.70883 181.77379 L 316.81639 192.32296 M 308.90785 201.56435 L 274.52122 204.19603 L 295.70677 252.45127 L 308.90785 201.56435 M 326.26256 206.55522 L 315.37551 201.85924 L 302.17443 252.74617 L 326.26256 206.55522 M 297.38783 184.57546 L 274.73135 195.71156 L 309.11798 193.07987 L 297.38783 184.57546 M 295.69097 179.32217 L 294.62083 172.16235 L 273.95681 169.34946 L 295.69097 179.32217 M 336.19797 168.15718 L 336.42249 160.13515 L 331.02324 160.21576 L 336.19797 168.15718 M 342.40114 163.01779 L 343.82485 157.79511 L 338.53414 159.29514 L 342.40114 163.01779 M 397.10153 186.49297 L 366.73688 205.70581 L 400.55052 219.20390 L 397.10153 186.49297 M 397.92526 228.89359 L 364.39613 226.27862 L 375.81495 253.12742 L 397.92526 228.89359 M 310.70418 261.54100 L 364.91231 257.20835 L 353.49349 230.35955 L 310.70418 261.54100 M 306.40132 255.56124 L 349.19063 224.37979 L 330.48945 209.37029 L 306.40132 255.56124 M 248.31973 218.66466 L 287.11723 255.24577 L 257.80349 212.24620 L 248.31973 218.66466 M 221.86883 171.18964 L 208.79972 179.19743 L 213.40839 183.71580 L 221.86883 171.18964 M 180.01208 141.53464 L 204.62518 173.92478 L 217.69429 165.91700 L 180.01208 141.53464 M 174.33174 143.90684 L 181.74556 182.10403 L 189.45087 179.08760 L 174.33174 143.90684 M 123.84392 123.46788 L 123.22886 131.12349 L 160.54022 132.06237 L 123.84392 123.46788 M 116.73166 133.12651 L 110.44270 134.55280 L 115.46665 139.00465 L 116.73166 133.12651 M 112.49338 128.03589 L 110.07104 133.18170 L 116.36000 131.75542 L 112.49338 128.03589 M 111.04879 127.66521 L 104.80333 128.78994 L 108.62646 132.81102 L 111.04879 127.66521 M 102.11040 122.12129 L 97.16042 126.24567 L 102.53617 127.44446 L 102.11040 122.12129 M 102.61029 119.74278 L 106.42508 115.76816 L 97.77052 116.51541 L 102.61029 119.74278 M 97.76741 127.58056 L 106.96629 132.80044 L 103.14316 128.77936 L 97.76741 127.58056 M 88.85666 112.71611 L 88.05554 122.20943 L 94.20128 116.45036 L 88.85666 112.71611 M 88.31193 100.93686 L 81.53777 93.99600 L 87.47809 107.85756 L 88.31193 100.93686 M 96.11057 101.40208 L 90.13353 101.86262 L 89.29969 108.78332 L 96.11057 101.40208 M 98.50001 93.93965 L 99.06882 99.19725 L 107.55747 96.86275 L 98.50001 93.93965 M 100.23775 86.62536 L 93.23445 86.33660 L 97.03845 91.37320 L 100.23775 86.62536 M 92.00480 87.83174 L 90.40057 98.58648 L 95.80880 92.86834 L 92.00480 87.83174 M 79.88860 96.23900 L 75.11853 118.88085 L 85.82892 110.10056 L 79.88860 96.23900 M 73.73992 79.44526 L 81.99787 79.09731 L 76.42244 74.20686 L 73.73992 79.44526 M 71.45984 78.83044 L 74.14236 73.59204 L 63.75719 74.17874 L 71.45984 78.83044 M 77.93385 73.32269 L 83.50927 78.21313 L 85.83116 72.37184 L 77.93385 73.32269 M 87.77136 72.86820 L 85.44947 78.70948 L 93.45540 77.29351 L 87.77136 72.86820 M 88.40822 70.11686 L 93.50016 68.28842 L 91.13647 62.95251 L 88.40822 70.11686 M 93.92241 69.94408 L 88.83047 71.77252 L 94.51452 76.19783 L 93.92241 69.94408 M 95.01433 67.65289 L 100.52163 65.03264 L 92.65065 62.31698 L 95.01433 67.65289 M 101.47584 66.22771 L 95.96854 68.84796 L 100.28433 71.87757 L 101.47584 66.22771 M 103.12290 66.91242 L 101.93139 72.56228 L 109.14506 74.32560 L 103.12290 66.91242 M 101.85764 74.65648 L 102.53287 83.66608 L 109.07131 76.41981 L 101.85764 74.65648 M 110.02034 77.98999 L 103.48190 85.23626 L 109.44988 87.21793 L 110.02034 77.98999 M 112.00328 78.13543 L 111.43282 87.36336 L 119.34543 86.39975 L 112.00328 78.13543 M 115.24580 73.53176 L 122.58795 81.79608 L 137.37297 50.53403 L 115.24580 73.53176 M 120.38612 89.55527 L 112.36368 96.20816 L 120.43862 97.69031 L 120.38612 89.55527 M 126.83315 87.57790 L 126.88566 95.71294 L 163.93997 80.38924 L 126.83315 87.57790 M 131.84446 100.31110 L 166.50361 124.36316 L 168.89878 84.98739 L 131.84446 100.31110 M 120.53665 102.20299 L 115.13261 108.71697 L 118.49949 117.66055 L 120.53665 102.20299 M 113.79329 110.31991 L 109.82204 115.02652 L 117.16017 119.26350 L 113.79329 110.31991 M 72.83345 128.45875 L 62.54472 136.06003 L 82.60711 156.48060 L 72.83345 128.45875 M 46.65578 140.20363 L 50.56597 145.92904 L 56.07596 136.19262 L 46.65578 140.20363 M 44.44864 140.98967 L 38.41888 142.48094 L 48.35884 146.71508 L 44.44864 140.98967 M 32.90746 135.74837 L 36.13813 140.31378 L 39.37324 132.45197 L 32.90746 135.74837 M 32.45068 126.64613 L 32.44653 134.03992 L 38.91231 130.74352 L 32.45068 126.64613 M 30.78295 126.00319 L 25.57048 125.59995 L 30.77880 133.39697 L 30.78295 126.00319 M 34.38498 123.18563 L 40.84661 127.28301 L 47.92094 106.35590 L 34.38498 123.18563 M 30.41998 116.56420 L 33.08165 121.84578 L 46.61761 105.01605 L 30.41998 116.56420 M 27.74164 118.91084 L 25.19084 123.78918 L 30.40330 124.19242 L 27.74164 118.91084 M 19.58859 120.49550 L 23.83900 123.32707 L 26.38980 118.44873 L 19.58859 120.49550 M 14.57005 127.52927 L 22.36153 124.46213 L 18.11113 121.63057 L 14.57005 127.52927 M 12.65536 126.92613 L 11.71135 108.88591 L 11.52907 131.77858 L 12.65536 126.92613 M 13.52575 129.87541 L 12.39945 134.72786 L 18.67443 132.48015 L 13.52575 129.87541 M 20.55373 134.42891 L 18.75334 140.23096 L 24.08554 141.91117 L 20.55373 134.42891 M 25.44384 144.58933 L 22.31601 148.94572 L 29.21577 149.81764 L 25.44384 144.58933 M 26.96924 143.85389 L 30.74117 149.08220 L 34.51920 143.06220 L 26.96924 143.85389 M 21.05031 151.44984 L 19.06683 159.34093 L 24.20147 157.60316 L 21.05031 151.44984 M 13.29447 152.96811 L 11.77555 140.59994 L 13.29059 162.23617 L 13.29447 152.96811 M 14.42746 146.04789 L 19.80094 148.26448 L 17.59657 142.22788 L 14.42746 146.04789 M 19.18074 161.16992 L 21.96162 166.08173 L 24.31539 159.43215 L 19.18074 161.16992 M 25.51702 160.43630 L 23.16325 167.08589 L 28.79380 169.20318 L 25.51702 160.43630 M 31.71077 170.40999 L 38.86773 172.47793 L 36.06525 165.90557 L 31.71077 170.40999 M 32.06255 178.88360 L 33.24381 186.01160 L 38.59332 175.65345 L 32.06255 178.88360 M 35.20146 186.68329 L 47.72376 184.25706 L 40.55097 176.32513 L 35.20146 186.68329 M 35.13290 188.67322 L 40.00244 192.24463 L 47.65519 186.24700 L 35.13290 188.67322 M 32.58820 197.60283 L 38.34348 200.63461 L 38.68506 194.83543 L 32.58820 197.60283 M 34.30916 206.83096 L 37.79649 202.13405 L 32.04121 199.10227 L 34.30916 206.83096 M 31.50209 216.07842 L 42.03025 220.77669 L 37.70257 216.16243 L 31.50209 216.07842 M 39.75118 215.92911 L 44.07886 220.54337 L 47.89092 214.21186 L 39.75118 215.92911 M 45.88625 221.22636 L 54.21035 221.39299 L 49.69832 214.89485 L 45.88625 221.22636 M 55.32969 225.01494 L 47.00559 224.84831 L 58.65300 243.87044 L 55.32969 225.01494 M 59.96442 226.25930 L 63.28774 245.11480 L 84.08347 234.80321 L 59.96442 226.25930 M 56.35521 206.98711 L 51.00694 213.11494 L 55.51897 219.61308 L 56.35521 206.98711 M 48.18162 205.23795 L 50.08977 211.31805 L 55.43804 205.19022 L 48.18162 205.23795 M 50.84098 188.90329 L 48.27552 202.43610 L 55.53194 202.38838 L 50.84098 188.90329 M 51.78883 183.28192 L 62.17557 187.42161 L 50.16255 166.81060 L 51.78883 183.28192 M 42.10755 173.62548 L 49.28033 181.55741 L 47.65404 165.08609 L 42.10755 173.62548 M 53.79576 164.64634 L 65.80878 185.25734 L 80.85449 165.96781 L 53.79576 164.64634 M 38.83209 156.51594 L 37.64873 163.10139 L 45.99771 161.13436 L 38.83209 156.51594 M 14.81243 166.16584 L 20.77375 166.92344 L 17.99287 162.01163 L 14.81243 166.16584 M 15.29680 167.64078 L 21.86779 173.81117 L 21.25812 168.39838 L 15.29680 167.64078 M 14.50792 168.75278 L 14.94712 177.29440 L 21.07891 174.92317 L 14.50792 168.75278 M 13.13079 165.58913 L 11.61575 143.95290 L 12.01609 179.79179 L 13.13079 165.58913 M 15.84628 178.91799 L 21.70122 181.74147 L 21.97808 176.54676 L 15.84628 178.91799 M 14.74833 180.06545 L 13.19443 185.72649 L 20.60327 182.88894 L 14.74833 180.06545 M 11.85124 183.01237 L 11.45091 147.17348 L 11.81201 191.35382 L 11.85124 183.01237 M 13.72463 187.06102 L 18.98993 190.74169 L 21.13347 184.22347 L 13.72463 187.06102 M 12.66062 188.65802 L 12.62138 196.99947 L 17.92592 192.33869 L 12.66062 188.65802 M 21.90306 192.36641 L 29.92445 196.12288 L 31.15177 189.78408 L 21.90306 192.36641 M 24.35939 182.99318 L 31.46457 186.92907 L 30.28331 179.80107 L 24.35939 182.99318 M 23.13406 203.69290 L 28.92224 197.86148 L 20.90084 194.10501 L 23.13406 203.69290 M 24.42569 207.11666 L 28.96595 213.76636 L 32.48182 209.01393 L 24.42569 207.11666 M 23.23271 207.61474 L 22.93795 212.99861 L 27.77296 214.26445 L 23.23271 207.61474 M 21.71346 207.39858 L 15.61896 212.53514 L 21.41870 212.78244 L 21.71346 207.39858 M 13.14099 200.99847 L 14.58424 211.06215 L 20.67875 205.92558 L 13.14099 200.99847 M 15.20581 217.62880 L 18.40832 248.14780 L 21.00555 217.87610 L 15.20581 217.62880 M 22.12231 249.21598 L 40.08272 224.90839 L 29.55456 220.21012 L 22.12231 249.21598 M 26.87495 257.03291 L 55.92829 263.72341 L 56.48278 251.74744 L 26.87495 257.03291 M 20.77834 265.08578 L 25.83928 295.30805 L 31.70227 292.63867 L 20.77834 265.08578 M 19.10779 265.55714 L 18.33792 296.40953 L 24.16873 295.77941 L 19.10779 265.55714 M 49.68491 293.55467 L 36.78562 295.97398 L 42.68281 296.85691 L 49.68491 293.55467 M 51.33396 291.66141 L 55.87517 281.71083 L 38.43467 294.08072 L 51.33396 291.66141 M 53.19034 293.21864 L 46.18823 296.52088 L 64.82902 293.28572 L 53.19034 293.21864 M 61.30530 278.10466 L 69.71358 281.58093 L 68.92614 271.70570 L 61.30530 278.10466 M 60.89142 267.90234 L 60.20253 276.39484 L 67.82337 269.99588 L 60.89142 267.90234 M 62.08757 266.21515 L 69.01952 268.30869 L 69.77174 262.89731 L 62.08757 266.21515 M 65.25444 257.57425 L 61.61694 264.87334 L 69.30110 261.55550 L 65.25444 257.57425 M 68.30447 254.39032 L 72.35114 258.37157 L 86.01719 239.40186 L 68.30447 254.39032 M 67.28594 253.15344 L 84.99866 238.16498 L 64.20293 248.47657 L 67.28594 253.15344 M 61.15290 251.66050 L 60.59841 263.63647 L 64.23591 256.33738 L 61.15290 251.66050 M 71.52426 263.00914 L 70.77204 268.42052 L 76.10773 267.10982 L 71.52426 263.00914 M 78.69443 267.74921 L 82.30695 271.11221 L 83.26962 266.07201 L 78.69443 267.74921 M 77.98440 269.04988 L 77.58933 276.47732 L 81.59692 272.41287 L 77.98440 269.04988 M 84.48467 266.25911 L 83.52200 271.29930 L 88.41484 269.24599 L 84.48467 266.25911 M 89.04007 270.42600 L 84.14723 272.47931 L 89.48650 275.69917 L 89.04007 270.42600 M 90.65382 277.92999 L 88.22506 283.24772 L 95.46812 279.73490 L 90.65382 277.92999 M 98.73325 279.62433 L 104.07343 282.71752 L 104.19160 277.46504 L 98.73325 279.62433 M 99.29518 271.63491 L 98.13597 278.23900 L 103.59432 276.07972 L 99.29518 271.63491 M 100.26918 270.52509 L 104.56831 274.96989 L 105.92791 269.36038 L 100.26918 270.52509 M 108.33247 267.55348 L 113.80672 267.58335 L 112.67185 261.64952 L 108.33247 267.55348 M 115.09672 270.42555 L 113.89562 275.75785 L 118.71864 279.02494 L 115.09672 270.42555 M 106.43625 283.54915 L 112.00300 286.52467 L 112.18716 278.04933 L 106.43625 283.54915 M 105.09937 285.01272 L 101.49218 289.75790 L 110.66613 287.98824 L 105.09937 285.01272 M 102.93385 292.73528 L 116.63274 308.83175 L 112.10780 290.96562 L 102.93385 292.73528 M 88.29616 287.16164 L 89.48961 301.40297 L 97.27221 291.48719 L 88.29616 287.16164 M 78.17855 280.07311 L 79.78762 289.27859 L 85.09664 284.54625 L 78.17855 280.07311 M 72.44374 283.72950 L 78.20601 289.17650 L 76.59694 279.97101 L 72.44374 283.72950 M 71.66317 285.20091 L 70.35236 291.74231 L 77.42543 290.64791 L 71.66317 285.20091 M 119.60143 308.33647 L 126.68336 288.77303 L 115.07649 290.47034 L 119.60143 308.33647 M 130.51716 352.51184 L 131.52108 359.13967 L 162.22203 356.79695 L 130.51716 352.51184 M 132.12516 361.72173 L 135.34984 373.16837 L 162.82612 359.37902 L 132.12516 361.72173 M 136.19623 375.49191 L 138.89624 380.31003 L 163.67250 361.70256 L 136.19623 375.49191 M 140.34875 381.94320 L 147.81629 388.55722 L 165.12501 363.33572 L 140.34875 381.94320 M 128.61422 390.37422 L 126.31279 385.36376 L 58.00341 392.30377 L 128.61422 390.37422 M 153.85269 389.56324 L 188.63996 389.99140 L 171.16141 364.34175 L 153.85269 389.56324 M 180.28835 360.37491 L 206.20973 381.53501 L 218.42535 362.31810 L 180.28835 360.37491 M 211.21038 384.02665 L 220.29350 380.30806 L 223.42599 364.80974 L 211.21038 384.02665 M 215.23879 392.89497 L 201.66215 393.60875 L 226.97506 393.56624 L 215.23879 392.89497 M 217.74250 391.72238 L 229.47876 392.39365 L 221.69182 384.22801 L 217.74250 391.72238 M 223.17506 379.35248 L 234.26290 376.38203 L 226.30756 363.85416 L 223.17506 379.35248 M 228.49851 362.60305 L 236.45385 375.13091 L 240.70268 369.34355 L 228.49851 362.60305 M 229.16628 360.86802 L 241.37044 367.60852 L 241.79596 361.25067 L 229.16628 360.86802 M 225.74413 355.96481 L 232.77923 344.90224 L 219.58787 339.82805 L 225.74413 355.96481 M 219.29097 357.26757 L 213.13472 341.13082 L 181.15397 355.32439 L 219.29097 357.26757 M 253.80453 351.88871 L 256.54317 356.55104 L 269.71223 352.91173 L 253.80453 351.88871 M 254.00323 349.93172 L 269.91093 350.95474 L 258.13277 340.89513 L 254.00323 349.93172 M 274.55004 350.19154 L 291.11607 343.82609 L 262.77188 340.13192 L 274.55004 350.19154 M 290.37849 362.35460 L 292.38486 353.99440 L 277.75841 353.79053 L 290.37849 362.35460 M 299.09910 360.59930 L 295.05245 354.84549 L 293.04607 363.20570 L 299.09910 360.59930 M 300.25916 359.19594 L 302.32657 351.97879 L 296.21251 353.44213 L 300.25916 359.19594 M 309.55494 366.51956 L 309.67893 360.23417 L 302.55858 361.56625 L 309.55494 366.51956 M 311.27675 366.56797 L 316.33310 361.95346 L 311.40074 360.28257 L 311.27675 366.56797 M 327.45402 357.59343 L 332.83807 355.11445 L 325.81789 352.82451 L 327.45402 357.59343 M 335.50378 343.55800 L 332.82920 347.61134 L 340.10655 349.55384 L 335.50378 343.55800 M 335.51116 341.26482 L 340.74371 338.95788 L 332.25845 337.56867 L 335.51116 341.26482 M 341.86592 340.34245 L 336.63337 342.64939 L 341.23614 348.64523 L 341.86592 340.34245 M 341.15088 337.58614 L 338.76848 330.29097 L 332.66561 336.19694 L 341.15088 337.58614 M 342.88251 337.00178 L 346.51870 331.52201 L 340.50012 329.70661 L 342.88251 337.00178 M 347.75050 341.42141 L 347.42500 332.98636 L 343.78881 338.46613 L 347.75050 341.42141 M 349.18753 341.24685 L 355.28501 337.06959 L 348.86202 332.81179 L 349.18753 341.24685 M 298.55000 335.54504 L 306.15643 334.02994 L 298.07092 281.76400 L 298.55000 335.54504 M 200.99211 281.53918 L 224.63058 295.36310 L 217.92314 264.12503 L 200.99211 281.53918 M 146.54115 237.15796 L 161.42948 248.02402 L 164.33803 234.92380 L 146.54115 237.15796 M 118.42433 254.76109 L 114.82152 259.46290 L 123.06195 260.69614 L 118.42433 254.76109 M 93.98787 164.94460 L 118.39395 174.46561 L 119.41100 166.22916 L 93.98787 164.94460 M 93.16834 160.12482 L 116.86691 153.23631 L 113.56230 144.08041 L 93.16834 160.12482 M 91.97855 158.18085 L 112.37251 142.13644 L 107.34856 137.68459 L 91.97855 158.18085 M 43.51468 128.20543 L 55.72951 130.56496 L 50.58900 107.27831 L 43.51468 128.20543 M 25.00461 108.57504 L 29.41035 114.90536 L 45.60798 103.35720 L 25.00461 108.57504 M 24.32822 106.85361 L 44.93159 101.63577 L 23.99925 101.13389 L 24.32822 106.85361 M 21.71906 110.51717 L 19.32360 118.89427 L 26.12481 116.84749 L 21.71906 110.51717 M 14.18480 112.66220 L 12.04332 106.49637 L 12.98733 124.53659 L 14.18480 112.66220 M 12.89139 104.45697 L 15.03288 110.62280 L 19.77194 108.22140 L 12.89139 104.45697 M 11.55016 101.20707 L 11.36586 65.49538 L 11.36788 124.09973 L 11.55016 101.20707 M 13.65376 96.36253 L 12.79961 90.82634 L 11.96345 100.93971 L 13.65376 96.36253 M 26.82441 93.90296 L 24.31127 99.51506 L 45.24361 100.01694 L 26.82441 93.90296 M 28.19436 91.71777 L 46.61356 97.83175 L 35.27086 82.03355 L 28.19436 91.71777 M 37.01955 80.48236 L 48.36225 96.28056 L 42.18384 79.30825 L 37.01955 80.48236 M 38.36066 71.85450 L 35.76935 77.42910 L 40.93364 76.25499 L 38.36066 71.85450 M 27.48673 61.90820 L 37.12551 68.66817 L 38.09992 63.09897 L 27.48673 61.90820 M 38.55319 52.64563 L 27.66519 59.90539 L 38.27839 61.09615 L 38.55319 52.64563 M 41.09942 52.66467 L 40.82461 61.11519 L 48.03499 60.05771 L 41.09942 52.66467 M 48.13563 50.62531 L 42.01329 51.35344 L 48.94887 58.74648 L 48.13563 50.62531 M 51.33104 48.55084 L 66.12404 48.27388 L 53.59680 43.15574 L 51.33104 48.55084 M 53.14931 35.25626 L 45.08092 39.04856 L 51.46070 40.65353 L 53.14931 35.25626 M 48.92577 28.25091 L 44.21817 30.85023 L 52.77179 32.96727 L 48.92577 28.25091 M 43.61497 32.06576 L 44.10020 37.97509 L 52.16859 34.18279 L 43.61497 32.06576 M 50.45873 21.07753 L 50.36582 26.30522 L 59.49169 25.22876 L 50.45873 21.07753 M 41.30338 14.40661 L 36.18885 17.38083 L 41.24360 21.54236 L 41.30338 14.40661 M 39.33947 13.30476 L 25.53234 12.72757 L 34.22494 16.27898 L 39.33947 13.30476 M 34.09953 19.14769 L 29.10903 25.55795 L 34.63414 26.29281 L 34.09953 19.14769 M 29.22867 27.38631 L 35.05666 33.77461 L 34.75378 28.12118 L 29.22867 27.38631 M 25.01492 32.51453 L 33.83930 34.32378 L 28.01131 27.93548 L 25.01492 32.51453 M 23.45567 34.62665 L 18.79133 39.13491 L 29.02601 42.13341 L 23.45567 34.62665 M 18.37094 40.51875 L 20.09248 45.69732 L 28.60561 43.51725 L 18.37094 40.51875 M 15.92856 39.93790 L 14.51471 35.17926 L 12.20199 48.80765 L 15.92856 39.93790 M 15.24870 31.67273 L 21.32689 31.92311 L 13.40959 25.26372 L 15.24870 31.67273 M 14.70596 24.64534 L 22.62325 31.30472 L 25.61964 26.72568 L 14.70596 24.64534 M 18.89108 48.67825 L 13.44298 52.36943 L 22.72102 58.49493 L 18.89108 48.67825 M 12.39147 58.51940 L 13.41194 84.11771 L 18.73665 78.40523 L 12.39147 58.51940 M 33.34357 43.88357 L 39.54838 48.62056 L 41.55669 40.89238 L 33.34357 43.88357 M 62.12566 28.82530 L 56.84580 34.61813 L 67.68445 45.13353 L 62.12566 28.82530 M 63.39939 14.51471 L 52.08793 19.60371 L 61.12089 23.75494 L 63.39939 14.51471 M 62.27413 13.08732 L 52.11885 12.33580 L 50.96267 18.17632 L 62.27413 13.08732 M 61.50071 11.61540 L 95.79085 12.42637 L 101.88265 12.35366 L 61.50071 11.61540 M 66.02443 12.38293 L 80.96509 12.54123 L 55.86915 11.63142 L 66.02443 12.38293 M 72.09792 17.10986 L 65.90063 14.20298 L 63.62213 23.44321 L 72.09792 17.10986 M 75.47466 18.14980 L 79.20150 27.15563 L 80.71197 19.84998 L 75.47466 18.14980 M 82.11838 20.54862 L 80.60791 27.85426 L 86.72594 23.73890 L 82.11838 20.54862 M 87.74873 25.06488 L 81.63070 29.18024 L 90.30070 31.15647 L 87.74873 25.06488 M 86.34109 14.42064 L 82.83502 18.86941 L 87.44259 22.05970 L 86.34109 14.42064 M 79.56178 32.67921 L 72.91795 46.31496 L 86.51119 41.39705 L 79.56178 32.67921 M 87.32881 43.66012 L 73.73557 48.57803 L 86.10277 50.78377 L 87.32881 43.66012 M 91.48216 41.67088 L 97.91346 51.25212 L 99.30499 30.20646 L 91.48216 41.67088 M 89.13769 53.37264 L 91.58362 59.70780 L 96.79504 55.83025 L 89.13769 53.37264 M 87.51455 53.93441 L 83.80990 60.32442 L 89.96048 60.26957 L 87.51455 53.93441 M 73.03119 50.50855 L 81.69374 59.10429 L 85.39839 52.71429 L 73.03119 50.50855 M 70.89647 51.90502 L 68.32066 63.88602 L 79.55902 60.50076 L 70.89647 51.90502 M 68.38727 52.28827 L 59.48544 63.56682 L 65.81146 64.26928 L 68.38727 52.28827 M 70.18194 44.68777 L 76.82577 31.05202 L 64.62315 28.37954 L 70.18194 44.68777 M 68.91888 66.26547 L 75.68226 70.94054 L 80.15724 62.88020 L 68.91888 66.26547 M 64.92609 66.73254 L 58.60007 66.03007 L 61.30430 71.99431 L 64.92609 66.73254 M 63.17421 72.76253 L 73.55938 72.17583 L 66.79600 67.50076 L 63.17421 72.76253 M 54.02723 96.15378 L 68.94545 81.65065 L 61.24280 76.99895 L 54.02723 96.15378 M 107.23764 21.82448 L 105.12554 26.60174 L 134.54290 38.65608 L 107.23764 21.82448 M 111.44588 16.11100 L 108.02769 20.51313 L 135.33295 37.34473 L 111.44588 16.11100 M 107.16319 13.08800 L 101.07139 13.16071 L 103.74499 17.49013 L 107.16319 13.08800 M 143.72282 50.68770 L 128.93780 81.94975 L 166.04462 74.76108 L 143.72282 50.68770 M 150.28548 47.17071 L 172.60728 71.24409 L 181.43908 53.81381 L 150.28548 47.17071 M 406.32268 17.70774 L 398.36944 21.19161 L 403.95446 27.63673 L 406.32268 17.70774 M 407.72606 14.97106 L 415.79873 11.84889 L 399.15566 12.34930 L 407.72606 14.97106 M 447.79553 24.60920 L 443.50498 20.73131 L 440.07800 25.99608 L 447.79553 24.60920 M 449.16931 26.45854 L 445.46954 31.29797 L 450.47751 32.07345 L 449.16931 26.45854 M 453.48074 19.73866 L 445.18032 19.94913 L 449.47087 23.82702 L 453.48074 19.73866 M 453.69877 18.44814 L 451.21514 13.50285 L 445.39836 18.65861 L 453.69877 18.44814 M 455.45331 20.16781 L 451.44344 24.25618 L 460.96090 23.38234 L 455.45331 20.16781 M 460.57495 24.76852 L 451.05749 25.64236 L 452.36569 31.25726 L 460.57495 24.76852 M 461.78187 26.11729 L 453.57261 32.60603 L 460.71289 36.43250 L 461.78187 26.11729 M 470.25512 15.31291 L 461.07550 13.48208 L 463.67578 21.64578 L 470.25512 15.31291 M 462.18127 11.92602 L 509.74572 11.53421 L 434.13710 11.41998 L 462.18127 11.92602 M 449.87524 12.81998 L 442.97961 12.98513 L 444.05846 17.97573 L 449.87524 12.81998 M 486.21518 88.83157 L 454.10012 76.91708 L 450.96674 106.51297 L 486.21518 88.83157 M 547.93926 40.61213 L 548.27309 28.45572 L 545.70763 33.31206 L 547.93926 40.61213 M 51.96542 380.43736 L 113.34618 350.60476 L 87.23886 318.33556 L 51.96542 380.43736 M 56.44253 388.57615 L 122.05189 376.81801 L 118.82722 365.37138 L 56.44253 388.57615" fill="none" stroke="black" stroke-width="0.01cm" />
   </g>
</svg>