<?xml version="1.0" standalone="no"?>
  <!DOCTYPE svg PUBLIC "-//W3C//DTD SVG 1.1//EN" 
    "http://www.w3.org/Graphics/SVG/1.1/DTD/svg11.dtd">
  <svg width="12.7cm" height="8.89cm"
       xmlns="http://www.w3.org/2000/svg" version="1.1" viewBox="0 0 449.99999 314.99999">
   <g>
     <path d="M 238.70153 162.54202 L 244.48406 169.40233 L 245.27727 158.57484 L 238.70153 162.54202 M 235.92731 171.56594 L 243.31532 171.02621 L 237.53279 164.16590 L 235.92731 171.56594 M 247.46333 171.45045 L 256.69132 174.48986 L 254.10086 165.06012 L 247.46333 171.45045 M 250.17202 179.08408 L 256.20022 176.24285 L 246.97222 173.20345 L 250.17202 179.08408 M 253.15524 185.94836 L 256.97310 177.83597 L 250.94490 180.67719 L 253.15524 185.94836 M 254.93743 186.43796 L 265.20243 184.59395 L 258.75529 178.32556 L 254.93743 186.43796 M 255.63741 188.54084 L 264.35513 195.14867 L 265.90241 186.69684 L 255.63741 188.54084 M 257.23127 198.40436 L 263.27124 196.61211 L 254.55352 190.00428 L 257.23127 198.40436 M 258.56510 200.30133 L 265.22420 205.18010 L 264.60507 198.50909 L 258.56510 200.30133 M 247.17602 198.80799 L 255.21936 198.67884 L 252.54162 190.27877 L 247.17602 198.80799 M 240.23225 200.24682 L 236.09678 191.62794 L 209.17031 210.27911 L 240.23225 200.24682 M 241.75147 187.00481 L 251.25254 187.09447 L 249.04220 181.82330 L 241.75147 187.00481 M 239.46605 184.64871 L 243.55698 173.58657 L 236.16896 174.12630 L 239.46605 184.64871 M 254.82739 161.89576 L 261.71030 160.00245 L 248.98305 157.45860 L 254.82739 161.89576 M 247.98148 155.71281 L 260.70872 158.25667 L 246.81476 147.92945 L 247.98148 155.71281 M 245.23714 154.85609 L 244.07043 147.07273 L 238.75406 151.40285 L 245.23714 154.85609 M 243.11114 145.48207 L 237.56285 142.13088 L 237.79478 149.81219 L 243.11114 145.48207 M 243.55443 141.93917 L 241.34107 121.46894 L 238.00614 138.58797 L 243.55443 141.93917 M 232.21003 139.96949 L 208.94333 125.94974 L 223.78722 149.89203 L 232.21003 139.96949 M 235.79891 150.75096 L 235.56698 143.06964 L 227.14417 152.99219 L 235.79891 150.75096 M 263.09298 155.33435 L 267.05554 132.33426 L 249.19902 145.00713 L 263.09298 155.33435 M 265.18333 172.45104 L 263.73534 161.87651 L 256.85242 163.76981 L 265.18333 172.45104 M 267.15452 173.17292 L 272.62191 169.54486 L 265.70652 162.59839 L 267.15452 173.17292 M 274.49115 177.87613 L 273.71999 171.45458 L 268.25259 175.08264 L 274.49115 177.87613 M 276.50469 179.26824 L 279.18763 188.58657 L 280.90680 170.47961 L 276.50469 179.26824 M 268.27918 183.62025 L 273.81105 179.39684 L 267.57249 176.60334 L 268.27918 183.62025 M 273.38083 197.17633 L 277.55540 192.45158 L 269.34059 187.35666 L 273.38083 197.17633 M 274.53158 199.26381 L 278.54661 204.05646 L 278.70615 194.53906 L 274.53158 199.26381 M 275.99225 214.24601 L 277.58632 207.18273 L 268.60291 207.69325 L 275.99225 214.24601 M 277.85506 214.89351 L 283.50540 212.87325 L 279.44913 207.83022 L 277.85506 214.89351 M 266.94750 216.05125 L 274.66239 215.35457 L 267.27306 208.80181 L 266.94750 216.05125 M 270.22812 224.59969 L 275.03178 217.32931 L 267.31688 218.02599 L 270.22812 224.59969 M 262.99689 228.03977 L 268.72376 225.93850 L 265.81252 219.36480 L 262.99689 228.03977 M 263.80402 229.75339 L 272.26953 233.07375 L 269.53088 227.65212 L 263.80402 229.75339 M 260.20008 236.01243 L 271.10318 234.11879 L 262.63767 230.79843 L 260.20008 236.01243 M 258.22298 234.78302 L 260.66056 229.56903 L 255.28637 224.28357 L 258.22298 234.78302 M 256.03683 222.29943 L 261.41102 227.58489 L 264.22665 218.90991 L 256.03683 222.29943 M 253.19433 211.38914 L 264.26399 215.55557 L 264.58955 208.30614 L 253.19433 211.38914 M 244.77022 235.90298 L 254.03917 243.66188 L 256.31881 237.63994 L 244.77022 235.90298 M 248.34088 250.68273 L 263.00448 257.44014 L 255.17876 247.50410 L 248.34088 250.68273 M 234.98875 252.27487 L 243.40768 249.73538 L 238.79571 244.14328 L 234.98875 252.27487 M 230.66704 246.57448 L 233.39617 251.87975 L 237.20313 243.74817 L 230.66704 246.57448 M 231.52245 244.64919 L 238.05854 241.82288 L 240.23945 236.47745 L 231.52245 244.64919 M 227.74300 241.86859 L 236.46000 233.69685 L 207.82297 219.57808 L 227.74300 241.86859 M 210.45889 252.75693 L 224.49286 244.25110 L 204.57283 221.96059 L 210.45889 252.75693 M 211.56907 258.45429 L 216.85309 261.56447 L 222.20428 255.92350 L 211.56907 258.45429 M 218.64347 262.33839 L 225.89215 264.64564 L 223.99467 256.69742 L 218.64347 262.33839 M 219.37670 271.26303 L 224.81318 273.54428 L 226.06457 267.50914 L 219.37670 271.26303 M 216.67225 280.90110 L 223.63914 275.21828 L 218.20266 272.93702 L 216.67225 280.90110 M 214.09909 282.58280 L 208.79371 276.80715 L 209.88963 286.48343 L 214.09909 282.58280 M 207.99609 288.68608 L 191.47956 288.46248 L 214.37139 290.75135 L 207.99609 288.68608 M 217.39807 291.54801 L 178.31520 292.28668 L 248.40054 292.03189 L 217.39807 291.54801 M 221.27331 290.37606 L 232.43502 289.60558 L 229.15792 284.16536 L 221.27331 290.37606 M 224.57586 291.33242 L 255.57834 291.81630 L 235.73757 290.56195 L 224.57586 291.33242 M 234.66100 288.60871 L 239.08122 282.40107 L 231.38391 283.16848 L 234.66100 288.60871 M 236.22409 289.27066 L 243.88859 288.46407 L 240.64430 283.06302 L 236.22409 289.27066 M 239.11796 280.40268 L 234.95493 272.62161 L 231.42065 281.17010 L 239.11796 280.40268 M 240.61050 279.33872 L 243.36098 272.65845 L 236.44747 271.55766 L 240.61050 279.33872 M 242.91552 280.00648 L 254.88764 276.89974 L 245.66600 273.32621 L 242.91552 280.00648 M 248.43329 288.19944 L 260.60956 290.26038 L 257.16113 279.69164 L 248.43329 288.19944 M 263.84001 289.15686 L 274.27690 279.37128 L 260.39158 278.58812 L 263.84001 289.15686 M 266.66949 290.45735 L 283.02736 288.99207 L 277.10638 280.67177 L 266.66949 290.45735 M 277.13271 274.80932 L 280.87507 264.66026 L 269.05872 262.02711 L 277.13271 274.80932 M 279.99345 276.45483 L 291.94466 275.19121 L 283.73582 266.30577 L 279.99345 276.45483 M 284.19782 261.19238 L 292.56892 253.60953 L 283.52724 252.01599 L 284.19782 261.19238 M 292.83260 265.19858 L 293.73209 255.25736 L 285.36099 262.84021 L 292.83260 265.19858 M 295.92738 274.72211 L 304.38360 270.34366 L 295.19015 268.19505 L 295.92738 274.72211 M 305.24910 277.06266 L 315.01049 278.49505 L 307.62160 271.74816 L 305.24910 277.06266 M 305.18067 268.87704 L 302.30394 262.98914 L 295.98722 266.72843 L 305.18067 268.87704 M 309.08193 269.33888 L 318.49522 269.60136 L 314.90735 264.27283 L 309.08193 269.33888 M 313.15164 263.39421 L 304.44950 262.57236 L 307.32622 268.46026 L 313.15164 263.39421 M 315.78401 261.77082 L 321.60609 260.21357 L 313.86097 256.20853 L 315.78401 261.77082 M 322.48739 259.13129 L 322.83436 253.11262 L 314.74226 255.12625 L 322.48739 259.13129 M 323.18541 250.05232 L 323.03394 240.55241 L 317.35521 246.16240 L 323.18541 250.05232 M 324.90270 249.66409 L 331.09350 243.05653 L 324.75123 240.16418 L 324.90270 249.66409 M 335.53831 251.08932 L 332.44188 244.42218 L 326.25108 251.02973 L 335.53831 251.08932 M 333.65044 257.71748 L 342.17700 256.69152 L 337.44214 253.19567 L 333.65044 257.71748 M 343.34957 255.30854 L 343.03102 246.65364 L 338.61472 251.81269 L 343.34957 255.30854 M 352.97123 252.57184 L 344.82558 246.74853 L 345.14413 255.40343 L 352.97123 252.57184 M 354.69392 251.15425 L 358.92567 244.06275 L 346.54828 245.33094 L 354.69392 251.15425 M 356.69859 252.05745 L 362.58561 252.55647 L 360.93033 244.96594 L 356.69859 252.05745 M 353.45501 262.27148 L 359.85372 262.77095 L 355.56446 255.11522 L 353.45501 262.27148 M 352.55203 270.03872 L 359.47717 264.63639 L 353.07846 264.13691 L 352.55203 270.03872 M 350.57946 270.54175 L 351.10588 264.63994 L 343.69655 268.66060 L 350.57946 270.54175 M 359.54653 271.72830 L 360.28568 265.58531 L 353.36054 270.98764 L 359.54653 271.72830 M 364.63223 277.86663 L 371.60521 268.80917 L 362.05667 272.85083 L 364.63223 277.86663 M 366.32067 278.18751 L 375.56418 275.41789 L 373.29365 269.13005 L 366.32067 278.18751 M 373.51007 283.05194 L 383.84988 281.46707 L 377.53591 277.32916 L 373.51007 283.05194 M 375.66785 292.32313 L 368.88141 291.95602 L 332.94732 291.97070 L 375.66785 292.32313 M 381.96091 290.53351 L 384.40301 283.11761 L 374.06319 284.70249 L 381.96091 290.53351 M 384.62641 291.23402 L 395.38725 290.30659 L 387.06851 283.81812 L 384.62641 291.23402 M 388.54021 292.29191 L 418.37890 292.28120 L 399.30105 291.36448 L 388.54021 292.29191 M 398.47454 287.56482 L 403.18017 274.79805 L 396.30033 275.57812 L 398.47454 287.56482 M 400.24110 288.25221 L 410.43286 281.07724 L 404.94674 275.48544 L 400.24110 288.25221 M 407.89955 270.24541 L 417.74482 271.84734 L 419.50448 250.32183 L 407.89955 270.24541 M 405.48571 269.16598 L 417.09063 249.24240 L 398.43403 263.21186 L 405.48571 269.16598 M 393.24697 262.08301 L 387.52707 250.64524 L 388.36568 257.60345 L 393.24697 262.08301 M 384.00240 263.49605 L 392.80639 263.68936 L 387.92510 259.20980 L 384.00240 263.49605 M 382.14367 262.26178 L 386.06637 257.97554 L 377.93657 253.81525 L 382.14367 262.26178 M 374.24827 265.97118 L 380.00148 263.97120 L 370.47495 261.20438 L 374.24827 265.97118 M 383.93732 271.51575 L 381.68428 265.26012 L 375.93107 267.26010 L 383.93732 271.51575 M 387.29918 272.24729 L 394.02195 272.91917 L 393.85012 266.18498 L 387.29918 272.24729 M 374.62813 248.26763 L 374.21901 228.44314 L 364.21510 241.86559 L 374.62813 248.26763 M 386.55980 242.05839 L 394.04769 217.37295 L 378.85948 225.03181 L 386.55980 242.05839 M 370.49018 225.21158 L 350.77881 227.11842 L 354.50500 233.93079 L 370.49018 225.21158 M 361.87306 240.27912 L 371.87696 226.85667 L 355.89178 235.57588 L 361.87306 240.27912 M 345.26364 235.48971 L 351.35169 235.21555 L 347.62549 228.40319 L 345.26364 235.48971 M 343.15250 234.78051 L 345.51435 227.69400 L 334.46259 229.54200 L 343.15250 234.78051 M 344.57415 243.01325 L 350.97027 237.04181 L 344.88222 237.31597 L 344.57415 243.01325 M 325.51147 237.87342 L 331.85374 240.76578 L 330.98463 231.33808 L 325.51147 237.87342 M 323.78933 236.90573 L 329.26249 230.37039 L 318.07662 233.02424 L 323.78933 236.90573 M 313.24849 222.03317 L 328.91653 224.07120 L 325.50382 191.20414 L 313.24849 222.03317 M 309.48751 220.74651 L 321.74284 189.91747 L 298.82868 213.77786 L 309.48751 220.74651 M 300.34576 224.84073 L 306.81287 225.11191 L 296.15405 218.14326 L 300.34576 224.84073 M 302.78319 233.58403 L 299.81716 227.30316 L 295.42636 231.83307 L 302.78319 233.58403 M 292.07802 231.16777 L 287.42825 223.72859 L 285.03702 231.17095 L 292.07802 231.16777 M 293.29611 242.69391 L 301.96806 235.50787 L 294.61123 233.75691 L 293.29611 242.69391 M 289.82178 245.00477 L 282.29930 241.22155 L 283.01106 248.84093 L 289.82178 245.00477 M 295.72238 251.34814 L 302.61483 246.93740 L 293.49143 245.91844 L 295.72238 251.34814 M 303.53498 245.13515 L 303.08353 236.93015 L 294.41157 244.11619 L 303.53498 245.13515 M 312.04523 253.15951 L 314.30712 247.25596 L 306.74134 247.28727 L 312.04523 253.15951 M 310.75366 254.68008 L 305.44977 248.80784 L 303.97456 259.42052 L 310.75366 254.68008 M 302.23222 259.21174 L 303.70743 248.59906 L 296.81498 253.00980 L 302.23222 259.21174 M 280.98517 248.71622 L 280.27341 241.09684 L 273.61466 244.00708 L 280.98517 248.71622 M 268.62157 243.26592 L 259.30022 238.56031 L 257.02059 244.58225 L 268.62157 243.26592 M 275.37788 233.08555 L 282.25148 231.62395 L 279.05853 225.88778 L 275.37788 233.08555 M 265.63860 256.79800 L 269.41387 245.54563 L 257.81289 246.86196 L 265.63860 256.79800 M 269.49755 259.26633 L 281.31390 261.89948 L 280.64332 252.72309 L 269.49755 259.26633 M 246.64518 269.36310 L 261.67816 260.93757 L 244.93760 260.30066 L 246.64518 269.36310 M 236.59646 269.30870 L 243.50997 270.40949 L 241.80239 261.34705 L 236.59646 269.30870 M 229.31343 264.16000 L 239.88582 259.12303 L 233.54385 255.54202 L 229.31343 264.16000 M 199.08436 260.09738 L 205.37623 265.12992 L 207.72499 259.31422 L 199.08436 260.09738 M 198.57904 254.86709 L 207.21966 254.08393 L 201.33360 223.28759 L 198.57904 254.86709 M 190.61755 264.79911 L 197.13437 267.84885 L 196.26778 261.00892 L 190.61755 264.79911 M 189.50741 267.66044 L 187.38669 283.89950 L 196.02423 270.71018 L 189.50741 267.66044 M 176.47540 264.20881 L 186.83755 264.27122 L 182.90677 259.89793 L 176.47540 264.20881 M 166.50222 260.60058 L 173.18831 263.47705 L 173.65827 256.98271 L 166.50222 260.60058 M 165.80185 259.23004 L 172.95790 255.61217 L 167.58534 252.51272 L 165.80185 259.23004 M 158.65226 258.00448 L 159.18205 244.46044 L 117.01487 252.63436 L 158.65226 258.00448 M 166.63873 251.09470 L 165.38504 244.26798 L 164.85524 257.81202 L 166.63873 251.09470 M 167.66103 250.57786 L 173.03358 253.67731 L 166.40733 243.75114 L 167.66103 250.57786 M 170.64032 240.38971 L 183.22799 252.49933 L 195.56356 221.50292 L 170.64032 240.38971 M 161.63369 223.97232 L 192.15196 215.09482 L 161.53026 211.24380 L 161.63369 223.97232 M 152.86341 231.08640 L 116.29126 249.26960 L 158.45845 241.09568 L 152.86341 231.08640 M 148.57733 209.65310 L 150.67990 215.11206 L 155.47155 209.65469 L 148.57733 209.65310 M 136.67553 213.71188 L 112.95651 244.93773 L 144.63358 219.48337 L 136.67553 213.71188 M 133.76612 198.40351 L 131.72693 204.92408 L 137.55364 206.92371 L 133.76612 198.40351 M 124.53818 200.82639 L 130.10000 204.16191 L 132.13919 197.64134 L 124.53818 200.82639 M 126.90199 189.71304 L 133.85455 192.20924 L 143.17445 166.38635 L 126.90199 189.71304 M 115.28996 191.84608 L 121.81785 198.97489 L 122.46630 193.29364 L 115.28996 191.84608 M 113.99311 192.40017 L 112.09145 197.72634 L 120.52099 199.52898 L 113.99311 192.40017 M 116.90261 180.59577 L 124.78299 188.26136 L 141.05545 164.93466 L 116.90261 180.59577 M 97.69901 177.97529 L 105.03931 184.37161 L 106.51704 175.11593 L 97.69901 177.97529 M 95.36980 170.28473 L 96.49032 176.21443 L 105.30835 173.35507 L 95.36980 170.28473 M 96.31206 168.97479 L 106.25061 172.04514 L 104.02839 165.73496 L 96.31206 168.97479 M 85.65457 164.62490 L 92.74159 167.65039 L 92.49014 161.23555 L 85.65457 164.62490 M 77.49740 173.77508 L 85.25895 174.32315 L 83.15731 166.75960 L 77.49740 173.77508 M 75.74448 172.64352 L 81.40439 165.62805 L 71.23562 165.27072 L 75.74448 172.64352 M 70.87747 179.77956 L 77.81214 183.04124 L 75.30555 176.19042 L 70.87747 179.77956 M 70.22382 181.11483 L 70.07633 186.87254 L 77.15849 184.37651 L 70.22382 181.11483 M 70.80976 188.13587 L 76.09124 191.22146 L 77.89192 185.63983 L 70.80976 188.13587 M 69.58402 189.88326 L 68.08595 199.61894 L 74.86549 192.96885 L 69.58402 189.88326 M 79.78331 185.73984 L 77.98263 191.32147 L 85.94088 188.93595 L 79.78331 185.73984 M 80.79125 184.04208 L 86.94883 187.23818 L 86.04622 177.73932 L 80.79125 184.04208 M 87.66919 177.03774 L 88.57181 186.53659 L 93.77508 178.42938 L 87.66919 177.03774 M 89.85233 189.69278 L 96.47445 195.12809 L 96.49453 188.74475 L 89.85233 189.69278 M 88.69696 190.82849 L 87.25157 197.83041 L 95.31908 196.26380 L 88.69696 190.82849 M 88.96011 204.22873 L 102.36525 242.01502 L 97.02762 202.66211 L 88.96011 204.22873 M 99.49991 202.57964 L 104.83754 241.93254 L 108.73849 203.56890 L 99.49991 202.57964 M 68.60048 202.98647 L 67.18732 212.20712 L 81.89288 200.95278 L 68.60048 202.98647 M 54.36670 195.30675 L 63.74655 211.50137 L 65.15970 202.28072 L 54.36670 195.30675 M 51.55926 197.22468 L 42.70015 217.62412 L 60.93910 213.41930 L 51.55926 197.22468 M 45.18610 183.35103 L 51.15443 190.11149 L 54.80972 183.67367 L 45.18610 183.35103 M 48.94521 174.01709 L 44.90995 181.33923 L 54.53357 181.66187 L 48.94521 174.01709 M 50.87891 171.66653 L 58.19804 173.69748 L 58.64878 168.14857 L 50.87891 171.66653 M 56.15562 180.90599 L 57.88639 175.29216 L 50.56726 173.26121 L 56.15562 180.90599 M 59.19514 183.02786 L 67.83091 186.70396 L 67.97840 180.94625 L 59.19514 183.02786 M 38.55542 171.55867 L 42.91268 180.07633 L 46.94794 172.75419 L 38.55542 171.55867 M 40.12589 162.91621 L 38.20707 169.41366 L 46.59959 170.60918 L 40.12589 162.91621 M 41.36369 161.99062 L 47.83738 169.68359 L 48.10942 162.00891 L 41.36369 161.99062 M 41.44832 159.92744 L 48.19406 159.94573 L 48.51447 153.17815 L 41.44832 159.92744 M 25.54590 165.12662 L 27.55654 180.58554 L 34.47118 170.76774 L 25.54590 165.12662 M 24.25222 168.05241 L 24.12180 194.17409 L 26.26286 183.51133 L 24.25222 168.05241 M 28.16037 185.53402 L 26.01930 196.19678 L 39.43227 184.23388 L 28.16037 185.53402 M 28.48219 196.97682 L 47.86349 191.77438 L 41.89516 185.01392 L 28.48219 196.97682 M 28.06922 200.85681 L 38.59142 216.05381 L 47.45052 195.65436 L 28.06922 200.85681 M 26.72057 240.65783 L 37.10741 243.35366 L 37.29233 225.77606 L 26.72057 240.65783 M 24.34053 244.18660 L 24.47276 252.46210 L 28.50660 248.42662 L 24.34053 244.18660 M 31.43728 248.90336 L 37.53131 253.58024 L 37.65804 247.35919 L 31.43728 248.90336 M 30.57548 250.47648 L 30.76362 259.94416 L 36.66951 255.15336 L 30.57548 250.47648 M 39.50917 246.93971 L 39.38244 253.16076 L 46.24631 245.54757 L 39.50917 246.93971 M 39.22809 256.27737 L 39.79358 262.12026 L 44.57279 258.41649 L 39.22809 256.27737 M 41.82532 272.50804 L 44.45392 278.41341 L 49.22218 271.79647 L 41.82532 272.50804 M 45.71581 279.43048 L 51.92039 280.64462 L 50.48407 272.81354 L 45.71581 279.43048 M 45.92457 281.50376 L 52.15419 289.39977 L 52.12916 282.71790 L 45.92457 281.50376 M 44.45523 282.26265 L 40.37444 288.78899 L 50.68485 290.15866 L 44.45523 282.26265 M 34.44157 279.16287 L 42.60635 279.33421 L 39.97774 273.42884 L 34.44157 279.16287 M 30.26176 271.39925 L 32.89849 278.17100 L 38.43467 272.43697 L 30.26176 271.39925 M 56.57352 270.09680 L 58.00985 277.92788 L 94.43143 257.69656 L 56.57352 270.09680 M 58.21861 280.00116 L 58.24364 286.68303 L 94.64019 259.76984 L 58.21861 280.00116 M 113.23461 260.21116 L 140.15504 287.74549 L 143.65699 282.91059 L 113.23461 260.21116 M 109.36033 243.06541 L 127.25264 209.83992 L 121.69082 206.50440 L 109.36033 243.06541 M 150.65776 283.81499 L 160.31324 280.47955 L 156.08336 275.61670 L 150.65776 283.81499 M 149.42469 286.84996 L 145.92273 291.68486 L 159.37618 291.72612 L 149.42469 286.84996 M 164.69444 282.61142 L 164.99046 290.82301 L 181.18150 287.79548 L 164.69444 282.61142 M 165.04062 280.36514 L 181.52768 285.54920 L 167.75989 272.85277 L 165.04062 280.36514 M 184.97541 283.45491 L 187.09613 267.21584 L 176.73398 267.15344 L 184.97541 283.45491 M 186.80705 288.86304 L 170.61601 291.89058 L 209.69888 291.15191 L 186.80705 288.86304 M 187.08925 292.39875 L 287.59050 292.44459 L 257.17460 292.14396 L 187.08925 292.39875 M 209.88713 216.07948 L 238.52416 230.19825 L 244.25630 213.87981 L 209.88713 216.07948 M 207.65071 208.41837 L 234.57719 189.76720 L 228.07547 185.36087 L 207.65071 208.41837 M 204.09058 206.80427 L 224.51534 183.74677 L 206.09620 176.85438 L 204.09058 206.80427 M 184.86952 181.60849 L 164.43474 205.94832 L 195.05644 209.79934 L 184.86952 181.60849 M 189.53056 177.88008 L 199.71749 206.07093 L 201.72310 176.12105 L 189.53056 177.88008 M 195.79893 166.65626 L 189.04074 172.95324 L 201.23328 171.19421 L 195.79893 166.65626 M 200.69765 159.49523 L 197.25604 164.97401 L 202.69040 169.51196 L 200.69765 159.49523 M 204.40813 157.33424 L 212.27275 159.48904 L 221.06805 155.54804 L 204.40813 157.33424 M 192.13903 157.15799 L 188.03618 164.35426 L 194.67684 164.14124 L 192.13903 157.15799 M 182.51751 165.67709 L 154.74789 161.44366 L 182.39999 171.76105 L 182.51751 165.67709 M 151.55290 164.74524 L 156.95759 192.08968 L 179.20500 175.06263 L 151.55290 164.74524 M 157.98864 197.04071 L 159.80127 204.35350 L 180.23604 180.01366 L 157.98864 197.04071 M 106.16239 149.67855 L 100.49766 153.27566 L 104.48365 161.50544 L 106.16239 149.67855 M 105.25263 144.01687 L 107.85664 134.30893 L 88.93679 129.51711 L 105.25263 144.01687 M 114.14938 137.56931 L 111.54536 147.27725 L 139.27869 155.60016 L 114.14938 137.56931 M 127.53735 127.00138 L 116.14837 135.03483 L 141.27769 153.06567 L 127.53735 127.00138 M 130.18817 125.79427 L 143.92851 151.85856 L 137.35493 125.37791 L 130.18817 125.79427 M 133.97312 113.54950 L 127.29133 113.39229 L 127.96384 120.20597 L 133.97312 113.54950 M 137.05196 113.79117 L 138.20943 120.03128 L 144.75528 115.74201 L 137.05196 113.79117 M 129.10398 111.85633 L 135.78577 112.01353 L 142.46502 107.91826 L 129.10398 111.85633 M 147.84641 106.78537 L 154.98729 109.30235 L 158.33495 104.37145 L 147.84641 106.78537 M 154.90978 111.99953 L 148.79297 115.52866 L 156.69081 119.90278 L 154.90978 111.99953 M 161.70844 104.05088 L 165.02217 111.33867 L 168.17290 101.86392 L 161.70844 104.05088 M 164.40698 94.51010 L 149.02387 104.93633 L 159.51241 102.52242 L 164.40698 94.51010 M 166.82883 93.85283 L 161.93427 101.86515 L 168.39874 99.67819 L 166.82883 93.85283 M 173.93375 100.79801 L 197.70047 115.02805 L 180.87778 90.76834 L 173.93375 100.79801 M 172.49164 103.58436 L 169.34091 113.05911 L 196.25836 117.81440 L 172.49164 103.58436 M 177.25827 87.90328 L 168.74433 92.10760 L 170.31424 97.93295 L 177.25827 87.90328 M 177.30508 86.21757 L 170.68873 84.44720 L 168.79115 90.42188 L 177.30508 86.21757 M 172.26514 76.98791 L 171.12298 82.76796 L 177.73933 84.53832 L 172.26514 76.98791 M 179.67840 72.83571 L 173.33457 75.74638 L 178.80876 83.29679 L 179.67840 72.83571 M 179.17749 70.24318 L 174.80148 62.55658 L 172.83366 73.15386 L 179.17749 70.24318 M 187.56910 64.49062 L 182.78969 70.92028 L 192.57577 77.31369 L 187.56910 64.49062 M 191.70353 55.67835 L 189.19593 61.08437 L 198.30346 61.89934 L 191.70353 55.67835 M 189.65816 54.55936 L 181.94046 52.94742 L 187.15056 59.96538 L 189.65816 54.55936 M 189.24969 45.30016 L 182.20286 51.11427 L 189.92055 52.72621 L 189.24969 45.30016 M 177.67279 43.87104 L 168.26415 43.89119 L 171.54111 48.34932 L 177.67279 43.87104 M 178.63398 52.32872 L 172.36174 50.86668 L 174.68865 58.08973 L 178.63398 52.32872 M 180.27432 53.54015 L 176.32899 59.30116 L 185.48441 60.55810 L 180.27432 53.54015 M 166.49981 52.15397 L 131.73853 62.62704 L 168.82672 59.37702 L 166.49981 52.15397 M 168.87802 61.92278 L 131.78983 65.17280 L 166.91020 72.52006 L 168.87802 61.92278 M 164.88950 82.31896 L 130.91130 69.19166 L 162.99192 88.29364 L 164.88950 82.31896 M 191.76876 79.72665 L 181.98268 73.33324 L 181.11303 83.79432 L 191.76876 79.72665 M 194.04777 84.68677 L 183.39204 88.75444 L 200.21472 113.01414 L 194.04777 84.68677 M 204.26199 80.83388 L 234.49328 98.17981 L 241.04147 68.91281 L 204.26199 80.83388 M 198.66047 64.50349 L 189.55295 63.68852 L 194.55962 76.51159 L 198.66047 64.50349 M 212.10429 38.97663 L 206.70329 47.61486 L 238.82506 58.64367 L 212.10429 38.97663 M 220.75030 33.39912 L 213.86016 37.19967 L 240.58094 56.86671 L 220.75030 33.39912 M 217.05576 29.46539 L 211.02462 25.39681 L 210.16562 33.26593 L 217.05576 29.46539 M 207.45317 24.61871 L 195.86851 23.84714 L 199.20984 31.88127 L 207.45317 24.61871 M 193.70010 24.62962 L 190.10593 30.87855 L 197.04143 32.66375 L 193.70010 24.62962 M 189.16134 22.65079 L 165.69796 22.61092 L 180.60054 23.12185 L 189.16134 22.65079 M 181.87962 25.00180 L 179.52474 31.40157 L 186.84625 30.77966 L 181.87962 25.00180 M 179.93136 24.30867 L 171.26017 25.23467 L 177.57648 30.70844 L 179.93136 24.30867 M 177.52112 33.85117 L 171.94687 36.40005 L 178.74642 41.42779 L 177.52112 33.85117 M 168.89498 36.34563 L 162.51461 33.39566 L 166.28589 41.39352 L 168.89498 36.34563 M 160.78377 32.49222 L 155.04824 29.11814 L 164.55505 40.49008 L 160.78377 32.49222 M 159.56721 23.91011 L 154.42476 27.04564 L 160.16029 30.41973 L 159.56721 23.91011 M 151.15109 23.01617 L 92.83137 23.26824 L 146.00865 26.15171 L 151.15109 23.01617 M 151.08924 32.39372 L 129.11172 58.69686 L 160.59604 43.76566 L 151.08924 32.39372 M 170.12743 26.51305 L 170.86950 34.53571 L 176.44375 31.98682 L 170.12743 26.51305 M 186.68488 32.77629 L 179.36337 33.39820 L 180.58868 40.97482 L 186.68488 32.77629 M 228.43764 28.60083 L 222.57248 32.32427 L 242.40312 55.79185 L 228.43764 28.60083 M 229.28896 22.63200 L 199.62840 22.69098 L 211.21306 23.46255 L 229.28896 22.63200 M 232.64338 22.79153 L 214.56748 23.62208 L 226.46378 23.96721 L 232.64338 22.79153 M 267.19809 29.68083 L 261.37094 26.98338 L 251.02078 55.31842 L 267.19809 29.68083 M 269.64047 31.51643 L 253.46316 57.15402 L 280.90998 41.66816 L 269.64047 31.51643 M 280.26264 27.88149 L 286.72646 25.26374 L 273.26447 26.44121 L 280.26264 27.88149 M 284.89427 24.67263 L 265.60513 23.15266 L 271.43228 25.85011 L 284.89427 24.67263 M 296.51979 24.71187 L 290.88299 25.38292 L 294.41607 30.68349 L 296.51979 24.71187 M 305.69582 23.52423 L 387.11345 22.70234 L 280.76987 22.67530 L 305.69582 23.52423 M 308.48955 26.85110 L 314.17306 25.58074 L 300.67129 24.30802 L 308.48955 26.85110 M 306.60804 29.02417 L 296.68607 32.45272 L 301.22471 36.99370 L 306.60804 29.02417 M 317.10956 25.26632 L 331.98158 24.33569 L 303.60780 23.99360 L 317.10956 25.26632 M 317.86090 31.99901 L 316.32176 26.54211 L 310.63825 27.81247 L 317.86090 31.99901 M 323.73137 38.76724 L 319.05100 34.75800 L 313.93951 40.41820 L 323.73137 38.76724 M 321.79400 47.79604 L 324.07424 40.39699 L 314.28238 42.04796 L 321.79400 47.79604 M 319.16433 57.23148 L 313.81244 52.16313 L 313.68727 59.01712 L 319.16433 57.23148 M 319.49015 59.22754 L 314.01309 61.01318 L 316.41897 68.13165 L 319.49015 59.22754 M 312.65964 61.83839 L 308.66253 65.82924 L 315.06552 68.95687 L 312.65964 61.83839 M 311.42219 60.42709 L 305.16592 57.66642 L 307.42508 64.41793 L 311.42219 60.42709 M 307.55425 67.04886 L 303.79339 71.59536 L 313.95724 70.17649 L 307.55425 67.04886 M 299.87377 72.73857 L 293.00846 70.40896 L 293.22646 77.10525 L 299.87377 72.73857 M 304.55319 79.66539 L 301.31687 73.89562 L 294.66955 78.26230 L 304.55319 79.66539 M 315.16502 82.60621 L 307.82001 81.90753 L 310.22275 89.73091 L 315.16502 82.60621 M 318.02132 91.24129 L 316.44019 83.77293 L 311.49791 90.89763 L 318.02132 91.24129 M 322.18826 97.59275 L 318.73983 92.96876 L 312.21642 92.62510 L 322.18826 97.59275 M 325.79925 90.90973 L 320.43768 92.75434 L 323.88612 97.37833 L 325.79925 90.90973 M 334.43447 92.96537 L 331.21605 84.81946 L 328.16889 89.53774 L 334.43447 92.96537 M 334.32580 96.70203 L 326.14708 99.74300 L 332.25981 108.24412 L 334.32580 96.70203 M 344.14675 88.25781 L 333.21328 84.65946 L 336.43171 92.80538 L 344.14675 88.25781 M 345.18266 72.47574 L 339.80811 75.34450 L 345.85183 84.96396 L 345.18266 72.47574 M 337.02450 73.33376 L 335.60812 67.12686 L 330.37396 72.21620 L 337.02450 73.33376 M 334.44226 66.08856 L 327.69764 65.02734 L 329.20811 71.17790 L 334.44226 66.08856 M 328.30897 55.78298 L 323.10217 51.14010 L 321.82115 56.75846 L 328.30897 55.78298 M 338.32361 47.52795 L 325.16497 49.98628 L 330.37177 54.62916 L 338.32361 47.52795 M 354.07695 48.74053 L 351.01810 41.57598 L 343.83009 45.93918 L 354.07695 48.74053 M 355.00803 57.24723 L 354.65837 51.72289 L 345.07291 57.10923 L 355.00803 57.24723 M 353.99574 59.25900 L 344.06062 59.12099 L 346.56005 67.81702 L 353.99574 59.25900 M 363.76116 47.26055 L 360.72669 41.02582 L 357.37025 48.82622 L 363.76116 47.26055 M 359.37672 40.22598 L 352.96143 40.86183 L 356.02028 48.02638 L 359.37672 40.22598 M 359.59365 38.13342 L 357.75568 31.28590 L 353.17835 38.76927 L 359.59365 38.13342 M 350.91704 37.29235 L 355.49437 29.80898 L 341.50314 26.31807 L 350.91704 37.29235 M 341.68385 24.03646 L 394.72769 22.87249 L 313.31006 23.69437 L 341.68385 24.03646 M 335.01878 26.64937 L 321.68591 33.03690 L 326.36628 37.04614 L 335.01878 26.64937 M 334.13028 25.29707 L 319.25826 26.22769 L 320.79741 31.68459 L 334.13028 25.29707 M 310.55724 42.95530 L 300.90600 47.10575 L 311.43595 49.25340 L 310.55724 42.95530 M 309.36106 41.78740 L 301.86657 39.91019 L 299.70982 45.93785 L 309.36106 41.78740 M 310.64985 50.73789 L 300.11989 48.59024 L 304.26842 54.83121 L 310.64985 50.73789 M 312.13625 52.02384 L 305.75482 56.11716 L 312.01108 58.87783 L 312.13625 52.02384 M 297.17287 45.88219 L 299.32961 39.85454 L 289.06541 41.34219 L 297.17287 45.88219 M 298.98934 38.34473 L 294.45070 33.80375 L 288.72514 39.83239 L 298.98934 38.34473 M 297.81829 63.66911 L 292.00927 60.24066 L 292.64483 67.52740 L 297.81829 63.66911 M 315.39393 72.57430 L 308.46641 79.76295 L 315.81142 80.46163 L 315.39393 72.57430 M 308.17510 93.80221 L 296.88201 94.07808 L 307.67414 107.07738 L 308.17510 93.80221 M 292.57767 90.36040 L 291.58438 80.85805 L 285.52581 86.56239 L 292.57767 90.36040 M 281.01458 95.21394 L 282.28470 88.83443 L 273.97756 96.45290 L 281.01458 95.21394 M 302.51654 110.98334 L 283.40243 100.56554 L 275.23632 122.46842 L 302.51654 110.98334 M 304.64056 114.62893 L 277.36033 126.11401 L 300.39456 129.73026 L 304.64056 114.62893 M 308.50340 138.27595 L 314.51192 131.37190 L 304.95172 132.94192 L 308.50340 138.27595 M 305.36597 141.46906 L 298.36590 143.39812 L 292.86084 149.65375 L 305.36597 141.46906 M 308.22744 145.40153 L 295.72231 153.58622 L 321.25768 174.85785 L 308.22744 145.40153 M 322.16945 135.02723 L 316.66413 131.63256 L 310.65562 138.53661 L 322.16945 135.02723 M 323.76667 133.36184 L 323.43336 125.21346 L 318.26135 129.96717 L 323.76667 133.36184 M 331.37513 130.62848 L 325.07258 125.29612 L 325.40589 133.44450 L 331.37513 130.62848 M 332.57091 129.26676 L 334.97217 122.55070 L 326.26837 123.93440 L 332.57091 129.26676 M 334.94313 120.56264 L 332.33865 113.36234 L 326.23933 121.94634 L 334.94313 120.56264 M 329.59722 112.30607 L 313.01169 112.11248 L 323.49790 120.89007 L 329.59722 112.30607 M 348.73443 118.33054 L 356.36498 111.39710 L 347.31812 112.23627 L 348.73443 118.33054 M 355.89079 120.56179 L 357.43656 112.43779 L 349.80601 119.37123 L 355.89079 120.56179 M 356.13772 109.42895 L 346.91633 102.58535 L 347.09086 110.26812 L 356.13772 109.42895 M 359.94756 98.42730 L 348.34469 90.49428 L 347.47896 99.16585 L 359.94756 98.42730 M 362.06344 95.82349 L 364.40595 78.33543 L 350.46057 87.89048 L 362.06344 95.82349 M 369.81173 106.69910 L 363.78361 101.30835 L 360.53640 108.89051 L 369.81173 106.69910 M 369.52223 118.03130 L 358.99032 121.96074 L 365.61616 126.36829 L 369.52223 118.03130 M 382.62500 117.01752 L 376.02536 124.70064 L 380.78391 127.88340 L 382.62500 117.01752 M 390.07481 121.30302 L 384.38118 116.59282 L 382.54009 127.45870 L 390.07481 121.30302 M 388.77538 129.94162 L 390.62409 122.97162 L 383.08937 129.12730 L 388.77538 129.94162 M 388.09060 133.17789 L 380.87085 138.63598 L 386.67963 142.58931 L 388.09060 133.17789 M 381.79387 130.90274 L 380.26013 137.17515 L 387.47988 131.71707 L 381.79387 130.90274 M 378.76805 136.60414 L 380.30179 130.33173 L 375.54324 127.14897 L 378.76805 136.60414 M 385.50165 144.48162 L 379.69288 140.52829 L 378.66681 148.31637 L 385.50165 144.48162 M 387.90529 152.37131 L 386.52820 145.96200 L 379.69336 149.79675 L 387.90529 152.37131 M 386.77315 153.93626 L 378.56122 151.36170 L 377.47108 158.48161 L 386.77315 153.93626 M 376.71964 148.82618 L 377.74571 141.03810 L 369.92428 148.56013 L 376.71964 148.82618 M 370.24950 161.28860 L 364.54429 153.90264 L 335.79591 176.65824 L 370.24950 161.28860 M 362.89499 152.24440 L 357.05509 148.02275 L 334.14660 175.00001 L 362.89499 152.24440 M 354.79545 146.61540 L 344.81783 140.98563 L 331.88696 173.59266 L 354.79545 146.61540 M 357.62565 141.42023 L 354.52859 132.03127 L 347.64803 135.79045 L 357.62565 141.42023 M 359.79198 141.65403 L 364.97867 137.66085 L 356.69491 132.26507 L 359.79198 141.65403 M 365.62979 136.12316 L 365.00097 129.35257 L 357.34604 130.72739 L 365.62979 136.12316 M 367.56316 135.64222 L 372.81298 126.87985 L 366.93434 128.87162 L 367.56316 135.64222 M 341.96468 135.01846 L 333.48664 131.84377 L 327.51741 134.65980 L 341.96468 135.01846 M 318.62056 177.51916 L 293.08520 156.24753 L 287.13051 166.69204 L 318.62056 177.51916 M 317.52430 181.59795 L 286.03425 170.77082 L 284.31508 188.87778 L 317.52430 181.59795 M 295.83527 210.41368 L 318.74943 186.55330 L 285.54021 193.83314 L 295.83527 210.41368 M 282.23631 164.27515 L 288.19099 153.83064 L 279.46693 158.18404 L 282.23631 164.27515 M 268.12651 122.07056 L 269.25560 101.40664 L 252.67513 106.56150 L 268.12651 122.07056 M 202.12589 127.66266 L 194.33044 151.88669 L 200.30986 153.39116 L 202.12589 127.66266 M 198.53997 123.30783 L 171.62252 118.55255 L 190.74452 147.53187 L 198.53997 123.30783 M 131.34555 67.51242 L 165.32375 80.63972 L 166.46592 74.85968 L 131.34555 67.51242 M 124.33632 73.58669 L 127.67280 107.05298 L 141.03384 103.11491 L 124.33632 73.58669 M 115.93133 73.07922 L 86.42248 98.01784 L 106.63926 107.58281 L 115.93133 73.07922 M 77.41506 75.89042 L 82.76946 94.05629 L 112.27831 69.11767 L 77.41506 75.89042 M 74.63860 64.42377 L 76.39870 72.18635 L 111.26195 65.41361 L 74.63860 64.42377 M 64.93940 54.36246 L 60.32537 61.42096 L 67.70572 61.99971 L 64.93940 54.36246 M 71.56916 45.79997 L 66.34487 52.40983 L 69.11120 60.04708 L 71.56916 45.79997 M 71.13695 43.08160 L 65.65351 38.30011 L 65.91266 49.69146 L 71.13695 43.08160 M 56.05498 46.47530 L 54.89069 53.70804 L 63.04102 51.78053 L 56.05498 46.47530 M 54.11984 46.27815 L 47.55990 50.20335 L 52.95555 53.51089 L 54.11984 46.27815 M 48.73433 35.26726 L 44.80293 39.25054 L 53.34449 43.03410 L 48.73433 35.26726 M 56.47270 33.22728 L 50.19305 34.51435 L 54.80321 42.28119 L 56.47270 33.22728 M 54.28276 25.90664 L 50.12800 32.46754 L 56.40765 31.18047 L 54.28276 25.90664 M 50.27804 24.60250 L 30.23778 25.02338 L 40.25538 26.88734 L 50.27804 24.60250 M 33.61610 34.69464 L 28.38437 37.80146 L 32.95348 41.73545 L 33.61610 34.69464 M 27.39166 39.57975 L 25.67441 48.92097 L 31.96077 43.51374 L 27.39166 39.57975 M 35.03167 45.12155 L 37.03422 52.95767 L 43.66996 50.01337 L 35.03167 45.12155 M 38.12340 54.65240 L 43.74517 58.67944 L 44.75914 51.70810 L 38.12340 54.65240 M 36.58412 55.87213 L 32.44485 61.46588 L 42.20588 59.89916 L 36.58412 55.87213 M 32.56262 62.93699 L 37.52628 67.64105 L 42.32365 61.37027 L 32.56262 62.93699 M 38.96575 69.83989 L 42.49621 74.72006 L 45.34526 69.37674 L 38.96575 69.83989 M 46.68833 70.07289 L 43.83928 75.41621 L 49.71032 75.40909 L 46.68833 70.07289 M 43.94411 61.97612 L 39.14674 68.24689 L 45.52625 67.78375 L 43.94411 61.97612 M 51.00818 77.97427 L 46.05875 83.78959 L 56.14957 84.78609 L 51.00818 77.97427 M 52.60255 77.31994 L 57.74394 84.13177 L 58.81369 78.55501 L 52.60255 77.31994 M 61.16766 71.26098 L 61.05194 76.77925 L 69.32304 74.20889 L 61.16766 71.26098 M 60.18425 86.90018 L 65.35768 93.69274 L 68.02138 87.09792 L 60.18425 86.90018 M 58.87622 88.07853 L 57.55718 96.52473 L 64.04965 94.87109 L 58.87622 88.07853 M 58.03225 98.73903 L 62.67673 105.79295 L 64.52472 97.08539 L 58.03225 98.73903 M 64.56869 110.90718 L 60.43707 117.84366 L 79.14751 124.00878 L 64.56869 110.90718 M 78.15299 103.65184 L 66.78318 109.13320 L 81.36200 122.23480 L 78.15299 103.65184 M 89.03564 126.15743 L 107.95549 130.94925 L 106.04340 117.13943 L 89.03564 126.15743 M 82.18403 130.81628 L 70.80701 142.78213 L 81.52742 147.23622 L 82.18403 130.81628 M 84.67429 148.11208 L 95.98201 149.78902 L 85.33090 131.69214 L 84.67429 148.11208 M 85.62705 151.41946 L 92.95300 158.15117 L 96.93477 153.09640 L 85.62705 151.41946 M 74.44761 153.78426 L 82.45208 162.05017 L 81.96171 151.92911 L 74.44761 153.78426 M 61.43358 151.57018 L 70.48025 151.91750 L 67.27394 145.60826 L 61.43358 151.57018 M 58.33900 154.67466 L 51.20257 160.65467 L 58.70041 164.81138 L 58.33900 154.67466 M 58.13117 144.61189 L 59.88994 150.65698 L 65.73031 144.69506 L 58.13117 144.61189 M 60.47782 132.92785 L 58.20465 142.39574 L 65.80379 142.47892 L 60.47782 132.92785 M 43.94450 128.78680 L 41.61904 139.49937 L 49.54625 131.79640 L 43.94450 128.78680 M 37.27725 131.61944 L 40.08541 139.47726 L 42.41088 128.76468 L 37.27725 131.61944 M 35.62264 133.22812 L 29.17397 141.63406 L 38.43080 141.08593 L 35.62264 133.22812 M 25.52536 128.60973 L 34.79211 129.41614 L 34.60461 119.80251 L 25.52536 128.60973 M 24.63091 131.18396 L 27.44898 140.39631 L 33.89765 131.99037 L 24.63091 131.18396 M 23.41500 134.30472 L 24.17038 156.95645 L 26.23307 143.51707 L 23.41500 134.30472 M 23.10169 139.95630 L 23.72665 188.72971 L 23.85708 162.60803 L 23.10169 139.95630 M 29.19581 143.54152 L 35.79740 148.48784 L 38.45265 142.99339 L 29.19581 143.54152 M 27.57874 145.53974 L 25.51605 158.97912 L 34.18032 150.48606 L 27.57874 145.53974 M 42.75990 143.20249 L 49.35063 149.58439 L 54.40787 144.32687 L 42.75990 143.20249 M 36.66181 119.50989 L 36.84930 129.12352 L 41.98293 126.26876 L 36.66181 119.50989 M 38.03846 118.60575 L 43.35958 125.36461 L 47.86250 121.89039 L 38.03846 118.60575 M 38.52148 117.26883 L 48.34552 120.55347 L 47.22372 114.66930 L 38.52148 117.26883 M 32.61245 110.40812 L 36.09584 115.37340 L 41.12603 107.75576 L 32.61245 110.40812 M 25.77150 116.20108 L 34.17652 116.42907 L 30.69313 111.46378 L 25.77150 116.20108 M 24.46227 99.59088 L 24.00369 105.50761 L 30.72336 100.76507 L 24.46227 99.59088 M 23.45821 97.29712 L 22.69089 82.41493 L 22.99963 103.21384 L 23.45821 97.29712 M 37.57359 89.41210 L 42.31917 84.90235 L 35.92790 83.36314 L 37.57359 89.41210 M 24.29901 79.16308 L 28.06209 88.60818 L 32.86882 82.63612 L 24.29901 79.16308 M 23.18436 80.79296 L 23.95169 95.67514 L 26.94745 90.23806 L 23.18436 80.79296 M 29.26412 73.77769 L 24.44926 77.30927 L 33.01908 80.78231 L 29.26412 73.77769 M 24.47292 51.03579 L 25.46186 32.68834 L 23.07721 69.43862 L 24.47292 51.03579 M 26.89927 26.94661 L 27.62759 35.95286 L 32.85932 32.84604 L 26.89927 26.94661 M 73.76673 25.08783 L 60.26027 31.28820 L 65.31766 34.25599 L 73.76673 25.08783 M 88.95709 27.47377 L 120.15686 56.66037 L 142.13437 30.35723 L 88.95709 27.47377 M 44.92347 106.17338 L 48.59553 111.19149 L 54.28975 100.34864 L 44.92347 106.17338 M 298.18362 284.23771 L 302.08871 278.32780 L 296.00500 277.39176 L 298.18362 284.23771 M 305.88050 291.10434 L 308.84251 285.88004 L 300.03132 286.60047 L 305.88050 291.10434 M 310.51714 283.75271 L 315.37244 279.99562 L 305.61104 278.56323 L 310.51714 283.75271 M 312.33666 285.18323 L 320.16725 290.00739 L 317.19196 281.42614 L 312.33666 285.18323 M 325.16375 291.34937 L 341.01186 290.17097 L 333.48531 288.51627 L 325.16375 291.34937 M 333.28606 286.30036 L 335.89114 280.68951 L 328.49123 280.88762 L 333.28606 286.30036 M 328.35758 279.38080 L 335.75750 279.18270 L 332.21690 274.24582 L 328.35758 279.38080 M 326.66079 278.43484 L 330.52010 273.29986 L 322.18317 271.61503 L 326.66079 278.43484 M 331.35344 270.15291 L 331.09322 260.14504 L 325.25072 261.58230 L 331.35344 270.15291 M 337.24807 278.06505 L 340.28213 270.43966 L 333.70746 273.12818 L 337.24807 278.06505 M 340.92006 266.72844 L 342.61173 258.38312 L 334.08518 259.40908 L 340.92006 266.72844 M 352.86044 282.14639 L 351.16380 273.54024 L 347.20108 278.14063 L 352.86044 282.14639 M 354.31026 281.59500 L 358.79961 273.72951 L 352.61362 272.98885 L 354.31026 281.59500 M 361.72902 289.07107 L 362.83654 281.38256 L 355.77163 284.23225 L 361.72902 289.07107 M 363.48368 289.08585 L 369.80885 284.35049 L 364.59119 281.39734 L 363.48368 289.08585 M 364.38781 290.28829 L 371.82425 291.01684 L 370.71298 285.55293 L 364.38781 290.28829 M 366.84956 291.79950 L 359.41312 291.07094 L 330.91547 291.81417 L 366.84956 291.79950 M 424.90616 289.00522 L 426.20743 277.24896 L 420.37922 276.92366 L 424.90616 289.00522 M 415.51869 241.59739 L 398.63009 219.44365 L 391.14220 244.12908 L 415.51869 241.59739 M 419.92321 215.32585 L 413.66284 215.75122 L 420.38689 237.98676 L 419.92321 215.32585 M 421.32382 214.01499 L 421.78749 236.67590 L 424.86769 205.26432 L 421.32382 214.01499 M 426.00735 205.46316 L 426.99572 258.72553 L 426.37259 193.75488 L 426.00735 205.46316 M 423.28102 199.33140 L 414.20615 195.55077 L 414.62519 201.74387 L 423.28102 199.33140 M 412.01092 192.36574 L 413.71989 185.94686 L 404.42926 186.46314 L 412.01092 192.36574 M 410.56925 193.93089 L 402.98759 188.02829 L 402.18651 198.46806 L 410.56925 193.93089 M 415.62426 186.47623 L 413.91530 192.89510 L 419.66428 190.69802 L 415.62426 186.47623 M 423.26729 175.52838 L 425.74815 180.46725 L 424.11577 169.07164 L 423.26729 175.52838 M 422.10306 174.55455 L 422.95155 168.09782 L 416.43432 172.67662 L 422.10306 174.55455 M 422.76014 164.58457 L 422.52022 154.41213 L 414.29447 161.19985 L 422.76014 164.58457 M 424.19014 162.58779 L 425.73450 145.22556 L 423.95022 152.41534 L 424.19014 162.58779 M 426.43474 164.43666 L 427.21563 64.64585 L 426.34672 135.67882 L 426.43474 164.43666 M 413.34694 159.58948 L 421.57269 152.80176 L 415.17991 151.70161 L 413.34694 159.58948 M 410.85127 159.38772 L 412.68424 151.49985 L 401.60732 151.18770 L 410.85127 159.38772 M 409.16718 160.32319 L 399.92323 152.12317 L 399.21152 158.98356 L 409.16718 160.32319 M 411.80576 149.25839 L 403.82343 141.45601 L 400.72884 148.94624 L 411.80576 149.25839 M 413.34919 135.73154 L 412.78296 126.67509 L 408.58779 132.12032 L 413.34919 135.73154 M 415.10866 135.16469 L 422.66351 127.58553 L 414.54243 126.10825 L 415.10866 135.16469 M 406.04931 132.54178 L 400.16469 128.83568 L 403.12114 137.36410 L 406.04931 132.54178 M 398.70696 125.65708 L 402.19986 119.83537 L 393.85098 121.46312 L 398.70696 125.65708 M 397.25016 126.88533 L 392.39419 122.69137 L 390.54548 129.66138 L 397.25016 126.88533 M 393.05089 139.13149 L 389.61311 133.23983 L 388.20213 142.65125 L 393.05089 139.13149 M 397.11084 161.93212 L 391.34332 166.52434 L 398.84097 172.45910 L 397.11084 161.93212 M 384.34372 178.01828 L 387.63232 167.25212 L 378.20904 162.92300 L 384.34372 178.01828 M 377.87305 188.14123 L 383.12381 180.62942 L 376.98913 165.53413 L 377.87305 188.14123 M 372.07472 188.18042 L 371.19080 165.57333 L 336.73721 180.94296 L 372.07472 188.18042 M 391.56966 193.14738 L 384.94637 184.08108 L 379.69561 191.59289 L 391.56966 193.14738 M 394.04663 192.47235 L 399.51140 186.19267 L 387.42335 183.40605 L 394.04663 192.47235 M 400.10610 184.20728 L 398.80431 176.58927 L 388.01806 181.42066 L 400.10610 184.20728 M 399.45905 201.97220 L 392.06181 203.02293 L 396.94787 210.47350 L 399.45905 201.97220 M 394.95356 210.53516 L 390.06751 203.08459 L 383.50460 202.46551 L 394.95356 210.53516 M 393.48183 212.69365 L 382.03287 204.62400 L 378.29361 220.35252 L 393.48183 212.69365 M 343.78541 222.25034 L 329.32093 191.23129 L 332.73364 224.09835 L 343.78541 222.25034 M 424.86933 139.80001 L 423.95437 129.29700 L 416.39952 136.87616 L 424.86933 139.80001 M 426.07259 137.43591 L 426.02562 117.96338 L 425.15763 126.93291 L 426.07259 137.43591 M 423.86677 125.22144 L 424.73475 116.25191 L 415.74569 123.74415 L 423.86677 125.22144 M 412.21147 123.04404 L 411.16892 116.21096 L 405.62458 118.96146 L 412.21147 123.04404 M 419.97534 109.51505 L 414.08640 114.09363 L 424.11801 113.43447 L 419.97534 109.51505 M 420.43551 106.44495 L 423.92867 98.99448 L 418.41727 100.90270 L 420.43551 106.44495 M 416.37934 101.84285 L 407.62529 106.51574 L 418.39759 107.38511 L 416.37934 101.84285 M 423.26250 97.35190 L 415.10618 93.30428 L 417.75110 99.26011 L 423.26250 97.35190 M 426.23261 104.10588 L 427.14850 52.54544 L 425.94465 87.10594 L 426.23261 104.10588 M 418.91197 85.57750 L 415.29649 90.89020 L 423.81436 89.30776 L 418.91197 85.57750 M 403.69054 81.47826 L 398.12214 75.68613 L 400.54537 86.01819 L 403.69054 81.47826 M 399.26228 86.68841 L 396.83905 76.35635 L 393.42582 86.84005 L 399.26228 86.68841 M 397.89916 96.23955 L 399.39479 89.17381 L 393.55833 89.32545 L 397.89916 96.23955 M 396.90721 97.60979 L 392.56639 90.69569 L 391.45924 100.13573 L 396.90721 97.60979 M 397.16370 99.74993 L 391.71572 102.27586 L 394.61828 107.81678 L 397.16370 99.74993 M 389.03366 100.55900 L 384.40237 92.45935 L 383.24100 99.65559 L 389.03366 100.55900 M 389.02607 102.96834 L 383.23341 102.06493 L 384.34169 111.73410 L 389.02607 102.96834 M 393.17080 109.42988 L 390.26825 103.88896 L 385.58386 112.65472 L 393.17080 109.42988 M 393.31498 111.35501 L 385.72804 114.57986 L 391.42167 119.29006 L 393.31498 111.35501 M 403.16614 106.44702 L 398.59500 100.27132 L 396.04958 108.33817 L 403.16614 106.44702 M 404.38246 105.32251 L 405.78017 99.34211 L 399.81132 99.14682 L 404.38246 105.32251 M 405.34081 97.45047 L 400.86760 90.18944 L 399.37197 97.25518 L 405.34081 97.45047 M 407.58018 70.88121 L 399.33701 63.50942 L 398.42006 72.00771 L 407.58018 70.88121 M 422.86269 67.15147 L 412.14761 57.89921 L 411.71942 69.71827 L 422.86269 67.15147 M 424.13949 64.66489 L 421.93387 49.82562 L 413.42441 55.41262 L 424.13949 64.66489 M 425.81682 63.20024 L 426.84303 43.69538 L 423.61120 48.36097 L 425.81682 63.20024 M 427.19635 57.75580 L 426.28046 109.31624 L 426.32743 128.78877 L 427.19635 57.75580 M 427.13274 47.96608 L 426.10653 67.47094 L 425.92889 82.52657 L 427.13274 47.96608 M 422.45388 45.53806 L 425.68571 40.87247 L 416.55825 40.61698 L 422.45388 45.53806 M 409.80500 40.81526 L 388.84047 32.42442 L 398.51981 55.77062 L 409.80500 40.81526 M 423.89757 29.90260 L 415.22323 25.01578 L 415.55617 37.11786 L 423.89757 29.90260 M 423.66769 70.09114 L 412.52443 72.65794 L 418.58767 81.41652 L 423.66769 70.09114 M 385.38662 71.38355 L 370.89080 74.51026 L 385.50099 77.90391 L 385.38662 71.38355 M 384.17671 68.90936 L 375.82169 58.11041 L 369.68089 72.03607 L 384.17671 68.90936 M 363.61945 72.41150 L 356.44060 60.92031 L 349.00490 69.47833 L 363.61945 72.41150 M 362.65281 75.41811 L 348.03825 72.48494 L 348.70742 84.97316 L 362.65281 75.41811 M 375.40362 91.37987 L 381.34108 89.02975 L 369.31936 77.96828 L 375.40362 91.37987 M 381.63152 32.56304 L 368.08293 46.58893 L 375.36134 51.24447 L 381.63152 32.56304 M 380.15826 31.00728 L 363.57519 38.79845 L 366.60966 45.03318 L 380.15826 31.00728" fill="none" stroke="black" stroke-width="0.01cm" />
   </g>
</svg>