<?xml version="1.0" standalone="no"?>
  <!DOCTYPE svg PUBLIC "-//W3C//DTD SVG 1.1//EN" 
    "http://www.w3.org/Graphics/SVG/1.1/DTD/svg11.dtd">
  <svg width="12.7cm" height="8.89cm"
       xmlns="http://www.w3.org/2000/svg" version="1.1" viewBox="0 0 449.99999 314.99999">
   <g>
     <path d="M 221.38187 157.80696 L 222.02572 164.07925 L 227.02155 159.88055 L 221.38187 157.80696 M 218.49831 157.28958 L 211.39617 155.00524 L 211.69903 164.29814 L 218.49831 157.28958 M 209.39431 155.85418 L 202.48341 164.08112 L 209.69716 165.14708 L 209.39431 155.85418 M 204.52054 148.18264 L 201.22245 152.80566 L 208.67902 152.71641 L 204.52054 148.18264 M 211.63522 145.18250 L 205.82213 147.22974 L 209.98062 151.76352 L 211.63522 145.18250 M 213.24388 146.15652 L 211.58928 152.73754 L 218.69142 155.02188 L 213.24388 146.15652 M 206.71445 136.58661 L 198.11346 136.47897 L 203.95681 144.57636 L 206.71445 136.58661 M 205.31268 128.39116 L 198.28294 134.45582 L 206.88394 134.56346 L 205.31268 128.39116 M 195.44766 128.12193 L 187.28158 132.40090 L 195.00879 134.18562 L 195.44766 128.12193 M 194.67185 126.79269 L 188.80232 123.55170 L 186.50577 131.07166 L 194.67185 126.79269 M 186.30506 134.02103 L 187.63551 141.08295 L 194.03227 135.80575 L 186.30506 134.02103 M 196.42949 137.91070 L 193.24274 148.04048 L 202.27284 146.00810 L 196.42949 137.91070 M 198.26608 155.03208 L 187.78040 157.76701 L 198.81174 163.16977 L 198.26608 155.03208 M 181.20754 148.76368 L 184.86338 155.64242 L 189.61703 150.31685 L 181.20754 148.76368 M 166.49346 150.25463 L 175.54226 189.58581 L 181.66461 160.17130 L 166.49346 150.25463 M 170.18675 128.18922 L 160.50909 128.50967 L 163.54779 139.91483 L 170.18675 128.18922 M 180.13822 119.02611 L 174.85050 125.14835 L 185.89244 122.03060 L 180.13822 119.02611 M 189.04740 113.79861 L 185.77367 109.06961 L 181.70245 116.32491 L 189.04740 113.79861 M 184.07659 108.69058 L 175.47082 110.76640 L 180.00538 115.94589 L 184.07659 108.69058 M 177.63253 100.42961 L 185.24395 105.67788 L 188.34987 99.16841 L 177.63253 100.42961 M 175.95943 101.65608 L 174.96507 108.98018 L 183.57085 106.90435 L 175.95943 101.65608 M 173.91290 101.26504 L 167.19861 103.77605 L 172.91854 108.58914 L 173.91290 101.26504 M 165.69212 105.22928 L 161.86100 112.89094 L 171.41206 110.04237 L 165.69212 105.22928 M 171.53585 111.69129 L 161.98479 114.53986 L 166.68250 118.42062 L 171.53585 111.69129 M 152.85146 110.20938 L 152.29769 118.33810 L 158.31044 114.36603 L 152.85146 110.20938 M 151.42845 98.89229 L 143.72359 100.64828 L 151.13412 106.52454 L 151.42845 98.89229 M 144.59634 90.19421 L 142.90637 98.60698 L 150.61123 96.85100 L 144.59634 90.19421 M 134.52246 91.70284 L 123.44246 88.40040 L 138.76829 97.83566 L 134.52246 91.70284 M 128.82798 85.87244 L 122.19992 86.90500 L 133.27992 90.20744 L 128.82798 85.87244 M 137.47568 81.87747 L 130.73745 85.24400 L 135.18939 89.57900 L 137.47568 81.87747 M 144.59097 77.17444 L 139.94934 80.58378 L 143.59887 86.00535 L 144.59097 77.17444 M 152.68745 80.00004 L 146.21714 86.82025 L 155.41732 85.09231 L 152.68745 80.00004 M 157.30556 87.37504 L 154.12027 95.75977 L 161.77850 91.60509 L 157.30556 87.37504 M 162.60856 93.39251 L 154.95034 97.54719 L 163.94611 101.67444 L 162.60856 93.39251 M 164.85286 93.62340 L 166.19040 101.90533 L 172.90469 99.39432 L 164.85286 93.62340 M 176.24357 90.90875 L 166.10950 92.24883 L 174.16133 98.01975 L 176.24357 90.90875 M 178.92488 91.55300 L 176.84264 98.66400 L 187.55999 97.40280 L 178.92488 91.55300 M 186.12220 88.46428 L 180.08483 90.27804 L 188.71993 96.12784 L 186.12220 88.46428 M 185.53532 86.45276 L 184.02491 80.03571 L 179.49795 88.26652 L 185.53532 86.45276 M 182.48467 79.69977 L 173.21344 83.76528 L 177.95771 87.93059 L 182.48467 79.69977 M 180.53153 71.25769 L 175.38906 75.47457 L 183.01239 76.92604 L 180.53153 71.25769 M 172.22558 76.82002 L 164.49493 77.95581 L 170.57767 82.33700 L 172.22558 76.82002 M 166.89962 64.46050 L 164.03517 75.72125 L 171.76582 74.58546 L 166.89962 64.46050 M 164.29835 63.55078 L 150.95566 67.30768 L 161.43390 74.81153 L 164.29835 63.55078 M 149.61647 68.99697 L 153.58487 77.06506 L 160.09472 76.50081 L 149.61647 68.99697 M 147.90389 68.79033 L 146.39408 74.84773 L 151.87229 76.85843 L 147.90389 68.79033 M 146.59142 57.86329 L 149.10035 65.18915 L 162.44304 61.43225 L 146.59142 57.86329 M 150.68194 50.50861 L 146.78911 56.02822 L 162.64074 59.59719 L 150.68194 50.50861 M 147.68770 49.45151 L 138.68685 51.14038 L 143.79488 54.97112 L 147.68770 49.45151 M 146.70555 41.49843 L 141.08137 40.78309 L 148.27717 46.80373 L 146.70555 41.49843 M 149.62236 34.30109 L 140.19539 32.96140 L 146.75657 39.24017 L 149.62236 34.30109 M 156.71025 37.58578 L 151.68672 34.87914 L 148.82093 39.81821 L 156.71025 37.58578 M 162.28412 31.72318 L 153.36962 33.86726 L 158.39315 36.57390 L 162.28412 31.72318 M 163.80212 32.71993 L 159.91114 37.57065 L 165.51359 41.84127 L 163.80212 32.71993 M 166.05315 23.99470 L 158.32572 25.38019 L 163.68591 29.38248 L 166.05315 23.99470 M 164.33380 23.28014 L 149.93108 23.66595 L 156.60637 24.66562 L 164.33380 23.28014 M 158.16612 23.04603 L 107.26493 22.79280 L 143.76340 23.43185 L 158.16612 23.04603 M 172.04319 26.08781 L 171.38743 40.59693 L 204.53458 33.00370 L 172.04319 26.08781 M 164.95227 43.46592 L 159.34982 39.19529 L 159.31155 45.71708 L 164.95227 43.46592 M 138.98253 33.56479 L 139.91955 39.12822 L 145.54372 39.84356 L 138.98253 33.56479 M 135.51449 31.87502 L 127.11636 28.49892 L 127.13449 35.26495 L 135.51449 31.87502 M 135.35177 24.83505 L 128.14352 27.19518 L 136.54165 30.57128 L 135.35177 24.83505 M 125.11521 28.61970 L 119.50527 32.84124 L 125.13334 35.38573 L 125.11521 28.61970 M 127.70337 37.76774 L 130.73038 42.95785 L 137.02038 39.94125 L 127.70337 37.76774 M 128.86616 45.27471 L 120.92333 45.02054 L 127.02243 53.54019 L 128.86616 45.27471 M 119.60469 45.91290 L 118.31705 52.41359 L 125.70379 54.43255 L 119.60469 45.91290 M 117.48493 45.08900 L 108.74567 47.84137 L 116.19729 51.58969 L 117.48493 45.08900 M 110.73045 40.65684 L 108.06231 46.47476 L 116.80157 43.72239 L 110.73045 40.65684 M 98.45790 46.44879 L 105.76935 46.81556 L 108.43749 40.99764 L 98.45790 46.44879 M 94.26085 48.17363 L 87.51340 48.61287 L 88.91995 54.72390 L 94.26085 48.17363 M 86.36567 39.03783 L 81.02073 35.53272 L 85.75847 45.46543 L 86.36567 39.03783 M 86.41436 27.92543 L 88.21023 36.72341 L 96.96583 32.24292 L 86.41436 27.92543 M 85.60608 22.69381 L 36.82218 22.58610 L 70.17766 23.00080 L 85.60608 22.69381 M 91.56233 23.04784 L 76.13391 23.35483 L 84.47216 25.41836 L 91.56233 23.04784 M 94.26086 23.95941 L 87.17069 26.32993 L 97.72216 30.64742 L 94.26086 23.95941 M 100.45452 22.87500 L 111.17867 23.63348 L 129.45711 23.58416 L 100.45452 22.87500 M 104.13656 22.85794 L 133.13915 23.56710 L 140.63503 23.49698 L 104.13656 22.85794 M 107.52991 24.48760 L 96.80576 23.72912 L 100.26707 30.41713 L 107.52991 24.48760 M 112.46097 25.01219 L 117.92122 31.54455 L 123.53116 27.32300 L 112.46097 25.01219 M 116.42651 55.79245 L 106.62729 66.66583 L 121.66632 64.08936 L 116.42651 55.79245 M 122.17169 66.34737 L 107.13267 68.92384 L 120.46950 73.85653 L 122.17169 66.34737 M 125.04917 66.67994 L 123.34698 74.18910 L 130.15245 71.58440 L 125.04917 66.67994 M 119.98019 76.02394 L 106.64336 71.09126 L 118.25722 83.68670 L 119.98019 76.02394 M 122.58618 77.67578 L 120.86321 85.33854 L 127.49126 84.30598 L 122.58618 77.67578 M 118.58484 93.99941 L 95.66145 136.49487 L 133.91067 103.43466 L 118.58484 93.99941 M 136.32649 65.30357 L 133.59774 71.39414 L 143.07719 73.85317 L 136.32649 65.30357 M 137.30908 52.61942 L 136.66552 61.28382 L 142.41711 56.45016 L 137.30908 52.61942 M 87.09280 60.43416 L 67.93239 79.30649 L 97.39755 68.87237 L 87.09280 60.43416 M 65.37970 54.13066 L 85.30980 55.46853 L 83.90326 49.35750 L 65.37970 54.13066 M 62.84344 57.69971 L 63.61312 77.90991 L 82.77354 59.03758 L 62.84344 57.69971 M 58.56458 60.19698 L 48.54269 79.01572 L 59.33427 80.40718 L 58.56458 60.19698 M 55.82379 58.31823 L 37.40799 65.37720 L 45.80190 77.13697 L 55.82379 58.31823 M 35.59419 48.13814 L 34.34977 54.24702 L 54.34980 53.85945 L 35.59419 48.13814 M 39.84617 39.18236 L 36.28124 46.25506 L 55.03685 51.97637 L 39.84617 39.18236 M 47.41953 34.15279 L 41.23846 37.66958 L 56.42914 50.46359 L 47.41953 34.15279 M 36.25970 27.89710 L 30.70106 30.94936 L 37.13980 34.80625 L 36.25970 27.89710 M 34.94996 26.51382 L 26.66191 23.74002 L 29.39132 29.56608 L 34.94996 26.51382 M 32.27579 22.62934 L 49.23490 23.03971 L 65.63127 23.04404 L 32.27579 22.62934 M 25.99382 37.63355 L 32.65086 44.46221 L 36.21580 37.38951 L 25.99382 37.63355 M 25.74117 44.28295 L 31.34153 45.32389 L 24.68449 38.49523 L 25.74117 44.28295 M 23.64697 54.10785 L 24.61666 59.97121 L 29.71862 55.58940 L 23.64697 54.10785 M 23.87764 62.10955 L 22.90795 56.24619 L 23.80648 72.69610 L 23.87764 62.10955 M 33.81182 67.57090 L 27.05447 75.86785 L 42.20574 79.33068 L 33.81182 67.57090 M 23.79705 77.25951 L 22.89853 60.80960 L 23.80225 98.61685 L 23.79705 77.25951 M 36.12982 88.86680 L 37.19659 95.86219 L 43.59019 83.91848 L 36.12982 88.86680 M 28.26053 98.83379 L 32.28335 104.09160 L 35.06591 99.21109 L 28.26053 98.83379 M 31.03299 104.94171 L 27.01018 99.68391 L 25.06309 106.01202 L 31.03299 104.94171 M 69.44797 90.18143 L 87.60361 134.83821 L 110.52700 92.34275 L 69.44797 90.18143 M 75.34778 35.17895 L 59.50566 31.43451 L 61.56197 49.88482 L 75.34778 35.17895 M 98.83039 139.84347 L 143.93637 120.78824 L 137.07961 106.78326 L 98.83039 139.84347 M 92.11246 159.77829 L 102.96071 206.62120 L 117.59394 200.36367 L 92.11246 159.77829 M 86.76478 161.06705 L 83.19688 209.90936 L 89.22863 208.67439 L 86.76478 161.06705 M 120.48354 199.06789 L 126.07750 196.25498 L 95.00206 158.48251 L 120.48354 199.06789 M 122.43064 206.81935 L 116.10788 211.19409 L 122.49561 213.30650 L 122.43064 206.81935 M 124.75663 214.96703 L 127.67668 219.71971 L 131.21098 213.23848 L 124.75663 214.96703 M 123.41900 215.94035 L 120.50995 221.02501 L 126.33905 220.69303 L 123.41900 215.94035 M 132.87630 214.11665 L 129.34200 220.59788 L 138.07919 221.99240 L 132.87630 214.11665 M 137.71344 211.92485 L 142.91633 219.80061 L 168.03911 203.06354 L 137.71344 211.92485 M 145.12922 222.11465 L 155.41661 230.43716 L 170.25201 205.37758 L 145.12922 222.11465 M 131.24514 230.04331 L 138.27415 240.08605 L 138.89041 225.92738 L 131.24514 230.04331 M 129.58791 232.39287 L 125.63259 244.72385 L 136.61692 242.43561 L 129.58791 232.39287 M 140.83596 240.68700 L 151.73960 234.85084 L 141.45222 226.52832 L 140.83596 240.68700 M 140.65353 246.28299 L 140.11949 258.19412 L 151.43049 253.54898 L 140.65353 246.28299 M 126.56045 247.86012 L 137.01073 257.48301 L 137.54477 245.57188 L 126.56045 247.86012 M 115.84309 252.58768 L 122.96064 256.81161 L 122.58803 248.56505 L 115.84309 252.58768 M 115.49825 242.28066 L 122.13468 245.33897 L 119.22538 238.08385 L 115.49825 242.28066 M 111.57036 233.09204 L 118.36369 234.74659 L 118.30728 224.49226 L 111.57036 233.09204 M 101.13081 223.95022 L 102.33184 229.25604 L 108.16000 221.14639 L 101.13081 223.95022 M 102.93119 215.68360 L 101.20573 222.25366 L 108.23492 219.44984 L 102.93119 215.68360 M 81.34489 229.87224 L 85.61931 235.24918 L 87.20739 227.74871 L 81.34489 229.87224 M 87.88027 238.61044 L 93.67927 248.71894 L 95.22162 239.15334 L 87.88027 238.61044 M 105.36665 247.27755 L 112.81428 251.01364 L 112.92279 243.93270 L 105.36665 247.27755 M 98.48603 270.37694 L 108.34307 264.14542 L 101.70002 260.25821 L 98.48603 270.37694 M 98.58084 273.52300 L 103.33149 278.33853 L 107.56483 274.37959 L 98.58084 273.52300 M 86.84566 273.38830 L 93.85690 279.80597 L 95.22597 273.57590 L 86.84566 273.38830 M 85.58914 274.58721 L 85.17375 283.16719 L 92.60037 281.00488 L 85.58914 274.58721 M 85.27700 270.47401 L 90.13546 262.28035 L 84.82941 264.87291 L 85.27700 270.47401 M 83.65508 263.25344 L 88.96113 260.66088 L 75.88237 257.51827 L 83.65508 263.25344 M 77.14791 268.77165 L 83.65355 271.28542 L 83.20597 265.68432 L 77.14791 268.77165 M 74.22441 277.29707 L 82.53086 272.73701 L 76.02521 270.22324 L 74.22441 277.29707 M 74.23936 280.65537 L 76.56019 288.50964 L 82.13042 284.67529 L 74.23936 280.65537 M 76.53666 290.40659 L 70.54275 290.71555 L 85.61525 291.68771 L 76.53666 290.40659 M 68.91426 289.41049 L 74.90817 289.10154 L 72.58734 281.24727 L 68.91426 289.41049 M 67.72483 290.75807 L 53.99331 290.74675 L 82.79733 291.73023 L 67.72483 290.75807 M 60.31960 287.07607 L 67.09068 289.15731 L 70.76377 280.99409 L 60.31960 287.07607 M 59.13747 285.24018 L 69.58165 279.15819 L 57.63370 274.47015 L 59.13747 285.24018 M 40.31383 274.36058 L 47.64852 286.96914 L 53.10517 274.12919 L 40.31383 274.36058 M 39.72311 270.88877 L 52.51444 270.65738 L 42.92270 259.19469 L 39.72311 270.88877 M 33.64520 262.18050 L 37.36445 269.82916 L 40.56405 258.13508 L 33.64520 262.18050 M 31.71457 263.71005 L 25.11898 270.37146 L 35.43382 271.35871 L 31.71457 263.71005 M 24.72441 272.25095 L 28.55802 278.74593 L 35.03925 273.23820 L 24.72441 272.25095 M 23.70327 274.09344 L 26.87007 287.97815 L 27.53687 280.58843 L 23.70327 274.09344 M 28.90780 282.35966 L 28.24099 289.74938 L 34.67069 288.26328 L 28.90780 282.35966 M 36.64440 289.27768 L 30.21470 290.76379 L 44.69742 290.47488 L 36.64440 289.27768 M 44.96112 257.52812 L 54.55286 268.99081 L 56.03045 257.55624 L 44.96112 257.52812 M 44.03162 254.72998 L 55.10095 254.75810 L 47.11687 246.60567 L 44.03162 254.72998 M 36.67499 249.05401 L 33.55902 259.58361 L 40.47787 255.53818 L 36.67499 249.05401 M 30.89676 240.02362 L 28.83320 247.17653 L 35.08533 245.95161 L 30.89676 240.02362 M 32.08694 239.07794 L 36.27551 245.00592 L 38.35464 239.61104 L 32.08694 239.07794 M 29.73645 237.33918 L 29.14291 219.27281 L 24.33282 249.69539 L 29.73645 237.33918 M 30.81024 217.58380 L 31.40378 235.65017 L 37.67148 236.18328 L 30.81024 217.58380 M 53.86853 237.37760 L 48.52500 243.61284 L 57.93723 245.17501 L 53.86853 237.37760 M 60.96310 248.42735 L 59.53496 255.01761 L 70.09146 255.24389 L 60.96310 248.42735 M 68.45587 244.11315 L 62.07822 247.06429 L 71.20658 253.88084 L 68.45587 244.11315 M 76.91036 256.22691 L 89.98912 259.36952 L 91.87901 252.92257 L 76.91036 256.22691 M 74.25893 258.32968 L 75.97358 267.15218 L 82.03164 264.06486 L 74.25893 258.32968 M 61.08396 257.25176 L 73.35512 266.30054 L 71.64047 257.47804 L 61.08396 257.25176 M 66.57908 222.71539 L 69.63038 238.72082 L 77.27631 229.69872 L 66.57908 222.71539 M 85.61560 285.12368 L 89.12397 290.23915 L 93.04222 282.96137 L 85.61560 285.12368 M 90.89568 290.73647 L 99.78931 289.10230 L 94.81394 283.45870 L 90.89568 290.73647 M 103.59814 289.24096 L 109.24715 291.04966 L 110.74196 284.39351 L 103.59814 289.24096 M 110.88741 291.25577 L 116.72020 290.88983 L 112.38222 284.59961 L 110.88741 291.25577 M 120.29849 290.92540 L 127.73664 291.06641 L 127.73757 285.10910 L 120.29849 290.92540 M 131.66155 284.42899 L 131.66063 290.38630 L 151.69034 285.48449 L 131.66155 284.42899 M 133.63824 291.93513 L 120.36730 292.16006 L 180.78316 291.69292 L 133.63824 291.93513 M 125.74342 276.49344 L 128.71591 281.29171 L 131.09681 271.14189 L 125.74342 276.49344 M 120.20805 269.88788 L 129.98754 268.14322 L 124.26780 260.90920 L 120.20805 269.88788 M 110.58313 274.56611 L 112.34925 280.73572 L 116.72772 272.80448 L 110.58313 274.56611 M 126.28744 259.82315 L 132.00717 267.05717 L 136.36511 261.19949 L 126.28744 259.82315 M 134.38271 271.97815 L 132.00181 282.12797 L 152.03060 283.18348 L 134.38271 271.97815 M 141.94176 262.33328 L 155.23171 279.39629 L 153.25276 257.68814 L 141.94176 262.33328 M 156.84872 253.28482 L 167.43426 254.88671 L 162.10287 247.21295 L 156.84872 253.28482 M 164.55650 245.18531 L 175.31361 248.06365 L 171.05204 241.85909 L 164.55650 245.18531 M 172.90598 241.34417 L 177.16755 247.54873 L 179.38801 241.06594 L 172.90598 241.34417 M 171.39484 255.68507 L 177.77621 256.79331 L 176.82056 250.88964 L 171.39484 255.68507 M 171.69003 257.50128 L 179.18213 265.41938 L 178.07140 258.60953 L 171.69003 257.50128 M 179.52215 256.38550 L 185.36235 252.42262 L 178.56650 250.48184 L 179.52215 256.38550 M 189.32738 265.31396 L 193.28535 257.35495 L 188.08725 254.17835 L 189.32738 265.31396 M 191.83461 268.10836 L 202.68711 271.62157 L 201.25058 265.06127 L 191.83461 268.10836 M 190.94793 269.46494 L 194.15717 275.91397 L 201.80043 272.97815 L 190.94793 269.46494 M 184.50784 274.15286 L 187.63900 268.76029 L 181.66940 268.39742 L 184.50784 274.15286 M 185.78358 276.67153 L 188.66608 282.09777 L 192.12398 277.72799 L 185.78358 276.67153 M 190.26856 282.64410 L 198.60337 281.04214 L 193.72646 278.27432 L 190.26856 282.64410 M 190.53108 284.07779 L 195.82665 289.74386 L 198.86590 282.47583 L 190.53108 284.07779 M 195.31234 277.23066 L 200.18925 279.99848 L 202.95560 274.29485 L 195.31234 277.23066 M 201.86408 280.95869 L 208.71092 284.91235 L 204.63042 275.25506 L 201.86408 280.95869 M 206.80583 272.99675 L 217.26205 275.97548 L 212.89161 269.57077 L 206.80583 272.99675 M 203.45930 262.43301 L 210.27499 259.44795 L 204.12521 256.62759 L 203.45930 262.43301 M 195.78513 255.57290 L 201.90904 254.67942 L 198.00361 248.77450 L 195.78513 255.57290 M 194.16770 255.24674 L 196.38618 248.44834 L 188.96960 252.07014 L 194.16770 255.24674 M 191.12946 239.62988 L 196.97827 245.16860 L 197.33661 238.16937 L 191.12946 239.62988 M 200.29233 236.47803 L 207.51776 237.58112 L 207.19146 231.99525 L 200.29233 236.47803 M 209.22340 231.52384 L 209.54970 237.10972 L 216.54781 232.70677 L 209.22340 231.52384 M 215.00000 222.46081 L 218.60725 230.08838 L 222.30802 222.60722 L 215.00000 222.46081 M 214.69559 218.02646 L 219.90669 212.30697 L 218.26894 200.47943 L 214.69559 218.02646 M 222.19309 214.26257 L 224.29002 220.12847 L 229.25212 215.97784 L 222.19309 214.26257 M 222.49343 212.50752 L 229.55245 214.22279 L 226.69272 206.08805 L 222.49343 212.50752 M 225.29824 221.38640 L 230.25889 224.32606 L 230.26034 217.23578 L 225.29824 221.38640 M 232.99354 225.50841 L 239.79045 229.99842 L 240.37994 219.26495 L 232.99354 225.50841 M 241.66915 229.63362 L 248.02314 222.59000 L 242.25864 218.90014 L 241.66915 229.63362 M 251.39935 237.79391 L 258.07194 236.65700 L 253.29839 231.14898 L 251.39935 237.79391 M 252.35396 239.58627 L 260.93529 245.48784 L 259.02655 238.44935 L 252.35396 239.58627 M 245.80631 243.69792 L 248.79772 238.91556 L 242.14940 234.20288 L 245.80631 243.69792 M 245.56804 254.42176 L 251.73074 252.52224 L 246.51205 247.45632 L 245.56804 254.42176 M 243.93050 254.38546 L 244.87451 247.42002 L 238.63045 252.23184 L 243.93050 254.38546 M 252.06541 259.64058 L 252.42491 254.04527 L 246.26221 255.94479 L 252.06541 259.64058 M 245.57311 265.54450 L 251.20893 261.07798 L 245.40573 257.38219 L 245.57311 265.54450 M 246.34920 267.04711 L 251.61446 269.40312 L 251.98503 262.58060 L 246.34920 267.04711 M 250.91989 271.34502 L 245.65463 268.98901 L 246.42843 278.11581 L 250.91989 271.34502 M 256.97679 277.11837 L 259.41484 268.49879 L 253.62084 271.17973 L 256.97679 277.11837 M 264.59909 275.43643 L 260.78713 269.03088 L 258.34907 277.65046 L 264.59909 275.43643 M 265.92983 274.34425 L 268.99498 268.91299 L 262.11786 267.93870 L 265.92983 274.34425 M 272.60399 278.09831 L 270.30575 270.18294 L 267.24059 275.61420 L 272.60399 278.09831 M 273.90012 277.77406 L 277.60965 273.02018 L 271.60188 269.85869 L 273.90012 277.77406 M 278.16925 271.31210 L 278.37697 264.10939 L 272.16149 268.15061 L 278.16925 271.31210 M 279.88799 271.19013 L 285.91142 267.17488 L 280.09571 263.98742 L 279.88799 271.19013 M 280.83054 272.51215 L 287.63606 274.56360 L 286.85396 268.49690 L 280.83054 272.51215 M 282.38917 279.96927 L 287.07796 275.99764 L 280.27244 273.94620 L 282.38917 279.96927 M 289.64175 273.83866 L 296.87607 266.71269 L 288.85965 267.77197 L 289.64175 273.83866 M 296.45037 276.30524 L 297.82491 267.77935 L 290.59059 274.90532 L 296.45037 276.30524 M 304.48772 278.52643 L 299.56205 268.23199 L 298.18751 276.75787 L 304.48772 278.52643 M 305.87928 277.30648 L 309.31998 266.99832 L 300.95361 267.01205 L 305.87928 277.30648 M 309.89494 287.58946 L 313.09192 278.66195 L 307.29186 280.88882 L 309.89494 287.58946 M 311.22942 288.78665 L 317.96774 290.46641 L 314.42641 279.85915 L 311.22942 288.78665 M 299.50491 289.38625 L 304.48058 281.17071 L 298.18037 279.40216 L 299.50491 289.38625 M 292.81771 286.67951 L 298.04705 290.07485 L 296.72251 280.09076 L 292.81771 286.67951 M 280.58114 289.93528 L 296.02938 291.30542 L 290.80004 287.91008 L 280.58114 289.93528 M 277.10355 288.12119 L 280.67868 282.07895 L 274.85243 280.80975 L 277.10355 288.12119 M 258.13423 289.27421 L 266.39309 286.88789 L 258.25363 281.17210 L 258.13423 289.27421 M 236.36170 288.67381 L 231.23360 278.42989 L 222.65282 289.56560 L 236.36170 288.67381 M 231.16693 291.30293 L 286.82725 291.79460 L 257.39506 290.94504 L 231.16693 291.30293 M 233.59818 275.04099 L 243.51753 278.54885 L 236.77824 269.19045 L 233.59818 275.04099 M 229.84008 274.71716 L 225.27545 268.74952 L 221.19739 276.07539 L 229.84008 274.71716 M 226.84424 266.15045 L 234.58892 266.26756 L 230.56766 261.13337 L 226.84424 266.15045 M 232.57350 258.57653 L 242.39287 255.78002 L 237.09282 253.62640 L 232.57350 258.57653 M 236.52361 265.15133 L 242.32172 257.22064 L 232.50234 260.01715 L 236.52361 265.15133 M 260.08440 265.31407 L 261.96265 258.46310 L 254.66096 261.17248 L 260.08440 265.31407 M 262.19831 255.70897 L 261.61017 248.87632 L 255.25612 252.82304 L 262.19831 255.70897 M 264.14726 255.11832 L 270.84769 248.09784 L 263.55912 248.28567 L 264.14726 255.11832 M 273.19522 255.94313 L 278.07550 252.14526 L 273.46595 248.61833 L 273.19522 255.94313 M 278.62471 260.96635 L 278.72034 253.68876 L 273.84006 257.48663 L 278.62471 260.96635 M 287.41291 265.72156 L 291.89996 259.56363 L 281.59720 262.53411 L 287.41291 265.72156 M 292.15776 257.98604 L 289.47531 253.10086 L 281.85500 260.95652 L 292.15776 257.98604 M 295.84954 257.66350 L 304.17168 258.21027 L 300.38471 252.94422 L 295.84954 257.66350 M 299.23523 264.16472 L 304.02799 259.61283 L 295.70586 259.06606 L 299.23523 264.16472 M 297.40535 264.96632 L 293.87598 259.86766 L 289.38893 266.02559 L 297.40535 264.96632 M 290.63028 249.46107 L 296.03711 242.00567 L 288.37040 244.17873 L 290.63028 249.46107 M 289.46509 242.24316 L 297.13180 240.07010 L 299.38781 233.97644 L 289.46509 242.24316 M 281.25825 251.18677 L 288.78293 250.60870 L 286.52304 245.32637 L 281.25825 251.18677 M 260.82031 235.00622 L 273.38633 224.58772 L 256.04677 229.49821 L 260.82031 235.00622 M 255.05149 227.98115 L 272.39106 223.07067 L 252.85811 222.86978 L 255.05149 227.98115 M 276.01079 217.64581 L 274.46511 201.36091 L 266.02204 200.66630 L 276.01079 217.64581 M 278.14271 217.84064 L 283.07746 202.22495 L 276.59704 201.55574 L 278.14271 217.84064 M 277.28744 198.11510 L 283.76786 198.78431 L 283.66593 190.31553 L 277.28744 198.11510 M 274.09159 198.21878 L 273.02263 192.50882 L 265.64852 197.52417 L 274.09159 198.21878 M 264.51522 196.54869 L 271.88933 191.53333 L 265.02520 190.41490 L 264.51522 196.54869 M 262.68727 196.54905 L 263.19724 190.41526 L 257.26568 191.53622 L 262.68727 196.54905 M 255.21494 189.29820 L 258.07739 182.98819 L 249.35046 183.83393 L 255.21494 189.29820 M 249.21155 182.32213 L 257.93849 181.47638 L 254.10371 177.20378 L 249.21155 182.32213 M 247.67236 181.58642 L 252.56451 176.46806 L 245.62493 175.59067 L 247.67236 181.58642 M 243.46151 190.33512 L 245.57008 183.85785 L 235.80741 182.16648 L 243.46151 190.33512 M 245.69396 191.35736 L 253.66701 190.34434 L 247.80253 184.88008 L 245.69396 191.35736 M 251.98584 203.21244 L 254.18993 192.63589 L 246.21688 193.64890 L 251.98584 203.21244 M 253.89936 203.78385 L 261.52503 198.22012 L 256.10345 193.20729 L 253.89936 203.78385 M 266.57490 182.19394 L 256.27413 177.18775 L 260.10891 181.46036 L 266.57490 182.19394 M 276.89838 179.12364 L 278.14337 149.24306 L 270.87032 178.82934 L 276.89838 179.12364 M 279.72832 178.85772 L 293.50984 176.70201 L 280.97332 148.97714 L 279.72832 178.85772 M 285.13519 186.77209 L 294.03008 181.42638 L 280.24856 183.58209 L 285.13519 186.77209 M 293.52726 188.16262 L 295.68991 181.99894 L 286.79503 187.34466 L 293.52726 188.16262 M 286.85541 198.90638 L 295.25562 198.27371 L 293.48571 191.25556 L 286.85541 198.90638 M 306.43279 193.51296 L 305.52137 185.12241 L 296.80161 189.19504 L 306.43279 193.51296 M 309.11106 202.92340 L 307.10274 196.61536 L 299.24148 199.31558 L 309.11106 202.92340 M 321.87285 198.16154 L 309.93166 196.47110 L 311.93999 202.77914 L 321.87285 198.16154 M 322.41324 206.06242 L 323.43305 199.36046 L 313.50018 203.97805 L 322.41324 206.06242 M 323.54537 217.77108 L 322.85987 209.07174 L 317.40755 212.65135 L 323.54537 217.77108 M 317.00561 221.38375 L 322.81359 219.31008 L 316.67577 214.19035 L 317.00561 221.38375 M 317.49171 229.94825 L 315.71716 223.94470 L 310.40161 226.60070 L 317.49171 229.94825 M 311.03566 233.63902 L 316.90653 231.16004 L 309.81642 227.81249 L 311.03566 233.63902 M 302.23668 230.09081 L 307.48789 226.29466 L 304.74876 221.04785 L 302.23668 230.09081 M 299.13959 229.68040 L 301.65168 220.63745 L 282.71124 223.01144 L 299.13959 229.68040 M 301.41787 218.48030 L 297.26913 212.42320 L 282.47744 220.85429 L 301.41787 218.48030 M 304.73280 216.67451 L 308.99692 206.40795 L 300.58407 210.61741 L 304.73280 216.67451 M 306.42903 216.88229 L 314.15388 212.27971 L 310.69314 206.61574 L 306.42903 216.88229 M 309.83339 245.27546 L 317.11352 241.68665 L 311.06055 236.74897 L 309.83339 245.27546 M 317.35229 249.06619 L 317.89999 243.22630 L 310.61985 246.81511 L 317.35229 249.06619 M 315.45485 256.40721 L 317.04665 250.71380 L 310.31421 248.46273 L 315.45485 256.40721 M 326.47784 258.13927 L 319.06710 251.92337 L 317.47531 257.61678 L 326.47784 258.13927 M 326.92361 267.73884 L 341.33623 264.40360 L 330.00200 260.65063 L 326.92361 267.73884 M 335.07419 276.63772 L 341.97026 266.40198 L 327.55763 269.73723 L 335.07419 276.63772 M 335.56748 289.55035 L 341.82914 289.13014 L 335.94849 281.36453 L 335.56748 289.55035 M 345.68926 289.56229 L 356.00305 289.41803 L 350.25401 285.38620 L 345.68926 289.56229 M 360.29285 289.38144 L 370.09201 290.10373 L 364.45946 284.51548 L 360.29285 289.38144 M 365.65546 290.90011 L 345.54251 290.32209 L 339.28085 290.74229 L 365.65546 290.90011 M 371.56393 289.36435 L 372.06820 283.46644 L 365.93138 283.77610 L 371.56393 289.36435 M 365.35738 282.19387 L 371.49420 281.88421 L 366.97193 276.70649 L 365.35738 282.19387 M 363.50766 281.45692 L 365.12221 275.96954 L 356.69640 275.98859 L 363.50766 281.45692 M 353.95147 272.46243 L 356.62772 260.75142 L 347.29774 264.93964 L 353.95147 272.46243 M 346.40751 260.99745 L 355.73748 256.80922 L 346.82956 240.92489 L 346.40751 260.99745 M 357.16146 251.44946 L 357.79934 218.11936 L 348.25354 235.56513 L 357.16146 251.44946 M 341.27792 238.72867 L 322.65859 242.99248 L 329.52163 255.04827 L 341.27792 238.72867 M 340.27147 235.94690 L 321.47003 232.79405 L 321.65214 240.21071 L 340.27147 235.94690 M 342.91775 231.32028 L 338.78899 211.27500 L 328.14974 220.09021 L 342.91775 231.32028 M 356.35819 208.93800 L 349.76101 198.04380 L 342.68362 206.33848 L 356.35819 208.93800 M 360.09739 198.70604 L 351.93773 197.08975 L 358.53491 207.98394 L 360.09739 198.70604 M 350.75775 194.37697 L 358.91740 195.99326 L 349.09504 186.28168 L 350.75775 194.37697 M 340.30570 204.33339 L 347.38309 196.03871 L 337.33480 192.89727 L 340.30570 204.33339 M 337.82251 204.57748 L 334.85161 193.14135 L 327.51757 197.99139 L 337.82251 204.57748 M 333.77801 189.49500 L 331.23907 182.12213 L 324.43855 187.62954 L 333.77801 189.49500 M 332.33032 178.69575 L 340.69908 173.09635 L 327.33869 173.19083 L 332.33032 178.69575 M 329.66236 179.35298 L 324.67073 173.84805 L 319.35543 178.35416 L 329.66236 179.35298 M 324.77609 170.09915 L 330.84388 157.83246 L 319.12211 166.13450 L 324.77609 170.09915 M 317.83462 177.00137 L 323.14993 172.49526 L 317.49595 168.53061 L 317.83462 177.00137 M 307.11209 169.38902 L 312.18692 164.80794 L 286.09119 146.60350 L 307.11209 169.38902 M 320.99993 189.82704 L 311.06415 194.85209 L 323.00534 196.54253 L 320.99993 189.82704 M 340.85282 170.55755 L 333.56022 158.38534 L 327.49243 170.65203 L 340.85282 170.55755 M 343.58411 168.39350 L 349.34279 153.33963 L 336.29152 156.22130 L 343.58411 168.39350 M 353.28617 154.81459 L 347.52750 169.86846 L 367.83863 168.02094 L 353.28617 154.81459 M 351.58000 148.92935 L 354.76588 144.12436 L 345.24466 140.79786 L 351.58000 148.92935 M 349.26041 150.02744 L 342.92507 141.89595 L 336.20914 152.90910 L 349.26041 150.02744 M 354.73351 142.53670 L 351.32110 136.22808 L 345.21230 139.21020 L 354.73351 142.53670 M 349.96293 134.39115 L 343.86821 127.84133 L 343.85413 137.37328 L 349.96293 134.39115 M 350.88356 132.91361 L 351.21913 125.55291 L 344.78883 126.36379 L 350.88356 132.91361 M 340.61794 138.24569 L 335.91876 134.22818 L 328.78667 135.85596 L 340.61794 138.24569 M 340.32984 140.39292 L 328.49856 138.00320 L 333.61391 151.40607 L 340.32984 140.39292 M 334.41047 132.13753 L 328.55164 121.52053 L 327.27838 133.76532 L 334.41047 132.13753 M 324.90329 131.42169 L 326.17655 119.17690 L 315.40974 113.38851 L 324.90329 131.42169 M 320.04966 133.67101 L 310.55610 115.63783 L 287.34749 137.17149 L 320.04966 133.67101 M 330.97995 154.16538 L 325.86461 140.76251 L 319.25817 162.46742 L 330.97995 154.16538 M 365.63431 143.93428 L 357.31458 144.51641 L 354.12870 149.32140 L 365.63431 143.93428 M 367.25811 146.50733 L 355.75250 151.89445 L 370.30496 165.10080 L 367.25811 146.50733 M 367.84084 140.87449 L 369.12575 132.16137 L 362.17630 134.13828 L 367.84084 140.87449 M 374.53994 128.70825 L 405.04489 120.64247 L 373.69995 123.29218 L 374.53994 128.70825 M 369.94398 102.81799 L 362.63926 98.47267 L 363.35383 104.72995 L 369.94398 102.81799 M 370.74295 101.62027 L 369.74560 95.14823 L 363.43823 97.27495 L 370.74295 101.62027 M 372.53394 100.78449 L 377.76620 90.58872 L 371.53660 94.31245 L 372.53394 100.78449 M 369.62802 90.83718 L 375.85762 87.11345 L 357.26532 72.98234 L 369.62802 90.83718 M 359.79205 94.31057 L 353.73672 74.32901 L 353.93621 95.76008 L 359.79205 94.31057 M 350.28480 99.58222 L 340.14540 96.84728 L 340.52068 106.19158 L 350.28480 99.58222 M 352.15828 107.56615 L 351.78641 100.92208 L 342.02229 107.53144 L 352.15828 107.56615 M 360.69033 105.47248 L 354.11991 100.66471 L 354.49178 107.30878 L 360.69033 105.47248 M 344.10478 114.45446 L 338.80784 110.07474 L 330.90984 116.92345 L 344.10478 114.45446 M 330.83726 103.63506 L 323.86332 105.87897 L 327.77517 115.25510 L 330.83726 103.63506 M 330.53700 101.48563 L 325.37305 98.05966 L 323.56305 103.72954 L 330.53700 101.48563 M 337.11869 95.26054 L 330.90704 91.65968 L 332.65807 99.83352 L 337.11869 95.26054 M 327.97285 91.08899 L 318.80911 94.12102 L 324.55993 95.83687 L 327.97285 91.08899 M 327.51676 89.55671 L 320.91126 83.57862 L 318.35302 92.58874 L 327.51676 89.55671 M 315.55327 92.15460 L 318.11151 83.14448 L 305.11878 86.08358 L 315.55327 92.15460 M 313.40598 101.45924 L 315.29558 96.05996 L 307.50508 102.91715 L 313.40598 101.45924 M 311.96514 108.60107 L 312.98967 103.02687 L 307.08878 104.48479 L 311.96514 108.60107 M 308.50326 112.47362 L 303.62690 108.35734 L 285.29465 134.00728 L 308.50326 112.47362 M 301.53708 106.90730 L 291.78467 100.87328 L 283.20482 132.55724 L 301.53708 106.90730 M 301.13426 88.46794 L 294.02585 95.36212 L 303.77826 101.39614 L 301.13426 88.46794 M 299.68999 83.15144 L 293.91929 69.63056 L 290.88643 79.27920 L 299.68999 83.15144 M 287.90748 79.09129 L 284.99585 72.75538 L 281.80296 78.33541 L 287.90748 79.09129 M 283.94541 71.24808 L 279.50397 67.03293 L 280.75252 76.82812 L 283.94541 71.24808 M 291.12756 58.65355 L 281.54391 64.34702 L 291.92985 65.24944 L 291.12756 58.65355 M 289.45190 57.48526 L 278.52458 55.90307 L 279.86825 63.17872 L 289.45190 57.48526 M 289.95556 55.57945 L 283.89755 47.93227 L 279.02825 53.99726 L 289.95556 55.57945 M 291.51256 48.39168 L 285.45809 47.23157 L 291.51610 54.87875 L 291.51256 48.39168 M 302.84000 50.25214 L 293.68530 48.76925 L 293.68884 55.25632 L 302.84000 50.25214 M 301.28110 40.14863 L 294.63433 46.88079 L 303.78903 48.36368 L 301.28110 40.14863 M 310.10222 42.93483 L 303.21459 39.65539 L 305.72252 47.87043 L 310.10222 42.93483 M 311.41304 31.61238 L 308.27423 26.46869 L 303.64376 36.01936 L 311.41304 31.61238 M 306.43943 24.25538 L 314.09127 23.74542 L 284.45230 23.96652 L 306.43943 24.25538 M 298.20546 27.51344 L 292.82600 33.63541 L 300.45978 36.36023 L 298.20546 27.51344 M 287.75909 24.92511 L 303.14791 24.40284 L 281.16078 24.11398 L 287.75909 24.92511 M 286.54563 27.24396 L 283.71740 35.83898 L 289.67020 33.54755 L 286.54563 27.24396 M 285.15665 26.22758 L 278.55834 25.41645 L 282.32842 34.82259 L 285.15665 26.22758 M 276.83953 26.45532 L 271.40611 34.53852 L 280.60960 35.86146 L 276.83953 26.45532 M 275.17481 25.42049 L 267.29187 27.58280 L 269.74139 33.50369 L 275.17481 25.42049 M 270.35309 23.83228 L 299.99206 23.61118 L 193.64577 23.18146 L 270.35309 23.83228 M 268.19150 35.27977 L 265.74198 29.35889 L 262.77570 39.62917 L 268.19150 35.27977 M 268.69161 37.27696 L 263.27581 41.62636 L 269.74282 45.33641 L 268.69161 37.27696 M 268.67850 47.35024 L 262.21148 43.64019 L 260.17702 53.38758 L 268.67850 47.35024 M 269.09320 49.31759 L 260.59172 55.35493 L 265.52908 59.37903 L 269.09320 49.31759 M 255.69068 43.02472 L 222.32395 36.85719 L 247.84430 58.34140 L 255.69068 43.02472 M 244.98430 62.19595 L 219.46396 40.71174 L 232.81071 73.86111 L 244.98430 62.19595 M 257.32601 69.85985 L 251.13299 65.05800 L 250.28682 70.47153 L 257.32601 69.85985 M 257.52213 71.40046 L 250.48294 72.01215 L 252.70194 77.38295 L 257.52213 71.40046 M 258.94976 72.25702 L 254.12957 78.23951 L 261.90398 78.86463 L 258.94976 72.25702 M 261.69360 80.63008 L 253.91918 80.00496 L 257.26667 86.38060 L 261.69360 80.63008 M 268.90078 74.01795 L 264.95642 79.37345 L 271.65047 81.05797 L 268.90078 74.01795 M 271.97935 83.07951 L 265.28529 81.39499 L 271.53178 90.19025 L 271.97935 83.07951 M 280.35402 89.67022 L 279.80559 80.64226 L 274.57296 82.93809 L 280.35402 89.67022 M 265.54384 97.11131 L 270.17397 92.66304 L 259.50056 89.61830 L 265.54384 97.11131 M 263.81561 97.76302 L 257.77233 90.27001 L 256.34811 97.87674 L 263.81561 97.76302 M 262.18930 100.49841 L 254.72181 100.61212 L 244.76185 112.15311 L 262.18930 100.49841 M 253.25340 99.07363 L 247.24546 96.48157 L 246.49004 102.32354 L 253.25340 99.07363 M 252.68883 101.09264 L 245.92546 104.34255 L 242.72888 112.63363 L 252.68883 101.09264 M 242.56835 102.36591 L 236.92675 92.61597 L 228.27690 103.32055 L 242.56835 102.36591 M 239.72105 113.23428 L 242.91763 104.94320 L 228.62619 105.89784 L 239.72105 113.23428 M 238.82987 115.48772 L 227.73501 108.15128 L 235.78825 122.97075 L 238.82987 115.48772 M 232.97593 123.42403 L 224.92269 108.60456 L 216.33132 119.11395 L 232.97593 123.42403 M 234.23934 128.66361 L 224.43359 132.92241 L 228.19110 141.95228 L 234.23934 128.66361 M 219.43974 132.00303 L 207.95728 128.08456 L 209.52854 134.25686 L 219.43974 132.00303 M 213.03979 121.88804 L 208.39619 126.53846 L 219.87865 130.45693 L 213.03979 121.88804 M 211.19681 120.18801 L 205.13485 116.85674 L 206.55321 124.83844 L 211.19681 120.18801 M 221.87530 106.17049 L 208.59676 103.95147 L 213.28392 116.67988 L 221.87530 106.17049 M 203.65938 101.83035 L 192.66545 99.19988 L 198.05732 104.56035 L 203.65938 101.83035 M 198.42208 89.86131 L 188.41435 88.41219 L 191.01209 96.07575 L 198.42208 89.86131 M 192.10410 81.94217 L 185.60068 79.24516 L 187.11109 85.66222 L 192.10410 81.94217 M 229.52094 75.75476 L 216.17419 42.60538 L 218.66614 77.34513 L 229.52094 75.75476 M 231.86544 81.43346 L 221.01064 83.02383 L 234.93018 88.03495 L 231.86544 81.43346 M 234.13230 90.50725 L 220.21276 85.49612 L 225.48245 101.21183 L 234.13230 90.50725 M 244.75356 87.06983 L 239.08076 89.85439 L 245.47778 93.76235 L 244.75356 87.06983 M 250.61678 79.55791 L 243.43074 78.73159 L 245.80789 84.25569 L 250.61678 79.55791 M 254.88553 88.58959 L 246.72915 86.91173 L 247.45338 93.60425 L 254.88553 88.58959 M 255.84727 89.91596 L 248.41511 94.93062 L 254.42305 97.52269 L 255.84727 89.91596 M 274.14770 134.02663 L 264.61753 104.67522 L 247.19009 116.32993 L 274.14770 134.02663 M 271.22355 136.76059 L 244.26594 119.06389 L 241.22432 126.54692 L 271.22355 136.76059 M 225.60971 146.16897 L 214.99643 145.33544 L 220.44397 154.20081 L 225.60971 146.16897 M 222.86192 165.50978 L 228.07148 169.25118 L 227.85775 161.31108 L 222.86192 165.50978 M 229.86036 169.49735 L 237.17298 167.47909 L 229.64663 161.55724 L 229.86036 169.49735 M 230.33820 171.61544 L 233.46934 178.50200 L 237.65082 169.59718 L 230.33820 171.61544 M 235.81614 180.38462 L 245.57881 182.07599 L 243.53138 176.08024 L 235.81614 180.38462 M 225.59124 182.15318 L 227.53482 187.29183 L 231.81790 181.63893 L 225.59124 182.15318 M 217.15636 183.20464 L 225.70213 187.48754 L 223.75855 182.34889 L 217.15636 183.20464 M 216.32964 181.65553 L 222.93183 180.79978 L 219.08837 175.09464 L 216.32964 181.65553 M 212.00935 168.90728 L 214.96433 180.16896 L 217.72306 173.60808 L 212.00935 168.90728 M 212.65051 167.19328 L 218.36422 171.89408 L 220.09364 166.45702 L 212.65051 167.19328 M 220.67715 195.55700 L 229.54039 195.68921 L 226.73576 190.34228 L 220.67715 195.55700 M 219.61328 198.74530 L 221.25103 210.57283 L 225.45032 204.15336 L 219.61328 198.74530 M 228.25555 203.26026 L 234.82961 203.29576 L 231.28176 197.98441 L 228.25555 203.26026 M 220.35992 230.52924 L 229.02134 225.98774 L 224.06069 223.04808 L 220.35992 230.52924 M 220.88009 241.69141 L 225.96348 246.95322 L 227.69051 239.96439 L 220.88009 241.69141 M 211.04407 248.05549 L 217.76085 251.15605 L 218.11908 243.05740 L 211.04407 248.05549 M 210.03681 246.63357 L 217.11182 241.63548 L 209.70274 239.78065 L 210.03681 246.63357 M 210.59985 284.52308 L 216.97558 277.84452 L 206.51936 274.86578 L 210.59985 284.52308 M 212.10244 286.34540 L 218.54008 289.44433 L 218.47817 279.66684 L 212.10244 286.34540 M 182.07742 291.41575 L 141.35201 291.84210 L 188.49692 291.59988 L 182.07742 291.41575 M 163.07482 284.65542 L 183.77051 289.13088 L 182.01194 278.22270 L 163.07482 284.65542 M 162.41810 282.27490 L 181.35523 275.84218 L 178.51679 270.08675 L 162.41810 282.27490 M 177.77210 207.44004 L 181.04173 235.92546 L 187.18490 235.18849 L 177.77210 207.44004 M 182.92537 204.71601 L 205.44445 226.52118 L 209.16161 220.07655 L 182.92537 204.71601 M 184.12204 197.42511 L 213.93163 195.23862 L 211.44447 185.74101 L 184.12204 197.42511 M 182.31405 194.30722 L 209.63648 182.62311 L 199.46775 170.29546 L 182.31405 194.30722 M 138.95216 195.26194 L 170.20320 193.97214 L 161.15441 154.64097 L 138.95216 195.26194 M 210.79033 41.50673 L 195.19269 69.83813 L 204.53970 73.37391 L 210.79033 41.50673 M 213.37456 42.42221 L 207.12393 74.28939 L 215.86651 77.16196 L 213.37456 42.42221 M 289.39264 35.63333 L 283.43984 37.92476 L 284.32518 43.93020 L 289.39264 35.63333 M 290.38404 36.65698 L 285.31658 44.95385 L 291.37105 46.11396 L 290.38404 36.65698 M 317.68069 24.52150 L 310.02885 25.03146 L 313.16765 30.17515 L 317.68069 24.52150 M 321.99617 25.63970 L 324.96524 36.82360 L 337.07063 28.44686 L 321.99617 25.63970 M 321.39636 39.13596 L 313.91426 33.60572 L 313.03261 41.29215 L 321.39636 39.13596 M 319.99168 50.23957 L 322.15604 41.21519 L 313.79229 43.37138 L 319.99168 50.23957 M 318.17118 51.25268 L 311.97180 44.38449 L 307.59210 49.32009 L 318.17118 51.25268 M 338.16491 30.80362 L 326.05952 39.18036 L 330.75042 44.49381 L 338.16491 30.80362 M 356.80169 37.83771 L 342.00768 30.63579 L 334.59319 44.32598 L 356.80169 37.83771 M 369.36615 42.79841 L 362.18866 41.21341 L 355.71745 62.54470 L 369.36615 42.79841 M 380.81508 37.88779 L 374.14373 40.28918 L 380.08929 43.28725 L 380.81508 37.88779 M 380.35360 29.39384 L 370.81699 26.38587 L 373.06220 37.46748 L 380.35360 29.39384 M 390.84078 36.03879 L 392.86670 27.56949 L 384.77896 29.36661 L 390.84078 36.03879 M 389.40455 38.68752 L 382.72268 37.68759 L 381.99689 43.08704 L 389.40455 38.68752 M 391.81404 39.70299 L 389.87369 46.79943 L 396.53129 43.11450 L 391.81404 39.70299 M 402.21481 37.54159 L 393.35668 38.54577 L 398.07393 41.95727 L 402.21481 37.54159 M 401.83033 35.84433 L 394.99813 28.37920 L 392.97220 36.84851 L 401.83033 35.84433 M 403.58512 34.44761 L 407.01047 25.67473 L 396.75291 26.98248 L 403.58512 34.44761 M 403.63710 38.92565 L 399.49622 43.34133 L 404.73501 49.61825 L 403.63710 38.92565 M 414.37792 42.13415 L 405.49731 38.77475 L 406.59522 49.46735 L 414.37792 42.13415 M 414.05607 51.12292 L 415.44776 43.67767 L 407.66506 51.01087 L 414.05607 51.12292 M 414.03068 52.97760 L 407.63967 52.86555 L 415.24464 58.51509 L 414.03068 52.97760 M 414.00718 59.25442 L 406.40221 53.60487 L 404.13098 58.89221 L 414.00718 59.25442 M 414.19758 60.62866 L 404.32138 60.26645 L 407.92539 64.59882 L 414.19758 60.62866 M 408.77332 67.08997 L 409.27243 73.35515 L 416.87782 69.96026 L 408.77332 67.08997 M 406.25133 65.52833 L 402.64731 61.19596 L 400.80504 68.06475 L 406.25133 65.52833 M 401.17374 60.90164 L 394.46276 63.17378 L 399.33147 67.77043 L 401.17374 60.90164 M 400.86113 59.29893 L 396.83061 54.94870 L 394.15015 61.57107 L 400.86113 59.29893 M 394.79841 54.34583 L 384.60353 54.47592 L 392.11795 60.96819 L 394.79841 54.34583 M 391.55818 63.51983 L 384.58968 62.60356 L 389.77429 69.18298 L 391.55818 63.51983 M 379.77450 61.42419 L 379.22857 55.84820 L 358.76726 66.24032 L 379.77450 61.42419 M 378.17735 53.71532 L 371.36474 44.36115 L 357.71604 64.10744 L 378.17735 53.71532 M 380.97653 51.32271 L 380.10947 44.96662 L 374.16392 41.96854 L 380.97653 51.32271 M 382.50253 77.26390 L 380.18375 64.10115 L 359.17650 68.91728 L 382.50253 77.26390 M 382.10384 93.10791 L 376.87158 103.30368 L 406.23772 114.46593 L 382.10384 93.10791 M 407.33661 73.30745 L 406.83749 67.04227 L 401.39120 69.57869 L 407.33661 73.30745 M 422.94980 80.06827 L 410.58586 79.28475 L 414.52220 110.34831 L 422.94980 80.06827 M 425.19164 74.00140 L 424.85156 65.20826 L 420.43310 69.82299 L 425.19164 74.00140 M 425.85672 70.42028 L 425.75371 41.17402 L 425.51663 61.62713 L 425.85672 70.42028 M 424.44170 61.77754 L 423.74509 53.39610 L 418.19091 59.55181 L 424.44170 61.77754 M 425.36854 59.17362 L 425.60561 38.72051 L 424.67192 50.79218 L 425.36854 59.17362 M 422.67869 52.28706 L 415.91056 52.90529 L 417.12452 58.44278 L 422.67869 52.28706 M 422.70408 50.43239 L 417.32764 43.60536 L 415.93595 51.05061 L 422.70408 50.43239 M 423.80434 48.61954 L 424.73803 36.54787 L 418.42790 41.79252 L 423.80434 48.61954 M 423.39495 34.62313 L 413.05975 33.22161 L 417.08482 39.86778 L 423.39495 34.62313 M 417.21398 27.58958 L 413.07589 31.68683 L 423.41110 33.08835 L 417.21398 27.58958 M 416.95887 25.80053 L 422.80042 24.26212 L 411.39061 24.41168 L 416.95887 25.80053 M 349.11582 73.24026 L 332.96426 88.33552 L 339.17591 91.93639 L 349.11582 73.24026 M 317.69123 80.43346 L 312.19099 70.46644 L 304.69849 83.37256 L 317.69123 80.43346 M 321.73386 103.76632 L 323.54386 98.09644 L 315.90343 101.77986 L 321.73386 103.76632 M 320.49600 105.08884 L 314.66557 103.10238 L 313.64104 108.67658 L 320.49600 105.08884 M 372.87309 164.35041 L 376.29755 145.89136 L 369.82624 145.75694 L 372.87309 164.35041 M 397.32430 167.93872 L 379.73480 148.66408 L 376.31034 167.12314 L 397.32430 167.93872 M 411.17748 173.41600 L 402.55896 177.34780 L 417.01693 173.96001 L 411.17748 173.41600 M 419.32045 171.55350 L 421.46080 164.50290 L 413.00729 164.60232 L 419.32045 171.55350 M 420.43459 178.49753 L 421.92041 220.15462 L 422.57494 171.44694 L 420.43459 178.49753 M 418.06340 179.98873 L 403.60543 183.37653 L 419.54922 221.64582 L 418.06340 179.98873 M 422.35943 150.28179 L 424.42149 88.94290 L 415.99389 119.22294 L 422.35943 150.28179 M 405.90580 122.68013 L 375.40085 130.74590 L 380.58725 139.59343 L 405.90580 122.68013 M 405.20758 117.89561 L 375.84144 106.73335 L 373.86264 120.54532 L 405.20758 117.89561 M 373.77873 193.86675 L 393.76309 179.56201 L 375.25287 173.43713 L 373.77873 193.86675 M 410.31493 233.94894 L 366.36542 218.41020 L 372.19480 255.68318 L 410.31493 233.94894 M 384.72869 286.54583 L 393.91088 290.07036 L 381.53609 279.25302 L 384.72869 286.54583" fill="none" stroke="black" stroke-width="0.01cm" />
   </g>
</svg>