<?xml version="1.0" standalone="no"?>
  <!DOCTYPE svg PUBLIC "-//W3C//DTD SVG 1.1//EN" 
    "http://www.w3.org/Graphics/SVG/1.1/DTD/svg11.dtd">
  <svg width="12.7cm" height="8.89cm"
       xmlns="http://www.w3.org/2000/svg" version="1.1" viewBox="0 0 449.99999 314.99999">
   <g>
     <path d="M 230.67497 136.13684 L 265.11350 145.02185 L 264.55860 137.57066 L 230.67497 136.13684 M 225.29565 143.32698 L 236.14753 175.68116 L 245.11069 171.62261 L 225.29565 143.32698 M 222.66900 144.06105 L 224.09747 177.49518 L 233.52088 176.41523 L 222.66900 144.06105 M 238.52996 181.02742 L 244.35511 186.09712 L 247.49312 176.96887 L 238.52996 181.02742 M 233.82638 189.80596 L 242.64677 187.70175 L 236.82162 182.63206 L 233.82638 189.80596 M 234.26995 191.34427 L 240.37017 194.93856 L 243.09034 189.24007 L 234.26995 191.34427 M 231.69186 202.19908 L 240.87381 206.44326 L 239.83744 198.05612 L 231.69186 202.19908 M 235.45640 211.11415 L 240.63095 217.10693 L 241.38026 209.55058 L 235.45640 211.11415 M 224.57080 210.58361 L 227.76090 203.06770 L 220.76185 201.73330 L 224.57080 210.58361 M 215.56560 212.38166 L 223.04639 211.74786 L 219.23744 202.89755 L 215.56560 212.38166 M 209.52585 205.25317 L 213.87553 211.56982 L 217.54737 202.08571 L 209.52585 205.25317 M 211.70989 197.23909 L 209.25514 203.46183 L 217.27667 200.29437 L 211.70989 197.23909 M 212.97072 195.98997 L 218.53750 199.04525 L 219.34179 193.46890 L 212.97072 195.98997 M 220.33261 199.67235 L 227.33167 201.00674 L 221.13691 194.09599 L 220.33261 199.67235 M 222.42896 193.18130 L 228.62373 200.09205 L 230.66908 192.35480 L 222.42896 193.18130 M 223.61479 184.28496 L 221.80285 191.20541 L 230.04296 190.37891 L 223.61479 184.28496 M 210.89506 187.04920 L 219.40936 190.78920 L 221.22130 183.86875 L 210.89506 187.04920 M 209.72605 188.39799 L 211.86929 194.65907 L 218.24036 192.13799 L 209.72605 188.39799 M 198.74292 193.44988 L 209.43211 194.82305 L 207.28887 188.56198 L 198.74292 193.44988 M 198.69842 195.23328 L 206.93286 202.82919 L 209.38761 196.60645 L 198.69842 195.23328 M 199.87118 181.32611 L 197.54781 191.76277 L 206.09376 186.87486 L 199.87118 181.32611 M 176.43354 179.18648 L 193.84028 190.80172 L 196.16366 180.36507 L 176.43354 179.18648 M 166.58903 156.14054 L 170.70507 172.09400 L 171.85860 151.19394 L 166.58903 156.14054 M 175.26519 153.64138 L 174.11166 174.54144 L 193.84177 175.72002 L 175.26519 153.64138 M 162.86025 146.95689 L 165.60843 152.99840 L 170.87799 148.05180 L 162.86025 146.95689 M 163.49955 145.04441 L 171.51730 146.13932 L 170.72284 137.69855 L 163.49955 145.04441 M 154.82704 153.12273 L 163.60206 153.63227 L 160.85388 147.59076 L 154.82704 153.12273 M 154.15872 154.66995 L 155.50735 159.96844 L 162.93374 155.17948 L 154.15872 154.66995 M 152.10703 155.56469 L 146.52022 162.33745 L 153.45566 160.86319 L 152.10703 155.56469 M 143.43103 155.86559 L 145.26714 161.71275 L 150.85395 154.93999 L 143.43103 155.86559 M 145.91954 164.20023 L 147.30161 170.46694 L 152.85498 162.72597 L 145.91954 164.20023 M 149.14148 174.84462 L 149.09606 188.05716 L 166.23728 178.26814 L 149.14148 174.84462 M 131.81180 180.47472 L 143.95554 172.93694 L 136.84809 168.68154 L 131.81180 180.47472 M 124.87046 168.78972 L 129.42617 179.95632 L 134.46245 168.16314 L 124.87046 168.78972 M 122.42263 169.93553 L 114.87986 177.32959 L 126.97835 181.10213 L 122.42263 169.93553 M 133.05622 155.13509 L 136.60137 163.99985 L 140.49064 156.14139 L 133.05622 155.13509 M 110.89463 149.11645 L 126.52218 151.32700 L 107.39108 136.75200 L 110.89463 149.11645 M 97.17195 137.85431 L 107.22585 147.43236 L 103.72230 135.06791 L 97.17195 137.85431 M 95.74721 139.25428 L 92.32444 146.26765 L 105.80112 148.83233 L 95.74721 139.25428 M 86.09145 140.12463 L 89.86073 145.17919 L 93.28351 138.16582 L 86.09145 140.12463 M 80.09081 133.54792 L 77.77890 141.49363 L 83.28317 139.20203 L 80.09081 133.54792 M 81.28260 132.41367 L 84.47496 138.06778 L 87.31322 132.41961 L 81.28260 132.41367 M 72.22203 136.93807 L 76.39626 141.21063 L 78.70817 133.26493 L 72.22203 136.93807 M 70.12194 140.71278 L 64.52287 156.63584 L 71.68074 151.81214 L 70.12194 140.71278 M 77.61346 144.32606 L 74.99804 151.15286 L 86.88701 147.08902 L 77.61346 144.32606 M 75.81877 152.73925 L 84.17936 157.01719 L 87.70775 148.67541 L 75.81877 152.73925 M 64.76611 159.31589 L 72.06785 162.15314 L 71.92398 154.49218 L 64.76611 159.31589 M 63.35342 160.70707 L 60.62242 165.62164 L 70.65515 163.54432 L 63.35342 160.70707 M 61.39686 155.31372 L 66.99592 139.39066 L 46.67260 141.23516 L 61.39686 155.31372 M 60.80250 167.06166 L 64.79409 172.22722 L 70.83523 164.98434 L 60.80250 167.06166 M 64.47337 175.90356 L 61.53843 182.22811 L 67.21286 182.90493 L 64.47337 175.90356 M 77.60486 175.67787 L 85.18925 183.90460 L 87.70139 177.07555 L 77.60486 175.67787 M 82.54556 170.94024 L 77.27440 174.05732 L 87.37093 175.45500 L 82.54556 170.94024 M 84.90664 170.81093 L 89.73201 175.32570 L 96.16304 173.02287 L 84.90664 170.81093 M 91.24746 176.92668 L 97.03025 183.61879 L 97.67849 174.62385 L 91.24746 176.92668 M 89.96987 178.23123 L 87.45773 185.06028 L 95.75266 184.92334 L 89.96987 178.23123 M 86.97829 187.79934 L 87.73635 194.65111 L 93.67128 193.15501 L 86.97829 187.79934 M 78.42256 188.85798 L 85.83026 194.11398 L 85.07221 187.26221 L 78.42256 188.85798 M 70.65426 193.58250 L 76.28250 196.20801 L 75.75971 189.79290 L 70.65426 193.58250 M 69.77962 192.23273 L 74.88507 188.44313 L 69.28540 185.40984 L 69.77962 192.23273 M 60.24883 196.57025 L 66.00021 202.85302 L 67.78835 195.07388 L 60.24883 196.57025 M 49.15168 199.26818 L 43.68928 203.60445 L 51.27405 205.24911 L 49.15168 199.26818 M 42.44361 195.53332 L 42.58548 202.38998 L 48.04787 198.05370 L 42.44361 195.53332 M 43.11331 205.03307 L 44.54391 210.69712 L 50.69808 206.67773 L 43.11331 205.03307 M 45.35540 213.51220 L 48.14601 220.88925 L 52.96880 216.15730 L 45.35540 213.51220 M 43.84480 214.14065 L 40.88402 221.18485 L 46.63541 221.51770 L 43.84480 214.14065 M 35.85687 214.81179 L 39.53670 220.34661 L 42.49749 213.30241 L 35.85687 214.81179 M 40.05914 222.90870 L 37.24580 227.93149 L 45.81054 223.24155 L 40.05914 222.90870 M 29.19039 223.59507 L 35.16828 227.97568 L 37.98162 222.95289 L 29.19039 223.59507 M 27.47847 224.69989 L 24.28632 231.79149 L 33.45637 229.08051 L 27.47847 224.69989 M 25.90731 214.89646 L 27.57279 221.26831 L 32.68420 215.09132 L 25.90731 214.89646 M 26.28455 207.06357 L 25.74628 213.12087 L 32.52317 213.31573 L 26.28455 207.06357 M 22.73622 201.43112 L 22.73812 227.53884 L 24.26480 214.07539 L 22.73622 201.43112 M 23.92263 197.20458 L 25.98948 203.79155 L 31.69116 199.78382 L 23.92263 197.20458 M 23.78427 194.15537 L 29.85546 190.95396 L 26.57988 185.17851 L 23.78427 194.15537 M 31.41258 189.98636 L 36.24125 186.41459 L 28.13700 184.21091 L 31.41258 189.98636 M 32.92372 191.09863 L 40.22614 193.10908 L 37.75240 187.52686 L 32.92372 191.09863 M 32.47639 192.43469 L 34.17373 198.21534 L 39.77881 194.44514 L 32.47639 192.43469 M 38.57871 184.26394 L 44.98369 178.84521 L 35.60303 175.99616 L 38.57871 184.26394 M 33.63061 173.00394 L 40.09913 169.74041 L 25.71149 166.43883 L 33.63061 173.00394 M 44.45863 170.82037 L 47.37077 176.93296 L 51.20683 172.22946 L 44.45863 170.82037 M 44.73219 169.37026 L 51.48039 170.77936 L 49.55922 165.33210 L 44.73219 169.37026 M 22.92274 169.92006 L 22.91768 191.52613 L 25.71329 182.54927 L 22.92274 169.92006 M 24.45282 157.54622 L 37.85151 139.66692 L 24.55020 123.04400 L 24.45282 157.54622 M 45.77717 116.26221 L 34.35351 115.60552 L 41.31014 134.25331 L 45.77717 116.26221 M 41.21194 108.40658 L 34.34124 112.37468 L 45.76490 113.03137 L 41.21194 108.40658 M 27.52805 105.21945 L 24.06503 114.17218 L 30.40971 112.14731 L 27.52805 105.21945 M 28.58512 100.83120 L 38.33748 103.79096 L 25.65082 83.03432 L 28.58512 100.83120 M 23.76291 83.89045 L 23.23418 110.64007 L 26.69720 101.68734 L 23.76291 83.89045 M 28.10423 79.59530 L 40.79088 100.35195 L 48.21235 73.31909 L 28.10423 79.59530 M 34.44925 58.58293 L 26.54563 73.66547 L 40.52665 61.71965 L 34.44925 58.58293 M 32.80179 57.75114 L 27.34699 55.06529 L 24.89818 72.83368 L 32.80179 57.75114 M 26.32609 53.33756 L 24.63455 43.92927 L 23.87727 71.10594 L 26.32609 53.33756 M 40.22355 51.29614 L 36.15899 55.78676 L 42.23639 58.92348 L 40.22355 51.29614 M 42.19069 51.30392 L 44.20353 58.93127 L 51.89610 55.84905 L 42.19069 51.30392 M 47.39791 45.22811 L 42.58999 49.59103 L 52.29539 54.13616 L 47.39791 45.22811 M 49.57103 44.99142 L 54.46852 53.89946 L 59.97498 47.69743 L 49.57103 44.99142 M 50.11997 43.26991 L 60.52392 45.97593 L 58.86003 40.12744 L 50.11997 43.26991 M 48.59044 36.24078 L 48.62829 42.05302 L 57.36835 38.91055 L 48.59044 36.24078 M 45.93904 36.43079 L 36.15716 40.43061 L 45.97689 42.24303 L 45.93904 36.43079 M 35.87001 32.90918 L 34.89380 39.26388 L 44.67569 35.26406 L 35.87001 32.90918 M 42.32000 24.40660 L 27.75503 26.10495 L 34.81507 30.24069 L 42.32000 24.40660 M 44.58653 25.33384 L 37.08161 31.16792 L 45.88728 33.52280 L 44.58653 25.33384 M 57.22205 27.96527 L 49.66466 34.47981 L 58.44257 37.14958 L 57.22205 27.96527 M 59.44991 27.84307 L 60.67043 37.02738 L 67.48756 33.50222 L 59.44991 27.84307 M 65.36649 23.73134 L 49.06681 23.58994 L 57.92495 25.26437 L 65.36649 23.73134 M 67.78017 24.77899 L 60.33863 26.31202 L 68.37628 31.97117 L 67.78017 24.77899 M 77.55545 26.47005 L 71.39032 32.97309 L 77.68976 33.63823 L 77.55545 26.47005 M 85.90990 23.80148 L 71.74722 23.65229 L 78.50846 24.34144 L 85.90990 23.80148 M 86.89498 24.92396 L 79.49353 25.46391 L 79.62785 32.63209 L 86.89498 24.92396 M 90.02869 26.05168 L 90.46475 35.73277 L 96.86000 32.51277 L 90.02869 26.05168 M 93.66873 23.80944 L 99.66292 24.22409 L 120.42218 23.84129 L 93.66873 23.80944 M 96.81690 25.14256 L 90.82271 24.72791 L 97.65402 31.18900 L 96.81690 25.14256 M 105.78446 26.47688 L 98.68712 25.36118 L 99.52424 31.40762 L 105.78446 26.47688 M 106.76411 27.55747 L 100.50390 32.48820 L 106.52436 34.00587 L 106.76411 27.55747 M 106.78318 36.53933 L 100.05675 41.44579 L 109.54058 41.40098 L 106.78318 36.53933 M 109.37080 42.99106 L 99.88696 43.03587 L 105.42491 49.25991 L 109.37080 42.99106 M 112.46370 43.74809 L 114.38792 52.89897 L 118.76008 46.21010 L 112.46370 43.74809 M 106.12001 52.17947 L 103.52356 57.24150 L 111.99012 55.06150 L 106.12001 52.17947 M 112.19336 56.49292 L 103.72681 58.67292 L 107.74594 63.63085 L 112.19336 56.49292 M 116.21917 55.49163 L 122.65658 59.80387 L 125.04846 53.48828 L 116.21917 55.49163 M 123.59083 63.04540 L 121.88270 69.60134 L 127.79322 68.55234 L 123.59083 63.04540 M 124.92250 61.97240 L 129.12488 67.47934 L 132.53602 61.01734 L 124.92250 61.97240 M 127.05573 53.96788 L 124.66385 60.28346 L 132.27737 59.32840 L 127.05573 53.96788 M 134.74340 50.11135 L 128.31567 52.69636 L 133.53732 58.05689 L 134.74340 50.11135 M 136.42739 51.02603 L 135.22131 58.97157 L 141.78761 60.01379 L 136.42739 51.02603 M 138.37649 41.82579 L 137.12742 47.95566 L 144.93274 49.52620 L 138.37649 41.82579 M 136.59612 40.64438 L 130.68981 40.07490 L 135.34706 46.77424 L 136.59612 40.64438 M 129.59312 41.31988 L 127.82265 50.60423 L 134.25037 48.01922 L 129.59312 41.31988 M 130.77647 32.14177 L 124.59420 31.93975 L 128.84842 37.48188 L 130.77647 32.14177 M 125.67192 24.82931 L 117.78186 26.96681 L 122.79741 29.95892 L 125.67192 24.82931 M 124.13086 24.31059 L 110.46894 25.80909 L 116.24080 26.44808 L 124.13086 24.31059 M 131.58476 22.97693 L 78.38176 23.48173 L 92.54444 23.63092 L 131.58476 22.97693 M 137.42992 23.00279 L 98.38960 23.65678 L 125.14306 23.68863 L 137.42992 23.00279 M 141.72438 23.76900 L 129.43752 24.45484 L 132.74528 29.78646 L 141.72438 23.76900 M 143.67879 24.88364 L 134.69969 30.90110 L 145.07283 33.37196 L 143.67879 24.88364 M 145.86335 37.02011 L 139.46848 40.45885 L 146.02473 48.15926 L 145.86335 37.02011 M 147.59454 36.85107 L 147.75591 47.99022 L 153.31794 39.10651 L 147.59454 36.85107 M 154.99379 40.31126 L 149.43176 49.19496 L 161.00136 46.48901 L 154.99379 40.31126 M 161.04440 48.44565 L 149.47480 51.15160 L 155.33810 55.96440 L 161.04440 48.44565 M 172.83919 46.77350 L 165.78087 48.54935 L 174.60192 61.27576 L 172.83919 46.77350 M 184.09482 44.83628 L 176.31709 45.12588 L 187.58906 50.16029 L 184.09482 44.83628 M 191.93105 44.50496 L 186.04657 44.75867 L 189.54080 50.08267 L 191.93105 44.50496 M 193.51079 45.52425 L 191.12054 51.10197 L 198.68445 52.91302 L 193.51079 45.52425 M 199.63271 39.76428 L 194.80798 43.38344 L 201.84698 44.98338 L 199.63271 39.76428 M 198.43779 38.68380 L 192.28763 36.33954 L 193.61306 42.30296 L 198.43779 38.68380 M 202.73074 37.72506 L 204.94502 42.94416 L 219.59226 27.06966 L 202.73074 37.72506 M 201.89683 46.55594 L 194.85783 44.95600 L 200.03149 52.34476 L 201.89683 46.55594 M 203.90482 47.74040 L 202.03948 53.52923 L 210.92178 54.43172 L 203.90482 47.74040 M 210.72541 56.34505 L 201.84312 55.44255 L 202.33392 63.04701 L 210.72541 56.34505 M 211.68883 58.03936 L 203.29733 64.74132 L 209.55046 68.99708 L 211.68883 58.03936 M 220.46077 51.12821 L 206.20749 47.44028 L 213.22444 54.13159 L 220.46077 51.12821 M 223.83648 53.12191 L 221.26543 61.32425 L 228.54786 58.19096 L 223.83648 53.12191 M 236.87870 49.56734 L 225.64241 29.01094 L 225.24846 48.57336 L 236.87870 49.56734 M 237.49547 53.08612 L 225.86523 52.09215 L 230.57662 57.16119 L 237.49547 53.08612 M 227.35958 70.76449 L 220.82406 65.10719 L 221.05249 74.59485 L 227.35958 70.76449 M 232.54719 79.93142 L 229.26804 73.21925 L 226.50551 81.86349 L 232.54719 79.93142 M 232.80896 81.68260 L 226.76728 83.61467 L 231.36223 87.22865 L 232.80896 81.68260 M 225.18270 84.40204 L 220.13232 87.98160 L 229.77765 88.01603 L 225.18270 84.40204 M 218.22165 76.26707 L 211.18957 72.53817 L 211.51655 78.38347 L 218.22165 76.26707 M 208.95503 72.57259 L 200.34536 76.54240 L 209.28202 78.41788 L 208.95503 72.57259 M 208.01502 71.12958 L 201.76190 66.87383 L 199.40535 75.09939 L 208.01502 71.12958 M 197.19669 79.01291 L 191.43649 85.71273 L 198.46251 87.51237 L 197.19669 79.01291 M 197.93940 89.39191 L 190.91338 87.59227 L 193.01180 94.04925 L 197.93940 89.39191 M 207.74579 88.54405 L 196.72461 94.12486 L 214.52233 89.12058 L 207.74579 88.54405 M 194.63257 100.02566 L 188.99222 103.42822 L 214.44749 127.34366 L 194.63257 100.02566 M 187.12572 105.96200 L 179.70059 120.29587 L 212.58099 129.87744 L 187.12572 105.96200 M 182.13711 93.11765 L 184.95342 99.14997 L 190.59377 95.74741 L 182.13711 93.11765 M 174.77274 85.04828 L 180.60222 90.54781 L 186.96046 86.72060 L 174.77274 85.04828 M 172.88569 85.87882 L 171.86406 93.36494 L 178.71517 91.37835 L 172.88569 85.87882 M 171.07258 85.08768 L 164.21035 85.04919 L 170.05096 92.57379 L 171.07258 85.08768 M 162.82883 86.12665 L 160.02046 93.70740 L 168.66945 93.65126 L 162.82883 86.12665 M 158.72963 75.59894 L 152.07371 79.14966 L 160.84143 82.50331 L 158.72963 75.59894 M 151.36748 80.45454 L 153.07978 86.03797 L 160.13520 83.80819 L 151.36748 80.45454 M 150.69278 69.78169 L 150.80513 77.55946 L 157.46104 74.00874 L 150.69278 69.78169 M 151.24180 67.63651 L 158.01006 71.86356 L 155.19728 60.39804 L 151.24180 67.63651 M 145.30015 61.73659 L 149.65306 66.37064 L 153.60854 59.13217 L 145.30015 61.73659 M 143.61034 62.98317 L 140.09002 69.10480 L 147.96324 67.61722 L 143.61034 62.98317 M 140.72791 70.87792 L 148.71348 77.16811 L 148.60114 69.39033 L 140.72791 70.87792 M 130.96459 70.33855 L 136.59418 77.68220 L 137.42170 71.04039 L 130.96459 70.33855 M 134.05880 61.90431 L 130.64767 68.36631 L 137.10478 69.06816 L 134.05880 61.90431 M 120.81641 72.89239 L 117.69003 83.37427 L 124.09746 77.84291 L 120.81641 72.89239 M 109.87508 63.93545 L 120.75991 61.10977 L 114.32250 56.79753 L 109.87508 63.93545 M 105.48888 76.18854 L 117.73405 70.90908 L 108.55736 67.17882 L 105.48888 76.18854 M 104.58103 80.18591 L 104.42092 88.67588 L 113.69982 85.38832 L 104.58103 80.18591 M 94.27848 75.59856 L 95.46285 93.67325 L 101.24987 89.08672 L 94.27848 75.59856 M 90.96183 75.44286 L 74.71667 87.84117 L 92.14620 93.51756 L 90.96183 75.44286 M 88.92844 61.29883 L 84.89849 65.46930 L 91.73562 69.37724 L 88.92844 61.29883 M 81.59924 56.78200 L 83.63144 63.89489 L 87.66139 59.72442 L 81.59924 56.78200 M 80.03258 56.88368 L 75.12812 60.53784 L 82.06478 63.99657 L 80.03258 56.88368 M 71.06277 52.85668 L 73.75286 59.14536 L 78.65733 55.49119 L 71.06277 52.85668 M 56.41589 56.26702 L 60.00803 60.86313 L 67.06429 53.13375 L 56.41589 56.26702 M 59.81564 65.83535 L 54.65804 69.99106 L 67.09063 84.15961 L 59.81564 65.83535 M 52.86103 74.44657 L 45.43956 101.47943 L 65.29362 88.61512 L 52.86103 74.44657 M 68.64325 93.14148 L 58.22784 106.71605 L 70.21938 109.94716 L 68.64325 93.14148 M 74.42050 91.27913 L 88.59247 102.94653 L 91.85003 96.95552 L 74.42050 91.27913 M 95.13624 98.40665 L 91.87868 104.39766 L 100.71017 102.88821 L 95.13624 98.40665 M 101.72898 104.46311 L 92.89749 105.97256 L 103.28672 111.00586 L 101.72898 104.46311 M 92.27368 107.37133 L 96.73849 115.65321 L 102.66291 112.40462 L 92.27368 107.37133 M 90.58933 107.98199 L 89.18812 117.28993 L 95.05414 116.26387 L 90.58933 107.98199 M 89.03251 107.62217 L 82.59958 113.38529 L 87.63131 116.93011 L 89.03251 107.62217 M 81.00035 112.78962 L 87.43328 107.02650 L 74.83744 112.16478 L 81.00035 112.78962 M 78.50243 121.50218 L 80.49839 129.21883 L 86.22783 120.23161 L 78.50243 121.50218 M 76.89015 122.53248 L 73.32956 128.47403 L 78.88611 130.24913 L 76.89015 122.53248 M 71.22369 129.31779 L 66.52929 125.60941 L 70.29409 134.76603 L 71.22369 129.31779 M 88.80444 120.71870 L 89.10562 129.71185 L 93.08471 125.39292 L 88.80444 120.71870 M 89.59942 119.28738 L 93.87969 123.96161 L 95.46543 118.26133 L 89.59942 119.28738 M 93.74971 127.20471 L 89.77062 131.52363 L 94.12441 135.21298 L 93.74971 127.20471 M 88.68098 159.41369 L 98.35508 169.34661 L 105.68605 153.63659 L 88.68098 159.41369 M 102.15305 170.19301 L 119.06473 166.18489 L 109.48402 154.48299 L 102.15305 170.19301 M 99.93562 174.77858 L 99.28739 183.77352 L 109.30453 178.16453 L 99.93562 174.77858 M 100.54368 185.42933 L 109.98600 188.02511 L 110.56082 179.82035 L 100.54368 185.42933 M 94.74797 192.15663 L 96.34992 186.66402 L 88.05499 186.80096 L 94.74797 192.15663 M 88.93074 196.72493 L 96.53340 204.38990 L 94.86566 195.22883 L 88.93074 196.72493 M 98.83239 208.40912 L 99.22896 216.24627 L 105.25834 211.88046 L 98.83239 208.40912 M 100.04736 219.04077 L 102.54352 224.56317 L 108.91281 220.87685 L 100.04736 219.04077 M 97.99804 219.48320 L 92.51832 224.41630 L 100.49421 225.00560 L 97.99804 219.48320 M 90.85506 215.74048 L 97.42855 216.72878 L 97.03198 208.89162 L 90.85506 215.74048 M 92.11443 226.51542 L 94.76694 236.27614 L 100.09032 227.10472 L 92.11443 226.51542 M 101.91936 228.02978 L 96.59598 237.20121 L 106.74671 233.91594 L 101.91936 228.02978 M 111.41335 234.89637 L 117.11727 242.36401 L 123.39784 231.69080 L 111.41335 234.89637 M 119.28325 244.16481 L 128.74117 249.30280 L 125.56382 233.49161 L 119.28325 244.16481 M 109.76824 250.39031 L 115.41357 244.70145 L 109.70965 237.23380 L 109.76824 250.39031 M 100.09643 248.91645 L 107.85359 250.91719 L 107.79501 237.76068 L 100.09643 248.91645 M 92.78348 262.18508 L 94.09497 251.81381 L 68.85204 252.56898 L 92.78348 262.18508 M 91.64211 264.75079 L 67.71067 255.13470 L 84.96400 272.33952 L 91.64211 264.75079 M 103.27252 278.68790 L 106.93743 284.66074 L 110.95625 278.11716 L 103.27252 278.68790 M 107.52180 287.48893 L 101.76436 291.53615 L 117.72376 290.72267 L 107.52180 287.48893 M 113.72575 277.95822 L 115.59357 283.56532 L 119.54188 278.35288 L 113.72575 277.95822 M 121.11651 279.02531 L 117.16819 284.23775 L 126.32275 283.33767 L 121.11651 279.02531 M 122.38410 276.34472 L 130.42630 275.80893 L 124.47301 267.64116 L 122.38410 276.34472 M 131.81304 274.74761 L 133.47798 267.85412 L 125.85974 266.57983 L 131.81304 274.74761 M 132.74928 278.10738 L 129.91333 282.95552 L 137.85060 281.71633 L 132.74928 278.10738 M 125.67180 264.11946 L 133.29004 265.39375 L 130.30948 255.06467 L 125.67180 264.11946 M 117.57633 259.94878 L 123.70758 263.43884 L 128.34527 254.38405 L 117.57633 259.94878 M 116.88772 257.92124 L 127.65666 252.35651 L 118.19874 247.21852 L 116.88772 257.92124 M 110.33745 269.99066 L 113.32985 275.17345 L 121.23489 266.86454 L 110.33745 269.99066 M 123.05328 290.47353 L 129.35933 291.37955 L 127.89252 285.40323 L 123.05328 290.47353 M 97.18829 292.26141 L 64.60716 292.38504 L 119.45374 292.35396 L 97.18829 292.26141 M 91.98660 288.17268 L 86.33619 290.33127 L 96.55072 291.56863 L 91.98660 288.17268 M 84.66298 290.81940 L 78.60091 292.07769 L 94.87751 292.05676 L 84.66298 290.81940 M 82.44989 283.81224 L 84.57359 289.36172 L 90.22400 287.20313 L 82.44989 283.81224 M 82.69039 282.35410 L 90.46450 285.74499 L 86.49757 277.69659 L 82.69039 282.35410 M 76.83831 291.10815 L 82.90038 289.84985 L 80.77668 284.30037 L 76.83831 291.10815 M 69.11525 286.25526 L 65.14361 291.27363 L 73.56962 291.48355 L 69.11525 286.25526 M 70.06722 280.55162 L 82.26714 274.31463 L 65.01381 257.10980 L 70.06722 280.55162 M 59.33651 280.85721 L 67.20089 281.36945 L 62.14748 257.92762 L 59.33651 280.85721 M 59.49104 284.92295 L 63.38379 290.45356 L 67.35543 285.43519 L 59.49104 284.92295 M 49.40764 281.95324 L 52.27698 290.37000 L 56.26276 284.52678 L 49.40764 281.95324 M 50.37860 277.84284 L 57.23372 280.41638 L 60.04470 257.48680 L 50.37860 277.84284 M 25.68709 256.35154 L 28.80260 284.07924 L 43.40208 278.12368 L 25.68709 256.35154 M 29.15360 252.59274 L 46.86859 274.36488 L 56.53468 254.00884 L 29.15360 252.59274 M 27.91380 247.48632 L 55.29488 248.90242 L 36.95013 233.51355 L 27.91380 247.48632 M 23.84940 234.41340 L 23.98311 245.67519 L 33.01945 231.70242 L 23.84940 234.41340 M 62.94947 245.14529 L 70.24617 224.25654 L 63.50911 222.92913 L 62.94947 245.14529 M 62.45690 218.50894 L 66.78575 213.70579 L 56.94005 215.91433 L 62.45690 218.50894 M 71.11784 212.50666 L 77.30797 214.28118 L 81.07779 209.34989 L 71.11784 212.50666 M 68.43809 205.97935 L 70.00911 211.46893 L 79.96905 208.31216 L 68.43809 205.97935 M 54.25981 207.14289 L 55.71904 213.80738 L 63.99372 206.10926 L 54.25981 207.14289 M 107.05990 201.49393 L 107.92184 209.40255 L 114.97297 200.86034 L 107.05990 201.49393 M 111.29393 191.65485 L 107.48141 199.27547 L 115.39448 198.64187 L 111.29393 191.65485 M 113.64905 189.93301 L 117.74960 196.92004 L 126.32236 185.50079 L 113.64905 189.93301 M 120.41821 197.71132 L 134.99789 196.26327 L 128.99097 186.29207 L 120.41821 197.71132 M 120.56627 199.88566 L 130.17549 203.68682 L 135.14596 198.43761 L 120.56627 199.88566 M 132.25083 205.94876 L 133.86694 211.77361 L 140.52336 206.90713 L 132.25083 205.94876 M 135.67656 212.63631 L 146.72783 212.85035 L 142.33298 207.76983 L 135.67656 212.63631 M 122.29466 213.90402 L 126.16780 226.29698 L 131.16563 214.81195 L 122.29466 213.90402 M 129.09037 229.00064 L 141.00339 229.97837 L 138.76005 223.07055 L 129.09037 229.00064 M 127.91888 232.94359 L 131.09623 248.75479 L 138.12372 239.78069 L 127.91888 232.94359 M 142.24289 241.05104 L 144.16904 247.18280 L 151.91854 245.94873 L 142.24289 241.05104 M 145.62697 248.72969 L 153.90627 253.42616 L 153.37646 247.49562 L 145.62697 248.72969 M 155.34044 247.73788 L 155.87026 253.66842 L 161.33885 250.66780 L 155.34044 247.73788 M 156.41056 246.39425 L 162.40896 249.32417 L 164.43115 242.91937 L 156.41056 246.39425 M 156.93136 255.47765 L 163.82925 262.21174 L 162.39995 252.47703 L 156.93136 255.47765 M 164.36704 251.75192 L 165.79635 261.48662 L 172.66812 249.67674 L 164.36704 251.75192 M 167.80212 262.72429 L 180.41321 261.65325 L 174.67389 250.91440 L 167.80212 262.72429 M 172.10462 273.41729 L 165.46558 266.79831 L 161.95360 275.81656 L 172.10462 273.41729 M 176.72025 274.75128 L 181.87351 279.13425 L 187.08631 275.48651 L 176.72025 274.75128 M 182.91330 280.62258 L 185.03859 286.65794 L 188.12610 276.97484 L 182.91330 280.62258 M 183.28080 287.50112 L 181.15551 281.46576 L 174.06377 283.72029 L 183.28080 287.50112 M 185.08960 289.34888 L 177.41393 291.76127 L 194.08454 290.05463 L 185.08960 289.34888 M 187.60919 288.30648 L 196.60413 289.01223 L 197.57065 283.42203 L 187.60919 288.30648 M 196.77720 290.25672 L 180.10659 291.96335 L 206.63086 290.96557 L 196.77720 290.25672 M 200.85574 280.83451 L 209.84263 281.13321 L 203.93648 272.89778 L 200.85574 280.83451 M 206.06689 272.28399 L 211.97305 280.51942 L 217.89907 275.92418 L 206.06689 272.28399 M 206.47923 270.64297 L 218.31140 274.28315 L 215.27171 267.39124 L 206.47923 270.64297 M 218.25052 265.19055 L 229.27993 266.99462 L 222.31999 258.12531 L 218.25052 265.19055 M 223.70205 255.48323 L 230.95064 257.54722 L 229.01835 250.85919 L 223.70205 255.48323 M 234.44996 258.63003 L 243.11070 261.63825 L 241.10356 254.44942 L 234.44996 258.63003 M 230.89680 266.28015 L 231.18544 259.47484 L 223.93685 257.41085 L 230.89680 266.28015 M 223.57906 275.40162 L 237.59110 277.78662 L 231.56879 270.31377 L 223.57906 275.40162 M 221.95760 286.71407 L 229.30344 286.70051 L 221.59030 278.21431 L 221.95760 286.71407 M 213.71583 282.25370 L 220.00915 286.15822 L 219.64185 277.65845 L 213.71583 282.25370 M 212.75525 289.76770 L 219.14832 287.67188 L 212.85500 283.76735 L 212.75525 289.76770 M 191.71596 275.30766 L 198.58990 280.10632 L 201.67064 272.16959 L 191.71596 275.30766 M 191.49578 273.32873 L 201.45046 270.19066 L 196.82847 264.27490 L 191.49578 273.32873 M 184.67723 261.44584 L 194.40395 260.81725 L 186.44827 250.95469 L 184.67723 261.44584 M 182.46780 260.00151 L 184.23884 249.51037 L 176.72848 249.26266 L 182.46780 260.00151 M 188.02156 250.02946 L 195.97723 259.89201 L 197.26352 254.04394 L 188.02156 250.02946 M 188.14535 248.22769 L 197.38732 252.24217 L 196.96760 245.47785 L 188.14535 248.22769 M 186.61089 245.04976 L 195.43314 242.29992 L 185.11162 226.81874 L 186.61089 245.04976 M 176.76731 245.15950 L 184.27766 245.40721 L 182.77839 227.17619 L 176.76731 245.15950 M 168.51853 240.17598 L 174.79741 244.50560 L 180.80850 226.52229 L 168.51853 240.17598 M 153.24121 233.56424 L 163.41349 238.73484 L 156.41941 224.49335 L 153.24121 233.56424 M 150.44858 214.08892 L 155.30648 219.37832 L 156.18979 212.17491 L 150.44858 214.08892 M 139.74884 198.89085 L 143.05090 205.09843 L 149.11685 202.55322 L 139.74884 198.89085 M 137.95090 195.44263 L 144.04230 191.14619 L 131.94398 185.47143 L 137.95090 195.44263 M 148.61287 193.49178 L 151.88948 201.45059 L 159.14058 200.57378 L 148.61287 193.49178 M 187.11371 217.47770 L 204.14863 205.43810 L 195.91418 197.84219 L 187.11371 217.47770 M 188.91144 219.46521 L 210.29604 213.74226 L 205.94636 207.42561 L 188.91144 219.46521 M 198.25838 240.49250 L 209.21282 230.59035 L 187.93686 225.01132 L 198.25838 240.49250 M 200.58764 242.72610 L 206.57092 242.88015 L 211.54208 232.82395 L 200.58764 242.72610 M 199.08268 245.10702 L 199.50239 251.87135 L 205.06595 245.26107 L 199.08268 245.10702 M 200.55549 252.70471 L 207.50747 251.77394 L 206.11905 246.09443 L 200.55549 252.70471 M 198.29065 260.33255 L 206.52892 253.55371 L 199.57694 254.48448 L 198.29065 260.33255 M 210.75922 254.14098 L 215.93543 263.58385 L 220.00490 256.51861 L 210.75922 254.14098 M 210.73979 251.95431 L 219.98546 254.33194 L 215.77993 246.09053 L 210.73979 251.95431 M 218.13027 244.23733 L 227.65210 247.85471 L 224.22621 241.75276 L 218.13027 244.23733 M 226.54073 240.12471 L 234.87442 242.47068 L 231.73867 234.96888 L 226.54073 240.12471 M 230.45699 232.00422 L 232.17434 226.14075 L 217.70572 229.77270 L 230.45699 232.00422 M 234.75991 233.19610 L 245.90607 236.93880 L 242.70028 229.70157 L 234.75991 233.19610 M 235.13029 225.96032 L 233.41294 231.82379 L 241.35331 228.32926 L 235.13029 225.96032 M 216.96831 227.74880 L 231.43694 224.11685 L 224.55774 215.81302 L 216.96831 227.74880 M 214.91689 226.65308 L 222.50632 214.71730 L 215.02553 215.35110 L 214.91689 226.65308 M 216.71782 231.34689 L 224.27116 238.73424 L 229.46909 233.57840 L 216.71782 231.34689 M 241.86080 250.49865 L 246.19310 240.47616 L 238.18270 244.23526 L 241.86080 250.49865 M 251.61246 250.66805 L 254.58392 244.99362 L 249.09898 240.57924 L 251.61246 250.66805 M 260.48362 255.62043 L 256.00700 246.87376 L 253.03554 252.54819 L 260.48362 255.62043 M 261.83411 255.08045 L 263.83944 248.22835 L 257.35748 246.33378 L 261.83411 255.08045 M 263.36665 256.02521 L 269.61784 253.89189 L 265.37199 249.17312 L 263.36665 256.02521 M 264.40080 257.61615 L 273.64519 261.90067 L 270.65199 255.48284 L 264.40080 257.61615 M 268.47466 267.51926 L 273.37302 263.40522 L 264.12864 259.12071 L 268.47466 267.51926 M 261.15506 272.30313 L 266.18494 269.27372 L 255.73911 266.01299 L 261.15506 272.30313 M 267.14577 277.28082 L 267.61077 270.68220 L 262.58089 273.71161 L 267.14577 277.28082 M 266.08611 278.80896 L 261.52123 275.23974 L 259.13354 282.90726 L 266.08611 278.80896 M 274.79113 275.85844 L 269.13705 270.95056 L 268.67205 277.54918 L 274.79113 275.85844 M 275.55732 274.32806 L 274.80161 265.30614 L 269.90325 269.42018 L 275.55732 274.32806 M 277.44228 274.18876 L 284.98294 268.30575 L 276.68657 265.16684 L 277.44228 274.18876 M 282.97477 283.01871 L 289.24962 277.78894 L 278.61505 277.22599 L 282.97477 283.01871 M 278.10447 290.04204 L 280.81674 284.76169 L 270.33794 280.65970 L 278.10447 290.04204 M 268.21780 290.94613 L 276.52960 290.81509 L 268.76307 281.43276 L 268.21780 290.94613 M 266.11507 290.19126 L 266.66034 280.67790 L 259.70777 284.77620 L 266.11507 290.19126 M 257.56217 282.80304 L 259.94987 275.13552 L 253.51518 277.97519 L 257.56217 282.80304 M 253.08257 275.98124 L 259.51726 273.14157 L 254.10131 266.85143 L 253.08257 275.98124 M 246.20609 271.52805 L 251.41868 275.77955 L 252.43742 266.64974 L 246.20609 271.52805 M 245.51218 264.10259 L 245.46778 270.06843 L 251.69911 265.19012 L 245.51218 264.10259 M 246.20976 262.23283 L 252.39669 263.32035 L 251.04841 255.11030 L 246.20976 262.23283 M 254.15193 262.74174 L 260.25174 257.60392 L 252.80366 254.53169 L 254.15193 262.74174 M 242.02143 278.28678 L 250.11668 277.23418 L 244.90409 272.98268 L 242.02143 278.28678 M 245.03458 289.35502 L 250.13299 279.28072 L 242.03774 280.33332 L 245.03458 289.35502 M 246.76919 289.89434 L 255.91459 284.64789 L 251.86760 279.82004 L 246.76919 289.89434 M 239.87633 292.13377 L 190.31740 292.32045 L 255.42903 292.30239 L 239.87633 292.13377 M 278.01089 263.47696 L 286.30725 266.61587 L 288.03681 260.66971 L 278.01089 263.47696 M 288.43908 267.29295 L 295.06550 268.89364 L 290.16864 261.34679 L 288.43908 267.29295 M 291.72791 275.50922 L 295.26041 270.66394 L 288.63399 269.06326 L 291.72791 275.50922 M 289.70404 276.12098 L 286.61012 269.67502 L 279.06947 275.55803 L 289.70404 276.12098 M 299.05424 268.68184 L 310.44256 266.42068 L 304.06381 260.31291 L 299.05424 268.68184 M 305.57603 279.93932 L 321.91007 280.09299 L 313.15013 269.86930 L 305.57603 279.93932 M 300.54414 289.20402 L 308.23999 290.00892 L 302.65647 283.18939 L 300.54414 289.20402 M 291.52111 289.27310 L 297.53594 288.74160 L 292.30154 279.76339 L 291.52111 289.27310 M 310.87518 289.17164 L 321.62571 282.50578 L 305.29166 282.35211 L 310.87518 289.17164 M 314.80068 290.03133 L 336.69563 289.22958 L 325.55120 283.36546 L 314.80068 290.03133 M 312.27016 264.81180 L 313.67498 255.81084 L 305.89141 258.70403 L 312.27016 264.81180 M 291.69865 253.89317 L 301.60508 253.07108 L 295.66959 216.03290 L 291.69865 253.89317 M 270.55204 244.49134 L 287.81702 252.82070 L 291.78796 214.96043 L 270.55204 244.49134 M 285.70723 200.58754 L 253.39028 179.41389 L 250.25227 188.54213 L 285.70723 200.58754 M 255.23250 176.77845 L 287.54945 197.95210 L 264.98998 167.45866 L 255.23250 176.77845 M 267.39981 165.72226 L 289.95928 196.21571 L 274.51115 162.88728 L 267.39981 165.72226 M 275.66196 156.54063 L 285.52192 154.74093 L 282.19443 150.07715 L 275.66196 156.54063 M 280.82345 147.74852 L 276.79946 143.36769 L 272.04565 146.95615 L 280.82345 147.74852 M 285.63051 139.59403 L 281.87480 130.65119 L 278.42571 140.64997 L 285.63051 139.59403 M 287.03587 138.33319 L 289.66859 130.56330 L 283.28016 129.39035 L 287.03587 138.33319 M 297.08419 138.35627 L 291.39410 131.68404 L 288.76138 139.45393 L 297.08419 138.35627 M 294.90374 146.78254 L 303.39507 144.59601 L 299.10012 140.60523 L 294.90374 146.78254 M 293.10120 146.36924 L 297.29758 140.19192 L 288.97476 141.28958 L 293.10120 146.36924 M 305.91815 143.22206 L 311.66955 142.32793 L 305.04198 132.69426 L 305.91815 143.22206 M 312.83497 141.35873 L 315.24155 135.46841 L 306.20740 131.72506 L 312.83497 141.35873 M 320.68319 142.91208 L 317.05102 136.86679 L 314.64445 142.75711 L 320.68319 142.91208 M 322.35261 142.30115 L 327.99977 137.86965 L 318.72044 136.25586 L 322.35261 142.30115 M 321.40675 150.02109 L 321.22766 144.55637 L 315.18891 144.40139 L 321.40675 150.02109 M 316.02047 158.41766 L 310.30617 154.61024 L 303.73361 154.73619 L 316.02047 158.41766 M 327.94517 136.24291 L 321.91579 129.28726 L 318.66583 134.62912 L 327.94517 136.24291 M 329.93881 135.46376 L 334.61501 128.39590 L 323.90943 128.50811 L 329.93881 135.46376 M 334.26871 138.06547 L 351.04366 151.00807 L 346.44982 129.31140 L 334.26871 138.06547 M 334.35214 126.56756 L 327.83587 120.83702 L 323.64657 126.67977 L 334.35214 126.56756 M 357.23472 124.53280 L 357.75344 116.02278 L 349.74713 123.92052 L 357.23472 124.53280 M 359.18940 124.24906 L 365.38459 121.65065 L 359.70812 115.73905 L 359.18940 124.24906 M 356.50917 115.08037 L 347.28055 116.99351 L 348.50286 122.97810 L 356.50917 115.08037 M 351.46589 106.23971 L 355.58402 101.26055 L 348.05348 99.39053 L 351.46589 106.23971 M 349.88557 106.80612 L 346.47316 99.95694 L 342.94149 105.79188 L 349.88557 106.80612 M 357.25418 98.68234 L 360.50370 90.94166 L 354.04707 91.48474 L 357.25418 98.68234 M 365.24604 96.49574 L 361.90357 91.56803 L 358.65405 99.30872 L 365.24604 96.49574 M 376.23985 98.51865 L 367.86999 97.91102 L 367.93329 105.09566 L 376.23985 98.51865 M 379.36153 109.30197 L 377.67630 99.94252 L 369.36973 106.51953 L 379.36153 109.30197 M 373.10509 114.54849 L 378.79013 111.12772 L 368.79833 108.34527 L 373.10509 114.54849 M 370.89925 114.81272 L 366.59249 108.60950 L 361.14343 113.24155 L 370.89925 114.81272 M 373.41429 124.66033 L 372.46153 117.55802 L 368.38218 121.89846 L 373.41429 124.66033 M 391.19355 119.09425 L 382.53537 113.19037 L 384.41708 122.36341 L 391.19355 119.09425 M 393.33828 117.43992 L 395.94520 112.09298 L 390.30979 108.57176 L 393.33828 117.43992 M 391.41521 129.48000 L 392.30353 121.13046 L 385.52706 124.39961 L 391.41521 129.48000 M 387.65477 142.37834 L 390.81887 133.03594 L 384.80869 135.15525 L 387.65477 142.37834 M 385.78390 151.40577 L 386.31231 144.61505 L 377.76150 136.91579 L 385.78390 151.40577 M 396.19374 149.02327 L 388.61634 146.12849 L 388.08793 152.91921 L 396.19374 149.02327 M 397.45100 147.09412 L 398.14598 137.48603 L 389.87360 144.19934 L 397.45100 147.09412 M 399.44187 147.29466 L 405.80062 145.80364 L 400.13686 137.68657 L 399.44187 147.29466 M 406.79822 144.71658 L 407.42271 138.59816 L 401.13446 136.59951 L 406.79822 144.71658 M 407.55484 136.92018 L 407.85522 131.29276 L 401.26659 134.92153 L 407.55484 136.92018 M 414.71048 140.60610 L 409.11971 139.09898 L 408.49522 145.21740 L 414.71048 140.60610 M 407.85736 128.82947 L 407.28856 123.09511 L 401.55210 126.57698 L 407.85736 128.82947 M 405.74448 122.04513 L 395.50466 120.42963 L 400.00801 125.52700 L 405.74448 122.04513 M 415.82520 124.70274 L 419.31805 118.72441 L 410.14787 121.76408 L 415.82520 124.70274 M 425.65811 122.55912 L 421.25683 118.82379 L 417.76398 124.80212 L 425.65811 122.55912 M 426.48867 113.73053 L 424.14176 76.78328 L 422.35410 87.38530 L 426.48867 113.73053 M 420.09576 115.52168 L 420.39647 105.09985 L 412.57602 112.54237 L 420.09576 115.52168 M 418.87967 103.80459 L 407.96136 105.15958 L 411.05922 111.24711 L 418.87967 103.80459 M 420.08219 99.43338 L 420.04819 87.24531 L 409.79503 89.82051 L 420.08219 99.43338 M 405.76516 91.45932 L 398.72761 99.00081 L 405.13401 102.42719 L 405.76516 91.45932 M 405.78369 88.07716 L 404.43844 82.12750 L 399.58991 88.86104 L 405.78369 88.07716 M 403.32663 81.06904 L 396.88926 79.60947 L 398.47811 87.80258 L 403.32663 81.06904 M 404.21079 78.85477 L 405.55138 70.08844 L 397.77342 77.39520 L 404.21079 78.85477 M 394.74336 77.07116 L 393.89953 68.18764 L 388.59211 77.83920 L 394.74336 77.07116 M 384.41860 78.77819 L 377.71424 72.13471 L 373.36710 81.57500 L 384.41860 78.77819 M 385.15482 88.62432 L 373.56804 85.24080 L 378.78647 95.28070 L 385.15482 88.62432 M 387.71880 90.25087 L 381.35045 96.90725 L 394.07984 98.25321 L 387.71880 90.25087 M 396.75620 88.58670 L 395.16735 80.39358 L 389.55138 87.34196 L 396.75620 88.58670 M 398.77672 90.78835 L 397.93295 97.54595 L 404.97050 90.00446 L 398.77672 90.78835 M 387.22286 106.31172 L 379.90794 99.91654 L 381.59317 109.27599 L 387.22286 106.31172 M 370.56660 81.43292 L 374.91374 71.99262 L 362.01460 77.64149 L 370.56660 81.43292 M 374.06098 67.56911 L 363.74451 46.04485 L 361.16183 73.21799 L 374.06098 67.56911 M 385.99817 56.79446 L 366.84905 43.99191 L 377.16552 65.51617 L 385.99817 56.79446 M 395.80782 48.64088 L 394.82827 41.46789 L 391.17834 54.63898 L 395.80782 48.64088 M 401.72944 58.67486 L 396.67046 50.79175 L 392.04099 56.78985 L 401.72944 58.67486 M 404.51121 68.61086 L 395.88942 67.03410 L 396.73325 75.91762 L 404.51121 68.61086 M 413.43003 64.92016 L 408.19784 68.30795 L 412.37230 75.30534 L 413.43003 64.92016 M 422.94515 67.86112 L 421.94146 57.88182 L 416.13186 62.93457 L 422.94515 67.86112 M 420.15887 54.48759 L 412.50250 47.39047 L 410.53122 52.85720 L 420.15887 54.48759 M 426.57719 45.76140 L 425.98869 38.54693 L 421.18591 42.15338 L 426.57719 45.76140 M 418.40342 41.74621 L 414.74760 36.48786 L 412.77593 44.15595 L 418.40342 41.74621 M 411.33016 43.69215 L 413.30184 36.02407 L 406.83727 38.03587 L 411.33016 43.69215 M 409.54037 45.10890 L 405.04748 39.45262 L 398.98351 47.35806 L 409.54037 45.10890 M 403.39942 38.74921 L 396.35591 39.48167 L 397.33545 46.65466 L 403.39942 38.74921 M 392.04262 37.04144 L 392.67174 26.03182 L 369.24357 37.40998 L 392.04262 37.04144 M 410.36747 25.61218 L 421.74059 24.72301 L 400.54083 23.35224 L 410.36747 25.61218 M 423.58044 25.90378 L 412.20732 26.79294 L 415.25965 32.79837 L 423.58044 25.90378 M 351.99278 79.01906 L 307.68977 77.96552 L 347.59426 87.85814 L 351.99278 79.01906 M 337.37100 102.63912 L 340.90267 96.80417 L 305.32161 81.58397 L 337.37100 102.63912 M 308.67412 121.62822 L 296.87538 86.71176 L 293.58342 123.96512 L 308.67412 121.62822 M 303.52329 129.44157 L 309.50511 126.96945 L 294.41441 129.30635 L 303.52329 129.44157 M 270.71240 145.77850 L 275.46622 142.19003 L 270.15750 138.32731 L 270.71240 145.77850 M 250.21035 88.37345 L 271.38043 118.90099 L 287.91240 82.45410 L 250.21035 88.37345 M 243.82553 89.58699 L 236.83389 92.16246 L 264.99562 120.11454 L 243.82553 89.58699 M 284.82646 76.84656 L 246.69289 74.04069 L 247.12440 82.76591 L 284.82646 76.84656 M 285.70612 71.41743 L 254.39884 47.31053 L 247.33541 60.63383 L 285.70612 71.41743 M 291.91550 86.76283 L 275.38353 123.20972 L 282.23511 122.84325 L 291.91550 86.76283 M 293.80693 86.87804 L 284.12654 122.95846 L 290.51498 124.13140 L 293.80693 86.87804 M 295.46556 29.39774 L 284.99400 29.25557 L 294.45338 65.94064 L 295.46556 29.39774 M 311.11441 28.88131 L 298.73061 29.35096 L 297.71843 65.89386 L 311.11441 28.88131 M 317.67873 23.41598 L 374.59661 22.93078 L 280.93136 23.12607 L 317.67873 23.41598 M 271.81320 25.06285 L 267.37038 31.31835 L 279.35674 24.92700 L 271.81320 25.06285 M 271.54097 24.06160 L 279.08451 23.92575 L 265.19248 23.30836 L 271.54097 24.06160 M 269.82863 24.97465 L 263.48014 24.22141 L 265.38580 31.23015 L 269.82863 24.97465 M 260.81400 24.17308 L 254.64938 24.91685 L 256.56977 30.85298 L 260.81400 24.17308 M 257.59957 23.23552 L 230.85434 23.35250 L 251.43495 23.97929 L 257.59957 23.23552 M 251.66278 23.08193 L 203.94060 22.75058 L 224.91755 23.19891 L 251.66278 23.08193 M 250.29840 25.86437 L 229.71779 25.23758 L 248.50714 38.31616 L 250.29840 25.86437 M 255.43321 32.73806 L 253.51283 26.80193 L 251.72157 39.25372 L 255.43321 32.73806 M 256.58611 33.63305 L 252.87446 40.14872 L 262.73600 33.96189 L 256.58611 33.63305 M 221.94477 28.34209 L 207.29753 44.21659 L 221.55081 47.90452 L 221.94477 28.34209 M 218.68801 24.73783 L 197.71106 24.28949 L 201.82650 35.39323 L 218.68801 24.73783 M 188.94499 23.02810 L 164.42572 23.72313 L 177.19412 25.05535 L 188.94499 23.02810 M 179.18669 27.49020 L 182.40098 34.44245 L 188.90283 34.22241 L 179.18669 27.49020 M 174.76516 25.87754 L 161.99676 24.54532 L 169.51329 29.60560 L 174.76516 25.87754 M 171.42215 32.68037 L 174.05338 42.19125 L 179.88832 35.90456 L 171.42215 32.68037 M 167.71370 33.20332 L 157.27903 38.31230 L 163.28661 44.49006 L 167.71370 33.20332 M 181.37531 37.22189 L 175.54037 43.50858 L 183.31810 43.21898 L 181.37531 37.22189 M 189.49073 54.33768 L 179.98149 63.80554 L 197.54544 63.75319 L 189.49073 54.33768 M 179.63597 68.45789 L 189.08317 83.33092 L 194.84337 76.63110 L 179.63597 68.45789 M 177.07198 69.17610 L 174.33146 82.37682 L 186.51918 84.04914 L 177.07198 69.17610 M 157.83769 60.10793 L 160.65047 71.57345 L 172.36504 65.31559 L 157.83769 60.10793 M 143.36380 92.43217 L 141.48617 115.68033 L 154.83731 96.85569 L 143.36380 92.43217 M 157.88976 98.67518 L 144.53861 117.49981 L 167.78334 106.98807 L 157.88976 98.67518 M 146.09451 120.11745 L 170.33693 119.61628 L 169.33924 109.60571 L 146.09451 120.11745 M 146.00690 122.99439 L 168.63832 132.62120 L 170.24932 122.49322 L 146.00690 122.99439 M 141.79156 127.46257 L 143.74994 150.89282 L 157.19970 144.43525 L 141.79156 127.46257 M 138.80811 128.24133 L 133.33206 150.66527 L 140.76648 151.67157 L 138.80811 128.24133 M 176.68208 136.57108 L 177.47654 145.01185 L 211.17347 136.02467 L 176.68208 136.57108 M 178.40972 123.79042 L 176.79873 133.91840 L 211.29012 133.37199 L 178.40972 123.79042 M 111.66308 97.33406 L 107.29330 109.01875 L 119.02259 95.21769 L 111.66308 97.33406 M 103.85840 92.21470 L 103.64532 101.28279 L 109.57284 96.14084 L 103.85840 92.21470 M 102.21534 92.30904 L 96.42832 96.89557 L 102.00225 101.37713 L 102.21534 92.30904 M 91.68586 50.76083 L 90.54947 58.33909 L 99.53748 57.44804 L 91.68586 50.76083 M 97.83068 43.69925 L 92.92057 48.29809 L 103.36863 49.92329 L 97.83068 43.69925 M 97.73505 34.35352 L 91.33980 37.57352 L 97.02909 40.77765 L 97.73505 34.35352 M 121.63996 33.66487 L 113.37021 41.34383 L 119.66659 43.80584 L 121.63996 33.66487 M 69.00541 35.29944 L 62.18828 38.82461 L 71.59271 42.22088 L 69.00541 35.29944 M 25.65786 27.64218 L 25.54260 36.70444 L 32.71790 31.77792 L 25.65786 27.64218 M 132.82923 250.60748 L 141.78288 247.76514 L 139.85672 241.63339 L 132.82923 250.60748 M 133.51423 252.46646 L 145.33670 256.50524 L 142.46788 249.62413 L 133.51423 252.46646 M 148.97132 267.48421 L 162.15068 264.08763 L 155.25278 257.35355 L 148.97132 267.48421 M 147.84246 271.37753 L 149.73386 279.48187 L 157.50984 276.99920 L 147.84246 271.37753 M 159.12240 275.35621 L 162.63438 266.33797 L 149.45503 269.73454 L 159.12240 275.35621 M 162.59762 289.87772 L 169.56533 283.76940 L 161.35280 279.53117 L 162.59762 289.87772 M 163.99103 291.36793 L 172.50012 291.45283 L 170.95875 285.25961 L 163.99103 291.36793 M 173.27086 284.92711 L 174.81222 291.12033 L 182.48789 288.70794 L 173.27086 284.92711 M 326.76126 240.12623 L 336.45307 231.56488 L 303.43743 212.11366 L 326.76126 240.12623 M 340.30329 239.79871 L 348.51613 238.74080 L 342.96649 234.48706 L 340.30329 239.79871 M 344.33772 231.92145 L 352.99118 229.27381 L 348.16931 226.17521 L 344.33772 231.92145 M 347.51379 224.61275 L 347.74702 216.77415 L 343.68220 230.35899 L 347.51379 224.61275 M 356.97841 220.30288 L 364.90564 222.04909 L 358.13805 213.79521 L 356.97841 220.30288 M 357.44321 210.45727 L 363.39252 207.73749 L 352.23797 204.57303 L 357.44321 210.45727 M 349.41260 212.46760 L 355.69572 211.04854 L 350.49048 205.16429 L 349.41260 212.46760 M 343.21780 211.83227 L 344.29568 204.52896 L 306.13734 205.96589 L 343.21780 211.83227 M 351.89423 202.83393 L 363.04879 205.99839 L 354.69334 196.54445 L 351.89423 202.83393 M 352.91171 194.48786 L 348.79575 189.54564 L 350.11260 200.77733 L 352.91171 194.48786 M 345.68455 181.33247 L 349.93824 159.43749 L 325.08525 161.90916 L 345.68455 181.33247 M 347.36834 155.87443 L 325.12532 152.82806 L 322.51535 158.34611 L 347.36834 155.87443 M 384.52052 167.33460 L 383.69639 156.18914 L 360.76570 157.24661 L 384.52052 167.33460 M 388.56806 167.63133 L 393.14603 159.62052 L 387.74393 156.48588 L 388.56806 167.63133 M 402.47336 159.01788 L 396.49968 159.84593 L 404.02146 167.12798 L 402.47336 159.01788 M 401.78506 156.97321 L 398.51509 150.77069 L 395.81138 157.80126 L 401.78506 156.97321 M 403.07970 155.75584 L 406.16847 148.06230 L 399.80973 149.55332 L 403.07970 155.75584 M 410.43851 158.08642 L 407.49707 149.12894 L 404.40830 156.82248 L 410.43851 158.08642 M 405.73630 167.19025 L 410.21841 160.34409 L 404.18820 159.08015 L 405.73630 167.19025 M 402.09415 177.36122 L 403.40181 170.42225 L 391.30206 171.15101 L 402.09415 177.36122 M 409.56162 181.71697 L 405.68426 171.74300 L 404.37659 178.68196 L 409.56162 181.71697 M 411.28206 181.87037 L 418.14010 179.90916 L 407.40469 171.89640 L 411.28206 181.87037 M 419.51388 178.30073 L 422.27232 169.00295 L 408.77848 170.28797 L 419.51388 178.30073 M 424.74803 188.54209 L 425.83161 199.05706 L 426.53306 167.29354 L 424.74803 188.54209 M 423.04979 189.36213 L 420.47044 182.85088 L 416.61008 190.88013 L 423.04979 189.36213 M 415.26188 190.23013 L 419.12225 182.20088 L 412.26421 184.16209 L 415.26188 190.23013 M 410.45053 197.34163 L 413.70102 192.81155 L 406.88815 192.25413 L 410.45053 197.34163 M 416.22380 202.00587 L 414.86797 194.03052 L 411.61748 198.56060 L 416.22380 202.00587 M 424.85034 203.44876 L 423.76676 192.93379 L 418.68287 202.42714 L 424.85034 203.44876 M 426.08014 201.79830 L 426.73628 210.47200 L 426.78160 170.03478 L 426.08014 201.79830 M 419.95315 210.02477 L 424.37363 205.58513 L 418.20616 204.56351 L 419.95315 210.02477 M 426.00458 215.64388 L 425.34844 206.97018 L 420.92795 211.40981 L 426.00458 215.64388 M 421.66612 222.63720 L 425.09443 218.28388 L 416.41896 219.50276 L 421.66612 222.63720 M 413.36840 220.43501 L 407.86808 222.12163 L 411.43750 227.18968 L 413.36840 220.43501 M 412.97286 227.39651 L 420.15093 223.77628 L 414.90376 220.64184 L 412.97286 227.39651 M 409.92480 228.38872 L 406.35537 223.32067 L 401.26677 230.02729 L 409.92480 228.38872 M 406.53238 235.25671 L 409.94692 229.88072 L 401.28890 231.51930 L 406.53238 235.25671 M 399.38586 229.06067 L 404.47446 222.35404 L 394.87749 220.65573 L 399.38586 229.06067 M 397.55826 229.59747 L 393.04989 221.19252 L 389.85368 226.64843 L 397.55826 229.59747 M 396.43290 238.61600 L 404.84312 236.34862 L 399.59964 232.61121 L 396.43290 238.61600 M 393.22407 241.31175 L 382.92682 245.57054 L 392.63645 247.65102 L 393.22407 241.31175 M 381.59418 234.57465 L 386.61037 228.07032 L 379.82411 229.01234 L 381.59418 234.57465 M 378.11645 229.54839 L 372.94908 232.35876 L 379.88652 235.11070 L 378.11645 229.54839 M 377.38594 226.72318 L 376.99290 218.73159 L 369.26812 223.31094 L 377.38594 226.72318 M 386.30135 226.13404 L 379.12205 219.08447 L 379.51509 227.07606 L 386.30135 226.13404 M 387.72742 225.22006 L 390.92363 219.76415 L 380.54812 218.17048 L 387.72742 225.22006 M 404.73332 220.67127 L 401.45677 215.59852 L 395.13636 218.97296 L 404.73332 220.67127 M 402.47361 213.30427 L 408.52096 210.83327 L 400.50026 208.16275 L 402.47361 213.30427 M 408.52635 209.30858 L 402.51678 201.10668 L 400.50565 206.63805 L 408.52635 209.30858 M 397.72642 205.83745 L 394.16574 198.27635 L 391.86428 204.93354 L 397.72642 205.83745 M 387.79132 204.43145 L 377.16310 192.81365 L 378.07241 206.78133 L 387.79132 204.43145 M 392.20969 194.76519 L 392.70623 189.36598 L 379.28001 189.80458 L 392.20969 194.76519 M 405.75531 189.43968 L 409.57050 183.92906 L 404.38548 180.89405 L 405.75531 189.43968 M 423.53610 165.91960 L 425.14205 160.48009 L 414.52437 160.35845 L 423.53610 165.91960 M 424.32531 159.03027 L 417.00224 154.32108 L 413.70764 158.90864 L 424.32531 159.03027 M 425.13455 131.68182 L 417.28466 127.93103 L 417.46651 137.86126 L 425.13455 131.68182 M 425.03534 234.65608 L 425.80483 242.26661 L 426.51166 222.14862 L 425.03534 234.65608 M 424.71166 244.63367 L 423.94217 237.02315 L 417.76633 241.08511 L 424.71166 244.63367 M 425.94636 244.75542 L 426.16755 254.56651 L 426.65319 224.63743 L 425.94636 244.75542 M 420.21148 250.99581 L 424.24533 246.38026 L 417.30000 242.83170 L 420.21148 250.99581 M 418.07359 251.05610 L 415.16211 242.89199 L 407.14220 246.86259 L 418.07359 251.05610 M 416.99636 252.66724 L 406.06497 248.47373 L 406.54421 255.78108 L 416.99636 252.66724 M 416.44991 261.47723 L 418.29447 254.29267 L 407.84232 257.40652 L 416.44991 261.47723 M 418.55093 261.77461 L 424.65054 259.78560 L 420.39550 254.59006 L 418.55093 261.77461 M 417.07805 264.38958 L 411.28582 267.88483 L 420.50425 270.02557 L 417.07805 264.38958 M 409.56670 266.49816 L 415.35894 263.00291 L 406.75135 258.93220 L 409.56670 266.49816 M 407.07060 267.64465 L 398.65660 263.53087 L 400.98879 268.72270 L 407.07060 267.64465 M 404.72189 258.84384 L 399.12324 262.29602 L 407.53724 266.40980 L 404.72189 258.84384 M 406.80027 277.11023 L 408.08856 269.34207 L 402.00674 270.42012 L 406.80027 277.11023 M 408.98602 277.26204 L 419.49275 271.63463 L 410.27431 269.49389 L 408.98602 277.26204 M 407.69642 288.16141 L 406.52273 280.83677 L 399.90103 285.13963 L 407.69642 288.16141 M 410.33570 288.41974 L 421.01526 287.20628 L 409.16201 281.09510 L 410.33570 288.41974 M 398.30367 283.87232 L 404.92537 279.56946 L 394.91750 278.02293 L 398.30367 283.87232 M 396.14971 284.55524 L 392.76355 278.70584 L 387.69375 285.03280 L 396.14971 284.55524 M 394.07243 291.31744 L 406.14013 289.47149 L 398.34474 286.44972 L 394.07243 291.31744 M 380.59168 291.69164 L 389.82188 291.65465 L 385.63823 287.26450 L 380.59168 291.69164 M 366.49087 289.72371 L 376.76954 290.88205 L 374.56997 281.90909 L 366.49087 289.72371 M 364.33183 288.92563 L 372.41093 281.11101 L 359.49725 284.49740 L 364.33183 288.92563 M 359.13678 282.82611 L 372.05046 279.43972 L 361.44807 275.55529 L 359.13678 282.82611 M 358.08764 272.63930 L 353.43923 265.33979 L 347.50417 270.68206 L 358.08764 272.63930 M 360.18774 271.83949 L 364.30500 264.28364 L 355.53934 264.53998 L 360.18774 271.83949 M 364.43921 262.36948 L 361.26145 256.52616 L 355.67355 262.62582 L 364.43921 262.36948 M 360.32505 253.08248 L 358.43435 245.46755 L 353.25088 248.53462 L 360.32505 253.08248 M 366.42520 245.97976 L 360.08114 245.14819 L 361.97184 252.76312 L 366.42520 245.97976 M 366.42254 244.15034 L 361.95051 238.12778 L 360.07848 243.31877 L 366.42254 244.15034 M 367.65404 242.99289 L 369.93053 234.05922 L 363.18202 236.97034 L 367.65404 242.99289 M 369.60918 242.97016 L 378.82311 236.78842 L 371.88567 234.03648 L 369.60918 242.97016 M 373.59657 249.84332 L 378.20084 246.31111 L 369.73014 245.78455 L 373.59657 249.84332 M 375.28158 250.77780 L 383.21025 253.26044 L 379.88585 247.24559 L 375.28158 250.77780 M 377.44320 259.72350 L 373.34241 253.09820 L 368.20039 261.66611 L 377.44320 259.72350 M 378.73842 268.06024 L 385.49373 265.93306 L 379.96424 261.86006 L 378.73842 268.06024 M 374.11411 277.92985 L 375.64596 270.74714 L 363.51171 274.04542 L 374.11411 277.92985 M 389.70407 276.44916 L 378.92000 271.04761 L 377.38815 278.23031 L 389.70407 276.44916 M 393.17344 275.15603 L 398.38778 270.01245 L 389.14468 267.62730 L 393.17344 275.15603 M 353.64301 262.04206 L 359.23090 255.94241 L 348.19487 257.69943 L 353.64301 262.04206 M 346.10096 255.56648 L 350.06281 249.26159 L 343.96583 249.52630 L 346.10096 255.56648 M 352.13852 246.97235 L 357.32200 243.90528 L 351.42621 240.58434 L 352.13852 246.97235 M 358.32993 242.72556 L 360.20196 237.53457 L 352.43414 239.40462 L 358.32993 242.72556 M 359.80311 236.07424 L 355.13911 231.04290 L 352.03529 237.94428 L 359.80311 236.07424 M 361.45538 234.50227 L 365.25345 225.36854 L 356.79138 229.47094 L 361.45538 234.50227 M 334.37274 257.31885 L 329.02923 247.92816 L 325.92950 256.57713 L 334.37274 257.31885 M 347.06839 280.09217 L 357.29129 274.48334 L 346.70782 272.52611 L 347.06839 280.09217 M 348.25013 281.41046 L 356.16174 283.07245 L 358.47303 275.80164 L 348.25013 281.41046" fill="none" stroke="black" stroke-width="0.01cm" />
   </g>
</svg>