<?xml version="1.0" standalone="no"?>
  <!DOCTYPE svg PUBLIC "-//W3C//DTD SVG 1.1//EN" 
    "http://www.w3.org/Graphics/SVG/1.1/DTD/svg11.dtd">
  <svg width="12.7cm" height="8.89cm"
       xmlns="http://www.w3.org/2000/svg" version="1.1" viewBox="0 0 449.99999 314.99999">
   <g>
     <path d="M 230.05910 138.64284 L 259.63163 157.61868 L 264.49763 147.52785 L 230.05910 138.64284 M 227.97003 141.41579 L 247.78507 169.71141 L 257.54256 160.39162 L 227.97003 141.41579 M 218.95868 143.87700 L 203.83832 174.94284 L 220.38715 177.31113 L 218.95868 143.87700 M 213.94076 140.38458 L 180.24383 149.37177 L 198.82041 171.45042 L 213.94076 140.38458 M 202.56721 180.17349 L 208.78979 185.72224 L 219.11603 182.54178 L 202.56721 180.17349 M 225.21984 183.14205 L 231.64802 189.23600 L 234.64325 182.06210 L 225.21984 183.14205 M 232.71770 192.75020 L 230.67235 200.48745 L 238.81792 196.34449 L 232.71770 192.75020 M 241.38969 196.65020 L 242.42606 205.03734 L 244.10985 190.95170 L 241.38969 196.65020 M 247.87965 205.94404 L 285.01840 203.90381 L 249.56344 191.85840 L 247.87965 205.94404 M 246.78276 216.59210 L 284.67082 206.99552 L 247.53207 209.03576 L 246.78276 216.59210 M 246.88706 218.58417 L 248.36653 224.97233 L 284.77512 208.98759 L 246.88706 218.58417 M 250.74540 227.82009 L 265.91809 241.36627 L 287.15400 211.83535 L 250.74540 227.82009 M 248.28194 238.10410 L 253.76688 242.51847 L 245.07615 230.86686 L 248.28194 238.10410 M 255.47643 243.41975 L 261.95839 245.31432 L 246.78571 231.76814 L 255.47643 243.41975 M 243.36421 251.40290 L 250.21000 251.46921 L 247.69651 241.38040 L 243.36421 251.40290 M 245.03918 261.05049 L 249.87783 253.92797 L 243.03204 253.86166 L 245.03918 261.05049 M 255.83681 264.38042 L 266.28264 267.64116 L 261.93661 259.24261 L 255.83681 264.38042 M 272.37074 254.10293 L 285.38987 257.71351 L 268.12489 249.38416 L 272.37074 254.10293 M 276.39809 262.11171 L 286.42402 259.30446 L 273.40489 255.69387 L 276.39809 262.11171 M 270.10259 279.07783 L 280.58139 283.17982 L 276.22167 277.38710 L 270.10259 279.07783 M 276.82736 292.27806 L 337.63950 292.08823 L 285.13915 292.14703 L 276.82736 292.27806 M 280.38636 291.23946 L 288.59305 290.23906 L 283.09863 285.95911 L 280.38636 291.23946 M 283.12994 291.88994 L 305.04732 291.16293 L 291.33664 290.88953 L 283.12994 291.88994 M 286.79992 292.29733 L 364.91966 292.30116 L 347.61206 292.10749 L 286.79992 292.29733 M 289.45761 292.02445 L 341.95795 291.96565 L 311.37498 291.29744 L 289.45761 292.02445 M 284.38250 284.45766 L 289.87693 288.73761 L 290.65736 279.22790 L 284.38250 284.45766 M 293.21943 276.85344 L 300.56616 279.81702 L 296.75193 272.00816 L 293.21943 276.85344 M 296.72779 267.92674 L 301.73736 259.55781 L 291.83093 260.37990 L 296.72779 267.92674 M 302.69770 278.80181 L 310.27180 268.73179 L 298.88348 270.99296 L 302.69770 278.80181 M 298.69697 287.80643 L 300.80929 281.79180 L 293.46256 278.82823 L 298.69697 287.80643 M 307.07897 290.94408 L 299.38312 290.13918 L 293.36829 290.67069 L 307.07897 290.94408 M 317.63388 291.07905 L 348.21686 291.74726 L 339.52883 290.27731 L 317.63388 291.07905 M 324.12207 277.72807 L 323.27197 261.01996 L 315.36212 267.50438 L 324.12207 277.72807 M 326.45822 276.90768 L 334.05137 260.94129 L 325.60812 260.19957 L 326.45822 276.90768 M 328.54461 278.25357 L 342.29923 270.96669 L 336.13776 262.28718 L 328.54461 278.25357 M 343.59152 280.85354 L 343.23095 273.28749 L 329.47633 280.57437 L 343.59152 280.85354 M 340.24787 288.31720 L 343.21864 282.73226 L 329.10345 282.45308 L 340.24787 288.31720 M 343.08108 289.36492 L 351.76910 290.83487 L 346.05184 283.77998 L 343.08108 289.36492 M 353.32373 290.27445 L 355.51807 284.88156 L 347.60647 283.21956 L 353.32373 290.27445 M 355.14461 291.14448 L 362.17354 290.17982 L 357.33896 285.75159 L 355.14461 291.14448 M 357.30365 291.94257 L 374.61125 292.13623 L 364.33258 290.97790 L 357.30365 291.94257 M 378.95885 290.41508 L 384.00540 285.98793 L 376.75928 281.44212 L 378.95885 290.41508 M 385.45060 284.45163 L 390.52039 278.12467 L 378.20448 279.90581 L 385.45060 284.45163 M 391.75081 290.95398 L 396.02312 286.08626 L 387.56716 286.56382 L 391.75081 290.95398 M 396.71171 291.57577 L 419.45897 288.51636 L 408.77941 289.72982 L 396.71171 291.57577 M 405.18654 277.99903 L 400.39301 271.30892 L 395.17867 276.45250 L 405.18654 277.99903 M 398.79951 268.53597 L 396.46733 263.34414 L 389.55642 266.15081 L 398.79951 268.53597 M 397.60306 260.37357 L 403.20171 256.92139 L 395.37577 251.03020 L 397.60306 260.37357 M 395.57289 260.09402 L 393.34560 250.75066 L 386.96036 254.68503 L 395.57289 260.09402 M 387.99289 264.63641 L 394.90380 261.82974 L 386.29127 256.42075 L 387.99289 264.63641 M 386.21569 264.45551 L 384.51407 256.23984 L 380.68620 260.38251 L 386.21569 264.45551 M 379.31045 258.85418 L 383.13832 254.71151 L 375.20965 252.22888 L 379.31045 258.85418 M 385.25509 253.05305 L 391.64033 249.11868 L 381.93070 247.03820 L 385.25509 253.05305 M 378.96477 244.84818 L 379.70800 238.13989 L 370.49407 244.32162 L 378.96477 244.84818 M 371.75027 250.73715 L 367.88385 246.67838 L 363.43048 253.46174 L 371.75027 250.73715 M 366.42603 261.10887 L 371.56804 252.54096 L 363.24826 255.26556 L 366.42603 261.10887 M 359.01858 254.42133 L 351.94440 249.87347 L 347.98255 256.17836 L 359.01858 254.42133 M 350.52703 247.44832 L 349.81472 241.06031 L 344.43005 247.71303 L 350.52703 247.44832 M 343.15503 246.95159 L 348.53970 240.29886 L 340.32686 241.35677 L 343.15503 246.95159 M 340.97768 247.56696 L 338.14951 241.97215 L 331.12089 245.22184 L 340.97768 247.56696 M 336.22368 256.41830 L 340.73695 249.37273 L 330.88016 247.02761 L 336.22368 256.41830 M 337.93681 257.61620 L 344.58521 256.61080 L 342.45008 250.57063 L 337.93681 257.61620 M 344.33373 268.54215 L 344.82066 258.85725 L 338.17226 259.86264 L 344.33373 268.54215 M 351.99687 263.67662 L 346.54874 259.33399 L 346.06181 269.01890 L 351.99687 263.67662 M 374.71951 269.11282 L 366.70252 264.85525 L 362.58527 272.41110 L 374.71951 269.11282 M 376.62809 267.75589 L 377.85391 261.55571 L 368.61110 263.49832 L 376.62809 267.75589 M 390.88795 275.11918 L 386.85919 267.59045 L 380.10388 269.71763 L 390.88795 275.11918 M 403.93305 255.38432 L 403.45381 248.07697 L 396.10711 249.49313 L 403.93305 255.38432 M 402.41977 246.32976 L 395.66069 241.40665 L 395.07307 247.74592 L 402.41977 246.32976 M 403.70517 245.10024 L 405.35631 237.90975 L 396.94609 240.17713 L 403.70517 245.10024 M 405.81645 245.23631 L 413.83636 241.26571 L 407.46760 238.04582 L 405.81645 245.23631 M 414.56003 239.47049 L 411.60581 230.87462 L 408.19127 236.25061 L 414.56003 239.47049 M 416.35211 239.35020 L 422.52795 235.28823 L 413.39790 230.75433 L 416.35211 239.35020 M 423.13136 233.54307 L 421.17938 225.38894 L 414.00131 229.00917 L 423.13136 233.54307 M 424.64656 232.40399 L 426.12288 219.89653 L 422.69457 224.24986 L 424.64656 232.40399 M 416.18348 218.27599 L 424.85896 217.05711 L 419.78233 212.82304 L 416.18348 218.27599 M 414.55420 217.61338 L 418.15304 212.16043 L 411.82467 211.75625 L 414.55420 217.61338 M 407.75399 220.31994 L 413.25431 218.63332 L 410.52478 212.77619 L 407.75399 220.31994 M 406.50015 219.83621 L 409.27094 212.29246 L 403.22360 214.76345 L 406.50015 219.83621 M 409.66861 208.47546 L 409.64369 199.97312 L 403.65903 200.27356 L 409.66861 208.47546 M 411.18161 208.92472 L 415.76300 203.86764 L 411.15669 200.42238 L 411.18161 208.92472 M 418.41760 210.60126 L 416.67061 205.14000 L 412.08922 210.19708 L 418.41760 210.60126 M 417.60811 201.14186 L 422.69200 191.64850 L 416.25229 193.16650 L 417.60811 201.14186 M 409.13122 198.03171 L 405.56885 192.94420 L 403.14656 198.33215 L 409.13122 198.03171 M 401.49564 198.08511 L 403.91792 192.69716 L 395.92384 196.05538 L 401.49564 198.08511 M 403.19289 191.63589 L 395.69534 189.59489 L 395.19880 194.99410 L 403.19289 191.63589 M 410.73946 185.22949 L 406.92427 190.74011 L 413.73714 191.29753 L 410.73946 185.22949 M 402.76937 181.38971 L 396.64166 187.89434 L 404.13921 189.93534 L 402.76937 181.38971 M 401.03195 179.28173 L 390.23987 173.07152 L 394.90424 185.78637 L 401.03195 179.28173 M 402.51408 168.39068 L 394.99230 161.10862 L 390.41433 169.11943 L 402.51408 168.39068 M 394.18627 157.47175 L 396.88998 150.44117 L 388.78417 154.33711 L 394.18627 157.47175 M 382.43260 152.52694 L 374.41019 138.03696 L 359.50191 153.58440 L 382.43260 152.52694 M 377.43040 134.91382 L 385.98121 142.61308 L 383.13513 135.38998 L 377.43040 134.91382 M 376.09639 133.04629 L 381.80113 133.52245 L 375.30916 127.67281 L 376.09639 133.04629 M 371.54777 135.17597 L 359.53324 129.63903 L 356.63949 150.72342 L 371.54777 135.17597 M 373.66286 126.44259 L 368.63075 123.68071 L 374.45010 131.81607 L 373.66286 126.44259 M 367.02685 123.65736 L 360.83166 126.25577 L 372.84620 131.79272 L 367.02685 123.65736 M 366.85239 120.65939 L 370.93174 116.31896 L 361.17591 114.74779 L 366.85239 120.65939 M 359.57742 111.73086 L 365.02648 107.09881 L 358.37119 102.72715 L 359.57742 111.73086 M 358.03836 111.81764 L 356.83213 102.81394 L 352.71400 107.79310 L 358.03836 111.81764 M 351.56794 109.35265 L 347.66368 115.29033 L 356.89230 113.37719 L 351.56794 109.35265 M 349.81531 108.63282 L 342.87123 107.61858 L 345.91105 114.57050 L 349.81531 108.63282 M 344.34916 115.44015 L 341.30934 108.48823 L 337.32019 115.59003 L 344.34916 115.44015 M 335.49178 115.86721 L 339.48093 108.76541 L 329.72187 117.65761 L 335.49178 115.86721 M 337.60330 125.19992 L 343.88590 117.52911 L 336.85693 117.67899 L 337.60330 125.19992 M 335.77489 125.47711 L 335.02852 117.95617 L 329.25862 119.74657 L 335.77489 125.47711 M 337.21651 128.13898 L 332.54031 135.20684 L 344.72143 126.45276 L 337.21651 128.13898 M 346.28697 124.34724 L 345.06466 118.36264 L 338.78205 126.03346 L 346.28697 124.34724 M 331.74739 140.72980 L 326.27932 150.62602 L 348.52234 153.67240 L 331.74739 140.72980 M 323.07617 149.41015 L 328.54424 139.51393 L 322.89708 143.94544 L 323.07617 149.41015 M 320.24315 151.04614 L 314.02532 145.42644 L 311.91888 152.75677 L 320.24315 151.04614 M 318.14859 158.15529 L 320.75856 152.63724 L 312.43429 154.34788 L 318.14859 158.15529 M 314.51649 163.54613 L 302.22963 159.86466 L 298.27429 195.63807 L 314.51649 163.54613 M 310.20899 152.08169 L 312.31543 144.75136 L 306.56402 145.64549 L 310.20899 152.08169 M 302.39658 153.27281 L 308.96913 153.14687 L 305.32417 146.71067 L 302.39658 153.27281 M 300.66282 152.66572 L 303.59041 146.10357 L 295.09907 148.29010 L 300.66282 152.66572 M 304.48295 142.77968 L 303.60679 132.25188 L 300.18800 138.78889 L 304.48295 142.77968 M 298.76156 137.26561 L 302.18035 130.72859 L 293.07147 130.59337 L 298.76156 137.26561 M 315.14930 133.73901 L 312.09697 127.52353 L 306.11515 129.99566 L 315.14930 133.73901 M 316.90417 133.51065 L 320.15412 128.16880 L 313.85184 127.29517 L 316.90417 133.51065 M 321.21687 126.57100 L 325.40618 120.72825 L 314.91459 125.69737 L 321.21687 126.57100 M 322.82032 115.61538 L 300.52999 85.66804 L 312.32873 120.58450 L 322.82032 115.61538 M 325.71327 113.63519 L 335.47232 104.74299 L 303.42294 83.68785 L 325.71327 113.63519 M 342.02483 95.20953 L 346.34826 89.88195 L 306.44377 79.98933 L 342.02483 95.20953 M 355.71417 99.52101 L 352.50706 92.32341 L 348.18363 97.65099 L 355.71417 99.52101 M 365.79588 105.41071 L 365.73258 98.22607 L 359.14059 101.03905 L 365.79588 105.41071 M 366.63796 94.74641 L 369.78939 85.31414 L 363.29549 89.81871 L 366.63796 94.74641 M 360.67390 88.65071 L 358.61580 80.35471 L 354.21727 89.19379 L 360.67390 88.65071 M 369.01788 83.42504 L 360.46588 79.63362 L 362.52398 87.92961 L 369.01788 83.42504 M 376.68101 96.14481 L 371.46258 86.10490 L 368.31115 95.53718 L 376.68101 96.14481 M 385.98812 86.79050 L 385.45284 80.61016 L 374.40133 83.40698 L 385.98812 86.79050 M 386.75559 76.99985 L 392.06301 67.34829 L 380.05123 70.35637 L 386.75559 76.99985 M 394.06163 79.33286 L 387.91038 80.10090 L 388.44565 86.28123 L 394.06163 79.33286 M 392.36705 65.15326 L 389.18792 59.43963 L 380.35527 68.16134 L 392.36705 65.15326 M 401.52224 60.34796 L 391.83379 58.46295 L 395.01293 64.17659 L 401.52224 60.34796 M 405.32056 66.79484 L 403.20809 61.38945 L 396.69877 65.21807 L 405.32056 66.79484 M 407.25887 70.04425 L 405.91828 78.81057 L 411.43333 77.04164 L 407.25887 70.04425 M 412.53190 63.14834 L 405.18723 61.13073 L 407.29970 66.53612 L 412.53190 63.14834 M 412.73392 61.70963 L 408.91587 55.02649 L 405.38925 59.69203 L 412.73392 61.70963 M 420.42270 56.22329 L 410.79505 54.59290 L 414.61310 61.27604 L 420.42270 56.22329 M 421.24441 53.36238 L 419.21552 43.85552 L 413.58803 46.26526 L 421.24441 53.36238 M 422.81852 53.53357 L 426.18092 47.63473 L 420.78963 44.02671 L 422.81852 53.53357 M 424.25544 66.29661 L 426.61414 50.41847 L 423.25175 56.31730 L 424.25544 66.29661 M 421.96411 70.06654 L 415.15081 65.13999 L 414.09308 75.52516 L 421.96411 70.06654 M 420.89440 82.88692 L 422.68205 72.28491 L 414.81103 77.74353 L 420.89440 82.88692 M 419.17428 84.76938 L 413.09091 79.62599 L 408.92112 87.34458 L 419.17428 84.76938 M 411.43400 79.14392 L 405.91895 80.91286 L 407.26420 86.86252 L 411.43400 79.14392 M 418.52728 101.36811 L 408.24012 91.75523 L 407.60897 102.72310 L 418.52728 101.36811 M 427.08101 109.94765 L 427.09280 57.12226 L 424.73410 73.00040 L 427.08101 109.94765 M 426.23815 116.98625 L 422.10358 90.64103 L 422.13758 102.82910 L 426.23815 116.98625 M 426.20004 120.21624 L 422.09948 106.05909 L 421.79877 116.48091 L 426.20004 120.21624 M 418.74278 117.44475 L 411.22304 114.46544 L 409.57260 120.48441 L 418.74278 117.44475 M 414.59643 125.95617 L 408.91911 123.01751 L 409.48790 128.75187 L 414.59643 125.95617 M 407.17217 119.92402 L 408.82260 113.90505 L 399.53928 112.96158 L 407.17217 119.92402 M 405.47356 120.55309 L 397.84068 113.59065 L 395.23375 118.93758 L 405.47356 120.55309 M 408.61582 112.17555 L 405.51797 106.08802 L 399.33251 111.23208 L 408.61582 112.17555 M 404.16021 104.72889 L 397.75381 101.30251 L 397.97475 109.87295 L 404.16021 104.72889 M 396.28606 110.10478 L 396.06511 101.53435 L 390.65064 106.58356 L 396.28606 110.10478 M 391.72897 117.36035 L 388.70049 108.49219 L 383.07080 111.45647 L 391.72897 117.36035 M 382.36805 122.00868 L 380.48634 112.83564 L 374.80130 116.25642 L 382.36805 122.00868 M 381.69201 123.51198 L 374.12526 117.75971 L 375.07802 124.86203 L 381.69201 123.51198 M 382.63352 132.56194 L 382.75554 125.36226 L 376.14155 126.71230 L 382.63352 132.56194 M 384.41954 133.09485 L 390.42972 130.97555 L 384.54156 125.89516 L 384.41954 133.09485 M 397.51551 135.73786 L 392.40722 133.10877 L 389.24312 142.45117 L 397.51551 135.73786 M 398.73776 133.93864 L 399.02113 128.05738 L 393.62947 131.30955 L 398.73776 133.93864 M 400.40875 133.79583 L 406.99738 130.16706 L 400.69212 127.91457 L 400.40875 133.79583 M 398.41828 126.48901 L 393.91493 121.39163 L 393.02662 129.74117 L 398.41828 126.48901 M 409.25184 137.42100 L 414.84260 138.92812 L 409.55222 131.79358 L 409.25184 137.42100 M 415.61531 137.72482 L 415.43346 127.79459 L 410.32493 130.59028 L 415.61531 137.72482 M 425.16769 141.97658 L 426.11993 133.43751 L 418.45189 139.61696 L 425.16769 141.97658 M 424.07522 144.14239 L 417.35942 141.78277 L 417.38021 150.76399 L 424.07522 144.14239 M 415.53291 151.08566 L 415.51213 142.10443 L 409.29687 146.71574 L 415.53291 151.08566 M 415.06523 153.02406 L 408.82919 148.65414 L 411.77063 157.61162 L 415.06523 153.02406 M 425.75240 157.42896 L 425.12434 146.09816 L 418.42933 152.71977 L 425.75240 157.42896 M 426.84487 155.26315 L 427.16905 135.39329 L 426.21681 143.93235 L 426.84487 155.26315 M 426.92812 162.65858 L 426.88280 203.09580 L 427.25230 142.78872 L 426.92812 162.65858 M 424.79791 168.97248 L 424.61882 184.78151 L 426.40385 163.53297 L 424.79791 168.97248 M 421.37899 166.88025 L 412.36726 161.31910 L 407.88515 168.16527 L 421.37899 166.88025 M 421.41599 180.37559 L 423.99534 186.88684 L 424.17442 171.07781 L 421.41599 180.37559 M 392.11082 186.77826 L 387.44645 174.06341 L 378.68460 187.21686 L 392.11082 186.77826 M 391.80997 196.48753 L 378.88029 191.52692 L 389.50851 203.14472 L 391.80997 196.48753 M 398.85117 205.17639 L 400.86229 199.64502 L 395.29049 197.61528 L 398.85117 205.17639 M 393.26701 216.65014 L 397.61408 208.13418 L 391.75194 207.23026 L 393.26701 216.65014 M 391.98634 217.19631 L 390.47126 207.77643 L 387.36867 212.50350 L 391.98634 217.19631 M 390.72056 218.31434 L 386.10289 213.62153 L 380.34505 216.72067 L 390.72056 218.31434 M 394.38637 217.51377 L 400.70679 214.13933 L 398.73343 208.99781 L 394.38637 217.51377 M 385.76381 211.49350 L 388.86640 206.76643 L 379.14750 209.11631 L 385.76381 211.49350 M 384.49804 212.61153 L 377.88173 210.23434 L 378.74020 215.71067 L 384.49804 212.61153 M 376.69721 215.23993 L 375.83874 209.76360 L 368.15417 208.84562 L 376.69721 215.23993 M 375.58620 206.98588 L 374.67689 193.01820 L 367.90163 206.06791 L 375.58620 206.98588 M 365.61019 204.58621 L 372.38546 191.53650 L 357.25474 195.13228 L 365.61019 204.58621 M 370.60383 189.47991 L 351.35715 188.13346 L 355.47311 193.07568 L 370.60383 189.47991 M 374.62472 183.95931 L 383.38656 170.80587 L 359.63174 160.71788 L 374.62472 183.95931 M 351.37683 184.29957 L 370.62350 185.64602 L 355.63052 162.40459 L 351.37683 184.29957 M 339.81381 186.27012 L 319.21451 166.84682 L 302.97232 198.93875 L 339.81381 186.27012 M 344.26154 201.88110 L 342.94468 190.64941 L 306.10320 203.31804 L 344.26154 201.88110 M 355.11402 219.32648 L 356.27366 212.81881 L 349.99054 214.23787 L 355.11402 219.32648 M 348.82640 223.39900 L 354.18312 220.64900 L 349.05964 215.56040 L 348.82640 223.39900 M 354.30379 228.06006 L 354.83864 222.21146 L 349.48192 224.96146 L 354.30379 228.06006 M 356.20150 227.91666 L 364.66357 223.81427 L 356.73634 222.06806 L 356.20150 227.91666 M 363.08574 234.80516 L 369.83425 231.89403 L 366.88381 225.67143 L 363.08574 234.80516 M 371.53652 231.07668 L 376.70389 228.26631 L 368.58608 224.85408 L 371.53652 231.07668 M 367.99154 221.25581 L 375.71631 216.67646 L 367.17327 210.28215 L 367.99154 221.25581 M 365.92120 220.73088 L 365.10293 209.75722 L 359.15362 212.47701 L 365.92120 220.73088 M 350.13279 237.60376 L 353.23661 230.70238 L 344.58315 233.35002 L 350.13279 237.60376 M 338.41831 228.40114 L 342.48313 214.81629 L 305.40266 208.94992 L 338.41831 228.40114 M 331.09732 243.66378 L 338.12594 240.41408 L 340.78914 235.10243 L 331.09732 243.66378 M 317.28901 253.59512 L 323.79403 256.11167 L 326.89376 247.46270 L 317.28901 253.59512 M 314.39985 248.35776 L 324.00461 242.22534 L 300.68078 214.21277 L 314.39985 248.35776 M 304.13223 252.54032 L 311.91581 249.64713 L 298.19673 215.50214 L 304.13223 252.54032 M 314.31139 264.75800 L 322.22123 258.27358 L 315.71621 255.75704 L 314.31139 264.75800 M 248.26266 291.35761 L 263.81536 291.52623 L 257.40806 286.11116 L 248.26266 291.35761 M 233.68253 287.45649 L 242.97828 290.37699 L 239.98143 281.35529 L 233.68253 287.45649 M 240.00463 277.36960 L 242.88730 272.06550 L 233.98232 269.89675 L 240.00463 277.36960 M 234.40047 268.28676 L 243.30545 270.45551 L 243.34986 264.48968 L 234.40047 268.28676 M 233.16956 267.00476 L 242.11895 263.20767 L 233.45821 260.19945 L 233.16956 267.00476 M 232.93667 257.24485 L 239.59027 253.06424 L 231.00438 250.55682 L 232.93667 257.24485 M 231.42945 249.06482 L 240.01534 251.57224 L 236.33725 245.30884 L 231.42945 249.06482 M 237.20930 242.26880 L 245.21970 238.50970 L 234.07354 234.76700 L 237.20930 242.26880 M 226.28758 241.73296 L 229.71348 247.83491 L 234.62128 244.07893 L 226.28758 241.73296 M 217.86022 245.76962 L 222.06574 254.01103 L 227.38205 249.38699 L 217.86022 245.76962 M 216.56181 242.31029 L 222.65775 239.82572 L 215.10441 232.43837 L 216.56181 242.31029 M 208.34404 242.87583 L 214.77260 242.69155 L 213.31520 232.81964 L 208.34404 242.87583 M 207.83221 245.12378 L 209.22063 250.80329 L 214.26078 244.93951 L 207.83221 245.12378 M 210.79326 227.56119 L 210.90191 216.25921 L 189.51730 221.98216 L 210.79326 227.56119 M 226.56312 213.86388 L 233.44231 222.16771 L 233.01131 212.15571 L 226.56312 213.86388 M 226.03610 211.60392 L 232.48430 209.89575 L 229.22621 204.08800 L 226.03610 211.60392 M 234.25173 209.42836 L 240.17560 207.86479 L 230.99365 203.62061 L 234.25173 209.42836 M 235.10270 222.77980 L 239.84626 218.76058 L 234.67170 212.76780 L 235.10270 222.77980 M 236.05328 224.54851 L 242.27629 226.91745 L 240.79683 220.52929 L 236.05328 224.54851 M 221.14310 274.07634 L 229.13282 268.98850 L 218.10341 267.18443 L 221.14310 274.07634 M 223.53955 277.34077 L 231.25268 285.82697 L 237.55159 279.72577 L 223.53955 277.34077 M 221.09677 288.22773 L 214.70370 290.32355 L 228.44261 288.21416 L 221.09677 288.22773 M 217.08107 290.73882 L 240.11573 291.54993 L 230.81998 288.62944 L 217.08107 290.73882 M 211.32919 291.18270 L 184.80492 292.18049 L 234.36385 291.99381 L 211.32919 291.18270 M 199.29678 289.21431 L 209.15045 289.92316 L 200.26331 283.62412 L 199.29678 289.21431 M 201.68522 282.86819 L 210.57237 289.16724 L 210.67212 283.16689 L 201.68522 282.86819 M 205.30553 268.30942 L 214.09801 265.05770 L 208.92180 255.61483 L 205.30553 268.30942 M 198.76718 262.01309 L 203.38917 267.92885 L 207.00545 255.23425 L 198.76718 262.01309 M 185.05194 264.14818 L 189.44596 272.57342 L 194.77866 263.51959 L 185.05194 264.14818 M 176.83722 273.02656 L 187.20328 273.76179 L 182.80926 265.33655 L 176.83722 273.02656 M 173.02397 282.23196 L 180.11571 279.97743 L 174.96246 275.59446 L 173.02397 282.23196 M 170.83765 281.94857 L 172.77613 275.31107 L 162.62511 277.71034 L 170.83765 281.94857 M 186.76527 286.82235 L 196.72673 281.93791 L 189.85278 277.13925 L 186.76527 286.82235 M 167.76887 265.35698 L 174.40792 271.97596 L 180.37996 264.28595 L 167.76887 265.35698 M 147.21298 266.83429 L 153.49444 256.70363 L 148.08396 258.88828 L 147.21298 266.83429 M 137.20599 266.38929 L 145.17693 268.04499 L 146.04790 260.09898 L 137.20599 266.38929 M 134.04006 275.16618 L 143.67595 269.92839 L 135.70501 268.27269 L 134.04006 275.16618 M 134.53097 276.66653 L 139.63229 280.27549 L 144.16686 271.42874 L 134.53097 276.66653 M 141.27905 280.68500 L 147.70501 279.94260 L 145.81361 271.83825 L 141.27905 280.68500 M 141.40273 282.77379 L 146.80303 288.54857 L 147.82869 282.03139 L 141.40273 282.77379 M 147.16737 290.70277 L 135.29660 292.14349 L 157.21382 292.04946 L 147.16737 290.70277 M 149.00971 289.56592 L 159.05617 290.91262 L 150.03537 283.04874 L 149.00971 289.56592 M 151.29275 281.76305 L 160.31354 289.62693 L 159.06872 279.28038 L 151.29275 281.76305 M 133.08992 291.12613 L 144.96069 289.68541 L 139.56038 283.91063 L 133.08992 291.12613 M 129.71774 284.50187 L 131.18455 290.47819 L 137.65501 283.26269 L 129.71774 284.50187 M 122.82944 278.20414 L 128.03569 282.51650 L 130.87164 277.66835 L 122.82944 278.20414 M 114.58821 275.97022 L 120.40434 276.36488 L 122.49325 267.66132 L 114.58821 275.97022 M 110.59084 268.30510 L 121.48828 265.17897 L 115.35702 261.68891 L 110.59084 268.30510 M 103.41916 277.01271 L 111.10288 276.44197 L 108.11048 271.25918 L 103.41916 277.01271 M 108.30193 285.38022 L 114.18858 284.44373 L 112.32076 278.83664 L 108.30193 285.38022 M 115.07188 285.84049 L 109.18524 286.77698 L 119.38720 290.01072 L 115.07188 285.84049 M 117.22062 285.57813 L 121.53594 289.74835 L 126.37518 284.67805 L 117.22062 285.57813 M 120.08205 291.31407 L 104.12265 292.12754 L 126.38810 292.22008 L 120.08205 291.31407 M 98.83243 291.16722 L 104.58987 287.12001 L 94.26831 287.77127 L 98.83243 291.16722 M 94.56725 286.33983 L 104.88880 285.68857 L 101.22390 279.71574 L 94.56725 286.33983 M 88.55911 277.23470 L 92.52603 285.28310 L 99.18269 278.65900 L 88.55911 277.23470 M 88.94642 275.00083 L 99.57000 276.42513 L 95.62452 267.41210 L 88.94642 275.00083 M 97.81237 266.79364 L 101.75784 275.80667 L 106.44917 270.05314 L 97.81237 266.79364 M 98.54425 264.31027 L 107.18105 267.56978 L 107.61291 255.93973 L 98.54425 264.31027 M 97.49778 262.36302 L 106.56644 253.99248 L 98.80927 251.99175 L 97.49778 262.36302 M 93.93202 249.20784 L 91.47987 241.33733 L 68.68909 249.96301 L 93.93202 249.20784 M 96.18580 239.63577 L 98.63795 247.50628 L 106.33654 236.35050 L 96.18580 239.63577 M 103.58974 226.19296 L 108.41709 232.07912 L 109.95903 222.50664 L 103.58974 226.19296 M 110.81879 232.46206 L 122.80327 229.25650 L 112.36072 222.88958 L 110.81879 232.46206 M 113.51948 220.66122 L 123.96203 227.02814 L 120.08889 214.63518 L 113.51948 220.66122 M 108.78646 212.66378 L 111.62254 218.86568 L 118.19194 212.83963 L 108.78646 212.66378 M 109.38861 210.55748 L 118.79410 210.73333 L 116.43975 202.01526 L 109.38861 210.55748 M 106.58148 213.26235 L 100.55210 217.62816 L 109.41756 219.46424 L 106.58148 213.26235 M 99.57059 206.65563 L 105.99654 210.12696 L 105.13460 202.21834 L 99.57059 206.65563 M 96.74662 195.68993 L 98.41435 204.85100 L 103.97836 200.41371 L 96.74662 195.68993 M 98.08612 193.96737 L 105.31787 198.69115 L 109.13039 191.07054 L 98.08612 193.96737 M 98.88381 187.01528 L 97.28187 192.50789 L 108.32613 189.61105 L 98.88381 187.01528 M 102.44418 172.92100 L 111.81309 176.30695 L 119.35586 168.91288 L 102.44418 172.92100 M 113.72020 179.55800 L 113.14538 187.76276 L 125.81869 183.33053 L 113.72020 179.55800 M 132.82067 182.97014 L 144.91898 188.64491 L 144.96440 175.43237 L 132.82067 182.97014 M 137.70049 199.11754 L 132.73002 204.36675 L 141.00255 205.32512 L 137.70049 199.11754 M 130.03263 206.51427 L 122.77776 211.43118 L 131.64874 212.33911 L 130.03263 206.51427 M 135.39305 214.12508 L 140.06490 219.68002 L 146.44432 214.33913 L 135.39305 214.12508 M 133.10032 215.73522 L 128.10249 227.22025 L 137.77217 221.29016 L 133.10032 215.73522 M 142.33764 220.46622 L 153.57496 220.41473 L 148.71706 215.12533 L 142.33764 220.46622 M 141.74677 222.21604 L 143.99010 229.12386 L 152.98409 222.16455 L 141.74677 222.21604 M 145.14141 230.41235 L 150.95719 232.52392 L 154.13539 223.45304 L 145.14141 230.41235 M 141.90436 238.10296 L 149.42832 234.35516 L 143.61253 232.24359 L 141.90436 238.10296 M 143.04257 239.63968 L 152.71822 244.53736 L 150.56653 235.89189 L 143.04257 239.63968 M 139.37167 237.66163 L 141.07984 231.80226 L 129.16683 230.82452 L 139.37167 237.66163 M 144.92973 249.88900 L 147.79855 256.77011 L 153.20903 254.58547 L 144.92973 249.88900 M 155.24626 244.74062 L 163.26685 241.26574 L 153.09456 236.09514 L 155.24626 244.74062 M 166.47393 243.04148 L 164.45174 249.44628 L 172.75282 247.37109 L 166.47393 243.04148 M 159.62830 223.28148 L 166.62239 237.52296 L 178.91236 223.86927 L 159.62830 223.28148 M 159.63864 213.01451 L 158.75533 220.21792 L 178.03939 220.80572 L 159.63864 213.01451 M 163.40023 204.45570 L 160.21926 211.04423 L 178.62000 218.83544 L 163.40023 204.45570 M 166.05666 198.29926 L 190.07690 193.04349 L 172.67017 181.42825 L 166.05666 198.29926 M 152.93901 203.40352 L 157.00913 209.11524 L 160.19011 202.52671 L 152.93901 203.40352 M 149.51532 201.05265 L 146.23871 193.09384 L 140.14732 197.39028 L 149.51532 201.05265 M 150.59353 190.95638 L 161.12124 198.03837 L 167.73475 181.16736 L 150.59353 190.95638 M 148.54531 211.79154 L 150.21641 204.16581 L 144.15046 206.71102 L 148.54531 211.79154 M 149.99332 212.24390 L 155.73453 210.32989 L 151.66441 204.61817 L 149.99332 212.24390 M 182.50589 217.14340 L 191.30637 197.50789 L 167.28612 202.76366 L 182.50589 217.14340 M 155.49468 164.11029 L 149.94130 171.85126 L 167.03710 175.27479 L 155.49468 164.11029 M 164.77532 157.53133 L 157.34893 162.32030 L 168.89136 173.48479 L 164.77532 157.53133 M 145.09012 154.10777 L 152.51304 153.18217 L 158.53989 147.65020 L 145.09012 154.10777 M 141.81500 157.12046 L 137.92573 164.97892 L 143.65111 162.96761 L 141.81500 157.12046 M 138.38547 166.70947 L 145.49292 170.96487 L 144.11085 164.69816 L 138.38547 166.70947 M 131.13032 156.34724 L 125.08348 165.83858 L 134.67547 165.21200 L 131.13032 156.34724 M 112.76381 152.55450 L 122.34452 164.25640 L 128.39137 154.76505 L 112.76381 152.55450 M 110.40588 133.86437 L 129.53698 148.43937 L 135.01303 126.01543 L 110.40588 133.86437 M 108.71116 122.08635 L 107.80265 130.57024 L 132.40981 122.72130 L 108.71116 122.08635 M 108.79475 120.06196 L 132.49339 120.69691 L 108.47135 114.37510 L 108.79475 120.06196 M 110.10076 111.59111 L 134.12281 117.91292 L 121.83006 97.79005 L 110.10076 111.59111 M 98.26886 117.18466 L 104.51668 119.62293 L 104.19328 113.93607 L 98.26886 117.18466 M 97.19598 118.46307 L 95.61023 124.16335 L 103.44380 120.90134 L 97.19598 118.46307 M 96.37299 125.72366 L 103.29805 130.94554 L 104.20656 122.46165 L 96.37299 125.72366 M 95.30744 127.33370 L 95.68215 135.34198 L 102.23249 132.55558 L 95.30744 127.33370 M 81.64504 130.32205 L 87.67567 130.32799 L 87.37448 121.33484 L 81.64504 130.32205 M 72.68811 130.10115 L 71.75851 135.54938 L 78.24465 131.87624 L 72.68811 130.10115 M 67.17074 123.98230 L 71.86514 127.69068 L 75.42573 121.74913 L 67.17074 123.98230 M 64.81109 115.43102 L 65.85533 121.76981 L 70.64109 114.09641 L 64.81109 115.43102 M 62.40005 115.52865 L 51.35281 114.87746 L 63.44430 121.86745 L 62.40005 115.52865 M 57.62014 109.30752 L 63.78169 113.87323 L 69.61169 112.53863 L 57.62014 109.30752 M 55.20911 109.40515 L 50.32341 113.31967 L 61.37065 113.97086 L 55.20911 109.40515 M 49.13648 117.35459 L 44.66945 135.34569 L 61.22797 124.34458 L 49.13648 117.35459 M 43.54185 107.94117 L 48.09481 112.56596 L 52.98051 108.65144 L 43.54185 107.94117 M 45.72773 105.44273 L 55.16638 106.15300 L 65.58179 92.57843 L 45.72773 105.44273 M 29.41596 104.36331 L 32.29762 111.29117 L 39.16833 107.32307 L 29.41596 104.36331 M 25.47050 117.82584 L 38.77181 134.44876 L 31.81518 115.80097 L 25.47050 117.82584 M 46.93463 137.65235 L 67.25796 135.80785 L 63.49316 126.65123 L 46.93463 137.65235 M 50.41610 161.09035 L 59.32438 158.02618 L 44.60012 143.94762 L 50.41610 161.09035 M 52.12942 163.80365 L 58.30670 165.65406 L 61.03770 160.73948 L 52.12942 163.80365 M 53.05243 170.46682 L 57.30855 166.86997 L 51.13127 165.01957 L 53.05243 170.46682 M 54.65608 173.11055 L 59.96883 181.00381 L 62.90377 174.67926 L 54.65608 173.11055 M 52.92982 173.55837 L 49.09376 178.26187 L 58.24258 181.45163 L 52.92982 173.55837 M 48.57012 179.82263 L 48.74068 186.04447 L 57.71894 183.01240 L 48.57012 179.82263 M 45.48266 177.19788 L 42.57053 171.08529 L 36.10200 174.34882 L 45.48266 177.19788 M 39.94317 185.55978 L 46.51871 186.36289 L 46.34815 180.14105 L 39.94317 185.55978 M 39.38157 187.13134 L 41.85531 192.71355 L 45.95711 187.93445 L 39.38157 187.13134 M 47.11111 189.09197 L 43.00931 193.87107 L 48.61357 196.39145 L 47.11111 189.09197 M 48.78385 189.26124 L 50.28631 196.56072 L 56.39123 195.22526 L 48.78385 189.26124 M 49.85182 187.78530 L 57.45920 193.74932 L 58.83008 184.75323 L 49.85182 187.78530 M 50.80415 198.45793 L 52.92653 204.43887 L 56.90907 197.12246 L 50.80415 198.45793 M 54.62028 205.14562 L 64.35420 204.11199 L 58.60283 197.82922 L 54.62028 205.14562 M 57.33403 214.44394 L 67.17973 212.23541 L 65.60871 206.74582 L 57.33403 214.44394 M 50.02176 221.63778 L 60.36140 219.50043 L 54.84455 216.90583 L 50.02176 221.63778 M 50.72993 225.18218 L 60.50994 245.26099 L 61.06958 223.04483 L 50.72993 225.18218 M 48.02931 226.15750 L 39.46457 230.84745 L 57.80931 246.23632 L 48.02931 226.15750 M 45.83591 211.88414 L 53.44931 214.52924 L 51.99008 207.86475 L 45.83591 211.88414 M 41.28549 205.82289 L 36.07547 212.99633 L 42.71608 211.48694 L 41.28549 205.82289 M 35.05011 211.74626 L 40.26012 204.57282 L 34.51318 201.48637 L 35.05011 211.74626 M 27.17597 205.62571 L 33.41459 211.87787 L 32.87766 201.61798 L 27.17597 205.62571 M 23.03121 198.64244 L 24.55979 211.28671 L 25.09806 205.22941 L 23.03121 198.64244 M 32.26321 198.38548 L 30.56587 192.60483 L 24.49468 195.80624 L 32.26321 198.38548 M 35.23720 199.48207 L 40.98414 202.56852 L 40.84228 195.71186 L 35.23720 199.48207 M 28.40172 182.51955 L 36.50597 184.72323 L 33.53028 176.45545 L 28.40172 182.51955 M 26.84532 180.40057 L 31.97388 174.33646 L 24.05476 167.77135 L 26.84532 180.40057 M 27.32514 165.39573 L 41.71278 168.69731 L 46.53982 164.65915 L 27.32514 165.39573 M 27.18386 162.36989 L 46.39854 161.63331 L 40.58255 144.49058 L 27.18386 162.36989 M 58.76124 167.87226 L 54.50513 171.46910 L 62.75282 173.03782 L 58.76124 167.87226 M 66.42208 172.99547 L 73.82649 173.20763 L 72.46323 165.75259 L 66.42208 172.99547 M 65.95042 175.03036 L 68.68991 182.03173 L 73.35483 175.24253 L 65.95042 175.03036 M 69.88121 183.46525 L 75.48088 186.49854 L 74.54614 176.67605 L 69.88121 183.46525 M 62.00039 184.20300 L 68.16903 191.70272 L 67.67481 184.87982 L 62.00039 184.20300 M 60.99392 185.39147 L 59.62305 194.38756 L 67.16256 192.89118 L 60.99392 185.39147 M 69.66946 195.23518 L 67.88131 203.01433 L 75.29770 197.86069 L 69.66946 195.23518 M 69.27314 204.45889 L 80.80410 206.79170 L 76.68953 199.30525 L 69.27314 204.45889 M 70.03902 213.83342 L 72.44724 219.96398 L 76.22915 215.60794 L 70.03902 213.83342 M 68.53631 214.26608 L 64.20746 219.06922 L 70.94453 220.39664 L 68.53631 214.26608 M 73.67235 221.26173 L 79.83995 224.21542 L 77.45427 216.90569 L 73.67235 221.26173 M 79.13252 216.41725 L 81.51821 223.72698 L 87.09842 217.35423 L 79.13252 216.41725 M 79.33026 214.66853 L 87.29615 215.60552 L 83.10007 209.73725 L 79.33026 214.66853 M 85.12048 208.89269 L 89.31655 214.76097 L 95.49347 207.91211 L 85.12048 208.89269 M 84.91680 206.81929 L 95.28979 205.83871 L 87.68713 198.17374 L 84.91680 206.81929 M 78.73257 198.40343 L 82.84715 205.88988 L 85.61748 197.24433 L 78.73257 198.40343 M 77.54730 190.00239 L 78.07009 196.41750 L 84.95499 195.25839 L 77.54730 190.00239 M 76.29604 176.88141 L 77.23079 186.70391 L 83.88043 185.10814 L 76.29604 176.88141 M 74.27403 165.33760 L 75.63729 172.79265 L 80.90845 169.67556 L 74.27403 165.33760 M 75.25309 163.78931 L 81.88751 168.12727 L 83.46981 160.40629 L 75.25309 163.78931 M 74.14090 154.41422 L 74.28477 162.07518 L 82.50148 158.69216 L 74.14090 154.41422 M 86.02564 161.34199 L 84.44334 169.06296 L 95.69974 171.27490 L 86.02564 161.34199 M 87.80302 156.80302 L 104.80809 151.02592 L 91.33142 148.46124 L 87.80302 156.80302 M 84.27769 140.73184 L 78.77342 143.02344 L 88.04697 145.78639 L 84.27769 140.73184 M 85.95845 138.59567 L 93.15050 136.63685 L 88.79671 132.94750 L 85.95845 138.59567 M 71.51812 139.04842 L 73.07693 150.14778 L 75.69235 143.32099 L 71.51812 139.04842 M 71.96955 114.68293 L 67.18380 122.35633 L 75.43878 120.12316 L 71.96955 114.68293 M 73.53364 113.67600 L 77.00287 119.11622 L 79.69655 114.30084 L 73.53364 113.67600 M 73.73187 109.67471 L 86.32770 104.53643 L 72.15573 92.86903 L 73.73187 109.67471 M 81.29578 114.89650 L 78.60210 119.71189 L 86.32750 118.44132 L 81.29578 114.89650 M 109.76493 98.37096 L 103.83741 103.51291 L 105.39515 110.05566 L 109.76493 98.37096 M 105.21440 90.44961 L 110.92884 94.37575 L 114.49330 87.16205 L 105.21440 90.44961 M 116.36100 87.42059 L 112.79654 94.63428 L 120.15606 92.51792 L 116.36100 87.42059 M 118.27275 86.63813 L 122.06781 91.73546 L 128.09054 88.37461 L 118.27275 86.63813 M 118.64595 85.11975 L 128.46374 86.85623 L 125.05338 79.58839 L 118.64595 85.11975 M 127.03703 77.09488 L 135.29610 78.43901 L 129.66651 71.09536 L 127.03703 77.09488 M 122.10740 71.24512 L 125.38845 76.19564 L 128.01792 70.19612 L 122.10740 71.24512 M 110.55069 65.48805 L 119.72738 69.21830 L 121.43552 62.66236 L 110.55069 65.48805 M 105.78926 67.21900 L 95.58930 71.23053 L 102.72079 76.22873 L 105.78926 67.21900 M 101.63432 60.26570 L 95.45349 69.23515 L 105.65346 65.22362 L 101.63432 60.26570 M 99.77616 59.68471 L 90.78815 60.57576 L 93.59533 68.65417 L 99.77616 59.68471 M 107.05463 50.56078 L 112.92474 53.44281 L 111.00052 44.29192 L 107.05463 50.56078 M 96.22679 42.35236 L 90.53750 39.14823 L 91.31668 46.95121 L 96.22679 42.35236 M 88.91884 39.24584 L 83.27746 43.13325 L 89.69801 47.04882 L 88.91884 39.24584 M 82.36041 44.91023 L 81.58241 53.46163 L 88.78096 48.82580 L 82.36041 44.91023 M 74.84437 44.80334 L 79.84034 52.95883 L 80.61834 44.40742 L 74.84437 44.80334 M 73.64830 45.64861 L 71.04970 51.16959 L 78.64426 53.80410 L 73.64830 45.64861 M 68.96980 53.58452 L 61.91353 61.31391 L 71.65989 59.87320 L 68.96980 53.58452 M 64.08825 47.28608 L 69.23020 50.35484 L 71.82880 44.83386 L 64.08825 47.28608 M 62.19582 48.52240 L 56.68936 54.72442 L 67.33777 51.59116 L 62.19582 48.52240 M 61.45210 40.16370 L 63.11599 46.01218 L 70.85653 43.55997 L 61.45210 40.16370 M 70.87920 34.89087 L 73.46651 41.81230 L 77.17864 35.55601 L 70.87920 34.89087 M 78.37311 36.48822 L 74.66097 42.74452 L 80.43493 42.34859 L 78.37311 36.48822 M 80.00387 35.87632 L 82.06569 41.73669 L 87.70707 37.84928 L 80.00387 35.87632 M 76.57037 25.34758 L 69.80914 24.65843 L 70.40524 31.85061 L 76.57037 25.34758 M 88.01463 26.22983 L 80.74749 33.93796 L 88.45068 35.91092 L 88.01463 26.22983 M 99.50873 34.11033 L 98.80277 40.53446 L 105.52920 35.62800 L 99.50873 34.11033 M 114.25485 27.58335 L 108.48298 26.94436 L 108.24323 33.39277 L 114.25485 27.58335 M 115.79591 28.10208 L 109.78429 33.91149 L 120.81145 31.09419 L 115.79591 28.10208 M 120.34657 32.61863 L 109.31940 35.43593 L 112.07681 40.29759 L 120.34657 32.61863 M 122.29240 24.05992 L 101.53314 24.44271 L 108.63048 25.55842 L 122.29240 24.05992 M 127.23299 22.93542 L 57.73032 23.29883 L 74.02999 23.44022 L 127.23299 22.93542 M 127.27160 25.28562 L 124.39710 30.41522 L 130.57937 30.61723 L 127.27160 25.28562 M 133.98529 32.60496 L 137.96355 38.51456 L 144.35842 35.07583 L 133.98529 32.60496 M 130.29992 38.35497 L 136.20623 38.92445 L 132.22798 33.01485 L 130.29992 38.35497 M 127.68332 38.90174 L 123.42910 33.35960 L 121.45573 43.50058 L 127.68332 38.90174 M 128.03814 41.01981 L 121.81055 45.61865 L 126.26767 50.30416 L 128.03814 41.01981 M 120.29630 47.23118 L 115.92414 53.92005 L 124.75342 51.91669 L 120.29630 47.23118 M 137.71473 50.11532 L 143.07495 59.10307 L 145.52004 51.68586 L 137.71473 50.11532 M 147.47270 52.59777 L 145.02761 60.01498 L 153.33600 57.41056 L 147.47270 52.59777 M 135.48415 61.13005 L 138.53013 68.29390 L 142.05045 62.17227 L 135.48415 61.13005 M 139.48495 72.03926 L 138.65742 78.68106 L 147.47052 78.32945 L 139.48495 72.03926 M 135.40765 80.33434 L 127.14859 78.99022 L 130.55895 86.25805 L 135.40765 80.33434 M 137.05880 81.40626 L 132.21009 87.32997 L 140.35774 87.56553 L 137.05880 81.40626 M 147.82358 80.15817 L 139.01048 80.50978 L 142.30942 86.66905 L 147.82358 80.15817 M 149.32721 80.90558 L 143.81305 87.41645 L 151.03951 86.48901 L 149.32721 80.90558 M 151.89084 88.05106 L 144.66439 88.97851 L 156.13790 93.40203 L 151.89084 88.05106 M 160.98654 85.37025 L 153.93111 87.60003 L 158.17817 92.95100 L 160.98654 85.37025 M 160.96248 76.08353 L 163.07429 82.98790 L 169.93652 83.02639 L 160.96248 76.08353 M 174.04887 67.94536 L 162.33430 74.20321 L 171.30835 81.14608 L 174.04887 67.94536 M 180.79551 66.32569 L 196.00291 74.49890 L 198.35946 66.27334 L 180.79551 66.32569 M 186.72977 52.27341 L 175.45781 47.23900 L 177.22053 61.74127 L 186.72977 52.27341 M 199.49366 55.05490 L 191.92975 53.24385 L 199.98446 62.65936 L 199.49366 55.05490 M 213.55409 57.82465 L 211.41571 68.78236 L 218.21937 63.02360 L 213.55409 57.82465 M 218.91847 65.12169 L 212.11481 70.88045 L 219.14689 74.60935 L 218.91847 65.12169 M 229.11421 60.17091 L 221.83178 63.30420 L 228.36730 68.96150 L 229.11421 60.17091 M 238.62141 61.74662 L 231.21292 59.97621 L 230.46600 68.76680 L 238.62141 61.74662 M 239.71652 59.90867 L 239.22688 54.06318 L 232.30803 58.13826 L 239.71652 59.90867 M 239.95078 71.11693 L 239.71364 63.13921 L 231.55823 70.15939 L 239.95078 71.11693 M 239.25417 73.07869 L 230.86162 72.12115 L 234.14077 78.83332 L 239.25417 73.07869 M 240.94627 83.18716 L 240.51475 74.46194 L 235.40135 80.21657 L 240.94627 83.18716 M 240.00910 84.80154 L 234.46419 81.83096 L 233.01746 87.37701 L 240.00910 84.80154 M 229.34434 93.14486 L 219.69901 93.11043 L 221.71622 125.43271 L 229.34434 93.14486 M 215.77858 93.82041 L 197.98086 98.82469 L 217.79578 126.14269 L 215.77858 93.82041 M 205.90720 88.59361 L 199.81363 89.51708 L 194.88603 94.17442 L 205.90720 88.59361 M 200.33674 87.63754 L 206.43031 86.71407 L 199.07092 79.13808 L 200.33674 87.63754 M 200.16675 78.19180 L 207.52614 85.76779 L 209.10340 80.06728 L 200.16675 78.19180 M 211.12282 81.23193 L 209.54556 86.93243 L 216.32210 87.50897 L 211.12282 81.23193 M 219.01112 77.99883 L 212.30602 80.11523 L 217.50530 86.39227 L 219.01112 77.99883 M 220.47536 78.38419 L 218.96953 86.77762 L 224.01992 83.19806 L 220.47536 78.38419 M 227.89858 72.80757 L 221.59149 76.63793 L 225.13605 81.45180 L 227.89858 72.80757 M 222.12966 52.82682 L 214.89333 55.83020 L 219.55861 61.02916 L 222.12966 52.82682 M 247.17224 41.16325 L 228.38289 28.08467 L 239.61917 48.64107 L 247.17224 41.16325 M 248.84737 44.93495 L 241.29430 52.41277 L 241.78394 58.25825 L 248.84737 44.93495 M 266.67824 38.33654 L 256.81670 44.52337 L 288.12398 68.63027 L 266.67824 38.33654 M 261.96690 25.06807 L 257.72267 31.74797 L 263.87256 32.07681 L 261.96690 25.06807 M 281.78573 30.14831 L 269.79936 36.53966 L 291.24510 66.83338 L 281.78573 30.14831 M 283.42720 23.85956 L 306.28256 23.53208 L 269.53518 23.24217 L 283.42720 23.85956 M 297.37927 24.11023 L 309.76307 23.64059 L 286.90771 23.96807 L 297.37927 24.11023 M 284.73094 74.46043 L 246.36023 63.67684 L 246.59737 71.65456 L 284.73094 74.46043 M 262.90708 125.09501 L 234.74535 97.14293 L 227.11723 129.43078 L 262.90708 125.09501 M 264.75164 135.68198 L 266.65787 129.91239 L 230.86801 134.24816 L 264.75164 135.68198 M 275.65927 140.30135 L 272.25677 130.66904 L 270.35055 136.43863 L 275.65927 140.30135 M 276.91038 139.42477 L 280.35947 129.42599 L 273.50789 129.79246 L 276.91038 139.42477 M 282.53183 147.08503 L 285.71264 141.64826 L 278.50784 142.70420 L 282.53183 147.08503 M 284.15058 147.65985 L 291.45782 147.30273 L 287.33139 142.22307 L 284.15058 147.65985 M 287.49903 153.76656 L 291.47878 148.74566 L 284.17153 149.10278 L 287.49903 153.76656 M 289.33774 154.34063 L 298.88123 153.69535 L 293.31749 149.31973 L 289.33774 154.34063 M 273.93263 155.76118 L 280.46510 149.29770 L 271.68729 148.50534 L 273.93263 155.76118 M 264.87218 159.92451 L 271.98351 157.08953 L 269.73818 149.83369 L 264.87218 159.92451 M 292.38375 195.55361 L 286.79559 160.42549 L 276.93562 162.22518 L 292.38375 195.55361 M 295.15567 195.20433 L 299.11101 159.43092 L 289.56751 160.07620 L 295.15567 195.20433 M 353.85347 149.84496 L 356.74722 128.76057 L 349.25964 128.14829 L 353.85347 149.84496 M 394.21506 100.11772 L 381.48567 98.77176 L 388.80059 105.16693 L 394.21506 100.11772 M 396.01886 97.48012 L 396.86264 90.72251 L 389.65782 89.47778 L 396.01886 97.48012 M 426.23631 129.94278 L 426.28054 123.94899 L 418.38642 126.19200 L 426.23631 129.94278 M 407.14392 53.61210 L 398.55833 50.39453 L 403.61730 58.27764 L 407.14392 53.61210 M 409.90061 46.69790 L 399.34374 48.94707 L 407.92933 52.16464 L 409.90061 46.69790 M 419.89346 40.88675 L 424.69625 37.28031 L 416.23764 35.62841 L 419.89346 40.88675 M 425.36268 35.54417 L 425.22486 26.99768 L 416.90407 33.89227 L 425.36268 35.54417 M 413.14746 34.07071 L 410.09513 28.06529 L 406.68289 36.08251 L 413.14746 34.07071 M 408.25528 26.88452 L 398.42864 24.62458 L 404.84304 34.90174 L 408.25528 26.88452 M 403.34936 36.15170 L 396.93496 25.87453 L 396.30585 36.88416 L 403.34936 36.15170 M 387.78140 53.66691 L 391.43133 40.49583 L 368.63228 40.86437 L 387.78140 53.66691 M 361.20232 35.90649 L 384.63048 24.52833 L 327.71260 25.01353 L 361.20232 35.90649 M 357.48649 41.41382 L 323.99677 30.52086 L 354.90381 68.58695 L 357.48649 41.41382 M 348.20585 72.31832 L 317.29881 34.25223 L 303.90283 71.26478 L 348.20585 72.31832 M 189.00134 87.88193 L 182.64310 91.70914 L 191.09976 94.33891 L 189.00134 87.88193 M 179.95029 93.02576 L 173.09918 95.01235 L 182.76660 99.05809 L 179.95029 93.02576 M 172.29825 96.49172 L 173.54284 104.86076 L 181.96567 100.53746 L 172.29825 96.49172 M 169.68162 95.92178 L 161.03263 95.97792 L 170.92621 104.29082 L 169.68162 95.92178 M 182.28599 103.16312 L 173.86317 107.48642 L 174.86087 117.49699 L 182.28599 103.16312 M 140.56078 91.76659 L 132.41314 91.53103 L 138.68315 115.01474 L 140.56078 91.76659 M 130.38880 91.97750 L 124.36606 95.33835 L 136.65881 115.46121 L 130.38880 91.97750 M 106.35321 78.21885 L 115.47200 83.42126 L 118.59838 72.93938 L 106.35321 78.21885 M 95.12807 73.73048 L 102.09945 87.21865 L 102.25956 78.72868 L 95.12807 73.73048 M 82.97878 68.39454 L 73.57074 84.70079 L 89.81590 72.30248 L 82.97878 68.39454 M 74.07443 63.88344 L 71.60306 83.64841 L 81.01109 67.34216 L 74.07443 63.88344 M 61.94477 65.03586 L 69.21977 83.36012 L 71.69114 63.59515 L 61.94477 65.03586 M 53.10559 66.71671 L 58.26319 62.56100 L 54.67105 57.96489 L 53.10559 66.71671 M 45.36638 60.83083 L 51.49349 66.50044 L 53.05895 57.74861 L 45.36638 60.83083 M 42.27015 62.97770 L 28.28914 74.92352 L 48.39726 68.64731 L 42.27015 62.97770 M 29.05673 52.26912 L 34.51153 54.95497 L 38.57609 50.46434 L 29.05673 52.26912 M 33.42897 42.76530 L 28.92141 50.74541 L 38.44077 48.94063 L 33.42897 42.76530 M 31.82741 41.67909 L 25.62832 40.25091 L 27.31986 49.65920 L 31.82741 41.67909 M 35.47572 41.88420 L 40.48753 48.05953 L 45.29545 43.69662 L 35.47572 41.88420 M 33.58702 33.27656 L 26.41172 38.20308 L 32.61081 39.63126 L 33.58702 33.27656 M 55.78224 26.41402 L 46.92411 24.73960 L 48.22486 32.92856 L 55.78224 26.41402 M 89.53584 50.46777 L 82.33729 55.10361 L 88.39944 58.04603 L 89.53584 50.46777 M 93.34078 49.91039 L 101.19240 56.59761 L 103.78884 51.53558 L 93.34078 49.91039 M 148.80599 34.12922 L 154.52939 36.38466 L 157.44753 26.21540 L 148.80599 34.12922 M 156.43075 24.68058 L 146.39518 24.10608 L 147.78921 32.59440 L 156.43075 24.68058 M 159.75582 25.80775 L 156.83769 35.97701 L 167.27235 30.86803 L 159.75582 25.80775 M 169.58026 33.83216 L 165.15316 45.11890 L 172.21149 43.34305 L 169.58026 33.83216 M 177.04840 27.06104 L 171.79653 30.78909 L 180.26269 34.01329 L 177.04840 27.06104 M 185.68728 22.75571 L 151.13243 22.87624 L 161.16801 23.45074 L 185.68728 22.75571 M 192.15707 24.18016 L 180.40620 26.20741 L 190.12234 32.93963 L 192.15707 24.18016 M 194.42368 25.47680 L 192.38896 34.23627 L 198.53912 36.58053 L 194.42368 25.47680 M 189.63956 36.07232 L 183.13771 36.29236 L 185.08050 42.28945 L 189.63956 36.07232 M 190.75774 36.89280 L 186.19869 43.10993 L 192.08317 42.85622 L 190.75774 36.89280 M 163.95735 49.87715 L 158.25105 57.39589 L 172.77840 62.60356 L 163.95735 49.87715 M 144.74486 125.49065 L 160.15299 142.46333 L 167.37628 135.11747 L 144.74486 125.49065 M 118.81980 201.33797 L 121.17415 210.05604 L 128.42901 205.13912 L 118.81980 201.33797 M 90.12890 217.56480 L 91.22265 223.48620 L 96.70238 218.55310 L 90.12890 217.56480 M 82.81244 224.70675 L 89.48641 224.25541 L 88.39265 218.33400 L 82.81244 224.70675 M 83.34763 226.94705 L 92.67411 236.25643 L 90.02159 226.49571 L 83.34763 226.94705 M 67.00643 247.50874 L 89.79721 238.88306 L 80.47073 229.57368 L 67.00643 247.50874 M 64.79299 245.75688 L 78.25729 227.82182 L 72.08969 224.86813 L 64.79299 245.75688 M 71.98810 283.67482 L 80.38084 282.09533 L 84.18802 277.43782 L 71.98810 283.67482 M 70.88159 285.31271 L 75.33596 290.54100 L 79.27433 283.73322 L 70.88159 285.31271 M 63.45073 292.03520 L 55.57221 292.34781 L 71.87674 292.24512 L 63.45073 292.03520 M 57.79816 285.68452 L 53.81239 291.52773 L 61.69091 291.21512 L 57.79816 285.68452 M 31.74322 288.39194 L 49.21204 290.85314 L 46.34269 282.43639 L 31.74322 288.39194 M 29.06660 222.08684 L 37.85784 221.44466 L 34.17801 215.90985 L 29.06660 222.08684 M 24.72109 216.79198 L 23.19441 230.25543 L 26.38656 223.16383 L 24.72109 216.79198 M 110.39579 252.98608 L 114.73011 257.99994 L 116.04113 247.29721 L 110.39579 252.98608 M 109.52762 255.46021 L 109.09576 267.09025 L 113.86194 260.47407 L 109.52762 255.46021 M 132.66093 254.34809 L 135.64149 264.67718 L 144.48341 258.38687 L 132.66093 254.34809 M 391.94316 240.05621 L 382.38914 237.60671 L 381.64591 244.31500 L 391.94316 240.05621 M 392.76593 238.16869 L 388.22809 229.21486 L 383.21191 235.71919 L 392.76593 238.16869 M 394.58318 237.66079 L 397.74992 231.65600 L 390.04534 228.70696 L 394.58318 237.66079 M 425.49031 258.09987 L 425.26912 248.28878 L 421.23527 252.90433 L 425.49031 258.09987 M 422.20308 269.24211 L 424.87648 261.61711 L 418.77688 263.60612 L 422.20308 269.24211 M 422.88490 271.72419 L 424.23143 283.46278 L 425.55830 264.09919 L 422.88490 271.72419 M 422.34855 285.35598 L 421.00203 273.61739 L 410.49530 279.24481 L 422.34855 285.35598" fill="none" stroke="black" stroke-width="0.01cm" />
   </g>
</svg>