<?xml version="1.0" standalone="no"?>
  <!DOCTYPE svg PUBLIC "-//W3C//DTD SVG 1.1//EN" 
    "http://www.w3.org/Graphics/SVG/1.1/DTD/svg11.dtd">
  <svg width="15.875cm" height="11.43cm"
       xmlns="http://www.w3.org/2000/svg" version="1.1" viewBox="0 0 562.49999 404.99999">
   <g>
     <path d="M 287.56894 182.09537 L 292.99353 181.20290 L 287.36592 176.97043 L 287.56894 182.09537 M 289.19372 184.04310 L 300.36411 192.55222 L 294.61830 183.15063 L 289.19372 184.04310 M 293.71992 180.01104 L 293.38006 172.56047 L 288.09231 175.77857 L 293.71992 180.01104 M 295.89933 181.50015 L 300.82256 183.54388 L 300.26448 178.19714 L 295.89933 181.50015 M 300.24143 175.65427 L 300.97800 170.65148 L 295.53642 171.50670 L 300.24143 175.65427 M 300.10920 168.98993 L 293.29105 162.36187 L 294.66762 169.84515 L 300.10920 168.98993 M 292.68423 169.75368 L 291.30767 162.27039 L 284.24210 168.25813 L 292.68423 169.75368 M 292.12549 171.28245 L 283.68336 169.78690 L 286.83774 174.50055 L 292.12549 171.28245 M 282.05271 170.73787 L 279.08027 178.89023 L 285.20709 175.45152 L 282.05271 170.73787 M 271.36122 169.67888 L 269.09691 178.33025 L 276.10231 179.09242 L 271.36122 169.67888 M 268.95108 168.92567 L 256.82115 173.06674 L 266.68676 177.57704 L 268.95108 168.92567 M 263.11541 156.25662 L 256.37473 170.40169 L 268.50466 166.26062 L 263.11541 156.25662 M 274.36213 138.63313 L 266.23142 131.74379 L 264.86143 148.89158 L 274.36213 138.63313 M 284.72161 137.58566 L 276.88946 131.98710 L 277.75304 137.40395 L 284.72161 137.58566 M 285.02807 139.43836 L 278.05950 139.25665 L 279.34114 146.80870 L 285.02807 139.43836 M 287.81073 149.45913 L 280.42175 149.76828 L 285.00231 155.87208 L 287.81073 149.45913 M 294.64897 145.50242 L 290.65273 148.49758 L 296.35313 151.48397 L 294.64897 145.50242 M 298.71467 140.32411 L 289.03312 139.15876 L 294.73141 143.22478 L 298.71467 140.32411 M 303.59287 146.74988 L 296.26649 145.28395 L 297.97065 151.26551 L 303.59287 146.74988 M 304.55136 147.67329 L 298.92914 152.18892 L 303.93445 152.67123 L 304.55136 147.67329 M 310.03100 141.24128 L 302.25520 140.76766 L 305.59832 145.13426 L 310.03100 141.24128 M 311.14988 155.90923 L 306.07896 148.13832 L 305.46204 153.13627 L 311.14988 155.90923 M 311.49641 159.21918 L 304.89942 162.38667 L 309.76037 168.67746 L 311.49641 159.21918 M 317.57196 166.40086 L 313.08048 159.72095 L 311.34444 169.17923 L 317.57196 166.40086 M 326.71103 169.98285 L 325.67524 153.15613 L 320.67877 165.76072 L 326.71103 169.98285 M 322.57274 184.01113 L 326.10425 174.64828 L 318.32023 176.89459 L 322.57274 184.01113 M 324.07892 184.88192 L 330.36970 183.86091 L 327.61043 175.51907 L 324.07892 184.88192 M 330.20110 191.14670 L 330.69353 185.81436 L 324.40276 186.83538 L 330.20110 191.14670 M 318.91953 195.31582 L 322.65258 205.60729 L 328.69841 194.28819 L 318.91953 195.31582 M 312.59275 187.23865 L 320.88380 185.58493 L 316.63130 178.46839 L 312.59275 187.23865 M 311.18216 186.73841 L 315.22070 177.96815 L 309.59907 181.58305 L 311.18216 186.73841 M 309.53661 179.80300 L 315.15825 176.18811 L 310.68249 172.49804 L 309.53661 179.80300 M 307.95737 179.87926 L 309.10325 172.57430 L 302.52434 176.79820 L 307.95737 179.87926 M 301.84237 192.71668 L 301.01979 185.35882 L 296.09656 183.31509 L 301.84237 192.71668 M 281.18468 182.24346 L 298.68491 192.43882 L 287.51451 183.92970 L 281.18468 182.24346 M 301.56319 160.86349 L 297.46704 154.44073 L 293.76366 159.74733 L 301.56319 160.86349 M 296.06753 153.09657 L 290.36713 150.11017 L 292.36415 158.40316 L 296.06753 153.09657 M 323.43903 148.97815 L 313.31284 143.23896 L 313.95109 154.90285 L 323.43903 148.97815 M 324.17185 151.59870 L 314.68390 157.52339 L 319.17538 164.20329 L 324.17185 151.59870 M 343.24604 164.61396 L 328.49615 153.01278 L 329.53194 169.83950 L 343.24604 164.61396 M 345.73880 161.15868 L 349.47401 142.19723 L 330.98891 149.55750 L 345.73880 161.15868 M 338.39511 179.86509 L 344.48341 167.97050 L 330.76931 173.19604 L 338.39511 179.86509 M 348.70555 182.76455 L 346.72544 169.16656 L 340.63714 181.06116 L 348.70555 182.76455 M 351.11738 183.08636 L 359.93181 183.63561 L 349.13727 169.48837 L 351.11738 183.08636 M 348.29019 185.22954 L 340.22179 183.52614 L 343.40263 188.88643 L 348.29019 185.22954 M 352.42773 193.02493 L 349.81594 186.41688 L 344.92837 190.07378 L 352.42773 193.02493 M 354.38516 192.58098 L 360.58780 186.52218 L 351.77337 185.97293 L 354.38516 192.58098 M 341.08709 197.39093 L 341.83237 191.28224 L 333.29256 192.92708 L 341.08709 197.39093 M 325.16307 206.09817 L 339.00343 199.24292 L 331.20890 194.77907 L 325.16307 206.09817 M 324.45965 209.43487 L 325.58153 221.47267 L 338.30001 202.57962 L 324.45965 209.43487 M 321.65019 221.09363 L 320.52831 209.05583 L 306.84928 199.54730 L 321.65019 221.09363 M 359.92044 228.94805 L 353.59764 199.10491 L 345.35300 202.26245 L 359.92044 228.94805 M 361.98434 227.63143 L 361.86417 191.72949 L 355.66153 197.78829 L 361.98434 227.63143 M 369.02688 233.81322 L 412.00187 247.24265 L 368.90671 197.91129 L 369.02688 233.81322 M 388.29342 264.53272 L 393.82323 259.75331 L 369.16111 242.60568 L 388.29342 264.53272 M 384.51825 274.95134 L 388.14593 269.99572 L 377.13866 276.57462 L 384.51825 274.95134 M 384.39327 281.48828 L 384.04917 276.38791 L 376.66958 278.01119 L 384.39327 281.48828 M 379.00120 284.43175 L 383.76228 282.49376 L 376.03858 279.01667 L 379.00120 284.43175 M 377.60775 284.58346 L 374.64513 279.16838 L 372.61468 283.70741 L 377.60775 284.58346 M 371.20121 283.09924 L 373.23167 278.56021 L 366.30003 279.71809 L 371.20121 283.09924 M 365.42938 274.99738 L 372.36101 273.83950 L 364.23597 245.33355 L 365.42938 274.99738 M 374.92371 272.73424 L 385.93098 266.15534 L 366.79867 244.22829 L 374.92371 272.73424 M 378.82487 291.35699 L 378.13022 286.10703 L 373.13714 285.23099 L 378.82487 291.35699 M 372.57391 296.68586 L 377.73645 293.37382 L 368.89770 292.80362 L 372.57391 296.68586 M 359.72401 292.82253 L 365.37526 291.67072 L 358.88442 287.04107 L 359.72401 292.82253 M 351.33484 293.49205 L 357.96895 293.05020 L 357.12937 287.26873 L 351.33484 293.49205 M 347.66812 292.27909 L 344.30541 285.59743 L 337.79245 283.80486 L 347.66812 292.27909 M 346.81909 284.33269 L 355.97634 284.79103 L 352.10739 279.91023 L 346.81909 284.33269 M 345.40946 283.22404 L 350.69776 278.80158 L 344.69931 275.92183 L 345.40946 283.22404 M 337.21061 281.80717 L 343.72357 283.59974 L 343.01342 276.29753 L 337.21061 281.80717 M 336.27344 280.40137 L 342.07624 274.89173 L 336.22616 272.35338 L 336.27344 280.40137 M 335.84554 270.55162 L 341.69562 273.08997 L 333.22848 265.98728 L 335.84554 270.55162 M 335.98059 262.60553 L 344.44773 269.70822 L 357.86241 243.49765 L 335.98059 262.60553 M 321.54851 261.21466 L 316.14440 234.31422 L 256.27696 266.37376 L 321.54851 261.21466 M 354.59956 274.50736 L 363.20919 275.08087 L 362.01579 245.41703 L 354.59956 274.50736 M 392.91458 281.04694 L 394.58313 274.74862 L 386.98638 275.97636 L 392.91458 281.04694 M 397.30435 272.86460 L 405.52681 275.70977 L 398.86508 264.35730 L 397.30435 272.86460 M 412.30882 275.83070 L 433.24755 277.55024 L 423.95995 260.76003 L 412.30882 275.83070 M 430.37696 285.45787 L 434.04968 280.63747 L 413.11094 278.91793 L 430.37696 285.45787 M 433.57603 286.74696 L 438.70350 289.23060 L 437.24875 281.92655 L 433.57603 286.74696 M 440.40822 288.46973 L 447.21379 280.66003 L 438.95347 281.16569 L 440.40822 288.46973 M 446.89367 293.19319 L 450.10927 288.72859 L 441.61219 290.70263 L 446.89367 293.19319 M 450.32700 287.25713 L 448.63548 281.42146 L 441.82991 289.23116 L 450.32700 287.25713 M 454.30596 294.29563 L 451.69600 289.17772 L 448.48039 293.64231 L 454.30596 294.29563 M 439.75949 300.31713 L 439.05421 292.68177 L 434.22163 299.41694 L 439.75949 300.31713 M 432.01931 298.70509 L 431.72442 289.48628 L 427.26846 297.10599 L 432.01931 298.70509 M 431.23708 300.56326 L 426.48622 298.96416 L 425.46654 304.35168 L 431.23708 300.56326 M 430.57743 307.55828 L 431.74848 301.63753 L 425.97794 305.42595 L 430.57743 307.55828 M 429.16365 313.76441 L 437.30504 310.81933 L 431.54879 309.50497 L 429.16365 313.76441 M 425.55917 321.13789 L 419.54005 314.16955 L 416.64363 319.31004 L 425.55917 321.13789 M 431.12017 326.63569 L 427.62349 323.30664 L 423.64241 326.36265 L 431.12017 326.63569 M 431.27418 327.74317 L 423.79642 327.47012 L 428.85559 332.16644 L 431.27418 327.74317 M 432.62574 326.02209 L 435.68705 321.45386 L 429.12907 322.69305 L 432.62574 326.02209 M 435.18424 320.21820 L 428.60328 316.13677 L 428.62626 321.45738 L 435.18424 320.21820 M 444.20322 316.91401 L 439.70946 312.25563 L 438.14903 319.28214 L 444.20322 316.91401 M 450.59085 320.85303 L 452.19590 313.22666 L 446.97302 317.19644 L 450.59085 320.85303 M 454.35370 326.98918 L 448.08685 341.06087 L 484.94766 344.58757 L 454.35370 326.98918 M 445.47530 326.76996 L 449.75078 322.54594 L 446.13295 318.88935 L 445.47530 326.76996 M 430.45475 332.73507 L 436.58969 332.01911 L 432.87334 328.31179 L 430.45475 332.73507 M 428.15162 334.43548 L 417.97389 336.17345 L 430.76096 339.46117 L 428.15162 334.43548 M 427.05611 333.04662 L 421.99694 328.35030 L 416.87838 334.78460 L 427.05611 333.04662 M 433.09135 339.11061 L 436.61694 333.36897 L 430.48200 334.08492 L 433.09135 339.11061 M 430.16187 342.97072 L 417.37479 339.68301 L 423.35883 362.51189 L 430.16187 342.97072 M 439.16084 344.97519 L 432.88512 343.63224 L 426.08209 363.17342 L 439.16084 344.97519 M 415.28102 334.25303 L 420.39958 327.81873 L 414.27722 328.79406 L 415.28102 334.25303 M 413.67857 334.61178 L 412.67477 329.15282 L 407.57999 330.68879 L 413.67857 334.61178 M 411.91929 327.38427 L 407.63474 320.46341 L 406.82451 328.92024 L 411.91929 327.38427 M 414.30352 327.17718 L 420.42588 326.20185 L 415.49142 321.31799 L 414.30352 327.17718 M 414.00472 320.46863 L 408.53226 319.40695 L 412.81682 326.32782 L 414.00472 320.46863 M 408.24313 317.61607 L 413.71558 318.67774 L 410.50370 312.00074 L 408.24313 317.61607 M 406.49466 316.98001 L 408.75524 311.36468 L 399.72786 313.58927 L 406.49466 316.98001 M 399.43541 312.00117 L 408.46279 309.77658 L 404.15506 304.27522 L 399.43541 312.00117 M 398.07809 311.53357 L 402.79775 303.80763 L 397.60424 306.03584 L 398.07809 311.53357 M 391.57803 311.75396 L 396.67562 312.52687 L 396.20177 307.02913 L 391.57803 311.75396 M 395.97322 319.33973 L 396.64705 314.06569 L 391.54946 313.29279 L 395.97322 319.33973 M 392.27976 320.80383 L 387.85599 314.75688 L 367.09936 325.77846 L 392.27976 320.80383 M 398.64870 331.43058 L 404.23561 329.66144 L 397.60520 323.08790 L 398.64870 331.43058 M 397.35090 332.49049 L 396.30739 324.14782 L 393.85316 338.14075 L 397.35090 332.49049 M 394.72815 339.99455 L 403.30730 338.97823 L 398.22589 334.34429 L 394.72815 339.99455 M 390.10689 337.65960 L 392.56112 323.66667 L 367.38072 328.64130 L 390.10689 337.65960 M 392.35844 352.14926 L 392.10730 344.04920 L 385.58715 357.66512 L 392.35844 352.14926 M 385.66968 359.65877 L 392.76756 359.99845 L 392.44098 354.14292 L 385.66968 359.65877 M 382.30468 355.21964 L 388.82483 341.60372 L 366.09866 332.58542 L 382.30468 355.21964 M 366.62849 361.95195 L 360.27952 335.54945 L 352.12877 361.54773 L 366.62849 361.95195 M 366.47744 366.78178 L 351.97771 366.37756 L 359.07111 374.18805 L 366.47744 366.78178 M 370.63885 380.06001 L 379.59544 378.16794 L 370.83138 368.74426 L 370.63885 380.06001 M 372.66636 387.50655 L 379.82481 380.51322 L 370.86822 382.40529 L 372.66636 387.50655 M 374.17951 388.59208 L 382.97343 391.08950 L 381.33796 381.59875 L 374.17951 388.59208 M 364.43722 392.23302 L 380.86084 392.41878 L 372.06692 389.92136 L 364.43722 392.23302 M 360.58761 390.77314 L 361.92568 385.40935 L 356.35560 383.79187 L 360.58761 390.77314 M 361.72822 383.79187 L 359.00791 377.83326 L 356.15813 382.17438 L 361.72822 383.79187 M 354.82043 381.22698 L 357.67021 376.88586 L 351.02660 376.21263 L 354.82043 381.22698 M 348.15885 373.89142 L 347.70907 366.75415 L 338.97187 370.46773 L 348.15885 373.89142 M 343.12439 381.93459 L 347.48586 376.46328 L 337.49963 378.43403 L 343.12439 381.93459 M 337.10962 384.86022 L 341.82736 382.98421 L 336.20260 379.48365 L 337.10962 384.86022 M 337.45629 386.40088 L 338.97591 391.80893 L 342.17402 384.52487 L 337.45629 386.40088 M 331.66996 390.02880 L 334.93502 386.15278 L 326.78861 384.07211 L 331.66996 390.02880 M 326.04157 392.12948 L 336.55122 393.24400 L 331.76654 391.71198 L 326.04157 392.12948 M 336.81027 377.16331 L 346.79650 375.19256 L 337.60952 371.76887 L 336.81027 377.16331 M 330.33106 373.70451 L 334.75209 376.97731 L 335.55134 371.58287 L 330.33106 373.70451 M 329.82303 372.33118 L 335.04331 370.20954 L 330.68785 365.99068 L 329.82303 372.33118 M 332.73199 353.78990 L 338.72492 355.50411 L 332.38519 347.01196 L 332.73199 353.78990 M 325.05337 348.15685 L 329.63689 344.86978 L 321.66884 341.85753 L 325.05337 348.15685 M 321.53008 354.72878 L 330.00970 354.10386 L 325.07937 350.61300 L 321.53008 354.72878 M 319.78440 354.19719 L 323.33369 350.08141 L 316.04424 349.85113 L 319.78440 354.19719 M 316.06778 348.36326 L 323.35723 348.59354 L 319.97270 342.29421 L 316.06778 348.36326 M 320.67242 339.05771 L 325.83379 335.25248 L 319.88870 332.57578 L 320.67242 339.05771 M 318.22913 330.90259 L 319.73598 324.97700 L 311.83409 334.27449 L 318.22913 330.90259 M 330.09805 333.15960 L 353.27959 328.24026 L 325.65981 324.55731 L 330.09805 333.15960 M 333.93971 342.17990 L 354.31458 330.44308 L 331.13303 335.36243 L 333.93971 342.17990 M 312.74016 359.06201 L 313.62483 350.57511 L 308.60325 351.73242 L 312.74016 359.06201 M 298.64817 349.43453 L 306.03793 349.96733 L 304.62892 344.31674 L 298.64817 349.43453 M 304.10652 342.99647 L 307.26327 338.31068 L 292.72122 349.20882 L 304.10652 342.99647 M 306.65165 342.75089 L 313.08223 347.24417 L 309.80840 338.06510 L 306.65165 342.75089 M 303.78134 328.31682 L 311.68323 319.01933 L 253.80715 283.24123 L 303.78134 328.31682 M 286.03301 342.10005 L 300.57507 331.20191 L 250.60087 286.12632 L 286.03301 342.10005 M 288.63916 382.79438 L 302.39294 360.88184 L 290.46147 356.13872 L 288.63916 382.79438 M 293.99618 389.28154 L 320.11202 390.88958 L 320.95564 384.51539 L 293.99618 389.28154 M 325.36512 315.92006 L 345.30059 296.06942 L 335.42492 287.59519 L 325.36512 315.92006 M 355.49348 324.17555 L 347.80916 300.64196 L 327.87370 320.49260 L 355.49348 324.17555 M 364.21063 322.87204 L 381.64936 307.77594 L 372.48789 301.62703 L 364.21063 322.87204 M 365.99340 324.33253 L 386.75004 313.31096 L 383.43213 309.23643 L 365.99340 324.33253 M 383.66511 305.05402 L 380.33663 301.09669 L 374.50364 298.90511 L 383.66511 305.05402 M 385.18318 305.00593 L 386.64820 298.52037 L 381.85470 301.04860 L 385.18318 305.00593 M 397.40373 304.53590 L 402.59723 302.30769 L 396.47398 299.53401 L 397.40373 304.53590 M 403.26216 301.22944 L 402.72314 295.90990 L 397.13891 298.45576 L 403.26216 301.22944 M 405.35896 301.59049 L 413.91332 301.34419 L 404.81994 296.27096 L 405.35896 301.59049 M 415.04191 299.99242 L 414.38771 290.77633 L 405.94853 294.91919 L 415.04191 299.99242 M 425.54443 295.96773 L 430.00039 288.34802 L 418.22708 289.59902 L 425.54443 295.96773 M 419.36825 310.72140 L 423.15004 305.97737 L 417.50658 303.43723 L 419.36825 310.72140 M 406.27447 338.22601 L 412.87853 335.74593 L 406.77995 331.82294 L 406.27447 338.22601 M 396.06738 374.86167 L 417.27134 368.67976 L 396.68179 363.30286 L 396.06738 374.86167 M 383.99358 378.09589 L 391.57004 376.80242 L 389.48348 371.35348 L 383.99358 378.09589 M 398.56948 392.27215 L 452.83085 390.80500 L 443.05110 390.02965 L 398.56948 392.27215 M 400.72513 392.44113 L 460.29629 391.38149 L 454.98650 390.97398 L 400.72513 392.44113 M 440.64417 387.49028 L 423.30750 372.76664 L 406.43046 387.45615 L 440.64417 387.49028 M 446.08211 386.61071 L 449.93401 380.41959 L 428.74544 371.88707 L 446.08211 386.61071 M 449.32574 375.71647 L 441.21591 348.98572 L 428.13717 367.18395 L 449.32574 375.71647 M 470.46153 385.86661 L 487.97487 355.28859 L 459.22388 378.49264 L 470.46153 385.86661 M 499.11046 393.18632 L 465.81179 391.65803 L 406.24063 392.71767 L 499.11046 393.18632 M 525.17685 380.64452 L 529.13892 376.67733 L 501.82269 354.50666 L 525.17685 380.64452 M 530.27409 385.12439 L 542.60064 390.34566 L 534.23616 381.15721 L 530.27409 385.12439 M 544.22944 373.99007 L 545.87263 387.46183 L 549.72864 366.33706 L 544.22944 373.99007 M 542.74870 370.88390 L 546.24721 350.67616 L 536.02740 375.16721 L 542.74870 370.88390 M 548.74860 344.93263 L 550.74929 357.48736 L 550.53929 336.87196 L 548.74860 344.93263 M 550.80819 333.76682 L 551.01819 354.38222 L 550.89983 320.09148 L 550.80819 333.76682 M 541.49290 318.43449 L 548.34745 313.48001 L 537.36211 310.21133 L 541.49290 318.43449 M 539.10075 317.63630 L 534.96996 309.41315 L 529.21023 307.09452 L 539.10075 317.63630 M 535.03889 321.53988 L 525.14837 310.99809 L 502.47507 340.64178 L 535.03889 321.53988 M 535.69701 306.52277 L 540.06125 300.49581 L 534.79321 298.22165 L 535.69701 306.52277 M 542.90391 300.36469 L 549.52502 309.66034 L 546.54917 293.90408 L 542.90391 300.36469 M 541.77542 297.70628 L 545.42068 291.24567 L 540.49710 288.39301 L 541.77542 297.70628 M 535.23405 296.03019 L 540.50209 298.30434 L 539.22377 288.99108 L 535.23405 296.03019 M 531.10560 290.22713 L 526.97092 293.21098 L 532.82857 295.60159 L 531.10560 290.22713 M 538.69556 286.13567 L 537.99937 280.83553 L 532.98287 287.80031 L 538.69556 286.13567 M 538.72258 277.15192 L 542.21986 268.78054 L 535.96744 272.00293 L 538.72258 277.15192 M 531.60788 271.01742 L 530.39246 264.93983 L 511.31394 272.12303 L 531.60788 271.01742 M 532.22449 259.91816 L 537.89045 254.83445 L 521.51960 243.11103 L 532.22449 259.91816 M 538.70234 252.81362 L 538.71960 243.75152 L 522.33149 241.09020 L 538.70234 252.81362 M 549.40952 256.05734 L 550.73486 265.13947 L 550.37761 238.21767 L 549.40952 256.05734 M 543.90219 265.00857 L 547.73064 258.13746 L 542.10031 257.06966 L 543.90219 265.00857 M 542.28843 265.58227 L 540.48656 257.64336 L 534.82059 262.72707 L 542.28843 265.58227 M 537.94932 241.31775 L 532.54015 233.34344 L 521.56122 238.65642 L 537.94932 241.31775 M 533.25910 229.70231 L 538.22572 224.07516 L 527.75539 223.12884 L 533.25910 229.70231 M 535.08825 213.92292 L 541.17066 214.66602 L 536.33000 208.80978 L 535.08825 213.92292 M 532.40299 213.81964 L 528.27635 209.01754 L 525.05693 213.52870 L 532.40299 213.81964 M 534.89362 206.06711 L 533.80625 197.52680 L 529.52523 206.37816 L 534.89362 206.06711 M 525.65987 207.37670 L 517.28667 203.44935 L 516.62491 209.13141 L 525.65987 207.37670 M 514.55034 209.43435 L 515.21210 203.75229 L 509.06328 209.80022 L 514.55034 209.43435 M 515.06173 225.54734 L 507.38108 231.55379 L 516.22270 236.70531 L 515.06173 225.54734 M 503.20982 230.68466 L 497.37973 224.52573 L 496.36337 229.90472 L 503.20982 230.68466 M 501.40483 239.76213 L 503.71296 232.58921 L 496.86651 231.80928 L 501.40483 239.76213 M 499.19562 242.35331 L 492.44039 240.78425 L 488.25618 246.93481 L 499.19562 242.35331 M 500.55724 245.71588 L 489.61779 250.29738 L 503.33335 267.68481 L 500.55724 245.71588 M 491.98058 237.77035 L 494.19748 231.38654 L 489.11600 230.77641 L 491.98058 237.77035 M 488.14540 229.04472 L 494.24325 224.27586 L 483.19945 229.29582 L 488.14540 229.04472 M 481.26662 235.83353 L 480.13275 231.00630 L 473.52179 232.88138 L 481.26662 235.83353 M 480.40479 237.00486 L 472.65995 234.05270 L 473.23807 240.37690 L 480.40479 237.00486 M 471.45673 240.42537 L 470.87861 234.10117 L 466.15405 237.39259 L 471.45673 240.42537 M 466.22011 249.97663 L 470.47458 243.20430 L 461.97320 246.52747 L 466.22011 249.97663 M 464.86561 251.27972 L 460.61869 247.83056 L 459.63853 253.62903 L 464.86561 251.27972 M 460.18196 244.86544 L 463.38066 238.50949 L 457.19284 239.71318 L 460.18196 244.86544 M 450.88624 249.90100 L 458.62015 246.28938 L 455.63103 241.13712 L 450.88624 249.90100 M 449.56241 249.42704 L 454.30721 240.66316 L 448.02953 242.49767 L 449.56241 249.42704 M 446.40399 251.13298 L 444.87110 244.20361 L 429.03981 254.31066 L 446.40399 251.13298 M 451.14830 260.62612 L 449.24450 254.25860 L 448.32722 266.01872 L 451.14830 260.62612 M 454.82064 267.01744 L 451.84532 262.22098 L 449.02423 267.61358 L 454.82064 267.01744 M 461.78652 262.94253 L 453.44060 261.63710 L 456.41592 266.43356 L 461.78652 262.94253 M 462.05433 261.66008 L 458.55836 256.17397 L 453.70841 260.35465 L 462.05433 261.66008 M 469.43617 259.43470 L 466.40479 253.41600 L 464.67368 261.25142 L 469.43617 259.43470 M 475.11983 265.35997 L 470.90532 261.64385 L 469.18107 269.18984 L 475.11983 265.35997 M 476.26413 264.00187 L 478.33545 258.32509 L 472.04962 260.28576 L 476.26413 264.00187 M 477.30033 256.93440 L 467.98312 252.87637 L 471.01450 258.89507 L 477.30033 256.93440 M 477.47506 255.10711 L 472.41231 244.27675 L 468.15784 251.04908 L 477.47506 255.10711 M 479.46272 254.81022 L 484.05914 248.67398 L 474.39997 243.97986 L 479.46272 254.81022 M 487.39838 251.82848 L 482.80196 257.96473 L 501.11394 269.21591 L 487.39838 251.82848 M 484.35971 246.64506 L 481.86725 238.57890 L 474.70054 241.95095 L 484.35971 246.64506 M 479.89740 220.50487 L 498.43747 206.97222 L 454.23273 167.22975 L 479.89740 220.50487 M 456.27771 229.98618 L 467.19009 225.49107 L 448.13639 170.34088 L 456.27771 229.98618 M 447.54431 232.72493 L 453.82199 230.89041 L 445.68067 171.24511 L 447.54431 232.72493 M 457.09411 255.07784 L 450.34036 252.89099 L 452.24416 259.25851 L 457.09411 255.07784 M 445.57465 265.56303 L 446.49193 253.80291 L 429.12775 256.98059 L 445.57465 265.56303 M 448.02872 278.44406 L 446.92770 270.74195 L 439.76840 278.94972 L 448.02872 278.44406 M 449.90685 277.93987 L 454.79339 274.91621 L 448.80582 270.23776 L 449.90685 277.93987 M 437.26156 276.62335 L 444.42085 268.41559 L 427.97396 259.83314 L 437.26156 276.62335 M 467.75977 277.40401 L 467.01832 272.01814 L 458.80066 275.05449 L 467.75977 277.40401 M 469.63826 277.32331 L 473.82861 274.40886 L 468.89682 271.93744 L 469.63826 277.32331 M 474.75641 275.91162 L 470.56606 278.82607 L 476.31919 283.95957 L 474.75641 275.91162 M 474.57108 273.09232 L 475.57805 266.79103 L 469.63929 270.62090 L 474.57108 273.09232 M 478.33138 273.34154 L 499.72165 272.61464 L 479.33835 267.04024 L 478.33138 273.34154 M 470.79161 288.26629 L 475.82359 285.50390 L 470.07046 280.37041 L 470.79161 288.26629 M 469.09162 288.00154 L 468.37047 280.10566 L 462.22366 283.38591 L 469.09162 288.00154 M 471.88994 297.99425 L 479.79952 294.94526 L 471.43555 291.27353 L 471.88994 297.99425 M 480.45346 293.59053 L 477.12146 287.15642 L 472.08949 289.91880 L 480.45346 293.59053 M 463.56526 313.97749 L 456.28850 323.60375 L 486.88246 341.20215 L 463.56526 313.97749 M 499.42285 338.66769 L 522.09614 309.02401 L 510.62112 305.74716 L 499.42285 338.66769 M 506.13610 304.72485 L 486.21601 300.84553 L 494.93784 337.64538 L 506.13610 304.72485 M 525.94755 303.57353 L 524.94582 295.20042 L 519.76078 300.16018 L 525.94755 303.57353 M 509.61104 268.85378 L 528.68956 261.67058 L 517.98467 244.86344 L 509.61104 268.85378 M 500.16140 270.90349 L 481.84943 259.65231 L 479.77810 265.32909 L 500.16140 270.90349 M 542.41013 213.72335 L 545.00406 206.38155 L 537.56948 207.86711 L 542.41013 213.72335 M 549.98385 212.42083 L 549.92231 194.24117 L 547.21813 204.72284 L 549.98385 212.42083 M 550.50018 214.59530 L 551.08794 261.69073 L 550.69944 156.84348 L 550.50018 214.59530 M 550.40742 205.27028 L 550.60668 147.51846 L 550.34588 187.09063 L 550.40742 205.27028 M 545.60560 202.61530 L 548.30979 192.13364 L 537.08364 195.56054 L 545.60560 202.61530 M 547.57127 187.78402 L 538.60285 176.44240 L 537.43976 182.58691 L 547.57127 187.78402 M 549.91268 181.30312 L 550.17347 141.73096 L 546.94175 158.97023 L 549.91268 181.30312 M 535.24698 181.21283 L 536.41006 175.06832 L 530.02896 176.79139 L 535.24698 181.21283 M 529.34396 175.41034 L 535.72506 173.68727 L 529.76703 170.16444 L 529.34396 175.41034 M 537.43340 171.11051 L 543.43091 160.11924 L 531.05515 162.26467 L 537.43340 171.11051 M 545.62329 163.00316 L 539.62579 173.99443 L 548.59421 185.33606 L 545.62329 163.00316 M 545.46573 154.59352 L 546.31110 142.37468 L 540.49086 141.26901 L 545.46573 154.59352 M 536.86860 141.35936 L 529.70879 140.95202 L 529.46771 156.82929 L 536.86860 141.35936 M 537.70748 136.89777 L 536.18479 127.77480 L 530.54157 129.85221 L 537.70748 136.89777 M 544.69621 128.25658 L 549.03668 125.04370 L 543.49995 122.02662 L 544.69621 128.25658 M 549.23390 123.40299 L 546.27398 115.13084 L 543.69717 120.38591 L 549.23390 123.40299 M 549.99409 120.92737 L 549.77869 100.58101 L 547.03417 112.65522 L 549.99409 120.92737 M 544.64055 113.66015 L 536.16640 111.63752 L 542.06373 118.91522 L 544.64055 113.66015 M 540.54821 119.43395 L 534.65087 112.15625 L 532.51633 117.80995 L 540.54821 119.43395 M 531.39970 120.24022 L 529.75310 127.77002 L 535.39632 125.69260 L 531.39970 120.24022 M 528.35229 127.33449 L 529.99889 119.80469 L 524.18983 122.20838 L 528.35229 127.33449 M 519.67799 138.47662 L 515.50944 126.71229 L 460.54968 149.19773 L 519.67799 138.47662 M 519.24976 115.05030 L 515.45452 94.52530 L 498.43603 88.19117 L 519.24976 115.05030 M 524.71263 107.09487 L 527.41097 96.82231 L 519.28094 94.60038 L 524.71263 107.09487 M 531.54217 102.29916 L 528.94363 97.78466 L 526.24529 108.05721 L 531.54217 102.29916 M 533.06798 109.49400 L 532.05771 103.76283 L 526.76083 109.52088 L 533.06798 109.49400 M 532.90737 111.12042 L 526.60022 111.14729 L 530.77283 116.77412 L 532.90737 111.12042 M 543.70425 104.04432 L 534.17564 103.07826 L 535.18591 108.80943 L 543.70425 104.04432 M 544.02502 102.69189 L 537.75210 97.98996 L 534.49641 101.72582 L 544.02502 102.69189 M 549.36215 98.42960 L 546.66183 103.71607 L 546.61764 110.50381 L 549.36215 98.42960 M 548.80370 94.33484 L 547.34531 87.11790 L 540.90808 90.24920 L 548.80370 94.33484 M 549.72841 86.85589 L 548.30579 30.41757 L 548.27002 79.63895 L 549.72841 86.85589 M 546.34626 85.78326 L 540.81131 83.65773 L 539.90903 88.91456 L 546.34626 85.78326 M 546.89623 82.96311 L 544.30877 66.35337 L 541.36127 80.83758 L 546.89623 82.96311 M 539.41266 80.37187 L 542.36016 65.88766 L 531.30735 79.23742 L 539.41266 80.37187 M 537.96042 88.44885 L 538.86270 83.19202 L 530.75738 82.05757 L 537.96042 88.44885 M 536.68473 90.50941 L 528.38599 89.39365 L 529.75288 94.40096 L 536.68473 90.50941 M 536.63870 96.00616 L 537.71632 91.33597 L 530.78447 95.22752 L 536.63870 96.00616 M 529.44295 82.64915 L 528.34725 87.92467 L 536.64599 89.04043 L 529.44295 82.64915 M 525.87471 81.30759 L 514.86323 75.52252 L 518.01587 89.36848 L 525.87471 81.30759 M 529.45676 77.79654 L 540.50957 64.44677 L 524.60794 68.84479 L 529.45676 77.79654 M 514.46196 89.61516 L 511.30932 75.76920 L 497.44348 83.28103 L 514.46196 89.61516 M 494.26618 81.99502 L 508.13202 74.48319 L 489.04353 79.32702 L 494.26618 81.99502 M 480.42413 72.19299 L 476.90695 27.12670 L 447.91664 65.14524 L 480.42413 72.19299 M 476.79467 86.06140 L 444.28718 79.01365 L 447.87129 138.07397 L 476.79467 86.06140 M 510.49078 66.51964 L 516.65345 63.35296 L 487.88512 26.29718 L 510.49078 66.51964 M 542.46329 57.88086 L 545.08651 25.26923 L 526.56166 62.27888 L 542.46329 57.88086 M 547.72781 27.01376 L 545.10459 59.62539 L 547.69204 76.23513 L 547.72781 27.01376 M 442.38674 62.82607 L 471.37705 24.80753 L 436.18491 53.63964 L 442.38674 62.82607 M 437.31068 67.81811 L 431.10885 58.63168 L 430.76856 64.74383 L 437.31068 67.81811 M 428.74504 63.66684 L 429.08533 57.55468 L 421.12252 59.20213 L 428.74504 63.66684 M 424.10609 69.36695 L 419.21950 60.68629 L 416.59711 65.21201 L 424.10609 69.36695 M 417.83615 58.03567 L 415.60590 52.86636 L 412.64715 57.85698 L 417.83615 58.03567 M 410.47115 57.02941 L 413.42991 52.03878 L 400.42821 51.41508 L 410.47115 57.02941 M 405.40193 64.36390 L 398.18960 53.99867 L 398.35171 67.95660 L 405.40193 64.36390 M 408.97996 71.38979 L 406.75073 66.53779 L 399.70051 70.13049 L 408.97996 71.38979 M 410.75817 70.86990 L 413.92617 65.97141 L 408.52894 66.01790 L 410.75817 70.86990 M 403.74415 91.03485 L 377.23725 120.70759 L 432.30457 143.25924 L 403.74415 91.03485 M 423.00982 50.17386 L 416.90124 51.90597 L 419.13148 57.07528 L 423.00982 50.17386 M 422.55221 48.26806 L 415.47056 41.82888 L 416.44362 50.00017 L 422.55221 48.26806 M 429.03581 44.65231 L 468.31242 21.07416 L 421.95416 38.21313 L 429.03581 44.65231 M 434.71544 51.57673 L 469.90758 22.74461 L 430.63097 46.32276 L 434.71544 51.57673 M 373.16172 125.70637 L 371.13993 131.02510 L 428.22904 148.25802 L 373.16172 125.70637 M 361.72086 175.36409 L 361.69456 135.87567 L 354.66154 142.25541 L 361.72086 175.36409 M 360.18254 178.98426 L 353.12322 145.87558 L 349.38800 164.83702 L 360.18254 178.98426 M 427.94397 154.65904 L 370.85486 137.42612 L 370.88117 176.91454 L 427.94397 154.65904 M 518.12335 180.18154 L 520.20626 169.01059 L 460.89882 158.53142 L 518.12335 180.18154 M 533.59268 192.79307 L 534.68732 184.16906 L 527.80945 185.67267 L 533.59268 192.79307 M 308.78552 75.55164 L 281.97871 124.40123 L 299.49241 131.16515 L 308.78552 75.55164 M 297.57305 61.32776 L 239.42816 55.48908 L 241.13082 72.06240 L 297.57305 61.32776 M 297.63925 57.87669 L 241.66039 44.45379 L 239.49435 52.03801 L 297.63925 57.87669 M 243.83664 97.46850 L 263.49538 124.63880 L 270.76250 126.11129 L 243.83664 97.46850 M 235.21367 97.97082 L 238.68902 106.04504 L 237.13051 92.27581 L 235.21367 97.97082 M 233.66724 99.25899 L 224.75906 102.58113 L 237.14259 107.33321 L 233.66724 99.25899 M 227.70875 92.83204 L 221.74163 94.00200 L 222.38579 100.38578 L 227.70875 92.83204 M 220.13494 94.61427 L 214.85525 97.73018 L 220.77911 100.99805 L 220.13494 94.61427 M 218.63596 106.80348 L 207.09063 106.75759 L 208.61126 137.83571 L 218.63596 106.80348 M 202.10088 108.08664 L 178.71796 117.43589 L 203.62151 139.16476 L 202.10088 108.08664 M 193.51806 98.28888 L 186.06549 102.14968 L 201.79466 101.84641 L 193.51806 98.28888 M 189.26192 90.69038 L 184.49890 100.75518 L 191.95147 96.89438 L 189.26192 90.69038 M 181.09672 89.40783 L 183.14205 99.81936 L 187.90507 89.75456 L 181.09672 89.40783 M 179.66733 90.24384 L 176.46998 96.44264 L 181.71267 100.65537 L 179.66733 90.24384 M 173.14335 84.17814 L 168.73677 89.59689 L 177.85594 87.65240 L 173.14335 84.17814 M 166.40126 83.40793 L 167.30494 89.06633 L 171.71152 83.64758 L 166.40126 83.40793 M 168.95324 90.97875 L 174.87505 95.23306 L 178.07240 89.03427 L 168.95324 90.97875 M 167.65570 92.00213 L 167.69213 97.22126 L 173.57751 96.25644 L 167.65570 92.00213 M 166.00763 92.20543 L 160.39297 97.88283 L 166.04407 97.42456 L 166.00763 92.20543 M 173.67368 97.71625 L 167.78830 98.68107 L 168.42503 103.68064 L 173.67368 97.71625 M 174.54058 98.70266 L 169.29193 104.66705 L 174.72349 106.57238 L 174.54058 98.70266 M 168.94750 106.56115 L 171.78509 113.85547 L 174.37906 108.46648 L 168.94750 106.56115 M 165.06334 115.57791 L 167.86003 120.67398 L 170.62918 116.21372 L 165.06334 115.57791 M 164.06170 116.55870 L 162.61604 124.06001 L 166.85839 121.65476 L 164.06170 116.55870 M 170.91047 117.78142 L 168.14132 122.24167 L 167.31364 128.11947 L 170.91047 117.78142 M 174.86371 120.24836 L 171.26689 130.58641 L 199.76726 141.97724 L 174.86371 120.24836 M 165.44951 131.76593 L 159.48498 134.38983 L 162.78963 138.45136 L 165.44951 131.76593 M 158.74835 136.36171 L 159.55645 147.54095 L 162.05300 140.42324 L 158.74835 136.36171 M 162.45647 143.05222 L 159.95992 150.16993 L 161.97609 157.39352 L 162.45647 143.05222 M 167.42200 160.31225 L 172.36701 168.81440 L 199.06264 150.67633 L 167.42200 160.31225 M 162.46573 162.58499 L 159.41244 168.85825 L 167.41073 171.08714 L 162.46573 162.58499 M 154.58516 159.73115 L 157.80925 167.43875 L 160.86253 161.16549 L 154.58516 159.73115 M 150.49726 168.58223 L 147.48092 175.53513 L 155.86819 170.01883 L 150.49726 168.58223 M 144.65851 168.42445 L 149.74145 166.72995 L 151.88829 160.45895 L 144.65851 168.42445 M 134.52688 168.48708 L 140.41449 167.14140 L 128.90666 147.15441 L 134.52688 168.48708 M 134.01474 173.55483 L 128.18094 180.26384 L 136.53094 179.64170 L 134.01474 173.55483 M 120.76982 174.06522 L 126.21080 179.56678 L 132.04460 172.85777 L 120.76982 174.06522 M 124.05257 183.29591 L 111.35924 185.18081 L 122.03110 195.30434 L 124.05257 183.29591 M 108.88700 186.18939 L 104.27464 191.36460 L 119.55886 196.31293 L 108.88700 186.18939 M 103.87231 201.18650 L 109.23718 208.15033 L 119.55307 199.84436 L 103.87231 201.18650 M 101.63114 202.33303 L 101.62371 209.01661 L 106.99601 209.29687 L 101.63114 202.33303 M 101.60425 210.91812 L 101.47547 217.54515 L 106.97655 211.19838 L 101.60425 210.91812 M 107.92079 212.27886 L 102.41970 218.62562 L 109.15816 219.56192 L 107.92079 212.27886 M 111.47158 209.87011 L 121.74751 214.94468 L 121.78747 201.56413 L 111.47158 209.87011 M 111.51402 223.25132 L 113.55063 233.57879 L 117.99266 230.53028 L 111.51402 223.25132 M 102.11078 220.81897 L 105.44942 229.82561 L 108.84923 221.75527 L 102.11078 220.81897 M 93.17197 219.16435 L 96.43136 226.56584 L 99.36686 220.16889 L 93.17197 219.16435 M 93.60973 217.30379 L 99.80461 218.30832 L 99.93340 211.68130 L 93.60973 217.30379 M 93.89093 206.44980 L 99.98557 208.66073 L 99.99301 201.97715 L 93.89093 206.44980 M 76.61582 202.83593 L 90.22393 205.43706 L 90.35978 198.68726 L 76.61582 202.83593 M 53.50781 204.67430 L 68.03393 203.06180 L 49.83889 201.48282 L 53.50781 204.67430 M 76.19904 177.08365 L 80.55513 170.69421 L 41.96882 145.31813 L 76.19904 177.08365 M 89.40413 182.61912 L 82.62308 183.82210 L 90.93616 194.03928 L 89.40413 182.61912 M 91.50068 183.50539 L 93.03271 194.92555 L 99.39548 190.91223 L 91.50068 183.50539 M 92.21430 181.89980 L 100.10910 189.30664 L 98.74167 182.08089 L 92.21430 181.89980 M 91.87295 179.74999 L 98.40033 179.93107 L 97.37834 172.10811 L 91.87295 179.74999 M 99.24225 171.01029 L 100.26424 178.83324 L 106.78427 170.96737 L 99.24225 171.01029 M 92.92776 166.93062 L 97.75103 168.83839 L 100.69972 163.32295 L 92.92776 166.93062 M 92.38186 160.53169 L 87.78965 171.25183 L 90.89674 166.88864 L 92.38186 160.53169 M 102.46619 163.58936 L 99.51750 169.10480 L 107.05952 169.06189 L 102.46619 163.58936 M 123.88533 147.33021 L 111.51867 167.34037 L 118.23078 169.87034 L 123.88533 147.33021 M 132.42214 143.85927 L 151.15975 155.88077 L 155.42095 150.09152 L 132.42214 143.85927 M 132.91544 141.43520 L 155.91425 147.66745 L 155.10616 136.48820 L 132.91544 141.43520 M 132.48725 138.45957 L 154.67797 133.51257 L 152.48874 123.86238 L 132.48725 138.45957 M 139.22161 115.33312 L 130.55520 136.18714 L 150.55670 121.58995 L 139.22161 115.33312 M 147.74953 112.68724 L 141.37090 112.39564 L 152.70599 118.65246 L 147.74953 112.68724 M 145.00646 104.95046 L 140.40846 110.68289 L 146.78709 110.97449 L 145.00646 104.95046 M 146.75150 104.53045 L 148.53213 110.55448 L 154.36881 107.32279 L 146.75150 104.53045 M 137.44797 103.72501 L 131.83006 106.64666 L 137.90673 110.06586 L 137.44797 103.72501 M 134.65664 96.96304 L 138.07703 100.68198 L 140.74172 92.36223 L 134.65664 96.96304 M 134.12213 95.25900 L 140.20721 90.65818 L 133.80097 87.04960 L 134.12213 95.25900 M 132.13313 87.81056 L 126.86446 96.74584 L 132.45429 96.01995 L 132.13313 87.81056 M 137.78079 79.11472 L 141.91592 88.23817 L 145.52070 81.41382 L 137.78079 79.11472 M 135.06056 77.67476 L 130.16514 73.50269 L 132.78946 83.18963 L 135.06056 77.67476 M 142.63740 72.81676 L 137.87097 77.18705 L 145.61089 79.48614 L 142.63740 72.81676 M 144.13969 70.82993 L 149.51754 72.88881 L 147.48490 65.90299 L 144.13969 70.82993 M 146.32769 64.88566 L 140.25990 64.75017 L 142.98248 69.81260 L 146.32769 64.88566 M 140.07982 62.38598 L 146.14762 62.52148 L 141.54189 50.89914 L 140.07982 62.38598 M 138.40175 65.48233 L 131.46248 70.74299 L 141.12433 70.54477 L 138.40175 65.48233 M 149.46444 74.54543 L 144.08658 72.48655 L 147.06007 79.15594 L 149.46444 74.54543 M 150.77335 75.38484 L 148.36898 79.99535 L 154.55787 79.20186 L 150.77335 75.38484 M 155.43894 70.53813 L 151.65709 74.20269 L 155.44161 78.01971 L 155.43894 70.53813 M 156.57706 70.69128 L 156.57973 78.17286 L 160.76203 75.42789 L 156.57706 70.69128 M 161.48483 66.17694 L 157.19020 69.19179 L 161.37517 73.92841 L 161.48483 66.17694 M 168.07544 70.19054 L 162.84548 66.30179 L 162.73583 74.05325 L 168.07544 70.19054 M 170.84420 72.10230 L 173.30418 81.00172 L 177.19600 76.55921 L 170.84420 72.10230 M 171.83322 70.72211 L 178.18501 75.17902 L 181.21630 69.96016 L 171.83322 70.72211 M 174.66663 61.07018 L 164.33684 64.67890 L 169.56679 68.56765 L 174.66663 61.07018 M 178.85649 60.97985 L 183.13972 67.71537 L 188.47259 64.71820 L 178.85649 60.97985 M 179.26957 59.03878 L 188.88568 62.77712 L 186.44442 52.18678 L 179.26957 59.03878 M 179.83367 47.13284 L 178.13807 57.08324 L 185.31292 50.23125 L 179.83367 47.13284 M 176.78270 38.05882 L 172.13428 41.85277 L 178.21878 44.08807 L 176.78270 38.05882 M 179.05558 35.92246 L 187.31732 36.78088 L 183.49167 29.93274 L 179.05558 35.92246 M 181.65779 29.35197 L 172.64628 32.13473 L 177.22170 35.34169 L 181.65779 29.35197 M 172.29100 29.90653 L 181.30251 27.12377 L 174.37945 17.51604 L 172.29100 29.90653 M 175.83032 16.33620 L 182.75339 25.94392 L 183.89799 20.46775 L 175.83032 16.33620 M 190.47017 15.24684 L 176.79492 14.99906 L 184.86259 19.13062 L 190.47017 15.24684 M 200.09718 15.86956 L 194.04100 15.71859 L 193.69783 22.50590 L 200.09718 15.86956 M 202.76681 17.06208 L 202.88279 24.61818 L 208.88277 24.33897 L 202.76681 17.06208 M 200.86526 12.88242 L 145.65172 11.85399 L 173.59317 13.92784 L 200.86526 12.88242 M 211.36816 14.33217 L 203.82748 15.77633 L 209.94345 23.05322 L 211.36816 14.33217 M 210.90352 28.19458 L 207.53234 36.07158 L 216.30393 40.30912 L 210.90352 28.19458 M 200.32900 26.24169 L 193.81368 25.32193 L 194.85179 30.69075 L 200.32900 26.24169 M 190.43598 37.81322 L 196.55776 41.38497 L 194.05747 33.76126 L 190.43598 37.81322 M 196.70230 44.96242 L 189.23411 49.65991 L 196.56020 54.11165 L 196.70230 44.96242 M 189.94005 66.18610 L 184.60718 69.18328 L 190.59617 72.72309 L 189.94005 66.18610 M 184.21559 70.81337 L 186.80727 79.22685 L 190.20457 74.35319 L 184.21559 70.81337 M 191.56732 75.57078 L 188.17002 80.44445 L 195.11756 80.55417 L 191.56732 75.57078 M 205.73341 75.24546 L 198.90532 80.65492 L 208.09374 81.67656 L 205.73341 75.24546 M 208.46880 84.17075 L 199.97524 89.15539 L 208.03903 89.19269 L 208.46880 84.17075 M 199.52329 91.11239 L 204.85320 99.82680 L 207.58708 91.14969 L 199.52329 91.11239 M 216.31638 74.27256 L 207.90979 74.44767 L 210.27012 80.87876 L 216.31638 74.27256 M 217.18187 66.02256 L 210.22274 65.16540 L 217.34135 71.59051 L 217.18187 66.02256 M 209.04458 65.98584 L 207.75660 72.58605 L 216.16319 72.41094 L 209.04458 65.98584 M 226.48916 62.66954 L 222.46583 55.68537 L 219.55864 63.97801 L 226.48916 62.66954 M 230.83929 55.77428 L 228.86213 63.60938 L 232.54195 72.34761 L 230.83929 55.77428 M 229.73884 53.52823 L 223.73836 54.37914 L 227.76168 61.36332 L 229.73884 53.52823 M 226.08611 23.97896 L 213.22274 26.68300 L 218.62316 38.79754 L 226.08611 23.97896 M 170.40850 44.88331 L 164.67208 52.35277 L 174.79740 57.06902 L 170.40850 44.88331 M 162.26938 40.67821 L 163.10608 50.30392 L 168.84250 42.83446 L 162.26938 40.67821 M 153.51913 38.14330 L 161.19066 49.71752 L 160.35396 40.09182 L 153.51913 38.14330 M 151.50733 39.00358 L 144.25953 46.97402 L 159.17885 50.57780 L 151.50733 39.00358 M 152.76420 35.78454 L 159.59902 37.73305 L 155.15120 30.84743 L 152.76420 35.78454 M 153.42779 30.18309 L 145.81174 32.41835 L 151.04079 35.12020 L 153.42779 30.18309 M 147.70093 26.40038 L 145.39426 31.32837 L 153.01031 29.09311 L 147.70093 26.40038 M 138.94735 29.27393 L 143.63639 31.35097 L 145.94306 26.42298 L 138.94735 29.27393 M 138.32943 31.50254 L 140.99972 44.25188 L 143.01847 33.57958 L 138.32943 31.50254 M 136.61321 31.50273 L 129.28868 33.58115 L 139.28350 44.25207 L 136.61321 31.50273 M 130.46817 25.22639 L 128.18676 31.20294 L 135.51129 29.12452 L 130.46817 25.22639 M 122.53006 26.57934 L 116.80473 27.35218 L 125.22624 31.15634 L 122.53006 26.57934 M 115.31263 29.78701 L 110.59328 46.05795 L 123.73415 33.59116 L 115.31263 29.78701 M 126.36505 35.65903 L 113.22419 48.12582 L 136.35987 46.32996 L 126.36505 35.65903 M 138.67159 21.95121 L 138.32675 28.09896 L 145.32246 25.24801 L 138.67159 21.95121 M 132.49049 13.27935 L 126.10605 17.67566 L 129.90133 21.96278 L 132.49049 13.27935 M 128.40804 11.87920 L 102.17742 13.37519 L 117.08783 13.66190 L 128.40804 11.87920 M 125.35206 11.75197 L 92.63999 12.64407 L 99.12144 13.24796 L 125.35206 11.75197 M 119.94361 11.69282 L 55.85390 12.77475 L 87.23155 12.58492 L 119.94361 11.69282 M 118.84203 15.51666 L 122.59549 23.81694 L 123.77779 18.13027 L 118.84203 15.51666 M 117.85523 16.43945 L 115.88335 25.51257 L 121.60868 24.73972 L 117.85523 16.43945 M 116.40587 15.39728 L 110.01380 16.40237 L 114.43399 24.47040 L 116.40587 15.39728 M 107.33036 17.17298 L 100.64808 21.42073 L 106.04087 25.38247 L 107.33036 17.17298 M 106.29767 15.81565 L 97.77933 14.52385 L 99.61539 20.06340 L 106.29767 15.81565 M 95.80440 15.14513 L 90.49828 20.78587 L 97.64046 20.68468 L 95.80440 15.14513 M 85.87265 14.36508 L 76.51951 19.87930 L 87.04798 20.60971 L 85.87265 14.36508 M 82.54727 13.52481 L 60.44489 13.88760 L 73.19412 19.03904 L 82.54727 13.52481 M 75.52266 21.79579 L 77.89789 29.69696 L 86.05114 22.52620 L 75.52266 21.79579 M 71.61374 21.52416 L 58.86451 16.37273 L 69.90418 33.40580 L 71.61374 21.52416 M 76.14960 31.28999 L 73.77437 23.38882 L 72.06482 35.27046 L 76.14960 31.28999 M 77.14983 33.20298 L 73.06504 37.18344 L 81.77616 38.69269 L 77.14983 33.20298 M 73.26086 38.63034 L 78.71634 44.77815 L 81.97197 40.13958 L 73.26086 38.63034 M 71.92306 39.16124 L 71.26959 44.38680 L 77.37855 45.30906 L 71.92306 39.16124 M 80.15757 46.96969 L 82.55628 51.57502 L 85.64763 46.91870 L 80.15757 46.96969 M 86.50255 48.82973 L 83.41120 53.48606 L 86.99693 62.25796 L 86.50255 48.82973 M 89.06100 48.55626 L 89.55538 61.98449 L 103.87879 51.29824 L 89.06100 48.55626 M 84.74402 40.07317 L 86.97845 44.66075 L 89.94724 38.14998 L 84.74402 40.07317 M 84.75355 33.52331 L 84.46591 38.68099 L 89.66913 36.75780 L 84.75355 33.52331 M 85.93966 32.61690 L 90.85523 35.85139 L 93.95478 31.42971 L 85.93966 32.61690 M 91.37549 64.66185 L 103.62188 69.97513 L 105.69890 53.97560 L 91.37549 64.66185 M 90.19342 67.21059 L 96.24233 74.36557 L 102.43981 72.52388 L 90.19342 67.21059 M 87.83467 67.32728 L 83.56976 73.45739 L 93.88358 74.48226 L 87.83467 67.32728 M 83.19657 75.10462 L 84.84908 80.50516 L 93.51038 76.12949 L 83.19657 75.10462 M 72.47249 74.13826 L 68.73459 81.47211 L 74.60439 81.80839 L 72.47249 74.13826 M 65.33769 68.89280 L 61.26262 74.45156 L 70.61264 71.92313 L 65.33769 68.89280 M 68.28432 61.66522 L 66.44762 66.58307 L 73.58029 63.92193 L 68.28432 61.66522 M 61.95829 59.99183 L 64.99487 66.09181 L 66.83157 61.17396 L 61.95829 59.99183 M 53.71696 57.89115 L 62.44806 50.01658 L 49.78311 40.55524 L 53.71696 57.89115 M 51.13157 58.58151 L 47.19771 41.24560 L 41.76490 55.53947 L 51.13157 58.58151 M 43.47492 67.28435 L 45.12661 73.18801 L 48.22449 69.35578 L 43.47492 67.28435 M 49.90292 70.30197 L 46.80504 74.13419 L 56.90236 74.85381 L 49.90292 70.30197 M 48.60669 75.47094 L 64.31613 80.99599 L 58.70401 76.19057 L 48.60669 75.47094 M 45.82886 81.62576 L 36.48137 125.42910 L 61.53830 87.15080 L 45.82886 81.62576 M 56.18787 69.46239 L 51.07577 69.71799 L 58.07521 74.26984 L 56.18787 69.46239 M 74.07147 65.05738 L 66.93879 67.71852 L 72.21374 70.74886 L 74.07147 65.05738 M 70.47684 84.92186 L 82.84926 96.28949 L 79.90784 90.70490 L 70.47684 84.92186 M 88.15672 90.27278 L 82.11782 91.37377 L 85.05925 96.95835 L 88.15672 90.27278 M 89.52839 87.98868 L 93.92352 84.86758 L 85.59852 82.90762 L 89.52839 87.98868 M 94.88779 86.18412 L 90.49265 89.30522 L 93.31264 93.43993 L 94.88779 86.18412 M 98.07777 76.09922 L 104.87696 81.07980 L 104.27525 74.25753 L 98.07777 76.09922 M 106.57283 71.02495 L 114.98308 73.06038 L 108.64985 55.02541 L 106.57283 71.02495 M 117.38470 72.91068 L 125.78583 69.82736 L 111.05148 54.87572 L 117.38470 72.91068 M 116.11877 77.77784 L 108.31024 82.56468 L 117.13372 85.94281 L 116.11877 77.77784 M 118.80934 78.03738 L 119.82429 86.20235 L 129.83478 84.64100 L 118.80934 78.03738 M 120.64669 88.42219 L 125.38851 95.79612 L 130.65718 86.86084 L 120.64669 88.42219 M 112.79359 98.27932 L 105.00256 107.23300 L 115.53433 105.68666 L 112.79359 98.27932 M 102.46268 97.84336 L 103.36860 106.25259 L 111.15963 97.29891 L 102.46268 97.84336 M 106.29703 111.76395 L 123.14938 134.52697 L 116.82881 110.21761 L 106.29703 111.76395 M 103.87900 116.92077 L 97.48452 151.47215 L 120.73134 139.68379 L 103.87900 116.92077 M 107.62172 83.89806 L 110.61065 88.44490 L 116.44521 87.27619 L 107.62172 83.89806 M 113.24296 53.68372 L 127.97731 68.63536 L 134.91658 63.37470 L 113.24296 53.68372 M 148.14449 82.60061 L 149.56788 90.76203 L 153.74290 87.27195 L 148.14449 82.60061 M 143.22496 89.73253 L 148.25314 91.06961 L 146.82975 82.90818 L 143.22496 89.73253 M 143.05172 91.98289 L 145.44380 100.91107 L 148.07990 93.31997 L 143.05172 91.98289 M 141.95274 92.98042 L 139.28806 101.30017 L 144.34482 101.90859 L 141.95274 92.98042 M 150.73210 92.56123 L 157.45825 96.99421 L 154.90712 89.07115 L 150.73210 92.56123 M 157.34310 87.27397 L 165.50889 89.51963 L 164.60520 83.86123 L 157.34310 87.27397 M 156.85138 80.70764 L 156.26091 86.17247 L 163.52301 82.75973 L 156.85138 80.70764 M 161.71551 76.78985 L 157.53320 79.53481 L 164.20484 81.58690 L 161.71551 76.78985 M 163.82338 54.60911 L 163.61891 62.93408 L 173.94871 59.32537 L 163.82338 54.60911 M 156.41602 17.81219 L 155.90408 27.30348 L 162.72310 23.80984 L 156.41602 17.81219 M 154.68339 17.92661 L 148.86207 24.72516 L 154.17145 27.41789 L 154.68339 17.92661 M 152.97479 17.07096 L 140.50259 20.57271 L 147.15346 23.86951 L 152.97479 17.07096 M 159.43256 100.25818 L 157.68762 106.20865 L 165.72039 104.79947 L 159.43256 100.25818 M 158.19613 107.80862 L 163.50065 113.05795 L 166.22890 106.39944 L 158.19613 107.80862 M 158.15878 172.06530 L 155.98609 180.63451 L 162.60745 181.90109 L 158.15878 172.06530 M 167.61007 173.38844 L 159.61178 171.15954 L 164.06044 180.99533 L 167.61007 173.38844 M 169.05132 175.22736 L 165.50169 182.83425 L 171.14178 185.87095 L 169.05132 175.22736 M 172.96215 186.48332 L 180.06460 187.73319 L 170.87169 175.83973 L 172.96215 186.48332 M 173.19746 188.80338 L 172.75423 194.40023 L 180.29992 190.05326 L 173.19746 188.80338 M 181.28021 191.04164 L 173.73451 195.38862 L 181.03978 196.71048 L 181.28021 191.04164 M 195.40870 199.69646 L 188.64970 204.43095 L 228.09535 256.21804 L 195.40870 199.69646 M 202.57169 197.22694 L 235.25834 253.74853 L 245.95361 184.67483 L 202.57169 197.22694 M 177.39499 213.75609 L 168.26053 224.84850 L 223.82836 260.04884 L 177.39499 213.75609 M 162.15243 212.37614 L 160.55104 218.88941 L 169.68550 207.79700 L 162.15243 212.37614 M 155.64159 200.43941 L 161.62351 203.56196 L 159.67291 197.09158 L 155.64159 200.43941 M 161.61962 193.68242 L 170.21282 188.17783 L 164.57273 185.14114 L 161.61962 193.68242 M 147.84721 195.56166 L 153.91955 199.43938 L 157.95087 196.09154 L 147.84721 195.56166 M 146.17510 196.51462 L 144.57399 203.71523 L 152.24744 200.39234 L 146.17510 196.51462 M 144.08265 207.13073 L 145.22325 216.96268 L 148.77717 210.68386 L 144.08265 207.13073 M 146.36565 218.00465 L 153.22187 215.46651 L 149.91957 211.72583 L 146.36565 218.00465 M 145.23777 228.82563 L 149.45134 235.12115 L 151.77080 228.17676 L 145.23777 228.82563 M 143.93132 230.08091 L 141.31920 238.21898 L 148.14489 236.37643 L 143.93132 230.08091 M 137.26722 231.96265 L 139.95949 237.66726 L 142.57161 229.52919 L 137.26722 231.96265 M 135.57583 225.70841 L 136.71927 230.46779 L 142.02365 228.03433 L 135.57583 225.70841 M 129.62223 232.87100 L 131.28454 240.53399 L 134.86452 232.65249 L 129.62223 232.87100 M 124.28990 226.99622 L 120.93967 230.67621 L 127.29785 231.14722 L 124.28990 226.99622 M 124.45085 219.12227 L 125.24115 224.92974 L 132.34795 224.10284 L 124.45085 219.12227 M 125.48641 218.29030 L 133.38350 223.27087 L 133.52556 218.27398 L 125.48641 218.29030 M 125.64497 216.79365 L 133.68413 216.77733 L 134.65202 211.29764 L 125.64497 216.79365 M 127.49204 198.78790 L 141.47957 203.51467 L 143.08067 196.31407 L 127.49204 198.78790 M 114.55023 235.37455 L 119.51081 237.61741 L 118.99226 232.32604 L 114.55023 235.37455 M 111.56917 241.49489 L 118.58292 238.76352 L 113.62234 236.52065 L 111.56917 241.49489 M 106.70063 233.62068 L 110.08388 240.85204 L 112.13706 235.87780 L 106.70063 233.62068 M 99.07897 240.35755 L 108.45162 241.41201 L 105.06837 234.18065 L 99.07897 240.35755 M 92.49888 234.77902 L 96.30061 239.20222 L 96.01588 230.41562 L 92.49888 234.77902 M 93.23350 251.72510 L 96.25343 259.14715 L 100.54739 251.99432 L 93.23350 251.72510 M 102.48036 249.17726 L 108.12812 243.28658 L 98.75547 242.23213 L 102.48036 249.17726 M 103.71825 250.44895 L 108.65861 252.40566 L 109.36601 244.55828 L 103.71825 250.44895 M 110.57386 255.36577 L 114.24382 264.75115 L 116.07768 256.89709 L 110.57386 255.36577 M 105.66241 264.39283 L 112.94191 265.68812 L 109.27195 256.30274 L 105.66241 264.39283 M 105.62360 266.37369 L 108.96144 272.14962 L 112.90310 267.66898 L 105.62360 266.37369 M 110.23137 273.90505 L 115.78305 280.41713 L 114.17303 269.42441 L 110.23137 273.90505 M 116.10472 269.51293 L 117.71474 280.50565 L 125.68491 274.61323 L 116.10472 269.51293 M 116.82924 266.58599 L 126.40943 271.68629 L 123.51089 257.09014 L 116.82924 266.58599 M 125.87202 255.77484 L 128.77055 270.37099 L 135.71826 256.06359 L 125.87202 255.77484 M 121.14352 247.94039 L 124.29679 251.98171 L 129.16827 244.35606 L 121.14352 247.94039 M 132.61731 243.57428 L 137.59207 251.48868 L 138.88955 241.39738 L 132.61731 243.57428 M 140.76068 240.82317 L 139.46321 250.91448 L 147.58638 238.98062 L 140.76068 240.82317 M 139.39987 256.41514 L 140.25402 284.82847 L 147.52305 244.48129 L 139.39987 256.41514 M 122.02357 289.37672 L 136.19812 292.22883 L 128.39627 278.12289 L 122.02357 289.37672 M 121.86523 292.23826 L 127.12954 301.01523 L 136.03978 295.09037 L 121.86523 292.23826 M 117.65107 289.69093 L 116.05360 284.32952 L 109.18830 288.85005 L 117.65107 289.69093 M 113.45107 295.37419 L 118.43878 297.23103 L 118.38973 291.84933 L 113.45107 295.37419 M 112.23510 294.48525 L 117.17376 290.96039 L 108.71099 290.11952 L 112.23510 294.48525 M 112.70200 296.82315 L 112.39717 303.44103 L 117.68971 298.67999 L 112.70200 296.82315 M 105.49519 299.38664 L 110.87286 303.52936 L 111.17769 296.91148 L 105.49519 299.38664 M 105.03529 297.81755 L 110.71779 295.34239 L 107.19368 290.97666 L 105.03529 297.81755 M 105.55581 308.95505 L 109.37107 315.87699 L 110.67886 306.69980 L 105.55581 308.95505 M 113.04071 306.32354 L 117.96947 314.41057 L 118.21413 307.03518 L 113.04071 306.32354 M 110.80704 316.71010 L 117.04358 315.61994 L 112.11483 307.53291 L 110.80704 316.71010 M 110.92237 319.50309 L 111.94962 325.00112 L 118.24679 323.28865 L 110.92237 319.50309 M 119.72494 317.69527 L 120.81282 322.57099 L 126.24131 320.35004 L 119.72494 317.69527 M 120.33517 316.46508 L 126.85154 319.11985 L 125.69465 312.72945 L 120.33517 316.46508 M 119.43921 315.03220 L 124.79869 311.29657 L 119.68387 307.65681 L 119.43921 315.03220 M 128.00605 311.79833 L 134.02510 316.45706 L 133.96417 310.74782 L 128.00605 311.79833 M 136.24324 308.50816 L 143.12786 310.18178 L 139.41493 297.91664 L 136.24324 308.50816 M 136.30308 318.06901 L 139.34531 323.02035 L 143.12677 314.03340 L 136.30308 318.06901 M 128.97178 321.62842 L 128.23583 326.92357 L 136.87617 324.84808 L 128.97178 321.62842 M 128.79757 328.66119 L 133.46569 335.52939 L 137.43791 326.58570 L 128.79757 328.66119 M 124.45310 337.20391 L 131.84259 336.85667 L 127.17447 329.98846 L 124.45310 337.20391 M 122.81511 336.73228 L 125.53648 329.51684 L 118.73870 333.08366 L 122.81511 336.73228 M 116.41550 341.89829 L 121.67499 338.27996 L 117.59858 334.63134 L 116.41550 341.89829 M 116.75806 343.47233 L 120.33901 347.22367 L 122.01754 339.85400 L 116.75806 343.47233 M 115.82609 344.71014 L 114.56182 349.75653 L 119.40704 348.46148 L 115.82609 344.71014 M 121.55215 347.95751 L 126.46319 349.34306 L 123.23068 340.58785 L 121.55215 347.95751 M 120.78936 349.93864 L 117.12841 356.43693 L 125.70041 351.32420 L 120.78936 349.93864 M 128.99371 349.27056 L 134.40686 347.72472 L 133.15070 340.16810 L 128.99371 349.27056 M 135.24609 338.26284 L 140.81600 343.58381 L 141.44310 336.26407 L 135.24609 338.26284 M 135.01785 336.22503 L 141.21486 334.22626 L 138.99007 327.28134 L 135.01785 336.22503 M 142.99038 333.30107 L 149.22202 328.82346 L 140.76559 326.35614 L 142.99038 333.30107 M 144.10812 334.60042 L 149.70752 336.75099 L 150.33976 330.12282 L 144.10812 334.60042 M 151.84727 330.06238 L 151.21503 336.69056 L 156.16818 334.11692 L 151.84727 330.06238 M 150.76692 320.33133 L 151.79711 326.82790 L 156.16480 321.36584 L 150.76692 320.33133 M 144.62227 314.16513 L 140.84080 323.15208 L 148.26705 319.12283 L 144.62227 314.16513 M 141.69026 299.01176 L 145.40319 311.27690 L 154.44584 317.26911 L 141.69026 299.01176 M 99.93795 286.19696 L 103.68781 296.67437 L 105.84620 289.83348 L 99.93795 286.19696 M 100.43395 283.64361 L 106.34220 287.28013 L 107.65582 276.24752 L 100.43395 283.64361 M 83.32017 276.57132 L 82.59392 288.73827 L 95.09129 283.84160 L 83.32017 276.57132 M 83.59137 291.82667 L 91.29975 301.27854 L 96.08874 286.93000 L 83.59137 291.82667 M 81.64617 293.49802 L 80.52712 300.30081 L 89.35455 302.94989 L 81.64617 293.49802 M 71.15770 288.29299 L 79.60222 289.29469 L 80.32847 277.12774 L 71.15770 288.29299 M 69.35753 291.64334 L 67.04617 297.12775 L 76.68301 299.44783 L 69.35753 291.64334 M 58.47781 294.65587 L 55.70141 299.03516 L 63.50603 297.41663 L 58.47781 294.65587 M 49.58499 294.36388 L 57.16445 293.03814 L 57.80216 287.52840 L 49.58499 294.36388 M 66.06094 304.81679 L 76.27093 301.09451 L 66.63410 298.77443 L 66.06094 304.81679 M 74.53015 311.07033 L 81.55724 313.17846 L 78.87008 303.38979 L 74.53015 311.07033 M 59.52664 317.45943 L 71.75766 319.39249 L 71.29204 313.32407 L 59.52664 317.45943 M 58.62154 316.02705 L 70.38694 311.89169 L 64.51688 307.93343 L 58.62154 316.02705 M 64.71030 327.90298 L 70.93494 321.21485 L 58.70392 319.28180 L 64.71030 327.90298 M 66.44892 329.39381 L 72.61284 331.20840 L 72.67356 322.70568 L 66.44892 329.39381 M 74.23464 330.72634 L 79.42332 325.53739 L 74.29536 322.22363 L 74.23464 330.72634 M 74.96213 332.46909 L 80.11529 336.16561 L 80.15082 327.28014 L 74.96213 332.46909 M 74.99878 339.63467 L 79.47129 337.70993 L 74.31813 334.01341 L 74.99878 339.63467 M 80.59874 338.97345 L 76.12623 340.89819 L 83.33773 344.12158 L 80.59874 338.97345 M 82.42215 345.29686 L 75.21064 342.07347 L 73.27404 348.37570 L 82.42215 345.29686 M 86.72970 345.17048 L 93.49163 347.16167 L 93.76108 342.15007 L 86.72970 345.17048 M 87.56011 353.17108 L 92.71651 348.53930 L 85.95458 346.54811 L 87.56011 353.17108 M 79.88746 355.29809 L 85.95647 354.01593 L 84.35095 347.39296 L 79.88746 355.29809 M 78.35122 354.79179 L 82.81472 346.88665 L 73.66662 349.96549 L 78.35122 354.79179 M 80.03009 357.10671 L 85.49198 361.86187 L 86.09910 355.82455 L 80.03009 357.10671 M 77.94645 364.04725 L 84.47290 362.88971 L 79.01100 358.13455 L 77.94645 364.04725 M 76.49497 363.66885 L 77.55952 357.75615 L 72.86104 359.86257 L 76.49497 363.66885 M 71.85911 360.83363 L 69.54412 365.52466 L 75.49304 364.63992 L 71.85911 360.83363 M 72.34389 358.32842 L 77.04237 356.22201 L 72.35776 351.39571 L 72.34389 358.32842 M 63.49960 354.51614 L 70.65104 358.11519 L 70.66492 351.18247 L 63.49960 354.51614 M 57.40403 348.87132 L 61.39910 352.86235 L 65.00743 345.54229 L 57.40403 348.87132 M 57.06436 347.55340 L 64.66776 344.22438 L 58.68170 342.31901 L 57.06436 347.55340 M 54.34903 356.21826 L 59.14294 362.40805 L 60.40804 355.55265 L 54.34903 356.21826 M 49.63532 361.85267 L 51.14233 367.87293 L 57.58967 364.40301 L 49.63532 361.85267 M 43.21300 366.80586 L 49.34524 368.17328 L 47.83824 362.15303 L 43.21300 366.80586 M 42.28947 365.65647 L 46.91471 361.00363 L 41.95702 358.97812 L 42.28947 365.65647 M 43.04021 356.52178 L 51.15833 354.90785 L 47.79452 349.64523 L 43.04021 356.52178 M 32.62896 356.95738 L 39.72601 357.09970 L 36.49609 352.79697 L 32.62896 356.95738 M 29.37118 357.24941 L 27.42487 351.93897 L 19.47720 360.58597 L 29.37118 357.24941 M 29.99635 349.52874 L 35.80978 350.67877 L 36.18186 345.46452 L 29.99635 349.52874 M 25.59404 344.26168 L 28.71938 348.72660 L 34.90489 344.66238 L 25.59404 344.26168 M 20.29410 336.44766 L 23.63600 341.97467 L 25.70779 336.35818 L 20.29410 336.44766 M 28.29510 334.61254 L 35.50434 334.15005 L 31.71151 328.56157 L 28.29510 334.61254 M 32.78509 325.98776 L 40.66393 325.87124 L 32.79768 319.72709 L 32.78509 325.98776 M 33.61099 318.59669 L 41.47724 324.74084 L 39.29159 316.94457 L 33.61099 318.59669 M 32.90843 311.64293 L 32.53989 316.95945 L 38.22049 315.30733 L 32.90843 311.64293 M 26.01583 313.11048 L 31.01431 316.68485 L 31.38285 311.36833 L 26.01583 313.11048 M 24.44024 320.55103 L 30.75713 325.32273 L 30.76972 319.06206 L 24.44024 320.55103 M 23.65216 321.64330 L 24.46504 327.80023 L 29.96904 326.41500 L 23.65216 321.64330 M 13.31958 318.73193 L 15.58296 306.80592 L 18.51531 263.70908 L 13.31958 318.73193 M 14.44605 327.53282 L 22.52467 327.93995 L 21.71178 321.78302 L 14.44605 327.53282 M 21.08587 306.09819 L 16.97887 310.75291 L 23.31223 311.86581 L 21.08587 306.09819 M 24.19264 304.99937 L 31.78601 309.02484 L 36.46600 303.70456 L 24.19264 304.99937 M 42.86153 314.24244 L 54.27693 315.76792 L 52.94081 303.25047 L 42.86153 314.24244 M 41.73387 316.92648 L 43.91953 324.72275 L 53.14927 318.45195 L 41.73387 316.92648 M 38.33156 334.55219 L 43.03402 337.94619 L 42.41758 328.84719 L 38.33156 334.55219 M 38.87363 344.07541 L 46.48579 346.71584 L 43.54627 340.98973 L 38.87363 344.07541 M 53.06777 331.43392 L 62.47691 329.18037 L 56.47052 320.55918 L 53.06777 331.43392 M 67.10367 341.49403 L 71.91660 333.55694 L 65.75268 331.74235 L 67.10367 341.49403 M 68.08147 342.55629 L 73.57505 340.24047 L 72.89440 334.61920 L 68.08147 342.55629 M 81.68157 326.82820 L 81.64605 335.71367 L 87.20819 328.85356 L 81.68157 326.82820 M 89.65432 336.72914 L 94.30740 339.36307 L 95.48389 330.51996 L 89.65432 336.72914 M 96.59443 341.02496 L 104.17298 343.36483 L 101.54853 338.84130 L 96.59443 341.02496 M 95.57876 347.06445 L 103.42676 344.39272 L 95.84821 342.05285 L 95.57876 347.06445 M 96.70345 348.35764 L 104.84577 352.39837 L 104.55146 345.68591 L 96.70345 348.35764 M 95.90671 350.21033 L 98.17749 360.50739 L 104.04902 354.25106 L 95.90671 350.21033 M 103.02370 338.42245 L 105.64815 342.94597 L 108.39575 337.67411 L 103.02370 338.42245 M 109.75713 338.23113 L 107.00953 343.50299 L 113.91474 342.87860 L 109.75713 338.23113 M 110.91260 337.10379 L 115.07020 341.75127 L 116.25328 334.48432 L 110.91260 337.10379 M 104.60845 331.66954 L 102.89374 337.01289 L 108.26579 336.26455 L 104.60845 331.66954 M 97.80903 329.50900 L 101.58664 336.16845 L 103.30136 330.82510 L 97.80903 329.50900 M 97.46296 327.52247 L 102.95528 328.83857 L 98.81806 320.27625 L 97.46296 327.52247 M 100.13731 317.06083 L 108.05337 317.17212 L 104.23811 310.25018 L 100.13731 317.06083 M 91.51001 307.03246 L 85.36974 314.17205 L 96.20267 316.36996 L 91.51001 307.03246 M 94.19286 304.48655 L 102.98632 307.01340 L 102.73170 300.61543 L 94.19286 304.48655 M 93.62079 302.07579 L 102.15964 298.20466 L 98.40977 287.72725 L 93.62079 302.07579 M 79.45222 253.40929 L 82.70986 270.14695 L 92.74022 261.35124 L 79.45222 253.40929 M 79.99190 248.44658 L 90.25999 248.96649 L 90.04725 237.86738 L 79.99190 248.44658 M 29.35674 253.31843 L 56.93022 278.56940 L 69.54521 253.45258 L 29.35674 253.31843 M 26.38072 257.88304 L 45.73702 289.96949 L 53.95420 283.13401 L 26.38072 257.88304 M 22.60946 259.76749 L 23.78410 298.20960 L 41.96576 291.85394 L 22.60946 259.76749 M 28.82845 243.20508 L 70.29611 228.82870 L 51.42467 212.17309 L 28.82845 243.20508 M 24.78416 240.39589 L 47.38037 209.36391 L 37.94177 206.35522 L 24.78416 240.39589 M 31.06811 154.79948 L 22.74512 233.57534 L 35.90274 199.53467 L 31.06811 154.79948 M 33.77201 149.91041 L 38.60664 194.64560 L 44.37633 194.46281 L 33.77201 149.91041 M 43.24714 142.87391 L 81.83346 168.24999 L 86.42566 157.52985 L 43.24714 142.87391 M 25.32196 79.41208 L 17.45070 78.86530 L 29.30420 124.26252 L 25.32196 79.41208 M 25.98823 66.31116 L 26.68585 71.85284 L 33.04163 68.78350 L 25.98823 66.31116 M 30.76632 61.84032 L 26.49829 65.05960 L 33.55169 67.53194 L 30.76632 61.84032 M 32.24330 61.03837 L 35.02866 66.72999 L 38.31409 58.64405 L 32.24330 61.03837 M 35.04553 69.72476 L 28.68975 72.79410 L 42.01949 73.84120 L 35.04553 69.72476 M 24.25358 54.65002 L 30.17175 59.13010 L 30.44523 53.54958 L 24.25358 54.65002 M 28.36049 41.82101 L 32.39655 49.85993 L 43.62666 38.75227 L 28.36049 41.82101 M 18.16295 41.85314 L 22.24797 51.48554 L 24.40356 42.34618 L 18.16295 41.85314 M 16.16273 40.79360 L 13.94089 35.36570 L 14.70871 48.93016 L 16.16273 40.79360 M 15.04012 34.27377 L 17.26197 39.70167 L 23.50258 40.19470 L 15.04012 34.27377 M 17.05466 21.74968 L 15.01421 32.02977 L 23.47667 37.95071 L 17.05466 21.74968 M 38.94919 13.85349 L 20.89830 17.36065 L 34.13448 16.62571 L 38.94919 13.85349 M 42.04750 15.72953 L 37.23280 18.50175 L 45.68480 32.36897 L 42.04750 15.72953 M 48.02326 12.95402 L 57.29853 13.12698 L 79.40091 12.76419 L 48.02326 12.95402 M 53.33563 15.53116 L 44.06036 15.35821 L 47.69766 31.99764 L 53.33563 15.53116 M 52.08354 37.63545 L 68.10771 43.42760 L 68.76118 38.20204 L 52.08354 37.63545 M 236.12186 90.51783 L 230.61980 91.98125 L 234.20501 96.21285 L 236.12186 90.51783 M 241.77124 109.11294 L 259.87147 122.51401 L 240.21273 95.34370 L 241.77124 109.11294 M 238.59700 117.28396 L 216.18878 143.56413 L 255.32723 147.83282 L 238.59700 117.28396 M 166.02606 227.99394 L 159.51928 238.91957 L 221.59390 263.19427 L 166.02606 227.99394 M 242.86513 252.59969 L 263.42602 188.03629 L 253.56041 183.52600 L 242.86513 252.59969 M 247.77531 254.80938 L 292.84183 201.20351 L 268.33620 190.24598 L 247.77531 254.80938 M 257.42960 272.01844 L 325.36547 279.47167 L 322.70114 266.85934 L 257.42960 272.01844 M 256.37310 277.86661 L 314.24919 313.64471 L 324.30898 285.31984 L 256.37310 277.86661 M 203.47820 344.71088 L 273.89590 343.78867 L 238.46376 287.81495 L 203.47820 344.71088 M 181.86328 360.33012 L 182.81722 365.68409 L 187.06940 355.20095 L 181.86328 360.33012 M 185.56869 368.03471 L 203.87506 379.13503 L 189.82087 357.55156 L 185.56869 368.03471 M 155.62232 353.61394 L 150.34169 379.81117 L 175.82070 367.67232 L 155.62232 353.61394 M 143.60853 344.89852 L 151.98689 346.62999 L 149.83503 339.72936 L 143.60853 344.89852 M 142.50120 343.60549 L 148.72770 338.43633 L 143.12830 336.28576 L 142.50120 343.60549 M 119.66208 360.08447 L 141.05870 379.11894 L 128.23407 354.97174 L 119.66208 360.08447 M 117.31005 362.45184 L 109.41781 373.91072 L 138.70667 381.48631 L 117.31005 362.45184 M 108.57259 377.08116 L 110.54833 387.81543 L 137.86146 384.65676 L 108.57259 377.08116 M 94.18334 370.61376 L 102.30209 372.96959 L 97.79190 364.85427 L 94.18334 370.61376 M 99.42373 363.89070 L 103.93392 372.00602 L 107.23796 362.90516 L 99.42373 363.89070 M 87.96553 364.12014 L 92.39127 369.50758 L 95.99983 363.74809 L 87.96553 364.12014 M 63.62342 373.50059 L 74.82715 388.41689 L 68.55505 369.57399 L 63.62342 373.50059 M 60.68584 365.24250 L 61.85576 370.60379 L 66.78739 366.67719 L 60.68584 365.24250 M 42.39265 380.46762 L 46.69234 387.21881 L 51.04220 379.54635 L 42.39265 380.46762 M 48.55218 389.93781 L 40.17419 391.77491 L 69.99914 392.71001 L 48.55218 389.93781 M 29.21254 383.05129 L 34.53841 389.72367 L 38.61669 381.13537 L 29.21254 383.05129 M 27.56292 384.43184 L 25.41975 392.17976 L 32.88879 391.10421 L 27.56292 384.43184 M 30.69743 372.66499 L 28.73242 380.91896 L 38.13657 379.00304 L 30.69743 372.66499 M 31.20621 368.94499 L 39.43878 366.63135 L 32.00928 359.81068 L 31.20621 368.94499 M 28.73143 368.44726 L 29.53450 359.31295 L 19.64052 362.64950 L 28.73143 368.44726 M 17.85355 364.87897 L 15.23877 377.14869 L 26.94446 370.67673 L 17.85355 364.87897 M 14.62884 354.73932 L 13.69932 375.15652 L 16.31410 362.88680 L 14.62884 354.73932 M 15.98924 391.25823 L 23.30731 392.19901 L 25.45048 384.45109 L 15.98924 391.25823 M 148.30063 385.59063 L 120.98751 388.74930 L 192.08602 384.55210 L 148.30063 385.59063 M 175.79099 327.50524 L 191.21508 342.67546 L 226.20065 285.77952 L 175.79099 327.50524" fill="none" stroke="black" stroke-width="0.01cm" />
   </g>
</svg>