<?xml version="1.0" standalone="no"?>
  <!DOCTYPE svg PUBLIC "-//W3C//DTD SVG 1.1//EN" 
    "http://www.w3.org/Graphics/SVG/1.1/DTD/svg11.dtd">
  <svg width="12.7cm" height="8.89cm"
       xmlns="http://www.w3.org/2000/svg" version="1.1" viewBox="0 0 449.99999 314.99999">
   <g>
     <path d="M 213.40651 145.64027 L 207.75621 144.48049 L 208.11878 151.34156 L 213.40651 145.64027 M 205.98012 144.92730 L 199.19778 149.21473 L 206.34269 151.78836 L 205.98012 144.92730 M 197.90640 140.24440 L 191.37285 144.18080 L 196.63739 147.84912 L 197.90640 140.24440 M 190.58449 145.92390 L 191.59946 154.18921 L 195.84902 149.59222 L 190.58449 145.92390 M 187.94951 144.51496 L 181.96598 142.51130 L 181.76769 148.58961 L 187.94951 144.51496 M 180.02494 143.00265 L 172.42119 148.44572 L 179.82665 149.08095 L 180.02494 143.00265 M 180.84653 134.57464 L 189.39900 142.52149 L 195.93255 138.58509 L 180.84653 134.57464 M 181.42646 151.43481 L 178.22119 157.00760 L 188.62326 155.62546 L 181.42646 151.43481 M 171.93497 150.11016 L 176.13515 156.31819 L 179.34043 150.74540 L 171.93497 150.11016 M 168.40312 162.89176 L 173.96997 166.65420 L 175.14601 159.50601 L 168.40312 162.89176 M 167.02935 164.34651 L 164.15580 171.14405 L 172.59620 168.10896 L 167.02935 164.34651 M 164.69990 172.50867 L 171.38216 175.26346 L 173.14030 169.47357 L 164.69990 172.50867 M 163.67949 173.91369 L 164.97705 180.71371 L 170.36175 176.66847 L 163.67949 173.91369 M 158.78737 168.50018 L 161.66092 161.70264 L 129.64879 146.95793 L 158.78737 168.50018 M 149.50153 178.15335 L 157.26745 170.55652 L 128.12886 149.01427 L 149.50153 178.15335 M 147.06109 179.70174 L 125.68842 150.56266 L 137.74394 182.94360 L 147.06109 179.70174 M 151.12878 185.95619 L 145.11275 195.03915 L 154.92881 194.75714 L 151.12878 185.95619 M 165.57761 183.82016 L 166.97305 193.43731 L 172.47324 185.10286 L 165.57761 183.82016 M 166.14750 181.86839 L 173.04313 183.15109 L 171.53221 177.82315 L 166.14750 181.86839 M 176.01033 185.24103 L 179.58159 190.80953 L 184.80291 187.69145 L 176.01033 185.24103 M 168.46832 194.41606 L 177.53976 191.65010 L 173.96851 186.08161 L 168.46832 194.41606 M 168.02380 197.35926 L 171.08849 203.28205 L 176.41912 200.93847 L 168.02380 197.35926 M 172.38407 204.63521 L 178.38846 208.18456 L 177.71470 202.29164 L 172.38407 204.63521 M 179.21443 199.83357 L 184.37954 197.20875 L 179.89056 193.48840 L 179.21443 199.83357 M 187.26067 198.05312 L 189.81438 203.61040 L 195.22077 197.31093 L 187.26067 198.05312 M 187.00048 196.28231 L 194.96058 195.54011 L 187.73282 189.44388 L 187.00048 196.28231 M 188.86994 187.63419 L 196.09770 193.73042 L 196.09750 181.80479 L 188.86994 187.63419 M 205.11437 178.40019 L 256.23268 185.14469 L 209.88680 165.57848 L 205.11437 178.40019 M 194.64131 167.10439 L 197.41545 176.14515 L 202.18788 163.32344 L 194.64131 167.10439 M 190.68146 158.60265 L 186.06936 169.40605 L 192.10214 165.83107 L 190.68146 158.60265 M 197.27505 151.26548 L 193.02550 155.86246 L 201.99274 159.30993 L 197.27505 151.26548 M 214.16244 136.48101 L 201.60290 138.74600 L 207.11622 142.06329 L 214.16244 136.48101 M 213.45801 132.44268 L 201.48077 109.75666 L 200.89846 134.70767 L 213.45801 132.44268 M 233.75368 125.13375 L 229.23357 128.52942 L 239.57471 124.17673 L 233.75368 125.13375 M 240.47060 122.36440 L 236.40069 114.03071 L 234.64957 123.32142 L 240.47060 122.36440 M 241.89592 121.52113 L 246.05214 116.57526 L 237.82601 113.18744 L 241.89592 121.52113 M 242.92802 107.95445 L 239.13308 100.07909 L 237.17191 109.84713 L 242.92802 107.95445 M 250.32349 105.69517 L 240.77703 99.56009 L 244.57197 107.43546 L 250.32349 105.69517 M 250.86765 104.13503 L 248.92522 94.95433 L 241.32118 97.99995 L 250.86765 104.13503 M 251.21849 107.57458 L 245.46697 109.31486 L 247.93697 114.59536 L 251.21849 107.57458 M 263.73828 102.49292 L 256.63835 99.94526 L 254.21545 105.18879 L 263.73828 102.49292 M 264.36664 95.71753 L 257.90725 98.76135 L 265.00718 101.30901 L 264.36664 95.71753 M 263.60698 94.45426 L 258.92990 91.20279 L 257.14759 97.49808 L 263.60698 94.45426 M 257.06928 89.23211 L 253.08738 82.62604 L 250.92164 91.59024 L 257.06928 89.23211 M 251.61097 82.24555 L 245.25808 86.18820 L 249.44524 91.20975 L 251.61097 82.24555 M 251.20840 80.50183 L 246.22468 77.25995 L 244.85551 84.44447 L 251.20840 80.50183 M 259.15549 76.57219 L 255.51535 72.12562 L 253.82959 79.05665 L 259.15549 76.57219 M 252.74666 70.59874 L 241.98970 67.59903 L 246.07717 74.28789 L 252.74666 70.59874 M 261.00913 60.86631 L 252.03701 61.81846 L 255.52214 68.46517 L 261.00913 60.86631 M 267.29604 66.61066 L 262.91651 61.46534 L 257.42952 69.06419 L 267.29604 66.61066 M 267.03221 68.33143 L 257.16568 70.78497 L 260.80581 75.23154 L 267.03221 68.33143 M 269.72330 74.34396 L 268.60191 68.77631 L 262.37552 75.67641 L 269.72330 74.34396 M 277.00634 66.25378 L 270.43076 67.59848 L 271.55216 73.16613 L 277.00634 66.25378 M 277.14901 64.59383 L 272.69356 59.88649 L 270.57344 65.93852 L 277.14901 64.59383 M 282.46340 59.61499 L 274.17980 59.09605 L 278.63526 63.80338 L 282.46340 59.61499 M 285.81667 69.05019 L 280.04223 66.74111 L 283.48923 76.10040 L 285.81667 69.05019 M 281.88514 76.75801 L 278.43814 67.39872 L 272.98395 74.31107 L 281.88514 76.75801 M 281.77475 78.65040 L 272.87357 76.20347 L 277.55503 82.53788 L 281.77475 78.65040 M 292.71393 78.89492 L 285.24940 79.06113 L 288.98653 83.54293 L 292.71393 78.89492 M 301.83420 76.89039 L 295.81494 79.26953 L 300.31081 89.08517 L 301.83420 76.89039 M 305.72586 64.20891 L 296.51806 63.96693 L 302.51400 72.42607 L 305.72586 64.20891 M 304.79616 62.12169 L 295.07640 55.72833 L 295.58836 61.87971 L 304.79616 62.12169 M 293.60556 64.83713 L 288.44515 68.79142 L 293.58224 75.67542 L 293.60556 64.83713 M 284.84815 48.44970 L 274.65458 50.89183 L 283.20647 56.99744 L 284.84815 48.44970 M 274.40211 41.05174 L 266.97900 39.40639 L 266.10937 45.00626 L 274.40211 41.05174 M 275.41044 30.69528 L 268.14164 37.61752 L 275.56475 39.26287 L 275.41044 30.69528 M 276.56812 27.61951 L 284.77965 24.81588 L 269.34585 24.38258 L 276.56812 27.61951 M 287.21876 24.26060 L 296.08095 23.17728 L 271.78495 23.82731 L 287.21876 24.26060 M 292.65580 29.72921 L 287.69340 25.48421 L 279.48187 28.28784 L 292.65580 29.72921 M 295.09491 29.17393 L 298.99469 23.84561 L 290.13250 24.92893 L 295.09491 29.17393 M 292.51598 33.19340 L 279.49635 40.31962 L 286.42051 44.63011 L 292.51598 33.19340 M 303.83721 42.23285 L 295.55859 33.43255 L 289.46312 44.86927 L 303.83721 42.23285 M 320.25052 32.09653 L 324.20695 27.82263 L 314.49014 26.12859 L 320.25052 32.09653 M 328.90721 36.99406 L 326.00908 29.18081 L 322.05265 33.45471 L 328.90721 36.99406 M 334.90107 43.74840 L 330.22376 40.09887 L 325.00965 46.83042 L 334.90107 43.74840 M 336.37721 45.78478 L 331.02665 52.74154 L 337.49198 52.51522 L 336.37721 45.78478 M 347.24344 46.56960 L 340.41570 52.64398 L 346.47387 53.11560 L 347.24344 46.56960 M 351.39916 36.41141 L 345.39173 38.11087 L 348.34359 43.09879 L 351.39916 36.41141 M 362.19390 39.68616 L 354.26530 36.60086 L 357.33668 43.22854 L 362.19390 39.68616 M 366.90810 32.41576 L 355.46173 35.24926 L 363.39033 38.33456 L 366.90810 32.41576 M 366.27598 30.78573 L 358.33334 25.29433 L 354.82960 33.61924 L 366.27598 30.78573 M 347.36269 23.99278 L 354.32402 23.41067 L 337.65894 23.45922 L 347.36269 23.99278 M 340.66865 31.55994 L 332.80497 37.64858 L 342.47294 36.96624 L 340.66865 31.55994 M 333.88303 24.44913 L 328.47084 27.29404 L 339.23265 29.01865 L 333.88303 24.44913 M 313.29427 24.65918 L 328.42326 23.50831 L 305.27137 23.18612 L 313.29427 24.65918 M 318.00823 58.59278 L 308.47753 46.79449 L 308.77627 60.76383 L 318.00823 58.59278 M 331.89347 68.85905 L 322.03071 63.01566 L 321.56266 78.50516 L 331.89347 68.85905 M 318.83485 77.98054 L 319.30290 62.49103 L 310.07094 64.66208 L 318.83485 77.98054 M 316.38069 82.38056 L 304.40492 77.27927 L 302.88153 89.47405 L 316.38069 82.38056 M 298.91843 90.08905 L 294.42256 80.27341 L 290.69516 84.92142 L 298.91843 90.08905 M 298.98143 94.29577 L 288.28483 100.08384 L 297.39989 102.97150 L 298.98143 94.29577 M 296.54493 104.73724 L 287.42987 101.84959 L 292.14177 108.42171 L 296.54493 104.73724 M 290.60276 109.03784 L 285.89087 102.46571 L 284.23291 109.66626 L 290.60276 109.03784 M 283.67524 117.51567 L 290.32581 110.91908 L 283.95595 111.54751 L 283.67524 117.51567 M 281.94699 118.19977 L 282.22770 112.23160 L 276.49981 116.39181 L 281.94699 118.19977 M 275.75760 115.13369 L 281.48549 110.97347 L 276.00928 108.13477 L 275.75760 115.13369 M 274.99418 117.47626 L 270.18266 120.90714 L 280.44136 119.28421 L 274.99418 117.47626 M 267.05800 120.82184 L 266.34610 114.83758 L 260.96745 121.15525 L 267.05800 120.82184 M 259.89509 120.33557 L 265.27373 114.01790 L 258.47909 114.26441 L 259.89509 120.33557 M 259.61299 128.94481 L 254.02193 130.06203 L 267.19199 175.70338 L 259.61299 128.94481 M 267.37233 128.40417 L 261.28179 128.73757 L 268.86079 175.49614 L 267.37233 128.40417 M 265.95213 112.05453 L 265.32226 104.62864 L 259.15749 112.30105 L 265.95213 112.05453 M 272.34574 95.60367 L 266.17145 95.32282 L 266.81199 100.91430 L 272.34574 95.60367 M 272.46660 93.92366 L 267.77882 87.47428 L 266.29230 93.64282 L 272.46660 93.92366 M 283.60735 91.64499 L 278.05405 85.90661 L 275.53218 93.52750 L 283.60735 91.64499 M 285.10431 90.64119 L 287.50787 85.49714 L 279.55101 84.90282 L 285.10431 90.64119 M 284.39071 93.29499 L 276.31554 95.17750 L 284.32094 99.10665 L 284.39071 93.29499 M 307.73458 104.74139 L 301.41265 94.87797 L 299.83111 103.55369 L 307.73458 104.74139 M 301.48271 115.28076 L 293.17504 111.66076 L 291.79152 120.45748 L 301.48271 115.28076 M 317.75698 137.53977 L 322.88293 123.49741 L 303.55638 127.94007 L 317.75698 137.53977 M 332.02464 140.25261 L 336.83140 137.15424 L 328.16545 124.82263 L 332.02464 140.25261 M 338.43653 136.37509 L 344.86567 134.01938 L 329.77058 124.04348 L 338.43653 136.37509 M 347.40188 147.04378 L 347.06958 136.89442 L 340.64045 139.25013 L 347.40188 147.04378 M 349.20195 147.82773 L 355.04107 145.52180 L 348.86966 137.67838 L 349.20195 147.82773 M 356.19099 144.26944 L 358.40126 137.80886 L 350.01957 136.42602 L 356.19099 144.26944 M 367.79348 145.62378 L 360.62300 138.95858 L 358.41272 145.41916 L 367.79348 145.62378 M 365.00157 152.41936 L 368.34081 147.30637 L 358.96005 147.10176 L 365.00157 152.41936 M 352.22864 156.57430 L 355.46094 147.88379 L 349.62183 150.18972 L 352.22864 156.57430 M 342.54520 159.96218 L 346.74742 151.28701 L 339.27469 154.37151 L 342.54520 159.96218 M 336.89542 155.42253 L 330.73373 154.64667 L 337.14539 166.06167 L 336.89542 155.42253 M 338.90909 152.01882 L 346.38181 148.93433 L 339.62038 141.14068 L 338.90909 152.01882 M 330.11295 152.01540 L 336.27464 152.79125 L 332.17916 145.01148 L 330.11295 152.01540 M 328.24429 150.70577 L 330.31050 143.70185 L 321.32537 142.31424 L 328.24429 150.70577 M 322.07098 155.30616 L 315.15205 146.91462 L 280.92400 180.50492 L 322.07098 155.30616 M 339.41781 168.69651 L 345.64258 170.13474 L 342.43835 163.64804 L 339.41781 168.69651 M 345.29733 184.09779 L 358.38213 170.97538 L 348.06739 172.66014 L 345.29733 184.09779 M 335.25120 185.89666 L 331.79649 173.02078 L 284.23785 186.80455 L 335.25120 185.89666 M 364.29220 190.40762 L 374.12704 173.03357 L 363.38818 171.71796 L 364.29220 190.40762 M 381.09238 185.21558 L 376.34007 174.72078 L 366.50522 192.09482 L 381.09238 185.21558 M 383.55562 183.15659 L 386.21118 175.62285 L 378.80331 172.66178 L 383.55562 183.15659 M 386.88753 173.46678 L 388.96641 165.90801 L 379.47966 170.50571 L 386.88753 173.46678 M 388.69640 173.47367 L 393.95062 170.56087 L 390.77528 165.91490 L 388.69640 173.47367 M 395.17625 169.20287 L 398.50148 162.60974 L 392.00091 164.55691 L 395.17625 169.20287 M 397.86736 176.45564 L 394.83713 171.87846 L 389.58291 174.79127 L 397.86736 176.45564 M 396.73739 177.94801 L 388.45294 176.28363 L 385.79738 183.81737 L 396.73739 177.94801 M 406.78272 170.93719 L 401.17704 176.75233 L 407.42447 178.40269 L 406.78272 170.93719 M 405.49948 168.45178 L 400.18880 163.09660 L 396.86357 169.68973 L 405.49948 168.45178 M 407.18982 167.45710 L 410.38632 161.73228 L 401.87915 162.10192 L 407.18982 167.45710 M 410.69092 160.04889 L 409.62658 153.98997 L 402.18374 160.41853 L 410.69092 160.04889 M 412.99120 159.37263 L 420.58598 155.00846 L 411.92686 153.31371 L 412.99120 159.37263 M 408.33252 153.13522 L 400.33844 153.21090 L 400.88968 159.56378 L 408.33252 153.13522 M 410.30005 150.45354 L 413.59457 144.45897 L 405.34130 144.18063 L 410.30005 150.45354 M 401.72842 144.38929 L 392.68566 146.05257 L 398.69310 150.73789 L 401.72842 144.38929 M 393.80951 137.68581 L 392.07521 144.42106 L 401.11797 142.75778 L 393.80951 137.68581 M 392.50701 133.86882 L 394.00516 125.84113 L 387.46551 126.98477 L 392.50701 133.86882 M 400.87410 133.04477 L 395.68123 126.59863 L 394.18308 134.62632 L 400.87410 133.04477 M 410.59964 133.10261 L 409.09589 124.60153 L 404.18868 132.65357 L 410.59964 133.10261 M 412.10233 132.21633 L 416.21024 125.56336 L 410.59859 123.71526 L 412.10233 132.21633 M 416.73846 123.28618 L 416.32809 113.99889 L 411.12681 121.43808 L 416.73846 123.28618 M 418.18146 122.89601 L 422.67084 118.31670 L 417.77109 113.60872 L 418.18146 122.89601 M 425.95718 125.19259 L 424.37945 108.48726 L 424.26907 118.00282 L 425.95718 125.19259 M 425.30007 127.20615 L 423.61196 120.01638 L 419.12259 124.59569 L 425.30007 127.20615 M 424.07189 128.81076 L 417.89440 126.20030 L 413.78649 132.85327 L 424.07189 128.81076 M 423.61184 139.91164 L 424.78657 130.52468 L 414.50117 134.56719 L 423.61184 139.91164 M 422.49389 141.41526 L 413.38323 136.07081 L 415.84299 142.55363 L 422.49389 141.41526 M 422.32536 152.26754 L 423.61166 143.43985 L 416.96076 144.57822 L 422.32536 152.26754 M 420.90458 153.28654 L 415.53998 145.59721 L 412.24546 151.59178 L 420.90458 153.28654 M 420.72929 163.97510 L 421.68629 156.34114 L 414.09150 160.70530 L 420.72929 163.97510 M 422.18486 165.08802 L 425.73610 169.60865 L 423.14186 157.45406 L 422.18486 165.08802 M 419.18768 165.41639 L 412.54989 162.14659 L 409.35339 167.87141 L 419.18768 165.41639 M 426.05657 167.25698 L 424.74864 146.27470 L 423.46233 155.10239 L 426.05657 167.25698 M 417.90467 173.78888 L 425.08145 171.65050 L 421.53022 167.12987 L 417.90467 173.78888 M 415.99245 173.49379 L 419.61800 166.83479 L 409.78371 169.28981 L 415.99245 173.49379 M 416.36804 176.08795 L 410.80105 179.34946 L 421.98093 180.12253 L 416.36804 176.08795 M 398.06828 160.94748 L 391.71066 155.90477 L 391.56772 162.89465 L 398.06828 160.94748 M 389.93509 162.68148 L 390.07804 155.69160 L 385.00728 159.24212 L 389.93509 162.68148 M 388.55942 164.33684 L 383.63161 160.89749 L 379.07267 168.93455 L 388.55942 164.33684 M 382.07523 157.97750 L 378.59200 148.97355 L 375.03264 158.01795 L 382.07523 157.97750 M 389.57213 152.55027 L 389.37108 146.55478 L 381.01815 147.09684 L 389.57213 152.55027 M 378.18811 144.93064 L 381.37230 140.01674 L 372.10055 139.59249 L 378.18811 144.93064 M 376.88873 145.65362 L 370.80118 140.31547 L 370.97728 145.80059 L 376.88873 145.65362 M 368.57868 137.58966 L 366.27922 130.51233 L 361.58430 136.40958 L 368.57868 137.58966 M 374.60440 131.14316 L 367.90673 129.85402 L 370.20619 136.93136 L 374.60440 131.14316 M 364.94265 128.96352 L 357.88616 125.19922 L 360.24773 134.86078 L 364.94265 128.96352 M 365.09209 126.62330 L 361.44323 116.13897 L 358.03560 122.85899 L 365.09209 126.62330 M 372.71783 121.24198 L 363.27850 115.93684 L 366.92737 126.42117 L 372.71783 121.24198 M 373.38675 119.00336 L 372.27878 108.51216 L 363.94743 113.69821 L 373.38675 119.00336 M 379.22199 114.73691 L 374.18810 108.64200 L 375.29607 119.13319 L 379.22199 114.73691 M 380.47202 116.72613 L 376.54611 121.12241 L 384.18839 124.55573 L 380.47202 116.72613 M 388.23843 114.99759 L 387.37917 106.09666 L 382.12570 113.99459 L 388.23843 114.99759 M 383.75715 126.10781 L 376.11487 122.67450 L 377.02208 129.14282 L 383.75715 126.10781 M 374.29139 104.81769 L 384.57875 103.01467 L 370.86892 96.43661 L 374.29139 104.81769 M 371.63157 105.81612 L 368.20910 97.43504 L 363.30022 111.00217 L 371.63157 105.81612 M 387.44282 98.67662 L 397.20401 70.11328 L 373.73299 92.09856 L 387.44282 98.67662 M 399.61149 107.25548 L 389.56489 105.25427 L 390.42415 114.15520 L 399.61149 107.25548 M 423.32795 116.30314 L 423.43833 106.78758 L 418.42820 111.59516 L 423.32795 116.30314 M 422.09149 92.59546 L 423.09600 36.86837 L 406.53864 63.30090 L 422.09149 92.59546 M 395.98464 56.81072 L 380.76855 30.53130 L 369.43293 40.52089 L 395.98464 56.81072 M 361.69331 52.67060 L 393.60024 59.57813 L 367.04852 43.28831 L 361.69331 52.67060 M 360.77790 54.88785 L 359.72525 61.02632 L 392.68483 61.79539 L 360.77790 54.88785 M 355.74880 76.25292 L 351.57962 71.23225 L 351.55721 80.19034 L 355.74880 76.25292 M 356.85631 77.86705 L 352.66471 81.80447 L 360.43965 84.14529 L 356.85631 77.86705 M 350.06503 80.37656 L 350.08744 71.41847 L 343.81137 77.74266 L 350.06503 80.37656 M 349.09352 82.69519 L 342.83986 80.06129 L 342.31534 89.96749 L 349.09352 82.69519 M 353.41372 92.50505 L 350.41525 84.25066 L 343.63708 91.52296 L 353.41372 92.50505 M 354.16528 104.69444 L 361.11694 110.86196 L 366.02581 97.29483 L 354.16528 104.69444 M 349.47394 108.31015 L 331.90277 119.50052 L 353.01798 121.19771 L 349.47394 108.31015 M 352.66425 124.22146 L 331.54904 122.52427 L 346.64414 132.50018 L 352.66425 124.22146 M 336.63197 96.65493 L 314.57825 106.38393 L 326.20480 116.55952 L 336.63197 96.65493 M 335.99636 92.77886 L 321.11987 85.55094 L 313.94263 102.50785 L 335.99636 92.77886 M 361.13262 166.35178 L 363.69651 155.88635 L 354.42268 159.25926 L 361.13262 166.35178 M 359.29282 168.08753 L 352.58288 160.99500 L 348.97809 169.77229 L 359.29282 168.08753 M 365.96302 223.09703 L 402.23355 222.13318 L 365.77246 216.41719 L 365.96302 223.09703 M 357.28942 230.43849 L 363.70903 232.30586 L 360.73996 225.78525 L 357.28942 230.43849 M 349.73178 235.95032 L 354.17477 231.13254 L 346.68534 228.38724 L 349.73178 235.95032 M 357.29718 243.05437 L 349.74411 239.54764 L 343.67392 248.84125 L 357.29718 243.05437 M 339.13282 249.11334 L 337.23195 237.80065 L 328.93940 247.25016 L 339.13282 249.11334 M 333.89383 262.18886 L 338.61709 253.22205 L 327.63596 259.84034 L 333.89383 262.18886 M 327.38888 270.68503 L 324.81536 262.13134 L 319.73664 265.34485 L 327.38888 270.68503 M 318.47045 263.64465 L 323.54917 260.43115 L 317.25937 257.08349 L 318.47045 263.64465 M 317.29714 253.64307 L 324.37466 248.50926 L 317.98491 244.60277 L 317.29714 253.64307 M 317.26684 242.08434 L 324.06823 235.90237 L 311.14091 243.58409 L 317.26684 242.08434 M 325.43066 233.95372 L 328.16629 226.49515 L 312.50335 241.63544 L 325.43066 233.95372 M 346.59121 224.20048 L 357.34062 215.61270 L 345.71878 213.78928 L 346.59121 224.20048 M 402.68492 224.01896 L 366.41440 224.98281 L 369.38347 231.50342 L 402.68492 224.01896 M 415.04403 223.09357 L 423.75654 254.46608 L 423.27331 193.69167 L 415.04403 223.09357 M 425.43020 259.27644 L 426.86943 267.74935 L 426.51086 192.32906 L 425.43020 259.27644 M 418.31721 281.10038 L 425.00766 279.25816 L 416.86795 274.08447 L 418.31721 281.10038 M 416.15580 282.89199 L 409.58142 281.53693 L 412.84143 287.93019 L 416.15580 282.89199 M 408.85119 278.63937 L 413.97631 272.97851 L 408.44888 271.76556 L 408.85119 278.63937 M 408.02614 287.99322 L 404.76613 281.59997 L 377.63349 283.39628 L 408.02614 287.99322 M 424.70950 289.86954 L 425.98785 281.23130 L 419.29741 283.07351 L 424.70950 289.86954 M 363.02983 277.87705 L 343.04132 255.47664 L 338.31807 264.44345 L 363.02983 277.87705 M 343.31541 291.79038 L 413.96115 291.81920 L 405.23469 290.06137 L 343.31541 291.79038 M 329.13923 290.29721 L 360.66586 283.97125 L 330.94437 284.47072 L 329.13923 290.29721 M 331.39158 282.53438 L 361.11307 282.03491 L 332.71696 274.80649 L 331.39158 282.53438 M 318.88097 284.98834 L 325.25344 283.04604 L 319.70582 276.45797 L 318.88097 284.98834 M 310.90510 284.42276 L 317.08743 285.16043 L 317.91228 276.63006 L 310.90510 284.42276 M 305.29421 291.09600 L 315.51017 286.96867 L 309.32784 286.23100 L 305.29421 291.09600 M 301.69339 281.07844 L 307.72872 272.74332 L 300.73645 273.53969 L 301.69339 281.07844 M 299.98038 281.72722 L 299.02345 274.18847 L 294.02468 277.93360 L 299.98038 281.72722 M 293.29773 287.31596 L 299.26467 283.36816 L 293.30897 279.57454 L 293.29773 287.31596 M 291.58558 286.92986 L 291.59682 279.18844 L 285.56749 280.27935 L 291.58558 286.92986 M 281.20056 289.79081 L 290.28605 288.25515 L 284.26796 281.60465 L 281.20056 289.79081 M 281.84425 278.21271 L 274.57887 270.54902 L 275.09430 276.96953 L 281.84425 278.21271 M 289.74618 268.97263 L 300.37539 265.16709 L 290.56058 260.24777 L 289.74618 268.97263 M 300.96926 271.73769 L 307.96153 270.94133 L 303.55584 266.66249 L 300.96926 271.73769 M 301.87739 263.31677 L 301.76217 254.17006 L 292.06257 258.39745 L 301.87739 263.31677 M 309.79323 270.18778 L 315.62292 265.70933 L 305.38754 265.90895 L 309.79323 270.18778 M 289.27736 250.01879 L 302.67831 240.63678 L 275.89429 201.44212 L 289.27736 250.01879 M 264.50862 270.12427 L 271.48011 267.99456 L 264.54102 262.06778 L 264.50862 270.12427 M 266.59359 278.76776 L 272.31653 277.30512 L 264.82962 273.01433 L 266.59359 278.76776 M 269.34655 288.46845 L 277.73938 289.66207 L 274.05683 280.23273 L 269.34655 288.46845 M 252.96274 291.21266 L 264.84258 289.28486 L 258.29774 286.02988 L 252.96274 291.21266 M 249.56591 289.24191 L 254.90091 284.05914 L 237.66799 273.51893 L 249.56591 289.24191 M 228.83282 266.16695 L 214.35035 250.15937 L 210.60000 256.97382 L 228.83282 266.16695 M 230.15696 264.51652 L 221.19313 243.77042 L 215.67449 248.50894 L 230.15696 264.51652 M 208.24065 268.79894 L 211.80491 286.55568 L 228.28785 271.52488 L 208.24065 268.79894 M 199.01332 254.10111 L 205.76648 255.45548 L 200.66817 248.56015 L 199.01332 254.10111 M 202.16868 247.78014 L 207.26699 254.67547 L 211.01733 247.86101 L 202.16868 247.78014 M 201.68418 244.63050 L 210.37377 238.05716 L 203.55010 236.13258 L 201.68418 244.63050 M 199.29488 244.65555 L 201.16079 236.15763 L 191.25932 238.25750 L 199.29488 244.65555 M 190.45987 246.60271 L 197.09999 252.99451 L 198.75485 247.45356 L 190.45987 246.60271 M 189.54834 244.89714 L 197.84332 245.74798 L 189.80776 239.34994 L 189.54834 244.89714 M 178.74802 236.84650 L 186.83968 236.85010 L 181.93094 231.30003 L 178.74802 236.84650 M 183.31792 230.28664 L 188.22666 235.83670 L 189.84383 228.73936 L 183.31792 230.28664 M 193.14526 225.86815 L 203.99690 221.21866 L 197.26057 219.06387 L 193.14526 225.86815 M 193.74083 227.55412 L 202.02514 232.55159 L 204.59247 222.90462 L 193.74083 227.55412 M 204.59144 234.30949 L 211.41511 236.23406 L 210.01489 230.04572 L 204.59144 234.30949 M 213.20102 236.78267 L 218.87873 238.69837 L 211.80081 230.59433 L 213.20102 236.78267 M 213.58284 245.27154 L 219.10149 240.53302 L 213.42377 238.61732 L 213.58284 245.27154 M 217.55742 225.74536 L 224.63535 233.84940 L 259.25397 197.99092 L 217.55742 225.74536 M 196.16263 214.38812 L 196.33352 199.35280 L 190.92712 205.65228 L 196.16263 214.38812 M 169.11347 231.65249 L 179.69142 229.38081 L 176.31859 224.77111 L 169.11347 231.65249 M 167.43448 230.73720 L 174.63961 223.85583 L 166.25953 222.05855 L 167.43448 230.73720 M 158.60439 237.58178 L 165.09849 241.36239 L 165.52379 234.40718 L 158.60439 237.58178 M 157.60976 236.06931 L 164.52915 232.89471 L 157.14141 229.26265 L 157.60976 236.06931 M 156.65051 238.95320 L 149.89275 245.37854 L 163.14461 242.73381 L 156.65051 238.95320 M 147.16303 232.00320 L 153.93043 227.81078 L 146.07701 223.89405 L 147.16303 232.00320 M 146.95920 222.33278 L 154.81262 226.24951 L 154.22059 219.51305 L 146.95920 222.33278 M 138.14084 214.05556 L 144.31326 219.75155 L 147.07889 208.47595 L 138.14084 214.05556 M 135.87269 201.66505 L 137.08577 211.79475 L 146.02382 206.21514 L 135.87269 201.66505 M 122.56147 197.93600 L 122.18713 207.48454 L 131.61036 200.26623 L 122.56147 197.93600 M 114.01245 197.05766 L 119.98740 207.08347 L 120.36173 197.53492 L 114.01245 197.05766 M 105.84268 190.33861 L 111.98469 194.28495 L 116.25666 189.32537 L 105.84268 190.33861 M 103.66670 191.12896 L 98.84884 195.64809 L 109.80872 195.07529 L 103.66670 191.12896 M 95.31587 188.99371 L 97.03724 194.88790 L 101.85509 190.36876 L 95.31587 188.99371 M 93.53039 189.09148 L 87.57122 191.15089 L 95.25175 194.98566 L 93.53039 189.09148 M 86.60387 192.92860 L 85.79155 203.31312 L 94.28440 196.76337 L 86.60387 192.92860 M 87.64161 205.01567 L 101.40436 206.54898 L 96.13446 198.46592 L 87.64161 205.01567 M 67.62227 219.04241 L 79.19276 208.58947 L 53.87685 218.13668 L 67.62227 219.04241 M 48.74228 221.66625 L 47.08514 227.46567 L 53.51874 231.93235 L 48.74228 221.66625 M 46.67260 229.74502 L 45.44197 239.90104 L 53.10620 234.21170 L 46.67260 229.74502 M 37.95201 224.01037 L 39.04809 232.44596 L 44.27837 227.78320 L 37.95201 224.01037 M 35.87493 224.07243 L 27.66171 228.27970 L 36.97100 232.50802 L 35.87493 224.07243 M 27.52482 222.40166 L 35.73804 218.19439 L 35.87590 185.48369 L 27.52482 222.40166 M 26.54416 230.47914 L 26.93456 241.66800 L 35.85346 234.70747 L 26.54416 230.47914 M 25.05127 232.47823 L 23.91035 250.70016 L 25.44167 243.66709 L 25.05127 232.47823 M 35.82903 246.16901 L 42.62854 241.97855 L 38.62888 236.48529 L 35.82903 246.16901 M 36.64343 247.87636 L 45.14408 250.14409 L 43.44294 243.68590 L 36.64343 247.87636 M 40.89956 255.92918 L 44.82616 251.67450 L 36.32551 249.40677 L 40.89956 255.92918 M 31.78122 260.26167 L 39.26894 257.00258 L 34.69489 250.48017 L 31.78122 260.26167 M 24.36717 270.36958 L 24.07313 277.93271 L 31.02971 275.49903 L 24.36717 270.36958 M 24.36895 280.74601 L 26.09593 286.41688 L 31.96336 284.77139 L 24.36895 280.74601 M 37.82885 286.02021 L 31.96142 287.66570 L 71.29287 290.73650 L 37.82885 286.02021 M 53.87639 278.06586 L 62.55395 265.82490 L 53.76201 261.27510 L 53.87639 278.06586 M 56.06847 279.94241 L 71.29867 276.28748 L 64.74603 267.70145 L 56.06847 279.94241 M 67.28404 266.29613 L 73.83668 274.88216 L 76.37253 268.69985 L 67.28404 266.29613 M 67.07300 262.65594 L 75.57691 258.50126 L 72.73290 252.31908 L 67.07300 262.65594 M 54.74864 257.85811 L 63.54058 262.40791 L 61.76944 250.72994 L 54.74864 257.85811 M 53.69517 255.78885 L 60.71598 248.66068 L 55.11284 245.85386 L 53.69517 255.78885 M 74.66530 251.14669 L 77.50931 257.32887 L 82.53218 253.27678 L 74.66530 251.14669 M 85.37910 254.75552 L 85.91409 261.25902 L 91.88280 260.52518 L 85.37910 254.75552 M 86.17407 253.61269 L 92.67778 259.38236 L 92.27389 252.11642 L 86.17407 253.61269 M 86.32443 262.94868 L 88.66185 268.27279 L 92.29314 262.21484 L 86.32443 262.94868 M 79.78801 267.74721 L 87.09870 268.96434 L 84.76129 263.64023 L 79.78801 267.74721 M 76.17942 275.39942 L 86.02597 270.43424 L 78.71528 269.21711 L 76.17942 275.39942 M 76.91806 276.97756 L 84.62444 281.84221 L 86.76462 272.01237 L 76.91806 276.97756 M 90.49611 270.61364 L 95.85346 276.52657 L 99.27250 269.70457 L 90.49611 270.61364 M 95.67508 261.74717 L 100.82017 266.89605 L 104.60351 260.11636 L 95.67508 261.74717 M 94.88237 259.97362 L 103.81080 258.34281 L 94.47848 252.70769 L 94.88237 259.97362 M 108.37651 260.58906 L 111.14130 269.56328 L 119.31098 263.33429 L 108.37651 260.58906 M 108.50441 258.28087 L 119.43887 261.02609 L 112.16446 251.09774 L 108.50441 258.28087 M 114.54039 250.11887 L 121.81480 260.04723 L 127.51183 250.44994 L 114.54039 250.11887 M 114.66849 247.78706 L 127.63993 248.11812 L 122.83963 241.39271 L 114.66849 247.78706 M 116.97098 235.54209 L 113.33487 246.21505 L 121.50601 239.82071 L 116.97098 235.54209 M 118.72278 234.03163 L 123.25782 238.31025 L 127.34930 234.13137 L 118.72278 234.03163 M 125.30735 240.61343 L 130.10765 247.33885 L 134.41021 241.55284 L 125.30735 240.61343 M 129.29757 234.87680 L 125.20609 239.05568 L 134.30895 239.99508 L 129.29757 234.87680 M 138.39878 240.73185 L 145.89505 244.80151 L 145.41708 235.76193 L 138.39878 240.73185 M 137.68930 243.01228 L 139.74121 254.00531 L 145.18557 247.08193 L 137.68930 243.01228 M 151.22108 249.56461 L 167.27719 272.44177 L 164.47294 246.91989 L 151.22108 249.56461 M 169.31873 242.63751 L 184.97131 244.50788 L 177.13906 238.95708 L 169.31873 242.63751 M 171.40639 272.33114 L 184.25473 248.67964 L 168.60215 246.80926 L 171.40639 272.33114 M 135.04644 289.30080 L 121.96475 291.44171 L 191.85854 291.04664 L 135.04644 289.30080 M 122.20743 291.87354 L 108.60697 292.06329 L 220.48208 292.17067 L 122.20743 291.87354 M 116.04874 283.94457 L 112.48853 290.55395 L 125.57021 288.41304 L 116.04874 283.94457 M 115.26827 280.30942 L 119.14581 273.38004 L 111.88870 272.87063 L 115.26827 280.30942 M 106.71159 279.56816 L 113.71399 281.08293 L 110.33442 273.64414 L 106.71159 279.56816 M 105.29335 278.19197 L 108.91618 272.26795 L 102.36805 270.07343 L 105.29335 278.19197 M 106.68579 281.57504 L 110.12797 289.69920 L 113.68819 283.08982 L 106.68579 281.57504 M 112.57300 270.91809 L 119.83011 271.42750 L 120.74268 264.68909 L 112.57300 270.91809 M 123.04129 264.61950 L 122.12872 271.35791 L 130.96188 270.36137 L 123.04129 264.61950 M 124.12231 263.49857 L 132.04290 269.24044 L 130.77692 262.39050 L 124.12231 263.49857 M 123.80466 261.30727 L 130.45927 260.19919 L 129.50169 251.70998 L 123.80466 261.30727 M 132.49856 261.76332 L 133.76455 268.61326 L 137.89546 258.48112 L 132.49856 261.76332 M 129.13354 223.06043 L 129.92159 231.90448 L 135.99769 229.23944 L 129.13354 223.06043 M 118.07309 223.09341 L 126.15983 220.22116 L 121.08281 212.49702 L 118.07309 223.09341 M 123.65313 209.26453 L 134.28943 212.17593 L 133.07635 202.04622 L 123.65313 209.26453 M 150.57602 207.16145 L 155.07178 215.61732 L 158.85648 206.35928 L 150.57602 207.16145 M 150.74608 204.94408 L 159.02654 204.14191 L 156.43226 197.87832 L 150.74608 204.94408 M 162.44274 205.64266 L 168.35219 211.00790 L 169.57204 205.32125 L 162.44274 205.64266 M 175.01127 170.14623 L 173.25313 175.93611 L 179.66767 177.88993 L 175.01127 170.14623 M 176.25757 169.64383 L 180.91398 177.38752 L 183.22357 171.91689 L 176.25757 169.64383 M 163.60397 127.40937 L 130.56325 139.73055 L 165.07448 137.74702 L 163.60397 127.40937 M 160.71590 100.31287 L 160.24036 106.54689 L 163.98104 112.30195 L 160.71590 100.31287 M 159.28559 98.87213 L 152.53859 100.77600 L 158.81005 105.10615 L 159.28559 98.87213 M 164.73738 99.94648 L 168.00253 111.93556 L 192.41226 103.61574 L 164.73738 99.94648 M 161.77324 90.91550 L 155.67629 90.07594 L 159.96347 96.10650 L 161.77324 90.91550 M 153.04355 90.53115 L 147.45830 92.65332 L 150.58372 98.46557 L 153.04355 90.53115 M 157.32863 83.34559 L 155.34694 88.48083 L 161.44388 89.32039 L 157.32863 83.34559 M 148.84838 83.05406 L 147.24138 90.72688 L 152.82663 88.60471 L 148.84838 83.05406 M 147.32156 82.88762 L 140.61209 87.27321 L 145.71457 90.56044 L 147.32156 82.88762 M 139.33776 88.65029 L 137.12698 93.90425 L 144.44024 91.93752 L 139.33776 88.65029 M 144.77698 93.18644 L 137.46372 95.15317 L 142.03170 98.64166 L 144.77698 93.18644 M 134.93363 100.11796 L 124.53622 132.90478 L 139.50160 103.60645 L 134.93363 100.11796 M 142.42315 105.59656 L 127.45777 134.89488 L 158.30601 116.03881 L 142.42315 105.59656 M 119.62107 84.00268 L 107.46773 85.53140 L 107.54894 92.58710 L 119.62107 84.00268 M 107.57986 83.72923 L 119.73320 82.20051 L 108.44602 78.16972 L 107.57986 83.72923 M 108.90236 76.41351 L 120.18954 80.44430 L 111.23053 69.67955 L 108.90236 76.41351 M 114.42595 69.72329 L 123.38496 80.48804 L 134.46572 76.76346 L 114.42595 69.72329 M 109.02681 55.99858 L 98.53681 58.78975 L 108.83850 65.00516 L 109.02681 55.99858 M 100.51347 48.32740 L 97.49618 56.70503 L 107.98618 53.91386 L 100.51347 48.32740 M 89.36818 51.12098 L 85.14036 57.39943 L 93.71939 57.40271 L 89.36818 51.12098 M 83.02533 44.18793 L 79.87953 50.17777 L 87.59541 48.85026 L 83.02533 44.18793 M 79.92843 51.74074 L 83.41649 56.69168 L 87.64431 50.41323 L 79.92843 51.74074 M 74.66959 44.73275 L 78.26380 49.66308 L 81.40960 43.67324 L 74.66959 44.73275 M 73.06943 45.58874 L 68.60833 50.52115 L 76.66364 50.51907 L 73.06943 45.58874 M 68.51241 52.27198 L 72.30206 59.59537 L 76.56772 52.26989 L 68.51241 52.27198 M 64.36029 59.75968 L 70.77613 60.53159 L 66.98648 53.20820 L 64.36029 59.75968 M 64.51302 61.65266 L 68.20829 68.35207 L 70.92886 62.42457 L 64.51302 61.65266 M 69.68595 69.09211 L 76.33429 67.57297 L 72.40652 63.16461 L 69.68595 69.09211 M 68.78389 72.01600 L 67.70931 80.05996 L 72.91299 76.99268 L 68.78389 72.01600 M 78.23612 69.53576 L 75.71688 76.03158 L 83.49203 73.89025 L 78.23612 69.53576 M 79.77589 68.38701 L 85.03180 72.74151 L 88.03509 66.84162 L 79.77589 68.38701 M 83.39757 60.01307 L 79.57161 66.79596 L 87.83081 65.25056 L 83.39757 60.01307 M 85.71776 76.93023 L 83.66901 86.76931 L 90.31555 86.15782 L 85.71776 76.93023 M 96.63406 81.36121 L 93.71823 86.40365 L 103.37687 84.55086 L 96.63406 81.36121 M 98.13760 80.30230 L 104.88041 83.49196 L 105.74657 77.93244 L 98.13760 80.30230 M 84.35924 89.15537 L 91.23964 96.01870 L 91.00578 88.54388 L 84.35924 89.15537 M 75.97166 91.16051 L 81.51553 97.35796 L 81.60833 89.59491 L 75.97166 91.16051 M 83.36561 100.24049 L 83.89194 107.35739 L 90.33881 99.34077 L 83.36561 100.24049 M 92.69298 98.88768 L 86.24611 106.90430 L 102.19898 96.61576 L 92.69298 98.88768 M 89.11181 111.27501 L 115.61859 133.85334 L 105.06468 100.98647 L 89.11181 111.27501 M 72.08968 105.02315 L 76.12634 113.42883 L 81.05990 109.45414 L 72.08968 105.02315 M 72.71928 103.43863 L 81.68950 107.86963 L 81.16317 100.75272 L 72.71928 103.43863 M 68.76289 112.22705 L 66.18724 118.55377 L 74.10418 115.24033 L 68.76289 112.22705 M 66.76316 119.81709 L 73.37023 122.33360 L 74.68010 116.50365 L 66.76316 119.81709 M 61.43386 116.63866 L 64.00950 110.31195 L 36.07708 99.91949 L 61.43386 116.63866 M 59.51663 129.44514 L 52.92183 131.40140 L 61.78455 136.68555 L 59.51663 129.44514 M 49.88615 126.33853 L 59.66844 118.64199 L 34.31166 101.92282 L 49.88615 126.33853 M 68.91448 133.58004 L 64.75013 138.17462 L 70.21425 140.66814 L 68.91448 133.58004 M 77.70192 145.37671 L 88.53903 168.93912 L 112.51464 145.19271 L 77.70192 145.37671 M 69.31948 148.75298 L 45.45514 172.20284 L 80.15660 172.31539 L 69.31948 148.75298 M 91.51290 178.39719 L 103.28370 188.35265 L 113.69769 187.33940 L 91.51290 178.39719 M 121.33103 151.21767 L 119.54021 183.90629 L 126.04827 184.63416 L 121.33103 151.21767 M 96.66745 228.43718 L 105.33769 228.93905 L 98.92218 221.99944 L 96.66745 228.43718 M 95.68452 237.86339 L 103.73851 238.19885 L 96.13002 231.22871 L 95.68452 237.86339 M 95.48260 240.02134 L 94.51470 248.49232 L 103.53660 240.35680 L 95.48260 240.02134 M 84.25776 238.91798 L 93.24942 237.95328 L 93.69493 231.31860 L 84.25776 238.91798 M 83.55343 237.17029 L 92.99060 229.57091 L 87.61479 223.97177 L 83.55343 237.17029 M 80.83605 236.30828 L 84.89742 223.10976 L 71.25159 222.67484 L 80.83605 236.30828 M 84.05584 241.07593 L 92.07961 248.58221 L 93.04751 240.11123 L 84.05584 241.07593 M 69.95221 238.88168 L 73.48017 247.71547 L 79.42309 240.84301 L 69.95221 238.88168 M 68.04164 239.67187 L 64.13856 247.16455 L 71.56960 248.50566 L 68.04164 239.67187 M 36.63140 98.24533 L 64.56383 108.63779 L 65.86845 103.24538 L 36.63140 98.24533 M 63.31952 85.24140 L 36.47586 95.32078 L 65.71291 100.32084 L 63.31952 85.24140 M 54.19300 65.45431 L 48.65495 62.92222 L 57.99894 69.95170 L 54.19300 65.45431 M 46.05734 66.00950 L 33.41211 90.15259 L 55.40133 73.03898 L 46.05734 66.00950 M 42.75256 64.58419 L 28.96304 61.63646 L 30.10733 88.72727 L 42.75256 64.58419 M 48.64244 55.26111 L 38.73721 55.87686 L 45.89803 60.22577 L 48.64244 55.26111 M 50.45656 56.24411 L 47.71216 61.20877 L 53.25020 63.74086 L 50.45656 56.24411 M 52.11052 56.14701 L 54.90417 63.64377 L 60.94386 60.43201 L 52.11052 56.14701 M 52.50299 54.62137 L 61.33633 58.90637 L 58.04392 51.43864 L 52.50299 54.62137 M 55.74990 43.90659 L 51.80469 52.74640 L 57.34562 49.56367 L 55.74990 43.90659 M 62.15795 38.65849 L 57.04406 42.14560 L 58.63977 47.80268 L 62.15795 38.65849 M 63.23142 39.59753 L 59.71325 48.74172 L 65.63184 49.65798 L 63.23142 39.59753 M 64.71423 39.02380 L 67.11465 49.08424 L 71.57575 44.15183 L 64.71423 39.02380 M 62.21027 25.55566 L 56.70302 33.18584 L 62.51678 35.19107 L 62.21027 25.55566 M 60.87313 24.50862 L 51.81968 26.81472 L 55.36589 32.13880 L 60.87313 24.50862 M 58.90277 23.38660 L 39.60296 23.16263 L 49.84932 25.69269 L 58.90277 23.38660 M 75.20992 28.83981 L 76.09450 34.74674 L 82.03016 30.81955 L 75.20992 28.83981 M 82.90142 32.31485 L 76.96576 36.24205 L 82.18002 40.80225 L 82.90142 32.31485 M 84.43352 32.50528 L 83.71212 40.99268 L 89.22252 37.76548 L 84.43352 32.50528 M 85.78966 31.23993 L 90.57866 36.50013 L 94.56127 30.86987 L 85.78966 31.23993 M 87.29362 24.24261 L 76.60981 27.52679 L 83.43005 29.50653 L 87.29362 24.24261 M 85.20370 23.49739 L 66.71069 23.54478 L 74.51989 26.78157 L 85.20370 23.49739 M 89.52103 24.47257 L 85.65746 29.73648 L 94.42907 29.36643 L 89.52103 24.47257 M 101.81134 24.06983 L 98.08658 29.25710 L 106.28473 29.15528 L 101.81134 24.06983 M 109.16443 30.28908 L 112.23961 37.67772 L 113.57565 25.85343 L 109.16443 30.28908 M 104.94061 36.71791 L 111.16023 39.03578 L 108.08505 31.64714 L 104.94061 36.71791 M 91.47784 40.01064 L 90.53752 47.90018 L 97.90602 45.80428 L 91.47784 40.01064 M 46.69757 42.97890 L 50.47368 51.92331 L 54.41889 43.08350 L 46.69757 42.97890 M 42.60796 34.73590 L 34.78715 36.99558 L 43.64230 40.39276 L 42.60796 34.73590 M 30.76261 37.44825 L 24.88022 33.82029 L 25.14916 45.38239 L 30.76261 37.44825 M 26.91911 48.72516 L 35.25859 53.74835 L 36.31381 47.60511 L 26.91911 48.72516 M 146.64791 45.29318 L 117.54567 55.19153 L 137.39712 71.23828 L 146.64791 45.29318 M 155.89516 46.76120 L 166.05751 71.45644 L 172.11053 68.18558 L 155.89516 46.76120 M 172.36806 22.83991 L 111.64793 22.71323 L 120.53253 23.36302 L 172.36806 22.83991 M 177.41031 24.59695 L 125.57478 25.12006 L 151.98594 36.76954 L 177.41031 24.59695 M 193.88256 33.79352 L 189.36169 26.17242 L 191.24058 42.27533 L 193.88256 33.79352 M 202.45980 35.03459 L 196.32292 34.76684 L 200.10568 42.17305 L 202.45980 35.03459 M 210.89954 27.29089 L 205.48892 34.00771 L 212.79117 40.40708 L 210.89954 27.29089 M 207.63006 24.43843 L 191.56169 23.26640 L 197.29307 25.47627 L 207.63006 24.43843 M 200.48479 46.63931 L 195.65189 54.44035 L 206.54287 55.55743 L 200.48479 46.63931 M 192.44674 55.09619 L 190.85490 48.37076 L 187.32645 59.72855 L 192.44674 55.09619 M 192.93120 57.18003 L 187.81090 61.81239 L 194.73054 65.04148 L 192.93120 57.18003 M 186.72703 46.84851 L 159.42377 42.91818 L 183.19858 58.20630 L 186.72703 46.84851 M 206.10950 57.79492 L 195.21852 56.67784 L 197.01787 64.53930 L 206.10950 57.79492 M 207.39521 58.94395 L 198.30358 65.68833 L 205.50420 65.87007 L 207.39521 58.94395 M 210.36651 55.17052 L 216.58467 52.08417 L 213.96481 45.51331 L 210.36651 55.17052 M 220.20195 62.65731 L 210.96232 58.84738 L 215.70979 68.03193 L 220.20195 62.65731 M 223.64203 62.73326 L 227.37336 68.48816 L 230.25947 59.07468 L 223.64203 62.73326 M 232.03001 59.45279 L 229.14390 68.86627 L 237.80638 65.75819 L 232.03001 59.45279 M 240.97501 59.35508 L 233.50890 58.26389 L 239.28526 64.56929 L 240.97501 59.35508 M 239.93344 51.68290 L 233.58992 56.65309 L 241.05603 57.74428 L 239.93344 51.68290 M 238.31091 50.75467 L 228.07582 50.31845 L 231.96740 55.72486 L 238.31091 50.75467 M 248.70861 52.93413 L 243.78395 58.23298 L 249.36604 59.80020 L 248.70861 52.93413 M 249.87240 42.59427 L 236.70802 33.26778 L 241.25949 47.40120 L 249.87240 42.59427 M 254.11067 29.36826 L 238.31441 31.01366 L 251.47880 40.34016 L 254.11067 29.36826 M 263.74299 45.25807 L 264.61262 39.65820 L 255.47108 43.06619 L 263.74299 45.25807 M 263.93776 48.13560 L 259.10691 51.19513 L 262.72975 57.42710 L 263.93776 48.13560 M 235.09290 28.76467 L 257.44536 24.52401 L 219.15045 24.94354 L 235.09290 28.76467 M 226.22425 51.55113 L 223.49839 60.61613 L 230.11583 56.95755 L 226.22425 51.55113 M 224.84726 51.08860 L 219.09993 53.25732 L 222.12140 60.15360 L 224.84726 51.08860 M 213.20858 73.07313 L 206.57009 70.81470 L 202.08323 96.06083 L 213.20858 73.07313 M 194.29535 70.67371 L 179.81629 73.58087 L 197.00912 96.10158 L 194.29535 70.67371 M 177.03536 75.33567 L 172.04793 84.71210 L 194.22819 97.85638 L 177.03536 75.33567 M 165.83471 76.95451 L 159.10021 81.36930 L 166.90031 83.06007 L 165.83471 76.95451 M 163.86899 76.65362 L 151.17455 80.65300 L 157.13449 81.06841 L 163.86899 76.65362 M 170.80904 86.66359 L 167.12419 90.94762 L 192.98929 99.80787 L 170.80904 86.66359 M 197.53140 109.50731 L 181.86308 130.44787 L 196.94910 134.45832 L 197.53140 109.50731 M 231.55190 112.46912 L 206.20033 106.47603 L 225.28067 125.15549 L 231.55190 112.46912 M 234.48670 96.76847 L 231.10855 87.46257 L 207.17396 100.54340 L 234.48670 96.76847 M 242.29352 87.00956 L 235.49849 85.77084 L 238.87664 95.07674 L 242.29352 87.00956 M 242.07512 84.77729 L 237.12950 77.21860 L 235.28010 83.53857 L 242.07512 84.77729 M 248.04956 92.92543 L 243.86240 87.90389 L 240.44553 95.97106 L 248.04956 92.92543 M 228.79606 84.71789 L 215.98682 74.81103 L 204.86148 97.79873 L 228.79606 84.71789 M 235.50368 75.68070 L 229.06852 72.47410 L 233.65427 82.00067 L 235.50368 75.68070 M 258.01659 181.71700 L 219.38565 150.97869 L 211.67071 162.15079 L 258.01659 181.71700 M 277.90692 177.93475 L 312.13498 144.34444 L 297.93438 134.74474 L 277.90692 177.93475 M 216.36850 289.19124 L 244.74936 289.88343 L 232.85144 274.16044 L 216.36850 289.19124" fill="none" stroke="black" stroke-width="0.01cm" />
   </g>
</svg>