<?xml version="1.0" standalone="no"?>
  <!DOCTYPE svg PUBLIC "-//W3C//DTD SVG 1.1//EN" 
    "http://www.w3.org/Graphics/SVG/1.1/DTD/svg11.dtd">
  <svg width="12.7cm" height="8.89cm"
       xmlns="http://www.w3.org/2000/svg" version="1.1" viewBox="0 0 449.99999 314.99999">
   <g>
     <path d="M 219.27364 157.14459 L 220.46813 143.10177 L 215.88707 152.61115 L 219.27364 157.14459 M 214.48853 153.49393 L 209.27981 150.16405 L 217.87510 158.02737 L 214.48853 153.49393 M 220.04662 141.65260 L 215.90154 145.55120 L 215.46556 151.16198 L 220.04662 141.65260 M 219.68947 139.86953 L 212.60833 136.89741 L 215.54438 143.76813 L 219.68947 139.86953 M 211.20979 137.78019 L 208.50115 146.93180 L 214.14584 144.65092 L 211.20979 137.78019 M 209.34152 137.23587 L 199.19969 140.29635 L 206.63288 146.38748 L 209.34152 137.23587 M 203.36924 127.78128 L 198.79174 137.97058 L 208.93357 134.91010 L 203.36924 127.78128 M 215.68702 124.49753 L 205.48115 126.09715 L 211.04548 133.22597 L 215.68702 124.49753 M 226.83698 123.09887 L 219.46655 123.61598 L 223.70544 128.29035 L 226.83698 123.09887 M 226.83933 121.45147 L 223.72430 115.11112 L 219.46891 121.96858 L 226.83933 121.45147 M 234.65558 116.47028 L 233.43212 110.64906 L 226.14424 113.29993 L 234.65558 116.47028 M 240.53004 114.19192 L 273.13986 95.07304 L 239.30658 108.37070 L 240.53004 114.19192 M 218.87119 102.90005 L 211.86977 103.95142 L 221.99460 111.04794 L 218.87119 102.90005 M 217.37301 101.08488 L 210.00920 96.52659 L 210.37160 102.13626 L 217.37301 101.08488 M 206.30208 96.43333 L 187.71601 100.33880 L 206.66447 102.04300 L 206.30208 96.43333 M 187.50104 102.08943 L 204.58226 110.43840 L 206.44950 103.79363 L 187.50104 102.08943 M 184.41554 106.07897 L 184.23471 126.80111 L 199.02757 123.33677 L 184.41554 106.07897 M 157.17575 112.46438 L 157.62203 119.15710 L 165.60037 121.75030 L 157.17575 112.46438 M 155.72276 121.03002 L 147.62068 124.37809 L 158.06200 126.69289 L 155.72276 121.03002 M 148.52568 115.58464 L 146.42864 122.98956 L 154.53072 119.64149 L 148.52568 115.58464 M 138.66431 116.51105 L 135.94240 122.56119 L 143.26757 123.41690 L 138.66431 116.51105 M 136.02061 115.12747 L 122.11800 112.34831 L 133.29870 121.17762 L 136.02061 115.12747 M 132.47934 123.01079 L 121.29863 114.18149 L 129.46567 129.79284 L 132.47934 123.01079 M 134.45880 125.56865 L 131.44513 132.35071 L 137.13435 134.64439 L 134.45880 125.56865 M 135.93578 124.72203 L 138.61132 133.79777 L 143.26094 125.57774 L 135.93578 124.72203 M 140.51814 134.84390 L 151.19033 133.09107 L 145.16776 126.62387 L 140.51814 134.84390 M 140.76329 136.69565 L 147.12893 141.43787 L 151.43548 134.94282 L 140.76329 136.69565 M 139.13803 137.95791 L 138.43341 145.04089 L 145.50367 142.70013 L 139.13803 137.95791 M 137.41591 136.95278 L 131.72670 134.65910 L 136.71129 144.03576 L 137.41591 136.95278 M 148.67603 147.83515 L 141.60577 150.17591 L 164.51691 179.03808 L 148.67603 147.83515 M 153.99423 135.11709 L 149.68768 141.61215 L 161.23331 138.08987 L 153.99423 135.11709 M 165.62323 142.98542 L 169.91847 177.71062 L 173.27266 143.07852 L 165.62323 142.98542 M 169.24821 133.06397 L 165.53944 137.40459 L 173.18888 137.49769 L 169.24821 133.06397 M 167.75253 132.03279 L 161.22343 129.24823 L 164.04376 136.37340 L 167.75253 132.03279 M 195.08725 145.50911 L 176.44201 178.93789 L 202.52044 151.60024 L 195.08725 145.50911 M 173.19568 177.89583 L 191.84093 144.46704 L 176.54988 143.26372 L 173.19568 177.89583 M 178.93557 182.98491 L 215.03580 177.88525 L 205.01401 155.64725 L 178.93557 182.98491 M 179.98670 188.95916 L 213.42302 203.44128 L 216.08693 183.85950 L 179.98670 188.95916 M 173.59546 196.10103 L 172.19112 232.20170 L 199.79768 219.37585 L 173.59546 196.10103 M 175.75320 239.20693 L 202.09212 252.14292 L 203.35976 226.38108 L 175.75320 239.20693 M 158.97867 247.27829 L 165.17023 249.11807 L 166.71953 241.19275 L 158.97867 247.27829 M 154.79953 238.22441 L 164.25378 238.40111 L 147.15760 233.04718 L 154.79953 238.22441 M 151.31926 255.60352 L 159.51916 259.75793 L 156.63963 250.06169 L 151.31926 255.60352 M 161.16372 259.22907 L 164.47575 251.37261 L 158.28419 249.53283 L 161.16372 259.22907 M 162.52440 262.29732 L 169.16964 274.07886 L 165.83643 254.44086 L 162.52440 262.29732 M 151.22556 267.99410 L 149.02983 258.54779 L 144.32839 268.32394 L 151.22556 267.99410 M 145.74211 276.07606 L 150.81459 270.18513 L 143.91742 270.51497 L 145.74211 276.07606 M 147.05051 277.45644 L 154.38457 281.55801 L 152.12298 271.56551 L 147.05051 277.45644 M 143.59187 285.21201 L 153.31818 283.26382 L 145.98412 279.16226 L 143.59187 285.21201 M 144.16111 286.51777 L 150.53803 289.60831 L 153.88741 284.56958 L 144.16111 286.51777 M 148.21885 290.92276 L 109.95165 291.15390 L 167.22431 291.76355 L 148.21885 290.92276 M 158.16579 283.78825 L 164.65086 288.80868 L 168.55361 280.28538 L 158.16579 283.78825 M 157.99553 281.92212 L 168.38336 278.41925 L 163.28885 273.87966 L 157.99553 281.92212 M 166.88745 289.64861 L 176.05844 290.50769 L 170.79020 281.12531 L 166.88745 289.64861 M 174.85559 277.81808 L 180.12383 287.20046 L 199.41061 263.19076 L 174.85559 277.81808 M 185.77994 288.21448 L 220.10445 285.93024 L 205.06672 264.20478 L 185.77994 288.21448 M 197.81692 291.92608 L 289.96065 292.00423 L 243.54330 291.53519 L 197.81692 291.92608 M 223.88154 289.30435 L 189.55703 291.58859 L 235.28341 291.19771 L 223.88154 289.30435 M 226.28893 284.22790 L 235.25577 274.59576 L 211.25120 262.50244 L 226.28893 284.22790 M 239.47270 282.91328 L 246.34517 281.75196 L 240.61996 276.58852 L 239.47270 282.91328 M 239.82056 284.55978 L 243.40286 289.76052 L 246.69304 283.39846 L 239.82056 284.55978 M 244.84983 290.46690 L 251.39638 290.21083 L 248.14001 284.10484 L 244.84983 290.46690 M 251.01086 291.44277 L 297.42821 291.91181 L 257.55740 291.18670 L 251.01086 291.44277 M 254.64826 290.04764 L 261.84542 289.65411 L 260.41139 283.44895 L 254.64826 290.04764 M 250.08009 281.33586 L 259.09958 280.84315 L 254.60729 274.91369 L 250.08009 281.33586 M 242.24849 275.50517 L 247.97370 280.66861 L 252.50091 274.24645 L 242.24849 275.50517 M 243.78496 262.35906 L 248.65766 249.70397 L 244.02055 242.72927 L 243.78496 262.35906 M 259.48710 263.00035 L 269.20112 260.34950 L 263.56207 256.92324 L 259.48710 263.00035 M 264.56819 254.16661 L 272.45049 250.62566 L 265.29280 247.91456 L 264.56819 254.16661 M 270.90930 258.97549 L 273.15255 252.00828 L 265.27025 255.54923 L 270.90930 258.97549 M 270.16326 268.18149 L 274.61048 273.47561 L 279.22664 261.87917 L 270.16326 268.18149 M 276.79911 273.91084 L 287.67229 271.66337 L 281.41527 262.31440 L 276.79911 273.91084 M 281.01130 284.31239 L 275.19521 277.87722 L 273.64115 285.36282 L 281.01130 284.31239 M 291.50623 289.45788 L 283.05018 285.75998 L 275.68002 286.81040 L 291.50623 289.45788 M 293.28155 288.06744 L 289.88258 275.68689 L 284.82550 284.36954 L 293.28155 288.06744 M 295.22494 287.91718 L 300.37261 283.16741 L 291.82597 275.53663 L 295.22494 287.91718 M 299.39160 291.81901 L 266.71795 290.70037 L 259.52079 291.09390 L 299.39160 291.81901 M 303.60943 291.75079 L 293.26346 290.54817 L 270.93578 290.63215 L 303.60943 291.75079 M 311.45582 289.87240 L 319.68534 283.78629 L 315.13137 280.48853 L 311.45582 289.87240 M 304.02990 282.08270 L 312.90377 278.65121 L 307.06281 275.04017 L 304.02990 282.08270 M 301.54126 281.48280 L 304.57417 274.44027 L 292.99462 273.85201 L 301.54126 281.48280 M 307.26028 271.51938 L 313.15700 265.64162 L 305.55391 263.40513 L 307.26028 271.51938 M 315.96220 276.80202 L 322.60066 273.16691 L 316.01796 267.31322 L 315.96220 276.80202 M 322.70581 282.18380 L 328.98112 280.68758 L 324.79030 275.25092 L 322.70581 282.18380 M 326.53830 290.49975 L 335.32364 288.78316 L 330.57733 283.11515 L 326.53830 290.49975 M 329.45879 291.46981 L 353.94122 290.87565 L 338.24413 289.75322 L 329.45879 291.46981 M 337.67852 287.47665 L 345.37731 280.04765 L 332.93220 281.80864 L 337.67852 287.47665 M 333.05569 280.11347 L 345.50080 278.35248 L 338.66646 273.91523 L 333.05569 280.11347 M 326.21557 272.43734 L 336.01715 271.67576 L 328.49713 265.87343 L 326.21557 272.43734 M 326.58960 262.16779 L 326.60377 255.23267 L 318.46114 255.52966 L 326.58960 262.16779 M 314.10450 263.75217 L 314.84031 256.40382 L 306.50141 261.51568 L 314.10450 263.75217 M 315.51704 253.08311 L 319.11406 245.68174 L 307.58240 249.69977 L 315.51704 253.08311 M 304.88077 247.95926 L 310.46009 239.62646 L 299.85636 243.47380 L 304.88077 247.95926 M 296.47511 241.80350 L 297.50731 234.76837 L 287.40229 237.78465 L 296.47511 241.80350 M 290.13475 249.18604 L 295.55354 243.60571 L 286.48072 239.58685 L 290.13475 249.18604 M 287.83228 249.89848 L 284.17825 240.29930 L 277.13377 249.30529 L 287.83228 249.89848 M 274.79192 247.92140 L 281.83640 238.91542 L 269.09748 238.82740 L 274.79192 247.92140 M 268.65275 236.81785 L 281.39167 236.90586 L 271.23411 231.84492 L 268.65275 236.81785 M 266.40976 235.91734 L 268.99112 230.94442 L 263.44774 229.70179 L 266.40976 235.91734 M 257.48662 235.55877 L 264.97170 236.49413 L 262.00968 230.27859 L 257.48662 235.55877 M 254.09449 228.32844 L 256.12697 234.53806 L 260.65003 229.25788 L 254.09449 228.32844 M 243.35609 235.95590 L 249.98919 227.82186 L 236.47328 223.28083 L 243.35609 235.95590 M 239.64733 235.33755 L 232.76452 222.66249 L 220.31912 222.87513 L 239.64733 235.33755 M 252.02745 247.39534 L 262.07776 245.81448 L 256.05593 238.49623 L 252.02745 247.39534 M 252.78420 249.33396 L 262.10991 254.00515 L 262.83451 247.75310 L 252.78420 249.33396 M 266.30240 222.12972 L 271.84578 223.37235 L 289.24702 175.34078 L 266.30240 222.12972 M 275.53234 223.84196 L 295.79492 225.88661 L 292.93359 175.81040 L 275.53234 223.84196 M 284.65509 236.48753 L 294.76011 233.47126 L 274.49753 231.42660 L 284.65509 236.48753 M 302.84760 259.65566 L 303.25186 251.16045 L 292.80867 252.25532 L 302.84760 259.65566 M 289.20192 269.20997 L 289.03615 254.28364 L 282.94490 259.86100 L 289.20192 269.20997 M 263.51913 281.54294 L 271.45462 285.01664 L 273.00869 277.53104 L 263.51913 281.54294 M 210.45616 252.14233 L 236.85879 239.02253 L 217.53058 226.56011 L 210.45616 252.14233 M 219.16909 204.00262 L 225.95526 193.44992 L 221.83300 184.42084 L 219.16909 204.00262 M 224.13523 203.15707 L 226.24304 195.79195 L 219.45687 206.34465 L 224.13523 203.15707 M 225.68435 202.72153 L 231.84981 202.86028 L 227.79216 195.35641 L 225.68435 202.72153 M 226.28890 205.48044 L 232.62861 217.42771 L 232.45437 205.61919 L 226.28890 205.48044 M 242.37255 202.20480 L 262.61824 219.48378 L 285.56287 172.69484 L 242.37255 202.20480 M 233.67442 188.79867 L 280.92240 166.79258 L 229.55216 179.76959 L 233.67442 188.79867 M 228.75948 176.42620 L 280.12972 163.44919 L 227.33297 162.05153 L 228.75948 176.42620 M 281.74252 155.18519 L 240.46741 124.35705 L 230.14027 139.74472 L 281.74252 155.18519 M 287.87638 150.25569 L 279.21109 100.30867 L 246.60126 119.42754 L 287.87638 150.25569 M 295.75933 147.69079 L 309.66490 98.90837 L 287.09404 97.74377 L 295.75933 147.69079 M 332.91438 108.71738 L 315.39244 100.28007 L 301.48687 149.06249 L 332.91438 108.71738 M 339.13404 102.36274 L 339.43088 95.01095 L 333.42543 97.13987 L 339.13404 102.36274 M 330.87989 96.98480 L 319.06657 93.77036 L 336.58850 102.20767 L 330.87989 96.98480 M 323.58870 90.03095 L 329.56332 86.97855 L 321.48185 84.68085 L 323.58870 90.03095 M 321.91915 90.55446 L 319.81230 85.20436 L 316.20691 91.16662 L 321.91915 90.55446 M 330.41689 85.52120 L 330.41730 78.37213 L 322.33543 83.22350 L 330.41689 85.52120 M 329.33397 77.14263 L 321.75028 75.68521 L 321.25210 81.99400 L 329.33397 77.14263 M 329.84082 75.21990 L 325.30693 66.61216 L 322.25713 73.76248 L 329.84082 75.21990 M 335.20684 67.86657 L 326.92564 65.87517 L 331.45954 74.48291 L 335.20684 67.86657 M 333.39161 59.35596 L 327.16715 63.98430 L 335.44835 65.97570 L 333.39161 59.35596 M 338.95049 46.29099 L 337.81429 55.94622 L 363.46916 52.98130 L 338.95049 46.29099 M 336.04785 35.92457 L 327.88453 41.40269 L 334.80038 42.77985 L 336.04785 35.92457 M 335.33755 34.71645 L 329.11792 33.11491 L 327.17423 40.19457 L 335.33755 34.71645 M 343.05057 24.19875 L 331.43034 24.07981 L 337.35852 31.93524 L 343.05057 24.19875 M 324.99930 43.71446 L 319.21498 48.92164 L 325.66619 50.58876 L 324.99930 43.71446 M 314.95939 48.93014 L 305.76560 35.12906 L 306.59963 59.25068 L 314.95939 48.93014 M 301.57386 32.82486 L 281.42543 30.49655 L 302.40789 56.94648 L 301.57386 32.82486 M 303.91375 28.70182 L 321.12701 23.96218 L 283.76532 26.37351 L 303.91375 28.70182 M 279.40902 25.68274 L 316.77070 23.27140 L 269.06334 23.17562 L 279.40902 25.68274 M 260.65395 27.38006 L 249.49560 56.90690 L 270.99963 29.88717 L 260.65395 27.38006 M 255.93462 27.11834 L 233.24498 27.79346 L 244.77626 56.64519 L 255.93462 27.11834 M 228.53462 28.54458 L 218.25172 33.12730 L 240.06590 57.39631 L 228.53462 28.54458 M 225.90645 24.29974 L 219.04056 23.43763 L 215.62356 28.88247 L 225.90645 24.29974 M 216.02158 34.55983 L 210.69348 40.00479 L 237.83576 58.82883 L 216.02158 34.55983 M 204.37621 38.83943 L 196.00760 37.73402 L 200.99432 45.16641 L 204.37621 38.83943 M 199.68176 45.83315 L 194.69504 38.40076 L 193.87571 44.17331 L 199.68176 45.83315 M 191.72270 45.17421 L 186.81895 41.58532 L 188.18074 51.65666 L 191.72270 45.17421 M 185.09775 42.20857 L 177.95309 50.16018 L 186.45954 52.27991 L 185.09775 42.20857 M 193.16507 37.65094 L 187.44199 39.83461 L 192.34574 43.42350 L 193.16507 37.65094 M 189.08225 31.12009 L 187.03405 38.29668 L 192.75713 36.11301 L 189.08225 31.12009 M 187.32667 30.98711 L 178.71248 35.04918 L 185.27847 38.16370 L 187.32667 30.98711 M 186.67765 29.53209 L 180.08632 26.52357 L 178.06346 33.59416 L 186.67765 29.53209 M 178.21251 26.23417 L 171.68719 27.21692 L 176.18965 33.30476 L 178.21251 26.23417 M 167.76951 29.09440 L 146.87112 41.25401 L 172.27198 35.18224 L 167.76951 29.09440 M 172.83252 37.63281 L 147.43166 43.70457 L 172.25386 48.69895 L 172.83252 37.63281 M 177.27433 52.14395 L 179.66769 58.07869 L 185.78078 54.26367 L 177.27433 52.14395 M 178.41669 60.94066 L 169.94860 64.71310 L 181.84755 67.45228 L 178.41669 60.94066 M 187.32446 55.58187 L 181.21137 59.39689 L 189.62379 62.68955 L 187.32446 55.58187 M 189.24062 64.16478 L 180.82820 60.87212 L 184.25905 67.38374 L 189.24062 64.16478 M 184.08038 69.88372 L 175.69553 74.82264 L 192.76518 72.71407 L 184.08038 69.88372 M 192.59682 75.90202 L 175.52718 78.01059 L 182.73351 95.38728 L 192.59682 75.90202 M 197.76196 60.38564 L 192.44294 64.45776 L 196.14618 70.50708 L 197.76196 60.38564 M 196.90445 58.50607 L 189.28610 55.47052 L 191.58543 62.57819 L 196.90445 58.50607 M 169.24089 66.34889 L 172.75500 74.02700 L 181.13984 69.08807 L 169.24089 66.34889 M 171.82154 78.64648 L 162.95175 80.98916 L 179.02787 96.02317 L 171.82154 78.64648 M 161.04794 82.66389 L 156.59102 92.04430 L 177.12406 97.69790 L 161.04794 82.66389 M 157.13079 81.02043 L 145.78684 84.55019 L 152.67387 90.40084 L 157.13079 81.02043 M 142.80211 77.26200 L 132.20132 80.03575 L 141.92004 82.98091 L 142.80211 77.26200 M 128.46907 81.11085 L 120.75509 81.09680 L 130.37679 88.82199 L 128.46907 81.11085 M 128.32778 93.06263 L 111.89775 93.54684 L 118.88535 106.82658 L 128.32778 93.06263 M 131.47954 93.92881 L 122.03711 107.69275 L 137.11180 100.47621 L 131.47954 93.92881 M 141.87557 102.00376 L 147.40379 111.50040 L 148.98683 103.86912 L 141.87557 102.00376 M 153.03056 95.38407 L 151.07604 102.71217 L 155.05178 107.70759 L 153.03056 95.38407 M 128.27444 68.85375 L 142.05527 72.33273 L 139.12537 49.79954 L 128.27444 68.85375 M 116.13132 67.30082 L 118.57691 77.62506 L 123.11084 71.38637 L 116.13132 67.30082 M 113.75573 67.50525 L 104.10618 73.02179 L 116.20132 77.82949 L 113.75573 67.50525 M 103.48293 75.66945 L 108.76973 88.68655 L 115.57807 80.47715 L 103.48293 75.66945 M 99.29534 61.34865 L 88.83571 79.99942 L 99.45885 72.57882 L 99.29534 61.34865 M 102.27961 56.06583 L 108.86731 56.04483 L 106.28561 48.98805 L 102.27961 56.06583 M 110.23468 47.66591 L 112.81638 54.72268 L 133.87218 45.48867 L 110.23468 47.66591 M 110.55835 30.46113 L 105.25831 33.72127 L 106.80447 43.66269 L 110.55835 30.46113 M 110.21892 28.09670 L 104.08904 24.74723 L 104.91888 31.35684 L 110.21892 28.09670 M 117.43038 23.81674 L 164.34228 26.03091 L 170.86760 25.04817 L 117.43038 23.81674 M 98.55419 25.75539 L 65.94015 36.16191 L 99.38404 32.36499 L 98.55419 25.75539 M 134.70176 47.31601 L 113.64596 56.55003 L 116.87131 62.28467 L 134.70176 47.31601 M 108.61746 94.96850 L 102.08545 104.43596 L 115.60506 108.24824 L 108.61746 94.96850 M 99.48289 92.02785 L 100.07018 102.40841 L 106.60219 92.94096 L 99.48289 92.02785 M 91.49282 94.25860 L 98.18151 102.57312 L 97.59422 92.19256 L 91.49282 94.25860 M 85.42218 85.50070 L 79.92103 91.18880 L 88.11143 92.25014 L 85.42218 85.50070 M 84.38606 76.50621 L 94.84569 57.85544 L 63.86166 44.63316 L 84.38606 76.50621 M 77.66404 90.49340 L 83.16519 84.80529 L 70.05554 86.68691 L 77.66404 90.49340 M 69.15839 95.69885 L 75.91319 91.85509 L 68.30469 88.04860 L 69.15839 95.69885 M 66.20217 88.47098 L 59.09301 95.23409 L 67.05587 96.12123 L 66.20217 88.47098 M 57.10741 86.98451 L 57.84946 94.09200 L 64.95861 87.32889 L 57.10741 86.98451 M 46.66416 94.11971 L 50.29549 100.24840 L 55.05986 96.32031 L 46.66416 94.11971 M 45.02880 94.72657 L 41.97700 101.17512 L 48.66014 100.85526 L 45.02880 94.72657 M 33.61141 90.48925 L 32.69403 97.65630 L 42.32528 93.18381 L 33.61141 90.48925 M 25.55059 92.03956 L 30.59719 97.51327 L 31.51458 90.34622 L 25.55059 92.03956 M 40.29424 106.29894 L 31.01323 112.29852 L 47.53087 129.39770 L 40.29424 106.29894 M 51.81026 105.42847 L 52.36375 128.84709 L 62.99314 108.21351 L 51.81026 105.42847 M 55.11641 129.99991 L 73.83154 114.65100 L 65.74580 109.36633 L 55.11641 129.99991 M 57.01313 132.51346 L 80.91951 129.47474 L 75.72825 117.16455 L 57.01313 132.51346 M 50.14890 141.86436 L 43.47860 164.56897 L 51.39113 166.22843 L 50.14890 141.86436 M 54.97074 165.36854 L 72.11547 157.68979 L 53.72851 141.00447 L 54.97074 165.36854 M 54.20195 170.88071 L 57.43955 176.47168 L 61.48533 171.83214 L 54.20195 170.88071 M 52.57247 171.62261 L 48.44947 177.76736 L 55.81007 177.21359 L 52.57247 171.62261 M 43.06706 168.92737 L 46.85660 176.73158 L 50.97960 170.58684 L 43.06706 168.92737 M 34.09884 171.16480 L 35.85073 179.32459 L 39.96854 169.27970 L 34.09884 171.16480 M 33.55417 169.24717 L 39.42388 167.36207 L 31.49341 163.98354 L 33.55417 169.24717 M 26.01185 170.23086 L 31.87767 169.60577 L 29.81691 164.34214 L 26.01185 170.23086 M 25.60964 172.01266 L 26.59926 178.59648 L 31.47546 171.38756 L 25.60964 172.01266 M 22.77818 162.22188 L 22.87323 201.12726 L 24.22928 173.49767 L 22.77818 162.22188 M 23.51548 157.43355 L 24.96658 168.70934 L 28.77163 162.82061 L 23.51548 157.43355 M 26.14489 153.83144 L 31.40104 159.21850 L 46.00181 139.89242 L 26.14489 153.83144 M 33.28484 160.47073 L 41.21531 163.84926 L 47.88561 141.14465 L 33.28484 160.47073 M 26.99291 183.17565 L 27.19645 194.50365 L 33.43154 190.10906 L 26.99291 183.17565 M 47.84732 180.80745 L 46.99714 190.39219 L 55.96598 185.80478 L 47.84732 180.80745 M 60.82604 184.97153 L 69.98639 184.72821 L 68.59852 178.97219 L 60.82604 184.97153 M 70.76457 177.87458 L 72.15244 183.63060 L 78.15441 176.19061 L 70.76457 177.87458 M 73.48165 184.44988 L 81.39823 184.42883 L 79.48361 177.00990 L 73.48165 184.44988 M 73.36360 186.43619 L 78.53925 192.90034 L 81.28019 186.41514 L 73.36360 186.43619 M 83.32991 187.01317 L 80.58898 193.49837 L 89.76142 191.22041 L 83.32991 187.01317 M 81.46536 194.99583 L 90.34095 198.99281 L 90.63780 192.71787 L 81.46536 194.99583 M 92.88232 193.39618 L 92.58548 199.67112 L 99.42154 200.42231 L 92.88232 193.39618 M 94.48596 192.31969 L 101.02518 199.34583 L 105.41458 191.05922 L 94.48596 192.31969 M 93.41152 182.75710 L 93.53425 190.24610 L 104.46287 188.98563 L 93.41152 182.75710 M 95.36052 181.65509 L 106.41187 187.88362 L 109.12627 181.43001 L 95.36052 181.65509 M 81.79063 174.61226 L 90.01402 178.74944 L 85.62905 168.55054 L 81.79063 174.61226 M 74.42811 168.73789 L 79.84240 173.36082 L 83.68081 167.29910 L 74.42811 168.73789 M 77.54152 160.63222 L 74.14050 167.14681 L 83.39320 165.70802 L 77.54152 160.63222 M 82.11243 155.34973 L 105.00998 149.93068 L 93.66196 135.38177 L 82.11243 155.34973 M 65.43545 169.77016 L 71.89578 167.65458 L 75.29680 161.13998 L 65.43545 169.77016 M 49.02056 196.70194 L 59.37353 227.04592 L 62.65058 196.35399 L 49.02056 196.70194 M 62.70279 227.27927 L 75.65468 198.56871 L 65.97984 196.58734 L 62.70279 227.27927 M 65.35286 228.13332 L 87.18034 203.41974 L 78.30474 199.42276 L 65.35286 228.13332 M 102.27330 240.62548 L 103.63960 232.33123 L 69.84484 235.92378 L 102.27330 240.62548 M 116.51718 238.26495 L 115.78413 245.11789 L 122.84018 243.44916 L 116.51718 238.26495 M 116.58307 248.21444 L 119.73532 257.67435 L 126.81250 251.90873 L 116.58307 248.21444 M 121.09549 259.06042 L 127.46442 259.30301 L 128.17267 253.29480 L 121.09549 259.06042 M 129.66830 260.92641 L 133.31293 266.15048 L 135.79012 260.81540 L 129.66830 260.92641 M 134.75277 267.10765 L 141.18698 268.58375 L 137.22995 261.77256 L 134.75277 267.10765 M 134.50648 268.86233 L 135.25965 275.81002 L 140.94069 270.33843 L 134.50648 268.86233 M 136.43949 276.81534 L 143.94523 276.90484 L 142.12053 271.34375 L 136.43949 276.81534 M 126.51216 273.32276 L 131.25536 268.39638 L 120.42807 268.63218 L 126.51216 273.32276 M 118.96175 269.97823 L 119.52479 279.16479 L 125.04584 274.66882 L 118.96175 269.97823 M 113.62267 275.41634 L 118.09689 279.25823 L 117.53385 270.07167 L 113.62267 275.41634 M 113.27651 277.45188 L 114.76454 286.35596 L 117.75073 281.29376 L 113.27651 277.45188 M 119.35111 282.38442 L 116.36492 287.44662 L 126.07953 286.17712 L 119.35111 282.38442 M 99.49034 281.64258 L 97.51683 289.53213 L 104.03938 286.44780 L 99.49034 281.64258 M 97.82273 272.50820 L 99.67665 277.94055 L 105.41033 270.15345 L 97.82273 272.50820 M 88.50953 279.39344 L 97.56405 279.09555 L 95.71013 273.66320 L 88.50953 279.39344 M 88.49245 281.29657 L 95.57346 288.88822 L 97.54697 280.99868 L 88.49245 281.29657 M 75.95787 282.27775 L 85.01428 279.77007 L 85.85907 273.87071 L 75.95787 282.27775 M 74.30031 285.38831 L 74.87283 291.17492 L 81.08253 290.46089 L 74.30031 285.38831 M 64.39936 291.23930 L 72.78743 291.27222 L 72.21492 285.48561 L 64.39936 291.23930 M 61.91815 282.32807 L 63.04070 290.12128 L 70.85625 284.36759 L 61.91815 282.32807 M 85.75750 267.18976 L 93.20742 259.97267 L 66.85062 241.94664 L 85.75750 267.18976 M 99.97676 260.06721 L 107.51192 257.69807 L 106.02018 252.28922 L 99.97676 260.06721 M 109.57374 260.17589 L 108.53206 267.57650 L 116.02121 267.08032 L 109.57374 260.17589 M 110.75986 259.29037 L 117.20733 266.19480 L 118.02106 260.49235 L 110.75986 259.29037 M 131.64989 250.84488 L 139.99944 251.38272 L 139.85544 244.93140 L 131.64989 250.84488 M 127.18770 242.97438 L 138.56663 242.42393 L 132.86240 236.68591 L 127.18770 242.97438 M 134.74961 235.44504 L 140.45385 241.18306 L 142.28539 233.04747 L 134.74961 235.44504 M 125.40703 231.88878 L 131.77937 233.53767 L 130.60004 225.17540 L 125.40703 231.88878 M 136.30639 220.33354 L 145.02150 226.29824 L 163.52203 195.55150 L 136.30639 220.33354 M 106.81831 219.79311 L 114.35072 214.89818 L 105.83414 212.14294 L 106.81831 219.79311 M 107.04661 210.35265 L 115.56319 213.10789 L 116.51808 205.47081 L 107.04661 210.35265 M 109.84411 201.42248 L 106.33173 208.89197 L 115.80319 204.01013 L 109.84411 201.42248 M 107.16498 191.90819 L 102.77558 200.19480 L 108.48918 199.11147 L 107.16498 191.90819 M 108.66396 191.28353 L 109.98816 198.48681 L 114.76739 195.19751 L 108.66396 191.28353 M 111.78150 181.95437 L 109.06711 188.40798 L 116.60238 185.84999 L 111.78150 181.95437 M 114.75348 177.62355 L 119.57437 181.51917 L 132.84299 153.76141 L 114.75348 177.62355 M 125.43160 182.23346 L 161.61135 183.33787 L 138.70022 154.47570 L 125.43160 182.23346 M 123.50008 187.96299 L 123.24809 200.31190 L 159.67984 189.06740 L 123.50008 187.96299 M 112.80209 153.67426 L 113.90695 174.14294 L 131.99645 150.28080 L 112.80209 153.67426 M 99.60160 119.67506 L 95.36605 128.72531 L 102.85767 125.69718 L 99.60160 119.67506 M 102.08599 117.69898 L 105.34206 123.72110 L 115.24119 112.91665 L 102.08599 117.69898 M 101.20436 107.01626 L 101.56878 115.61087 L 114.72398 110.82854 L 101.20436 107.01626 M 88.20187 106.96904 L 90.75999 112.36603 L 97.05648 106.22689 L 88.20187 106.96904 M 86.04580 107.76598 L 79.80793 112.60241 L 88.60392 113.16297 L 86.04580 107.76598 M 88.65234 114.80871 L 79.85635 114.24816 L 86.43319 120.93194 L 88.65234 114.80871 M 88.98780 123.00647 L 93.63232 128.38897 L 97.86787 119.33872 L 88.98780 123.00647 M 118.28722 114.46365 L 108.38809 125.26810 L 126.45426 130.07501 L 118.28722 114.46365 M 29.21033 117.58963 L 25.87105 148.62783 L 45.72797 134.68881 L 29.21033 117.58963 M 138.67490 258.84820 L 147.33337 255.88323 L 141.61088 253.48885 L 138.67490 258.84820 M 138.82076 260.58684 L 142.77779 267.39803 L 147.47923 257.62188 L 138.82076 260.58684 M 337.45476 270.51271 L 337.71646 263.13292 L 329.93474 264.71037 L 337.45476 270.51271 M 339.40191 271.11593 L 345.51194 269.53609 L 339.66361 263.73614 L 339.40191 271.11593 M 349.07260 277.29022 L 355.52002 273.19524 L 348.34829 271.27314 L 349.07260 277.29022 M 356.49605 280.93508 L 356.53849 274.40298 L 350.09107 278.49796 L 356.49605 280.93508 M 358.34707 280.79933 L 364.89919 277.41195 L 358.38951 274.26723 L 358.34707 280.79933 M 365.03240 284.42466 L 365.72956 278.68163 L 359.17743 282.06901 L 365.03240 284.42466 M 366.52472 285.27848 L 371.11595 288.89959 L 367.22187 279.53546 L 366.52472 285.27848 M 361.55466 290.39451 L 370.40755 290.25697 L 365.81632 286.63586 L 361.55466 290.39451 M 360.06235 289.54069 L 364.32400 285.78204 L 358.46903 283.42639 L 360.06235 289.54069 M 356.22339 290.53284 L 347.71615 288.72735 L 340.52630 289.41041 L 356.22339 290.53284 M 348.58836 286.79259 L 355.50228 282.48378 L 349.09730 280.04666 L 348.58836 286.79259 M 357.13429 271.60584 L 361.98674 264.57501 L 349.96255 269.68374 L 357.13429 271.60584 M 364.76704 257.45729 L 376.45047 237.61420 L 355.66910 239.61587 L 364.76704 257.45729 M 371.48194 260.61371 L 409.38832 264.86724 L 383.16537 240.77063 L 371.48194 260.61371 M 376.39399 287.23316 L 408.74906 271.94700 L 372.49991 277.86902 L 376.39399 287.23316 M 407.95601 269.15562 L 370.04963 264.90209 L 371.70687 275.07764 L 407.95601 269.15562 M 379.25006 231.64023 L 387.16373 209.66551 L 358.46868 233.64190 L 379.25006 231.64023 M 394.35012 207.61000 L 386.43645 229.58472 L 415.95984 217.19780 L 394.35012 207.61000 M 394.43289 197.19680 L 404.69470 177.17256 L 398.44652 175.89120 L 394.43289 197.19680 M 415.87640 182.81533 L 406.87343 178.03808 L 396.61163 198.06232 L 415.87640 182.81533 M 420.86557 181.14894 L 424.37836 189.46945 L 424.00932 171.63337 L 420.86557 181.14894 M 404.51740 165.61570 L 407.05437 159.91078 L 398.31881 162.95585 L 404.51740 165.61570 M 397.40146 161.49254 L 406.13702 158.44747 L 397.17860 153.90921 L 397.40146 161.49254 M 395.51528 164.96480 L 389.46536 171.88465 L 396.87464 171.72232 L 395.51528 164.96480 M 387.16952 154.33334 L 393.59928 151.78948 L 384.15508 146.52910 L 387.16952 154.33334 M 384.99060 155.05894 L 381.97615 147.25471 L 376.16787 157.59432 L 384.99060 155.05894 M 374.65125 155.33601 L 380.45953 144.99640 L 372.85767 136.99244 L 374.65125 155.33601 M 381.23412 140.64792 L 380.84793 120.54817 L 373.63226 132.64396 L 381.23412 140.64792 M 386.25669 139.67923 L 413.81283 124.89444 L 385.87051 119.57948 L 386.25669 139.67923 M 370.52907 129.70746 L 371.31188 118.72425 L 362.84148 116.04335 L 370.52907 129.70746 M 360.70416 133.17822 L 338.57834 112.82965 L 307.15084 153.17476 L 360.70416 133.17822 M 364.12122 138.70567 L 310.56789 158.70221 L 365.91480 157.04923 L 364.12122 138.70567 M 371.36721 115.68149 L 370.97165 105.36541 L 362.89680 113.00059 L 371.36721 115.68149 M 373.49624 115.90554 L 379.92911 114.79296 L 373.10069 105.58946 L 373.49624 115.90554 M 381.01971 113.49968 L 382.22109 105.55923 L 374.19130 104.29617 L 381.01971 113.49968 M 381.31081 103.45413 L 373.73749 96.65892 L 373.28102 102.19107 L 381.31081 103.45413 M 382.31746 102.27434 L 381.33420 92.75268 L 374.74414 95.47912 L 382.31746 102.27434 M 391.20211 94.90528 L 395.25352 88.86322 L 388.55346 85.59236 L 391.20211 94.90528 M 395.70119 87.09989 L 394.78350 80.79860 L 389.00114 83.82902 L 395.70119 87.09989 M 404.25701 86.85734 L 396.69049 81.17714 L 397.60818 87.47843 L 404.25701 86.85734 M 416.11981 70.00227 L 406.55763 58.43776 L 399.00296 76.07761 L 416.11981 70.00227 M 413.75759 47.70904 L 412.53133 38.11232 L 407.90338 42.85770 L 413.75759 47.70904 M 421.47868 46.88302 L 414.22824 38.61548 L 415.45450 48.21221 L 421.47868 46.88302 M 425.33616 35.63807 L 421.85375 28.10973 L 415.36788 35.13243 L 425.33616 35.63807 M 420.27906 26.78408 L 412.73870 25.03282 L 413.79320 33.80678 L 420.27906 26.78408 M 409.93629 24.83077 L 403.86810 26.22962 L 404.98252 32.54272 L 409.93629 24.83077 M 411.49783 36.58964 L 405.48956 35.52764 L 406.86988 41.33503 L 411.49783 36.58964 M 385.32481 23.57055 L 402.46373 23.49775 L 356.27275 23.20467 L 385.32481 23.57055 M 364.80105 48.53812 L 347.22190 27.25604 L 341.52986 34.99252 L 364.80105 48.53812 M 363.80969 50.62266 L 340.53850 37.07706 L 339.29102 43.93234 L 363.80969 50.62266 M 363.60067 55.30630 L 337.94580 58.27121 L 340.00254 64.89095 L 363.60067 55.30630 M 364.49153 57.04342 L 340.89340 66.62808 L 345.07271 72.16823 L 364.49153 57.04342 M 365.84394 58.41858 L 346.42512 73.54338 L 351.71269 77.62928 L 365.84394 58.41858 M 368.06022 86.69645 L 353.65945 82.34002 L 361.72971 87.66220 L 368.06022 86.69645 M 360.82024 101.15356 L 360.81651 90.60891 L 352.68066 94.40330 L 360.82024 101.15356 M 361.83178 111.60920 L 369.90663 103.97402 L 362.84704 104.55034 L 361.83178 111.60920 M 359.72654 111.80399 L 360.74180 104.74513 L 353.06475 105.53237 L 359.72654 111.80399 M 349.83935 103.61312 L 349.37683 96.07563 L 342.06292 103.20029 L 349.83935 103.61312 M 349.35633 82.67195 L 341.77110 85.55745 L 349.29074 91.78852 L 349.35633 82.67195 M 341.16622 74.48266 L 336.98691 68.94250 L 333.23961 75.55885 L 341.16622 74.48266 M 319.65239 72.51381 L 322.70219 65.36348 L 309.00292 65.23047 L 319.65239 72.51381 M 317.53667 74.71247 L 306.88720 67.42913 L 305.77645 82.95279 L 317.53667 74.71247 M 318.98686 76.65420 L 307.22664 84.89452 L 318.48868 82.96298 L 318.98686 76.65420 M 279.66200 86.47375 L 285.33535 76.51526 L 253.20046 68.65377 L 279.66200 86.47375 M 274.01819 89.79606 L 247.55665 71.97607 L 240.18490 103.09372 L 274.01819 89.79606 M 235.38334 65.10550 L 203.12951 60.46661 L 201.51373 70.58804 L 235.38334 65.10550 M 235.86126 62.53699 L 205.33709 50.03993 L 203.60743 57.89810 L 235.86126 62.53699 M 203.09114 22.87013 L 122.27398 23.42164 L 175.71121 24.65307 L 203.09114 22.87013 M 198.52251 25.91901 L 190.51831 29.57288 L 194.19319 34.56580 L 198.52251 25.91901 M 197.05591 24.77595 L 182.46037 25.42129 L 189.05171 28.42981 L 197.05591 24.77595 M 414.67548 120.13805 L 393.15785 101.62812 L 386.73315 114.82309 L 414.67548 120.13805 M 420.01483 114.66994 L 418.74778 77.74132 L 409.19745 89.49686 L 420.01483 114.66994 M 415.21717 128.51731 L 387.66103 143.30210 L 397.10524 148.56247 L 415.21717 128.51731 M 408.69260 154.50054 L 417.84612 129.91712 L 399.73419 149.96228 L 408.69260 154.50054 M 421.25970 205.88576 L 398.70303 204.64763 L 420.31275 214.23543 L 421.25970 205.88576 M 350.95689 229.09991 L 366.83086 174.55630 L 331.97679 225.87153 L 350.95689 229.09991 M 345.67665 237.56159 L 326.69655 234.33321 L 324.58892 242.24973 L 345.67665 237.56159 M 339.00938 258.63791 L 347.78395 241.48772 L 331.24184 253.28025 L 339.00938 258.63791" fill="none" stroke="black" stroke-width="0.01cm" />
   </g>
</svg>