<?xml version="1.0" standalone="no"?>
  <!DOCTYPE svg PUBLIC "-//W3C//DTD SVG 1.1//EN" 
    "http://www.w3.org/Graphics/SVG/1.1/DTD/svg11.dtd">
  <svg width="12.7cm" height="8.89cm"
       xmlns="http://www.w3.org/2000/svg" version="1.1" viewBox="0 0 449.99999 314.99999">
   <g>
     <path d="M 221.90117 166.88632 L 220.17175 172.32339 L 227.11073 170.62772 L 221.90117 166.88632 M 220.47376 173.91513 L 224.31721 179.62027 L 227.41273 172.21947 L 220.47376 173.91513 M 225.75580 180.36183 L 231.98247 179.84758 L 228.85132 172.96102 L 225.75580 180.36183 M 229.51779 188.38531 L 241.45498 190.90106 L 233.80087 182.73241 L 229.51779 188.38531 M 232.11122 195.30365 L 241.24377 192.47246 L 229.30659 189.95671 L 232.11122 195.30365 M 233.01872 196.82626 L 236.56658 202.13761 L 242.15127 193.99507 L 233.01872 196.82626 M 238.69537 203.09937 L 250.04902 204.52038 L 244.28006 194.95684 L 238.69537 203.09937 M 228.23177 205.17605 L 231.09151 213.31080 L 234.80583 205.21155 L 228.23177 205.17605 M 232.55503 214.59388 L 239.93998 215.44069 L 236.26936 206.49463 L 232.55503 214.59388 M 232.02421 216.76381 L 232.02276 223.85408 L 239.40916 217.61062 L 232.02421 216.76381 M 242.09255 214.48665 L 249.77558 206.96161 L 238.42193 205.54060 L 242.09255 214.48665 M 243.44043 216.29178 L 249.20492 219.98164 L 251.12345 208.76674 L 243.44043 216.29178 M 252.81885 220.53746 L 272.35179 220.73834 L 254.73738 209.32256 L 252.81885 220.53746 M 242.80599 230.89094 L 251.35336 228.95868 L 249.15998 223.84732 L 242.80599 230.89094 M 242.84804 232.57041 L 249.49636 237.28309 L 251.39540 230.63816 L 242.84804 232.57041 M 236.92941 243.17272 L 244.32277 244.23007 L 240.66586 234.73502 L 236.92941 243.17272 M 235.23029 242.47089 L 238.96674 234.03320 L 230.72979 238.61544 L 235.23029 242.47089 M 230.29258 236.76863 L 238.52953 232.18638 L 231.73262 227.69637 L 230.29258 236.76863 M 220.86286 232.24523 L 228.08425 236.77598 L 229.52428 227.70373 L 220.86286 232.24523 M 220.09518 240.04576 L 226.90561 238.31874 L 219.68422 233.78798 L 220.09518 240.04576 M 224.93938 248.35689 L 219.85600 243.09508 L 219.49776 251.19373 L 224.93938 248.35689 M 227.57932 247.25728 L 233.80686 244.12390 L 229.30636 240.26845 L 227.57932 247.25728 M 228.38644 248.64651 L 235.76327 251.38230 L 234.61398 245.51313 L 228.38644 248.64651 M 228.93130 257.89248 L 226.07380 250.20656 L 220.63218 253.04340 L 228.93130 257.89248 M 230.76251 257.87804 L 235.28183 252.92792 L 227.90500 250.19213 L 230.76251 257.87804 M 225.08419 264.72427 L 228.80760 259.70719 L 220.50848 254.85812 L 225.08419 264.72427 M 231.52904 273.68734 L 234.70910 267.83680 L 226.96442 267.71969 L 231.52904 273.68734 M 237.95029 265.91787 L 243.91578 266.14948 L 243.74840 257.98718 L 237.95029 265.91787 M 244.82404 277.74615 L 244.05023 268.61935 L 238.08474 268.38774 L 244.82404 277.74615 M 247.66003 279.30076 L 255.50744 278.46861 L 252.15149 272.52997 L 247.66003 279.30076 M 253.19436 269.35670 L 258.98836 266.67577 L 253.56492 262.53418 L 253.19436 269.35670 M 261.23923 257.07212 L 254.29704 254.18618 L 253.93754 259.78149 L 261.23923 257.07212 M 253.94619 251.00386 L 260.30025 247.05715 L 251.71891 241.15558 L 253.94619 251.00386 M 252.29294 250.84398 L 250.06566 240.99570 L 247.07425 245.77806 L 252.29294 250.84398 M 263.20242 246.30408 L 270.49099 246.11625 L 261.29368 239.26560 L 263.20242 246.30408 M 272.01346 243.62239 L 275.38217 226.35325 L 262.81615 236.77175 L 272.01346 243.62239 M 274.73798 244.26770 L 284.61232 241.93424 L 278.10669 226.99856 L 274.73798 244.26770 M 284.78958 244.90511 L 274.91524 247.23857 L 279.52479 250.76550 L 284.78958 244.90511 M 287.44047 240.41993 L 297.36319 232.15321 L 280.93484 225.48425 L 287.44047 240.41993 M 299.47369 239.17919 L 308.20016 235.11593 L 301.72970 233.08554 L 299.47369 239.17919 M 307.72204 245.15054 L 308.94920 236.62405 L 300.22273 240.68732 L 307.72204 245.15054 M 301.04556 249.97784 L 306.73408 246.81977 L 299.23477 242.35654 L 301.04556 249.97784 M 299.20182 250.40529 L 297.39104 242.78399 L 291.98421 250.23939 L 299.20182 250.40529 M 294.27746 256.88751 L 298.81263 252.16823 L 291.59502 252.00233 L 294.27746 256.88751 M 305.63221 257.08493 L 307.53376 248.66082 L 301.84524 251.81889 L 305.63221 257.08493 M 307.17923 257.76870 L 314.22142 257.28908 L 309.08079 249.34459 L 307.17923 257.76870 M 309.30099 264.87741 L 305.72738 260.33925 L 300.93462 264.89114 L 309.30099 264.87741 M 310.99170 264.15862 L 314.46029 259.14083 L 307.41809 259.62046 L 310.99170 264.15862 M 315.04493 275.12995 L 322.07830 269.64155 L 312.68557 267.04865 L 315.04493 275.12995 M 316.36562 276.38769 L 323.25108 277.11064 L 323.39899 270.89930 L 316.36562 276.38769 M 307.41152 278.45899 L 313.21158 276.23213 L 310.85223 268.15083 L 307.41152 278.45899 M 300.77681 290.59614 L 308.35555 289.08123 L 305.75247 282.38059 L 300.77681 290.59614 M 302.11129 291.79334 L 316.42835 291.95818 L 309.69003 290.27843 L 302.11129 291.79334 M 291.79137 285.05322 L 295.69618 278.46447 L 289.83640 277.06456 L 291.79137 285.05322 M 290.28444 285.42061 L 288.32946 277.43194 L 283.64067 281.40357 L 290.28444 285.42061 M 280.88703 280.35533 L 278.77029 274.33226 L 275.06077 279.08614 L 280.88703 280.35533 M 278.88499 288.87637 L 289.10388 286.85116 L 282.46011 282.83412 L 278.88499 288.87637 M 270.04985 286.85210 L 275.77495 288.71784 L 273.52382 281.40640 L 270.04985 286.85210 M 268.96206 285.45274 L 272.43603 280.00703 L 267.07263 277.52292 L 268.96206 285.45274 M 267.30300 285.41415 L 265.41357 277.48434 L 259.16355 279.69836 L 267.30300 285.41415 M 263.13964 290.81955 L 292.57183 291.66910 L 277.12359 290.29897 L 263.13964 290.81955 M 260.11488 290.35728 L 274.09883 289.83670 L 268.37374 287.97096 L 260.11488 290.35728 M 255.85039 288.57654 L 255.96980 280.47443 L 248.12240 281.30658 L 255.85039 288.57654 M 241.52562 289.12380 L 254.04487 289.65771 L 246.31687 282.38775 L 241.52562 289.12380 M 239.00457 287.58411 L 243.79583 280.84806 L 233.87648 277.34019 L 239.00457 287.58411 M 225.17387 291.10529 L 251.40199 290.74741 L 238.88274 290.21350 L 225.17387 291.10529 M 220.68556 288.29621 L 229.26634 277.16050 L 220.62366 278.51873 L 220.68556 288.29621 M 218.76114 291.69406 L 305.06224 292.13513 L 290.74518 291.97029 L 218.76114 291.69406 M 208.76438 291.60027 L 280.74841 291.87650 L 225.08810 291.38483 L 208.76438 291.60027 M 199.89324 291.08733 L 216.21696 290.87189 L 209.77933 287.77296 L 199.89324 291.08733 M 197.99546 290.07982 L 207.88155 286.76544 L 201.03470 282.81179 L 197.99546 290.07982 M 188.05590 290.57171 L 194.47540 290.75584 L 189.17983 285.08977 L 188.05590 290.57171 M 188.01154 283.50516 L 185.12903 278.07892 L 186.88760 288.98710 L 188.01154 283.50516 M 185.81910 275.12599 L 192.15950 276.18245 L 188.95027 269.73342 L 185.81910 275.12599 M 181.10523 266.60238 L 187.07484 266.96525 L 179.99450 259.79252 L 181.10523 266.60238 M 180.67014 258.25356 L 187.75048 265.42629 L 186.51035 254.29067 L 180.67014 258.25356 M 178.74718 248.71235 L 185.54304 250.65312 L 180.96764 242.22956 L 178.74718 248.71235 M 186.73784 249.62173 L 188.30562 240.46120 L 182.16245 241.19817 L 186.73784 249.62173 M 188.45098 250.30770 L 195.86756 246.68589 L 190.01876 241.14717 L 188.45098 250.30770 M 196.24792 257.24581 L 201.70591 262.15774 L 202.37182 256.35233 L 196.24792 257.24581 M 204.79354 255.09137 L 210.94332 257.91173 L 208.80595 250.14323 L 204.79354 255.09137 M 212.47607 257.64779 L 217.05547 252.97985 L 210.33869 249.87929 L 212.47607 257.64779 M 214.08928 259.50017 L 223.24440 264.69839 L 218.66868 254.83224 L 214.08928 259.50017 M 214.24264 267.16060 L 222.69114 266.23944 L 213.53602 261.04122 L 214.24264 267.16060 M 219.33837 275.35446 L 223.41644 268.02859 L 214.96794 268.94975 L 219.33837 275.35446 M 205.10686 271.63403 L 211.19265 268.20805 L 203.67033 265.07373 L 205.10686 271.63403 M 204.43878 263.71011 L 211.96110 266.84443 L 211.25448 260.72505 L 204.43878 263.71011 M 190.84968 266.46947 L 200.26564 263.42238 L 194.80765 258.51045 L 190.84968 266.46947 M 199.45166 247.93998 L 203.35708 253.84490 L 207.36949 248.89676 L 199.45166 247.93998 M 199.97713 246.25411 L 207.89497 247.21089 L 207.56091 240.35798 L 199.97713 246.25411 M 198.89721 245.11754 L 206.48098 239.22141 L 199.25555 238.11832 L 198.89721 245.11754 M 210.65475 238.17267 L 218.06383 240.02750 L 217.65287 233.76972 L 210.65475 238.17267 M 209.70781 229.80520 L 217.03222 230.98812 L 213.42497 223.36056 L 209.70781 229.80520 M 215.22912 220.55409 L 222.53714 220.70050 L 220.44022 214.83460 L 215.22912 220.55409 M 220.64549 197.07454 L 226.48253 202.48260 L 229.50874 197.20675 L 220.64549 197.07454 M 216.56850 184.68369 L 219.05566 194.18131 L 225.11427 188.96659 L 216.56850 184.68369 M 235.01883 178.87088 L 242.73407 174.56650 L 239.20030 169.96607 L 235.01883 178.87088 M 244.82762 174.07693 L 251.76720 174.95432 L 241.29385 169.47650 L 244.82762 174.07693 M 240.63255 167.86597 L 251.10590 173.34379 L 239.53723 161.19270 L 240.63255 167.86597 M 238.06116 166.23744 L 236.96585 159.56418 L 230.53481 160.31560 L 238.06116 166.23744 M 235.82295 157.27457 L 228.91799 147.92056 L 229.39192 158.02599 L 235.82295 157.27457 M 236.61928 153.93256 L 235.76255 131.28987 L 229.71431 144.57855 L 236.61928 153.93256 M 227.66753 157.83710 L 227.19360 147.73168 L 222.02786 155.76352 L 227.66753 157.83710 M 219.60488 158.51196 L 212.80559 165.52052 L 220.24872 164.78425 L 219.60488 158.51196 M 225.81089 143.73159 L 222.05337 134.70172 L 215.19761 142.89806 L 225.81089 143.73159 M 220.10070 133.73372 L 210.18949 135.98755 L 213.24494 141.93005 L 220.10070 133.73372 M 211.43510 143.39342 L 208.37966 137.45092 L 205.62201 145.44067 L 211.43510 143.39342 M 202.63645 147.82530 L 193.60635 149.85768 L 199.33837 152.44832 L 202.63645 147.82530 M 200.82925 154.62862 L 201.37492 162.76631 L 208.28582 154.53937 L 200.82925 154.62862 M 191.63725 150.90882 L 186.88359 156.23439 L 197.36926 153.49946 L 191.63725 150.90882 M 186.62754 144.01025 L 181.42806 147.30966 L 189.83755 148.86283 L 186.62754 144.01025 M 184.30864 134.15283 L 178.06094 136.86017 L 185.63909 141.21475 L 184.30864 134.15283 M 177.50822 138.34036 L 179.88689 145.99435 L 185.08637 142.69494 L 177.50822 138.34036 M 175.12039 138.37771 L 165.98375 142.99378 L 177.49907 146.03170 L 175.12039 138.37771 M 171.92609 129.15909 L 165.28713 140.88470 L 174.42377 136.26863 L 171.92609 129.15909 M 174.12385 128.11289 L 176.62154 135.22243 L 182.86924 132.51510 L 174.12385 128.11289 M 177.97506 118.81830 L 168.58714 120.36814 L 172.68734 124.94054 L 177.97506 118.81830 M 173.54809 112.02428 L 168.69473 118.75361 L 178.08265 117.20377 L 173.54809 112.02428 M 166.44922 121.28853 L 160.87177 126.18138 L 170.54943 125.86093 L 166.44922 121.28853 M 160.49468 116.20017 L 159.61492 124.97379 L 165.19238 120.08093 L 160.49468 116.20017 M 158.96461 116.21321 L 152.95186 120.18528 L 158.08486 124.98683 L 158.96461 116.21321 M 158.39328 127.86951 L 153.26028 123.06796 L 161.43198 139.27468 L 158.39328 127.86951 M 166.84582 145.06988 L 182.01697 154.98655 L 178.36114 148.10781 L 166.84582 145.06988 M 185.40783 162.35979 L 179.28547 191.77430 L 196.43917 167.76254 L 185.40783 162.35979 M 202.94881 167.01749 L 213.11755 179.34514 L 210.16257 168.08345 L 202.94881 167.01749 M 194.68091 137.50782 L 188.28415 142.78502 L 191.49416 147.63760 L 194.68091 137.50782 M 204.14666 127.50954 L 197.55580 127.51051 L 197.11692 133.57420 L 204.14666 127.50954 M 203.52993 117.52122 L 198.35742 125.50388 L 204.94829 125.50292 L 203.52993 117.52122 M 201.97712 116.26825 L 192.52580 115.47912 L 196.80461 124.25091 L 201.97712 116.26825 M 197.88489 107.50829 L 192.66084 113.38629 L 202.11215 114.17542 L 197.88489 107.50829 M 196.06702 106.71998 L 187.56924 107.86899 L 190.84297 112.59799 L 196.06702 106.71998 M 190.65118 99.75402 L 187.54526 106.26349 L 196.04305 105.11449 L 190.65118 99.75402 M 200.36375 91.33189 L 192.95375 97.54632 L 203.94768 100.17679 L 200.36375 91.33189 M 203.07843 89.77957 L 206.66236 98.62447 L 214.67121 85.12779 L 203.07843 89.77957 M 203.45131 79.84284 L 195.58639 82.19802 L 200.60111 87.36719 L 203.45131 79.84284 M 205.82381 79.91676 L 202.97361 87.44111 L 214.56639 82.78932 L 205.82381 79.91676 M 193.74954 83.06591 L 188.75654 86.78596 L 198.76427 88.23508 L 193.74954 83.06591 M 193.17618 74.72704 L 194.65827 80.61800 L 202.52319 78.26282 L 193.17618 74.72704 M 191.12356 74.67820 L 186.10224 77.87216 L 192.60566 80.56917 L 191.12356 74.67820 M 189.84009 73.48315 L 182.33791 71.00876 L 184.81877 76.67711 L 189.84009 73.48315 M 182.04233 78.31659 L 174.41901 76.86512 L 172.77110 82.38210 L 182.04233 78.31659 M 178.74731 69.60391 L 168.73864 63.69584 L 173.60484 73.82079 L 178.74731 69.60391 M 168.03795 60.48432 L 178.04661 66.39239 L 167.99929 48.12862 L 168.03795 60.48432 M 165.75814 45.84111 L 160.11742 48.09227 L 165.79680 58.19680 L 165.75814 45.84111 M 158.41454 48.55901 L 152.13512 49.57496 L 164.09392 58.66353 L 158.41454 48.55901 M 157.42242 38.90412 L 149.53310 41.13656 L 157.38415 45.42592 L 157.42242 38.90412 M 148.63058 42.21338 L 150.20220 47.51869 L 156.48162 46.50274 L 148.63058 42.21338 M 140.02006 41.78226 L 138.21500 49.49177 L 147.21585 47.80290 L 140.02006 41.78226 M 138.09351 41.35311 L 131.80351 44.36971 L 136.28846 49.06262 L 138.09351 41.35311 M 136.84808 33.15209 L 128.46808 36.54203 L 137.78509 38.71553 L 136.84808 33.15209 M 132.57058 24.02263 L 114.29214 24.07195 L 125.36233 26.38276 L 132.57058 24.02263 M 144.94824 24.41775 L 137.45236 24.48787 L 138.64224 30.22410 L 144.94824 24.41775 M 146.46493 25.42860 L 140.15893 31.23495 L 149.58591 32.57465 L 146.46493 25.42860 M 154.99469 25.74160 L 148.31940 24.74193 L 151.44038 31.88798 L 154.99469 25.74160 M 162.07424 30.45846 L 156.71404 26.45617 L 153.15973 32.60255 L 162.07424 30.45846 M 167.06339 25.86951 L 164.69615 31.25729 L 166.40763 40.37863 L 167.06339 25.86951 M 143.50524 58.04396 L 137.75366 62.87762 L 146.01418 65.36982 L 143.50524 58.04396 M 135.67527 52.58254 L 129.34659 56.15511 L 135.03171 61.24694 L 135.67527 52.58254 M 130.64155 45.98144 L 128.79782 54.24692 L 135.12650 50.67435 L 130.64155 45.98144 M 125.67011 38.16238 L 120.75429 43.09831 L 128.69712 43.35248 L 125.67011 38.16238 M 118.80560 34.51295 L 119.51785 41.99337 L 124.43367 37.05744 L 118.80560 34.51295 M 111.87717 39.19501 L 117.94829 42.26056 L 117.23604 34.78015 L 111.87717 39.19501 M 101.81357 32.08937 L 109.17779 37.10707 L 109.07642 26.15984 L 101.81357 32.08937 M 98.09957 34.35525 L 89.34396 38.83575 L 95.48420 44.82410 L 98.09957 34.35525 M 97.78704 44.90084 L 107.76662 39.44969 L 100.40240 34.43200 L 97.78704 44.90084 M 97.74137 49.36874 L 102.70522 64.35721 L 105.05282 49.73551 L 97.74137 49.36874 M 95.93389 50.25209 L 90.59299 56.80236 L 100.89774 65.24057 L 95.93389 50.25209 M 87.39921 46.82164 L 94.14666 46.38240 L 88.00641 40.39404 L 87.39921 46.82164 M 78.28776 37.13283 L 64.50195 51.83870 L 83.02551 47.06554 L 78.28776 37.13283 M 84.39999 28.06477 L 80.85092 33.35764 L 86.19586 36.86275 L 84.39999 28.06477 M 82.95226 26.51313 L 74.61402 24.44960 L 79.40319 31.80599 L 82.95226 26.51313 M 71.84384 24.67081 L 60.79089 28.28276 L 76.63302 32.02720 L 71.84384 24.67081 M 68.81734 23.61927 L 52.42098 23.61495 L 57.76439 27.23123 L 68.81734 23.61927 M 56.24917 31.20523 L 49.29587 33.34475 L 58.30548 49.65555 L 56.24917 31.20523 M 49.84866 24.43659 L 48.23877 30.19238 L 55.19206 28.05286 L 49.84866 24.43659 M 47.84659 24.25761 L 39.17553 26.62104 L 46.23670 30.01340 L 47.84659 24.25761 M 45.65384 23.37673 L 28.69473 22.96635 L 36.98278 25.74016 L 45.65384 23.37673 M 38.06253 27.94569 L 38.94264 34.85484 L 45.12371 31.33805 L 38.06253 27.94569 M 29.36650 31.97124 L 25.58328 36.07218 L 35.80525 35.82814 L 29.36650 31.97124 M 28.05677 30.58796 L 25.32736 24.76190 L 24.27354 34.68890 L 28.05677 30.58796 M 24.69602 44.94400 L 23.63934 39.15628 L 22.98031 50.61226 L 24.69602 44.94400 M 25.46925 46.79221 L 23.75354 52.46048 L 29.82519 53.94203 L 25.46925 46.79221 M 26.51440 46.13117 L 30.87035 53.28098 L 32.11476 47.17210 L 26.51440 46.13117 M 30.81231 56.75411 L 25.71036 61.13592 L 32.39654 63.42551 L 30.81231 56.75411 M 34.39831 56.07277 L 35.98254 62.74417 L 54.39835 55.68521 L 34.39831 56.07277 M 24.97134 63.27426 L 24.90017 73.86080 L 31.65752 65.56385 L 24.97134 63.27426 M 27.18784 78.25473 L 34.87873 86.66586 L 42.33910 81.71755 L 27.18784 78.25473 M 25.30227 79.90707 L 27.25455 94.93630 L 32.99316 88.31821 L 25.30227 79.90707 M 34.24425 90.51914 L 28.50565 97.13723 L 35.31102 97.51454 L 34.24425 90.51914 M 26.15660 96.78576 L 24.20431 81.75653 L 24.20951 103.11387 L 26.15660 96.78576 M 24.83800 107.70587 L 25.20946 113.23467 L 30.80790 106.63556 L 24.83800 107.70587 M 37.10694 110.65752 L 31.50850 117.25662 L 75.23033 139.88154 L 37.10694 110.65752 M 41.08679 104.13707 L 38.30423 109.01757 L 76.42761 138.24160 L 41.08679 104.13707 M 46.19762 83.41036 L 39.80401 95.35407 L 56.98920 84.80181 L 46.19762 83.41036 M 61.12451 91.38013 L 43.93933 101.93239 L 79.28015 136.03692 L 61.12451 91.38013 M 71.06362 82.31130 L 112.14265 84.47262 L 100.52878 71.87718 L 71.06362 82.31130 M 114.61345 54.07170 L 107.16183 50.32338 L 104.81423 64.94508 L 114.61345 54.07170 M 118.88165 54.52753 L 124.12146 62.82444 L 126.26839 56.54650 L 118.88165 54.52753 M 128.13579 57.56233 L 125.98886 63.84027 L 133.82091 62.65416 L 128.13579 57.56233 M 134.24325 64.25165 L 126.41120 65.43776 L 131.51449 70.34222 L 134.24325 64.25165 M 133.89903 73.10256 L 138.73686 78.97093 L 143.37849 75.56159 L 133.89903 73.10256 M 132.27334 74.07055 L 130.37294 83.30544 L 137.11117 79.93891 L 132.27334 74.07055 M 130.61001 73.60431 L 123.80453 76.20900 L 128.70961 82.83920 L 130.61001 73.60431 M 138.95964 82.17104 L 136.67335 89.87257 L 142.60917 87.59261 L 138.95964 82.17104 M 142.88910 89.56895 L 136.95329 91.84891 L 141.19912 97.98172 L 142.88910 89.56895 M 155.35226 87.01760 L 146.15208 88.74554 L 152.16697 95.40232 L 155.35226 87.01760 M 151.51487 78.98533 L 146.03666 76.97463 L 145.04456 85.80554 L 151.51487 78.98533 M 161.05161 78.38087 L 154.54176 78.94512 L 157.27163 84.03739 L 161.05161 78.38087 M 162.85055 78.92614 L 159.07057 84.58267 L 168.93330 83.30733 L 162.85055 78.92614 M 169.03229 84.71970 L 159.16957 85.99503 L 163.64250 90.22508 L 169.03229 84.71970 M 171.11900 85.13255 L 165.72921 90.63793 L 175.86328 89.29785 L 171.11900 85.13255 M 163.54783 105.04241 L 154.25773 108.54742 L 159.71670 112.70407 L 163.54783 105.04241 M 153.81426 99.23104 L 153.51992 106.86329 L 162.81003 103.35829 L 153.81426 99.23104 M 143.60243 102.89984 L 150.45919 116.90482 L 151.01296 108.77611 L 143.60243 102.89984 M 146.15691 67.28172 L 137.89639 64.78952 L 144.64709 73.33912 L 146.15691 67.28172 M 110.89400 26.24596 L 110.99538 37.19319 L 116.35425 32.77832 L 110.89400 26.24596 M 205.87623 37.68554 L 172.72908 45.27877 L 182.77640 63.54254 L 205.87623 37.68554 M 208.38330 40.64814 L 185.28347 66.50514 L 192.78566 68.97953 L 208.38330 40.64814 M 250.79331 27.23010 L 181.96893 24.41695 L 214.46032 31.33285 L 250.79331 27.23010 M 257.23534 39.36944 L 260.20162 29.09916 L 223.86862 33.20191 L 257.23534 39.36944 M 258.13225 55.04567 L 260.16671 45.29828 L 252.32033 60.61496 L 258.13225 55.04567 M 263.48431 61.03712 L 258.54695 57.01302 L 252.73503 62.58231 L 263.48431 61.03712 M 263.53876 62.51871 L 252.78948 64.06390 L 258.98251 68.86574 L 263.53876 62.51871 M 267.75132 70.98270 L 265.40899 63.38356 L 260.85274 69.73059 L 267.75132 70.98270 M 267.52246 72.83336 L 260.62387 71.58126 L 263.57809 78.18886 L 267.52246 72.83336 M 276.43256 65.38901 L 267.35646 62.84086 L 269.69880 70.44000 L 276.43256 65.38901 M 277.20257 63.62806 L 275.85891 56.35240 L 268.12648 61.07991 L 277.20257 63.62806 M 275.07148 54.55103 L 270.90317 49.21710 L 267.33905 59.27855 L 275.07148 54.55103 M 281.74103 46.94425 L 272.70342 47.67532 L 276.87173 53.00924 L 281.74103 46.94425 M 281.42483 39.21447 L 273.27256 45.95097 L 282.31017 45.21991 L 281.42483 39.21447 M 279.98357 38.16755 L 270.78008 36.84461 L 271.83129 44.90406 L 279.98357 38.16755 M 288.16453 26.04205 L 291.28909 32.34564 L 296.66855 26.22366 L 288.16453 26.04205 M 298.42059 25.24854 L 305.30539 24.54466 L 289.91656 25.06693 L 298.42059 25.24854 M 306.84229 25.83443 L 299.95750 26.53831 L 302.21181 35.38511 L 306.84229 25.83443 M 311.73549 33.44525 L 303.96621 37.85224 L 310.85384 41.13168 L 311.73549 33.44525 M 319.19796 26.04635 L 314.68493 31.69999 L 322.16703 37.23024 L 319.19796 26.04635 M 341.61801 26.92237 L 361.34430 24.62768 L 326.54356 24.11521 L 341.61801 26.92237 M 360.67895 35.55415 L 365.61122 26.05755 L 345.88493 28.35223 L 360.67895 35.55415 M 357.99066 41.91388 L 335.78217 48.40216 L 351.51945 63.24517 L 357.99066 41.91388 M 370.99522 38.39442 L 368.75001 27.31282 L 363.81773 36.80943 L 370.99522 38.39442 M 381.00734 36.30612 L 381.62739 30.63387 L 374.33600 38.70751 L 381.00734 36.30612 M 382.55062 27.98373 L 390.63836 26.18661 L 373.01401 24.97577 L 382.55062 27.98373 M 393.25912 25.74306 L 403.51668 24.43530 L 375.63477 24.53221 L 393.25912 25.74306 M 401.64048 24.15391 L 413.05029 24.00435 L 338.95783 23.73835 L 401.64048 24.15391 M 410.11032 31.75775 L 408.68015 26.27164 L 405.25479 35.04452 L 410.11032 31.75775 M 415.53321 26.60563 L 409.96495 25.21678 L 411.39512 30.70289 L 415.53321 26.60563 M 424.83676 32.28326 L 424.48118 25.24607 L 418.63964 26.78448 L 424.83676 32.28326 M 414.91472 40.13710 L 410.88964 33.49093 L 406.03411 36.77770 L 414.91472 40.13710 M 404.41554 52.93167 L 398.11378 53.86878 L 402.14430 58.21900 L 404.41554 52.93167 M 398.75281 45.00271 L 397.68985 52.21674 L 403.99160 51.27963 L 398.75281 45.00271 M 390.39574 48.31736 L 395.99036 51.84646 L 397.05333 44.63243 L 390.39574 48.31736 M 387.20719 48.47709 L 381.73988 45.78018 L 382.60694 52.13628 L 387.20719 48.47709 M 394.38210 52.89562 L 388.78747 49.36652 L 384.18722 53.02571 L 394.38210 52.89562 M 390.73953 61.78335 L 383.22511 55.29107 L 383.77104 60.86707 L 390.73953 61.78335 M 389.11004 70.93248 L 383.92544 64.35305 L 386.24423 77.51580 L 389.11004 70.93248 M 398.11792 68.90404 L 393.24921 64.30740 L 391.46532 69.97054 L 398.11792 68.90404 M 398.58996 70.58847 L 391.93736 71.65497 L 397.02555 77.78286 L 398.58996 70.58847 M 406.33508 74.69757 L 400.38968 70.96880 L 398.82527 78.16318 L 406.33508 74.69757 M 395.66578 78.87569 L 390.57759 72.74780 L 387.71177 79.33113 L 395.66578 78.87569 M 394.58013 80.64252 L 386.62612 81.09796 L 381.89238 86.88245 L 394.58013 80.64252 M 397.35158 84.52002 L 384.66384 90.75995 L 408.79772 112.11798 L 397.35158 84.52002 M 377.42381 85.75514 L 382.15754 79.97065 L 358.83151 71.62403 L 377.42381 85.75514 M 367.83702 91.67296 L 355.47432 73.81812 L 361.52966 93.79968 L 367.83702 91.67296 M 370.23323 104.55930 L 363.64309 106.47126 L 364.95329 112.40317 L 370.23323 104.55930 M 361.47375 104.31626 L 360.75918 98.05898 L 354.90334 99.50849 L 361.47375 104.31626 M 363.12634 112.93864 L 361.81613 107.00673 L 355.61759 108.84302 L 363.12634 112.93864 M 360.04460 120.26355 L 362.90490 114.59574 L 355.39615 110.50013 L 360.04460 120.26355 M 358.28063 120.29918 L 353.63218 110.53576 L 348.79313 114.88077 L 358.28063 120.29918 M 358.13326 121.88571 L 348.64575 116.46729 L 352.45320 123.22797 L 358.13326 121.88571 M 350.72315 123.53557 L 346.91570 116.77489 L 344.29285 124.34645 L 350.72315 123.53557 M 341.86394 123.73335 L 344.48679 116.16179 L 331.29185 118.63078 L 341.86394 123.73335 M 336.10266 131.11722 L 340.81592 125.60278 L 330.24384 120.50021 L 336.10266 131.11722 M 342.31014 137.22537 L 342.32421 127.69342 L 337.61095 133.20786 L 342.31014 137.22537 M 356.47300 141.96644 L 359.12819 134.64810 L 353.06058 135.65781 L 356.47300 141.96644 M 358.68864 132.69534 L 352.95660 126.34435 L 352.62103 133.70505 L 358.68864 132.69534 M 359.54801 131.45206 L 359.49604 123.75880 L 353.81598 125.10107 L 359.54801 131.45206 M 361.35965 132.07692 L 368.30910 130.10002 L 361.30768 124.38367 L 361.35965 132.07692 M 369.18188 129.04388 L 368.34190 123.62781 L 362.18046 123.32753 L 369.18188 129.04388 M 367.75031 122.00151 L 364.44917 116.03342 L 361.58887 121.70122 L 367.75031 122.00151 M 368.91320 120.07127 L 370.89200 106.25930 L 365.61206 114.10317 L 368.91320 120.07127 M 366.46875 142.20238 L 360.80421 135.46617 L 358.14902 142.78451 L 366.46875 142.20238 M 376.04584 141.99042 L 370.85944 133.14289 L 369.57453 141.85600 L 376.04584 141.99042 M 367.38107 171.31698 L 347.06994 173.16450 L 349.62569 181.18293 L 367.38107 171.31698 M 361.21635 193.42737 L 369.14937 173.84984 L 351.39399 183.71579 L 361.21635 193.42737 M 370.00112 195.78856 L 371.47526 175.35894 L 363.54225 194.93647 L 370.00112 195.78856 M 360.62327 208.33657 L 368.64462 199.91077 L 362.18575 199.05867 L 360.62327 208.33657 M 348.15661 193.69729 L 346.49390 185.60200 L 338.10833 190.55584 L 348.15661 193.69729 M 344.69573 184.09996 L 333.77122 181.68093 L 336.31015 189.05380 L 344.69573 184.09996 M 345.52856 182.24678 L 342.97281 174.22835 L 334.60405 179.82775 L 345.52856 182.24678 M 322.60343 186.43358 L 329.40395 180.92617 L 319.09701 179.92735 L 322.60343 186.43358 M 320.08232 186.73957 L 316.57591 180.23334 L 309.23513 183.37406 L 320.08232 186.73957 M 315.30164 178.74821 L 309.88814 174.85855 L 307.96085 181.88894 L 315.30164 178.74821 M 316.30194 177.08943 L 315.96326 168.61868 L 310.88844 173.19977 L 316.30194 177.08943 M 305.97544 182.03889 L 307.90273 175.00850 L 299.41835 179.94784 L 305.97544 182.03889 M 296.69068 175.68843 L 305.17507 170.74909 L 284.15416 147.96356 L 296.69068 175.68843 M 295.73468 187.69767 L 304.45444 183.62504 L 297.89734 181.53399 L 295.73468 187.69767 M 297.57869 197.79759 L 305.43995 195.09736 L 295.80878 190.77944 L 297.57869 197.79759 M 297.17331 208.21033 L 295.71657 200.39306 L 287.31636 201.02573 L 297.17331 208.21033 M 299.78328 208.63535 L 308.19613 204.42589 L 298.32655 200.81808 L 299.78328 208.63535 M 316.03633 211.11082 L 321.48865 207.53121 L 312.57559 205.44685 L 316.03633 211.11082 M 315.02523 221.30987 L 314.69539 214.11647 L 306.97054 218.71906 L 315.02523 221.30987 M 308.99743 225.37293 L 314.31299 222.71693 L 306.25830 220.12612 L 308.99743 225.37293 M 309.27262 233.70310 L 308.05337 227.87657 L 302.80216 231.67271 L 309.27262 233.70310 M 319.08079 229.27258 L 323.11422 221.19536 L 317.30624 223.26903 L 319.08079 229.27258 M 318.12752 240.11444 L 317.94541 232.69778 L 312.07455 235.17676 L 318.12752 240.11444 M 319.92044 244.43587 L 319.37275 250.27576 L 326.78348 256.49165 L 319.92044 244.43587 M 327.09674 260.03985 L 318.09421 259.51737 L 324.01835 267.12806 L 327.09674 260.03985 M 332.12124 257.30666 L 343.45547 261.05963 L 343.87753 240.98707 L 332.12124 257.30666 M 322.23676 267.77025 L 316.31262 260.15955 L 312.84403 265.17735 L 322.23676 267.77025 M 332.99411 278.00152 L 325.47755 271.10103 L 325.32964 277.31237 L 332.99411 278.00152 M 338.08367 277.23594 L 351.63346 274.52299 L 344.97974 267.00020 L 338.08367 277.23594 M 333.63247 288.34252 L 334.01348 280.15670 L 326.34901 279.46755 L 333.63247 288.34252 M 332.47771 292.08980 L 386.76564 292.01805 L 369.47990 291.23828 L 332.47771 292.08980 M 337.81304 292.21398 L 412.16258 292.23171 L 392.10097 292.14223 L 337.81304 292.21398 M 343.37577 288.47353 L 347.94052 284.29743 L 337.49512 280.70791 L 343.37577 288.47353 M 349.03611 282.80049 L 352.14051 276.49803 L 338.59072 279.21097 L 349.03611 282.80049 M 358.07168 288.70228 L 362.23829 283.83632 L 352.32264 284.67045 L 358.07168 288.70228 M 358.22422 290.09719 L 347.91043 290.24145 L 368.02338 290.81948 L 358.22422 290.09719 M 361.86048 282.35999 L 355.04923 276.89166 L 351.94483 283.19412 L 361.86048 282.35999 M 357.02958 274.09766 L 365.45539 274.07862 L 366.17309 266.32953 L 357.02958 274.09766 M 356.20821 272.42738 L 365.35172 264.65925 L 358.88447 260.71637 L 356.20821 272.42738 M 367.93464 274.22419 L 376.86358 275.26226 L 368.65234 266.47510 L 367.93464 274.22419 M 373.00041 281.24859 L 377.40709 277.10894 L 368.47815 276.07088 L 373.00041 281.24859 M 374.73206 282.43872 L 382.33134 285.59188 L 379.13874 278.29907 L 374.73206 282.43872 M 373.52623 289.77057 L 381.62977 287.02582 L 374.03049 283.87266 L 373.52623 289.77057 M 375.92358 290.72452 L 393.20931 291.50430 L 384.02713 287.97977 L 375.92358 290.72452 M 382.41184 271.05035 L 412.32074 240.52896 L 374.20060 262.26320 L 382.41184 271.05035 M 397.72749 284.66833 L 415.26160 243.32960 L 385.35270 273.85100 L 397.72749 284.66833 M 402.36126 286.22645 L 422.42287 286.31593 L 419.89537 244.88772 L 402.36126 286.22645 M 359.35792 254.28192 L 365.82517 258.22480 L 359.99580 220.95182 L 359.35792 254.28192 M 346.39116 230.43232 L 355.93696 212.98656 L 342.26239 210.38705 L 346.39116 230.43232 M 340.82166 233.73348 L 326.05365 222.50342 L 322.02022 230.58064 L 340.82166 233.73348 M 325.94210 217.24315 L 336.58135 208.42795 L 325.25660 208.54381 L 325.94210 217.24315 M 336.62910 206.22776 L 326.32416 199.64167 L 325.30436 206.34363 L 336.62910 206.22776 M 325.75895 196.09116 L 333.09299 191.24113 L 323.75354 189.37567 L 325.75895 196.09116 M 309.22807 193.41195 L 319.16384 188.38689 L 308.31665 185.02139 L 309.22807 193.41195 M 285.64082 197.78694 L 292.27112 190.13612 L 285.53889 189.31815 L 285.64082 197.78694 M 276.20896 197.20379 L 282.58745 189.40422 L 275.14000 191.49382 L 276.20896 197.20379 M 275.35312 189.92388 L 282.80057 187.83428 L 277.91394 184.64428 L 275.35312 189.92388 M 273.79388 189.42613 L 276.35470 184.14652 L 270.32663 183.85222 L 273.79388 189.42613 M 272.44746 190.02058 L 268.98021 184.44668 L 265.58332 188.90215 L 272.44746 190.02058 M 264.16429 188.00108 L 267.56117 183.54561 L 261.09518 182.81202 L 264.16429 188.00108 M 256.90009 189.91867 L 262.83165 188.79771 L 259.76254 183.60866 L 256.90009 189.91867 M 268.53762 178.07213 L 275.81068 148.48585 L 258.23685 173.06594 L 268.53762 178.07213 M 272.68648 146.03481 L 243.54398 158.46381 L 255.11264 170.61490 L 272.68648 146.03481 M 270.91142 141.06427 L 240.91219 130.85059 L 241.76892 153.49327 L 270.91142 141.06427 M 232.72557 126.14950 L 216.08096 121.83942 L 222.91982 130.40831 L 232.72557 126.14950 M 245.47332 95.55299 L 239.07631 91.64503 L 244.71790 101.39497 L 245.47332 95.55299 M 241.93335 79.80050 L 238.63771 88.10915 L 244.31050 85.32460 L 241.93335 79.80050 M 240.68514 79.25522 L 234.32475 80.96238 L 237.38949 87.56388 L 240.68514 79.25522 M 241.98640 76.64570 L 247.79961 66.68769 L 235.62601 78.35286 L 241.98640 76.64570 M 250.98676 78.11955 L 248.76776 72.74874 L 243.80072 77.29323 L 250.98676 78.11955 M 252.12157 80.58677 L 247.31268 85.28454 L 255.46906 86.96241 L 252.12157 80.58677 M 249.41781 65.79460 L 243.60460 75.75261 L 248.57165 71.20812 L 249.41781 65.79460 M 279.15606 76.94752 L 277.90751 67.15234 L 271.17375 72.20333 L 279.15606 76.94752 M 278.58691 78.67481 L 270.60459 73.93062 L 273.35429 80.97064 L 278.58691 78.67481 M 287.52970 81.17814 L 281.42518 80.42227 L 281.97362 89.45023 L 287.52970 81.17814 M 288.64395 82.82419 L 283.08786 91.09627 L 290.33910 93.59061 L 288.64395 82.82419 M 299.49889 86.06788 L 290.69532 82.19564 L 292.39048 92.96206 L 299.49889 86.06788 M 314.07488 94.42135 L 303.64039 88.35034 L 306.28439 101.27854 L 314.07488 94.42135 M 322.98088 97.04134 L 317.23006 95.32549 L 315.34045 100.72476 L 322.98088 97.04134 M 331.28313 99.99738 L 329.53210 91.82353 L 326.11919 96.57141 L 331.28313 99.99738 M 338.43496 106.45415 L 338.05968 97.10985 L 333.59906 101.68283 L 338.43496 106.45415 M 337.36029 108.76744 L 332.52438 103.99612 L 329.46229 115.61616 L 337.36029 108.76744 M 346.68106 113.48103 L 351.52011 109.13602 L 341.38412 109.10131 L 346.68106 113.48103 M 325.79961 116.08820 L 321.88776 106.71207 L 315.03279 110.29981 L 325.79961 116.08820 M 320.46210 139.34788 L 287.75994 142.84836 L 313.85567 161.05279 L 320.46210 139.34788 M 287.80432 100.34450 L 269.69431 102.67705 L 279.22448 132.02846 L 287.80432 100.34450 M 280.74288 92.96755 L 269.88411 97.79443 L 287.99412 95.46189 L 280.74288 92.96755 M 279.54257 91.01402 L 273.76151 84.28189 L 273.31394 91.39263 L 279.54257 91.01402 M 272.58855 93.04392 L 267.95842 97.49219 L 278.81718 92.66531 L 272.58855 93.04392 M 269.94307 90.77111 L 263.69658 81.97585 L 259.26966 87.72637 L 269.94307 90.77111 M 292.24569 68.17225 L 286.30119 71.48498 L 289.21282 77.82089 L 292.24569 68.17225 M 291.19525 66.66496 L 280.80931 65.76254 L 285.25075 69.97769 L 291.19525 66.66496 M 309.51050 68.95476 L 296.24730 68.34000 L 302.01800 81.86088 L 309.51050 68.95476 M 309.87881 65.36605 L 304.96448 53.15122 L 296.61561 64.75129 L 309.87881 65.36605 M 319.73535 56.87158 L 314.07060 67.15381 L 319.57084 77.12084 L 319.73535 56.87158 M 318.24756 53.70274 L 307.66847 51.77015 L 312.58280 63.98498 L 318.24756 53.70274 M 328.71189 46.97969 L 324.02099 41.66623 L 321.85663 50.69061 L 328.71189 46.97969 M 331.63020 49.85918 L 324.77494 53.57010 L 347.36749 64.70219 L 331.63020 49.85918 M 323.60759 77.24225 L 346.36466 68.12508 L 323.77211 56.99298 L 323.60759 77.24225 M 324.52773 80.98901 L 331.13324 86.96710 L 347.28480 71.87184 L 324.52773 80.98901 M 351.45169 74.14538 L 341.51178 92.84150 L 351.65117 95.57645 L 351.45169 74.14538 M 390.08191 39.84414 L 382.67425 44.24367 L 388.14156 46.94057 L 390.08191 39.84414 M 389.59681 37.10585 L 383.53499 30.43366 L 382.91494 36.10591 L 389.59681 37.10585 M 368.14547 24.28603 L 396.02738 24.18912 L 333.34473 23.77356 L 368.14547 24.28603 M 417.70255 68.49807 L 415.87022 61.65761 L 409.59804 65.62777 L 417.70255 68.49807 M 419.49154 68.24886 L 423.91001 63.63413 L 417.65922 61.40841 L 419.49154 68.24886 M 418.71540 70.96722 L 411.11001 74.36211 L 423.47395 75.14563 L 418.71540 70.96722 M 411.68309 110.73147 L 407.74676 79.66790 L 400.23695 83.13351 L 411.68309 110.73147 M 407.87740 157.13733 L 409.96537 125.97906 L 384.64682 142.89236 L 407.87740 157.13733 M 410.15957 165.25734 L 404.51849 170.28701 L 410.63328 171.66450 L 410.15957 165.25734 M 412.34103 171.93900 L 418.18048 172.48301 L 411.86732 165.53184 L 412.34103 171.93900 M 409.46974 173.14150 L 403.35495 171.76400 L 400.85121 177.07330 L 409.46974 173.14150 M 401.13216 167.33670 L 406.77325 162.30703 L 383.54267 148.06206 L 401.13216 167.33670 M 396.97568 176.76000 L 399.47941 171.45071 L 378.46545 170.63513 L 396.97568 176.76000 M 420.85720 159.05870 L 414.49167 127.99985 L 412.40369 159.15812 L 420.85720 159.05870 M 414.62889 224.17332 L 398.68509 185.90403 L 378.70073 200.20878 L 414.62889 224.17332 M 410.62807 227.42054 L 374.69992 203.45600 L 366.67856 211.88180 L 410.62807 227.42054 M 422.49374 232.02395 L 425.02125 273.45215 L 423.14827 183.31627 L 422.49374 232.02395 M 326.24051 291.95586 L 363.24271 291.10433 L 336.86810 290.94652 L 326.24051 291.95586 M 321.43222 290.66546 L 332.05981 289.65612 L 324.77635 280.78115 L 321.43222 290.66546 M 319.40809 289.29433 L 322.75222 279.41002 L 315.86676 278.68707 L 319.40809 289.29433 M 280.39684 260.34122 L 288.01715 252.48556 L 280.49248 253.06363 L 280.39684 260.34122 M 271.57951 256.44221 L 271.85024 249.11740 L 265.14981 256.13789 L 271.57951 256.44221 M 269.90559 266.08397 L 271.33643 258.56303 L 264.90672 258.25871 L 269.90559 266.08397 M 268.71874 267.01920 L 263.71987 259.19394 L 261.84162 266.04491 L 268.71874 267.01920 M 271.50764 266.62455 L 277.72312 262.58333 L 272.93847 259.10360 L 271.50764 266.62455 M 237.70911 251.08573 L 243.95318 246.27390 L 236.55982 245.21656 L 237.70911 251.08573 M 273.71525 218.34140 L 263.72651 201.36188 L 256.10083 206.92561 L 273.71525 218.34140 M 280.47662 218.96261 L 295.26832 210.53153 L 285.41137 203.34692 L 280.47662 218.96261 M 183.96687 201.28863 L 210.20311 216.64917 L 213.77646 199.10214 L 183.96687 201.28863 M 181.40875 206.27707 L 197.02871 232.56502 L 203.92784 228.08224 L 181.40875 206.27707 M 179.53643 207.12611 L 188.94923 234.87457 L 195.15638 233.41406 L 179.53643 207.12611 M 172.75610 236.34871 L 179.23813 236.07048 L 175.96850 207.58506 L 172.75610 236.34871 M 164.39019 246.75673 L 169.72158 254.43049 L 175.14731 249.63507 L 164.39019 246.75673 M 155.35460 251.18424 L 160.60874 245.11237 L 155.48129 238.08209 L 155.35460 251.18424 M 157.15982 236.73951 L 162.28727 243.76979 L 168.78282 240.44357 L 157.15982 236.73951 M 158.54667 232.15524 L 170.16967 235.85931 L 173.38206 207.09566 L 158.54667 232.15524 M 142.28748 243.74766 L 153.06444 251.01365 L 153.19113 237.91150 L 142.28748 243.74766 M 125.04449 249.36509 L 125.41710 257.61164 L 135.49477 258.98798 L 125.04449 249.36509 M 114.84179 250.97270 L 121.58673 246.95007 L 114.95030 243.89177 L 114.84179 250.97270 M 114.56327 254.28750 L 112.34952 262.16362 L 121.68083 258.51143 L 114.56327 254.28750 M 112.78635 264.04970 L 118.05790 269.37619 L 122.11766 260.39751 L 112.78635 264.04970 M 111.32859 265.58403 L 110.45554 272.67215 L 116.60014 270.91052 L 111.32859 265.58403 M 103.42442 258.24283 L 110.06747 262.13004 L 112.28122 254.25393 L 103.42442 258.24283 M 102.67672 256.58395 L 111.53352 252.59504 L 104.08589 248.85896 L 102.67672 256.58395 M 95.87324 251.77152 L 100.71918 256.48101 L 102.12835 248.75602 L 95.87324 251.77152 M 94.70966 253.12330 L 92.81978 259.57025 L 99.55561 257.83279 L 94.70966 253.12330 M 95.40129 249.73223 L 101.65641 246.71672 L 96.94364 240.16662 L 95.40129 249.73223 M 98.47865 238.42209 L 103.19142 244.97219 L 107.68137 235.77598 L 98.47865 238.42209 M 98.32341 236.81718 L 107.52613 234.17107 L 101.94947 232.13289 L 98.32341 236.81718 M 103.30008 230.30518 L 108.87673 232.34336 L 109.12824 222.19554 L 103.30008 230.30518 M 109.43407 236.23387 L 104.94412 245.43008 L 112.50026 242.08523 L 109.43407 236.23387 M 111.04597 235.15649 L 114.11216 241.00785 L 117.83929 236.81104 L 111.04597 235.15649 M 120.73849 236.75918 L 123.64779 244.01430 L 127.60311 231.68331 L 120.73849 236.75918 M 120.25841 224.00350 L 120.31482 234.25783 L 127.17943 229.18196 L 120.25841 224.00350 M 121.08308 222.49117 L 128.00411 227.66963 L 126.91219 222.15919 L 121.08308 222.49117 M 128.99309 222.31098 L 130.08500 227.82143 L 137.73027 223.70550 L 128.99309 222.31098 M 124.26523 206.87418 L 124.33020 213.36134 L 130.78455 211.63279 L 124.26523 206.87418 M 130.64904 202.73269 L 125.05508 205.54560 L 131.57441 210.30420 L 130.64904 202.73269 M 135.91261 202.14658 L 136.83798 209.71810 L 167.16365 200.85678 L 135.91261 202.14658 M 115.70158 212.84720 L 119.18026 220.04428 L 122.08932 214.95962 L 115.70158 212.84720 M 114.35952 213.35243 L 111.35278 219.00147 L 117.83820 220.54951 L 114.35952 213.35243 M 110.88732 221.25816 L 110.63581 231.40599 L 117.37273 222.80620 L 110.88732 221.25816 M 104.36489 214.47605 L 109.66862 218.24229 L 112.67535 212.59325 L 104.36489 214.47605 M 105.69767 213.04408 L 114.00814 211.16128 L 120.33090 206.78654 L 105.69767 213.04408 M 92.59134 216.01919 L 99.25028 221.82483 L 100.97574 215.25477 L 92.59134 216.01919 M 91.17651 217.23588 L 89.65715 224.98826 L 97.83546 223.04152 L 91.17651 217.23588 M 83.33181 217.81789 L 87.84419 224.33531 L 89.36355 216.58292 L 83.33181 217.81789 M 82.27725 219.22874 L 80.92714 227.86968 L 86.78964 225.74615 L 82.27725 219.22874 M 90.78000 226.57562 L 100.15934 229.93469 L 98.95831 224.62887 L 90.78000 226.57562 M 90.43356 228.00277 L 96.18683 236.04615 L 99.81290 231.36185 L 90.43356 228.00277 M 87.27871 236.09487 L 94.62006 236.63777 L 88.86679 228.59440 L 87.27871 236.09487 M 79.41512 231.46447 L 71.76919 240.48657 L 83.68953 236.84141 L 79.41512 231.46447 M 71.06987 243.17082 L 73.82058 252.93851 L 82.99022 239.52567 L 71.06987 243.17082 M 76.35191 253.86184 L 91.32056 250.55750 L 85.52155 240.44900 L 76.35191 253.86184 M 93.05292 261.68857 L 96.57476 270.06984 L 99.78875 259.95110 L 93.05292 261.68857 M 86.53813 271.30096 L 94.91843 271.48857 L 91.39659 263.10730 L 86.53813 271.30096 M 99.31032 271.94485 L 108.29432 272.80144 L 109.16736 265.71333 L 99.31032 271.94485 M 104.86722 279.34227 L 110.86669 281.55295 L 109.10056 275.38333 L 104.86722 279.34227 M 102.95462 287.97427 L 110.09844 283.12682 L 104.09898 280.91614 L 102.95462 287.97427 M 101.30707 290.16691 L 92.41345 291.80109 L 106.95609 291.97561 L 101.30707 290.16691 M 96.24794 282.21694 L 101.22330 287.86054 L 102.36766 280.80240 L 96.24794 282.21694 M 95.73275 280.52070 L 101.85248 279.10616 L 97.10182 274.29064 L 95.73275 280.52070 M 83.75891 285.98035 L 78.18868 289.81469 L 87.26727 291.09581 L 83.75891 285.98035 M 75.09445 278.88189 L 82.98551 282.90182 L 83.40090 274.32183 L 75.09445 278.88189 M 59.38298 272.59074 L 71.33093 277.27879 L 73.13173 270.20496 L 59.38298 272.59074 M 57.88722 270.28751 L 71.63596 267.90173 L 59.36480 258.85294 L 57.88722 270.28751 M 57.83323 288.24063 L 50.87280 290.31055 L 64.60431 290.32187 L 57.83323 288.24063 M 49.69068 288.47466 L 56.65110 286.40473 L 55.14733 275.63471 L 49.69068 288.47466 M 49.96271 290.78641 L 35.47999 291.07531 L 78.76673 291.76989 L 49.96271 290.78641 M 38.38388 276.02383 L 37.66554 287.43519 L 45.71856 288.63239 L 38.38388 276.02383 M 29.92895 280.51716 L 35.69184 286.42079 L 36.41018 275.00943 L 29.92895 280.51716 M 23.78184 257.93009 L 23.66249 268.69289 L 30.25807 262.03147 L 23.78184 257.93009 M 27.61612 250.44593 L 24.27604 255.64922 L 30.75227 259.75060 L 27.61612 250.44593 M 28.98643 249.52761 L 32.12259 258.83228 L 35.23856 248.30269 L 28.98643 249.52761 M 27.46289 248.09485 L 29.52644 240.94194 L 24.12281 253.29814 L 27.46289 248.09485 M 38.10414 247.31548 L 41.90702 253.79965 L 44.99227 245.67535 L 38.10414 247.31548 M 37.85789 245.61847 L 44.74602 243.97834 L 39.93702 240.22359 L 37.85789 245.61847 M 41.68440 239.09854 L 46.49340 242.85328 L 51.83693 236.61804 L 41.68440 239.09854 M 48.90223 245.66822 L 56.88630 253.82065 L 58.31445 247.23039 L 48.90223 245.66822 M 56.12423 237.17917 L 60.19292 244.97658 L 66.57058 242.02544 L 56.12423 237.17917 M 63.99447 223.31194 L 56.59942 234.47109 L 67.04577 239.31736 L 63.99447 223.31194 M 67.86423 220.19210 L 78.56146 227.17542 L 79.91158 218.53448 L 67.86423 220.19210 M 38.94997 206.54864 L 63.35878 211.50847 L 78.97403 161.00854 L 38.94997 206.54864 M 35.66278 215.35708 L 52.67655 231.47606 L 60.07159 220.31691 L 35.66278 215.35708 M 33.15599 217.30560 L 40.01723 235.90508 L 50.16975 233.42458 L 33.15599 217.30560 M 23.71977 237.37662 L 28.52986 206.95404 L 24.83209 138.78903 L 23.71977 237.37662 M 84.18205 161.48028 L 68.56680 211.98021 L 80.61415 210.32259 L 84.18205 161.48028 M 88.82423 160.78143 L 91.28808 208.38877 L 99.67248 207.62434 L 88.82423 160.78143 M 98.97295 152.27767 L 130.04838 190.05013 L 152.25062 149.42916 L 98.97295 152.27767 M 100.97731 144.15943 L 154.25499 141.31091 L 146.08329 125.10420 L 100.97731 144.15943 M 31.23697 127.93721 L 34.93474 196.10223 L 74.95880 150.56213 L 31.23697 127.93721 M 23.87932 122.73254 L 23.13846 226.84893 L 24.25078 128.26134 L 23.87932 122.73254 M 186.38639 123.53409 L 175.34446 126.65184 L 184.08985 131.05406 L 186.38639 123.53409 M 190.94837 116.15650 L 189.35764 121.68730 L 195.22718 124.92829 L 190.94837 116.15650 M 189.28783 115.26429 L 181.94288 117.79060 L 187.69710 120.79509 L 189.28783 115.26429 M 205.03354 103.54857 L 199.43148 106.27857 L 203.65874 112.94570 L 205.03354 103.54857 M 206.50343 104.97692 L 205.12863 114.37405 L 211.19059 117.70532 L 206.50343 104.97692 M 217.08014 86.70835 L 209.07129 100.20503 L 222.34982 102.42405 L 217.08014 86.70835 M 264.99282 24.17277 L 188.28549 23.52195 L 257.10988 26.33509 L 264.99282 24.17277 M 299.83228 38.58579 L 292.19851 35.86097 L 293.18552 45.31796 L 299.83228 38.58579 M 302.95512 52.12113 L 293.80396 57.12532 L 294.60625 63.72120 L 302.95512 52.12113 M 160.94231 280.32154 L 177.04100 268.13338 L 169.54890 260.21529 L 160.94231 280.32154 M 158.35979 278.96154 L 166.96638 258.85529 L 156.38084 257.25339 L 158.35979 278.96154 M 157.50813 286.27463 L 137.47841 291.17644 L 178.20382 290.75010 L 157.50813 286.27463 M 135.34540 269.69136 L 152.99329 280.89669 L 139.70334 263.83368 L 135.34540 269.69136 M 124.68648 275.29270 L 130.03987 269.94115 L 120.26038 271.68581 L 124.68648 275.29270 M 114.91629 282.20007 L 126.69335 282.67399 L 123.72085 277.87571 L 114.91629 282.20007 M 113.85935 280.99933 L 122.66391 276.67498 L 118.23782 273.06809 L 113.85935 280.99933 M 114.27820 283.71644 L 118.61618 290.00666 L 126.05526 284.19035 L 114.27820 283.71644" fill="none" stroke="black" stroke-width="0.01cm" />
   </g>
</svg>