<?xml version="1.0" standalone="no"?>
  <!DOCTYPE svg PUBLIC "-//W3C//DTD SVG 1.1//EN" 
    "http://www.w3.org/Graphics/SVG/1.1/DTD/svg11.dtd">
  <svg width="12.7cm" height="8.89cm"
       xmlns="http://www.w3.org/2000/svg" version="1.1" viewBox="0 0 449.99999 314.99999">
   <g>
     <path d="M 237.47821 148.63401 L 238.82609 139.07066 L 234.12245 142.83115 L 237.47821 148.63401 M 239.81593 151.21939 L 247.37884 156.14632 L 246.60919 149.02392 L 239.81593 151.21939 M 246.85747 145.67177 L 248.01719 138.89250 L 241.41209 138.30390 L 246.85747 145.67177 M 255.90853 142.46917 L 249.82925 139.41316 L 248.66952 146.19243 L 255.90853 142.46917 M 256.91258 140.80204 L 256.70198 132.85543 L 250.83330 137.74603 L 256.91258 140.80204 M 267.83951 139.98914 L 266.44458 130.12201 L 259.65067 131.91799 L 267.83951 139.98914 M 265.95942 126.66395 L 265.58065 117.90977 L 257.54307 122.87480 L 265.95942 126.66395 M 262.80600 114.75185 L 243.76222 101.40061 L 254.76842 119.71688 L 262.80600 114.75185 M 264.30289 113.09477 L 266.74356 106.46028 L 245.25911 99.74353 L 264.30289 113.09477 M 266.97434 103.62122 L 266.14915 90.38232 L 245.48989 96.90447 L 266.97434 103.62122 M 275.45930 113.13882 L 270.51858 108.13469 L 268.07791 114.76918 L 275.45930 113.13882 M 285.93354 108.54438 L 280.84276 103.85451 L 278.59039 111.97159 L 285.93354 108.54438 M 295.88075 96.57686 L 283.00405 101.93017 L 288.09484 106.62003 L 295.88075 96.57686 M 295.33601 94.89689 L 283.73696 93.18022 L 282.45932 100.25019 L 295.33601 94.89689 M 299.37783 97.91028 L 291.59192 107.95345 L 310.98074 112.59753 L 299.37783 97.91028 M 313.13754 106.53291 L 308.84638 59.43652 L 301.53464 91.84567 L 313.13754 106.53291 M 300.21320 131.50495 L 311.29584 117.75903 L 293.59249 120.81229 L 300.21320 131.50495 M 296.14146 135.14018 L 287.79723 132.28682 L 280.44541 139.00150 L 296.14146 135.14018 M 318.90923 148.59790 L 301.13628 139.60372 L 294.28685 162.86229 L 318.90923 148.59790 M 325.36454 170.36746 L 337.76895 166.82926 L 326.43260 152.45687 L 325.36454 170.36746 M 326.57588 181.85786 L 331.79166 179.50646 L 324.71632 175.04282 L 326.57588 181.85786 M 341.12678 182.89328 L 340.49014 171.19177 L 335.16108 179.19362 L 341.12678 182.89328 M 343.41198 183.92971 L 353.44267 187.48504 L 342.77534 172.22820 L 343.41198 183.92971 M 338.44592 199.40096 L 342.49568 194.82092 L 336.71575 192.04543 L 338.44592 199.40096 M 320.07610 196.68022 L 332.86172 190.70820 L 326.17920 185.50665 L 320.07610 196.68022 M 318.85580 194.96357 L 324.95890 183.79000 L 323.09933 176.97495 L 318.85580 194.96357 M 311.41593 196.33951 L 292.10514 174.70469 L 288.99423 198.44375 L 311.41593 196.33951 M 298.95614 209.16999 L 312.27230 200.64767 L 289.85061 202.75191 L 298.95614 209.16999 M 299.24829 219.57563 L 308.83463 216.69894 L 299.61836 212.82277 L 299.24829 219.57563 M 298.73267 228.28158 L 305.19164 229.80775 L 298.74511 222.74981 L 298.73267 228.28158 M 306.77436 229.48809 L 311.39439 225.72431 L 300.32782 222.43015 L 306.77436 229.48809 M 311.84293 224.30508 L 310.36270 218.13423 L 300.77636 221.01092 L 311.84293 224.30508 M 314.11556 224.01953 L 318.95739 218.72649 L 312.63533 217.84868 L 314.11556 224.01953 M 313.00957 215.19592 L 319.33163 216.07373 L 317.10947 202.79742 L 313.00957 215.19592 M 310.78980 214.51677 L 314.88970 202.11828 L 301.57354 210.64060 L 310.78980 214.51677 M 290.06693 214.64087 L 296.18046 210.91914 L 287.07493 204.50106 L 290.06693 214.64087 M 279.28076 211.12945 L 287.95447 214.66716 L 284.96247 204.52735 L 279.28076 211.12945 M 265.63614 214.79107 L 273.05843 220.37348 L 275.47827 212.90390 L 265.63614 214.79107 M 264.66109 212.58853 L 274.50323 210.70136 L 265.25810 202.75317 L 264.66109 212.58853 M 264.87730 198.51961 L 271.61905 196.98204 L 264.11814 188.20586 L 264.87730 198.51961 M 256.51030 200.07746 L 262.31340 199.28200 L 256.15173 191.97189 L 256.51030 200.07746 M 247.17190 196.84842 L 254.61761 199.77326 L 254.25905 191.66770 L 247.17190 196.84842 M 242.00500 206.14989 L 243.69896 198.36506 L 235.61515 198.94085 L 242.00500 206.14989 M 235.02287 197.16479 L 243.10668 196.58900 L 237.26682 191.94142 L 235.02287 197.16479 M 223.88909 198.75902 L 220.67286 204.59190 L 228.45025 204.97631 L 223.88909 198.75902 M 219.95251 202.85489 L 223.16873 197.02202 L 222.68742 191.08027 L 219.95251 202.85489 M 214.64822 201.92920 L 217.38313 190.15458 L 180.73440 189.61646 L 214.64822 201.92920 M 212.33842 209.70947 L 214.01763 204.37356 L 180.10381 192.06083 L 212.33842 209.70947 M 217.42570 214.32625 L 216.06431 221.85809 L 223.84271 216.12732 L 217.42570 214.32625 M 227.98537 213.87387 L 239.74903 208.78203 L 231.02497 207.12131 L 227.98537 213.87387 M 239.55275 231.59045 L 226.60859 218.28534 L 218.83019 224.01611 L 239.55275 231.59045 M 270.70283 230.85447 L 272.46150 222.61731 L 265.03921 217.03490 L 270.70283 230.85447 M 273.12508 233.37547 L 277.85027 236.55569 L 281.45068 225.78544 L 273.12508 233.37547 M 279.83679 236.58347 L 289.01721 233.59773 L 283.43720 225.81322 L 279.83679 236.58347 M 278.75992 246.33056 L 285.62840 246.38440 L 278.94056 240.28392 L 278.75992 246.33056 M 271.17086 248.29562 L 276.95273 246.56946 L 277.13337 240.52282 L 271.17086 248.29562 M 270.88011 250.04029 L 274.80737 254.48020 L 276.66198 248.31413 L 270.88011 250.04029 M 265.85546 249.36902 L 248.26389 238.81344 L 257.98361 257.93941 L 265.85546 249.36902 M 265.71236 258.74629 L 268.03652 251.86062 L 260.16466 260.43102 L 265.71236 258.74629 M 256.03408 259.67202 L 246.31436 240.54605 L 250.25921 263.22991 L 256.03408 259.67202 M 251.96155 266.88168 L 259.93305 269.76026 L 257.73641 263.32380 L 251.96155 266.88168 M 263.18283 269.31605 L 272.41209 265.01269 L 266.53388 261.19485 L 263.18283 269.31605 M 278.55792 270.83305 L 282.42369 265.02255 L 275.88597 265.60655 L 278.55792 270.83305 M 283.07922 262.44797 L 283.42897 256.49994 L 276.91471 256.76836 L 283.07922 262.44797 M 284.05943 253.93453 L 286.26825 248.09073 L 279.39978 248.03689 L 284.05943 253.93453 M 276.29901 255.07612 L 282.81327 254.80771 L 278.15362 248.91006 L 276.29901 255.07612 M 288.67271 245.64351 L 293.93399 243.38920 L 291.16529 236.55729 L 288.67271 245.64351 M 295.30282 242.48148 L 299.62334 238.38174 L 292.53411 235.64957 L 295.30282 242.48148 M 299.89605 236.86281 L 297.48446 230.33001 L 292.80682 234.13063 L 299.89605 236.86281 M 301.48699 236.53788 L 305.53438 231.53125 L 299.07541 230.00509 L 301.48699 236.53788 M 309.42399 240.56987 L 318.11286 236.34022 L 308.53154 232.68316 L 309.42399 240.56987 M 315.86884 244.81752 L 319.03002 237.85702 L 310.34116 242.08666 L 315.86884 244.81752 M 317.47711 245.59154 L 323.20732 248.27886 L 320.63829 238.63104 L 317.47711 245.59154 M 315.61129 252.61613 L 314.95524 247.16822 L 305.53751 248.48387 L 315.61129 252.61613 M 322.16863 263.89775 L 317.43998 256.31348 L 314.78229 265.03049 L 322.16863 263.89775 M 323.91017 263.05526 L 328.71456 258.29061 L 319.18151 255.47099 L 323.91017 263.05526 M 328.76391 256.81277 L 324.30503 251.23256 L 319.23087 253.99316 L 328.76391 256.81277 M 340.03138 250.63650 L 351.89412 231.95803 L 335.47068 246.76888 L 340.03138 250.63650 M 360.55817 254.26898 L 355.03005 232.89554 L 343.16731 251.57401 L 360.55817 254.26898 M 359.99867 264.62655 L 362.18253 258.90122 L 352.81793 261.53320 L 359.99867 264.62655 M 361.55890 265.67016 L 365.29974 269.88213 L 363.74275 259.94483 L 361.55890 265.67016 M 356.52989 273.73599 L 359.29209 266.48090 L 352.11135 263.38754 L 356.52989 273.73599 M 358.09012 274.77961 L 364.59316 271.73647 L 360.85232 267.52451 L 358.09012 274.77961 M 365.86348 281.29266 L 365.21956 273.45749 L 358.71651 276.50063 L 365.86348 281.29266 M 356.71063 288.80151 L 364.79986 283.21067 L 357.65290 278.41863 L 356.71063 288.80151 M 358.12620 290.41709 L 368.97747 291.34321 L 366.21544 284.82624 L 358.12620 290.41709 M 357.53523 292.21202 L 321.61749 291.42215 L 299.74401 291.64040 L 357.53523 292.21202 M 341.63118 291.44392 L 365.90444 292.17042 L 355.05317 291.24430 L 341.63118 291.44392 M 339.09710 290.78436 L 352.51908 290.58473 L 345.63175 286.89391 L 339.09710 290.78436 M 337.00016 290.00196 L 343.53481 286.11151 L 335.74358 284.32551 L 337.00016 290.00196 M 332.95235 282.43947 L 331.31082 277.01069 L 324.10304 282.12834 L 332.95235 282.43947 M 322.75866 290.48531 L 334.40314 290.54868 L 333.14656 284.87224 L 322.75866 290.48531 M 319.06987 289.64607 L 320.60847 283.72187 L 313.74212 284.14590 L 319.06987 289.64607 M 311.23060 282.27839 L 311.88078 276.51227 L 305.19387 280.04808 L 311.23060 282.27839 M 304.52859 278.66416 L 311.21550 275.12835 L 305.90836 271.20704 L 304.52859 278.66416 M 302.58241 277.88816 L 303.96219 270.43104 L 295.64610 268.92032 L 302.58241 277.88816 M 312.21262 273.74865 L 312.50557 267.62657 L 306.90549 269.82734 L 312.21262 273.74865 M 321.23901 274.62061 L 314.74472 275.78083 L 320.96088 281.12292 L 321.23901 274.62061 M 323.33344 271.97959 L 330.03702 267.24961 L 324.51843 265.88500 L 323.33344 271.97959 M 342.21108 272.86081 L 341.03357 265.99270 L 333.96955 267.35949 L 342.21108 272.86081 M 322.06811 236.54531 L 330.29315 244.99696 L 323.25966 230.10188 L 322.06811 236.54531 M 320.18435 234.27782 L 321.37590 227.83438 L 315.22306 226.85698 L 320.18435 234.27782 M 301.83585 246.68815 L 300.78606 239.76156 L 296.46554 243.86130 L 301.83585 246.68815 M 294.97283 255.09505 L 294.40994 245.70642 L 289.14865 247.96073 L 294.97283 255.09505 M 292.75327 266.09516 L 294.44593 259.11762 L 286.06317 263.77513 L 292.75327 266.09516 M 295.89927 266.74093 L 304.21535 268.25164 L 304.60773 260.45300 L 295.89927 266.74093 M 290.95817 275.11959 L 300.95691 278.47423 L 294.02060 269.50639 L 290.95817 275.11959 M 293.61060 283.36165 L 289.03108 277.07972 L 284.02312 282.26015 L 293.61060 283.36165 M 290.93465 290.81105 L 303.84408 290.38040 L 296.02443 285.78960 L 290.93465 290.81105 M 288.44792 289.99787 L 293.53770 284.97641 L 283.95023 283.87492 L 288.44792 289.99787 M 285.32043 291.88344 L 352.99810 292.26968 L 295.20687 291.69807 L 285.32043 291.88344 M 274.39086 289.53428 L 279.77961 283.22596 L 270.05925 279.59937 L 274.39086 289.53428 M 256.34464 289.91409 L 271.46149 290.37030 L 267.12987 280.43539 L 256.34464 289.91409 M 238.92193 291.99822 L 345.96248 292.30720 L 278.28481 291.92096 L 238.92193 291.99822 M 227.09414 291.87787 L 266.45702 291.80061 L 251.34017 291.34440 L 227.09414 291.87787 M 222.75445 290.01409 L 247.00048 289.48062 L 231.73944 276.89038 L 222.75445 290.01409 M 235.28503 275.11157 L 250.54607 287.70182 L 251.11921 275.78364 L 235.28503 275.11157 M 207.85644 277.07526 L 207.34115 265.15350 L 201.85255 261.65874 L 207.85644 277.07526 M 206.20686 276.42921 L 200.20296 261.01269 L 194.14449 259.98507 L 206.20686 276.42921 M 191.78808 291.73847 L 106.81949 291.79000 L 202.73974 291.92047 L 191.78808 291.73847 M 163.21673 277.25848 L 163.58108 251.23988 L 152.27061 253.06350 L 163.21673 277.25848 M 172.02626 250.80203 L 166.05053 250.95719 L 165.68619 276.97580 L 172.02626 250.80203 M 166.66563 246.35175 L 172.64135 246.19659 L 170.60694 240.13228 L 166.66563 246.35175 M 157.83346 243.79040 L 163.95682 245.78913 L 161.03560 237.47487 L 157.83346 243.79040 M 162.47341 236.87191 L 165.39463 245.18617 L 169.33595 238.96670 L 162.47341 236.87191 M 171.25579 237.69518 L 180.75340 235.01399 L 164.39326 235.60039 L 171.25579 237.69518 M 191.33485 244.09695 L 196.39421 248.73124 L 194.99163 239.20346 L 191.33485 244.09695 M 194.94634 236.41665 L 199.98149 233.14749 L 187.33993 234.59939 L 194.94634 236.41665 M 203.77569 233.54800 L 205.22263 239.79741 L 211.21149 234.82322 L 203.77569 233.54800 M 203.94092 231.89415 L 211.37672 233.16938 L 206.54447 226.56667 L 203.94092 231.89415 M 207.76966 225.69464 L 212.60191 232.29735 L 213.74244 224.91791 L 207.76966 225.69464 M 208.12708 223.56445 L 214.09986 222.78773 L 215.46125 215.25590 L 208.12708 223.56445 M 206.59140 241.17307 L 214.72586 244.55333 L 212.58026 236.19889 L 206.59140 241.17307 M 208.71832 253.09110 L 218.47303 254.41976 L 215.61694 247.90210 L 208.71832 253.09110 M 149.05306 240.80116 L 149.73473 248.25650 L 154.92184 244.43414 L 149.05306 240.80116 M 140.13325 244.04699 L 146.07924 239.41212 L 137.75895 236.14228 L 140.13325 244.04699 M 130.79134 241.44110 L 128.19650 247.45050 L 137.37210 245.52890 L 130.79134 241.44110 M 128.62297 249.11525 L 134.20307 254.75911 L 137.79857 247.19365 L 128.62297 249.11525 M 126.71832 250.69164 L 122.56135 259.80477 L 132.29841 256.33550 L 126.71832 250.69164 M 119.62628 242.27636 L 117.70462 251.51872 L 124.77066 248.20885 L 119.62628 242.27636 M 121.28176 233.10205 L 120.39778 239.22310 L 128.13700 239.14618 L 121.28176 233.10205 M 122.22658 232.05929 L 129.08182 238.10342 L 127.95630 230.88107 L 122.22658 232.05929 M 127.99584 228.20606 L 130.35057 222.51721 L 121.31367 223.57040 L 127.99584 228.20606 M 120.15875 224.55141 L 121.11119 230.36529 L 126.84091 229.18707 L 120.15875 224.55141 M 121.00149 222.06804 L 130.03839 221.01485 L 125.49838 216.18723 L 121.00149 222.06804 M 116.14161 215.60881 L 119.26439 221.39229 L 123.76128 215.51147 L 116.14161 215.60881 M 120.67274 206.99557 L 116.31766 213.80922 L 123.93732 213.71188 L 120.67274 206.99557 M 126.27745 204.29398 L 129.54203 211.01029 L 161.15530 192.19652 L 126.27745 204.29398 M 136.76393 218.78905 L 143.19253 223.07534 L 163.83719 195.14764 L 136.76393 218.78905 M 143.84864 229.60207 L 148.71757 237.67992 L 157.78848 234.99737 L 143.84864 229.60207 M 137.91281 234.32618 L 146.23311 237.59602 L 141.36418 229.51817 L 137.91281 234.32618 M 109.77989 248.46029 L 115.83078 251.55015 L 117.75243 242.30779 L 109.77989 248.46029 M 109.04397 250.57044 L 111.86506 259.18901 L 115.09486 253.66030 L 109.04397 250.57044 M 100.78087 253.96514 L 110.07581 259.22712 L 107.25472 250.60855 L 100.78087 253.96514 M 99.97887 251.82656 L 106.45272 248.46997 L 103.65982 242.11850 L 99.97887 251.82656 M 89.99819 251.39363 L 97.10070 252.27990 L 94.21079 243.27484 L 89.99819 251.39363 M 89.29946 254.57370 L 88.62096 268.71535 L 96.40197 255.45996 L 89.29946 254.57370 M 78.31211 246.02564 L 73.68826 251.45312 L 85.63029 251.60741 L 78.31211 246.02564 M 70.36399 241.00650 L 71.77997 250.12801 L 76.40382 244.70053 L 70.36399 241.00650 M 70.30626 230.36042 L 70.35195 237.24894 L 77.76917 230.65012 L 70.30626 230.36042 M 71.21196 228.42683 L 78.67487 228.71652 L 77.59755 221.78019 L 71.21196 228.42683 M 69.54041 220.53657 L 70.07015 227.40433 L 76.45574 220.75769 L 69.54041 220.53657 M 70.00969 218.88236 L 76.92502 219.10348 L 73.82438 214.17064 L 70.00969 218.88236 M 60.98948 215.70767 L 59.19641 226.17479 L 66.61375 219.83884 L 60.98948 215.70767 M 62.25006 212.24664 L 71.68901 211.66608 L 65.46634 203.19821 L 62.25006 212.24664 M 55.71973 207.84090 L 60.25390 211.76849 L 63.47018 202.72006 L 55.71973 207.84090 M 56.90857 196.70224 L 63.94488 198.93912 L 63.33742 188.87870 L 56.90857 196.70224 M 46.85128 189.19802 L 46.58978 195.16956 L 53.14843 196.31888 L 46.85128 189.19802 M 47.71562 187.69362 L 54.01278 194.81447 L 53.50458 183.13431 L 47.71562 187.69362 M 37.48430 182.70452 L 35.73742 191.59487 L 43.90500 187.28813 L 37.48430 182.70452 M 37.35729 179.24188 L 42.40497 174.41744 L 36.09440 173.30173 L 37.35729 179.24188 M 34.27360 173.76154 L 27.83856 178.09594 L 35.53649 179.70169 L 34.27360 173.76154 M 36.47736 171.57009 L 42.78793 172.68580 L 40.42096 165.38879 L 36.47736 171.57009 M 31.89805 166.13586 L 35.11613 170.75135 L 39.05972 164.57005 L 31.89805 166.13586 M 41.98322 162.89052 L 47.78728 164.32122 L 45.53839 157.45021 L 41.98322 162.89052 M 47.27613 157.16364 L 49.52502 164.03465 L 55.88513 160.59801 L 47.27613 157.16364 M 37.56557 154.11497 L 40.70551 161.61474 L 44.26068 156.17443 L 37.56557 154.11497 M 41.02627 146.60573 L 37.60566 152.23884 L 44.30077 154.29830 L 41.02627 146.60573 M 42.42215 146.05976 L 45.69665 153.75234 L 48.77269 147.87113 L 42.42215 146.05976 M 46.75938 138.12756 L 42.55499 144.10667 L 48.90554 145.91803 L 46.75938 138.12756 M 39.26379 136.52945 L 41.34977 142.93309 L 45.55417 136.95398 L 39.26379 136.52945 M 41.11454 127.97944 L 39.23438 134.66024 L 45.52476 135.08478 L 41.11454 127.97944 M 42.71231 127.29137 L 47.12254 134.39671 L 52.01658 129.15571 L 42.71231 127.29137 M 42.79102 125.12896 L 52.09529 126.99330 L 47.75219 117.09745 L 42.79102 125.12896 M 37.65948 118.33203 L 40.98654 124.04630 L 45.94772 116.01479 L 37.65948 118.33203 M 36.04850 119.35733 L 33.05989 124.21724 L 39.37556 125.07161 L 36.04850 119.35733 M 34.24674 116.75344 L 31.36663 111.35270 L 24.85303 114.50110 L 34.24674 116.75344 M 32.90782 108.99355 L 39.44403 107.86591 L 33.52649 102.15632 L 32.90782 108.99355 M 24.01721 99.40766 L 30.93970 99.31342 L 25.05357 91.86576 L 24.01721 99.40766 M 26.41024 91.14409 L 32.29637 98.59176 L 34.87056 93.63434 L 26.41024 91.14409 M 26.78519 89.15441 L 35.24552 91.64466 L 35.29603 82.67429 L 26.78519 89.15441 M 36.67604 94.66450 L 34.10184 99.62191 L 40.85402 99.38534 L 36.67604 94.66450 M 44.42405 100.15133 L 53.12983 104.53259 L 49.77836 96.64774 L 44.42405 100.15133 M 51.86110 95.33961 L 62.36919 106.31089 L 53.92939 86.59979 L 51.86110 95.33961 M 45.71065 84.28348 L 49.77878 92.58618 L 51.84708 83.84637 L 45.71065 84.28348 M 44.05342 85.35813 L 38.58927 92.44358 L 48.12156 93.66083 L 44.05342 85.35813 M 37.28524 82.01783 L 37.23473 90.98820 L 42.69888 83.90276 L 37.28524 82.01783 M 51.60467 75.70675 L 45.93888 82.17355 L 52.07531 81.73644 L 51.60467 75.70675 M 57.37670 75.47297 L 57.84734 81.50266 L 92.11515 80.30331 L 57.37670 75.47297 M 45.88000 68.30876 L 51.64100 72.54434 L 52.46116 67.13952 L 45.88000 68.30876 M 45.33008 66.84565 L 51.91124 65.67641 L 47.24164 60.83945 L 45.33008 66.84565 M 48.77291 57.96302 L 58.45772 56.72092 L 52.56504 49.91326 L 48.77291 57.96302 M 42.85775 53.42903 L 46.82291 57.55153 L 50.61505 49.50177 L 42.85775 53.42903 M 41.25603 54.73426 L 37.80131 59.94359 L 45.22120 58.85676 L 41.25603 54.73426 M 36.73973 62.45540 L 34.67491 68.82254 L 42.24805 67.37477 L 36.73973 62.45540 M 29.84822 55.58390 L 35.87969 59.53449 L 39.33441 54.32516 L 29.84822 55.58390 M 29.94255 53.92304 L 39.42874 52.66430 L 36.63432 46.24765 L 29.94255 53.92304 M 28.15311 56.47829 L 25.77352 61.48029 L 34.18458 60.42888 L 28.15311 56.47829 M 23.91576 60.81063 L 22.79717 43.98269 L 22.82075 66.89759 L 23.91576 60.81063 M 26.34018 62.95425 L 32.68642 68.26998 L 34.75124 61.90284 L 26.34018 62.95425 M 23.88715 70.06097 L 31.32841 69.28974 L 24.98217 63.97401 L 23.88715 70.06097 M 23.89017 72.00858 L 25.00631 79.55490 L 31.33143 71.23735 L 23.89017 72.00858 M 29.05407 46.30887 L 28.64572 53.12861 L 35.33749 45.45323 L 29.05407 46.30887 M 31.71265 39.62696 L 29.43744 44.62116 L 35.72085 43.76552 L 31.71265 39.62696 M 30.25694 39.03403 L 24.07519 39.02203 L 27.98173 44.02823 L 30.25694 39.03403 M 38.00803 42.52832 L 44.44914 40.32625 L 37.28553 32.78711 L 38.00803 42.52832 M 46.45895 42.99014 L 42.81226 51.60886 L 50.56955 47.68160 L 46.45895 42.99014 M 38.42325 31.54412 L 45.58686 39.08326 L 47.10980 32.58437 L 38.42325 31.54412 M 42.88774 24.78636 L 38.08587 29.75700 L 46.77241 30.79726 L 42.88774 24.78636 M 51.80379 25.67096 L 49.79109 31.27457 L 56.33799 33.16820 L 51.80379 25.67096 M 59.13484 25.51136 L 52.97175 24.95056 L 57.50596 32.44779 L 59.13484 25.51136 M 60.14921 34.89836 L 68.61169 39.98027 L 67.28415 32.53676 L 60.14921 34.89836 M 69.54561 32.76320 L 70.87315 40.20671 L 78.24091 36.70992 L 69.54561 32.76320 M 73.11474 25.09631 L 69.82581 30.87440 L 78.52111 34.82112 L 73.11474 25.09631 M 71.08597 23.87894 L 62.29099 25.08220 L 67.79704 29.65704 L 71.08597 23.87894 M 69.41895 23.14528 L 54.46088 23.78774 L 60.62397 24.34854 L 69.41895 23.14528 M 91.93080 29.38887 L 83.68364 35.54111 L 97.47254 33.06173 L 91.93080 29.38887 M 100.61426 23.78059 L 87.49871 23.60046 L 92.70378 27.03089 L 100.61426 23.78059 M 102.14952 24.79535 L 94.23904 28.04565 L 99.78078 31.71851 L 102.14952 24.79535 M 104.07896 24.85947 L 101.71022 31.78264 L 109.67454 28.55866 L 104.07896 24.85947 M 110.95874 29.84031 L 102.99441 33.06429 L 114.35251 35.11267 L 110.95874 29.84031 M 115.48773 23.67708 L 105.80115 23.84628 L 111.39673 27.54547 L 115.48773 23.67708 M 113.38866 40.33222 L 102.03056 38.28384 L 103.24795 71.59669 L 113.38866 40.33222 M 128.34693 34.73096 L 119.11439 36.51825 L 128.46314 40.82383 L 128.34693 34.73096 M 131.75714 32.86628 L 138.75869 34.87476 L 139.51070 25.68520 L 131.75714 32.86628 M 137.66764 36.77104 L 130.66609 34.76256 L 130.78229 40.85543 L 137.66764 36.77104 M 139.11147 38.09533 L 132.22612 42.17972 L 142.21671 45.35684 L 139.11147 38.09533 M 132.71396 44.12272 L 143.01420 53.63940 L 142.70455 47.29985 L 132.71396 44.12272 M 128.50253 47.52012 L 109.01306 74.47900 L 138.80276 57.03679 L 128.50253 47.52012 M 148.62252 60.85981 L 155.49042 87.13703 L 170.40302 69.26928 L 148.62252 60.85981 M 158.49997 91.91016 L 172.69888 99.04479 L 173.41256 74.04241 L 158.49997 91.91016 M 153.55863 95.35344 L 148.56205 99.78566 L 153.07738 104.29111 L 153.55863 95.35344 M 152.42017 106.17037 L 147.90484 101.66492 L 148.30095 110.38753 L 152.42017 106.17037 M 153.74991 107.92581 L 149.63069 112.14297 L 158.54278 115.70843 L 153.74991 107.92581 M 149.38622 114.61747 L 151.79416 127.72184 L 158.29831 118.18293 L 149.38622 114.61747 M 139.20077 117.67135 L 136.01617 128.62081 L 148.18665 129.22093 L 139.20077 117.67135 M 130.24997 122.37114 L 125.08266 125.91936 L 132.45453 128.77616 L 130.24997 122.37114 M 122.13196 127.61077 L 115.72737 128.35592 L 120.42082 138.01407 L 122.13196 127.61077 M 116.71000 126.36285 L 123.11459 125.61770 L 128.28190 122.06948 L 116.71000 126.36285 M 105.11530 128.56833 L 97.83558 128.88280 L 109.07460 135.31111 L 105.11530 128.56833 M 86.48790 126.43503 L 92.64675 127.13846 L 81.00251 121.74533 L 86.48790 126.43503 M 79.23857 121.82967 L 78.53525 127.81316 L 84.72397 126.51937 L 79.23857 121.82967 M 77.43853 121.04164 L 70.32364 120.21514 L 76.73521 127.02513 L 77.43853 121.04164 M 67.04374 120.05328 L 59.51934 119.27464 L 65.13529 127.33535 L 67.04374 120.05328 M 66.75550 112.49818 L 69.07618 118.39928 L 76.19107 119.22577 L 66.75550 112.49818 M 56.15365 107.89851 L 58.10655 116.10739 L 63.31027 110.98494 L 56.15365 107.89851 M 55.40431 129.77044 L 56.78609 136.85253 L 63.53833 130.36813 L 55.40431 129.77044 M 53.54316 130.43377 L 48.64911 135.67477 L 54.92493 137.51586 L 53.54316 130.43377 M 55.76551 140.48409 L 51.63584 146.43348 L 58.12160 146.38915 L 55.76551 140.48409 M 62.18668 149.55094 L 61.23388 158.91084 L 82.75320 156.46283 L 62.18668 149.55094 M 62.37645 176.15598 L 56.14079 180.71417 L 63.07784 184.57079 L 62.37645 176.15598 M 64.66709 176.61941 L 65.36848 185.03421 L 74.46590 184.42158 L 64.66709 176.61941 M 45.24687 175.92430 L 46.61989 185.33235 L 52.40884 180.77304 L 45.24687 175.92430 M 27.00546 179.56365 L 27.60879 185.50319 L 34.70339 181.16939 L 27.00546 179.56365 M 25.66068 181.05275 L 23.94519 193.08220 L 26.26401 186.99229 L 25.66068 181.05275 M 28.45894 187.00264 L 33.80666 191.55919 L 35.55354 182.66884 L 28.45894 187.00264 M 27.11416 188.49174 L 24.79535 194.58164 L 32.46188 193.04829 L 27.11416 188.49174 M 25.57639 196.30831 L 33.36256 202.30510 L 33.24293 194.77496 L 25.57639 196.30831 M 35.22464 195.56018 L 35.34426 203.09032 L 41.43001 202.59006 L 35.22464 195.56018 M 42.54236 201.75216 L 44.24308 196.38706 L 36.33699 194.72227 L 42.54236 201.75216 M 44.60875 202.15417 L 52.86812 197.93840 L 46.30947 196.78908 L 44.60875 202.15417 M 45.44368 203.36947 L 52.98891 206.51141 L 53.70305 199.15369 L 45.44368 203.36947 M 44.44761 204.76983 L 45.73445 210.35663 L 51.99284 207.91178 L 44.44761 204.76983 M 36.87165 211.63857 L 43.84431 210.82248 L 42.55746 205.23568 L 36.87165 211.63857 M 42.27552 219.73179 L 43.80906 212.63449 L 36.83641 213.45058 L 42.27552 219.73179 M 44.07182 223.06537 L 46.90626 232.62281 L 49.90594 223.46451 L 44.07182 223.06537 M 52.76661 221.99030 L 57.46552 226.44372 L 59.25859 215.97661 L 52.76661 221.99030 M 49.12715 234.77081 L 57.13997 235.79597 L 56.82573 230.06593 L 49.12715 234.77081 M 46.66845 236.80324 L 39.78492 240.62626 L 52.05250 243.52749 L 46.66845 236.80324 M 59.88917 237.91670 L 63.12794 244.31634 L 67.56769 239.60700 L 59.88917 237.91670 M 61.02218 252.62928 L 61.98116 246.65651 L 56.11361 245.95597 L 61.02218 252.62928 M 63.21991 254.94149 L 67.83973 260.04150 L 70.03462 253.38089 L 63.21991 254.94149 M 44.07383 270.88345 L 64.59463 262.22932 L 59.97481 257.12931 L 44.07383 270.88345 M 42.71263 269.20155 L 58.61361 255.44741 L 53.70505 248.77410 L 42.71263 269.20155 M 65.42985 287.13626 L 65.27651 265.98019 L 44.75571 274.63432 L 65.42985 287.13626 M 70.28403 286.99072 L 83.58910 273.46998 L 70.13069 265.83464 L 70.28403 286.99072 M 91.83252 275.06523 L 101.73954 286.66426 L 112.86594 280.51833 L 91.83252 275.06523 M 92.85666 272.26631 L 113.89007 277.71941 L 109.93260 264.27290 L 92.85666 272.26631 M 90.96345 269.59367 L 108.03940 261.60026 L 98.74446 256.33828 L 90.96345 269.59367 M 113.14505 260.45946 L 119.28393 260.73400 L 116.37485 254.93075 L 113.14505 260.45946 M 121.65587 262.98835 L 119.47446 276.16032 L 131.39293 259.51908 L 121.65587 262.98835 M 105.72359 240.76006 L 108.51649 247.11153 L 116.48903 240.95903 L 105.72359 240.76006 M 106.17609 238.84741 L 116.94154 239.04638 L 112.13652 231.81034 L 106.17609 238.84741 M 96.24605 239.66066 L 102.81691 238.95766 L 102.59934 232.18828 L 96.24605 239.66066 M 95.75128 242.01458 L 98.64119 251.01964 L 102.32214 241.31158 L 95.75128 242.01458 M 90.40340 232.41463 L 86.27216 237.52365 L 93.05264 239.52648 L 90.40340 232.41463 M 81.61065 228.44074 L 89.11479 229.08472 L 86.11672 218.64020 L 81.61065 228.44074 M 80.38473 227.35783 L 84.89080 217.55730 L 79.30741 220.42150 L 80.38473 227.35783 M 87.56690 217.94184 L 90.56498 228.38636 L 93.21210 222.85388 L 87.56690 217.94184 M 88.15935 216.06268 L 93.80455 220.97472 L 95.30460 213.35309 L 88.15935 216.06268 M 88.23167 213.86353 L 95.37692 211.15393 L 94.38309 203.38149 L 88.23167 213.86353 M 98.55900 212.06662 L 104.05815 217.42600 L 107.19534 208.03321 L 98.55900 212.06662 M 95.61090 221.35326 L 102.61010 219.09101 L 97.11094 213.73163 L 95.61090 221.35326 M 97.79297 200.62593 L 107.42314 204.36495 L 106.87437 195.85240 L 97.79297 200.62593 M 94.71178 187.84743 L 95.72161 197.86413 L 100.94352 187.51375 L 94.71178 187.84743 M 87.60434 190.20974 L 94.05421 198.20113 L 93.04438 188.18443 L 87.60434 190.20974 M 86.40972 191.67110 L 83.48744 199.87532 L 92.85960 199.66249 L 86.40972 191.67110 M 83.53008 202.51438 L 86.75082 212.78359 L 92.90223 202.30155 L 83.53008 202.51438 M 102.38513 188.26278 L 97.16322 198.61315 L 106.24462 193.83963 L 102.38513 188.26278 M 104.73024 184.84154 L 111.53153 183.99786 L 112.98226 177.66380 L 104.73024 184.84154 M 112.19494 186.94356 L 109.25313 193.36409 L 114.43001 195.65254 L 112.19494 186.94356 M 113.38551 186.34693 L 115.62059 195.05591 L 118.77773 188.59103 L 113.38551 186.34693 M 92.70718 161.85252 L 102.37719 182.07338 L 110.62921 174.89563 L 92.70718 161.85252 M 90.63807 162.92558 L 94.07634 183.48012 L 100.30808 183.14644 L 90.63807 162.92558 M 95.10060 159.19166 L 113.02264 172.23477 L 121.52458 160.78646 L 95.10060 159.19166 M 96.12172 156.50146 L 122.54570 158.09626 L 121.19158 150.71318 L 96.12172 156.50146 M 94.59490 154.28285 L 119.66475 148.49456 L 110.33113 140.34736 L 94.59490 154.28285 M 122.15796 141.42659 L 124.77083 146.99268 L 128.72275 139.68669 L 122.15796 141.42659 M 126.40838 147.58770 L 135.25834 146.18675 L 130.36029 140.28171 L 126.40838 147.58770 M 145.43233 149.91845 L 168.83451 178.58375 L 179.50002 142.87093 L 145.43233 149.91845 M 161.02221 119.44180 L 154.51807 128.98071 L 171.17745 124.68842 L 161.02221 119.44180 M 169.62431 116.70180 L 162.91049 117.90694 L 173.06573 123.15356 L 169.62431 116.70180 M 164.74465 110.37439 L 161.87036 116.30954 L 168.58418 115.10441 L 164.74465 110.37439 M 173.17013 105.35451 L 166.15712 109.00501 L 169.99665 113.73503 L 173.17013 105.35451 M 185.46941 103.69046 L 183.25309 109.57103 L 190.21917 111.75522 L 185.46941 103.69046 M 190.21873 113.47830 L 183.25265 111.29410 L 185.46589 117.47506 L 190.21873 113.47830 M 191.18143 114.92710 L 186.42858 118.92387 L 190.95419 122.88458 L 191.18143 114.92710 M 192.91850 115.00396 L 192.69126 122.96143 L 200.32516 119.53870 L 192.91850 115.00396 M 184.74010 120.08441 L 177.67362 124.21142 L 189.26572 124.04512 L 184.74010 120.08441 M 201.18764 121.01309 L 193.55375 124.43583 L 199.81834 126.79910 L 201.18764 121.01309 M 209.47005 121.01114 L 203.17718 120.58501 L 201.80788 126.37102 L 209.47005 121.01114 M 210.87683 121.81340 L 203.21467 127.17328 L 214.43147 127.00308 L 210.87683 121.81340 M 213.50403 128.63186 L 202.28723 128.80205 L 203.45732 134.84363 L 213.50403 128.63186 M 215.04164 129.79867 L 204.99493 136.01043 L 214.58812 138.13652 L 215.04164 129.79867 M 225.06319 127.37907 L 218.57661 128.23724 L 226.33460 132.71508 L 225.06319 127.37907 M 223.17645 142.19750 L 216.93483 140.71771 L 217.98052 146.84229 L 223.17645 142.19750 M 230.81331 153.53015 L 239.85781 160.67700 L 237.22516 152.22349 L 230.81331 153.53015 M 228.84655 165.05104 L 238.81048 162.28045 L 229.76598 155.13359 L 228.84655 165.05104 M 229.73674 167.00083 L 236.88747 170.73192 L 239.70067 164.23024 L 229.73674 167.00083 M 220.45293 164.46821 L 224.69329 175.45991 L 226.24319 167.55260 L 220.45293 164.46821 M 215.29851 154.70383 L 225.96037 152.56926 L 218.10804 149.54873 L 215.29851 154.70383 M 208.40537 144.55602 L 205.76850 150.37484 L 215.09859 148.17737 L 208.40537 144.55602 M 204.12335 137.55916 L 208.06902 142.18848 L 213.71654 139.68524 L 204.12335 137.55916 M 202.18244 138.10382 L 198.18925 144.04251 L 206.12810 142.73314 L 202.18244 138.10382 M 188.57977 137.57706 L 195.99570 143.39800 L 199.98890 137.45931 L 188.57977 137.57706 M 206.04196 103.66906 L 200.96071 99.70673 L 200.38627 106.95539 L 206.04196 103.66906 M 198.71388 99.49999 L 188.06730 102.01517 L 198.13944 106.74865 L 198.71388 99.49999 M 203.56806 91.34364 L 188.74588 100.08954 L 199.39246 97.57437 L 203.56806 91.34364 M 205.81489 91.55038 L 201.63929 97.78111 L 206.72054 101.74344 L 205.81489 91.55038 M 201.10086 88.32494 L 179.65486 73.42472 L 186.27868 97.07084 L 201.10086 88.32494 M 221.90006 73.84862 L 214.72990 78.20925 L 234.76839 92.24384 L 221.90006 73.84862 M 225.44103 58.59163 L 216.27806 62.28769 L 221.03570 68.34042 L 225.44103 58.59163 M 233.94391 62.92812 L 227.64926 58.67169 L 223.24393 68.42047 L 233.94391 62.92812 M 244.20993 68.04263 L 236.01399 64.09949 L 225.31401 69.59184 L 244.20993 68.04263 M 244.52877 46.15285 L 230.30987 55.88824 L 236.60451 60.14467 L 244.52877 46.15285 M 243.24654 42.19135 L 228.54350 36.37712 L 226.83077 44.00230 L 243.24654 42.19135 M 226.89993 46.22367 L 229.09679 54.14811 L 243.31570 44.41273 L 226.89993 46.22367 M 223.55722 46.91486 L 216.57400 49.94226 L 225.75408 54.83930 L 223.55722 46.91486 M 215.57884 51.60233 L 215.59595 60.19543 L 224.75892 56.49937 L 215.57884 51.60233 M 215.90255 38.66458 L 207.14973 42.32646 L 213.65633 47.63525 L 215.90255 38.66458 M 207.50122 34.88383 L 197.20264 38.49157 L 204.38806 40.89041 L 207.50122 34.88383 M 206.73074 25.03164 L 209.52129 31.84762 L 213.04059 27.02446 L 206.73074 25.03164 M 221.24052 26.27422 L 215.55927 27.47287 L 217.67963 34.64073 L 221.24052 26.27422 M 203.94947 58.03568 L 182.26279 67.46235 L 206.90143 73.69876 L 203.94947 58.03568 M 182.22841 70.93762 L 203.67440 85.83784 L 206.86705 77.17403 L 182.22841 70.93762 M 232.96128 96.79832 L 209.73014 91.42753 L 210.63579 101.62059 L 232.96128 96.79832 M 235.30268 102.18139 L 215.69866 118.58214 L 225.73987 122.91365 L 235.30268 102.18139 M 244.54634 129.48311 L 252.03251 124.41719 L 237.39869 128.97213 L 244.54634 129.48311 M 237.94363 136.10050 L 234.16115 130.76831 L 229.49737 133.96536 L 237.94363 136.10050 M 241.85421 161.19418 L 246.78446 157.66760 L 239.22156 152.74067 L 241.85421 161.19418 M 247.33765 168.35159 L 253.61418 167.49058 L 248.99291 160.10175 L 247.33765 168.35159 M 254.77694 166.44876 L 256.63975 160.01704 L 250.15568 159.05993 L 254.77694 166.44876 M 253.70475 175.54567 L 254.20316 169.42107 L 247.92663 170.28208 L 253.70475 175.54567 M 255.37811 177.12823 L 261.31350 182.94255 L 255.87651 171.00363 L 255.37811 177.12823 M 244.97102 178.26164 L 252.55073 176.65075 L 246.77261 171.38715 L 244.97102 178.26164 M 238.98923 172.66769 L 243.27584 177.76376 L 245.07742 170.88927 L 238.98923 172.66769 M 238.77875 171.01087 L 244.86694 169.23245 L 241.59195 164.50919 L 238.77875 171.01087 M 234.94294 180.67725 L 242.00903 178.98725 L 237.72242 173.89119 L 234.94294 180.67725 M 235.66910 182.28509 L 243.53175 186.75387 L 242.73519 180.59509 L 235.66910 182.28509 M 227.16647 177.93600 L 233.08762 180.54585 L 235.86710 173.75979 L 227.16647 177.93600 M 225.71669 179.57156 L 224.26890 186.84428 L 231.63784 182.18141 L 225.71669 179.57156 M 222.81726 184.90120 L 224.26505 177.62848 L 220.02469 166.63679 L 222.81726 184.90120 M 225.43755 189.69194 L 232.81423 196.30266 L 235.05818 191.07929 L 225.43755 189.69194 M 264.84669 182.04756 L 283.64361 169.96835 L 259.40970 170.10864 L 264.84669 182.04756 M 283.13301 167.34398 L 260.76191 161.05255 L 258.89911 167.48427 L 283.13301 167.34398 M 283.97354 165.39590 L 265.62331 151.89965 L 261.60244 159.10447 L 283.97354 165.39590 M 289.50556 162.12902 L 296.35500 138.87045 L 280.65895 142.73178 L 289.50556 162.12902 M 281.27139 93.33219 L 275.61148 96.11261 L 279.99375 100.40215 L 281.27139 93.33219 M 265.76660 87.75920 L 263.91392 82.63627 L 245.10734 94.28135 L 265.76660 87.75920 M 267.71991 71.73453 L 261.85718 74.20334 L 265.99205 78.62486 L 267.71991 71.73453 M 267.12178 70.23883 L 261.20705 66.65929 L 261.25905 72.70764 L 267.12178 70.23883 M 267.44519 68.54020 L 263.84634 59.11854 L 261.53046 64.96065 L 267.44519 68.54020 M 300.66905 51.19642 L 268.73866 57.39801 L 272.33752 66.81967 L 300.66905 51.19642 M 302.21887 53.87042 L 273.88734 69.49367 L 281.13724 78.79000 L 302.21887 53.87042 M 348.34002 45.09368 L 314.69706 53.59252 L 318.98822 100.68892 L 348.34002 45.09368 M 354.73314 43.94936 L 325.38133 99.54460 L 365.84200 44.43797 L 354.73314 43.94936 M 372.31671 34.14157 L 373.21524 25.49534 L 365.17163 25.33101 L 372.31671 34.14157 M 380.31805 31.44771 L 375.62422 35.26058 L 387.83635 29.44971 L 380.31805 31.44771 M 379.77157 29.68884 L 382.56603 24.02502 L 375.97627 24.85548 L 379.77157 29.68884 M 374.28499 24.14153 L 380.87476 23.31107 L 366.24138 23.97720 L 374.28499 24.14153 M 390.82236 27.52370 L 396.71786 25.51630 L 386.09852 23.85788 L 390.82236 27.52370 M 398.61977 25.00810 L 406.03763 23.45814 L 388.00042 23.34968 L 398.61977 25.00810 M 418.20969 94.52211 L 409.81379 32.35469 L 402.39593 33.90466 L 418.20969 94.52211 M 416.30778 95.03031 L 400.49402 34.41285 L 394.59852 36.42026 L 416.30778 95.03031 M 410.12295 125.88274 L 353.76754 165.30268 L 385.66151 183.20232 L 410.12295 125.88274 M 418.58944 129.38135 L 394.12800 186.70093 L 421.49945 193.29158 L 418.58944 129.38135 M 374.37373 195.25580 L 382.52627 193.78106 L 361.29963 191.13826 L 374.37373 195.25580 M 383.30540 208.05339 L 387.59399 201.72641 L 377.38190 198.01808 L 383.30540 208.05339 M 385.08736 209.99606 L 391.63757 213.55937 L 389.37594 203.66907 L 385.08736 209.99606 M 379.93235 210.63555 L 374.00884 200.60023 L 360.60958 222.38363 L 379.93235 210.63555 M 393.63441 212.92156 L 401.06210 204.89352 L 391.37279 203.03126 L 393.63441 212.92156 M 403.30107 212.47267 L 408.60363 209.11883 L 404.05071 205.52004 L 403.30107 212.47267 M 409.32680 210.42229 L 404.02424 213.77613 L 409.83607 215.94774 L 409.32680 210.42229 M 416.71768 211.41921 L 416.90115 205.70123 L 411.52219 209.02191 L 416.71768 211.41921 M 414.82859 222.54752 L 416.52227 214.21568 L 411.83605 217.34383 L 414.82859 222.54752 M 413.21833 228.34324 L 407.10011 228.29375 L 406.76592 255.42718 L 413.21833 228.34324 M 422.29941 230.84487 L 415.11824 228.66213 L 408.66584 255.74607 L 422.29941 230.84487 M 424.28162 226.28616 L 424.52355 219.27638 L 417.10046 224.10342 L 424.28162 226.28616 M 400.17943 258.84579 L 390.23548 232.38436 L 370.80456 255.02015 L 400.17943 258.84579 M 381.19946 287.20618 L 399.24456 266.94068 L 371.42667 273.05233 L 381.19946 287.20618 M 350.61468 223.65925 L 338.14036 205.41179 L 325.84674 217.30459 L 350.61468 223.65925 M 290.99693 232.62825 L 295.67457 228.82763 L 285.41692 224.84374 L 290.99693 232.62825 M 176.57759 179.88430 L 199.96102 154.50188 L 194.65903 149.99242 L 176.57759 179.88430 M 174.76074 178.40853 L 192.84218 148.51665 L 185.42625 142.69571 L 174.76074 178.40853 M 110.13607 86.08085 L 135.61525 109.62548 L 141.79709 99.34808 L 110.13607 86.08085 M 110.75186 80.22559 L 142.41288 93.49282 L 140.54155 62.78338 L 110.75186 80.22559 M 98.95309 89.48905 L 82.56066 117.12708 L 94.20490 122.52021 L 98.95309 89.48905 M 63.97846 61.48716 L 58.14309 72.97104 L 92.88154 77.80137 L 63.97846 61.48716 M 59.13299 60.02499 L 54.11778 66.10405 L 53.29762 71.50887 L 59.13299 60.02499 M 24.18314 31.64227 L 23.60036 37.47379 L 29.78212 37.48578 L 24.18314 31.64227 M 24.17083 124.32707 L 27.05857 130.11894 L 30.37159 125.33024 L 24.17083 124.32707 M 23.30927 126.62594 L 23.47911 143.72120 L 26.19701 132.41781 L 23.30927 126.62594 M 26.89279 134.32441 L 24.17489 145.62781 L 28.87552 141.87879 L 26.89279 134.32441 M 31.89106 126.55001 L 28.57804 131.33870 L 36.32658 134.08519 L 31.89106 126.55001 M 30.21044 144.72049 L 28.44032 153.57821 L 34.64163 151.94936 L 30.21044 144.72049 M 24.20526 147.97239 L 27.13578 153.08109 L 28.90589 144.22337 L 24.20526 147.97239 M 23.51339 150.64633 L 23.37092 165.61484 L 26.44390 155.75503 L 23.51339 150.64633 M 23.24809 172.74503 L 23.56821 191.30129 L 25.28369 179.27184 L 23.24809 172.74503 M 26.09774 209.54582 L 33.89261 211.54152 L 33.49267 205.63888 L 26.09774 209.54582 M 25.39986 211.51800 L 27.90964 221.41634 L 33.19473 213.51370 L 25.39986 211.51800 M 24.47252 216.20176 L 26.04589 241.56994 L 26.71241 235.51395 L 24.47252 216.20176 M 28.02454 238.60786 L 27.35802 244.66385 L 34.96955 240.95303 L 28.02454 238.60786 M 109.58629 289.70778 L 95.17531 291.51341 L 180.14390 291.46188 L 109.58629 289.70778 M 138.11315 24.47467 L 127.57831 25.19051 L 130.35959 31.65575 L 138.11315 24.47467" fill="none" stroke="black" stroke-width="0.01cm" />
   </g>
</svg>