<?xml version="1.0" standalone="no"?>
  <!DOCTYPE svg PUBLIC "-//W3C//DTD SVG 1.1//EN" 
    "http://www.w3.org/Graphics/SVG/1.1/DTD/svg11.dtd">
  <svg width="12.7cm" height="8.89cm"
       xmlns="http://www.w3.org/2000/svg" version="1.1" viewBox="0 0 449.99999 314.99999">
   <g>
     <path d="M 221.79607 155.57100 L 216.15227 152.38924 L 214.53686 157.97016 L 221.79607 155.57100 M 222.79095 153.74825 L 222.49594 143.38818 L 217.14716 150.56649 L 222.79095 153.74825 M 214.53326 151.97973 L 208.84395 152.29494 L 212.91785 157.56066 L 214.53326 151.97973 M 206.32406 152.24827 L 200.86244 150.61066 L 203.90965 158.50976 L 206.32406 152.24827 M 199.22661 151.10549 L 193.23747 156.20684 L 202.27383 159.00458 L 199.22661 151.10549 M 189.37251 149.81972 L 191.62480 155.05873 L 197.61395 149.95738 L 189.37251 149.81972 M 187.46321 150.72991 L 182.33958 157.23892 L 189.71551 155.96892 L 187.46321 150.72991 M 191.27418 158.72869 L 188.54747 167.93904 L 195.28335 164.86766 L 191.27418 158.72869 M 187.12240 171.51730 L 182.90560 177.22446 L 190.82632 178.57622 L 187.12240 171.51730 M 182.67727 179.06205 L 185.29576 186.21795 L 190.59799 180.41380 L 182.67727 179.06205 M 173.84022 181.41962 L 183.20104 186.34368 L 180.58255 179.18777 L 173.84022 181.41962 M 174.48102 173.04257 L 172.75022 179.75698 L 179.49254 177.52513 L 174.48102 173.04257 M 175.98483 169.95878 L 185.21316 168.73418 L 180.56394 160.79382 L 175.98483 169.95878 M 169.41302 165.14733 L 174.00982 169.51042 L 178.58892 160.34546 L 169.41302 165.14733 M 171.68466 157.42332 L 169.12238 163.63644 L 178.29828 158.83458 L 171.68466 157.42332 M 163.94191 156.44129 L 167.32783 163.33728 L 169.89012 157.12416 L 163.94191 156.44129 M 162.47684 157.09322 L 158.16956 162.33961 L 165.86276 163.98921 L 162.47684 157.09322 M 157.90626 149.91942 L 162.44643 153.75359 L 165.85234 146.35279 L 157.90626 149.91942 M 156.29131 151.12148 L 152.93277 155.96930 L 160.83149 154.95566 L 156.29131 151.12148 M 161.97025 139.97745 L 157.84674 148.19740 L 165.79282 144.63078 L 161.97025 139.97745 M 164.01389 138.75671 L 167.83646 143.41003 L 174.19585 138.43146 L 164.01389 138.75671 M 165.40957 132.16992 L 163.71053 137.35169 L 173.89249 137.02645 L 165.40957 132.16992 M 166.59581 131.14339 L 175.07873 135.99991 L 173.20045 129.13940 L 166.59581 131.14339 M 163.33136 131.37364 L 157.26674 130.65615 L 161.63231 136.55541 L 163.33136 131.37364 M 163.21756 123.79825 L 157.46489 129.06150 L 163.52951 129.77899 L 163.21756 123.79825 M 165.02745 123.61446 L 165.33940 129.59521 L 171.94404 127.59122 L 165.02745 123.61446 M 161.12858 115.44554 L 164.16793 120.72880 L 168.41914 115.76991 L 161.12858 115.44554 M 161.38246 113.80347 L 168.67301 114.12784 L 166.19896 107.59218 L 161.38246 113.80347 M 158.13594 115.20502 L 150.70173 114.38697 L 154.95157 119.94703 L 158.13594 115.20502 M 156.06017 122.32529 L 156.53123 128.12979 L 162.28389 122.86653 L 156.06017 122.32529 M 153.90299 122.48098 L 145.02646 124.11205 L 154.37405 128.28548 L 153.90299 122.48098 M 148.97874 115.29742 L 144.35205 122.48855 L 153.22858 120.85747 L 148.97874 115.29742 M 143.85007 105.94178 L 140.96249 114.25143 L 147.56007 112.72488 L 143.85007 105.94178 M 145.70498 104.72675 L 149.41498 111.50985 L 155.80177 104.53115 L 145.70498 104.72675 M 150.09464 99.08997 L 145.78994 103.17426 L 155.88673 102.97867 L 150.09464 99.08997 M 159.13223 88.93686 L 152.37479 96.73127 L 163.06584 95.98780 L 159.13223 88.93686 M 160.93272 87.91951 L 164.86633 94.97044 L 166.77871 88.59241 L 160.93272 87.91951 M 162.95719 77.06257 L 160.69408 85.68102 L 166.54007 86.35392 L 162.95719 77.06257 M 161.40078 75.82160 L 154.08880 76.42612 L 159.13767 84.44005 L 161.40078 75.82160 M 152.46380 77.46934 L 148.40081 84.16731 L 157.51268 85.48326 L 152.46380 77.46934 M 139.50350 74.32939 L 132.40566 74.19120 L 136.08325 79.51845 L 139.50350 74.32939 M 137.34743 82.34823 L 138.66030 88.89963 L 144.62651 85.08900 L 137.34743 82.34823 M 135.63524 82.40901 L 130.92897 85.57521 L 136.94810 88.96041 L 135.63524 82.40901 M 129.99688 87.12905 L 128.17850 94.83969 L 136.01601 90.51424 L 129.99688 87.12905 M 128.41885 87.04250 L 123.39177 89.82185 L 126.60047 94.75314 L 128.41885 87.04250 M 129.85425 76.23417 L 123.79849 87.50697 L 128.82557 84.72763 L 129.85425 76.23417 M 131.24473 75.38481 L 130.21605 83.87826 L 134.92232 80.71206 L 131.24473 75.38481 M 126.81346 70.45451 L 131.72490 63.46387 L 93.53208 56.75373 L 126.81346 70.45451 M 127.24342 98.17211 L 125.34675 105.51849 L 132.25046 102.11658 L 127.24342 98.17211 M 135.33441 101.17183 L 142.18082 102.28594 L 138.16488 92.90192 L 135.33441 101.17183 M 124.68346 108.79806 L 123.71965 117.45477 L 129.80463 112.34996 L 124.68346 108.79806 M 130.50640 113.71156 L 124.42142 118.81637 L 130.29760 119.69084 L 130.50640 113.71156 M 129.76098 121.42880 L 123.88480 120.55433 L 126.21342 127.61527 L 129.76098 121.42880 M 131.00282 122.45525 L 127.45527 128.64172 L 133.81956 128.76592 L 131.00282 122.45525 M 132.64120 121.87936 L 135.45794 128.19004 L 140.56225 124.03460 L 132.64120 121.87936 M 122.56373 121.14252 L 119.19246 126.13425 L 124.89236 128.20345 L 122.56373 121.14252 M 116.50542 113.97770 L 112.96714 119.87709 L 120.94015 118.86664 L 116.50542 113.97770 M 115.02449 113.00235 L 109.09271 111.06379 L 111.48621 118.90173 L 115.02449 113.00235 M 114.87478 105.63410 L 109.51629 109.40534 L 115.44807 111.34389 L 114.87478 105.63410 M 112.37298 95.94787 L 103.34829 103.56103 L 113.84777 103.27407 L 112.37298 95.94787 M 102.79347 105.14638 L 107.93446 108.63065 L 113.29295 104.85941 L 102.79347 105.14638 M 106.02035 110.73876 L 96.04748 111.46692 L 102.81192 117.51192 L 106.02035 110.73876 M 103.80157 120.27779 L 101.57122 125.75597 L 109.40350 121.34258 L 103.80157 120.27779 M 110.86116 122.06345 L 103.02888 126.47684 L 115.46290 126.04473 L 110.86116 122.06345 M 113.11906 121.28861 L 117.72080 125.26990 L 121.09207 120.27816 L 113.11906 121.28861 M 115.33637 129.59940 L 102.90235 130.03151 L 109.84889 150.50077 L 115.33637 129.59940 M 117.92693 129.83327 L 112.43944 150.73464 L 123.62682 131.90247 L 117.92693 129.83327 M 100.15653 130.44201 L 93.36984 132.88342 L 107.10307 150.91127 L 100.15653 130.44201 M 93.06067 122.54667 L 91.61454 129.33785 L 98.40123 126.89643 L 93.06067 122.54667 M 94.34882 121.41530 L 99.68938 125.76506 L 101.91974 120.28688 L 94.34882 121.41530 M 94.50758 112.59572 L 93.70109 119.76913 L 101.27201 118.64071 L 94.50758 112.59572 M 92.34933 112.27538 L 84.00602 116.07801 L 91.54284 119.44879 L 92.34933 112.27538 M 83.53463 106.89330 L 75.31462 108.91712 L 81.22347 114.30981 L 83.53463 106.89330 M 83.46811 99.90607 L 82.26579 63.71132 L 73.67363 96.63062 L 83.46811 99.90607 M 74.24558 107.38969 L 82.46558 105.36587 L 72.67110 102.09041 L 74.24558 107.38969 M 74.22739 110.33235 L 74.83678 118.21514 L 80.13624 115.72504 L 74.22739 110.33235 M 71.64634 109.56202 L 65.19422 110.43522 L 66.54933 116.57200 L 71.64634 109.56202 M 70.57508 102.50427 L 65.69744 108.67675 L 72.14956 107.80355 L 70.57508 102.50427 M 69.25867 101.50140 L 61.61827 99.78052 L 64.38103 107.67387 L 69.25867 101.50140 M 59.82899 100.53653 L 54.94436 107.54941 L 62.59174 108.42987 L 59.82899 100.53653 M 53.94972 109.34857 L 51.87186 114.92982 L 61.59710 110.22903 L 53.94972 109.34857 M 51.60302 109.60019 L 42.82349 112.24201 L 49.52516 115.18144 L 51.60302 109.60019 M 49.88012 118.40845 L 45.27597 127.42992 L 52.34519 123.45538 L 49.88012 118.40845 M 56.49832 123.48130 L 67.42069 126.20132 L 65.11360 119.87038 L 56.49832 123.48130 M 46.17812 129.20833 L 57.09731 132.63577 L 53.24734 125.23379 L 46.17812 129.20833 M 48.80280 143.22785 L 47.85263 151.68890 L 62.13253 155.40827 L 48.80280 143.22785 M 62.09105 136.82554 L 66.89975 153.27333 L 77.46939 138.87675 L 62.09105 136.82554 M 69.48684 129.12505 L 62.41444 133.80700 L 77.79278 135.85822 L 69.48684 129.12505 M 72.86595 120.35202 L 67.15956 119.47922 L 69.46665 125.81016 L 72.86595 120.35202 M 82.86807 117.70754 L 83.24573 125.31166 L 90.40489 121.07833 L 82.86807 117.70754 M 84.11583 126.76337 L 89.82886 129.32121 L 91.27499 122.53003 L 84.11583 126.76337 M 82.98302 128.37917 L 82.21254 135.45645 L 88.69606 130.93702 L 82.98302 128.37917 M 80.87024 128.06292 L 71.79381 128.40704 L 80.09975 135.14020 L 80.87024 128.06292 M 84.99057 138.39727 L 105.20732 151.90568 L 91.47409 133.87783 L 84.99057 138.39727 M 79.66495 142.86491 L 69.09531 157.26148 L 79.65548 168.73078 L 79.66495 142.86491 M 66.69853 161.30052 L 60.49074 175.17722 L 77.25871 172.76982 L 66.69853 161.30052 M 49.33449 165.36370 L 57.00021 174.25146 L 63.20800 160.37476 L 49.33449 165.36370 M 46.98428 167.09032 L 44.40633 174.18766 L 54.65000 175.97807 L 46.98428 167.09032 M 38.39286 167.88197 L 42.37418 173.17565 L 44.95214 166.07830 L 38.39286 167.88197 M 39.91606 159.47864 L 38.08559 166.16984 L 44.64488 164.36618 L 39.91606 159.47864 M 29.59944 167.12450 L 26.39324 188.14981 L 34.91134 169.66201 L 29.59944 167.12450 M 23.27816 175.26769 L 22.89809 247.60023 L 23.92935 223.87211 L 23.27816 175.26769 M 24.80770 157.59513 L 29.04914 161.63231 L 31.54419 150.78699 L 24.80770 157.59513 M 32.82849 134.57954 L 26.32375 140.29988 L 35.42820 140.09247 L 32.82849 134.57954 M 30.77752 125.11147 L 25.61011 130.64913 L 32.23245 131.84268 L 30.77752 125.11147 M 24.51825 109.28324 L 24.64583 127.82920 L 29.81324 122.29154 L 24.51825 109.28324 M 23.62198 106.33328 L 23.12364 79.98698 L 23.26907 143.58412 L 23.62198 106.33328 M 47.48775 98.13558 L 42.56881 110.11128 L 51.34834 107.46946 L 47.48775 98.13558 M 49.43978 96.75634 L 53.30037 106.09021 L 58.18499 99.07733 L 49.43978 96.75634 M 62.88317 111.23150 L 53.15793 115.93228 L 64.23828 117.36828 L 62.88317 111.23150 M 28.95559 77.44136 L 23.83446 71.71913 L 24.33280 98.06543 L 28.95559 77.44136 M 23.01246 74.90111 L 22.73250 65.64636 L 23.15789 138.49826 L 23.01246 74.90111 M 29.47905 62.31024 L 24.47774 67.24973 L 29.59887 72.97196 L 29.47905 62.31024 M 35.50803 60.98024 L 35.62786 71.64196 L 72.70959 56.60971 L 35.50803 60.98024 M 28.18742 49.52473 L 23.98635 53.90724 L 29.26763 58.22249 L 28.18742 49.52473 M 33.09515 40.70799 L 26.65187 40.96662 L 28.90887 46.14083 L 33.09515 40.70799 M 39.04072 43.30788 L 35.93464 57.43848 L 73.13619 53.06795 L 39.04072 43.30788 M 74.45584 60.11070 L 37.37411 75.14294 L 49.47806 88.98813 L 74.45584 60.11070 M 125.56138 32.32223 L 93.37557 51.98720 L 131.56839 58.69733 L 125.56138 32.32223 M 131.84495 31.37562 L 137.85196 57.75071 L 143.64412 44.41424 L 131.84495 31.37562 M 136.78803 23.45509 L 58.89570 23.61787 L 122.31025 25.25428 L 136.78803 23.45509 M 147.53285 25.55153 L 133.05507 27.35072 L 144.85423 40.38934 L 147.53285 25.55153 M 154.42619 23.78724 L 164.46061 26.02552 L 175.48869 25.83590 L 154.42619 23.78724 M 161.06902 27.85254 L 151.03460 25.61426 L 148.35598 40.45207 L 161.06902 27.85254 M 162.83604 29.81950 L 150.12300 42.41902 L 165.17075 41.34989 L 162.83604 29.81950 M 177.25571 27.80286 L 166.22763 27.99248 L 168.56234 39.52287 L 177.25571 27.80286 M 184.42931 30.15361 L 185.99068 41.14895 L 213.36166 47.52320 L 184.42931 30.15361 M 180.61558 40.34187 L 179.05421 29.34653 L 170.36083 41.06654 L 180.61558 40.34187 M 176.53016 51.32457 L 170.42488 53.03256 L 175.51867 56.89950 L 176.53016 51.32457 M 175.02847 59.58140 L 167.61629 62.49673 L 174.92692 65.99746 L 175.02847 59.58140 M 173.59360 67.62303 L 166.28297 64.12230 L 164.36191 72.58595 L 173.59360 67.62303 M 184.93343 65.70837 L 177.19311 59.98285 L 177.09156 66.39892 L 184.93343 65.70837 M 185.55709 67.56442 L 177.71522 68.25496 L 182.18241 74.83120 L 185.55709 67.56442 M 187.04983 69.03218 L 183.67515 76.29895 L 189.65710 79.99703 L 187.04983 69.03218 M 184.32239 56.18202 L 178.09697 58.70574 L 185.83728 64.43126 L 184.32239 56.18202 M 214.33947 52.83921 L 188.85270 55.44870 L 190.36760 63.69795 L 214.33947 52.83921 M 218.20759 59.46283 L 196.84298 81.28642 L 217.19037 97.47283 L 218.20759 59.46283 M 223.47732 60.58739 L 222.46010 98.59739 L 239.00085 90.28291 L 223.47732 60.58739 M 226.68237 58.11200 L 242.20590 87.80753 L 248.10054 78.79431 L 226.68237 58.11200 M 254.38595 50.00839 L 251.60207 38.06757 L 228.42477 49.38691 L 254.38595 50.00839 M 266.06914 55.53694 L 259.60573 53.43003 L 260.93572 62.71227 L 266.06914 55.53694 M 271.86827 64.29711 L 262.41553 65.99410 L 267.12488 74.20636 L 271.86827 64.29711 M 283.01632 64.31324 L 270.17705 56.68522 L 274.49637 62.16356 L 283.01632 64.31324 M 284.13062 66.30289 L 275.61068 64.15321 L 279.09149 72.60242 L 284.13062 66.30289 M 285.76877 68.31180 L 280.72964 74.61133 L 288.71585 80.22445 L 285.76877 68.31180 M 280.12121 76.60145 L 280.90134 84.23281 L 288.10743 82.21458 L 280.12121 76.60145 M 277.80544 76.00816 L 269.58124 77.46819 L 278.58557 83.63951 L 277.80544 76.00816 M 264.93549 75.98858 L 260.22614 67.77632 L 254.35314 78.55491 L 264.93549 75.98858 M 265.17161 88.30048 L 257.90047 93.65864 L 265.16673 94.82067 L 265.17161 88.30048 M 264.16225 96.61861 L 256.89599 95.45659 L 257.13575 102.68405 L 264.16225 96.61861 M 267.10644 96.88577 L 266.46280 103.42144 L 274.06669 97.12359 L 267.10644 96.88577 M 263.99936 107.37565 L 256.50533 112.69000 L 262.49683 116.90722 L 263.99936 107.37565 M 270.73416 110.42524 L 265.77796 107.09255 L 264.27543 116.62412 L 270.73416 110.42524 M 271.42134 111.72824 L 264.96260 117.92712 L 271.27535 117.51654 L 271.42134 111.72824 M 281.33126 116.91033 L 280.89971 105.13095 L 274.30945 110.23909 L 281.33126 116.91033 M 280.37184 120.17530 L 273.20405 119.29236 L 273.37039 125.46239 L 280.37184 120.17530 M 289.90756 124.96515 L 283.37395 121.03743 L 283.68579 127.54873 L 289.90756 124.96515 M 293.95540 133.04202 L 284.88035 130.28847 L 290.07712 137.61820 L 293.95540 133.04202 M 288.34182 138.01100 L 283.14505 130.68127 L 280.07299 136.18441 L 288.34182 138.01100 M 287.69000 139.66512 L 279.42118 137.83853 L 277.93052 143.91421 L 287.69000 139.66512 M 293.89373 145.39143 L 295.08207 134.92989 L 291.20379 139.50607 L 293.89373 145.39143 M 299.39596 157.47577 L 294.13103 149.94325 L 289.02566 157.92655 L 299.39596 157.47577 M 300.75381 160.78770 L 290.38351 161.23848 L 304.99381 176.43866 L 300.75381 160.78770 M 287.09352 157.24573 L 292.19889 149.26243 L 283.93882 152.02921 L 287.09352 157.24573 M 285.05904 157.77654 L 281.90434 152.56002 L 275.92306 153.50893 L 285.05904 157.77654 M 274.40029 144.96607 L 269.87774 141.35343 L 265.46139 145.61689 L 274.40029 144.96607 M 269.63476 138.14331 L 271.40672 128.95290 L 266.26813 132.73896 L 269.63476 138.14331 M 278.28584 134.96242 L 281.35790 129.45928 L 274.04459 128.23506 L 278.28584 134.96242 M 270.73427 126.81721 L 264.25519 121.05775 L 265.59568 130.60326 L 270.73427 126.81721 M 262.72931 121.41147 L 258.52722 129.64697 L 264.06980 130.95698 L 262.72931 121.41147 M 261.35514 120.56147 L 253.07644 124.15699 L 257.15305 128.79697 L 261.35514 120.56147 M 261.09951 118.78251 L 255.10801 114.56530 L 252.82081 122.37803 L 261.09951 118.78251 M 253.40574 114.31144 L 247.48134 116.75165 L 251.11854 122.12417 L 253.40574 114.31144 M 255.17589 105.05592 L 249.35485 102.58152 L 254.06473 110.84051 L 255.17589 105.05592 M 253.80215 94.84502 L 245.23258 94.20050 L 248.22086 99.59809 L 253.80215 94.84502 M 251.54242 83.12860 L 245.64777 92.14182 L 254.21734 92.78634 L 251.54242 83.12860 M 255.65464 65.18833 L 228.36347 55.28460 L 249.78164 75.96691 L 255.65464 65.18833 M 250.36183 35.35637 L 244.46409 28.31879 L 227.18454 46.67571 L 250.36183 35.35637 M 255.66224 34.46452 L 260.66503 39.63093 L 258.68724 27.33693 L 255.66224 34.46452 M 262.99552 26.66273 L 264.97332 38.95673 L 290.12855 29.07091 L 262.99552 26.66273 M 246.67685 24.43652 L 170.47970 23.46519 L 237.75411 24.52652 L 246.67685 24.43652 M 288.68451 84.02283 L 281.47843 86.04106 L 284.73788 91.06747 L 288.68451 84.02283 M 293.10454 99.04926 L 285.44755 94.44265 L 283.44542 101.39123 L 293.10454 99.04926 M 281.50232 101.07974 L 283.50445 94.13115 L 277.55974 96.55733 L 281.50232 101.07974 M 307.24051 113.66951 L 301.56994 111.70332 L 301.22347 120.51210 L 307.24051 113.66951 M 317.62511 111.97309 L 311.92468 115.00830 L 327.32585 132.29145 L 317.62511 111.97309 M 316.17697 107.18619 L 316.87832 100.89922 L 309.33896 103.31845 L 316.17697 107.18619 M 317.33722 98.35940 L 318.12909 92.23946 L 311.51702 95.40679 L 317.33722 98.35940 M 317.25614 89.77156 L 310.35358 78.61616 L 310.64406 92.93889 L 317.25614 89.77156 M 323.60746 85.06977 L 311.97401 77.63252 L 318.87656 88.78792 L 323.60746 85.06977 M 339.93796 88.78687 L 332.82144 94.21054 L 337.49968 98.75711 L 339.93796 88.78687 M 350.87873 90.57332 L 343.05442 88.39314 L 347.49055 98.85075 L 350.87873 90.57332 M 360.97512 79.00292 L 354.05233 79.57657 L 353.59901 87.38839 L 360.97512 79.00292 M 361.15001 77.04204 L 354.99815 71.70142 L 354.22722 77.61570 L 361.15001 77.04204 M 364.63210 70.45111 L 364.28845 76.58575 L 372.83928 74.75933 L 364.63210 70.45111 M 361.85143 68.14440 L 356.74584 61.64624 L 355.35593 68.93841 L 361.85143 68.14440 M 368.28760 61.75740 L 358.36230 60.74861 L 363.46789 67.24677 L 368.28760 61.75740 M 362.77977 55.18798 L 358.27629 59.24126 L 368.20159 60.25005 L 362.77977 55.18798 M 361.19966 53.81025 L 355.56069 49.22826 L 356.69618 57.86354 L 361.19966 53.81025 M 354.17252 49.41814 L 350.09425 55.32935 L 355.30800 58.05343 L 354.17252 49.41814 M 354.42085 59.78913 L 349.20711 57.06506 L 347.07534 63.30378 L 354.42085 59.78913 M 345.18321 63.20506 L 347.31498 56.96634 L 339.28380 58.99942 L 345.18321 63.20506 M 344.31577 64.88853 L 338.41636 60.68288 L 340.37551 70.43407 L 344.31577 64.88853 M 338.74591 70.51310 L 336.78676 60.76191 L 331.27897 65.52075 L 338.74591 70.51310 M 338.31059 72.37052 L 330.84365 67.37818 L 333.30424 75.62131 L 338.31059 72.37052 M 329.54143 63.94254 L 335.04923 59.18370 L 324.84563 57.88744 L 329.54143 63.94254 M 335.13275 57.50322 L 330.20963 50.49867 L 324.92915 56.20696 L 335.13275 57.50322 M 342.14298 50.02629 L 332.36136 49.72609 L 337.28448 56.73063 L 342.14298 50.02629 M 342.26651 48.40987 L 338.27274 43.79927 L 332.48489 48.10967 L 342.26651 48.40987 M 342.49381 34.10218 L 347.09608 39.50397 L 351.23696 33.28067 L 342.49381 34.10218 M 344.78646 27.01161 L 337.40654 26.64502 L 340.70048 31.97685 L 344.78646 27.01161 M 351.16321 31.79966 L 346.50605 27.65594 L 342.42006 32.62118 L 351.16321 31.79966 M 353.07186 31.06490 L 357.68925 26.74308 L 348.41469 26.92118 L 353.07186 31.06490 M 353.25722 33.84199 L 349.11633 40.06529 L 358.65585 38.59275 L 353.25722 33.84199 M 359.90703 37.08631 L 359.12579 28.01372 L 354.50840 32.33554 L 359.90703 37.08631 M 371.64998 41.10269 L 368.66460 35.92918 L 362.87152 38.93993 L 371.64998 41.10269 M 381.43255 37.05199 L 379.62974 26.74360 L 371.61358 34.12396 L 381.43255 37.05199 M 388.86589 44.53074 L 383.74557 40.88903 L 383.19458 50.87019 L 388.86589 44.53074 M 391.51075 47.97822 L 385.83945 54.31766 L 404.90452 68.46882 L 391.51075 47.97822 M 381.48688 50.67073 L 382.03787 40.68957 L 375.20427 42.93504 L 381.48688 50.67073 M 375.07663 72.61318 L 377.36751 64.90590 L 371.68915 62.81558 L 375.07663 72.61318 M 373.56606 78.08964 L 365.01523 79.91605 L 370.44631 97.09357 L 373.56606 78.08964 M 351.96495 69.80650 L 346.00935 66.02898 L 342.06908 71.57452 L 351.96495 69.80650 M 326.24009 47.43004 L 303.37642 32.95412 L 320.95961 53.13832 L 326.24009 47.43004 M 327.55655 44.32941 L 331.49126 28.33329 L 304.69288 29.85349 L 327.55655 44.32941 M 317.71308 59.53845 L 292.05842 65.74942 L 308.33928 72.23587 L 317.71308 59.53845 M 307.46268 77.79770 L 294.12890 83.22390 L 307.75316 92.12043 L 307.46268 77.79770 M 327.57591 103.90665 L 329.54683 95.99766 L 320.39018 99.72141 L 327.57591 103.90665 M 326.16763 105.33675 L 318.98190 101.15151 L 318.28055 107.43848 L 326.16763 105.33675 M 336.20147 100.66178 L 331.52324 96.11521 L 329.55233 104.02419 L 336.20147 100.66178 M 337.85185 101.38091 L 331.20270 104.74333 L 344.72626 101.86828 L 337.85185 101.38091 M 329.26692 131.55760 L 327.45326 109.13751 L 319.56618 111.23924 L 329.26692 131.55760 M 324.34149 135.68344 L 302.92329 125.24288 L 299.76732 132.26643 L 324.34149 135.68344 M 299.00509 123.99229 L 292.99584 125.67870 L 295.84912 131.01584 L 299.00509 123.99229 M 261.98882 145.72243 L 258.51852 141.30382 L 254.50637 145.96550 L 261.98882 145.72243 M 261.32797 147.23196 L 253.84553 147.47503 L 253.23177 153.38005 L 261.32797 147.23196 M 265.29941 156.07311 L 271.81207 152.82698 L 264.66510 148.12585 L 265.29941 156.07311 M 261.25620 157.96491 L 252.52569 156.16573 L 247.56263 161.81325 L 261.25620 157.96491 M 251.65309 146.34865 L 250.06109 140.78387 L 244.76670 149.69075 L 251.65309 146.34865 M 243.39275 148.77631 L 248.68714 139.86943 L 240.66149 139.03313 L 243.39275 148.77631 M 241.62226 149.65790 L 238.89100 139.91472 L 234.52318 146.92213 L 241.62226 149.65790 M 234.25700 155.59081 L 241.04301 151.61741 L 233.94393 148.88164 L 234.25700 155.59081 M 230.99377 147.68244 L 224.22676 143.02768 L 224.52178 153.38774 L 230.99377 147.68244 M 236.91013 138.85893 L 225.77531 141.21157 L 232.54231 145.86634 L 236.91013 138.85893 M 245.48959 130.84907 L 240.37949 126.44963 L 239.97140 135.55013 L 245.48959 130.84907 M 246.70825 129.49767 L 249.72069 124.73893 L 241.59815 125.09823 L 246.70825 129.49767 M 249.08527 137.80596 L 246.57781 132.26861 L 241.05962 136.96967 L 249.08527 137.80596 M 256.62669 132.38137 L 252.04511 138.03748 L 257.64926 138.94059 L 256.62669 132.38137 M 243.67254 113.69254 L 244.88707 102.99334 L 225.35804 105.91023 L 243.67254 113.69254 M 218.42400 109.99707 L 208.91588 125.97385 L 217.23734 127.49351 L 218.42400 109.99707 M 214.51114 105.59016 L 194.61417 102.86037 L 196.32328 110.94484 L 214.51114 105.59016 M 196.93139 112.79603 L 199.47906 117.66992 L 215.11925 107.44135 L 196.93139 112.79603 M 192.40154 113.29883 L 186.38578 112.02352 L 187.44390 117.61293 L 192.40154 113.29883 M 184.77687 112.53211 L 179.53022 117.36754 L 185.83498 118.12152 L 184.77687 112.53211 M 176.36815 109.55818 L 171.53904 114.66287 L 177.00748 116.65281 L 176.36815 109.55818 M 176.69838 118.65857 L 171.22993 116.66864 L 173.89531 125.60428 L 176.69838 118.65857 M 181.67254 132.19851 L 178.01065 137.02082 L 184.51096 137.27249 L 181.67254 132.19851 M 183.97742 138.89382 L 177.47711 138.64215 L 177.40422 145.16917 L 183.97742 138.89382 M 185.10887 140.03161 L 178.53567 146.30696 L 186.52871 147.74444 L 185.10887 140.03161 M 193.22159 141.78072 L 186.94461 139.46583 L 188.36445 147.17866 L 193.22159 141.78072 M 192.27894 134.35526 L 187.43392 137.86291 L 193.71090 140.17780 L 192.27894 134.35526 M 190.97674 133.29971 L 183.29330 131.73338 L 186.13172 136.80735 L 190.97674 133.29971 M 200.32303 135.24159 L 193.89008 134.02760 L 195.32204 139.85013 L 200.32303 135.24159 M 201.50362 136.18099 L 196.50263 140.78954 L 203.33477 141.54282 L 201.50362 136.18099 M 204.56733 129.20922 L 195.04574 132.69748 L 201.47869 133.91148 L 204.56733 129.20922 M 200.71902 119.18736 L 206.85109 124.93558 L 216.35921 108.95880 L 200.71902 119.18736 M 196.05229 121.06694 L 188.54698 120.50715 L 192.66277 130.30341 L 196.05229 121.06694 M 191.15651 103.44314 L 186.84986 110.25230 L 192.86562 111.52760 L 191.15651 103.44314 M 188.06249 94.16045 L 181.59045 97.08723 L 190.03845 100.05067 L 188.06249 94.16045 M 186.56544 92.61529 L 178.06211 87.68938 L 180.09341 95.54206 L 186.56544 92.61529 M 193.57296 85.48499 L 192.04742 93.05139 L 213.92035 101.67140 L 193.57296 85.48499 M 165.00782 106.43202 L 159.14390 104.84657 L 160.19132 112.64331 L 165.00782 106.43202 M 154.42335 131.46590 L 148.22578 135.03087 L 151.14738 140.18596 L 154.42335 131.46590 M 146.84451 136.49510 L 143.37321 143.17973 L 149.76611 141.65019 L 146.84451 136.49510 M 144.29315 144.68748 L 154.20409 148.55709 L 150.68606 143.15793 L 144.29315 144.68748 M 144.31594 146.15133 L 150.86832 154.86876 L 154.22687 150.02094 L 144.31594 146.15133 M 142.70364 146.40890 L 141.32848 152.08150 L 149.25602 155.12633 L 142.70364 146.40890 M 141.70664 154.24986 L 145.72897 163.75575 L 149.63419 157.29469 L 141.70664 154.24986 M 147.37454 164.79541 L 154.87119 162.56709 L 151.27976 158.33434 L 147.37454 164.79541 M 147.86145 166.44288 L 155.17511 171.51415 L 155.35811 164.21456 L 147.86145 166.44288 M 147.27055 168.18351 L 150.63088 178.13956 L 154.58421 173.25478 L 147.27055 168.18351 M 158.24282 172.54700 L 164.70996 173.05605 L 166.11903 166.89701 L 158.24282 172.54700 M 165.47058 175.54304 L 161.46176 181.36535 L 169.74564 180.46150 L 165.47058 175.54304 M 166.90125 174.45471 L 171.17631 179.37318 L 172.90711 172.65877 L 166.90125 174.45471 M 162.07029 182.86558 L 170.33887 187.54491 L 170.35417 181.96174 L 162.07029 182.86558 M 162.71740 192.18873 L 168.46289 195.84016 L 170.20063 190.12287 L 162.71740 192.18873 M 159.47575 199.20888 L 167.12228 196.97591 L 161.37679 193.32448 L 159.47575 199.20888 M 158.28710 201.96604 L 154.33969 207.69562 L 163.46147 207.41918 L 158.28710 201.96604 M 150.19257 201.95655 L 152.68108 207.01279 L 156.62849 201.28321 L 150.19257 201.95655 M 152.12576 194.96572 L 150.12316 200.45067 L 156.55907 199.77733 L 152.12576 194.96572 M 153.47613 192.22468 L 159.81048 191.15188 L 159.02513 184.40668 L 153.47613 192.22468 M 151.58535 181.78985 L 152.44799 191.05442 L 157.99699 183.23643 L 151.58535 181.78985 M 152.02688 179.76851 L 158.43852 181.21509 L 155.98020 174.88373 L 152.02688 179.76851 M 141.99520 182.90250 L 144.55210 187.87889 L 148.93005 181.39991 L 141.99520 182.90250 M 130.75355 189.14814 L 139.41627 195.13547 L 142.24594 190.09902 L 130.75355 189.14814 M 129.51480 190.01508 L 132.33590 197.03455 L 138.17752 196.00241 L 129.51480 190.01508 M 127.45331 188.92574 L 121.68560 187.28774 L 130.27441 195.94521 L 127.45331 188.92574 M 121.53072 185.45340 L 127.29843 187.09140 L 129.03538 181.27050 L 121.53072 185.45340 M 133.44604 198.74089 L 138.39588 203.66580 L 139.28765 197.70875 L 133.44604 198.74089 M 133.62505 201.24415 L 140.71972 217.73489 L 138.57489 206.16907 L 133.62505 201.24415 M 140.55135 205.57380 L 144.62216 210.77075 L 147.51079 202.85083 L 140.55135 205.57380 M 142.26927 196.85075 L 148.33693 200.08485 L 150.33953 194.59990 L 142.26927 196.85075 M 166.79398 206.58168 L 173.35327 203.22859 L 169.26613 198.89557 L 166.79398 206.58168 M 167.12386 210.40039 L 170.07719 220.86781 L 175.51110 215.62478 L 167.12386 210.40039 M 179.20728 214.87744 L 187.07052 214.54891 L 183.39615 209.99324 L 179.20728 214.87744 M 190.59760 213.64904 L 200.59000 208.54448 L 193.75709 208.22740 L 190.59760 213.64904 M 195.07513 206.00852 L 201.90805 206.32560 L 201.14194 195.89803 L 195.07513 206.00852 M 206.24415 207.62545 L 215.78106 210.68085 L 219.46098 202.92434 L 206.24415 207.62545 M 218.43711 210.77046 L 227.49260 208.34231 L 222.11704 203.01395 L 218.43711 210.77046 M 225.74952 216.95078 L 227.94666 210.08441 L 218.89117 212.51256 L 225.74952 216.95078 M 238.61118 213.56871 L 244.01488 209.93300 L 242.25192 204.21792 L 238.61118 213.56871 M 245.77226 209.36480 L 252.67022 209.02313 L 244.00930 203.64972 L 245.77226 209.36480 M 243.98655 201.99998 L 252.64747 207.37338 L 245.59030 196.16686 L 243.98655 201.99998 M 236.27450 198.03582 L 241.93993 200.83279 L 243.54368 194.99967 L 236.27450 198.03582 M 230.82347 191.63603 L 234.29755 196.29192 L 236.86765 188.50125 L 230.82347 191.63603 M 230.19273 189.93906 L 236.23691 186.80428 L 229.25161 182.71616 L 230.19273 189.93906 M 221.93570 190.64460 L 228.40508 190.41910 L 227.46395 183.19620 L 221.93570 190.64460 M 223.88888 199.86462 L 232.67521 197.71234 L 229.20113 193.05645 L 223.88888 199.86462 M 205.72900 193.65977 L 219.71194 199.38624 L 218.55480 192.80357 L 205.72900 193.65977 M 205.29417 191.77309 L 218.11997 190.91688 L 216.23329 184.29274 L 205.29417 191.77309 M 204.11528 190.52721 L 215.05440 183.04687 L 208.68880 180.94985 L 204.11528 190.52721 M 195.02279 181.04681 L 201.61133 190.27720 L 206.18485 180.69984 L 195.02279 181.04681 M 192.67075 181.92554 L 187.36852 187.72969 L 199.25928 191.15593 L 192.67075 181.92554 M 201.48889 174.91146 L 195.00748 179.12609 L 206.16954 178.77913 L 201.48889 174.91146 M 205.76815 161.05662 L 211.65650 165.71986 L 212.25645 160.06086 L 205.76815 161.05662 M 221.57890 141.66786 L 215.45470 139.98570 L 216.23012 148.84617 L 221.57890 141.66786 M 221.84689 139.57513 L 218.37397 132.10431 L 215.72268 137.89297 L 221.84689 139.57513 M 216.68906 130.81996 L 208.36760 129.30029 L 214.03777 136.60861 L 216.68906 130.81996 M 237.47585 164.74614 L 242.95776 162.83722 L 234.86218 158.60017 L 237.47585 164.74614 M 243.55381 161.39159 L 242.24424 153.18116 L 235.45823 157.15455 L 243.55381 161.39159 M 245.41933 161.19010 L 250.38239 155.54258 L 244.10976 152.97966 L 245.41933 161.19010 M 247.82276 169.12016 L 260.66833 159.58421 L 246.97476 163.43255 L 247.82276 169.12016 M 245.08340 169.94263 L 244.23541 164.25502 L 238.75350 166.16395 L 245.08340 169.94263 M 234.68424 175.08849 L 235.87033 167.20545 L 228.68600 168.48266 L 234.68424 175.08849 M 228.71285 179.36821 L 233.78956 176.60884 L 227.79132 170.00300 L 228.71285 179.36821 M 229.84240 181.29012 L 236.82771 185.37824 L 234.91910 178.53074 L 229.84240 181.29012 M 265.52023 183.52081 L 248.42171 174.78648 L 247.51340 190.49285 L 265.52023 183.52081 M 257.87090 207.45877 L 267.76711 209.65513 L 268.82055 189.28020 L 257.87090 207.45877 M 260.60543 215.67897 L 266.74022 212.95497 L 256.84401 210.75862 L 260.60543 215.67897 M 261.22437 217.35806 L 261.79548 224.19138 L 267.35915 214.63407 L 261.22437 217.35806 M 249.44928 217.17826 L 258.44406 216.20688 L 254.68264 211.28653 L 249.44928 217.17826 M 250.63078 225.01029 L 257.93758 217.92235 L 248.94280 218.89373 L 250.63078 225.01029 M 251.99734 225.84771 L 259.87526 225.59309 L 259.30414 218.75977 L 251.99734 225.84771 M 251.51231 227.62277 L 255.42385 232.96027 L 259.39022 227.36815 L 251.51231 227.62277 M 237.85287 224.47928 L 248.12020 225.82990 L 246.43221 219.71335 L 237.85287 224.47928 M 251.34277 257.48821 L 253.84721 245.40022 L 248.04593 238.86094 L 251.34277 257.48821 M 252.66907 259.88997 L 258.65631 258.07503 L 255.17351 247.80198 L 252.66907 259.88997 M 253.23332 262.36616 L 259.68750 267.61150 L 259.22055 260.55122 L 253.23332 262.36616 M 252.91486 270.06240 L 258.89929 268.80039 L 252.44511 263.55506 L 252.91486 270.06240 M 253.79341 271.59491 L 259.47354 275.81513 L 259.77784 270.33290 L 253.79341 271.59491 M 261.09341 276.16501 L 266.75237 274.39393 L 261.39771 270.68278 L 261.09341 276.16501 M 269.29896 284.59447 L 267.74003 276.13290 L 262.08107 277.90397 L 269.29896 284.59447 M 260.84149 290.14621 L 278.55608 288.90401 L 270.36301 287.37373 L 260.84149 290.14621 M 258.63993 288.97181 L 268.16144 286.19934 L 260.94356 279.50883 L 258.63993 288.97181 M 240.65181 289.07838 L 246.82935 289.16873 L 246.54915 282.30362 L 240.65181 289.07838 M 236.00592 286.07554 L 241.90326 279.30078 L 209.66224 265.14605 L 236.00592 286.07554 M 233.22486 290.29423 L 180.69451 291.64033 L 245.84153 290.77474 L 233.22486 290.29423 M 194.31229 291.91656 L 317.73929 292.19174 L 283.88713 291.36327 L 194.31229 291.91656 M 175.12874 288.58176 L 227.65910 287.23566 L 201.31542 266.30618 L 175.12874 288.58176 M 159.50634 273.81096 L 166.60965 286.90367 L 192.79633 264.62809 L 159.50634 273.81096 M 157.34284 262.01470 L 158.34799 270.69984 L 191.63797 261.51697 L 157.34284 262.01470 M 147.12761 269.28841 L 152.78419 271.67127 L 151.77904 262.98614 L 147.12761 269.28841 M 146.91857 271.39845 L 150.10668 279.86645 L 152.57515 273.78131 L 146.91857 271.39845 M 137.94046 272.90719 L 141.69179 279.07450 L 144.35750 271.21333 L 137.94046 272.90719 M 139.29672 264.71216 L 137.64108 271.11190 L 144.05812 269.41804 L 139.29672 264.71216 M 134.70784 257.57652 L 138.77716 261.67310 L 142.31534 255.60188 L 134.70784 257.57652 M 133.17358 258.57566 L 130.04131 263.59499 L 137.24291 262.67224 L 133.17358 258.57566 M 130.38612 265.09446 L 135.93208 270.57146 L 137.58772 264.17171 L 130.38612 265.09446 M 121.25110 273.08803 L 126.93384 265.51448 L 121.19819 265.43532 L 121.25110 273.08803 M 121.43875 276.57902 L 122.64563 284.25740 L 127.17518 278.11130 L 121.43875 276.57902 M 130.74687 277.29642 L 139.99046 279.83488 L 136.23913 273.66758 L 130.74687 277.29642 M 134.40355 287.00767 L 139.76102 281.50239 L 130.51743 278.96393 L 134.40355 287.00767 M 124.02029 285.62540 L 132.43596 287.52304 L 128.54984 279.47930 L 124.02029 285.62540 M 112.77314 280.68929 L 113.29864 290.25475 L 120.14095 286.06336 L 112.77314 280.68929 M 97.59491 289.54216 L 110.48038 290.68960 L 109.95488 281.12414 L 97.59491 289.54216 M 93.92187 290.80052 L 80.57054 291.19108 L 106.80734 291.94797 L 93.92187 290.80052 M 83.62632 278.27625 L 77.67291 289.48212 L 91.02424 289.09156 L 83.62632 278.27625 M 85.25447 270.13293 L 95.25712 270.25936 L 88.09335 235.02449 L 85.25447 270.13293 M 97.68823 269.80218 L 104.70333 266.47550 L 90.52446 234.56731 L 97.68823 269.80218 M 74.70496 279.54122 L 75.63300 288.28833 L 81.58641 277.08245 L 74.70496 279.54122 M 69.62704 272.50799 L 73.95422 277.56867 L 80.83567 275.10991 L 69.62704 272.50799 M 71.01566 267.14125 L 82.22429 269.74317 L 85.06317 234.63473 L 71.01566 267.14125 M 56.35688 280.33630 L 63.71179 284.05412 L 65.76913 273.80931 L 56.35688 280.33630 M 42.56342 278.64347 L 41.20049 285.98619 L 51.27721 281.08810 L 42.56342 278.64347 M 39.46433 268.83068 L 48.62137 271.23893 L 47.64130 264.18023 L 39.46433 268.83068 M 38.37556 267.22135 L 46.55253 262.57090 L 39.91122 258.36428 L 38.37556 267.22135 M 32.67114 262.59037 L 36.64039 267.22378 L 38.17605 258.36672 L 32.67114 262.59037 M 32.13510 260.43236 L 37.64000 256.20870 L 32.35204 249.95968 L 32.13510 260.43236 M 25.24357 253.48440 L 30.58554 260.09182 L 30.80248 249.61914 L 25.24357 253.48440 M 33.20597 248.25652 L 38.49394 254.50554 L 38.96658 246.80708 L 33.20597 248.25652 M 40.67077 248.30075 L 40.19812 255.99921 L 46.83943 260.20582 L 40.67077 248.30075 M 26.83754 241.83095 L 30.98989 245.74941 L 30.67825 236.91774 L 26.83754 241.83095 M 25.02357 229.63341 L 26.09175 239.81645 L 29.93246 234.90324 L 25.02357 229.63341 M 26.42694 226.62956 L 34.34659 226.72864 L 34.30800 220.95637 L 26.42694 226.62956 M 41.12004 229.10149 L 44.18154 241.65448 L 77.51446 227.28712 L 41.12004 229.10149 M 42.81108 215.70494 L 79.24409 219.66284 L 58.05717 186.43250 L 42.81108 215.70494 M 50.68326 264.40646 L 51.66333 271.46517 L 63.80001 270.64055 L 50.68326 264.40646 M 25.79119 270.61361 L 29.42958 277.58681 L 34.90412 270.25082 L 25.79119 270.61361 M 24.90747 272.62878 L 27.83434 286.37217 L 28.54586 279.60198 L 24.90747 272.62878 M 30.10553 281.40854 L 29.39401 288.17873 L 37.38482 287.08126 L 30.10553 281.40854 M 92.79064 233.46929 L 106.96950 265.37748 L 115.81766 261.01801 L 92.79064 233.46929 M 97.83890 228.17148 L 133.10455 243.73740 L 135.11696 234.97781 L 97.83890 228.17148 M 95.13432 218.38053 L 126.23454 199.62706 L 117.64572 190.96959 L 95.13432 218.38053 M 87.89938 173.47429 L 114.82974 181.70109 L 108.12560 161.11682 L 87.89938 173.47429 M 114.90784 160.19209 L 129.11664 176.59346 L 134.65267 170.25929 L 114.90784 160.19209 M 115.87223 157.45364 L 135.61706 167.52084 L 136.83177 154.68586 L 115.87223 157.45364 M 115.43582 154.24219 L 136.39535 151.47442 L 132.12573 141.82931 L 115.43582 154.24219 M 114.03979 151.94728 L 130.72971 139.53440 L 125.22717 133.11511 L 114.03979 151.94728 M 174.00292 189.99489 L 182.02191 197.54134 L 183.37905 189.33577 L 174.00292 189.99489 M 171.01312 198.05886 L 175.10026 202.39188 L 180.76984 199.88801 L 171.01312 198.05886 M 184.04907 201.43853 L 184.39631 207.63567 L 191.23018 206.76970 L 184.04907 201.43853 M 185.06003 197.93664 L 198.30795 193.15732 L 186.41718 189.73108 L 185.06003 197.93664 M 166.28546 232.09457 L 194.15466 253.38968 L 172.05554 227.47437 L 166.28546 232.09457 M 159.44282 241.42126 L 192.57807 255.13304 L 164.70887 233.83793 L 159.44282 241.42126 M 153.12487 227.80266 L 160.34643 228.50015 L 159.63404 220.71163 L 153.12487 227.80266 M 142.82104 223.73586 L 141.90421 232.80492 L 149.20763 228.61700 L 142.82104 223.73586 M 140.85019 246.92396 L 150.54509 249.57102 L 152.12152 242.25726 L 140.85019 246.92396 M 139.84525 248.31463 L 144.08205 253.38262 L 149.54016 250.96169 L 139.84525 248.31463 M 144.24136 255.95905 L 140.70319 262.03027 L 150.11601 260.43387 L 144.24136 255.95905 M 143.06396 280.04223 L 148.91778 280.64907 L 145.72967 272.18107 L 143.06396 280.04223 M 205.33771 251.18633 L 222.92340 222.08852 L 216.06505 217.65030 L 205.33771 251.18633 M 283.21841 278.68496 L 302.57805 285.51424 L 302.74060 252.51431 L 283.21841 278.68496 M 291.77645 290.19792 L 301.20753 290.22469 L 281.84789 283.39541 L 291.77645 290.19792 M 307.02900 286.50389 L 318.82598 286.60216 L 307.19155 253.50396 L 307.02900 286.50389 M 325.00408 291.03317 L 337.62817 291.73659 L 332.19526 288.15033 L 325.00408 291.03317 M 337.35235 280.67666 L 357.84075 274.00796 L 351.20527 241.49877 L 337.35235 280.67666 M 341.58240 290.37209 L 356.63790 280.11712 L 336.14949 286.78582 L 341.58240 290.37209 M 347.38230 290.81330 L 382.54865 290.31547 L 362.43779 280.55833 L 347.38230 290.81330 M 367.34307 274.81150 L 389.97005 267.88401 L 384.10837 261.52324 L 367.34307 274.81150 M 368.35955 246.79414 L 369.51663 237.18264 L 362.95489 234.94419 L 368.35955 246.79414 M 366.52125 246.30698 L 361.11659 234.45703 L 354.81024 233.28536 L 366.52125 246.30698 M 361.77080 231.06184 L 366.27187 225.93430 L 360.94755 223.10138 L 361.77080 231.06184 M 353.92053 230.45530 L 360.22689 231.62697 L 359.40364 223.66650 L 353.92053 230.45530 M 349.78666 222.57944 L 357.90720 221.06120 L 350.89282 216.05517 L 349.78666 222.57944 M 361.19920 221.22027 L 366.52351 224.05320 L 363.78394 216.01304 L 361.19920 221.22027 M 367.76761 223.43179 L 371.15196 216.24906 L 365.02803 215.39163 L 367.76761 223.43179 M 368.45336 225.63267 L 370.51403 232.99868 L 371.83771 218.44994 L 368.45336 225.63267 M 361.47791 213.41657 L 355.08967 208.28751 L 351.87879 213.61777 L 361.47791 213.41657 M 362.79588 212.59927 L 362.42256 207.07940 L 356.40764 207.47021 L 362.79588 212.59927 M 361.63994 205.43591 L 356.53491 199.45139 L 355.62502 205.82672 L 361.63994 205.43591 M 354.06116 205.04465 L 354.97106 198.66932 L 349.12911 199.17931 L 354.06116 205.04465 M 354.88380 196.82345 L 353.36311 190.27774 L 349.04185 197.33345 L 354.88380 196.82345 M 347.47412 196.37562 L 351.79537 189.31990 L 342.34193 189.16076 L 347.47412 196.37562 M 342.72571 205.35796 L 346.17060 199.07459 L 339.67992 197.41345 L 342.72571 205.35796 M 335.37248 203.83521 L 341.37595 205.95304 L 338.33015 198.00853 L 335.37248 203.83521 M 333.21695 202.91170 L 336.17462 197.08502 L 324.13169 198.56498 L 333.21695 202.91170 M 329.94046 207.71371 L 320.85520 203.36700 L 309.96274 235.50114 L 329.94046 207.71371 M 337.46364 194.08187 L 338.82214 188.52815 L 330.12771 185.92012 L 337.46364 194.08187 M 351.27517 186.91277 L 343.31247 177.11851 L 341.82172 186.75363 L 351.27517 186.91277 M 353.34278 185.32121 L 358.36264 174.02118 L 345.38008 175.52696 L 353.34278 185.32121 M 355.38474 186.18767 L 361.71575 182.45861 L 360.40460 174.88763 L 355.38474 186.18767 M 363.55044 191.78995 L 362.10898 184.57140 L 355.77797 188.30046 L 363.55044 191.78995 M 362.86325 193.25778 L 355.09078 189.76828 L 356.61147 196.31399 L 362.86325 193.25778 M 369.88229 198.33014 L 374.03083 194.13179 L 366.44224 193.96663 L 369.88229 198.33014 M 374.47129 192.65169 L 373.40595 186.48936 L 366.88270 192.48653 L 374.47129 192.65169 M 382.53589 193.06655 L 376.49835 194.55587 L 375.99629 203.04696 L 382.53589 193.06655 M 382.45543 190.97320 L 375.35254 186.30020 L 376.41788 192.46253 L 382.45543 190.97320 M 386.74996 196.10694 L 380.21036 206.08735 L 410.21089 218.87902 L 386.74996 196.10694 M 394.19649 184.75592 L 383.92208 183.52563 L 385.38300 189.80863 L 394.19649 184.75592 M 397.96480 182.73356 L 405.02318 178.51632 L 398.19669 176.61672 L 397.96480 182.73356 M 396.19557 176.37266 L 389.01424 176.56381 L 395.96369 182.48950 L 396.19557 176.37266 M 395.42430 174.70502 L 389.79352 169.14839 L 388.24297 174.89618 L 395.42430 174.70502 M 396.69718 173.77220 L 398.42602 167.43358 L 391.06640 168.21557 L 396.69718 173.77220 M 396.96951 164.42413 L 388.26124 154.49344 L 386.39380 160.40923 L 396.96951 164.42413 M 401.13126 161.80877 L 419.68776 139.48637 L 392.42298 151.87808 L 401.13126 161.80877 M 389.80256 166.73650 L 397.16218 165.95451 L 386.58647 161.93961 L 389.80256 166.73650 M 384.23692 161.64546 L 378.36580 163.60128 L 387.45301 166.44234 L 384.23692 161.64546 M 383.03577 160.24917 L 377.84376 155.27207 L 377.16464 162.20500 L 383.03577 160.24917 M 384.14127 159.12465 L 386.00871 153.20887 L 378.94927 154.14755 L 384.14127 159.12465 M 377.06815 151.97108 L 380.20032 146.83437 L 373.01962 145.91092 L 377.06815 151.97108 M 381.78718 147.56601 L 378.65501 152.70272 L 385.71444 151.76404 L 381.78718 147.56601 M 380.77632 145.24081 L 381.67614 139.22259 L 373.59561 144.31736 L 380.77632 145.24081 M 382.06320 135.08954 L 381.57987 123.98564 L 376.27558 128.37512 L 382.06320 135.08954 M 370.56828 134.05769 L 373.31075 128.88937 L 366.39129 129.64574 L 370.56828 134.05769 M 369.41752 135.87802 L 365.24053 131.46607 L 364.10463 143.45204 L 369.41752 135.87802 M 373.31108 125.57298 L 370.57091 107.52653 L 366.39162 126.32934 L 373.31108 125.57298 M 363.68654 123.67776 L 367.86584 104.87495 L 351.67046 104.36033 L 363.68654 123.67776 M 351.69547 158.80037 L 356.08560 153.66576 L 336.01821 141.78975 L 351.69547 158.80037 M 337.16446 169.08936 L 329.13121 143.41351 L 308.63363 157.99056 L 337.16446 169.08936 M 326.67187 180.78830 L 336.85704 173.76121 L 308.32621 162.66241 L 326.67187 180.78830 M 320.44314 195.04711 L 325.15013 185.40541 L 311.04447 182.93048 L 320.44314 195.04711 M 363.85120 180.94826 L 372.46836 174.10485 L 362.54005 173.37728 L 363.85120 180.94826 M 373.14104 183.42569 L 373.79348 175.36090 L 365.17633 182.20431 L 373.14104 183.42569 M 375.08486 183.37018 L 380.72682 181.76019 L 375.73730 175.30539 L 375.08486 183.37018 M 382.00781 180.85942 L 385.33278 176.16402 L 377.01829 174.40462 L 382.00781 180.85942 M 386.02928 174.67214 L 387.57983 168.92436 L 377.71479 172.91274 L 386.02928 174.67214 M 417.70519 171.53501 L 425.83583 171.92197 L 425.24185 142.79416 L 417.70519 171.53501 M 418.01123 136.60824 L 387.71900 138.78370 L 390.74645 148.99995 L 418.01123 136.60824 M 403.00712 72.65585 L 381.28225 66.13593 L 378.99138 73.84321 L 403.00712 72.65585 M 412.11343 46.38540 L 394.79500 46.98668 L 408.18877 67.47729 L 412.11343 46.38540 M 415.61245 41.25977 L 420.29340 33.85218 L 414.18151 34.48108 L 415.61245 41.25977 M 422.07224 45.50510 L 415.52309 46.20021 L 411.59842 67.29209 L 422.07224 45.50510 M 421.29822 31.00527 L 423.73689 25.31656 L 415.10044 24.80210 L 421.29822 31.00527 M 411.70126 31.96871 L 411.61538 25.13664 L 401.96824 27.36391 L 411.70126 31.96871 M 400.98179 38.12507 L 398.65310 29.90996 L 392.49864 41.89472 L 400.98179 38.12507 M 396.70975 29.92824 L 385.43497 38.27128 L 390.55528 41.91300 L 396.70975 29.92824 M 395.72073 27.93537 L 382.64314 25.97003 L 384.44595 36.27841 L 395.72073 27.93537 M 373.29323 205.12743 L 369.64675 200.83469 L 365.05995 205.51191 L 373.29323 205.12743 M 373.56615 206.70664 L 365.33287 207.09113 L 371.83011 213.46843 L 373.56615 206.70664 M 379.02812 208.47910 L 377.29208 215.24088 L 409.02866 221.27076 L 379.02812 208.47910 M 414.67160 215.40715 L 407.08255 183.36512 L 400.02417 187.58236 L 414.67160 215.40715 M 419.59332 223.82484 L 425.34511 256.35670 L 426.05710 190.35001 L 419.59332 223.82484 M 426.19378 262.17579 L 426.38265 270.37755 L 426.90576 196.16910 L 426.19378 262.17579 M 414.63244 265.92435 L 423.91703 265.80349 L 418.16524 233.27163 L 414.63244 265.92435 M 405.22136 274.03292 L 410.21225 270.78933 L 397.07918 268.82707 L 405.22136 274.03292 M 404.14018 281.66934 L 404.46236 275.39292 L 396.32018 270.18707 L 404.14018 281.66934 M 406.36557 282.70299 L 414.12330 278.45627 L 406.68775 276.42657 L 406.36557 282.70299 M 406.98797 284.21688 L 411.66690 288.53772 L 414.74569 279.97017 L 406.98797 284.21688 M 394.06699 290.76911 L 409.08206 289.88759 L 404.40313 285.56675 L 394.06699 290.76911 M 295.94646 245.63818 L 260.58318 246.02050 L 264.06598 256.29355 L 295.94646 245.63818 M 150.35954 47.01107 L 163.90864 59.64006 L 166.22703 52.85779 L 150.35954 47.01107 M 146.09566 48.57744 L 140.30349 61.91391 L 151.45721 64.68120 L 146.09566 48.57744" fill="none" stroke="black" stroke-width="0.01cm" />
   </g>
</svg>