<?xml version="1.0" standalone="no"?>
  <!DOCTYPE svg PUBLIC "-//W3C//DTD SVG 1.1//EN" 
    "http://www.w3.org/Graphics/SVG/1.1/DTD/svg11.dtd">
  <svg width="15.875cm" height="11.43cm"
       xmlns="http://www.w3.org/2000/svg" version="1.1" viewBox="0 0 562.49999 404.99999">
   <g>
     <path d="M 264.61419 198.34615 L 258.96538 197.76481 L 256.48600 203.60182 L 264.61419 198.34615 M 265.90712 194.57979 L 266.82944 173.47098 L 260.25831 193.99846 L 265.90712 194.57979 M 269.95074 193.07197 L 292.60721 181.93587 L 270.87305 171.96316 L 269.95074 193.07197 M 250.26597 195.62047 L 244.57548 200.32100 L 253.29288 203.58298 L 250.26597 195.62047 M 248.52242 193.60265 L 239.34453 187.44044 L 242.83194 198.30318 L 248.52242 193.60265 M 244.19077 201.65704 L 247.18827 206.30880 L 252.90817 204.91903 L 244.19077 201.65704 M 247.07878 207.69172 L 243.31493 212.72040 L 252.79869 206.30195 L 247.07878 207.69172 M 232.19619 212.15167 L 229.02088 231.35808 L 239.01933 215.99996 L 232.19619 212.15167 M 224.40232 204.05597 L 215.90912 214.62905 L 229.11521 208.96578 L 224.40232 204.05597 M 231.57298 198.62267 L 226.36030 202.05517 L 231.07320 206.96498 L 231.57298 198.62267 M 233.33046 198.49091 L 232.83068 206.83322 L 240.42018 201.00107 L 233.33046 198.49091 M 227.21533 189.67260 L 223.61904 193.61386 L 230.83974 195.76337 L 227.21533 189.67260 M 221.60198 195.24362 L 216.29152 199.27823 L 223.61000 200.82564 L 221.60198 195.24362 M 215.36507 201.58610 L 214.19035 213.70658 L 222.68355 203.13351 L 215.36507 201.58610 M 213.94262 188.27092 L 215.08310 197.70889 L 220.39356 193.67428 L 213.94262 188.27092 M 201.51989 189.57164 L 202.00952 198.21490 L 206.19897 194.15758 L 201.51989 189.57164 M 200.16880 189.67568 L 195.39026 194.98992 L 200.65843 198.31894 L 200.16880 189.67568 M 191.73509 185.27252 L 184.02978 188.28895 L 192.60556 193.38624 L 191.73509 185.27252 M 181.45345 189.25919 L 177.74927 192.53531 L 183.40441 194.85557 L 181.45345 189.25919 M 176.83718 193.85525 L 174.15670 199.81864 L 182.49231 196.17550 L 176.83718 193.85525 M 170.19919 189.56742 L 167.33209 194.34972 L 174.71299 192.51336 L 170.19919 189.56742 M 168.53849 188.95586 L 161.42733 187.62088 L 165.67139 193.73816 L 168.53849 188.95586 M 171.25283 182.91230 L 179.47080 182.58211 L 172.05699 144.38493 L 171.25283 182.91230 M 161.95179 181.43378 L 169.06295 182.76876 L 169.86711 144.24139 L 161.95179 181.43378 M 166.24349 196.69898 L 164.17089 202.39807 L 170.94391 200.82601 L 166.24349 196.69898 M 161.59120 204.48390 L 154.65221 204.15087 L 159.31800 212.14658 L 161.59120 204.48390 M 152.35245 204.46713 L 143.19317 207.01400 L 157.01824 212.46284 L 152.35245 204.46713 M 147.74510 198.15891 L 152.71562 201.59212 L 155.73484 195.44279 L 147.74510 198.15891 M 148.18336 190.32012 L 147.17856 196.74991 L 155.16831 194.03379 L 148.18336 190.32012 M 138.75930 181.57672 L 131.46013 183.66062 L 136.29226 188.82089 L 138.75930 181.57672 M 131.79778 174.66190 L 130.89832 181.89074 L 138.19749 179.80685 L 131.79778 174.66190 M 129.95586 174.33772 L 123.46211 177.21344 L 129.05640 181.56657 L 129.95586 174.33772 M 122.80821 175.41493 L 129.30197 172.53921 L 123.82526 167.17848 L 122.80821 175.41493 M 118.99366 183.81027 L 123.18964 188.18053 L 127.80810 183.83764 L 118.99366 183.81027 M 124.51257 189.38815 L 129.57705 193.47125 L 129.13102 185.04526 L 124.51257 189.38815 M 123.75025 190.79435 L 123.03247 196.29487 L 128.81473 194.87745 L 123.75025 190.79435 M 123.27811 198.03518 L 125.71532 204.71683 L 129.06036 196.61776 L 123.27811 198.03518 M 115.64388 201.52873 L 115.78980 209.56206 L 123.39257 206.54326 L 115.64388 201.52873 M 113.74460 201.14549 L 108.19838 203.47736 L 113.89052 209.17882 L 113.74460 201.14549 M 108.01181 196.39873 L 107.46354 201.87984 L 113.00976 199.54798 L 108.01181 196.39873 M 114.48113 193.59759 L 108.88901 195.36344 L 113.88696 198.51270 L 114.48113 193.59759 M 115.95390 193.80932 L 115.35974 198.72443 L 120.67121 197.05731 L 115.95390 193.80932 M 106.31918 203.77042 L 98.71101 203.48998 L 112.01133 209.47188 L 106.31918 203.77042 M 95.00705 201.79150 L 97.68533 197.00217 L 87.30951 200.95378 L 95.00705 201.79150 M 94.10201 205.67122 L 86.40447 204.83350 L 90.44507 228.03995 L 94.10201 205.67122 M 82.43647 206.80848 L 62.35802 221.47101 L 86.47707 230.01492 L 82.43647 206.80848 M 68.12212 192.84478 L 73.80175 198.74746 L 81.66856 200.15362 L 68.12212 192.84478 M 65.37323 193.13572 L 59.67745 202.48112 L 71.05286 199.03840 L 65.37323 193.13572 M 69.46013 189.24589 L 83.00657 196.55474 L 84.50584 169.95636 L 69.46013 189.24589 M 52.69130 187.56141 L 57.38225 201.04650 L 63.07804 191.70109 L 52.69130 187.56141 M 49.07760 187.83365 L 41.42484 193.83128 L 46.51213 201.36646 L 49.07760 187.83365 M 40.28280 195.51654 L 39.94122 201.31572 L 45.37009 203.05172 L 40.28280 195.51654 M 33.16867 189.92537 L 31.94135 196.26417 L 38.03821 193.49677 L 33.16867 189.92537 M 23.20690 184.38037 L 21.06336 190.89859 L 30.31208 188.31626 L 23.20690 184.38037 M 23.38392 181.68881 L 29.30784 178.49670 L 23.66077 176.49410 L 23.38392 181.68881 M 24.41759 175.28121 L 30.06466 177.28381 L 29.43846 171.98572 L 24.41759 175.28121 M 22.91410 168.80908 L 23.52377 174.22187 L 28.54464 170.92638 L 22.91410 168.80908 M 31.17816 171.81035 L 31.80435 177.10845 L 38.33511 173.87829 L 31.17816 171.81035 M 37.88003 164.98108 L 40.68251 171.55344 L 46.22901 163.01405 L 37.88003 164.98108 M 40.23714 154.89741 L 47.40275 159.51583 L 48.88910 150.15315 L 40.23714 154.89741 M 37.74148 143.97661 L 39.02948 152.95501 L 47.68144 148.21075 L 37.74148 143.97661 M 35.78177 144.23173 L 32.00374 150.25173 L 37.06977 153.21013 L 35.78177 144.23173 M 31.36674 136.98459 L 27.04743 142.34169 L 34.59740 141.55000 L 31.36674 136.98459 M 21.93251 133.90364 L 25.46432 141.38590 L 29.78362 136.02879 L 21.93251 133.90364 M 24.44830 126.35261 L 21.80551 132.02448 L 29.65662 134.14963 L 24.44830 126.35261 M 14.79971 128.74404 L 19.94839 131.34878 L 22.59119 125.67691 L 14.79971 128.74404 M 12.87778 135.92883 L 17.35237 139.48317 L 19.15276 133.68112 L 12.87778 135.92883 M 12.16785 137.30341 L 13.47333 144.67775 L 16.64244 140.85775 L 12.16785 137.30341 M 18.81105 141.92220 L 21.01542 147.95879 L 24.14325 143.60240 L 18.81105 141.92220 M 13.05109 145.93687 L 11.74562 138.56253 L 13.26454 150.93070 L 13.05109 145.93687 M 14.00523 147.30701 L 14.21867 152.30083 L 19.37871 149.52359 L 14.00523 147.30701 M 14.70296 153.74479 L 17.87951 158.85863 L 19.86299 150.96755 L 14.70296 153.74479 M 13.96526 155.46554 L 13.96137 164.73360 L 17.14181 160.57939 L 13.96526 155.46554 M 22.31934 150.44711 L 25.47051 156.60042 L 29.21911 151.31903 L 22.31934 150.44711 M 27.17991 157.14761 L 35.99454 154.82462 L 30.92851 151.86622 L 27.17991 157.14761 M 27.73458 158.51102 L 35.36583 162.77347 L 36.54920 156.18802 L 27.73458 158.51102 M 26.94345 160.09529 L 30.22023 168.86216 L 34.57471 164.35774 L 26.94345 160.09529 M 13.40997 169.90025 L 12.29526 184.10291 L 13.84917 178.44187 L 13.40997 169.90025 M 13.69260 198.89498 L 21.23036 203.82209 L 18.99714 194.23420 L 13.69260 198.89498 M 12.61787 210.49961 L 16.49375 281.93468 L 14.06112 220.56329 L 12.61787 210.49961 M 22.52480 218.09226 L 19.92757 248.36396 L 27.35982 219.35810 L 22.52480 218.09226 M 14.72480 226.36081 L 17.15743 287.73221 L 17.92730 256.87981 L 14.72480 226.36081 M 24.60397 205.33364 L 32.66009 207.23091 L 30.39215 199.50222 L 24.60397 205.33364 M 34.01621 209.97588 L 30.50034 214.72832 L 36.70082 214.81233 L 34.01621 209.97588 M 35.79222 208.87398 L 38.47683 213.71042 L 44.70842 205.91307 L 35.79222 208.87398 M 35.90689 207.51207 L 44.82310 204.55116 L 39.39423 202.81517 L 35.90689 207.51207 M 40.02316 214.15602 L 48.16291 212.43877 L 46.25476 206.35867 L 40.02316 214.15602 M 58.74430 205.61989 L 57.90807 218.24586 L 70.11971 202.17717 L 58.74430 205.61989 M 60.65696 217.95492 L 80.73542 203.29239 L 72.86860 201.88623 L 60.65696 217.95492 M 95.70000 234.07880 L 115.14364 247.16239 L 112.65726 217.69197 L 95.70000 234.07880 M 116.24874 215.79092 L 118.73512 245.26134 L 124.43179 218.87034 L 116.24874 215.79092 M 124.58242 208.13079 L 116.97965 211.14960 L 125.16271 214.22902 L 124.58242 208.13079 M 127.10094 207.67664 L 127.68122 213.77487 L 137.12777 207.51639 L 127.10094 207.67664 M 127.49590 205.64846 L 137.52274 205.48820 L 130.84094 197.54939 L 127.49590 205.64846 M 146.19304 233.45153 L 163.98992 231.21737 L 158.64461 218.37260 L 146.19304 233.45153 M 144.87501 239.89511 L 151.00893 256.82099 L 159.76335 250.76117 L 144.87501 239.89511 M 153.34333 259.90818 L 163.55023 264.59267 L 162.09775 253.84836 L 153.34333 259.90818 M 152.48002 261.52825 L 155.19128 266.80894 L 162.68692 266.21274 L 152.48002 261.52825 M 156.36595 268.48702 L 161.87740 274.95286 L 163.86159 267.89082 L 156.36595 268.48702 M 149.22140 273.42914 L 150.69764 281.97826 L 153.80178 278.13908 L 149.22140 273.42914 M 155.90839 278.82853 L 157.73292 283.74860 L 161.14560 277.86389 L 155.90839 278.82853 M 151.61262 283.35397 L 156.54130 284.43486 L 154.71677 279.51479 L 151.61262 283.35397 M 151.52437 284.79007 L 154.01070 291.00359 L 156.45304 285.87096 L 151.52437 284.79007 M 146.79490 288.99359 L 152.80344 291.39391 L 150.31710 285.18040 L 146.79490 288.99359 M 146.33945 290.27514 L 146.67355 295.43273 L 152.34799 292.67546 L 146.33945 290.27514 M 139.06326 293.62681 L 145.01296 295.55165 L 144.67886 290.39405 L 139.06326 293.62681 M 139.60966 295.34792 L 149.05009 304.16294 L 145.55936 297.27276 L 139.60966 295.34792 M 136.94221 297.05993 L 124.21976 310.96886 L 146.38264 305.87496 L 136.94221 297.05993 M 138.94459 278.96203 L 139.93027 284.21865 L 148.01449 283.26853 L 138.94459 278.96203 M 139.88859 277.60500 L 148.95849 281.91150 L 147.48225 273.36238 L 139.88859 277.60500 M 128.92972 275.14424 L 130.01380 283.69960 L 135.72223 278.00166 L 128.92972 275.14424 M 120.15256 281.96575 L 115.14538 287.17400 L 126.75225 285.47669 L 120.15256 281.96575 M 113.69772 277.73037 L 113.51357 286.20571 L 118.52075 280.99746 L 113.69772 277.73037 M 105.77604 277.12124 L 105.65788 282.37372 L 111.40879 276.87390 L 105.77604 277.12124 M 107.34675 269.96002 L 105.98715 275.56953 L 111.61990 275.32219 L 107.34675 269.96002 M 108.32301 269.16293 L 112.59616 274.52510 L 113.79726 269.19280 L 108.32301 269.16293 M 101.08331 268.88031 L 106.74205 267.71560 L 111.08142 261.81164 L 101.08331 268.88031 M 90.65618 270.20038 L 91.10261 275.47356 L 97.07613 270.67438 L 90.65618 270.20038 M 90.03095 269.02037 L 96.45090 269.49437 L 86.10078 266.03349 L 90.03095 269.02037 M 88.44622 265.09139 L 98.79634 268.55228 L 108.79444 261.48361 L 88.44622 265.09139 M 87.61154 261.54081 L 107.95977 257.93303 L 92.11893 240.14763 L 87.61154 261.54081 M 77.52357 266.68298 L 82.09876 265.00577 L 72.94010 262.58230 L 77.52357 266.68298 M 71.37039 270.06739 L 76.31102 276.18413 L 76.70608 268.75669 L 71.37039 270.06739 M 70.72064 271.66538 L 71.50807 281.54061 L 75.66126 277.78212 L 70.72064 271.66538 M 82.52878 274.11295 L 78.52119 278.17740 L 85.43928 282.65055 L 82.52878 274.11295 M 83.86404 273.99230 L 86.77455 282.52989 L 89.20331 277.21216 L 83.86404 273.99230 M 91.85415 276.48471 L 96.66845 278.28963 L 97.82766 271.68554 L 91.85415 276.48471 M 98.20105 281.05257 L 99.93404 288.89094 L 103.54124 284.14576 L 98.20105 281.05257 M 89.16038 284.62533 L 98.13644 288.95089 L 96.40345 281.11251 L 89.16038 284.62533 M 80.94641 291.95209 L 87.44889 301.46108 L 86.25543 287.21975 L 80.94641 291.95209 M 79.17754 292.78448 L 72.10446 293.87888 L 85.68002 302.29348 L 79.17754 292.78448 M 68.43105 294.49739 L 49.79027 297.73255 L 82.00661 302.91198 L 68.43105 294.49739 M 61.23053 280.44989 L 68.32799 290.46756 L 69.63881 283.92616 L 61.23053 280.44989 M 59.38060 281.37479 L 54.83938 291.32538 L 66.47807 291.39246 L 59.38060 281.37479 M 55.06177 275.13997 L 55.75066 266.64748 L 26.69732 259.95697 L 55.06177 275.13997 M 74.23761 259.28653 L 83.39627 261.71000 L 87.90366 240.31682 L 74.23761 259.28653 M 111.38134 256.74595 L 114.98415 252.04414 L 95.54051 238.96055 L 111.38134 256.74595 M 114.46896 260.98228 L 115.60384 266.91610 L 122.70939 262.21552 L 114.46896 260.98228 M 116.57366 270.17164 L 120.19559 278.77104 L 125.71119 273.72662 L 116.57366 270.17164 M 124.17688 263.57106 L 117.07132 268.27165 L 126.20885 271.82663 L 124.17688 263.57106 M 139.25843 264.58063 L 147.41831 269.66554 L 149.01319 261.66431 L 139.25843 264.58063 M 121.44985 247.73973 L 137.96657 235.61803 L 127.14652 221.34873 L 121.44985 247.73973 M 165.61914 251.55047 L 175.23534 254.59784 L 173.35070 249.22193 L 165.61914 251.55047 M 169.17404 243.58679 L 164.86147 250.17409 L 172.59304 247.84555 L 169.17404 243.58679 M 170.59348 242.15977 L 174.01248 246.41852 L 176.21697 238.75789 L 170.59348 242.15977 M 167.08101 235.53505 L 164.17247 248.63527 L 168.48504 242.04798 L 167.08101 235.53505 M 176.38109 230.60565 L 177.81082 236.06025 L 182.56953 233.69387 L 176.38109 230.60565 M 177.47127 229.22492 L 183.65971 232.31314 L 186.53227 225.01439 L 177.47127 229.22492 M 185.17930 236.23377 L 183.57125 246.46668 L 194.10863 243.05831 L 185.17930 236.23377 M 188.69195 226.43050 L 185.81939 233.72924 L 194.74872 240.55378 L 188.69195 226.43050 M 191.55953 224.74565 L 197.61630 238.86894 L 208.76004 220.25047 L 191.55953 224.74565 M 178.66156 216.62694 L 187.43797 221.26832 L 190.62079 211.19645 L 178.66156 216.62694 M 176.91244 218.66728 L 176.62787 227.51919 L 185.68886 223.30866 L 176.91244 218.66728 M 162.02736 216.45408 L 167.37267 229.29885 L 173.25503 218.10340 L 162.02736 216.45408 M 186.26669 197.21475 L 192.07175 206.31147 L 192.89151 196.71565 L 186.26669 197.21475 M 201.74409 202.61645 L 195.65617 208.88324 L 209.67387 214.45993 L 201.74409 202.61645 M 216.12878 218.07422 L 226.15956 231.61737 L 229.33487 212.41095 L 216.12878 218.07422 M 212.07716 222.51072 L 200.93342 241.12919 L 218.09648 242.82766 L 212.07716 222.51072 M 221.77886 246.12523 L 220.36164 253.96663 L 225.79032 239.35144 L 221.77886 246.12523 M 227.90556 256.03080 L 282.13018 262.63861 L 233.33424 241.41561 L 227.90556 256.03080 M 228.08824 262.58127 L 234.79568 293.81933 L 282.31286 269.18907 L 228.08824 262.58127 M 198.96969 248.75974 L 197.78449 275.71376 L 214.71553 258.29961 L 198.96969 248.75974 M 182.84574 248.66710 L 179.37523 253.83711 L 193.38313 245.25872 L 182.84574 248.66710 M 177.54388 259.52582 L 169.38016 267.22275 L 190.36659 277.90145 L 177.54388 259.52582 M 165.84568 278.82567 L 167.12576 288.79081 L 188.81630 282.44233 L 165.84568 278.82567 M 171.77058 305.85465 L 186.59308 311.14720 L 191.63765 287.92959 L 171.77058 305.85465 M 204.19127 313.54446 L 214.52058 305.03062 L 198.34301 288.10440 L 204.19127 313.54446 M 205.77018 318.83144 L 212.31471 323.52470 L 214.75906 317.19316 L 205.77018 318.83144 M 215.29974 315.30643 L 216.64017 308.43087 L 206.31086 316.94471 L 215.29974 315.30643 M 217.50657 314.84209 L 223.96551 313.23002 L 218.84700 307.96654 L 217.50657 314.84209 M 217.89201 316.45439 L 221.93048 320.86492 L 224.35094 314.84232 L 217.89201 316.45439 M 223.69124 320.84714 L 231.97803 316.31219 L 226.11169 314.82454 L 223.69124 320.84714 M 224.09749 322.48643 L 229.36168 327.93879 L 232.38428 317.95147 L 224.09749 322.48643 M 231.67684 329.89356 L 238.80140 332.20408 L 238.51676 325.82675 L 231.67684 329.89356 M 242.44826 333.32729 L 254.47444 336.63262 L 248.54093 329.19660 L 242.44826 333.32729 M 235.48916 341.59638 L 238.42295 334.17528 L 231.29839 331.86477 L 235.48916 341.59638 M 240.19203 353.05922 L 235.35475 346.55614 L 228.31965 357.61870 L 240.19203 353.05922 M 241.74856 359.63639 L 240.99126 354.69426 L 229.11888 359.25373 L 241.74856 359.63639 M 243.93481 368.40410 L 249.68122 367.23265 L 244.36032 362.04625 L 243.93481 368.40410 M 252.51639 366.62741 L 258.64167 365.42419 L 255.16998 359.57895 L 252.51639 366.62741 M 260.90205 363.89737 L 270.59942 354.41281 L 257.43036 358.05212 L 260.90205 363.89737 M 263.91191 365.02447 L 281.50927 367.06895 L 273.60929 355.53991 L 263.91191 365.02447 M 281.91368 369.55332 L 264.31632 367.50884 L 276.84455 375.41488 L 281.91368 369.55332 M 284.69747 366.93745 L 289.41756 363.97248 L 276.79749 355.40842 L 284.69747 366.93745 M 293.43448 372.76336 L 291.49719 366.14185 L 286.77710 369.10682 L 293.43448 372.76336 M 295.00464 372.81437 L 299.33840 369.51488 L 293.06735 366.19286 L 295.00464 372.81437 M 301.23995 375.73321 L 300.35997 370.70742 L 296.02622 374.00691 L 301.23995 375.73321 M 297.43326 381.39863 L 300.87411 377.06961 L 295.66038 375.34331 L 297.43326 381.39863 M 303.61322 384.10843 L 301.86822 378.16525 L 298.42737 382.49427 L 303.61322 384.10843 M 306.35058 384.03659 L 314.97264 381.49353 L 309.95915 378.51947 L 306.35058 384.03659 M 302.62224 391.95576 L 312.54684 391.52930 L 305.26583 386.64460 L 302.62224 391.95576 M 292.34530 388.44803 L 295.55835 383.50914 L 287.31495 382.95944 L 292.34530 388.44803 M 286.40068 392.04226 L 298.30411 392.43547 L 292.54880 390.44905 L 286.40068 392.04226 M 287.52069 381.38884 L 295.76408 381.93853 L 293.99120 375.88321 L 287.52069 381.38884 M 310.46602 375.94811 L 314.87431 372.86676 L 311.01081 369.52117 L 310.46602 375.94811 M 315.67447 371.28941 L 316.86732 363.32931 L 311.81097 367.94382 L 315.67447 371.28941 M 321.28995 369.26704 L 318.05219 363.49472 L 316.85934 371.45481 L 321.28995 369.26704 M 326.19766 374.64198 L 330.80881 371.24344 L 323.74494 370.48213 L 326.19766 374.64198 M 330.76127 381.48883 L 331.68586 372.61927 L 327.07470 376.01782 L 330.76127 381.48883 M 332.04304 381.92559 L 337.32890 379.51193 L 332.96763 373.05604 L 332.04304 381.92559 M 339.50178 369.19056 L 340.45445 360.11174 L 335.13162 363.20730 L 339.50178 369.19056 M 334.59363 361.58181 L 339.91646 358.48626 L 335.19787 356.18669 L 334.59363 361.58181 M 333.15039 361.60744 L 333.75463 356.21232 L 328.37058 358.69130 L 333.15039 361.60744 M 336.00355 354.97600 L 340.72214 357.27557 L 341.03907 351.89631 L 336.00355 354.97600 M 333.28696 354.04286 L 331.04514 349.02067 L 326.26678 351.75292 L 333.28696 354.04286 M 331.06745 346.96669 L 333.74202 342.91336 L 326.01249 344.39667 L 331.06745 346.96669 M 318.48443 346.87804 L 323.05184 344.00306 L 319.67917 339.45952 L 318.48443 346.87804 M 309.82363 350.37191 L 308.14733 343.24417 L 304.71538 349.86524 L 309.82363 350.37191 M 301.85445 359.82761 L 308.97479 358.49554 L 303.92185 352.61047 L 301.85445 359.82761 M 295.91150 351.68168 L 302.02556 350.21835 L 297.85108 345.11238 L 295.91150 351.68168 M 299.21480 343.95746 L 303.38927 349.06343 L 306.82122 342.44236 L 299.21480 343.95746 M 292.56656 334.17145 L 292.08747 280.39042 L 258.28885 323.04127 L 292.56656 334.17145 M 308.34005 333.46055 L 316.01899 330.98998 L 300.25454 281.19462 L 308.34005 333.46055 M 341.35684 328.02489 L 347.37542 329.84029 L 349.73628 323.54803 L 341.35684 328.02489 M 349.43599 329.96560 L 357.84141 329.02735 L 351.79685 323.67334 L 349.43599 329.96560 M 361.02964 327.84840 L 367.57729 324.40693 L 362.34962 318.62143 L 361.02964 327.84840 M 369.14406 323.22391 L 373.56384 318.38422 L 363.91640 317.43841 L 369.14406 323.22391 M 369.83882 334.15519 L 368.51344 326.34865 L 361.96579 329.79012 L 369.83882 334.15519 M 373.41633 334.80237 L 382.65764 334.41567 L 380.01913 327.54776 L 373.41633 334.80237 M 372.76173 344.09660 L 379.80375 343.94349 L 372.29285 337.69978 L 372.76173 344.09660 M 365.16963 340.63175 L 370.93247 343.68263 L 370.46359 337.28581 L 365.16963 340.63175 M 363.97793 339.09434 L 369.27189 335.74840 L 361.39886 331.38333 L 363.97793 339.09434 M 362.57001 339.21305 L 359.99093 331.50204 L 358.00850 336.69809 L 362.57001 339.21305 M 363.71868 347.91113 L 370.08936 345.01080 L 364.32652 341.95992 L 363.71868 347.91113 M 368.32904 352.92158 L 370.58967 346.38101 L 364.21899 349.28133 L 368.32904 352.92158 M 369.64411 353.21976 L 374.73961 351.66677 L 371.90475 346.67919 L 369.64411 353.21976 M 372.93270 358.94994 L 374.86811 353.20062 L 369.77261 354.75361 L 372.93270 358.94994 M 374.21584 359.30024 L 380.03771 357.55603 L 376.15125 353.55092 L 374.21584 359.30024 M 371.85650 361.26827 L 364.24995 362.09828 L 370.70498 366.72091 L 371.85650 361.26827 M 369.46684 369.64135 L 363.01181 365.01873 L 361.95139 384.63183 L 369.46684 369.64135 M 381.36414 364.40376 L 387.69113 362.45038 L 382.11418 359.11192 L 381.36414 364.40376 M 390.03241 361.20950 L 395.21933 357.08405 L 389.33052 355.26367 L 390.03241 361.20950 M 390.09398 353.31392 L 395.98279 355.13431 L 396.14005 345.61153 L 390.09398 353.31392 M 388.60210 352.11980 L 394.64817 344.41741 L 384.04772 345.58136 L 388.60210 352.11980 M 386.48672 353.02047 L 381.93234 346.48202 L 377.72519 351.62272 L 386.48672 353.02047 M 381.05696 342.97441 L 382.78737 336.34400 L 373.54606 336.73070 L 381.05696 342.97441 M 385.79894 331.67069 L 398.54675 312.84250 L 383.16043 324.80277 L 385.79894 331.67069 M 382.28230 323.05141 L 397.66862 311.09114 L 378.77389 317.65980 L 382.28230 323.05141 M 396.65992 309.39726 L 374.21270 309.50042 L 377.76519 315.96593 L 396.65992 309.39726 M 396.95324 306.53405 L 380.11180 293.06025 L 374.50603 306.63721 L 396.95324 306.53405 M 393.75712 282.34098 L 387.96432 284.93995 L 399.96476 302.93222 L 393.75712 282.34098 M 385.90137 281.58857 L 391.69417 278.98961 L 383.46115 276.12119 L 385.90137 281.58857 M 381.10210 273.42472 L 381.64157 267.58255 L 374.72254 268.72738 L 381.10210 273.42472 M 373.95369 275.13667 L 372.83701 270.44240 L 371.82020 281.30579 L 373.95369 275.13667 M 372.73157 281.97684 L 380.12794 275.81079 L 374.86506 275.80772 L 372.73157 281.97684 M 373.83201 282.75833 L 383.66860 282.05966 L 381.22838 276.59228 L 373.83201 282.75833 M 364.06314 280.47464 L 365.07995 269.61125 L 311.89721 268.48744 L 364.06314 280.47464 M 363.24245 290.25633 L 363.83345 283.05527 L 311.66753 271.06807 L 363.24245 290.25633 M 371.40838 292.51447 L 376.99497 289.13321 L 371.99938 285.31341 L 371.40838 292.51447 M 363.53554 313.44320 L 369.63049 307.92351 L 369.64968 297.72781 L 363.53554 313.44320 M 354.24821 318.65797 L 361.61275 314.78501 L 367.72689 299.06962 L 354.24821 318.65797 M 350.04426 342.57741 L 355.71585 343.45629 L 356.14174 338.40015 L 350.04426 342.57741 M 349.60628 353.66262 L 354.09835 351.52060 L 349.13837 345.16927 L 349.60628 353.66262 M 342.71744 358.81671 L 346.90655 364.15929 L 348.09375 356.58330 L 342.71744 358.81671 M 359.42960 361.36386 L 350.18277 356.90169 L 348.99557 364.47769 L 359.42960 361.36386 M 359.53866 384.41629 L 360.59909 364.80318 L 350.16506 367.91701 L 359.53866 384.41629 M 385.20116 378.00600 L 380.18122 367.24782 L 373.95786 369.15282 L 385.20116 378.00600 M 392.39043 370.16991 L 382.48529 367.37495 L 387.50523 378.13314 L 392.39043 370.16991 M 399.47593 363.66858 L 391.09949 363.36934 L 394.67764 368.11767 L 399.47593 363.66858 M 401.41606 361.79353 L 405.01180 357.24270 L 398.22655 357.36884 L 401.41606 361.79353 M 397.79337 355.37634 L 404.57863 355.25020 L 397.95064 345.85357 L 397.79337 355.37634 M 408.14126 355.15303 L 415.46382 354.73256 L 412.34389 345.62278 L 408.14126 355.15303 M 416.02238 365.12599 L 422.78970 360.93152 L 417.50014 357.54164 L 416.02238 365.12599 M 425.65904 359.32957 L 431.03281 357.18344 L 428.31380 351.06663 L 425.65904 359.32957 M 432.75487 364.06946 L 431.58795 358.80879 L 426.21418 360.95493 L 432.75487 364.06946 M 434.45547 364.91703 L 439.81898 367.73545 L 433.28855 359.65636 L 434.45547 364.91703 M 434.64963 371.81307 L 439.98912 369.25504 L 434.62561 366.43662 L 434.64963 371.81307 M 429.83568 379.95897 L 432.45827 373.72856 L 425.05684 372.97207 L 429.83568 379.95897 M 421.20030 382.67440 L 422.33002 373.67200 L 416.55227 377.31247 L 421.20030 382.67440 M 412.76408 384.60018 L 413.86402 378.69412 L 406.57195 384.18106 L 412.76408 384.60018 M 403.60659 391.79354 L 395.57323 390.36981 L 369.36263 389.90998 L 403.60659 391.79354 M 397.75299 388.75695 L 402.28595 385.02800 L 390.30114 382.15981 L 397.75299 388.75695 M 396.79339 391.91538 L 362.54943 390.03181 L 341.06762 391.34449 L 396.79339 391.91538 M 395.93418 392.64393 L 323.88038 392.27922 L 313.95578 392.70568 L 395.93418 392.64393 M 392.22124 392.17448 L 336.49547 391.60359 L 325.97224 392.10460 L 392.22124 392.17448 M 406.56581 372.74069 L 413.98164 375.62826 L 413.82878 368.44775 L 406.56581 372.74069 M 422.13378 392.60142 L 439.45795 392.61175 L 434.17461 391.99060 L 422.13378 392.60142 M 427.42489 390.59302 L 433.73841 390.78975 L 430.24104 383.81254 L 427.42489 390.59302 M 435.00298 389.71891 L 437.54146 382.02628 L 431.50561 382.74169 L 435.00298 389.71891 M 442.65905 390.43125 L 445.20410 382.85001 L 439.91419 382.11747 L 442.65905 390.43125 M 443.83590 391.61089 L 449.32899 391.55459 L 446.38095 384.02965 L 443.83590 391.61089 M 451.86790 390.79441 L 458.89337 387.07493 L 454.17366 381.72401 L 451.86790 390.79441 M 453.93346 392.16410 L 470.69812 392.68154 L 460.95893 388.44462 L 453.93346 392.16410 M 460.82691 386.59030 L 467.33618 386.91737 L 456.10720 381.23938 L 460.82691 386.59030 M 465.65014 393.22750 L 443.39239 392.76636 L 426.06822 392.75603 L 465.65014 393.22750 M 472.63165 392.19691 L 469.40174 388.28706 L 462.89246 387.95999 L 472.63165 392.19691 M 477.20638 392.92077 L 490.33610 392.45892 L 483.13068 390.30286 L 477.20638 392.92077 M 482.20686 393.31717 L 523.13448 393.47407 L 495.33658 392.85533 L 482.20686 393.31717 M 487.56548 382.56106 L 515.62162 376.40713 L 491.83412 339.29638 L 487.56548 382.56106 M 495.19045 391.20581 L 516.04116 382.89581 L 487.98503 389.04974 L 495.19045 391.20581 M 525.45135 390.96369 L 529.62468 385.71762 L 524.03011 382.49867 L 525.45135 390.96369 M 526.44380 392.23922 L 531.96976 392.70294 L 530.61713 386.99315 L 526.44380 392.23922 M 528.19186 393.43024 L 522.66591 392.96651 L 500.39396 392.81149 L 528.19186 393.43024 M 533.44167 392.38273 L 538.21908 389.67748 L 532.08904 386.67293 L 533.44167 392.38273 M 535.04285 392.92659 L 544.89850 391.02382 L 539.82026 390.22134 L 535.04285 392.92659 M 538.67724 388.16680 L 537.10692 380.29724 L 532.54720 385.16225 L 538.67724 388.16680 M 542.70088 382.39558 L 538.37613 379.95141 L 539.94645 387.82096 L 542.70088 382.39558 M 544.62379 380.85867 L 549.32443 382.69287 L 546.30435 371.24731 L 544.62379 380.85867 M 539.00970 377.80330 L 543.33445 380.24747 L 545.01500 370.63611 L 539.00970 377.80330 M 530.15627 384.02054 L 529.70412 377.38706 L 524.56171 380.80160 L 530.15627 384.02054 M 527.81520 370.36663 L 538.83238 364.96792 L 498.88529 336.67042 L 527.81520 370.36663 M 547.03949 389.34928 L 549.41633 384.95561 L 544.71568 383.12142 L 547.03949 389.34928 M 550.48747 321.51254 L 550.45154 369.83025 L 550.58464 314.82989 L 550.48747 321.51254 M 547.01945 266.55887 L 550.13161 291.68737 L 549.84224 216.50124 L 547.01945 266.55887 M 541.67176 264.97740 L 528.85636 236.65639 L 522.98830 257.29898 L 541.67176 264.97740 M 519.25427 255.34331 L 525.12233 234.70071 L 511.79953 249.33198 L 519.25427 255.34331 M 508.84638 263.12587 L 508.37425 252.66470 L 504.70266 256.91267 L 508.84638 263.12587 M 501.90777 265.84465 L 502.72179 258.17238 L 497.48504 261.28333 L 501.90777 265.84465 M 503.29264 255.22111 L 506.96422 250.97314 L 497.56619 249.59341 L 503.29264 255.22111 M 513.90230 270.55121 L 509.43563 266.32071 L 504.47790 267.77979 L 513.90230 270.55121 M 523.45937 233.10379 L 505.95062 242.56796 L 510.13658 247.73506 L 523.45937 233.10379 M 522.63469 231.50822 L 503.53915 234.97046 L 505.12595 240.97239 L 522.63469 231.50822 M 503.44284 232.74651 L 522.53838 229.28427 L 504.35544 223.18081 L 503.44284 232.74651 M 500.45652 232.55090 L 501.36913 222.98520 L 498.64789 227.71942 L 500.45652 232.55090 M 499.49447 233.79536 L 497.68584 228.96388 L 493.67271 232.94084 L 499.49447 233.79536 M 497.03892 226.92562 L 499.76015 222.19140 L 487.58471 226.20050 L 497.03892 226.92562 M 486.13152 222.33360 L 498.30697 218.32450 L 485.41346 195.99043 L 486.13152 222.33360 M 465.52396 224.82703 L 459.81203 226.52152 L 469.14557 242.10943 L 465.52396 224.82703 M 471.82878 242.32272 L 481.27769 228.22784 L 468.20717 225.04032 L 471.82878 242.32272 M 443.03259 253.63716 L 451.30238 228.28529 L 415.05014 229.17319 L 443.03259 253.63716 M 440.02449 258.20849 L 412.04203 233.74452 L 427.23753 264.85593 L 440.02449 258.20849 M 438.82015 275.48611 L 429.28857 271.55961 L 431.70568 276.79996 L 438.82015 275.48611 M 434.79203 285.88674 L 439.50808 277.27700 L 432.39362 278.59085 L 434.79203 285.88674 M 422.89310 283.64011 L 429.02188 277.88390 L 421.06141 273.16106 L 422.89310 283.64011 M 419.68577 284.36801 L 413.60955 278.02522 L 407.60774 279.57086 L 419.68577 284.36801 M 412.81671 275.87699 L 417.06124 271.74073 L 403.09672 272.86404 L 412.81671 275.87699 M 402.32421 267.75472 L 416.28872 266.63141 L 406.63658 235.00249 L 402.32421 267.75472 M 393.48886 266.56716 L 399.47423 267.74669 L 403.78659 234.99446 L 393.48886 266.56716 M 389.39451 270.87871 L 383.47557 267.85147 L 382.93610 273.69364 L 389.39451 270.87871 M 365.37169 267.27984 L 366.39709 261.82339 L 312.18896 266.15603 L 365.37169 267.27984 M 356.68597 219.85583 L 355.40620 214.47294 L 348.94261 209.74292 L 356.68597 219.85583 M 354.19720 218.48060 L 346.45384 208.36769 L 335.49601 203.47109 L 354.19720 218.48060 M 356.47175 214.36291 L 357.75152 219.74580 L 357.46702 208.86268 L 356.47175 214.36291 M 347.59363 206.82152 L 355.05249 206.05131 L 344.89890 201.98485 L 347.59363 206.82152 M 344.96268 206.23204 L 342.26795 201.39537 L 334.00486 201.33544 L 344.96268 206.23204 M 328.98838 199.19681 L 323.98098 193.87892 L 318.10133 194.50084 L 328.98838 199.19681 M 315.49715 191.54807 L 317.38959 180.99890 L 312.14211 185.50189 L 315.49715 191.54807 M 309.15044 183.67880 L 305.18640 174.91856 L 300.77533 181.22056 L 309.15044 183.67880 M 317.24752 178.84042 L 314.36056 174.28021 L 312.00004 183.34341 L 317.24752 178.84042 M 323.09085 170.48476 L 321.90784 164.91819 L 316.11069 171.30455 L 323.09085 170.48476 M 328.29254 160.71158 L 323.43058 163.59406 L 324.61358 169.16064 L 328.29254 160.71158 M 329.72636 161.43429 L 326.04740 169.88335 L 334.90108 169.37571 L 329.72636 161.43429 M 334.88009 171.52476 L 326.02640 172.03240 L 329.55841 178.62671 L 334.88009 171.52476 M 341.61324 164.37808 L 337.74624 160.65544 L 337.52172 168.67748 L 341.61324 164.37808 M 343.87538 166.62090 L 339.78386 170.92029 L 355.84334 178.59795 L 343.87538 166.62090 M 352.18788 154.84442 L 353.90499 149.71865 L 347.26747 149.30194 L 352.18788 154.84442 M 353.41731 148.25558 L 348.28642 143.13984 L 346.77978 147.83887 L 353.41731 148.25558 M 354.69114 147.05985 L 356.97041 138.27304 L 349.56025 141.94411 L 354.69114 147.05985 M 346.48347 142.26000 L 338.99373 141.21689 L 344.97684 146.95903 L 346.48347 142.26000 M 343.97778 147.63377 L 337.99467 141.89163 L 338.49106 147.65785 L 343.97778 147.63377 M 336.99194 147.59563 L 336.49556 141.82941 L 331.98485 147.13602 L 336.99194 147.59563 M 335.38774 140.94408 L 328.12943 140.51305 L 330.87704 146.25069 L 335.38774 140.94408 M 335.60962 139.60725 L 332.65202 135.55605 L 328.35130 139.17622 L 335.60962 139.60725 M 331.70435 134.47289 L 328.02826 130.94202 L 327.40363 138.09306 L 331.70435 134.47289 M 326.64218 131.29125 L 320.61578 137.26672 L 326.01756 138.44229 L 326.64218 131.29125 M 325.86142 128.26024 L 319.51588 120.23275 L 320.09057 128.19725 L 325.86142 128.26024 M 318.25162 128.67649 L 317.67693 120.71199 L 311.14981 132.09419 L 318.25162 128.67649 M 314.40124 119.07682 L 292.04612 115.59512 L 307.87413 130.45902 L 314.40124 119.07682 M 315.07473 115.89341 L 313.26205 104.99171 L 292.71961 112.41170 L 315.07473 115.89341 M 330.36606 120.01241 L 320.80031 119.20964 L 327.14586 127.23714 L 330.36606 120.01241 M 333.78032 120.43437 L 336.56761 126.39553 L 342.10689 123.84888 L 333.78032 120.43437 M 334.68075 112.38503 L 328.11857 110.22893 L 332.01641 117.36432 L 334.68075 112.38503 M 332.29151 104.98240 L 327.71773 101.62198 L 327.37547 107.65727 L 332.29151 104.98240 M 324.32938 94.05366 L 317.96454 101.15097 L 325.78739 99.68475 L 324.32938 94.05366 M 315.33679 90.85863 L 304.89680 88.00958 L 314.64419 99.49873 L 315.33679 90.85863 M 322.15311 84.69605 L 315.76489 82.63844 L 317.37868 88.61710 L 322.15311 84.69605 M 320.12006 76.30646 L 315.05131 74.19451 L 315.28040 80.10375 L 320.12006 76.30646 M 320.78215 74.83383 L 320.57711 68.32269 L 315.71340 72.72188 L 320.78215 74.83383 M 313.47607 74.11421 L 307.51815 75.66410 L 313.70516 80.02346 L 313.47607 74.11421 M 304.52337 76.31895 L 298.34402 76.22341 L 301.88418 83.80791 L 304.52337 76.31895 M 300.36235 84.44983 L 296.82219 76.86533 L 292.34872 81.45430 L 300.36235 84.44983 M 299.32594 88.23464 L 291.31231 85.23911 L 288.53088 107.14377 L 299.32594 88.23464 M 284.16345 108.99785 L 286.94487 87.09319 L 264.38643 103.06728 L 284.16345 108.99785 M 257.12733 108.97062 L 245.62658 121.74530 L 260.14981 127.47582 L 257.12733 108.97062 M 260.06845 96.63069 L 282.62689 80.65660 L 249.61960 57.50516 L 260.06845 96.63069 M 228.51557 105.65272 L 221.25870 106.14153 L 238.12626 119.00617 L 228.51557 105.65272 M 220.93522 112.59962 L 225.92771 157.31749 L 237.80278 125.46426 L 220.93522 112.59962 M 213.85560 113.66689 L 181.16588 134.00240 L 218.84809 158.38476 L 213.85560 113.66689 M 212.19710 106.34153 L 205.58008 99.78188 L 179.50738 126.67704 L 212.19710 106.34153 M 203.35775 98.00500 L 194.41849 92.12644 L 177.28505 124.90015 L 203.35775 98.00500 M 192.42190 90.72341 L 187.38504 86.78077 L 175.28846 123.49713 L 192.42190 90.72341 M 185.27957 85.83762 L 175.57817 83.17821 L 173.18300 122.55398 L 185.27957 85.83762 M 194.66252 80.11705 L 189.80680 81.35826 L 194.84366 85.30091 L 194.66252 80.11705 M 200.92790 77.06217 L 206.45412 83.51660 L 234.58479 55.64866 L 200.92790 77.06217 M 197.17838 70.70155 L 199.76844 75.46029 L 233.42532 54.04678 L 197.17838 70.70155 M 182.90022 70.38629 L 185.51592 56.71576 L 176.68412 74.14604 L 182.90022 70.38629 M 178.65248 18.81112 L 151.08682 38.75603 L 182.60594 30.51467 L 178.65248 18.81112 M 193.44961 17.14019 L 183.94782 16.10914 L 187.90129 27.81269 L 193.44961 17.14019 M 238.38314 58.75455 L 213.84666 91.23047 L 227.72055 97.30131 L 238.38314 58.75455 M 253.48130 54.56758 L 286.48859 77.71902 L 290.96206 73.13005 L 253.48130 54.56758 M 298.48053 51.39689 L 293.11009 26.04765 L 255.05241 46.41152 L 298.48053 51.39689 M 291.28168 21.61717 L 283.85319 15.95305 L 253.22399 41.98104 L 291.28168 21.61717 M 305.70175 12.26396 L 311.53080 11.90077 L 291.93395 11.57155 L 305.70175 12.26396 M 315.62399 15.09167 L 303.45563 20.42658 L 331.01874 32.12709 L 315.62399 15.09167 M 316.94611 11.84003 L 349.02417 11.77803 L 297.34925 11.51081 L 316.94611 11.84003 M 363.86469 19.30150 L 359.26295 14.88129 L 342.57964 31.97870 L 363.86469 19.30150 M 367.81538 26.47025 L 364.93375 20.75012 L 343.64869 33.42732 L 367.81538 26.47025 M 377.16822 33.02042 L 372.28827 28.33205 L 371.67024 37.91324 L 377.16822 33.02042 M 381.47386 38.60500 L 378.31641 34.30453 L 372.81843 39.19736 L 381.47386 38.60500 M 386.72494 33.47793 L 380.05473 33.58960 L 383.21217 37.89007 L 386.72494 33.47793 M 386.24870 26.56238 L 380.43429 32.17364 L 387.10450 32.06197 L 386.24870 26.56238 M 384.18706 19.17835 L 380.35750 23.72500 L 385.91600 24.19213 L 384.18706 19.17835 M 375.70049 16.15077 L 372.82404 24.85195 L 377.95989 23.46192 L 375.70049 16.15077 M 374.55514 15.53218 L 368.79705 18.51322 L 371.67869 24.23336 L 374.55514 15.53218 M 376.28517 13.47599 L 390.12074 12.20407 L 365.92534 12.03683 L 376.28517 13.47599 M 393.46692 29.33940 L 389.77648 32.76612 L 397.26391 35.73405 L 393.46692 29.33940 M 402.51991 28.85121 L 396.93490 22.40608 L 394.84630 27.42352 L 402.51991 28.85121 M 402.76397 30.48151 L 395.09036 29.05382 L 398.88734 35.44847 L 402.76397 30.48151 M 403.97587 31.81940 L 400.09925 36.78636 L 404.78557 39.75697 L 403.97587 31.81940 M 412.47445 33.36037 L 405.52277 31.39115 L 406.33247 39.32873 L 412.47445 33.36037 M 413.58550 34.68311 L 407.44352 40.65146 L 414.41113 41.97303 L 413.58550 34.68311 M 413.16702 31.72095 L 411.87304 26.21334 L 406.21534 29.75173 L 413.16702 31.72095 M 411.21826 24.51360 L 407.92878 18.12299 L 405.56056 28.05198 L 411.21826 24.51360 M 419.35098 19.58627 L 409.65258 17.06478 L 412.94207 23.45538 L 419.35098 19.58627 M 420.03429 18.22730 L 418.40856 12.58364 L 410.33589 15.70581 L 420.03429 18.22730 M 424.64254 27.24524 L 421.22472 20.85883 L 414.81581 24.72794 L 424.64254 27.24524 M 423.91184 28.58477 L 414.08511 26.06747 L 415.37908 31.57508 L 423.91184 28.58477 M 431.12401 21.05272 L 423.26325 20.39943 L 426.68107 26.78583 L 431.12401 21.05272 M 431.80209 19.52968 L 432.10569 14.60155 L 423.94132 18.87639 L 431.80209 19.52968 M 436.73037 26.44147 L 432.80740 21.80797 L 428.36446 27.54109 L 436.73037 26.44147 M 438.60765 28.80323 L 435.44200 38.34909 L 442.62541 32.25579 L 438.60765 28.80323 M 444.99696 32.90970 L 445.38864 39.35238 L 450.00493 33.68518 L 444.99696 32.90970 M 447.87992 25.85453 L 440.16239 27.24141 L 444.18015 30.69397 L 447.87992 25.85453 M 452.24039 39.41832 L 450.91036 34.49875 L 446.29407 40.16596 L 452.24039 39.41832 M 459.73014 38.06226 L 452.58987 34.23579 L 453.91990 39.15536 L 459.73014 38.06226 M 460.29098 44.68230 L 460.69278 39.36808 L 454.88254 40.46118 L 460.29098 44.68230 M 459.24170 45.51920 L 453.83326 41.29807 L 452.29854 46.06322 L 459.24170 45.51920 M 450.54576 48.44133 L 445.17308 52.23344 L 452.12687 55.98685 L 450.54576 48.44133 M 449.68966 46.78947 L 445.27806 42.77196 L 444.31698 50.58158 L 449.68966 46.78947 M 442.60459 49.95774 L 443.56567 42.14811 L 435.99057 41.79874 L 442.60459 49.95774 M 441.06204 51.26123 L 434.44802 43.10223 L 431.22527 52.57604 L 441.06204 51.26123 M 431.40418 41.41516 L 423.12249 40.27248 L 421.77024 48.38113 L 431.40418 41.41516 M 432.03756 39.21342 L 426.83731 30.76717 L 423.75587 38.07074 L 432.03756 39.21342 M 420.69300 38.75992 L 415.24168 34.44666 L 416.06732 41.73658 L 420.69300 38.75992 M 413.93643 43.53608 L 406.96882 42.21451 L 409.78789 47.18751 L 413.93643 43.53608 M 408.03249 47.82189 L 405.21342 42.84890 L 399.89325 48.61118 L 408.03249 47.82189 M 418.92779 51.02037 L 411.50582 49.53982 L 417.43881 55.90104 L 418.92779 51.02037 M 419.92633 48.64312 L 421.27858 40.53448 L 416.65290 43.51114 L 419.92633 48.64312 M 427.31515 54.09799 L 420.90396 51.59014 L 419.41497 56.47081 L 427.31515 54.09799 M 427.05962 62.03971 L 428.08461 55.40418 L 420.18443 57.77700 L 427.05962 62.03971 M 427.19655 65.61369 L 421.64765 66.38002 L 427.85381 78.96698 L 427.19655 65.61369 M 418.53441 63.80022 L 417.20813 58.77118 L 409.82312 62.59126 L 418.53441 63.80022 M 413.16178 70.11304 L 408.13400 64.64171 L 407.37864 70.91247 L 413.16178 70.11304 M 415.14224 72.95169 L 408.30492 79.82575 L 425.03192 81.27629 L 415.14224 72.95169 M 407.12013 72.67609 L 406.06594 78.75073 L 412.90327 71.87666 L 407.12013 72.67609 M 404.93823 72.95372 L 395.44806 74.09766 L 403.88404 79.02835 L 404.93823 72.95372 M 404.26569 71.52203 L 398.50374 67.57482 L 394.77553 72.66597 L 404.26569 71.52203 M 405.72934 70.46279 L 406.48470 64.19203 L 399.96738 66.51558 L 405.72934 70.46279 M 405.28208 62.97071 L 396.10837 60.69219 L 398.76476 65.29426 L 405.28208 62.97071 M 396.68308 65.71102 L 394.02669 61.10896 L 388.62867 66.30482 L 396.68308 65.71102 M 396.52997 67.09577 L 388.47555 67.68957 L 392.80176 72.18691 L 396.52997 67.09577 M 392.73854 60.48954 L 386.37790 60.75571 L 387.34052 65.68541 L 392.73854 60.48954 M 392.99985 59.08396 L 389.43100 54.44078 L 386.63921 59.35013 L 392.99985 59.08396 M 388.04895 52.52703 L 385.88620 48.01566 L 381.31447 53.19465 L 388.04895 52.52703 M 384.42758 47.57671 L 376.37999 49.01540 L 379.85585 52.75569 L 384.42758 47.57671 M 384.77379 46.08719 L 382.62554 40.83957 L 376.72620 47.52589 L 384.77379 46.08719 M 389.28850 40.83199 L 384.19583 40.00284 L 386.34408 45.25045 L 389.28850 40.83199 M 396.75021 50.91623 L 390.69487 53.38655 L 394.26373 58.02973 L 396.75021 50.91623 M 378.37477 55.69910 L 372.68652 59.01968 L 374.79135 64.06307 L 378.37477 55.69910 M 373.50920 50.03919 L 367.14954 52.44648 L 371.29681 57.10007 L 373.50920 50.03919 M 363.31405 49.32178 L 366.91763 40.82055 L 343.36897 38.19643 L 363.31405 49.32178 M 357.21029 57.82773 L 340.88189 41.62099 L 350.63759 63.13567 L 357.21029 57.82773 M 359.72732 70.78261 L 359.56597 61.47293 L 352.99326 66.78087 L 359.72732 70.78261 M 354.29038 76.30053 L 351.24592 68.94446 L 349.27685 75.42726 L 354.29038 76.30053 M 347.66978 77.57900 L 343.06501 80.74217 L 348.00774 83.86849 L 347.66978 77.57900 M 341.68223 73.55737 L 342.27432 79.45327 L 346.87910 76.29011 L 341.68223 73.55737 M 340.27568 73.91832 L 335.62664 79.17773 L 340.86777 79.81423 L 340.27568 73.91832 M 333.97729 72.09668 L 334.76533 78.21304 L 339.41437 72.95363 L 333.97729 72.09668 M 332.04532 72.47078 L 323.95861 75.94643 L 332.83336 78.58714 L 332.04532 72.47078 M 330.74821 71.16338 L 322.45646 68.12787 L 322.66150 74.63902 L 330.74821 71.16338 M 340.89280 81.45577 L 335.65167 80.81928 L 340.47593 87.05066 L 340.89280 81.45577 M 339.65858 88.08963 L 334.83431 81.85824 L 334.35394 89.76751 L 339.65858 88.08963 M 339.97761 89.98013 L 334.67297 91.65802 L 337.38656 96.98230 L 339.97761 89.98013 M 343.77301 96.09737 L 341.11511 90.53505 L 338.52407 97.53722 L 343.77301 96.09737 M 344.00071 97.71459 L 338.75177 99.15444 L 342.93675 103.47281 L 344.00071 97.71459 M 349.63911 106.25279 L 344.21209 105.93531 L 344.59142 112.77873 L 349.63911 106.25279 M 352.12068 113.58101 L 350.62768 107.20851 L 345.57999 113.73445 L 352.12068 113.58101 M 349.11207 120.50072 L 344.58724 116.22752 L 344.70149 122.72647 L 349.11207 120.50072 M 343.07024 125.43428 L 337.53096 127.98093 L 341.48708 133.11757 L 343.07024 125.43428 M 334.98320 128.47636 L 328.97570 129.73993 L 332.65180 133.27080 L 334.98320 128.47636 M 349.48445 134.22619 L 344.56442 126.21494 L 342.98126 133.89823 L 349.48445 134.22619 M 357.31143 135.55114 L 355.07597 129.70879 L 352.24464 134.79806 L 357.31143 135.55114 M 353.57650 126.99432 L 350.23573 121.84657 L 345.82515 124.07232 L 353.57650 126.99432 M 364.58018 129.24507 L 365.52309 121.46517 L 360.18378 121.39483 L 364.58018 129.24507 M 371.36187 124.69034 L 366.92035 121.87711 L 365.97744 129.65701 L 371.36187 124.69034 M 365.54566 119.30749 L 364.76073 111.98366 L 360.20635 119.23715 L 365.54566 119.30749 M 371.36147 113.55027 L 366.15512 111.27280 L 366.94005 118.59663 L 371.36147 113.55027 M 374.30259 107.48333 L 367.07543 109.88364 L 372.28179 112.16111 L 374.30259 107.48333 M 376.13581 107.64812 L 374.11501 112.32591 L 381.74120 111.20201 L 376.13581 107.64812 M 382.60041 110.13664 L 380.98864 103.80297 L 376.99501 106.58276 L 382.60041 110.13664 M 381.95569 112.39929 L 374.32950 113.52319 L 377.85168 117.22639 L 381.95569 112.39929 M 391.36978 114.23114 L 389.56021 108.59672 L 385.15000 111.51910 L 391.36978 114.23114 M 390.97862 115.65344 L 384.75884 112.94140 L 386.43094 119.97516 L 390.97862 115.65344 M 392.52624 116.54892 L 387.97856 120.87064 L 397.13983 120.10528 L 392.52624 116.54892 M 396.90682 121.72490 L 387.74555 122.49026 L 390.66214 129.50589 L 396.90682 121.72490 M 388.02793 129.89377 L 385.11134 122.87814 L 375.83314 124.82787 L 388.02793 129.89377 M 387.02235 131.60322 L 374.82756 126.53732 L 377.06667 136.55376 L 387.02235 131.60322 M 373.98225 138.86601 L 366.35871 133.81625 L 367.73143 145.13459 L 373.98225 138.86601 M 365.97046 144.91474 L 364.59774 133.59639 L 359.89450 137.10717 L 365.97046 144.91474 M 364.65429 156.19544 L 365.69262 148.83797 L 357.33739 149.81721 L 364.65429 156.19544 M 363.21538 157.06758 L 355.89848 150.68936 L 354.18137 155.81512 L 363.21538 157.06758 M 365.82605 160.74427 L 361.83328 177.01793 L 371.74260 162.57671 L 365.82605 160.74427 M 372.46133 159.20084 L 367.58311 150.01092 L 366.54478 157.36839 L 372.46133 159.20084 M 383.55262 161.71281 L 383.72823 149.77055 L 376.14499 159.65684 L 383.55262 161.71281 M 383.04053 166.43064 L 365.72358 178.81589 L 389.54082 173.07199 L 383.04053 166.43064 M 391.17690 174.60827 L 367.35966 180.35216 L 396.12921 178.72083 L 391.17690 174.60827 M 400.34686 177.48464 L 401.10080 170.46264 L 395.39454 173.37208 L 400.34686 177.48464 M 401.67843 177.65714 L 406.04712 174.75206 L 402.43238 170.63514 L 401.67843 177.65714 M 406.91707 173.65433 L 408.63807 168.87530 L 403.30233 169.53741 L 406.91707 173.65433 M 413.15770 174.52379 L 409.86999 169.49860 L 408.14899 174.27763 L 413.15770 174.52379 M 414.54816 173.87041 L 419.27265 169.05063 L 411.26045 168.84522 L 414.54816 173.87041 M 419.41891 167.75168 L 415.71824 163.47883 L 411.40671 167.54627 L 419.41891 167.75168 M 421.37430 167.41331 L 427.04980 164.83931 L 417.67363 163.14046 L 421.37430 167.41331 M 424.54103 173.23865 L 420.93273 169.59981 L 416.20823 174.41959 L 424.54103 173.23865 M 426.11767 175.43174 L 422.56728 180.30027 L 428.76339 183.45692 L 426.11767 175.43174 M 429.99531 183.08870 L 432.42262 177.35453 L 427.34959 175.06352 L 429.99531 183.08870 M 426.72608 188.67846 L 420.52997 185.52181 L 409.81915 217.20406 L 426.72608 188.67846 M 417.62198 184.92390 L 403.46217 183.89524 L 406.91116 216.60616 L 417.62198 184.92390 M 438.54054 183.12550 L 433.82149 178.36227 L 431.39418 184.09645 L 438.54054 183.12550 M 440.04885 182.17874 L 443.46064 176.52243 L 435.32979 177.41552 L 440.04885 182.17874 M 439.71150 184.76336 L 432.56514 185.73432 L 443.18915 191.46520 L 439.71150 184.76336 M 435.84615 168.58487 L 429.77241 165.97472 L 427.70521 172.18756 L 435.84615 168.58487 M 436.81446 166.85256 L 435.45173 158.32904 L 430.74072 164.24240 L 436.81446 166.85256 M 438.26226 166.43458 L 442.32316 160.89861 L 436.89953 157.91107 L 438.26226 166.43458 M 443.99038 158.82699 L 447.55820 152.71206 L 442.60857 152.98895 L 443.99038 158.82699 M 450.45469 159.74117 L 448.53897 153.55609 L 444.97115 159.67101 L 450.45469 159.74117 M 451.88248 159.38737 L 456.39339 156.84061 L 449.96675 153.20229 L 451.88248 159.38737 M 456.65824 158.47401 L 452.14732 161.02077 L 452.08551 166.26952 L 456.65824 158.47401 M 458.04462 149.40885 L 450.86455 145.95159 L 450.03711 150.88367 L 458.04462 149.40885 M 449.01354 146.20183 L 443.23646 151.41081 L 448.18609 151.13392 L 449.01354 146.20183 M 448.07727 145.44068 L 440.69596 145.04466 L 442.30020 150.64965 L 448.07727 145.44068 M 448.54169 144.02541 L 446.01558 139.32757 L 441.16039 143.62940 L 448.54169 144.02541 M 438.72752 143.25236 L 438.52689 138.40574 L 434.13459 141.55383 L 438.72752 143.25236 M 437.78907 144.31908 L 433.19614 142.62055 L 431.01925 146.93950 L 437.78907 144.31908 M 431.50076 142.76178 L 424.22605 145.44890 L 429.32387 147.08073 L 431.50076 142.76178 M 431.35385 141.53332 L 428.14858 137.25307 L 424.07913 144.22045 L 431.35385 141.53332 M 426.70476 136.29521 L 419.80327 133.87036 L 422.63531 143.26258 L 426.70476 136.29521 M 432.67933 131.49230 L 423.97800 126.79680 L 428.28462 134.20145 L 432.67933 131.49230 M 418.17966 130.55507 L 420.77453 125.57526 L 413.95306 124.14483 L 418.17966 130.55507 M 416.97224 133.03019 L 411.87349 132.01932 L 411.98735 139.97693 L 416.97224 133.03019 M 410.59796 132.44392 L 406.76797 136.42695 L 410.71181 140.40152 L 410.59796 132.44392 M 405.85440 135.01997 L 409.68439 131.03693 L 403.40324 129.14566 L 405.85440 135.01997 M 404.42810 137.90252 L 397.02091 139.83571 L 403.22999 146.28982 L 404.42810 137.90252 M 410.89271 143.37515 L 405.75076 147.78788 L 413.24324 147.84565 L 410.89271 143.37515 M 412.89536 149.06523 L 405.40288 149.00746 L 408.10969 153.13175 L 412.89536 149.06523 M 419.99458 153.08679 L 421.46724 146.78868 L 416.00084 148.81370 L 419.99458 153.08679 M 418.64561 155.33649 L 409.86619 155.12993 L 415.46115 160.71977 L 418.64561 155.33649 M 426.16269 157.07405 L 420.68267 155.57950 L 417.49821 160.96278 L 426.16269 157.07405 M 427.55625 155.63839 L 428.64673 149.47757 L 422.07624 154.14385 L 427.55625 155.63839 M 435.88856 155.02584 L 439.93038 152.17535 L 431.55633 149.19079 L 435.88856 155.02584 M 440.27861 150.96743 L 438.67438 145.36244 L 431.90456 147.98286 L 440.27861 150.96743 M 449.43739 168.90938 L 439.95475 169.12644 L 445.01770 174.12705 L 449.43739 168.90938 M 468.02056 154.03448 L 458.64239 157.60072 L 454.06967 165.39623 L 468.02056 154.03448 M 468.89964 152.19039 L 461.10233 150.64349 L 459.52148 155.75663 L 468.89964 152.19039 M 466.93385 145.43085 L 462.02888 149.35277 L 469.82619 150.89967 L 466.93385 145.43085 M 475.23003 143.57202 L 477.63159 134.97934 L 470.41651 137.56659 L 475.23003 143.57202 M 476.12449 146.64455 L 473.16957 151.01567 L 482.92866 149.18306 L 476.12449 146.64455 M 466.98908 136.57078 L 463.16476 130.14708 L 458.84999 139.44200 L 466.98908 136.57078 M 468.42599 134.93316 L 470.34529 126.34102 L 464.60168 128.50945 L 468.42599 134.93316 M 477.21813 132.89398 L 471.92235 126.88908 L 470.00305 135.48122 L 477.21813 132.89398 M 482.88879 126.91080 L 473.53307 125.81778 L 478.82885 131.82267 L 482.88879 126.91080 M 489.48351 131.70140 L 495.92714 130.35493 L 486.56087 127.40145 L 489.48351 131.70140 M 491.72312 139.11510 L 496.57242 131.81913 L 490.12879 133.16561 L 491.72312 139.11510 M 489.90386 141.69346 L 484.59828 140.70289 L 485.72956 147.48707 L 489.90386 141.69346 M 491.53816 142.40338 L 487.36386 148.19700 L 497.67268 146.38230 L 491.53816 142.40338 M 502.03660 139.21271 L 498.06090 132.57502 L 493.21160 139.87099 L 502.03660 139.21271 M 503.73347 138.12909 L 506.78653 131.20201 L 499.75777 131.49140 L 503.73347 138.12909 M 510.39106 138.54933 L 508.11569 132.08425 L 505.06263 139.01133 L 510.39106 138.54933 M 511.87655 138.00926 L 516.94653 134.69077 L 509.60118 131.54418 L 511.87655 138.00926 M 517.73802 133.15276 L 518.20847 125.70519 L 510.39267 130.00618 L 517.73802 133.15276 M 525.81278 136.85371 L 520.13598 126.56114 L 519.66554 134.00871 L 525.81278 136.85371 M 525.82958 138.93991 L 519.68233 136.09490 L 520.27036 143.25066 L 525.82958 138.93991 M 533.89312 144.49435 L 528.08554 140.65720 L 526.36322 150.30688 L 533.89312 144.49435 M 541.64921 151.95082 L 536.29586 146.03072 L 534.42423 152.84064 L 541.64921 151.95082 M 549.15892 157.37921 L 549.65623 146.22806 L 544.77088 152.47703 L 549.15892 157.37921 M 548.27944 159.60707 L 543.89140 154.70489 L 542.62036 164.05091 L 548.27944 159.60707 M 534.65962 162.31178 L 528.29497 162.96116 L 532.27465 166.99352 L 534.65962 162.31178 M 531.15118 167.99312 L 527.17151 163.96076 L 525.67191 170.30863 L 531.15118 167.99312 M 527.27039 160.62794 L 531.68564 154.65184 L 526.02737 153.65446 L 527.27039 160.62794 M 524.88003 162.45696 L 519.86714 159.65140 L 516.33261 165.11608 L 524.88003 162.45696 M 523.14514 153.03772 L 513.64069 152.52344 L 519.37527 157.20563 L 523.14514 153.03772 M 517.94225 145.02979 L 512.28425 141.19251 L 512.27470 149.85444 L 517.94225 145.02979 M 509.01685 151.57063 L 501.00748 148.00790 L 499.89837 153.66015 L 509.01685 151.57063 M 503.59736 161.95935 L 497.77257 158.66394 L 487.29473 182.65323 L 503.59736 161.95935 M 505.21429 163.11040 L 488.91166 183.80428 L 510.70804 167.87233 L 505.21429 163.11040 M 514.32674 164.81567 L 517.86126 159.35099 L 508.83299 160.05373 L 514.32674 164.81567 M 519.04765 175.87692 L 523.09054 171.62649 L 516.04273 167.93775 L 519.04765 175.87692 M 515.90651 179.66355 L 491.10521 187.65633 L 519.75780 185.98760 L 515.90651 179.66355 M 518.05668 190.32000 L 489.40410 191.98873 L 502.29762 214.32280 L 518.05668 190.32000 M 523.25696 191.29853 L 507.49789 215.30133 L 531.00631 199.81696 L 523.25696 191.29853 M 531.29692 185.84789 L 529.72272 179.39581 L 525.75868 185.75691 L 531.29692 185.84789 M 528.38135 178.47937 L 520.56602 178.51644 L 524.41731 184.84048 L 528.38135 178.47937 M 528.40873 176.96874 L 524.63629 172.75537 L 520.59340 177.00580 L 528.40873 176.96874 M 539.21582 175.65956 L 533.12828 169.98214 L 531.42144 176.51102 L 539.21582 175.65956 M 547.81534 177.48642 L 542.40526 177.08229 L 545.43928 181.81134 L 547.81534 177.48642 M 550.59224 180.51022 L 550.38390 149.73221 L 549.88659 160.88336 L 550.59224 180.51022 M 550.37646 184.54531 L 549.20863 169.93531 L 549.11985 176.99609 L 550.37646 184.54531 M 542.95881 190.78609 L 538.34454 183.99745 L 534.16603 186.91798 L 542.95881 190.78609 M 549.72302 196.88936 L 550.08608 189.26051 L 545.99198 192.47880 L 549.72302 196.88936 M 550.29736 208.26032 L 550.58673 283.44644 L 550.66042 200.63146 L 550.29736 208.26032 M 545.48097 217.61709 L 531.66794 231.69615 L 544.48334 260.01716 L 545.48097 217.61709 M 534.04879 196.40099 L 531.83768 187.97354 L 526.29943 187.88256 L 534.04879 196.40099 M 482.43997 181.34781 L 483.71809 153.52097 L 473.95900 155.35357 L 482.43997 181.34781 M 479.05283 183.23272 L 470.57186 157.23848 L 456.62097 168.60023 L 479.05283 183.23272 M 476.43787 187.36666 L 454.00601 172.73417 L 449.65217 190.31000 L 476.43787 187.36666 M 451.26230 201.75485 L 476.09490 190.99425 L 449.30921 193.93758 L 451.26230 201.75485 M 413.76095 161.32438 L 408.16599 155.73454 L 405.04400 160.17340 L 413.76095 161.32438 M 406.30607 154.03728 L 403.59926 149.91298 L 398.46639 156.30941 L 406.30607 154.03728 M 401.86942 160.74436 L 397.15173 158.57763 L 396.20399 163.61991 L 401.86942 160.74436 M 401.48015 167.77451 L 402.41048 161.89397 L 396.74504 164.76952 L 401.48015 167.77451 M 381.97311 148.16399 L 369.51165 148.86037 L 374.38987 158.05029 L 381.97311 148.16399 M 420.56092 145.53959 L 412.74398 143.09412 L 415.09451 147.56462 L 420.56092 145.53959 M 420.93726 143.90856 L 418.10521 134.51635 L 413.12032 141.46308 L 420.93726 143.90856 M 420.61538 114.06950 L 414.25752 122.08413 L 421.07900 123.51456 L 420.61538 114.06950 M 419.65463 110.58284 L 415.32787 103.16736 L 411.36190 111.05137 L 419.65463 110.58284 M 413.21680 102.74441 L 402.76601 107.19926 L 409.25083 110.62842 L 413.21680 102.74441 M 407.39526 93.16333 L 402.57517 98.29995 L 412.98942 99.81503 L 407.39526 93.16333 M 405.44172 92.28037 L 397.36104 92.75135 L 400.62162 97.41699 L 405.44172 92.28037 M 410.23881 91.54887 L 415.83297 98.20058 L 425.32355 85.38429 L 410.23881 91.54887 M 407.56277 81.89563 L 409.20504 89.51075 L 424.28977 83.34617 L 407.56277 81.89563 M 404.25342 82.84357 L 397.81502 90.92968 L 405.89569 90.45869 L 404.25342 82.84357 M 403.01614 81.89027 L 395.99744 82.83229 L 396.57774 89.97638 L 403.01614 81.89027 M 393.06517 82.36439 L 386.04120 81.13716 L 387.16224 86.51841 L 393.06517 82.36439 M 391.08610 72.93978 L 386.75989 68.44244 L 382.80467 73.11872 L 391.08610 72.93978 M 384.92919 67.68461 L 376.44045 66.87715 L 380.97397 72.36090 L 384.92919 67.68461 M 379.25323 74.59728 L 371.68754 73.74039 L 374.19546 80.94883 L 379.25323 74.59728 M 383.39088 79.82430 L 380.71615 75.35777 L 375.65838 81.70932 L 383.39088 79.82430 M 383.21651 81.32498 L 375.48401 83.21000 L 379.32117 87.36321 L 383.21651 81.32498 M 377.70721 88.36914 L 373.87005 84.21593 L 370.30483 89.37246 L 377.70721 88.36914 M 377.94179 89.62894 L 370.53941 90.63226 L 375.74669 94.29433 L 377.94179 89.62894 M 379.66690 90.12034 L 377.47180 94.78572 L 384.34028 94.56341 L 379.66690 90.12034 M 374.61224 96.17779 L 367.20908 96.99730 L 371.06208 100.21501 L 374.61224 96.17779 M 369.30770 100.96162 L 365.45470 97.74391 L 360.57718 102.15065 L 369.30770 100.96162 M 363.70762 97.10958 L 355.33105 95.88694 L 358.83010 101.51631 L 363.70762 97.10958 M 361.58904 91.21724 L 365.37404 95.41482 L 367.56992 90.93324 L 361.58904 91.21724 M 369.16823 91.41582 L 366.97235 95.89740 L 374.37551 95.07789 L 369.16823 91.41582 M 358.33579 84.31499 L 350.95911 85.57768 L 358.96136 89.38887 L 358.33579 84.31499 M 357.86056 82.99679 L 355.15946 78.84326 L 350.48388 84.25948 L 357.86056 82.99679 M 363.42239 77.63231 L 360.58993 73.72204 L 356.90033 77.07638 L 363.42239 77.63231 M 368.82611 72.07954 L 365.54495 68.45175 L 362.15085 72.14677 L 368.82611 72.07954 M 373.24505 66.78211 L 366.93173 67.78117 L 370.21289 71.40896 L 373.24505 66.78211 M 367.52072 38.23734 L 368.13876 28.65616 L 343.97206 35.61323 L 367.52072 38.23734 M 405.43665 15.91478 L 396.86624 13.29302 L 397.48342 19.39865 L 405.43665 15.91478 M 458.20719 12.76187 L 452.81624 12.76576 L 455.29988 17.71104 L 458.20719 12.76187 M 461.94907 22.09126 L 459.34880 13.92755 L 456.44148 18.87673 L 461.94907 22.09126 M 473.18148 27.32892 L 471.76837 17.04376 L 465.18902 23.37664 L 473.18148 27.32892 M 472.08886 29.70722 L 464.09640 25.75493 L 463.02742 36.07015 L 472.08886 29.70722 M 482.56019 27.43423 L 484.54007 20.93240 L 476.53069 28.21183 L 482.56019 27.43423 M 484.76344 33.78214 L 482.58811 29.04045 L 476.55861 29.81805 L 484.76344 33.78214 M 483.99775 35.07751 L 475.79291 31.11342 L 476.46256 39.40342 L 483.99775 35.07751 M 493.00521 41.54488 L 492.10305 46.80670 L 509.24713 35.60100 L 493.00521 41.54488 M 488.81073 48.45045 L 489.71289 43.18864 L 482.90861 48.75102 L 488.81073 48.45045 M 481.50428 47.95567 L 488.30857 42.39328 L 477.57613 42.08765 L 481.50428 47.95567 M 479.29100 49.02043 L 475.36285 43.15241 L 470.60231 50.91142 L 479.29100 49.02043 M 478.13626 51.07517 L 469.44757 52.96617 L 466.12496 59.59034 L 478.13626 51.07517 M 472.64406 41.41428 L 462.91297 39.48721 L 462.51117 44.80144 L 472.64406 41.41428 M 461.47812 62.26128 L 454.06634 59.35480 L 451.69596 68.72502 L 461.47812 62.26128 M 465.72736 65.30196 L 455.94520 71.76570 L 488.06025 83.68020 L 465.72736 65.30196 M 447.09866 68.37317 L 442.51525 55.24954 L 431.65349 63.19988 L 447.09866 68.37317 M 445.64087 71.41655 L 430.19570 66.24325 L 430.85297 79.59655 L 445.64087 71.41655 M 447.39970 76.38358 L 432.61179 84.56358 L 444.26632 105.97947 L 447.39970 76.38358 M 426.53490 79.68537 L 420.32873 67.09841 L 416.64522 71.36077 L 426.53490 79.68537 M 393.83952 92.02639 L 387.35629 89.03632 L 387.01329 94.13637 L 393.83952 92.02639 M 394.30542 93.25891 L 387.47919 95.36888 L 391.08350 98.89643 L 394.30542 93.25891 M 390.03656 101.15212 L 383.17011 102.75884 L 389.19209 106.17013 L 390.03656 101.15212 M 379.79136 101.67438 L 376.18503 96.76242 L 372.63486 100.79964 L 379.79136 101.67438 M 363.42953 109.66290 L 358.76329 104.79710 L 355.00791 112.86068 L 363.42953 109.66290 M 363.44551 111.39423 L 355.02389 114.59201 L 358.89113 118.64772 L 363.44551 111.39423 M 357.38354 102.38743 L 353.88450 96.75805 L 352.13517 104.07851 L 357.38354 102.38743 M 343.07775 113.44032 L 342.69843 106.59690 L 337.52977 111.54547 L 343.07775 113.44032 M 347.29036 85.11964 L 342.34764 81.99332 L 341.93077 87.58820 L 347.29036 85.11964 M 399.43101 105.77893 L 399.46754 99.80900 L 392.98505 100.78089 L 399.43101 105.77893 M 453.11475 111.89465 L 471.28421 119.97049 L 488.36319 94.21325 L 453.11475 111.89465 M 468.02384 123.95987 L 449.85438 115.88403 L 462.28022 126.12831 L 468.02384 123.95987 M 492.29536 95.52309 L 475.21638 121.28033 L 484.57211 122.37335 L 492.29536 95.52309 M 494.96993 96.10116 L 487.24668 122.95142 L 496.61294 125.90490 L 494.96993 96.10116 M 491.17361 81.54035 L 480.85202 54.64695 L 468.84072 63.16211 L 491.17361 81.54035 M 532.95401 59.29818 L 535.36256 44.25349 L 518.49250 37.28990 L 532.95401 59.29818 M 545.19081 55.80962 L 538.69985 46.56845 L 536.29130 61.61314 L 545.19081 55.80962 M 546.54426 53.68964 L 547.11891 44.65328 L 540.05330 44.44847 L 546.54426 53.68964 M 546.88220 42.31950 L 544.65057 35.01943 L 539.81659 42.11469 L 546.88220 42.31950 M 543.56301 33.76764 L 538.18172 32.30516 L 538.72903 40.86290 L 543.56301 33.76764 M 546.69751 25.00225 L 541.86455 19.34542 L 537.60216 23.49753 L 546.69751 25.00225 M 548.16051 23.76660 L 549.30611 13.61240 L 543.32755 18.10978 L 548.16051 23.76660 M 540.46390 17.27616 L 538.12115 12.75266 L 533.57268 17.12378 L 540.46390 17.27616 M 533.15063 24.18834 L 530.52179 19.88385 L 517.97648 30.68107 L 533.15063 24.18834 M 529.68659 18.64573 L 526.46900 14.28340 L 517.14128 29.44295 L 529.68659 18.64573 M 509.36070 33.59412 L 493.01164 30.75164 L 493.11878 39.53800 L 509.36070 33.59412 M 494.82549 14.67910 L 487.48510 19.31417 L 490.77065 26.40288 L 494.82549 14.67910 M 473.58973 14.17545 L 490.35261 12.54611 L 464.41011 12.34462 L 473.58973 14.17545 M 550.32040 68.65207 L 550.13849 21.44974 L 548.65905 43.76035 L 550.32040 68.65207 M 548.67351 75.25020 L 546.43752 59.39484 L 537.53801 65.19836 L 548.67351 75.25020 M 545.79918 90.60764 L 548.59372 79.15180 L 537.45822 69.09996 L 545.79918 90.60764 M 549.02297 115.23805 L 543.26066 110.00936 L 540.23217 124.64343 L 549.02297 115.23805 M 537.06119 125.58198 L 540.08969 110.94791 L 523.65515 122.74641 L 537.06119 125.58198 M 549.30471 139.26576 L 549.77848 118.89510 L 540.98767 128.30048 L 549.30471 139.26576 M 547.77436 142.22284 L 539.45732 131.25756 L 537.53566 142.55172 L 547.77436 142.22284 M 497.28149 153.41043 L 498.39059 147.75818 L 488.08177 149.57288 L 497.28149 153.41043 M 400.39847 233.34508 L 378.28815 257.57891 L 384.18179 261.89054 L 400.39847 233.34508 M 427.13500 271.07261 L 421.59165 271.59012 L 429.55212 276.31296 L 427.13500 271.07261 M 424.15014 344.35031 L 406.13305 315.95255 L 413.08591 340.11359 L 424.15014 344.35031 M 445.33796 363.99028 L 478.60728 334.95563 L 438.80752 355.91118 L 445.33796 363.99028 M 456.75254 373.96731 L 481.40438 337.67255 L 452.56684 370.38642 L 456.75254 373.96731 M 458.95464 375.29000 L 470.18363 380.96799 L 483.60647 338.99524 L 458.95464 375.29000 M 447.22651 380.91851 L 452.48031 379.37305 L 448.29460 375.79217 L 447.22651 380.91851 M 445.72026 381.03464 L 446.78836 375.90830 L 440.43035 380.30210 L 445.72026 381.03464 M 493.06758 316.16572 L 511.85630 276.78184 L 502.43189 274.01041 L 493.06758 316.16572 M 355.87721 184.41983 L 339.83551 192.00318 L 344.12852 197.93487 L 355.87721 184.41983 M 355.26138 181.39230 L 339.20189 173.71463 L 339.21968 188.97565 L 355.26138 181.39230 M 327.69371 181.65455 L 320.06849 180.44024 L 324.05570 190.36749 L 327.69371 181.65455 M 313.81556 161.11027 L 311.16196 153.26592 L 308.52487 160.19874 L 313.81556 161.11027 M 320.56173 153.84540 L 312.66657 152.47176 L 315.32016 160.31610 L 320.56173 153.84540 M 320.51689 152.12577 L 314.96146 146.55907 L 312.62173 150.75213 L 320.51689 152.12577 M 329.01552 148.10979 L 323.47873 146.37705 L 323.28479 151.81196 L 329.01552 148.10979 M 329.44168 146.76125 L 326.69407 141.02360 L 323.90489 145.02850 L 329.44168 146.76125 M 329.69524 149.48376 L 323.96451 153.18592 L 328.91650 157.36880 L 329.69524 149.48376 M 313.19089 143.90664 L 309.48142 136.23718 L 307.72213 142.76879 L 313.19089 143.90664 M 310.02759 150.56321 L 306.89856 145.23231 L 305.23258 151.75230 L 310.02759 150.56321 M 305.30286 153.50426 L 307.46079 159.24799 L 310.09787 152.31517 L 305.30286 153.50426 M 302.42637 152.36753 L 296.48826 148.30279 L 295.18203 153.02984 L 302.42637 152.36753 M 295.01415 147.19488 L 290.63353 143.50430 L 293.70793 151.92193 L 295.01415 147.19488 M 298.59064 139.60924 L 291.24387 141.96522 L 295.62449 145.65580 L 298.59064 139.60924 M 297.66712 136.20199 L 288.23635 118.39780 L 290.32035 138.55797 L 297.66712 136.20199 M 304.94069 143.37703 L 300.30274 139.78572 L 297.33659 145.83227 L 304.94069 143.37703 M 303.94399 171.32681 L 300.28127 162.10465 L 298.46277 170.46899 L 303.94399 171.32681 M 299.42601 179.84655 L 303.83708 173.54455 L 298.35586 172.68673 L 299.42601 179.84655 M 294.12201 169.36535 L 291.70041 156.94623 L 273.45799 166.55246 L 294.12201 169.36535 M 263.08002 163.93778 L 259.40951 138.32837 L 233.01121 164.45108 L 263.08002 163.93778 M 260.56791 169.34481 L 230.49910 169.85810 L 239.31260 181.58456 L 260.56791 169.34481 M 235.98819 186.52464 L 228.76148 188.78645 L 232.38589 194.87722 L 235.98819 186.52464 M 226.43024 171.92975 L 228.01702 185.91801 L 235.24374 183.65621 L 226.43024 171.92975 M 223.96253 172.04399 L 215.50209 184.57016 L 225.54931 186.03226 L 223.96253 172.04399 M 256.81040 133.85123 L 242.28718 128.12071 L 230.41211 159.97394 L 256.81040 133.85123 M 268.89743 140.26369 L 263.89529 135.30494 L 267.56580 160.91436 L 268.89743 140.26369 M 176.78878 143.07727 L 191.90791 178.25802 L 201.40188 175.46741 L 176.78878 143.07727 M 166.88616 143.41946 L 145.21537 176.19337 L 158.97085 180.61186 L 166.88616 143.41946 M 123.43236 134.36487 L 125.47196 149.39891 L 160.74373 135.30375 L 123.43236 134.36487 M 116.65644 140.94861 L 119.96105 150.10452 L 117.92145 135.07048 L 116.65644 140.94861 M 117.58536 155.71188 L 93.88679 162.60038 L 119.30993 163.88494 L 117.58536 155.71188 M 93.38255 166.73920 L 114.56849 180.58597 L 117.78864 176.26021 L 93.38255 166.73920 M 92.28505 167.75503 L 109.00865 184.38686 L 113.47099 181.60180 L 92.28505 167.75503 M 90.52657 169.01218 L 99.40313 191.65893 L 107.25016 185.64400 L 90.52657 169.01218 M 87.92331 170.43597 L 86.42404 197.03434 L 96.79986 193.08273 L 87.92331 170.43597 M 53.77829 151.00171 L 52.29194 160.36438 L 79.35068 161.68586 L 53.77829 151.00171 M 60.28776 138.53684 L 54.77777 148.27326 L 80.35015 158.95742 L 60.28776 138.53684 M 42.90329 132.10510 L 45.69795 138.47564 L 55.11813 134.46463 L 42.90329 132.10510 M 40.69616 132.89114 L 37.46104 140.75295 L 43.49081 139.26168 L 40.69616 132.89114 M 53.80380 106.52949 L 58.94431 129.81614 L 69.23304 122.21486 L 53.80380 106.52949 M 55.95505 102.20904 L 71.38429 117.89442 L 76.15436 95.25256 L 55.95505 102.20904 M 55.88205 97.89640 L 76.08136 90.93991 L 70.80027 83.39327 L 55.88205 97.89640 M 58.22900 76.64621 L 44.83502 78.82873 L 51.01343 95.80104 L 58.22900 76.64621 M 51.08751 72.16051 L 44.84428 75.87367 L 58.23826 73.69115 L 51.08751 72.16051 M 57.06113 66.56309 L 52.61462 70.99669 L 59.76537 72.52733 L 57.06113 66.56309 M 50.87146 62.41914 L 51.50288 69.73317 L 55.94939 65.29957 L 50.87146 62.41914 M 50.66508 60.21412 L 55.74302 63.09454 L 49.85185 52.09295 L 50.66508 60.21412 M 41.90561 63.21620 L 49.74741 69.47275 L 49.11599 62.15872 L 41.90561 63.21620 M 39.76194 69.73207 L 48.57815 70.41941 L 40.73635 64.16287 L 39.76194 69.73207 M 42.56328 75.55681 L 48.80652 71.84366 L 39.99030 71.15632 L 42.56328 75.55681 M 34.02481 75.83475 L 36.61612 70.26014 L 26.97734 63.50018 L 34.02481 75.83475 M 25.18139 64.50023 L 22.24853 78.26056 L 32.22886 76.83480 L 25.18139 64.50023 M 22.84917 61.86307 L 13.57113 55.73757 L 19.91631 75.62340 L 22.84917 61.86307 M 29.39868 45.65943 L 20.88554 47.83950 L 24.71548 57.65618 L 29.39868 45.65943 M 31.50124 46.02470 L 26.81804 58.02145 L 37.70605 50.76170 L 31.50124 46.02470 M 36.17607 36.69541 L 32.92203 42.39292 L 41.13515 39.40174 L 36.17607 36.69541 M 41.75391 32.22090 L 37.28006 35.42391 L 42.23913 38.13023 L 41.75391 32.22090 M 36.22547 28.57622 L 36.52835 34.22965 L 41.00220 31.02664 L 36.22547 28.57622 M 41.34809 24.35877 L 36.82794 27.34236 L 41.60467 29.79278 L 41.34809 24.35877 M 42.70299 24.33750 L 42.95957 29.77151 L 47.66717 27.17219 L 42.70299 24.33750 M 48.44587 20.82635 L 43.38878 23.21936 L 48.35296 26.05404 L 48.44587 20.82635 M 47.74524 19.40200 L 42.74793 14.65926 L 42.68815 21.79501 L 47.74524 19.40200 M 49.78903 12.38527 L 43.63553 13.48304 L 48.63285 18.22579 L 49.78903 12.38527 M 47.10268 11.62528 L 27.14206 12.14586 L 40.94919 12.72305 L 47.10268 11.62528 M 59.31699 11.63991 L 84.41293 12.54972 L 93.60714 12.45088 L 59.31699 11.63991 M 73.51565 18.81168 L 65.03987 25.14503 L 77.24249 27.81751 L 73.51565 18.81168 M 83.30117 13.06385 L 68.36051 12.90556 L 74.55779 15.81244 L 83.30117 13.06385 M 84.93468 13.72201 L 76.19131 16.47060 L 81.42861 18.17078 L 84.93468 13.72201 M 87.55917 14.19184 L 88.66066 21.83089 L 92.57961 17.03897 L 87.55917 14.19184 M 95.51133 17.83888 L 100.24659 23.99959 L 102.35870 19.22233 L 95.51133 17.83888 M 97.90948 12.98758 L 88.71527 13.08643 L 93.73571 15.93356 L 97.90948 12.98758 M 99.60488 13.59195 L 95.43111 16.53793 L 102.27848 17.92137 L 99.60488 13.59195 M 98.51327 26.04130 L 89.85905 24.67251 L 92.41102 30.76410 L 98.51327 26.04130 M 98.63203 27.87462 L 92.52979 32.59741 L 90.80920 39.33904 L 98.63203 27.87462 M 104.62502 30.29073 L 103.23349 51.33640 L 134.04238 42.34507 L 104.62502 30.29073 M 90.05433 23.11773 L 98.70855 24.48652 L 93.97328 18.32581 L 90.05433 23.11773 M 81.74947 31.01356 L 88.69888 39.73140 L 90.41946 32.98978 L 81.74947 31.01356 M 88.96342 51.44996 L 96.62077 53.90756 L 90.18946 44.32631 L 88.96342 51.44996 M 89.92015 62.19807 L 83.76957 62.25292 L 87.19189 69.36242 L 89.92015 62.19807 M 82.25163 63.41224 L 77.77664 71.47258 L 85.67396 70.52173 L 82.25163 63.41224 M 85.88942 80.12691 L 91.29096 84.20763 L 93.89535 78.71094 L 85.88942 80.12691 M 84.32045 81.45699 L 81.34360 89.35158 L 89.72199 85.53772 L 84.32045 81.45699 M 90.26446 87.65707 L 81.88607 91.47094 L 88.66023 98.41180 L 90.26446 87.65707 M 96.43349 94.33894 L 91.02526 100.05708 L 97.00229 99.59654 L 96.43349 94.33894 M 98.46113 102.63709 L 96.99487 113.75258 L 103.59339 108.00839 L 98.46113 102.63709 M 96.75496 102.92422 L 89.94409 110.30546 L 95.28870 114.03971 L 96.75496 102.92422 M 104.62030 109.48957 L 98.02177 115.23376 L 106.67633 114.48651 L 104.62030 109.48957 M 106.42398 108.71045 L 108.48001 113.70739 L 112.45126 109.00078 L 106.42398 108.71045 M 108.06951 116.82899 L 104.25472 120.80361 L 110.92595 125.00206 L 108.06951 116.82899 M 109.66278 116.86647 L 112.51923 125.03954 L 117.00091 121.10345 L 109.66278 116.86647 M 103.77057 122.13187 L 104.19635 127.45504 L 110.44181 126.33032 L 103.77057 122.13187 M 96.51841 117.67241 L 96.40820 125.02416 L 101.35818 120.89978 L 96.51841 117.67241 M 94.94905 118.03408 L 88.80331 123.79315 L 94.83884 125.38583 L 94.94905 118.03408 M 93.94151 130.10982 L 87.90598 128.51713 L 87.77037 155.82595 L 93.94151 130.10982 M 96.11785 131.08304 L 89.94672 156.79918 L 105.31673 136.30291 L 96.11785 131.08304 M 85.62815 128.18774 L 75.71888 127.47472 L 85.49254 155.49657 L 85.62815 128.18774 M 75.85270 122.21727 L 85.76197 122.93029 L 86.56309 113.43697 L 75.85270 122.21727 M 108.37191 98.38117 L 99.88326 100.71566 L 105.01552 106.08696 L 108.37191 98.38117 M 109.96613 99.18997 L 106.60975 106.89577 L 112.63703 107.18611 L 109.96613 99.18997 M 111.59917 98.30088 L 114.27007 106.29701 L 119.67411 99.78303 L 111.59917 98.30088 M 108.89565 90.02722 L 99.72837 92.79340 L 108.78582 95.71650 L 108.89565 90.02722 M 102.09079 86.94970 L 98.89149 91.69755 L 108.05877 88.93137 L 102.09079 86.94970 M 95.66747 79.33515 L 93.06308 84.83185 L 100.06638 85.12060 L 95.66747 79.33515 M 100.29516 74.86517 L 96.57148 78.08931 L 100.97039 83.87476 L 100.29516 74.86517 M 99.58216 73.14529 L 95.26637 70.11568 L 95.85848 76.36943 L 99.58216 73.14529 M 98.26888 57.12322 L 93.05747 61.00077 L 100.92845 63.71643 L 98.26888 57.12322 M 103.41464 55.28481 L 106.07421 61.87802 L 134.22353 46.29348 L 103.41464 55.28481 M 135.46378 48.29439 L 107.31445 63.87893 L 113.33661 71.29212 L 135.46378 48.29439 M 119.24824 88.53078 L 111.33564 89.49439 L 111.22581 95.18367 L 119.24824 88.53078 M 126.25997 104.70843 L 124.22281 120.16599 L 160.91911 128.76049 L 126.25997 104.70843 M 117.96135 122.80239 L 113.47967 126.73848 L 117.34629 130.45800 L 117.96135 122.80239 M 74.11115 81.27169 L 79.39224 88.81833 L 82.36909 80.92374 L 74.11115 81.27169 M 66.68895 46.73212 L 55.85031 36.21671 L 54.16171 41.61397 L 66.68895 46.73212 M 51.84896 50.89322 L 57.74012 61.89481 L 66.64196 50.61627 L 51.84896 50.89322 M 44.51601 40.59033 L 48.63004 47.59039 L 50.89579 42.19529 L 44.51601 40.59033 M 43.31771 41.46508 L 41.30940 49.19326 L 47.43174 48.46514 L 43.31771 41.46508 M 50.90198 27.72579 L 54.74800 32.44216 L 60.02785 26.64934 L 50.90198 27.72579 M 35.53457 18.82645 L 36.06918 25.97157 L 40.58933 22.98798 L 35.53457 18.82645 M 32.78136 17.61962 L 24.08876 14.06821 L 27.79085 24.02987 L 32.78136 17.61962 M 21.81673 14.68677 L 14.60515 22.56810 L 25.51883 24.64843 L 21.81673 14.68677 M 15.71341 33.26811 L 17.12726 38.02675 L 21.79160 33.51848 L 15.71341 33.26811 M 14.05000 33.58388 L 12.21089 27.17487 L 11.73729 47.21227 L 14.05000 33.58388 M 16.37647 41.35750 L 12.64991 50.22725 L 18.09801 46.53607 L 16.37647 41.35750 M 25.38263 34.24107 L 30.95297 41.74784 L 34.20701 36.05033 L 25.38263 34.24107 M 20.05794 82.42585 L 14.73323 88.13833 L 22.96178 90.68431 L 20.05794 82.42585 M 12.53181 86.37855 L 11.51135 60.78024 L 11.69565 96.49192 L 12.53181 86.37855 M 14.94872 95.28148 L 22.32312 92.29126 L 14.09457 89.74528 L 14.94872 95.28148 M 15.76521 96.44692 L 20.62647 99.06881 L 23.13961 93.45670 L 15.76521 96.44692 M 14.47025 97.52798 L 12.77994 102.10515 L 19.33151 100.14986 L 14.47025 97.52798 M 13.52140 103.29681 L 20.40195 107.06124 L 20.07297 101.34152 L 13.52140 103.29681 M 20.41266 109.95590 L 15.67361 112.35730 L 18.01720 118.33299 L 20.41266 109.95590 M 14.82553 114.39670 L 13.62805 126.27109 L 17.16913 120.37239 L 14.82553 114.39670 M 25.14821 89.66456 L 32.22471 79.98034 L 22.24438 81.40610 L 25.14821 89.66456 M 25.29024 252.60461 L 54.89807 247.31915 L 43.25066 228.29702 L 25.29024 252.60461 M 35.03135 290.49020 L 52.47186 278.12031 L 24.10741 262.93731 L 35.03135 290.49020 M 34.10529 296.70093 L 28.24229 299.37031 L 40.00248 297.58387 L 34.10529 296.70093 M 28.64802 309.10805 L 37.35110 374.60284 L 40.40821 307.32161 L 28.64802 309.10805 M 20.30421 310.08340 L 34.83810 374.94807 L 26.13502 309.45327 L 20.30421 310.08340 M 46.69057 307.80632 L 43.63346 375.08756 L 78.90691 312.98576 L 46.69057 307.80632 M 95.34671 310.34683 L 121.45403 342.61603 L 116.82819 316.52753 L 95.34671 310.34683 M 100.51149 294.40463 L 92.72889 304.32041 L 114.21037 310.50110 L 100.51149 294.40463 M 123.06310 316.68278 L 127.68894 342.77128 L 145.22598 311.58887 L 123.06310 316.68278 M 164.58391 351.39549 L 150.41608 315.92796 L 132.87904 347.11037 L 164.58391 351.39549 M 168.68095 347.06614 L 165.65540 312.47553 L 154.51312 311.59861 L 168.68095 347.06614 M 176.06382 349.02106 L 198.75360 321.94547 L 187.86076 319.72301 L 176.06382 349.02106 M 178.94722 351.17885 L 210.92797 336.98528 L 201.63700 324.10325 L 178.94722 351.17885 M 177.33714 363.76155 L 194.81569 389.41120 L 203.25852 384.92164 L 177.33714 363.76155 M 207.69498 388.48391 L 199.25214 392.97346 L 212.82878 392.25968 L 207.69498 388.48391 M 210.19869 387.31132 L 215.33249 391.08708 L 219.28181 383.59272 L 210.19869 387.31132 M 223.83998 382.73304 L 231.62693 390.89867 L 234.92782 379.76259 L 223.83998 382.73304 M 239.73397 392.54308 L 275.82183 391.53342 L 255.90936 385.76187 L 239.73397 392.54308 M 259.68220 383.55733 L 274.05492 385.28919 L 275.45645 378.94647 L 259.68220 383.55733 M 278.32212 351.65775 L 292.94857 351.86161 L 294.88815 345.29230 L 278.32212 351.65775 M 260.24164 337.63255 L 288.58583 341.32672 L 254.30812 330.19653 L 260.24164 337.63255 M 247.53645 345.11031 L 251.20642 349.20117 L 255.33596 340.16457 L 247.53645 345.11031 M 218.64350 334.68831 L 227.64408 330.03090 L 222.37989 324.57853 L 218.64350 334.68831 M 226.78766 312.01907 L 232.62292 308.25679 L 229.13006 303.65328 L 226.78766 312.01907 M 234.75625 315.20849 L 240.08167 315.77988 L 234.72516 309.95857 L 234.75625 315.20849 M 220.10433 306.54113 L 225.22284 311.80461 L 227.56524 303.43882 L 220.10433 306.54113 M 200.88447 286.44495 L 217.06204 303.37117 L 224.52294 300.26886 L 200.88447 286.44495 M 284.33406 258.35671 L 245.53656 221.77559 L 235.53811 237.13371 L 284.33406 258.35671 M 289.63322 253.57804 L 268.44767 205.32280 L 260.31948 210.57847 L 289.63322 253.57804 M 308.72575 369.12166 L 301.94742 370.09677 L 302.82739 375.12255 L 308.72575 369.12166 M 314.15622 390.40727 L 315.49728 382.97951 L 306.87521 385.52257 L 314.15622 390.40727 M 316.09041 390.32023 L 322.34875 384.82626 L 317.43147 382.89247 L 316.09041 390.32023 M 140.55475 393.21288 L 64.77783 393.53887 L 175.34201 393.64104 L 140.55475 393.21288 M 137.13806 385.31719 L 139.43949 390.32765 L 144.60560 391.93121 L 137.13806 385.31719 M 129.68101 391.31908 L 59.07020 393.24863 L 134.84712 392.92264 L 129.68101 391.31908 M 57.28892 390.89968 L 125.59829 383.95967 L 122.89828 379.14155 L 57.28892 390.89968 M 55.83845 385.99408 L 118.22313 362.78931 L 117.21922 356.16148 L 55.83845 385.99408" fill="none" stroke="black" stroke-width="0.01cm" />
   </g>
</svg>