<?xml version="1.0" standalone="no"?>
  <!DOCTYPE svg PUBLIC "-//W3C//DTD SVG 1.1//EN" 
    "http://www.w3.org/Graphics/SVG/1.1/DTD/svg11.dtd">
  <svg width="12.7cm" height="8.89cm"
       xmlns="http://www.w3.org/2000/svg" version="1.1" viewBox="0 0 449.99999 314.99999">
   <g>
     <path d="M 226.00174 142.01334 L 216.86805 144.57723 L 222.00129 149.69214 L 226.00174 142.01334 M 213.48697 145.26890 L 206.41120 147.18138 L 211.16204 150.74910 L 213.48697 145.26890 M 199.81960 156.32493 L 195.81127 164.01683 L 208.46568 153.84815 L 199.81960 156.32493 M 194.26294 147.02056 L 199.03221 153.75443 L 202.92744 147.70994 L 194.26294 147.02056 M 192.78869 147.86837 L 191.13344 154.49247 L 197.55796 154.60225 L 192.78869 147.86837 M 185.08054 140.17204 L 182.90377 147.73599 L 190.48790 145.51430 L 185.08054 140.17204 M 177.02476 138.12058 L 126.04171 129.10263 L 174.84799 145.68453 L 177.02476 138.12058 M 182.41350 151.29084 L 182.81364 161.98679 L 188.34238 155.69325 L 182.41350 151.29084 M 182.70454 166.57067 L 181.50912 173.30118 L 188.26492 174.93778 L 182.70454 166.57067 M 181.80036 175.44247 L 185.03448 183.70098 L 188.55616 177.07907 L 181.80036 175.44247 M 174.89053 178.49550 L 183.32628 183.87803 L 180.09216 175.61952 L 174.89053 178.49550 M 174.17495 179.80476 L 174.36746 186.09363 L 182.61069 185.18729 L 174.17495 179.80476 M 174.63817 187.92797 L 176.34061 194.47953 L 182.88140 187.02164 L 174.63817 187.92797 M 167.89460 195.96933 L 174.46726 195.59799 L 172.76482 189.04644 L 167.89460 195.96933 M 158.04625 194.21404 L 152.64858 198.47010 L 163.83490 196.86263 L 158.04625 194.21404 M 151.18843 199.70670 L 146.36503 204.10686 L 162.37475 198.09923 L 151.18843 199.70670 M 146.22984 191.01082 L 140.87356 194.34122 L 148.78439 197.83403 L 146.22984 191.01082 M 138.85109 193.74870 L 144.20737 190.41830 L 132.60463 193.09385 L 138.85109 193.74870 M 129.35671 195.08737 L 124.82035 199.05054 L 129.00679 203.05808 L 129.35671 195.08737 M 130.60542 185.64955 L 147.24823 179.07466 L 117.81736 138.09364 L 130.60542 185.64955 M 116.06221 195.97653 L 123.20228 198.16535 L 127.73863 194.20217 L 116.06221 195.97653 M 113.80253 199.16009 L 109.66122 219.67069 L 120.94260 201.34891 L 113.80253 199.16009 M 122.56067 202.23410 L 111.27930 220.55588 L 126.74711 206.24164 L 122.56067 202.23410 M 140.75266 215.14541 L 168.76629 236.55642 L 145.91567 210.09529 L 140.75266 215.14541 M 139.04204 220.25117 L 132.23076 250.94141 L 167.05568 241.66219 L 139.04204 220.25117 M 109.95052 231.18991 L 114.22098 250.98890 L 123.12784 253.19312 L 109.95052 231.18991 M 93.02850 247.27698 L 102.39113 250.72938 L 105.29172 230.50373 L 93.02850 247.27698 M 91.07720 250.62806 L 89.68134 257.31235 L 100.43984 254.08046 L 91.07720 250.62806 M 90.90557 259.02924 L 100.87107 264.36322 L 101.66407 255.79735 L 90.90557 259.02924 M 82.35666 267.38298 L 89.39231 270.34137 L 87.48488 260.98077 L 82.35666 267.38298 M 71.35605 267.81136 L 78.92735 266.72921 L 74.65744 257.62686 L 71.35605 267.81136 M 61.29699 273.93926 L 64.96445 268.55508 L 34.76341 257.11031 L 61.29699 273.93926 M 53.17175 281.41681 L 59.82290 275.54697 L 33.28932 258.71802 L 53.17175 281.41681 M 54.90873 286.51236 L 48.41891 291.37426 L 60.32613 288.75070 L 54.90873 286.51236 M 72.00779 285.65640 L 77.93234 288.01308 L 77.41912 281.71770 L 72.00779 285.65640 M 76.38876 289.74819 L 53.24588 291.98435 L 82.28881 291.00568 L 76.38876 289.74819 M 84.19399 291.24243 L 55.15106 292.22110 L 91.63020 291.64219 L 84.19399 291.24243 M 79.10835 282.23401 L 79.62157 288.52939 L 85.52162 289.78689 L 79.10835 282.23401 M 80.44448 281.37938 L 86.85775 288.93226 L 90.31063 281.69238 L 80.44448 281.37938 M 80.78340 279.48495 L 90.64955 279.79795 L 89.56914 273.77683 L 80.78340 279.48495 M 92.78933 279.23651 L 97.90166 274.99341 L 91.70892 273.21539 L 92.78933 279.23651 M 101.89046 281.17597 L 99.17435 275.98848 L 94.06202 280.23158 L 101.89046 281.17597 M 105.14561 281.14029 L 111.04721 281.37138 L 111.48554 274.52758 L 105.14561 281.14029 M 101.19840 275.17872 L 103.91451 280.36621 L 110.25444 273.75350 L 101.19840 275.17872 M 113.30886 280.70909 L 123.23876 275.84197 L 113.74718 273.86529 L 113.30886 280.70909 M 113.91140 282.21173 L 118.56753 285.88647 L 123.84131 277.34462 L 113.91140 282.21173 M 111.98346 283.77473 L 108.41775 289.84857 L 116.63959 287.44946 L 111.98346 283.77473 M 108.74641 291.24032 L 102.56541 291.63065 L 129.01552 292.11930 L 108.74641 291.24032 M 119.02579 288.44272 L 110.80395 290.84183 L 131.07307 291.72081 L 119.02579 288.44272 M 125.78951 286.91833 L 125.32607 277.93294 L 120.05230 286.47479 L 125.78951 286.91833 M 128.39431 275.70386 L 138.14406 279.67022 L 135.31190 273.66117 L 128.39431 275.70386 M 139.78206 275.57923 L 147.69386 285.34488 L 159.07595 287.29171 L 139.78206 275.57923 M 142.66552 271.27257 L 161.95940 282.98506 L 170.76147 250.89164 L 142.66552 271.27257 M 140.26254 280.77350 L 145.34219 284.53010 L 137.43039 274.76445 L 140.26254 280.77350 M 140.24196 282.75387 L 137.26572 290.60745 L 145.32160 286.51048 L 140.24196 282.75387 M 155.08005 291.87805 L 141.54947 292.25672 L 169.03727 292.22972 L 155.08005 291.87805 M 163.76429 289.79942 L 157.85690 291.57089 L 171.81413 291.92256 L 163.76429 289.79942 M 165.86564 284.96158 L 173.91548 287.08472 L 174.66772 252.86816 L 165.86564 284.96158 M 186.19859 286.87773 L 192.38649 285.77023 L 178.97927 252.93501 L 186.19859 286.87773 M 192.45153 292.01645 L 306.93475 290.47275 L 200.42309 291.74261 L 192.45153 292.01645 M 197.66189 290.43600 L 191.47398 291.54350 L 221.18242 290.26123 L 197.66189 290.43600 M 205.80595 291.52031 L 312.31761 290.25045 L 235.51439 290.23803 L 205.80595 291.52031 M 197.15509 281.76431 L 224.34735 254.83038 L 183.74786 248.92909 L 197.15509 281.76431 M 243.01241 289.42617 L 319.81563 289.43859 L 265.79011 285.02541 L 243.01241 289.42617 M 259.57293 280.26336 L 256.85046 268.88539 L 250.02293 267.12094 L 259.57293 280.26336 M 270.44283 275.43347 L 323.63485 286.02513 L 272.73263 268.29703 L 270.44283 275.43347 M 269.84015 251.25948 L 271.85980 244.18658 L 265.42419 244.83605 L 269.84015 251.25948 M 272.34595 241.00491 L 274.14070 231.64588 L 265.49898 235.81460 L 272.34595 241.00491 M 282.67972 236.34814 L 287.41978 229.66022 L 277.72454 230.44464 L 282.67972 236.34814 M 288.05890 226.26123 L 284.48930 214.01262 L 281.66702 222.18924 L 288.05890 226.26123 M 283.96579 209.60360 L 286.84426 201.43070 L 278.17000 207.33863 L 283.96579 209.60360 M 274.09498 208.53295 L 264.78154 208.71007 L 269.35339 213.07318 L 274.09498 208.53295 M 264.69048 206.48488 L 274.00392 206.30776 L 268.62489 195.27162 L 264.69048 206.48488 M 261.89980 217.64001 L 267.33051 220.77184 L 268.28159 215.42527 L 261.89980 217.64001 M 258.53501 217.43680 L 251.97825 213.33547 L 253.35080 221.03283 L 258.53501 217.43680 M 269.34436 221.29850 L 278.01053 221.85331 L 270.29543 215.95194 L 269.34436 221.29850 M 253.89657 231.27109 L 259.38031 227.37742 L 253.65787 224.13019 L 253.89657 231.27109 M 255.50284 243.56957 L 261.42621 236.40942 L 254.32889 234.43457 L 255.50284 243.56957 M 256.57551 244.68595 L 262.91024 243.36557 L 262.49888 237.52579 L 256.57551 244.68595 M 249.13582 263.08031 L 258.24719 257.92564 L 250.19219 254.85752 L 249.13582 263.08031 M 246.46906 262.50013 L 247.52543 254.27733 L 236.91308 253.28416 L 246.46906 262.50013 M 236.55875 250.89014 L 247.17110 251.88331 L 243.63440 243.34796 L 236.55875 250.89014 M 233.73240 240.63556 L 234.87891 249.48417 L 241.95457 241.94199 L 233.73240 240.63556 M 226.20105 237.37405 L 232.90972 248.91318 L 231.76321 240.06456 L 226.20105 237.37405 M 225.92745 235.10627 L 231.48961 237.79678 L 230.72091 230.77090 L 225.92745 235.10627 M 232.98066 228.89181 L 238.31583 230.89711 L 239.43896 225.09413 L 232.98066 228.89181 M 232.40002 227.64336 L 238.85833 223.84567 L 233.67076 220.90948 L 232.40002 227.64336 M 240.50097 231.26707 L 250.46178 231.85148 L 241.62410 225.46409 L 240.50097 231.26707 M 243.01297 224.52744 L 251.85065 230.91484 L 251.61195 223.77394 L 243.01297 224.52744 M 239.87092 212.42945 L 247.19076 209.47272 L 228.92750 191.27544 L 239.87092 212.42945 M 231.26682 216.20289 L 225.41756 192.49093 L 224.20534 216.63870 L 231.26682 216.20289 M 249.99375 207.09465 L 262.29488 193.40489 L 231.73050 188.89737 L 249.99375 207.09465 M 289.51815 197.78477 L 296.16702 193.97325 L 290.03384 190.15565 L 289.51815 197.78477 M 298.83858 192.56242 L 304.90102 189.27819 L 298.69502 185.96478 L 298.83858 192.56242 M 298.11668 183.02236 L 303.69745 178.68715 L 294.83710 176.67171 L 298.11668 183.02236 M 290.47415 186.81887 L 296.46377 184.03882 L 293.18419 177.68817 L 290.47415 186.81887 M 282.72722 179.76204 L 291.01225 175.61380 L 284.66328 172.42625 L 282.72722 179.76204 M 281.00940 179.47925 L 282.94546 172.14346 L 277.26967 173.35153 L 281.00940 179.47925 M 298.84860 169.55625 L 290.66258 165.66479 L 293.47011 173.72855 L 298.84860 169.55625 M 299.73404 168.19473 L 300.55359 162.83637 L 291.54802 164.30326 L 299.73404 168.19473 M 301.46487 160.11628 L 304.67646 154.09187 L 294.80711 153.92532 L 301.46487 160.11628 M 310.80999 161.10069 L 306.67682 154.98879 L 303.46523 161.01320 L 310.80999 161.10069 M 312.46252 159.89488 L 316.68544 151.36678 L 308.32934 153.78298 L 312.46252 159.89488 M 321.06436 158.99933 L 318.27731 152.01883 L 314.05439 160.54693 L 321.06436 158.99933 M 328.88428 164.03261 L 331.69447 155.38393 L 324.20292 159.76053 L 328.88428 164.03261 M 330.62755 153.77642 L 320.34896 151.17251 L 323.13600 158.15301 L 330.62755 153.77642 M 334.10270 152.35124 L 340.08717 150.05817 L 334.67410 146.44081 L 334.10270 152.35124 M 341.09687 151.77437 L 335.11240 154.06745 L 342.75172 160.17043 L 341.09687 151.77437 M 340.98807 148.77857 L 341.30993 142.11441 L 335.57500 145.16121 L 340.98807 148.77857 M 340.64881 140.73053 L 335.69913 137.70751 L 334.91388 143.77732 L 340.64881 140.73053 M 341.92408 139.57149 L 345.11606 134.50495 L 336.97441 136.54846 L 341.92408 139.57149 M 349.95347 142.66091 L 346.73844 135.26900 L 343.54647 140.33554 L 349.95347 142.66091 M 350.54521 151.69493 L 350.38909 145.54717 L 343.66022 149.88595 L 350.54521 151.69493 M 349.82035 153.51419 L 342.93536 151.70522 L 344.59021 160.10127 L 349.82035 153.51419 M 351.57982 154.49307 L 346.34968 161.08015 L 357.01112 159.53625 L 351.57982 154.49307 M 357.30222 161.42634 L 346.64078 162.97025 L 353.90860 169.61384 L 357.30222 161.42634 M 368.45460 164.01344 L 360.79125 161.69491 L 363.49603 170.98773 L 368.45460 164.01344 M 370.56503 170.72901 L 369.67633 165.14271 L 364.71775 172.11699 L 370.56503 170.72901 M 373.86076 180.30557 L 371.20058 173.31093 L 366.25324 180.19138 L 373.86076 180.30557 M 373.89277 182.66949 L 366.28524 182.55529 L 371.45663 192.22225 L 373.89277 182.66949 M 365.03788 179.39043 L 369.98522 172.50997 L 364.13794 173.89796 L 365.03788 179.39043 M 363.18724 180.26717 L 362.28730 174.77470 L 355.18004 179.52393 L 363.18724 180.26717 M 354.18028 178.58139 L 361.28753 173.83216 L 355.18914 172.72684 L 354.18028 178.58139 M 342.71410 179.16731 L 343.62662 173.28815 L 337.78281 175.79336 L 342.71410 179.16731 M 342.21295 171.82707 L 331.40481 167.47871 L 336.36915 174.33229 L 342.21295 171.82707 M 341.49534 161.73354 L 333.85602 155.63055 L 331.04583 164.27923 L 341.49534 161.73354 M 331.76448 145.03841 L 327.08884 141.44285 L 320.91449 148.34494 L 331.76448 145.03841 M 333.42666 143.69893 L 334.21191 137.62912 L 328.75101 140.10337 L 333.42666 143.69893 M 327.97528 138.81495 L 333.43617 136.34069 L 327.22075 133.39155 L 327.97528 138.81495 M 338.83369 128.24292 L 338.26222 122.41343 L 328.96347 130.66940 L 338.83369 128.24292 M 336.21750 121.37851 L 322.47592 119.96356 L 326.91875 129.63448 L 336.21750 121.37851 M 337.45135 119.23429 L 336.78954 112.48069 L 323.70977 117.81933 L 337.45135 119.23429 M 317.76589 115.77509 L 314.57118 105.65044 L 306.17480 107.66634 L 317.76589 115.77509 M 300.51909 107.76983 L 294.96684 101.02067 L 286.46882 121.33627 L 300.51909 107.76983 M 312.90262 92.48831 L 310.90051 83.09846 L 307.98255 89.23065 L 312.90262 92.48831 M 321.93958 85.14699 L 312.64514 82.58800 L 314.64724 91.97785 L 321.93958 85.14699 M 322.48808 83.51020 L 319.03523 78.88350 L 313.19364 80.95121 L 322.48808 83.51020 M 327.42730 75.61008 L 320.81444 78.21586 L 324.26729 82.84255 L 327.42730 75.61008 M 327.08908 74.13266 L 321.56150 71.02313 L 320.47622 76.73843 L 327.08908 74.13266 M 319.09947 68.86394 L 312.43191 62.12062 L 312.97510 69.31779 L 319.09947 68.86394 M 310.93804 72.09780 L 303.06229 76.57771 L 310.13553 79.42697 L 310.93804 72.09780 M 310.24239 70.61571 L 304.57035 67.57021 L 302.36664 75.09562 L 310.24239 70.61571 M 302.40751 67.52352 L 292.93968 70.24224 L 300.20380 75.04894 L 302.40751 67.52352 M 301.40162 65.78513 L 292.15668 61.14179 L 291.93379 68.50385 L 301.40162 65.78513 M 301.53329 58.91849 L 293.35662 59.94362 L 302.60156 64.58696 L 301.53329 58.91849 M 301.38192 55.83384 L 300.92390 47.88526 L 293.67194 48.88353 L 301.38192 55.83384 M 310.74671 61.75038 L 305.61786 65.90205 L 311.28990 68.94755 L 310.74671 61.75038 M 323.22866 58.23087 L 316.02973 52.68188 L 313.23011 59.09073 L 323.22866 58.23087 M 327.11808 60.92631 L 329.31466 71.63903 L 334.94989 64.39257 L 327.11808 60.92631 M 336.91094 65.94263 L 331.27571 73.18908 L 342.80649 73.32676 L 336.91094 65.94263 M 344.99876 72.56210 L 348.81387 67.07185 L 339.10322 65.17797 L 344.99876 72.56210 M 344.52858 76.52163 L 339.01262 80.93522 L 344.67283 86.95033 L 344.52858 76.52163 M 337.90964 82.30968 L 335.70474 87.51731 L 343.56985 88.32479 L 337.90964 82.30968 M 335.79035 81.83341 L 326.61552 84.51461 L 333.58545 87.04104 L 335.79035 81.83341 M 335.24607 80.43928 L 329.23126 75.88801 L 326.07124 83.12048 L 335.24607 80.43928 M 343.41329 90.11692 L 335.54818 89.30944 L 336.65716 96.64673 L 343.41329 90.11692 M 354.71386 87.39832 L 347.03660 89.93001 L 350.10127 96.87569 L 354.71386 87.39832 M 354.25544 84.91627 L 346.43393 77.01926 L 346.57818 87.44796 L 354.25544 84.91627 M 361.51417 94.91906 L 363.37284 89.66440 L 357.79709 87.15141 L 361.51417 94.91906 M 370.06428 101.46480 L 363.06461 98.30038 L 365.05958 105.78287 L 370.06428 101.46480 M 375.09218 92.91018 L 366.40969 90.77980 L 371.55069 99.19889 L 375.09218 92.91018 M 376.85416 90.31318 L 381.72636 84.50749 L 372.09179 82.09821 L 376.85416 90.31318 M 381.93046 94.81087 L 412.70221 118.07970 L 386.80267 89.00517 L 381.93046 94.81087 M 368.11852 81.95992 L 358.62264 85.53152 L 364.19838 88.04451 L 368.11852 81.95992 M 357.86651 72.92816 L 358.30743 64.84863 L 352.37743 67.07593 L 357.86651 72.92816 M 354.49096 54.24864 L 349.02789 48.48287 L 347.20715 55.31854 L 354.49096 54.24864 M 366.25391 51.65832 L 363.33738 61.30142 L 389.25966 56.42080 L 366.25391 51.65832 M 366.52253 43.10129 L 358.10273 41.60891 L 363.14593 47.99032 L 366.52253 43.10129 M 366.70950 41.60288 L 364.64174 36.00297 L 358.28970 40.11049 L 366.70950 41.60288 M 354.74844 40.45104 L 350.10178 35.88073 L 349.37812 44.79005 L 354.74844 40.45104 M 348.06591 31.87709 L 347.76547 24.22349 L 338.03826 24.98481 L 348.06591 31.87709 M 346.19733 33.66515 L 336.16968 26.77287 L 332.81680 38.52797 L 346.19733 33.66515 M 335.46360 23.99330 L 345.19081 23.23197 L 327.46866 23.94498 L 335.46360 23.99330 M 333.59502 25.78136 L 325.60008 25.73304 L 330.24214 37.53646 L 333.59502 25.78136 M 319.37248 23.80964 L 337.09463 23.09663 L 270.69417 22.91056 L 319.37248 23.80964 M 313.77972 28.85902 L 320.94817 24.78726 L 308.19028 25.94682 L 313.77972 28.85902 M 312.12705 31.51922 L 304.24976 35.55836 L 310.01470 39.11756 L 312.12705 31.51922 M 314.93959 32.04673 L 312.82724 39.64506 L 326.75011 39.77839 L 314.93959 32.04673 M 306.04089 27.10552 L 303.75304 34.05686 L 311.63032 30.01772 L 306.04089 27.10552 M 297.93071 28.09569 L 303.26010 25.88599 L 292.42555 25.00304 L 297.93071 28.09569 M 296.34157 28.93222 L 290.83640 25.83956 L 290.54697 32.57816 L 296.34157 28.93222 M 300.60406 34.79303 L 297.56252 30.05140 L 291.76792 33.69735 L 300.60406 34.79303 M 299.96193 36.71103 L 291.12579 35.61535 L 292.42548 45.39545 L 299.96193 36.71103 M 301.18360 37.96558 L 293.64715 46.65000 L 300.89911 45.65173 L 301.18360 37.96558 M 308.84873 40.79260 L 303.08380 37.23340 L 302.79930 44.91955 L 308.84873 40.79260 M 310.15877 42.32727 L 304.10934 46.45422 L 313.56410 49.51076 L 310.15877 42.32727 M 326.93482 41.89008 L 313.01196 41.75675 L 316.41728 48.94024 L 326.93482 41.89008 M 331.50024 44.25644 L 328.18164 56.85559 L 342.33637 55.13859 L 331.50024 44.25644 M 358.75539 24.92254 L 350.35511 24.21570 L 350.65555 31.86930 L 358.75539 24.92254 M 382.50218 26.38816 L 374.21890 25.69279 L 375.55300 32.52437 L 382.50218 26.38816 M 384.89024 25.47302 L 394.65747 25.20326 L 376.60696 24.77766 L 384.89024 25.47302 M 395.33047 50.20678 L 396.99791 28.38190 L 387.23068 28.65166 L 395.33047 50.20678 M 392.94241 51.12192 L 384.84262 29.56680 L 377.89344 35.70301 L 392.94241 51.12192 M 391.29536 52.82244 L 376.24639 37.40353 L 371.66621 43.17093 L 391.29536 52.82244 M 421.42373 42.55303 L 411.82691 32.69378 L 400.77736 52.23048 L 421.42373 42.55303 M 412.11196 28.29901 L 422.03669 29.21973 L 402.72985 26.01083 L 412.11196 28.29901 M 411.31888 129.96315 L 374.19780 136.20157 L 382.08537 154.56545 L 411.31888 129.96315 M 425.23543 158.25073 L 426.05667 49.29348 L 425.78624 76.72289 L 425.23543 158.25073 M 417.19293 184.33475 L 421.91086 178.40731 L 415.91491 177.96615 L 417.19293 184.33475 M 423.86020 189.23213 L 418.02366 189.67205 L 421.44214 215.17695 L 423.86020 189.23213 M 408.03010 187.34036 L 414.72289 185.62346 L 407.56528 180.63142 L 408.03010 187.34036 M 404.03064 190.00309 L 396.46420 191.63255 L 389.82879 198.58689 L 404.03064 190.00309 M 394.33205 189.03096 L 389.98320 178.02009 L 384.68687 187.15554 L 394.33205 189.03096 M 390.64607 174.07997 L 402.09654 176.75244 L 382.88825 163.97297 L 390.64607 174.07997 M 376.92498 156.97748 L 369.03741 138.61359 L 370.03571 149.25936 L 376.92498 156.97748 M 367.77575 148.84764 L 364.30717 143.28194 L 361.31554 148.60368 L 367.77575 148.84764 M 363.65338 140.37320 L 366.12365 135.29314 L 357.08350 135.97955 L 363.65338 140.37320 M 362.00938 141.33117 L 355.43950 136.93752 L 352.97169 142.95693 L 362.00938 141.33117 M 366.82920 132.56295 L 366.06323 123.06944 L 361.02364 128.71159 L 366.82920 132.56295 M 360.04720 127.17124 L 365.08680 121.52910 L 359.01774 120.24018 L 360.04720 127.17124 M 358.27316 127.20817 L 357.24370 120.27711 L 350.89445 121.82457 L 358.27316 127.20817 M 354.50374 134.60561 L 357.73833 130.06785 L 348.82090 133.23311 L 354.50374 134.60561 M 316.23805 148.99705 L 308.88346 140.93697 L 307.88196 151.41325 L 316.23805 148.99705 M 304.82991 137.94595 L 287.52014 129.46729 L 300.11790 144.02374 L 304.82991 137.94595 M 305.03741 133.92839 L 301.77791 111.88330 L 287.72764 125.44974 L 305.03741 133.92839 M 292.40608 149.72849 L 298.56492 145.49656 L 285.96716 130.94011 L 292.40608 149.72849 M 279.33847 152.00118 L 280.15517 131.12170 L 259.32459 144.85814 L 279.33847 152.00118 M 267.55888 160.54978 L 277.76394 155.67969 L 257.75006 148.53666 L 267.55888 160.54978 M 248.04328 139.55246 L 227.84665 99.49423 L 230.11514 135.87749 L 248.04328 139.55246 M 277.35293 118.99041 L 277.11717 95.00908 L 236.32573 92.66862 L 277.35293 118.99041 M 276.66746 90.36233 L 273.75524 81.81641 L 235.87601 88.02187 L 276.66746 90.36233 M 272.95083 78.02267 L 270.23217 60.01243 L 235.07160 84.22813 L 272.95083 78.02267 M 280.94468 67.05605 L 275.96631 57.86592 L 278.68496 75.87616 L 280.94468 67.05605 M 289.62954 70.57457 L 283.63004 68.59003 L 289.18995 76.97334 L 289.62954 70.57457 M 288.10328 80.43071 L 280.28365 80.86751 L 283.19586 89.41344 L 288.10328 80.43071 M 295.67818 85.80608 L 290.02759 81.04803 L 285.12018 90.03076 L 295.67818 85.80608 M 333.63710 98.58370 L 325.51141 94.27110 L 326.26951 102.58806 L 333.63710 98.58370 M 317.94156 171.51814 L 321.02239 161.43674 L 314.01242 162.98434 L 317.94156 171.51814 M 319.61174 171.90736 L 327.37394 166.09803 L 322.69258 161.82595 L 319.61174 171.90736 M 325.11901 175.75414 L 318.90285 175.17072 L 318.56747 181.54014 L 325.11901 175.75414 M 329.84663 182.11410 L 326.48699 176.62206 L 319.93544 182.40807 L 329.84663 182.11410 M 339.04542 188.75283 L 341.74761 181.72930 L 333.66558 183.38654 L 339.04542 188.75283 M 340.71538 189.54244 L 347.02529 189.70343 L 343.41757 182.51891 L 340.71538 189.54244 M 348.38458 188.66077 L 351.58970 181.20117 L 344.77686 181.47625 L 348.38458 188.66077 M 358.05525 194.06320 L 356.76382 188.06116 L 350.43486 190.82154 L 358.05525 194.06320 M 351.95486 200.16014 L 357.45413 195.57557 L 349.83374 192.33391 L 351.95486 200.16014 M 347.19555 209.21151 L 352.23598 211.69644 L 351.08194 203.82664 L 347.19555 209.21151 M 353.92158 211.44330 L 360.68039 207.18643 L 352.76754 203.57350 L 353.92158 211.44330 M 361.30114 205.40724 L 358.88755 197.20974 L 353.38829 201.79431 L 361.30114 205.40724 M 363.33865 204.71072 L 369.68838 196.22215 L 360.92507 196.51322 L 363.33865 204.71072 M 364.76605 205.62124 L 372.34424 203.79744 L 371.11578 197.13268 L 364.76605 205.62124 M 365.47873 213.21432 L 371.63961 205.80764 L 364.06142 207.63145 L 365.47873 213.21432 M 365.06457 215.95632 L 356.88844 214.63032 L 375.08510 223.48679 L 365.06457 215.95632 M 374.68914 217.92498 L 378.73087 223.63126 L 380.07585 213.96186 L 374.68914 217.92498 M 372.52474 223.45262 L 354.32809 214.59615 L 344.58174 215.68298 L 372.52474 223.45262 M 371.06320 231.14214 L 343.12020 223.37250 L 342.63573 276.11226 L 371.06320 231.14214 M 374.75181 203.16866 L 384.02660 200.59099 L 373.52335 196.50390 L 374.75181 203.16866 M 369.15909 194.19365 L 359.10435 188.48267 L 360.39578 194.48471 L 369.15909 194.19365 M 369.67222 192.77107 L 364.50083 183.10412 L 359.61748 187.06010 L 369.67222 192.77107 M 340.97883 199.49276 L 349.89545 200.64979 L 347.77433 192.82356 L 340.97883 199.49276 M 337.81643 199.11424 L 338.30202 192.28406 L 330.90615 197.78269 L 337.81643 199.11424 M 327.50512 211.75803 L 337.69546 213.09281 L 337.37114 202.97914 L 327.50512 211.75803 M 324.12135 210.32008 L 327.07710 200.20965 L 317.53560 202.92080 L 324.12135 210.32008 M 322.51068 222.12354 L 297.90011 233.16342 L 332.21655 276.19807 L 322.51068 222.12354 M 316.76762 200.89956 L 326.30912 198.18841 L 317.97757 194.15017 L 316.76762 200.89956 M 315.99188 191.34316 L 316.42828 184.81045 L 308.77730 189.01446 L 315.99188 191.34316 M 318.01594 191.34572 L 324.96978 189.03487 L 318.45234 184.81300 L 318.01594 191.34572 M 305.62319 176.64249 L 308.14411 170.83738 L 302.14134 170.45476 L 305.62319 176.64249 M 301.57108 212.17928 L 312.01574 202.76786 L 299.94867 196.97400 L 301.57108 212.17928 M 351.03282 281.43581 L 410.29694 265.96093 L 379.46029 236.46569 L 351.03282 281.43581 M 355.53493 287.57293 L 415.47717 285.56259 L 414.79905 272.09804 L 355.53493 287.57293 M 418.60490 259.20654 L 417.49650 227.40069 L 387.76825 229.71130 L 418.60490 259.20654 M 413.28341 221.80574 L 384.90014 214.44696 L 383.55515 224.11635 L 413.28341 221.80574 M 414.05700 219.30363 L 389.74389 204.09943 L 385.67373 211.94484 L 414.05700 219.30363 M 416.66728 216.95660 L 406.55602 193.16859 L 392.35418 201.75240 L 416.66728 216.95660 M 419.65223 215.48507 L 416.23376 189.98016 L 409.54097 191.69706 L 419.65223 215.48507 M 289.11213 36.43951 L 283.85260 43.30425 L 290.41182 46.21961 L 289.11213 36.43951 M 288.40676 32.36378 L 288.69619 25.62518 L 279.21988 27.21716 L 288.40676 32.36378 M 276.84414 26.29368 L 286.32045 24.70171 L 269.40078 24.97598 L 276.84414 26.29368 M 275.12622 27.49636 L 267.68286 26.17866 L 272.57712 34.32318 L 275.12622 27.49636 M 251.79412 43.29286 L 230.08501 39.45757 L 228.26006 78.08539 L 251.79412 43.29286 M 238.88603 23.70750 L 241.92962 28.80530 L 251.17734 23.53351 L 238.88603 23.70750 M 236.18504 24.77109 L 229.56940 32.04221 L 239.22862 29.86889 L 236.18504 24.77109 M 216.51722 25.31715 L 216.11652 33.86021 L 224.81607 32.54636 L 216.51722 25.31715 M 214.07714 25.08687 L 205.29543 30.70413 L 213.67644 33.62993 L 214.07714 25.08687 M 212.13086 23.89233 L 198.10626 24.07364 L 203.34915 29.50959 L 212.13086 23.89233 M 210.43365 23.06912 L 189.77146 22.92387 L 196.40905 23.25042 L 210.43365 23.06912 M 203.29631 32.38411 L 198.08423 38.52671 L 211.67733 35.30991 L 203.29631 32.38411 M 201.35004 31.18957 L 196.10715 25.75362 L 196.13795 37.33217 L 201.35004 31.18957 M 193.26801 24.17751 L 186.63042 23.85096 L 185.30536 30.48581 L 193.26801 24.17751 M 185.27353 34.64828 L 186.34493 45.57221 L 193.26698 39.91854 L 185.27353 34.64828 M 178.53544 39.19298 L 184.50349 45.48151 L 183.43208 34.55759 L 178.53544 39.19298 M 182.02139 49.10859 L 171.84451 47.10407 L 167.78410 59.29020 L 182.02139 49.10859 M 187.38805 53.45831 L 173.15076 63.63992 L 214.77781 81.90181 L 187.38805 53.45831 M 166.57244 39.35170 L 159.31234 45.24312 L 169.18665 44.45918 L 166.57244 39.35170 M 165.07690 38.54546 L 157.22233 38.00926 L 157.81680 44.43688 L 165.07690 38.54546 M 156.36268 34.95629 L 159.49290 30.28285 L 155.66392 25.22275 L 156.36268 34.95629 M 154.06168 25.37722 L 146.67500 31.51864 L 154.76044 35.11076 L 154.06168 25.37722 M 145.94798 33.88084 L 148.24550 44.27479 L 154.03342 37.47296 L 145.94798 33.88084 M 134.92667 38.33983 L 128.35282 41.74513 L 135.12052 45.50452 L 134.92667 38.33983 M 127.38961 43.36685 L 127.22095 51.31354 L 134.15730 47.12623 L 127.38961 43.36685 M 115.77733 30.69336 L 110.02025 29.30918 L 108.59459 38.68442 L 115.77733 30.69336 M 123.05544 24.56874 L 111.82785 27.54472 L 117.58494 28.92890 L 123.05544 24.56874 M 123.96744 22.81123 L 60.01483 22.78542 L 98.79808 23.65051 L 123.96744 22.81123 M 134.63073 23.82245 L 126.74994 24.40044 L 128.03256 31.13653 L 134.63073 23.82245 M 137.38960 25.02728 L 136.78687 34.92165 L 142.82548 31.45875 L 137.38960 25.02728 M 146.26902 47.82036 L 138.12672 48.05400 L 144.06635 55.20992 L 146.26902 47.82036 M 156.46869 48.93474 L 147.88363 56.69851 L 162.28259 60.33694 L 156.46869 48.93474 M 159.10574 47.71363 L 164.91965 59.11584 L 168.98005 46.92970 L 159.10574 47.71363 M 107.49083 43.50912 L 95.18406 51.59857 L 120.67961 51.82627 L 107.49083 43.50912 M 98.72956 39.16575 L 92.44030 50.01600 L 104.74707 41.92655 L 98.72956 39.16575 M 91.52507 29.49314 L 90.53708 35.92407 L 97.04898 36.21849 L 91.52507 29.49314 M 95.40569 24.18545 L 70.99067 24.18495 L 82.46003 26.22613 L 95.40569 24.18545 M 97.90696 24.55749 L 84.96131 26.59817 L 91.00087 27.16126 L 97.90696 24.55749 M 99.55889 25.59870 L 92.65280 28.20247 L 98.17671 34.92782 L 99.55889 25.59870 M 82.71733 28.99352 L 80.94315 37.28938 L 87.76890 35.98754 L 82.71733 28.99352 M 81.16996 28.36482 L 75.38995 30.95790 L 79.39578 36.66067 L 81.16996 28.36482 M 73.92540 32.29044 L 69.45359 39.02515 L 77.93123 37.99322 L 73.92540 32.29044 M 69.48357 40.78552 L 74.16522 46.37339 L 77.96121 39.75358 L 69.48357 40.78552 M 67.81549 42.38880 L 64.61658 52.57983 L 72.49714 47.97667 L 67.81549 42.38880 M 60.24846 36.93266 L 59.57472 43.07015 L 65.89432 40.10506 L 60.24846 36.93266 M 51.15724 32.35139 L 33.80798 47.05979 L 54.99943 43.33386 L 51.15724 32.35139 M 52.93135 22.90524 L 67.29959 23.76984 L 91.71460 23.77034 L 52.93135 22.90524 M 62.53398 24.24856 L 48.16574 23.38397 L 53.58972 27.60015 L 62.53398 24.24856 M 80.17922 41.01228 L 76.38323 47.63209 L 87.22762 50.85512 L 80.17922 41.01228 M 81.69661 39.88062 L 88.74501 49.72346 L 88.52236 38.57878 L 81.69661 39.88062 M 90.21896 61.29269 L 77.86394 70.38310 L 105.62061 112.19937 L 90.21896 61.29269 M 75.02626 72.52811 L 67.51753 78.45274 L 102.78293 114.34438 L 75.02626 72.52811 M 64.96986 81.13085 L 54.64486 93.95301 L 100.23526 117.02249 L 64.96986 81.13085 M 45.75264 77.02607 L 41.65360 83.19762 L 51.36285 79.05848 L 45.75264 77.02607 M 44.57930 72.59414 L 49.94126 68.08711 L 32.51508 54.28157 L 44.57930 72.59414 M 33.39356 77.13470 L 42.51084 73.72509 L 30.44662 55.41252 L 33.39356 77.13470 M 31.61201 82.61334 L 25.49405 88.96944 L 31.42949 89.47597 L 31.61201 82.61334 M 33.02038 88.96252 L 38.22113 84.86183 L 33.20290 82.09989 L 33.02038 88.96252 M 34.53086 91.55363 L 40.40358 97.35580 L 44.61479 92.92591 L 34.53086 91.55363 M 32.87176 92.91134 L 31.34200 103.78759 L 38.74449 98.71351 L 32.87176 92.91134 M 39.57310 100.43107 L 32.17062 105.50516 L 39.50070 106.65187 L 39.57310 100.43107 M 45.44340 94.64348 L 41.23220 99.07336 L 41.15980 105.29416 L 45.44340 94.64348 M 52.55792 97.30627 L 48.27431 107.95696 L 98.14831 120.37575 L 52.55792 97.30627 M 31.49852 107.65159 L 34.19638 117.60253 L 38.82861 108.79830 L 31.49852 107.65159 M 26.23196 112.74999 L 32.62180 118.09649 L 29.92394 108.14555 L 26.23196 112.74999 M 24.46479 112.29482 L 23.38071 102.07653 L 23.26048 120.06902 L 24.46479 112.29482 M 34.11395 125.79451 L 30.15280 138.26080 L 39.43248 151.91686 L 34.11395 125.79451 M 42.36839 119.54046 L 96.87462 123.15502 L 47.00062 110.73623 L 42.36839 119.54046 M 23.09155 133.04389 L 23.05080 171.26787 L 23.27426 159.87726 L 23.09155 133.04389 M 29.79051 141.61042 L 31.21560 152.59148 L 39.07018 155.26648 L 29.79051 141.61042 M 34.63072 164.34729 L 39.67521 158.10859 L 31.82063 155.43359 L 34.63072 164.34729 M 35.98635 165.73677 L 42.66568 166.54944 L 41.03084 159.49807 L 35.98635 165.73677 M 44.91475 168.47081 L 46.22318 174.32563 L 51.03564 168.20155 L 44.91475 168.47081 M 46.76284 176.92545 L 47.95121 183.68713 L 52.85614 176.38360 L 46.76284 176.92545 M 49.46049 185.65232 L 54.73171 188.17401 L 58.47081 182.82173 L 49.46049 185.65232 M 56.00027 190.47416 L 55.95834 196.85800 L 63.38995 192.31740 L 56.00027 190.47416 M 56.68160 198.14068 L 61.78633 200.73562 L 64.11321 193.60009 L 56.68160 198.14068 M 55.21983 199.49868 L 52.41912 204.46409 L 60.32457 202.09362 L 55.21983 199.49868 M 63.34106 201.33625 L 69.11943 202.94569 L 65.66794 194.20071 L 63.34106 201.33625 M 63.36293 203.35553 L 65.84293 210.35497 L 69.14131 204.96497 L 63.36293 203.35553 M 62.09788 204.38929 L 59.02093 213.23507 L 64.57788 211.38873 L 62.09788 204.38929 M 72.16285 205.12305 L 75.17526 210.42316 L 81.22450 204.71009 L 72.16285 205.12305 M 72.58659 203.23983 L 81.64824 202.82687 L 78.56517 195.35736 L 72.58659 203.23983 M 80.26493 194.06021 L 83.34800 201.52972 L 86.18468 192.86266 L 80.26493 194.06021 M 78.83192 192.09980 L 84.75167 190.90225 L 71.88393 185.84644 L 78.83192 192.09980 M 87.69793 193.45650 L 84.86125 202.12356 L 92.37097 198.81096 L 87.69793 193.45650 M 94.37320 202.18744 L 86.86349 205.50004 L 103.71584 220.46829 L 94.37320 202.18744 M 96.43830 201.29415 L 105.78093 219.57500 L 103.38424 198.35369 L 96.43830 201.29415 M 62.68239 222.26454 L 69.63290 219.83996 L 65.82193 214.10874 L 62.68239 222.26454 M 63.48491 224.51790 L 72.24210 232.13565 L 70.43542 222.09332 L 63.48491 224.51790 M 63.81980 227.97383 L 73.11448 249.74073 L 72.57698 235.59158 L 63.81980 227.97383 M 57.31016 216.06318 L 51.55122 218.85834 L 59.72756 222.37263 L 57.31016 216.06318 M 49.88883 217.56293 L 55.64776 214.76777 L 46.42842 212.00937 L 49.88883 217.56293 M 38.71135 207.53550 L 44.42767 209.94653 L 48.81852 206.22962 L 38.71135 207.53550 M 28.93642 216.17090 L 28.94713 245.45605 L 44.97854 221.43513 L 28.93642 216.17090 M 25.13549 203.50649 L 27.31287 209.93163 L 34.17826 207.23127 L 25.13549 203.50649 M 25.99292 202.20984 L 35.03569 205.93463 L 34.17238 199.55848 L 25.99292 202.20984 M 24.58306 192.39596 L 24.68634 200.51751 L 32.86580 197.86614 L 24.58306 192.39596 M 29.86431 186.89937 L 25.23030 190.69369 L 33.51304 196.16387 L 29.86431 186.89937 M 31.28649 184.58162 L 36.85650 185.81706 L 34.68641 180.18073 L 31.28649 184.58162 M 38.45873 188.83668 L 36.53744 196.86574 L 43.85547 195.07321 L 38.45873 188.83668 M 46.77458 194.06599 L 53.26969 189.57954 L 47.99846 187.05785 L 46.77458 194.06599 M 47.52162 195.33821 L 53.97480 197.23560 L 54.01673 190.85176 L 47.52162 195.33821 M 60.58176 181.27157 L 66.71444 183.07623 L 56.47638 176.79862 L 60.58176 181.27157 M 60.16196 164.79821 L 71.68085 176.65805 L 101.59393 135.50831 L 60.16196 164.79821 M 25.67669 168.67524 L 32.27149 166.39483 L 24.58602 163.29485 L 25.67669 168.67524 M 25.69983 171.52596 L 24.38569 177.53619 L 32.68003 177.81001 L 25.69983 171.52596 M 23.45617 164.47923 L 23.23271 175.86984 L 24.54685 169.85961 L 23.45617 164.47923 M 24.89716 179.06261 L 29.79157 183.73731 L 33.19149 179.33643 L 24.89716 179.06261 M 35.75896 254.88621 L 65.96000 266.33099 L 69.26139 256.14648 L 35.75896 254.88621 M 75.98429 252.28112 L 86.77830 248.29698 L 75.44679 238.13197 L 75.98429 252.28112 M 76.47165 256.55766 L 80.74157 265.66002 L 85.86980 259.25781 L 76.47165 256.55766 M 103.82395 256.12715 L 103.03095 264.69301 L 108.18466 261.66760 L 103.82395 256.12715 M 110.96393 261.33254 L 118.09402 262.43917 L 113.77427 255.36542 L 110.96393 261.33254 M 110.85345 263.24281 L 112.89045 270.64765 L 117.98355 264.34945 L 110.85345 263.24281 M 115.44816 254.82787 L 119.76791 261.90162 L 124.35502 257.03209 L 115.44816 254.82787 M 121.47529 263.12694 L 129.10723 264.63046 L 126.06240 258.25741 L 121.47529 263.12694 M 135.69880 264.19517 L 139.38294 268.92384 L 167.47890 248.54290 L 135.69880 264.19517 M 175.01703 234.06547 L 174.74878 201.22537 L 168.17612 201.59671 L 175.01703 234.06547 M 186.65005 199.75377 L 177.05802 200.99500 L 177.32627 233.83510 L 186.65005 199.75377 M 193.43024 179.12965 L 192.95979 191.96823 L 217.74176 185.63052 L 193.43024 179.12965 M 196.22265 169.45674 L 193.83810 176.31572 L 218.14962 182.81658 L 196.22265 169.45674 M 173.39618 167.51326 L 173.64927 176.44990 L 178.85090 173.57393 L 173.39618 167.51326 M 171.79788 167.53635 L 166.06451 173.75864 L 172.05097 176.47299 L 171.79788 167.53635 M 165.13687 175.48523 L 164.37675 181.34907 L 171.12333 178.19958 L 165.13687 175.48523 M 163.06852 185.13325 L 159.34874 192.54693 L 165.13740 195.19552 L 163.06852 185.13325 M 155.19363 184.77829 L 158.10577 191.24478 L 161.82555 183.83109 L 155.19363 184.77829 M 153.52620 185.47066 L 148.48613 189.37000 L 156.43834 191.93714 L 153.52620 185.47066 M 193.43673 132.96272 L 187.03423 137.63437 L 197.53819 137.44856 L 193.43673 132.96272 M 192.04451 131.79210 L 186.40040 128.08357 L 185.64201 136.46375 L 192.04451 131.79210 M 190.40224 123.10814 L 196.04634 126.81667 L 217.65667 96.66032 L 190.40224 123.10814 M 219.96573 97.91226 L 198.35541 128.06860 L 208.87476 133.12362 L 219.96573 97.91226 M 213.85670 41.05845 L 200.26360 44.27524 L 220.73130 78.37242 L 213.85670 41.05845 M 63.43332 56.50241 L 59.86003 61.45599 L 69.80325 64.21270 L 63.43332 56.50241 M 34.29221 50.36865 L 55.03107 58.82224 L 55.48366 46.64272 L 34.29221 50.36865 M 24.68141 80.48071 L 24.65053 87.84503 L 30.76850 81.48893 L 24.68141 80.48071" fill="none" stroke="black" stroke-width="0.01cm" />
   </g>
</svg>