<?xml version="1.0" standalone="no"?>
  <!DOCTYPE svg PUBLIC "-//W3C//DTD SVG 1.1//EN" 
    "http://www.w3.org/Graphics/SVG/1.1/DTD/svg11.dtd">
  <svg width="12.7cm" height="8.89cm"
       xmlns="http://www.w3.org/2000/svg" version="1.1" viewBox="0 0 449.99999 314.99999">
   <g>
     <path d="M 214.50300 146.43399 L 208.85830 148.71488 L 214.06702 152.04476 L 214.50300 146.43399 M 209.96740 152.86521 L 219.98919 175.10320 L 218.56268 160.72853 L 209.96740 152.86521 M 222.33796 131.28265 L 213.45753 135.33672 L 220.53866 138.30884 L 222.33796 131.28265 M 221.98944 129.61115 L 217.75056 124.93678 L 213.10901 133.66521 L 221.98944 129.61115 M 228.66079 122.57214 L 225.52926 127.76362 L 234.05710 119.40214 L 228.66079 122.57214 M 233.35270 121.14752 L 224.82485 129.50900 L 223.02556 136.53519 L 233.35270 121.14752 M 234.05946 117.75474 L 225.54812 114.58438 L 228.66315 120.92474 L 234.05946 117.75474 M 231.77002 109.03217 L 221.35872 103.53514 L 224.48213 111.68303 L 231.77002 109.03217 M 233.86425 104.20810 L 241.23600 73.09045 L 223.45295 98.71107 L 233.86425 104.20810 M 221.56615 114.14082 L 209.57408 113.68907 L 217.31076 120.99828 L 221.56615 114.14082 M 215.24486 122.20644 L 207.50819 114.89722 L 205.03899 123.80606 L 215.24486 122.20644 M 200.46108 127.25779 L 185.66822 130.72213 L 195.88357 137.44708 L 200.46108 127.25779 M 182.82985 132.00584 L 177.75415 137.52748 L 193.04520 138.73079 L 182.82985 132.00584 M 180.08246 131.20055 L 171.06609 132.28846 L 175.00676 136.72218 L 180.08246 131.20055 M 169.48599 124.96453 L 170.37599 130.81876 L 179.39237 129.73084 L 169.48599 124.96453 M 167.26521 124.72215 L 161.62611 127.79182 L 168.15521 130.57638 L 167.26521 124.72215 M 159.65945 129.44363 L 155.24070 133.59603 L 162.47978 136.56881 L 159.65945 129.44363 M 158.01996 120.92218 L 160.35920 126.58505 L 165.99830 123.51538 L 158.01996 120.92218 M 155.17813 111.51438 L 149.61937 114.15024 L 155.62441 118.20709 L 155.17813 111.51438 M 150.57068 104.84923 L 148.98765 112.48051 L 154.54641 109.84464 L 150.57068 104.84923 M 140.69224 103.16523 L 139.52016 113.16094 L 146.22046 112.66187 L 140.69224 103.16523 M 137.74897 102.83951 L 122.67428 110.05605 L 136.57689 112.83521 L 137.74897 102.83951 M 146.71063 115.07638 L 140.01033 115.57544 L 144.61360 122.48130 L 146.71063 115.07638 M 147.32361 125.78027 L 153.34618 132.24746 L 157.76493 128.09507 L 147.32361 125.78027 M 162.88107 143.47530 L 151.33544 146.99758 L 167.17632 178.20051 L 162.88107 143.47530 M 180.88708 105.89298 L 170.79987 121.84881 L 180.70625 126.61512 L 180.88708 105.89298 M 178.26836 103.88552 L 159.75655 110.55544 L 168.18116 119.84135 L 178.26836 103.88552 M 186.88155 104.31138 L 201.49358 121.56918 L 203.96277 112.66034 L 186.88155 104.31138 M 205.00420 93.40627 L 196.28145 77.82648 L 186.41814 97.31174 L 205.00420 93.40627 M 210.60283 105.05087 L 208.73559 111.69564 L 220.72765 112.14739 L 210.60283 105.05087 M 202.52901 74.25965 L 211.25176 89.83944 L 236.39862 68.77711 L 202.52901 74.25965 M 190.97143 65.49935 L 185.98986 68.71831 L 194.67467 71.54866 L 190.97143 65.49935 M 177.58466 59.16261 L 175.19131 53.22787 L 169.11657 62.93505 L 177.58466 59.16261 M 171.30337 51.66657 L 146.48118 46.67219 L 165.22863 61.37375 L 171.30337 51.66657 M 166.77594 67.38912 L 161.42026 77.40990 L 170.29005 75.06723 L 166.77594 67.38912 M 164.01428 67.41105 L 148.19672 75.24269 L 158.65860 77.43184 L 164.01428 67.41105 M 145.81106 77.17848 L 144.92899 82.89740 L 156.27294 79.36763 L 145.81106 77.17848 M 143.85503 86.67064 L 141.67629 97.98403 L 150.74206 92.52129 L 143.85503 86.67064 M 141.75531 86.51569 L 133.94431 91.28167 L 139.57657 97.82907 L 141.75531 86.51569 M 130.95946 81.53359 L 132.86717 89.24474 L 140.67817 84.47876 L 130.95946 81.53359 M 127.17860 72.46902 L 130.35864 78.72176 L 140.95943 75.94801 L 127.17860 72.46902 M 120.02827 79.10196 L 127.74225 79.11601 L 124.56221 72.86327 L 120.02827 79.10196 M 118.68048 82.26756 L 111.87214 90.47696 L 128.30217 89.99276 L 118.68048 82.26756 M 99.66078 88.81577 L 106.78007 89.72888 L 101.49327 76.71178 L 99.66078 88.81577 M 90.31177 95.84756 L 88.14584 104.90423 L 97.00046 104.16208 L 90.31177 95.84756 M 79.99579 93.44682 L 86.02026 103.56482 L 88.18619 94.50815 L 79.99579 93.44682 M 76.36495 102.83301 L 84.54260 104.60543 L 78.51813 94.48743 L 76.36495 102.83301 M 76.33447 104.96936 L 78.27425 111.57821 L 84.51212 106.74177 L 76.33447 104.96936 M 74.28824 104.90533 L 68.14228 106.22951 L 76.22802 111.51418 L 74.28824 104.90533 M 68.75213 98.81626 L 67.20779 104.64227 L 73.35375 103.31809 L 68.75213 98.81626 M 69.93772 97.43487 L 74.53934 101.93669 L 76.69252 93.59111 L 69.93772 97.43487 M 66.95721 98.04641 L 58.99435 97.15927 L 65.41287 103.87242 L 66.95721 98.04641 M 57.17618 97.59370 L 52.41181 101.52179 L 63.59470 104.30684 L 57.17618 97.59370 M 54.89243 87.63630 L 47.23877 92.54320 L 55.63448 94.74379 L 54.89243 87.63630 M 57.06375 81.19626 L 64.91496 81.54063 L 57.50021 47.78596 L 57.06375 81.19626 M 67.90936 81.32102 L 81.01901 79.43941 L 60.49461 47.56636 L 67.90936 81.32102 M 87.46387 85.35717 L 90.15312 92.10661 L 96.25452 90.04057 L 87.46387 85.35717 M 88.59728 83.33287 L 97.38793 88.01627 L 99.22042 75.91228 L 88.59728 83.33287 M 98.37349 107.34867 L 92.07700 113.48781 L 98.73791 115.94328 L 98.37349 107.34867 M 90.86047 115.23958 L 88.64132 121.36280 L 97.52139 117.69505 L 90.86047 115.23958 M 85.91823 122.61046 L 79.34139 115.92668 L 84.53265 128.23686 L 85.91823 122.61046 M 87.52128 124.33421 L 86.13570 129.96062 L 92.16580 129.71671 L 87.52128 124.33421 M 103.87373 129.06849 L 96.38212 132.09662 L 107.73014 146.64552 L 103.87373 129.06849 M 107.52485 129.32260 L 111.38125 146.89963 L 125.59102 134.12951 L 107.52485 129.32260 M 114.67422 148.92586 L 133.86858 145.53240 L 128.88398 136.15573 L 114.67422 148.92586 M 90.57906 166.15316 L 108.72977 176.12698 L 107.62491 155.65830 L 90.57906 166.15316 M 81.29846 158.92741 L 87.15014 164.00322 L 104.19600 153.50836 L 81.29846 158.92741 M 79.62985 153.30616 L 91.17937 133.33820 L 85.14927 133.58211 L 79.62985 153.30616 M 81.51581 176.53807 L 83.43042 183.95700 L 89.73919 180.67525 L 81.51581 176.53807 M 70.84852 176.15130 L 78.23836 174.46734 L 72.82407 169.84442 L 70.84852 176.15130 M 64.66737 171.60180 L 69.15215 175.79311 L 71.12770 169.48622 L 64.66737 171.60180 M 63.16650 172.56681 L 59.12071 177.20636 L 67.65128 176.75813 L 63.16650 172.56681 M 58.65104 178.66217 L 59.40912 184.21327 L 67.18160 178.21394 L 58.65104 178.66217 M 56.38088 178.80531 L 49.02028 179.35909 L 57.13895 184.35642 L 56.38088 178.80531 M 57.79168 187.12432 L 48.82283 191.71174 L 62.45284 191.36379 L 57.79168 187.12432 M 60.38156 186.43422 L 65.04273 190.67369 L 69.54192 186.19090 L 60.38156 186.43422 M 71.58992 187.07959 L 67.09073 191.56238 L 76.76557 193.54375 L 71.58992 187.07959 M 90.93150 182.33613 L 84.62273 185.61789 L 91.05424 189.82513 L 90.93150 182.33613 M 93.15533 179.30831 L 106.92108 179.08323 L 88.77036 169.10941 L 93.15533 179.30831 M 109.55126 189.88907 L 115.65469 193.80304 L 117.08653 187.33107 L 109.55126 189.88907 M 116.69515 195.20174 L 117.87501 201.07869 L 118.12700 188.72978 L 116.69515 195.20174 M 111.02863 199.88551 L 116.98771 202.47316 L 115.80786 196.59621 L 111.02863 199.88551 M 102.46299 202.29091 L 104.66420 208.67707 L 108.17659 201.20758 L 102.46299 202.29091 M 100.67018 202.33835 L 93.83411 201.58716 L 102.87139 208.72452 L 100.67018 202.33835 M 94.28916 203.59235 L 104.31061 218.37988 L 103.32645 210.72971 L 94.28916 203.59235 M 108.03034 221.57642 L 115.53044 226.40941 L 115.56276 216.68149 L 108.03034 221.57642 M 107.23226 223.18048 L 109.17810 229.51397 L 114.73236 228.01347 L 107.23226 223.18048 M 103.55681 230.24155 L 101.61097 223.90806 L 69.76205 233.83411 L 103.55681 230.24155 M 110.16168 231.00998 L 115.10088 235.14855 L 115.71594 229.50948 L 110.16168 231.00998 M 116.61011 235.34646 L 122.23546 232.59331 L 117.22516 229.70740 L 116.61011 235.34646 M 117.42553 236.89265 L 123.74852 242.07686 L 123.05088 234.13949 L 117.42553 236.89265 M 124.76483 233.98174 L 125.46248 241.91911 L 131.13718 235.63063 L 124.76483 233.98174 M 118.77064 228.35503 L 123.78094 231.24095 L 128.97395 224.52757 L 118.77064 228.35503 M 118.05950 226.55306 L 128.26281 222.72559 L 118.09182 216.82514 L 118.05950 226.55306 M 132.58691 225.06844 L 133.76625 233.43072 L 141.30203 231.03314 L 132.58691 225.06844 M 148.70883 227.91518 L 165.80501 233.26911 L 167.20935 197.16844 L 148.70883 227.91518 M 142.62209 241.58015 L 152.09557 238.62179 L 144.45364 233.44456 L 142.62209 241.58015 M 143.95856 243.21436 L 155.14543 246.51824 L 153.43204 240.25600 L 143.95856 243.21436 M 143.44328 244.90066 L 149.30977 253.74636 L 154.63014 248.20453 L 143.44328 244.90066 M 142.00974 251.80161 L 147.73222 254.19599 L 141.86573 245.35029 L 142.00974 251.80161 M 131.25103 252.53212 L 136.66461 258.42931 L 139.60059 253.06996 L 131.25103 252.53212 M 129.24882 259.32180 L 135.37063 259.21079 L 129.95706 253.31360 L 129.24882 259.32180 M 131.41230 266.94632 L 127.76766 261.72225 L 120.58501 267.18212 L 131.41230 266.94632 M 128.16651 274.28161 L 133.66287 276.30292 L 132.90971 269.35523 L 128.16651 274.28161 M 127.66139 276.16947 L 128.86876 284.45814 L 133.15775 278.19078 L 127.66139 276.16947 M 120.56642 281.01897 L 127.29485 284.81166 L 126.08747 276.52299 L 120.56642 281.01897 M 116.36778 288.86786 L 103.59459 290.79194 L 141.86179 290.56080 L 116.36778 288.86786 M 107.19436 285.75313 L 113.44500 286.91338 L 111.95696 278.00930 L 107.19436 285.75313 M 105.58220 287.30001 L 99.05964 290.38434 L 111.83283 288.46026 L 105.58220 287.30001 M 102.26135 291.28729 L 86.69644 291.98993 L 159.53401 291.89694 L 102.26135 291.28729 M 101.10250 280.09570 L 105.65155 284.90092 L 110.41415 277.15709 L 101.10250 280.09570 M 101.27174 278.29680 L 110.58339 275.35818 L 107.00541 270.50969 L 101.27174 278.29680 M 95.72227 270.98921 L 96.81638 263.60299 L 89.36646 270.82008 L 95.72227 270.98921 M 88.18150 272.69386 L 87.33671 278.59323 L 94.53731 272.86299 L 88.18150 272.69386 M 86.87406 282.42202 L 84.59986 290.00227 L 93.95507 290.01367 L 86.87406 282.42202 M 83.38787 291.18717 L 77.17817 291.90120 L 92.74309 291.19857 L 83.38787 291.18717 M 75.51230 284.20341 L 82.29451 289.27599 L 84.56871 281.69573 L 75.51230 284.20341 M 73.38722 282.34463 L 83.28843 273.93759 L 64.44911 280.30511 L 73.38722 282.34463 M 63.16258 275.49794 L 82.00190 269.13042 L 63.09501 243.88730 L 63.16258 275.49794 M 46.82195 285.30564 L 58.76509 277.51984 L 58.69752 245.90920 L 46.82195 285.30564 M 46.99196 290.93476 L 60.05766 290.94217 L 58.93511 283.14896 L 46.99196 290.93476 M 98.80830 263.29076 L 97.71419 270.67697 L 105.30179 268.32222 L 98.80830 263.29076 M 99.76768 258.50218 L 105.81111 250.72420 L 105.83934 245.17785 L 99.76768 258.50218 M 95.13908 257.03818 L 101.21073 243.71384 L 68.78227 239.01215 L 95.13908 257.03818 M 107.68362 250.77107 L 109.17537 256.17991 L 113.28431 247.92198 L 107.68362 250.77107 M 110.42579 257.12432 L 117.68698 258.32630 L 114.53473 248.86639 L 110.42579 257.12432 M 106.53454 266.92860 L 107.57622 259.52799 L 100.04105 261.89713 L 106.53454 266.92860 M 108.89439 269.32637 L 112.47236 274.17486 L 116.38354 268.83019 L 108.89439 269.32637 M 119.15450 266.40117 L 126.33715 260.94130 L 119.96822 260.69872 L 119.15450 266.40117 M 117.14076 246.62463 L 127.37019 250.31892 L 124.19680 244.95590 L 117.14076 246.62463 M 108.40760 242.27369 L 113.98006 244.97095 L 114.71311 238.11801 L 108.40760 242.27369 M 107.50278 243.65970 L 107.47455 249.20604 L 113.07524 246.35696 L 107.50278 243.65970 M 107.80672 240.70348 L 114.11223 236.54780 L 109.17302 232.40923 L 107.80672 240.70348 M 126.83037 244.63888 L 130.00375 250.00190 L 138.20930 244.08842 L 126.83037 244.63888 M 157.84939 246.12086 L 165.59026 240.03532 L 156.13601 239.85862 L 157.84939 246.12086 M 171.58807 242.17139 L 170.03877 250.09670 L 197.92699 255.10738 L 171.58807 242.17139 M 153.06861 267.19099 L 159.07278 261.89910 L 150.87288 257.74468 L 153.06861 267.19099 M 154.46155 268.81904 L 162.01645 270.76908 L 160.46573 263.52715 L 154.46155 268.81904 M 153.92689 271.00253 L 156.18848 280.99503 L 161.48179 272.95256 L 153.92689 271.00253 M 168.91802 276.23577 L 162.27279 264.45424 L 163.82351 271.69617 L 168.91802 276.23577 M 173.62681 273.67231 L 198.18183 259.04499 L 170.29361 254.03432 L 173.62681 273.67231 M 164.92499 290.86884 L 155.09052 290.88713 L 174.09598 291.72791 L 164.92499 290.86884 M 152.85394 290.04720 L 162.68840 290.02891 L 156.20333 285.00847 L 152.85394 290.04720 M 141.42843 286.81438 L 132.02594 286.94248 L 147.80534 289.90492 L 141.42843 286.81438 M 141.47190 284.61329 L 143.86415 278.56353 L 136.35841 278.47403 L 141.47190 284.61329 M 130.38446 285.62394 L 139.78694 285.49584 L 134.67345 279.35658 L 130.38446 285.62394 M 129.29493 287.14214 L 119.58032 288.41164 L 145.07433 290.10458 L 129.29493 287.14214 M 119.18773 206.70734 L 118.23285 214.34442 L 128.40384 220.24488 L 119.18773 206.70734 M 124.52868 204.00997 L 133.74478 217.54751 L 160.96042 192.76546 L 124.52868 204.00997 M 178.57270 193.01266 L 204.77492 216.28748 L 212.00902 207.49477 L 178.57270 193.01266 M 209.34763 219.63812 L 215.15440 219.81774 L 216.58173 210.84541 L 209.34763 219.63812 M 208.13309 224.57448 L 206.86545 250.33632 L 213.93986 224.75410 L 208.13309 224.57448 M 217.76185 219.81302 L 230.20725 219.60038 L 219.18918 210.84069 L 217.76185 219.81302 M 220.06142 209.10356 L 231.07949 217.86325 L 224.73978 205.91599 L 220.06142 209.10356 M 235.46512 219.78318 L 248.98104 224.32421 L 235.29089 207.97466 L 235.46512 219.78318 M 251.84839 225.10570 L 258.40394 226.03514 L 238.15824 208.75616 L 251.84839 225.10570 M 245.57729 237.49170 L 254.24287 235.56729 L 252.21039 229.35767 L 245.57729 237.49170 M 245.29215 239.65009 L 249.92925 246.62479 L 253.95773 237.72568 L 245.29215 239.65009 M 251.88239 256.64590 L 260.74089 255.11675 L 251.41518 250.44556 L 251.88239 256.64590 M 252.63250 258.18137 L 257.41602 262.72934 L 261.49099 256.65222 L 252.63250 258.18137 M 249.85405 257.78646 L 249.38684 251.58612 L 244.51415 264.24120 L 249.85405 257.78646 M 245.26425 265.77668 L 255.38768 263.86989 L 250.60415 259.32193 L 245.26425 265.77668 M 245.65712 267.31658 L 253.74707 271.64118 L 255.78054 265.40980 L 245.65712 267.31658 M 241.73952 273.96992 L 251.99194 272.71119 L 243.90199 268.38660 L 241.73952 273.96992 M 236.84567 272.42212 L 239.00813 266.83880 L 212.84110 260.32880 L 236.84567 272.42212 M 237.37384 283.55166 L 238.52110 277.22691 L 229.55426 286.85905 L 237.37384 283.55166 M 229.90212 288.50555 L 241.30399 290.39890 L 237.72170 285.19816 L 229.90212 288.50555 M 253.15490 289.23158 L 258.91803 282.63289 L 249.89854 283.12559 L 253.15490 289.23158 M 263.80237 289.20768 L 270.30383 286.47622 L 262.36834 283.00252 L 263.80237 289.20768 M 267.19690 290.08214 L 289.52457 289.99815 L 273.69836 287.35067 L 267.19690 290.08214 M 263.10582 279.71727 L 272.59538 275.70537 L 268.14816 270.41125 L 263.10582 279.71727 M 261.10841 279.44333 L 266.15075 270.13731 L 256.61613 273.51388 L 261.10841 279.44333 M 256.26487 271.77661 L 265.79949 268.40005 L 258.29834 265.54523 L 256.26487 271.77661 M 259.97655 264.27634 L 267.47771 267.13116 L 269.69058 261.62549 L 259.97655 264.27634 M 269.84407 266.63866 L 278.90745 260.33634 L 272.05694 261.13299 L 269.84407 266.63866 M 272.69353 259.35115 L 279.54404 258.55450 L 274.93678 252.38394 L 272.69353 259.35115 M 281.39286 257.64393 L 287.48411 252.06656 L 276.78560 251.47337 L 281.39286 257.64393 M 292.14864 250.40094 L 302.59184 249.30607 L 297.56743 244.82061 L 292.14864 250.40094 M 299.28605 241.82801 L 309.88977 237.98066 L 300.31825 234.79287 L 299.28605 241.82801 M 307.24592 248.02604 L 318.77758 244.00801 L 312.82524 239.69324 L 307.24592 248.02604 M 317.81379 253.52402 L 325.95642 253.22703 L 321.41081 246.12265 L 317.81379 253.52402 M 316.45698 263.97021 L 325.32125 263.25998 L 317.19279 256.62186 L 316.45698 263.97021 M 323.87495 271.70990 L 326.15652 265.14598 L 317.29225 265.85621 L 323.87495 271.70990 M 328.86248 262.89074 L 336.64420 261.31329 L 328.87665 255.95563 L 328.86248 262.89074 M 329.48282 251.49996 L 346.02493 239.70743 L 324.93720 244.39557 L 329.48282 251.49996 M 320.72605 242.30307 L 322.83368 234.38655 L 314.77371 237.98830 L 320.72605 242.30307 M 312.55601 236.91651 L 320.61598 233.31475 L 302.98449 233.72872 L 312.55601 236.91651 M 318.83986 225.70561 L 298.34703 176.04335 L 301.20836 226.11957 L 318.83986 225.70561 M 305.47301 259.98258 L 313.81191 254.87072 L 305.87727 251.48738 L 305.47301 259.98258 M 304.76367 272.27502 L 303.05730 264.16077 L 293.18413 271.68676 L 304.76367 272.27502 M 314.17943 276.80546 L 314.23519 267.31666 L 308.33847 273.19442 L 314.17943 276.80546 M 321.15877 281.92643 L 323.24326 274.99356 L 316.60480 278.62867 L 321.15877 281.92643 M 324.96378 289.90378 L 329.00281 282.51919 L 322.72749 284.01540 L 324.96378 289.90378 M 330.67913 279.58837 L 336.28990 273.39013 L 326.48832 274.15171 L 330.67913 279.58837 M 339.38368 288.18878 L 346.57353 287.50572 L 347.08248 280.75979 L 339.38368 288.18878 M 349.73097 288.01423 L 358.23822 289.81971 L 356.64490 283.70541 L 349.73097 288.01423 M 347.17520 277.24132 L 346.45089 271.22424 L 340.34086 272.80407 L 347.17520 277.24132 M 348.10254 268.58058 L 360.12673 263.47186 L 342.25421 262.78063 L 348.10254 268.58058 M 342.67225 259.50204 L 360.54476 260.19327 L 351.44682 242.35185 L 342.67225 259.50204 M 359.08878 272.32967 L 365.59846 275.47439 L 363.94122 265.29884 L 359.08878 272.32967 M 312.42585 291.18471 L 322.89166 290.98697 L 320.65537 285.09859 L 312.42585 291.18471 M 309.53756 289.89150 L 313.21311 280.50763 L 304.33925 283.93911 L 309.53756 289.89150 M 297.18850 289.85763 L 307.53448 291.06025 L 302.33617 285.10786 L 297.18850 289.85763 M 282.78662 282.92195 L 287.84370 274.23931 L 276.97053 276.48678 L 282.78662 282.92195 M 291.50623 269.47039 L 301.37940 261.94440 L 291.34046 254.54406 L 291.50623 269.47039 M 265.60535 246.10957 L 272.76304 248.82067 L 267.06860 239.72667 L 265.60535 246.10957 M 263.72256 244.67680 L 265.18581 238.29391 L 257.70073 237.35855 L 263.72256 244.67680 M 213.18368 256.72693 L 239.35071 263.23693 L 239.58631 243.60714 L 213.18368 256.72693 M 238.90064 198.66439 L 282.09096 169.15443 L 234.84298 191.16052 L 238.90064 198.66439 M 280.09658 159.38955 L 228.49432 143.94907 L 227.29983 157.99189 L 280.09658 159.38955 M 290.26771 86.51048 L 289.96875 78.74735 L 284.29540 88.70584 L 290.26771 86.51048 M 301.34021 85.43028 L 292.09935 78.33791 L 292.39831 86.10103 L 301.34021 85.43028 M 302.77630 83.11679 L 303.88705 67.59313 L 293.53544 76.02442 L 302.77630 83.11679 M 303.75413 87.01929 L 294.81224 87.69005 L 311.41079 91.05002 L 303.75413 87.01929 M 309.28019 91.45946 L 292.68164 88.09949 L 286.70933 90.29486 L 309.28019 91.45946 M 314.29707 90.67826 L 317.90246 84.71599 L 306.64041 86.64753 L 314.29707 90.67826 M 329.19279 95.69202 L 323.09171 91.86542 L 317.37947 92.47758 L 329.19279 95.69202 M 330.86234 95.16851 L 330.73588 88.28951 L 324.76126 91.34191 L 330.86234 95.16851 M 338.59729 93.28211 L 332.46538 88.53203 L 332.59185 95.41103 L 338.59729 93.28211 M 339.38342 92.12027 L 338.88087 86.11634 L 333.25151 87.37020 L 339.38342 92.12027 M 341.26185 92.83130 L 348.27893 93.05844 L 340.75929 86.82737 L 341.26185 92.83130 M 338.00494 84.41646 L 332.37599 78.52125 L 332.37558 85.67032 L 338.00494 84.41646 M 339.13737 83.24142 L 341.43503 76.27002 L 333.50842 77.34621 L 339.13737 83.24142 M 348.61033 80.78588 L 343.32277 76.69998 L 341.02511 83.67138 L 348.61033 80.78588 M 359.66309 88.34222 L 351.59283 83.02004 L 351.52723 92.13661 L 359.66309 88.34222 M 370.57282 95.13676 L 363.05303 90.70060 L 363.05676 101.24524 L 370.57282 95.13676 M 371.47665 93.49242 L 370.28736 88.09050 L 363.95686 89.05625 L 371.47665 93.49242 M 373.49234 93.73667 L 380.08240 91.01023 L 372.30306 88.33474 L 373.49234 93.73667 M 371.12539 102.09297 L 371.58187 96.56081 L 364.06580 102.66929 L 371.12539 102.09297 M 384.14555 102.49443 L 389.36888 97.23990 L 383.16229 92.97277 L 384.14555 102.49443 M 389.33772 99.73449 L 384.11440 104.98902 L 382.91302 112.92947 L 389.33772 99.73449 M 389.73669 95.15884 L 387.08804 85.84592 L 383.53010 90.89171 L 389.73669 95.15884 M 397.16050 89.24176 L 393.10910 95.28382 L 403.80934 88.62067 L 397.16050 89.24176 M 406.30451 92.12810 L 395.60427 98.79124 L 417.12190 117.30118 L 406.30451 92.12810 M 416.12150 73.33371 L 399.00465 79.40905 L 406.57118 85.08925 L 416.12150 73.33371 M 418.04887 67.03303 L 414.43546 52.32366 L 408.48670 55.46852 L 418.04887 67.03303 M 419.75930 66.39388 L 422.17007 50.35532 L 416.14589 51.68451 L 419.75930 66.39388 M 426.42084 58.55538 L 422.55929 119.28446 L 424.42445 150.21353 L 426.42084 58.55538 M 425.97338 48.86143 L 420.84477 72.66189 L 422.11183 109.59051 L 425.97338 48.86143 M 423.41893 49.05659 L 421.00816 65.09515 L 426.13677 41.29469 L 423.41893 49.05659 M 422.72754 45.58429 L 425.44538 37.82239 L 415.47710 37.31675 L 422.72754 45.58429 M 413.08295 49.52927 L 407.22874 44.67793 L 407.13418 52.67413 L 413.08295 49.52927 M 402.81551 45.05198 L 377.77713 52.52163 L 402.72095 53.04818 L 402.81551 45.05198 M 401.70862 42.54292 L 393.86580 32.97570 L 376.67023 50.01257 L 401.70862 42.54292 M 405.08834 40.64620 L 403.70802 34.83881 L 397.24552 31.07898 L 405.08834 40.64620 M 403.35163 33.10731 L 402.23720 26.79420 L 396.88913 29.34748 L 403.35163 33.10731 M 402.12736 25.13831 L 408.19555 23.73946 L 391.05663 23.81225 L 402.12736 25.13831 M 395.14839 28.25617 L 400.49647 25.70290 L 389.42574 24.37684 L 395.14839 28.25617 M 391.92787 31.05476 L 386.20522 27.17544 L 374.73231 48.09164 L 391.92787 31.05476 M 412.00832 34.65831 L 410.95382 25.88435 L 406.00005 33.59631 L 412.00832 34.65831 M 394.07353 74.35032 L 401.62820 56.71047 L 376.68438 56.18392 L 394.07353 74.35032 M 386.38587 80.33364 L 392.16824 77.30321 L 374.77909 59.13682 L 386.38587 80.33364 M 383.94021 81.10517 L 372.33342 59.90835 L 372.60293 83.47548 L 383.94021 81.10517 M 381.53211 89.89991 L 385.09005 84.85412 L 373.75277 87.22442 L 381.53211 89.89991 M 379.87379 117.83572 L 373.44092 118.94830 L 372.65811 129.93151 L 379.87379 117.83572 M 359.56881 114.70544 L 345.13059 108.02098 L 367.25641 128.36955 L 359.56881 114.70544 M 350.85711 105.58585 L 343.08068 105.17302 L 357.51890 111.85748 L 350.85711 105.58585 M 352.04699 103.55963 L 359.72405 102.77240 L 351.58447 96.02214 L 352.04699 103.55963 M 340.99440 102.09106 L 348.30831 94.96640 L 341.29124 94.73927 L 340.99440 102.09106 M 322.37509 62.84864 L 317.03558 52.39509 L 308.67582 62.71563 L 322.37509 62.84864 M 325.60264 52.82601 L 319.15143 51.15889 L 324.49094 61.61244 L 325.60264 52.82601 M 332.36739 57.81627 L 327.25464 53.65818 L 326.14294 62.44461 L 332.36739 57.81627 M 334.55512 46.12053 L 328.30616 51.61767 L 333.41892 55.77576 L 334.55512 46.12053 M 333.72946 44.54448 L 326.81361 43.16732 L 327.48050 50.04162 L 333.72946 44.54448 M 323.86831 39.74946 L 325.81200 32.66980 L 308.89019 31.15555 L 323.86831 39.74946 M 322.76430 41.50472 L 307.78619 32.91081 L 316.97998 46.71190 L 322.76430 41.50472 M 326.13131 30.76501 L 326.42275 24.51112 L 309.20950 29.25076 L 326.13131 30.76501 M 335.65685 32.81166 L 329.72867 24.95623 L 329.43722 31.21012 L 335.65685 32.81166 M 369.76449 47.48518 L 381.23740 26.56898 L 352.18535 26.20309 L 369.76449 47.48518 M 368.65656 59.62462 L 354.52531 78.83533 L 368.92607 83.19175 L 368.65656 59.62462 M 280.06578 35.14697 L 290.69663 70.02819 L 301.04823 61.59690 L 280.06578 35.14697 M 263.36317 22.79074 L 311.07053 22.88653 L 233.80764 22.60375 L 263.36317 22.79074 M 230.61681 23.54862 L 253.30645 22.87351 L 223.75092 22.68651 L 230.61681 23.54862 M 216.23338 23.47698 L 203.44898 24.61458 L 212.81637 28.92182 L 216.23338 23.47698 M 212.81010 22.95385 L 185.43017 24.73680 L 200.02571 24.09145 L 212.81010 22.95385 M 211.56707 30.47751 L 202.19968 26.17027 L 206.23897 35.92247 L 211.56707 30.47751 M 204.28229 36.54241 L 200.24301 26.79020 L 195.91369 35.43700 L 204.28229 36.54241 M 209.44919 41.68650 L 206.06731 48.01348 L 236.59148 60.51054 L 209.44919 41.68650 M 199.05872 47.58386 L 193.25267 45.92403 L 189.71071 52.40648 L 199.05872 47.58386 M 199.64106 48.94358 L 190.29305 53.76619 L 197.91141 56.80175 L 199.64106 48.94358 M 183.96521 40.32487 L 177.39921 37.21035 L 176.82055 48.27649 L 183.96521 40.32487 M 161.30030 28.38689 L 120.51829 29.52218 L 140.40191 40.54650 L 161.30030 28.38689 M 143.35371 49.17774 L 146.28361 71.71093 L 162.10116 63.87929 L 143.35371 49.17774 M 136.15960 48.71890 L 118.32915 63.68755 L 125.30868 67.77310 L 136.15960 48.71890 M 114.15602 31.57030 L 110.40214 44.77186 L 134.03964 42.59462 L 114.15602 31.57030 M 110.67219 24.11932 L 116.80207 27.46878 L 157.58409 26.33349 L 110.67219 24.11932 M 105.69592 46.55974 L 104.14976 36.61832 L 101.68991 53.63752 L 105.69592 46.55974 M 109.69689 57.87217 L 103.10919 57.89318 L 112.92224 63.60681 L 109.69689 57.87217 M 102.19144 59.50049 L 102.35495 70.73066 L 112.00450 65.21412 L 102.19144 59.50049 M 65.70730 39.53745 L 96.69134 52.75973 L 99.15118 35.74053 L 65.70730 39.53745 M 51.69517 46.91751 L 29.34311 77.10643 L 40.39028 77.81437 L 51.69517 46.91751 M 43.52108 78.27456 L 54.38952 80.78800 L 54.82597 47.37770 L 43.52108 78.27456 M 42.36535 83.74845 L 45.58013 91.16878 L 53.23379 86.26188 L 42.36535 83.74845 M 40.02713 84.06450 L 34.52805 88.79028 L 43.24192 91.48483 L 40.02713 84.06450 M 43.13414 94.48997 L 33.50289 98.96246 L 40.08234 100.93852 L 43.13414 94.48997 M 49.25797 105.07630 L 42.57483 105.39616 L 49.81146 128.49493 L 49.25797 105.07630 M 31.74106 100.74076 L 29.03950 108.71640 L 38.32051 102.71682 L 31.74106 100.74076 M 29.96857 100.55675 L 24.14055 101.24471 L 27.26701 108.53239 L 29.96857 100.55675 M 24.58697 93.16170 L 23.80554 99.32338 L 29.63356 98.63541 L 24.58697 93.16170 M 24.88907 90.23945 L 30.85305 88.54611 L 25.30496 83.11239 L 24.88907 90.23945 M 26.94254 82.19538 L 32.49063 87.62909 L 37.98971 82.90332 L 26.94254 82.19538 M 26.40403 114.10579 L 23.27757 106.81812 L 23.06475 145.14399 L 26.40403 114.10579 M 56.96625 137.08978 L 75.35320 153.77511 L 80.87263 134.05106 L 56.96625 137.08978 M 56.18869 168.98504 L 63.47207 169.93646 L 73.33341 161.30629 L 56.18869 168.98504 M 41.34844 170.12529 L 37.23062 180.17018 L 45.13798 177.92950 L 41.34844 170.12529 M 32.56371 172.46395 L 27.68750 179.67287 L 34.31560 180.62373 L 32.56371 172.46395 M 27.91071 181.69320 L 34.34934 188.62661 L 34.53881 182.64407 L 27.91071 181.69320 M 36.49384 183.82906 L 36.30438 189.81160 L 43.55102 191.17313 L 36.49384 183.82906 M 37.65053 182.65431 L 44.70771 189.99839 L 45.55788 180.41364 L 37.65053 182.65431 M 35.38658 191.29405 L 29.15149 195.68864 L 42.63322 192.65558 L 35.38658 191.29405 M 27.89659 197.70470 L 25.34739 207.42246 L 41.37833 194.67163 L 27.89659 197.70470 M 23.22190 203.67864 L 25.56756 182.63287 L 24.57795 176.04904 L 23.22190 203.67864 M 23.39235 206.23747 L 25.94155 196.51970 L 25.73801 185.19170 L 23.39235 206.23747 M 28.53484 221.28694 L 43.04316 278.27653 L 54.91874 238.88009 L 28.53484 221.28694 M 44.78328 198.57319 L 28.75235 211.32402 L 55.13625 228.91717 L 44.78328 198.57319 M 68.05243 230.81682 L 99.90136 220.89077 L 89.87991 206.10324 L 68.05243 230.81682 M 151.44671 94.40396 L 142.38093 99.86670 L 149.49219 101.73206 L 151.44671 94.40396 M 156.24307 95.14486 L 158.26428 107.46837 L 176.77610 100.79846 L 156.24307 95.14486 M 238.69670 71.65398 L 213.54984 92.71631 L 220.91365 97.27460 L 238.69670 71.65398 M 252.49224 62.24809 L 284.62713 70.10959 L 273.99628 35.22837 L 252.49224 62.24809 M 361.19187 167.00049 L 305.84497 168.65347 L 326.33780 218.31572 L 361.19187 167.00049 M 382.20498 164.06037 L 385.01920 157.15965 L 376.19647 159.69503 L 382.20498 164.06037 M 384.41574 164.41810 L 393.88258 162.55685 L 387.22997 157.51738 L 384.41574 164.41810 M 385.70800 170.82745 L 382.29108 165.76884 L 376.28257 161.40350 L 385.70800 170.82745 M 387.91877 171.18518 L 393.96868 164.26533 L 384.50184 166.12657 L 387.91877 171.18518 M 396.49546 175.73134 L 389.08618 175.89367 L 392.48183 197.03694 L 396.49546 175.73134 M 398.62443 171.11375 L 403.46366 167.01607 L 397.26507 164.35622 L 398.62443 171.11375 M 405.95939 173.54352 L 404.55045 168.16449 L 399.71122 172.26216 L 405.95939 173.54352 M 408.58723 173.04967 L 420.73394 168.31136 L 407.17829 167.67064 L 408.58723 173.04967 M 419.07761 179.27783 L 422.22135 169.76226 L 410.07465 174.50057 L 419.07761 179.27783 M 425.11266 175.01606 L 426.74001 65.52183 L 424.74362 157.17998 L 425.11266 175.01606 M 420.89508 166.72794 L 409.87640 160.38229 L 407.33943 166.08721 L 420.89508 166.72794 M 422.56515 162.40103 L 420.69999 131.47196 L 411.54647 156.05538 L 422.56515 162.40103 M 395.20315 161.20763 L 394.98029 153.62429 L 388.55053 156.16815 L 395.20315 161.20763 M 390.07687 195.71385 L 386.68123 174.57058 L 377.25580 165.14663 L 390.07687 195.71385 M 386.46267 202.15952 L 373.64160 171.59230 L 357.76762 226.13591 L 386.46267 202.15952 M 421.64741 195.36197 L 398.86986 202.28844 L 421.42654 203.52658 L 421.64741 195.36197 M 421.17714 193.00695 L 417.66436 184.68644 L 398.39959 199.93343 L 421.17714 193.00695 M 422.92836 220.81705 L 419.62792 257.30059 L 423.87531 212.46738 L 422.92836 220.81705 M 415.27501 260.26296 L 418.57545 223.77942 L 389.05206 236.16634 L 415.27501 260.26296" fill="none" stroke="black" stroke-width="0.01cm" />
   </g>
</svg>