<?xml version="1.0" standalone="no"?>
  <!DOCTYPE svg PUBLIC "-//W3C//DTD SVG 1.1//EN" 
    "http://www.w3.org/Graphics/SVG/1.1/DTD/svg11.dtd">
  <svg width="12.7cm" height="8.89cm"
       xmlns="http://www.w3.org/2000/svg" version="1.1" viewBox="0 0 449.99999 314.99999">
   <g>
     <path d="M 290.87268 192.17365 L 293.56840 186.93655 L 292.79942 179.71036 L 290.87268 192.17365 M 294.73506 185.20401 L 300.20594 178.31334 L 293.96608 177.97782 L 294.73506 185.20401 M 286.06330 176.24401 L 287.22184 170.27519 L 236.59412 177.63787 L 286.06330 176.24401 M 284.82405 164.01815 L 266.88092 126.18772 L 234.19632 171.38084 L 284.82405 164.01815 M 309.40207 176.20788 L 303.81478 170.18353 L 302.92991 176.44774 L 309.40207 176.20788 M 309.77679 191.74448 L 310.47570 179.60310 L 306.63050 185.44377 L 309.77679 191.74448 M 308.65745 193.46763 L 305.51116 187.16693 L 301.52098 193.38835 L 308.65745 193.46763 M 312.70984 191.52733 L 330.09494 183.70661 L 313.40875 179.38595 L 312.70984 191.52733 M 307.56363 200.50703 L 316.18064 200.26701 L 310.51435 195.71416 L 307.56363 200.50703 M 300.51177 214.11659 L 307.53118 208.93586 L 299.44245 206.07971 L 300.51177 214.11659 M 298.20516 214.46684 L 297.13584 206.42997 L 289.07833 211.73787 L 298.20516 214.46684 M 288.08926 210.44893 L 296.14678 205.14102 L 290.29264 204.15528 L 288.08926 210.44893 M 286.20873 211.91580 L 288.41211 205.62215 L 281.10252 216.87601 L 286.20873 211.91580 M 285.05421 222.81633 L 285.78900 214.06507 L 280.68278 219.02528 L 285.05421 222.81633 M 286.49728 223.53516 L 292.22732 224.77589 L 287.23206 214.78390 L 286.49728 223.53516 M 288.38014 230.73156 L 292.37083 226.76935 L 286.64079 225.52861 L 288.38014 230.73156 M 287.06790 231.76401 L 285.32855 226.56107 L 281.87292 235.02898 L 287.06790 231.76401 M 280.19305 234.75268 L 283.64868 226.28477 L 273.62893 229.55362 L 280.19305 234.75268 M 272.44874 240.06564 L 278.79305 236.47529 L 272.22894 231.27623 L 272.44874 240.06564 M 274.95521 248.04105 L 279.13384 238.57089 L 272.78952 242.16124 L 274.95521 248.04105 M 269.75285 256.61102 L 276.87604 257.60902 L 274.36693 251.76193 L 269.75285 256.61102 M 269.08151 258.09398 L 268.99621 263.62560 L 276.20470 259.09198 L 269.08151 258.09398 M 267.87592 255.29729 L 272.49001 250.44820 L 261.86065 247.09920 L 267.87592 255.29729 M 260.62448 253.76363 L 266.39273 255.71172 L 260.37746 247.51363 L 260.62448 253.76363 M 249.13194 246.11585 L 258.46688 252.56415 L 258.21986 246.31414 L 249.13194 246.11585 M 260.04743 237.57952 L 260.61138 244.14950 L 269.07505 241.61870 L 260.04743 237.57952 M 261.22513 235.96235 L 270.25275 240.00152 L 270.03295 231.21211 L 261.22513 235.96235 M 273.49810 227.80234 L 283.51785 224.53349 L 279.14642 220.74244 L 273.49810 227.80234 M 295.13438 240.61007 L 301.65796 242.76431 L 303.34385 233.04897 L 295.13438 240.61007 M 296.24393 250.24893 L 300.77047 244.91431 L 294.24689 242.76007 L 296.24393 250.24893 M 309.23301 255.56092 L 322.22439 241.96367 L 305.32231 245.41604 L 309.23301 255.56092 M 287.25454 266.76329 L 292.47635 262.68873 L 280.83283 259.95114 L 287.25454 266.76329 M 277.91061 268.19612 L 285.43382 267.45172 L 279.01211 260.63956 L 277.91061 268.19612 M 269.85645 264.84768 L 275.96344 267.87061 L 277.06494 260.31406 L 269.85645 264.84768 M 267.30336 272.95514 L 274.74324 269.45075 L 268.63625 266.42781 L 267.30336 272.95514 M 267.02658 283.11209 L 275.25540 289.22493 L 277.59235 284.00844 L 267.02658 283.11209 M 257.89992 286.43231 L 264.85151 290.15294 L 263.68254 283.48452 L 257.89992 286.43231 M 251.86889 287.35462 L 215.43424 290.86301 L 258.82047 291.07525 L 251.86889 287.35462 M 277.95431 290.07042 L 288.61782 289.87602 L 280.29126 284.85394 L 277.95431 290.07042 M 279.12987 291.53051 L 353.23447 291.53444 L 296.85323 290.78053 L 279.12987 291.53051 M 289.95435 288.81380 L 288.64654 281.57270 L 281.62779 283.79172 L 289.95435 288.81380 M 291.81021 288.97208 L 296.47472 285.05797 L 290.50241 281.73098 L 291.81021 288.97208 M 291.95943 291.66019 L 399.48973 291.81800 L 366.06403 291.66412 L 291.95943 291.66019 M 290.55247 278.36400 L 299.60855 273.69512 L 289.12697 270.03210 L 290.55247 278.36400 M 280.65710 258.19241 L 292.30062 260.93000 L 285.84871 252.69343 L 280.65710 258.19241 M 329.06029 234.71237 L 342.00179 220.58808 L 334.07662 215.12713 L 329.06029 234.71237 M 350.60753 236.06241 L 350.11732 230.03119 L 331.79878 238.08774 L 350.60753 236.06241 M 350.38158 245.19522 L 350.64056 237.95792 L 331.83181 239.98325 L 350.38158 245.19522 M 353.86407 245.15378 L 359.69175 239.65170 L 354.12305 237.91647 L 353.86407 245.15378 M 361.05428 237.12430 L 365.25451 230.96581 L 354.99538 229.35785 L 361.05428 237.12430 M 363.11137 238.29469 L 371.45214 238.72103 L 367.31160 232.13621 L 363.11137 238.29469 M 365.74087 247.10764 L 361.14398 240.80059 L 355.31630 246.30268 L 365.74087 247.10764 M 367.76494 246.38253 L 371.50881 240.50182 L 363.16804 240.07548 L 367.76494 246.38253 M 369.35031 247.25812 L 375.85099 247.08023 L 373.09418 241.37742 L 369.35031 247.25812 M 373.41507 237.88438 L 378.81475 231.60143 L 369.27452 231.29955 L 373.41507 237.88438 M 378.95934 230.10344 L 374.57175 225.90046 L 369.41911 229.80156 L 378.95934 230.10344 M 374.60146 222.59128 L 378.25272 216.90927 L 370.39312 213.21317 L 374.60146 222.59128 M 367.65677 228.81456 L 372.80941 224.91345 L 364.86059 222.20742 L 367.65677 228.81456 M 364.99549 220.31038 L 372.94431 223.01642 L 368.73596 213.63831 L 364.99549 220.31038 M 363.67324 218.37960 L 367.41371 211.70753 L 362.36628 207.57015 L 363.67324 218.37960 M 355.67693 217.51867 L 362.20614 219.10599 L 360.89918 208.29655 L 355.67693 217.51867 M 354.24824 216.62014 L 359.47049 207.39801 L 350.77660 211.91771 L 354.24824 216.62014 M 346.28987 218.53047 L 352.60066 218.01169 L 349.12902 213.30927 L 346.28987 218.53047 M 344.25616 217.82444 L 347.09532 212.60324 L 336.33100 212.36349 L 344.25616 217.82444 M 360.04746 204.32970 L 358.19178 198.03896 L 352.02585 202.88406 L 360.04746 204.32970 M 355.54216 195.81613 L 338.85047 186.54706 L 349.37623 200.66123 L 355.54216 195.81613 M 369.39897 189.38940 L 372.25117 178.82027 L 363.93603 185.80235 L 369.39897 189.38940 M 379.18922 185.72606 L 384.16967 180.87858 L 375.58716 177.86614 L 379.18922 185.72606 M 386.10150 178.76298 L 388.99443 172.31681 L 383.16839 172.23499 L 386.10150 178.76298 M 389.12469 187.20127 L 385.86186 182.04547 L 380.88141 186.89295 L 389.12469 187.20127 M 389.82551 189.59997 L 383.61172 195.24401 L 389.43889 195.28262 L 389.82551 189.59997 M 391.73070 194.79184 L 401.94623 191.31775 L 392.11732 189.10918 L 391.73070 194.79184 M 388.58694 196.95095 L 382.75978 196.91234 L 383.00998 202.94662 L 388.58694 196.95095 M 379.72822 196.17006 L 371.24446 192.92690 L 373.06843 200.29007 L 379.72822 196.17006 M 390.19525 207.11937 L 394.72276 202.08596 L 390.71453 197.98944 L 390.19525 207.11937 M 388.28810 219.50785 L 388.48800 211.09310 L 381.78400 216.33110 L 388.28810 219.50785 M 390.25835 228.88532 L 396.22457 222.30092 L 390.08932 222.14807 L 390.25835 228.88532 M 393.93886 236.53423 L 397.40465 231.31163 L 390.81720 231.48497 L 393.93886 236.53423 M 398.18476 243.98323 L 406.12150 237.71051 L 395.72602 238.63392 L 398.18476 243.98323 M 401.56250 252.83555 L 408.29746 247.75862 L 399.07503 246.67764 L 401.56250 252.83555 M 400.99371 261.31858 L 399.89351 255.41996 L 391.35788 256.37740 L 400.99371 261.31858 M 402.03085 269.38471 L 408.39962 266.25273 L 403.12472 263.96748 L 402.03085 269.38471 M 405.71241 276.70363 L 410.84583 274.26982 L 402.59018 271.69062 L 405.71241 276.70363 M 411.30962 273.10625 L 409.42274 267.39508 L 403.05397 270.52705 L 411.30962 273.10625 M 413.74694 272.71102 L 422.55256 267.36518 L 411.86006 266.99984 L 413.74694 272.71102 M 414.32358 280.53311 L 421.71965 275.26022 L 413.92812 275.09194 L 414.32358 280.53311 M 412.47716 280.85676 L 412.08170 275.41559 L 406.94829 277.84940 L 412.47716 280.85676 M 406.14773 288.09704 L 411.73541 282.44194 L 406.20654 279.43458 L 406.14773 288.09704 M 392.78272 288.00127 L 402.53842 279.02030 L 392.08729 278.80918 L 392.78272 288.00127 M 391.15837 275.53499 L 398.48726 270.73309 L 388.47361 266.82070 L 391.15837 275.53499 M 385.77045 263.27391 L 387.24214 256.82789 L 378.07510 257.51906 L 385.77045 263.27391 M 387.61582 254.15503 L 387.70481 248.13930 L 379.50390 248.59787 L 387.61582 254.15503 M 383.34023 238.58896 L 380.57296 232.51260 L 375.17328 238.79555 L 383.34023 238.58896 M 399.50096 229.11194 L 404.74311 225.52111 L 398.87973 222.70088 L 399.50096 229.11194 M 405.33424 223.67224 L 404.22996 214.32093 L 399.47085 220.85200 L 405.33424 223.67224 M 407.50936 234.94118 L 405.82182 227.05115 L 400.57966 230.64198 L 407.50936 234.94118 M 406.26536 236.20024 L 399.33567 231.90104 L 395.86988 237.12364 L 406.26536 236.20024 M 411.23276 245.78124 L 417.10821 243.28924 L 409.94708 238.42755 L 411.23276 245.78124 M 414.59279 252.32282 L 417.68892 245.02615 L 411.81348 247.51815 L 414.59279 252.32282 M 418.76278 241.18027 L 424.46935 228.90945 L 411.60165 236.31858 L 418.76278 241.18027 M 426.55690 250.14193 L 426.33876 230.63737 L 420.63219 242.90819 L 426.55690 250.14193 M 424.46860 264.12427 L 425.93611 255.23987 L 416.91527 255.30281 L 424.46860 264.12427 M 422.73145 265.34128 L 415.17812 256.51982 L 412.03896 264.97594 L 422.73145 265.34128 M 422.92110 273.71922 L 423.93519 268.20510 L 415.12957 273.55094 L 422.92110 273.71922 M 424.34602 274.87230 L 426.52890 282.77557 L 425.36010 269.35818 L 424.34602 274.87230 M 419.73416 290.27853 L 424.90115 286.04972 L 415.32219 283.41934 L 419.73416 290.27853 M 378.61171 291.56016 L 412.03741 291.71404 L 392.34087 290.82846 L 378.61171 291.56016 M 371.24425 286.81505 L 373.39878 274.09211 L 364.67233 265.74442 L 371.24425 286.81505 M 377.67801 273.02193 L 388.55721 275.82109 L 385.87245 267.10680 L 377.67801 273.02193 M 359.86435 259.41243 L 353.21974 249.21476 L 348.15144 254.70453 L 359.86435 259.41243 M 344.55224 252.50315 L 349.62054 247.01338 L 331.07077 241.80140 L 344.55224 252.50315 M 329.35991 284.29685 L 310.12938 263.39807 L 306.25409 273.61721 L 329.35991 284.29685 M 328.36576 286.89899 L 305.25994 276.21936 L 302.17617 284.21523 L 328.36576 286.89899 M 319.86255 213.41868 L 330.58526 210.84953 L 319.77729 203.38334 L 319.86255 213.41868 M 333.77714 180.39275 L 342.16746 165.01641 L 317.09095 176.07209 L 333.77714 180.39275 M 338.98553 163.53856 L 308.32174 168.56988 L 313.90903 174.59423 L 338.98553 163.53856 M 339.40312 158.65964 L 317.24974 135.56290 L 308.73933 163.69096 L 339.40312 158.65964 M 356.08779 160.00524 L 355.48807 153.25424 L 348.91277 160.21582 L 356.08779 160.00524 M 358.14625 159.64222 L 365.38050 157.31166 L 357.54654 152.89122 L 358.14625 159.64222 M 363.49894 165.18940 L 357.85248 162.25576 L 356.78417 168.53527 L 363.49894 165.18940 M 364.68502 163.95938 L 366.27281 158.69518 L 359.03856 161.02574 L 364.68502 163.95938 M 366.22900 155.68772 L 364.93423 146.65066 L 358.39503 151.26728 L 366.22900 155.68772 M 373.80294 161.72825 L 375.11822 155.28518 L 369.07254 157.80944 L 373.80294 161.72825 M 383.47725 163.07780 L 376.91881 155.94372 L 375.60353 162.38680 L 383.47725 163.07780 M 381.51665 169.77301 L 384.05198 164.80646 L 376.17826 164.11546 L 381.51665 169.77301 M 373.03277 173.88426 L 373.34378 164.71117 L 367.02559 166.05655 L 373.03277 173.88426 M 372.07864 175.25227 L 366.07146 167.42455 L 365.71075 175.65520 L 372.07864 175.25227 M 352.72891 170.37296 L 346.62220 164.30402 L 338.23189 179.68036 L 352.72891 170.37296 M 355.31898 151.43003 L 354.73506 145.41157 L 348.74368 158.39161 L 355.31898 151.43003 M 364.11113 143.50574 L 360.22816 136.54679 L 356.98802 142.10389 L 364.11113 143.50574 M 372.48436 138.49483 L 370.87239 131.66946 L 362.70123 134.83064 L 372.48436 138.49483 M 379.35336 134.90524 L 372.95391 131.67879 L 374.56587 138.50415 L 379.35336 134.90524 M 380.12823 133.05748 L 380.76481 123.72209 L 373.72878 129.83103 L 380.12823 133.05748 M 370.83059 128.17661 L 369.06151 117.67511 L 365.74783 124.21473 L 370.83059 128.17661 M 364.61105 122.73537 L 367.92473 116.19575 L 361.73636 116.34176 L 364.61105 122.73537 M 354.98121 131.51429 L 350.28024 113.36248 L 323.59630 126.95469 L 354.98121 131.51429 M 348.20291 109.16321 L 338.36253 97.92012 L 321.51896 122.75542 L 348.20291 109.16321 M 351.92083 106.34293 L 351.26233 100.19321 L 342.08045 95.09985 L 351.92083 106.34293 M 362.19878 106.16946 L 353.77712 101.57691 L 354.43562 107.72663 L 362.19878 106.16946 M 367.26973 99.02946 L 365.96719 105.51168 L 374.85873 104.35410 L 367.26973 99.02946 M 364.32180 97.15346 L 359.69694 93.93865 L 354.59760 99.04314 L 364.32180 97.15346 M 358.26094 92.93474 L 352.83379 89.12214 L 353.16160 98.03922 L 358.26094 92.93474 M 350.79362 89.12373 L 341.93955 92.94745 L 351.12143 98.04081 L 350.79362 89.12373 M 350.00644 87.09381 L 344.82398 81.80140 L 341.15237 90.91752 L 350.00644 87.09381 M 341.55777 79.43432 L 330.97727 73.11288 L 330.78559 83.59476 L 341.55777 79.43432 M 343.37688 77.57646 L 345.33848 68.73184 L 332.79638 71.25502 L 343.37688 77.57646 M 360.34726 78.89254 L 353.73200 86.72881 L 359.15915 90.54140 L 360.34726 78.89254 M 371.12928 88.25431 L 362.52192 79.08323 L 361.33381 90.73209 L 371.12928 88.25431 M 375.78347 102.61484 L 373.36509 91.59761 L 368.19447 97.29020 L 375.78347 102.61484 M 379.58836 112.32762 L 376.81605 106.77216 L 371.26440 113.97604 L 379.58836 112.32762 M 380.53429 120.02525 L 380.05314 113.98426 L 371.72918 115.63268 L 380.53429 120.02525 M 384.29652 122.08401 L 390.78387 127.73391 L 394.85858 120.41188 L 384.29652 122.08401 M 393.86309 118.74176 L 382.81988 114.37289 L 383.30103 120.41388 L 393.86309 118.74176 M 390.00943 109.74000 L 383.65843 113.03866 L 394.70164 117.40752 L 390.00943 109.74000 M 397.71924 98.08118 L 391.90444 106.94062 L 397.69589 107.17053 L 397.71924 98.08118 M 396.35630 97.16372 L 386.79234 99.83083 L 390.54150 106.02316 L 396.35630 97.16372 M 395.71394 95.46549 L 385.40263 92.43731 L 386.14999 98.13260 L 395.71394 95.46549 M 389.84893 85.27106 L 381.89836 77.13206 L 384.27856 88.97121 L 389.84893 85.27106 M 402.79339 80.05815 L 400.36519 92.97195 L 410.62049 88.06991 L 402.79339 80.05815 M 412.50361 70.13119 L 410.03688 62.06304 L 403.84511 64.83345 L 412.50361 70.13119 M 408.53572 60.12893 L 400.49433 54.65832 L 402.34395 62.89935 L 408.53572 60.12893 M 400.18808 62.95079 L 398.33846 54.70977 L 391.28880 60.54050 L 400.18808 62.95079 M 399.63915 64.56658 L 390.73987 62.15629 L 393.94705 67.63609 L 399.63915 64.56658 M 400.94033 66.17055 L 395.24822 69.24006 L 401.14927 74.98801 L 400.94033 66.17055 M 391.81694 68.61666 L 388.60976 63.13685 L 382.59828 72.41108 L 391.81694 68.61666 M 392.09395 71.10426 L 382.87529 74.89869 L 390.82586 83.03770 L 392.09395 71.10426 M 387.16618 62.41456 L 380.26827 62.83835 L 381.15469 71.68880 L 387.16618 62.41456 M 386.92329 60.27301 L 379.21158 54.55640 L 380.02538 60.69680 L 386.92329 60.27301 M 387.99178 51.67163 L 389.76426 59.13060 L 396.81392 53.29987 L 387.99178 51.67163 M 384.88423 49.49235 L 379.66521 41.58226 L 378.94500 51.23471 L 384.88423 49.49235 M 375.74896 51.70131 L 370.37527 44.05219 L 365.40983 51.22186 L 375.74896 51.70131 M 378.04908 40.73844 L 371.95517 42.74176 L 377.32887 50.39089 L 378.04908 40.73844 M 373.33112 33.52986 L 366.71823 35.25352 L 370.25199 40.25888 L 373.33112 33.52986 M 372.98402 31.78449 L 367.47520 26.29590 L 366.37113 33.50815 L 372.98402 31.78449 M 375.38935 24.72116 L 368.60248 25.19753 L 374.11130 30.68611 L 375.38935 24.72116 M 376.03142 23.65986 L 392.88306 22.78477 L 355.60932 23.54718 L 376.03142 23.65986 M 385.80444 24.10697 L 396.65745 22.85474 L 379.80581 23.72983 L 385.80444 24.10697 M 393.67641 31.55525 L 386.47883 26.34774 L 388.85631 35.19632 L 393.67641 31.55525 M 394.76406 33.56151 L 389.94396 37.20258 L 395.18001 42.39779 L 394.76406 33.56151 M 396.31177 33.31225 L 396.72772 42.14853 L 402.32566 35.20849 L 396.31177 33.31225 M 402.78844 33.02334 L 400.42997 24.66737 L 396.77455 31.12710 L 402.78844 33.02334 M 403.20133 36.33790 L 397.60339 43.27795 L 403.31712 42.34755 L 403.20133 36.33790 M 409.82725 38.97939 L 404.72931 35.80058 L 404.84511 41.81023 L 409.82725 38.97939 M 410.60698 40.32328 L 405.62484 43.15411 L 410.96721 46.55166 L 410.60698 40.32328 M 409.74862 47.91871 L 404.40625 44.52115 L 400.85824 51.25961 L 409.74862 47.91871 M 416.38823 55.91975 L 412.08947 60.30270 L 418.43375 63.20183 L 416.38823 55.91975 M 422.51775 48.12195 L 413.55507 48.50476 L 417.00485 52.93332 L 422.51775 48.12195 M 421.97347 46.59953 L 412.65056 40.75396 L 413.01079 46.98234 L 421.97347 46.59953 M 420.84690 27.64991 L 406.72953 34.03054 L 411.82747 37.20935 L 420.84690 27.64991 M 387.35597 38.52912 L 380.71659 39.99407 L 385.93560 47.90415 L 387.35597 38.52912 M 386.17971 36.72401 L 376.52555 33.46326 L 379.54033 38.18895 L 386.17971 36.72401 M 368.37184 41.29723 L 364.83807 36.29188 L 358.28988 41.83671 L 368.37184 41.29723 M 368.16731 43.03652 L 358.08536 43.57600 L 363.20188 50.20620 L 368.16731 43.03652 M 363.11049 35.51506 L 354.55114 35.08274 L 356.56230 41.05989 L 363.11049 35.51506 M 363.42044 34.01770 L 359.04194 29.08099 L 354.86109 33.58537 L 363.42044 34.01770 M 357.25177 27.96652 L 349.09912 25.10193 L 353.07093 32.47090 L 357.25177 27.96652 M 351.24745 32.69552 L 347.27564 25.32656 L 342.66391 29.76349 L 351.24745 32.69552 M 351.07303 34.20856 L 342.48949 31.27653 L 345.88032 37.43085 L 351.07303 34.20856 M 352.58656 35.48130 L 347.39385 38.70359 L 354.59772 41.45846 L 352.58656 35.48130 M 354.29889 42.93448 L 347.09502 40.17961 L 350.19599 47.28945 L 354.29889 42.93448 M 348.04101 49.63327 L 341.69047 48.72401 L 340.30864 55.48447 L 348.04101 49.63327 M 340.12970 47.99202 L 335.55479 43.77741 L 338.74786 54.75249 L 340.12970 47.99202 M 336.72735 54.72668 L 333.53428 43.75160 L 323.96560 47.78556 L 336.72735 54.72668 M 334.68108 56.69280 L 321.91933 49.75168 L 317.16415 59.48056 L 334.68108 56.69280 M 332.28641 41.46032 L 326.74442 36.39640 L 322.71773 45.49428 L 332.28641 41.46032 M 325.16329 35.01100 L 319.63737 30.37709 L 321.13660 44.10887 L 325.16329 35.01100 M 330.66595 27.34892 L 320.82854 28.28210 L 326.35446 32.91601 L 330.66595 27.34892 M 332.74986 26.27559 L 343.02575 24.32937 L 322.91245 27.20877 L 332.74986 26.27559 M 317.49877 27.15069 L 337.61207 24.27130 L 289.44045 25.81100 L 317.49877 27.15069 M 318.43368 44.61024 L 316.93445 30.87846 L 303.53996 39.02192 L 318.43368 44.61024 M 313.53800 59.80137 L 318.29319 50.07250 L 305.67194 59.25933 L 313.53800 59.80137 M 304.84708 61.72499 L 311.69428 69.79780 L 312.71314 62.26704 L 304.84708 61.72499 M 292.48929 60.33841 L 287.29029 56.37328 L 286.89092 62.15754 L 292.48929 60.33841 M 286.91058 64.97488 L 286.21767 70.74997 L 293.73888 71.31780 L 286.91058 64.97488 M 284.71582 64.49763 L 276.18080 67.49983 L 284.02291 70.27273 L 284.71582 64.49763 M 283.51784 62.97410 L 274.43906 58.08446 L 274.98282 65.97630 L 283.51784 62.97410 M 285.19355 55.93464 L 275.71541 56.82925 L 284.79418 61.71889 L 285.19355 55.93464 M 280.31029 47.32757 L 286.94607 52.65946 L 295.97198 41.74396 L 280.31029 47.32757 M 277.66686 49.01473 L 274.82449 55.24123 L 284.30264 54.34662 L 277.66686 49.01473 M 275.80044 48.48143 L 269.37134 50.08025 L 272.95808 54.70793 L 275.80044 48.48143 M 275.93136 46.81730 L 274.00537 41.39491 L 269.50225 48.41612 L 275.93136 46.81730 M 272.32050 41.08438 L 262.45244 44.33306 L 267.81739 48.10559 L 272.32050 41.08438 M 266.27043 49.88825 L 260.90549 46.11572 L 259.94488 55.34565 L 266.27043 49.88825 M 266.90190 51.65419 L 260.57634 57.11159 L 265.95717 60.24328 L 266.90190 51.65419 M 265.29469 62.09479 L 259.91386 58.96310 L 261.60207 66.46625 L 265.29469 62.09479 M 266.78841 63.10366 L 263.09579 67.47512 L 271.86363 67.03410 L 266.78841 63.10366 M 258.42762 59.02370 L 253.40480 62.57960 L 260.11583 66.52685 L 258.42762 59.02370 M 248.83539 63.13279 L 238.15086 61.68100 L 239.26790 68.84823 L 248.83539 63.13279 M 244.56332 55.03445 L 238.81278 59.95428 L 249.49732 61.40606 L 244.56332 55.03445 M 238.62305 40.63648 L 244.26813 50.80259 L 247.03038 42.63712 L 238.62305 40.63648 M 235.12494 40.30285 L 227.01637 42.15950 L 232.79910 48.27757 L 235.12494 40.30285 M 230.26265 34.29875 L 226.69931 40.41215 L 234.80788 38.55550 L 230.26265 34.29875 M 226.04067 25.73946 L 217.95087 32.07695 L 228.31647 31.94861 L 226.04067 25.73946 M 223.62910 23.19054 L 160.78300 24.27524 L 202.48336 23.85039 L 223.62910 23.19054 M 230.73282 23.16692 L 209.58709 23.82677 L 217.61280 24.08628 L 230.73282 23.16692 M 241.90921 31.50480 L 232.16389 33.18533 L 236.70912 37.44208 L 241.90921 31.50480 M 251.61458 26.16912 L 238.36269 23.99888 L 244.25413 29.23153 L 251.61458 26.16912 M 263.70177 25.06390 L 255.98114 26.85796 L 258.21407 34.36610 L 263.70177 25.06390 M 265.11552 25.80653 L 259.62782 35.10874 L 267.29116 32.79905 L 265.11552 25.80653 M 276.09525 23.33219 L 370.61386 22.68268 L 255.12274 22.95601 L 276.09525 23.33219 M 284.13594 25.38353 L 332.30756 23.84383 L 275.06269 23.73093 L 284.13594 25.38353 M 299.27672 43.62348 L 295.44982 58.50411 L 301.54920 58.39863 L 299.27672 43.62348 M 294.28041 72.93440 L 286.75920 72.36657 L 291.24284 77.90765 L 294.28041 72.93440 M 289.82542 80.99772 L 282.04008 83.92976 L 286.24281 89.18181 L 289.82542 80.99772 M 295.87193 88.88303 L 291.55440 81.61688 L 287.97179 89.80097 L 295.87193 88.88303 M 295.03419 90.82067 L 287.13404 91.73861 L 284.85242 97.11800 L 295.03419 90.82067 M 297.93112 94.53505 L 287.74935 100.83238 L 310.30952 121.45366 L 297.93112 94.53505 M 307.09812 83.71187 L 303.97707 78.30680 L 299.37738 87.83868 L 307.09812 83.71187 M 319.30341 81.45111 L 311.77909 83.74586 L 326.17975 85.00029 L 319.30341 81.45111 M 282.35014 71.34259 L 274.50802 68.56969 L 271.33361 73.05650 L 282.35014 71.34259 M 277.61784 84.17954 L 268.08807 83.40790 L 268.18002 89.01965 L 277.61784 84.17954 M 278.52626 85.36880 L 269.08843 90.20892 L 275.35539 92.92198 L 278.52626 85.36880 M 274.81346 94.86539 L 268.54650 92.15232 L 274.19084 100.91607 L 274.81346 94.86539 M 281.52814 98.77098 L 276.43616 95.69272 L 275.81355 101.74341 L 281.52814 98.77098 M 282.67045 97.57787 L 284.95208 92.19848 L 277.57848 94.49961 L 282.67045 97.57787 M 280.84705 100.76485 L 275.13246 103.73727 L 270.98749 111.64362 L 280.84705 100.76485 M 272.77613 103.83993 L 261.99635 101.58612 L 268.63115 111.74628 L 272.77613 103.83993 M 266.41794 112.45909 L 259.78313 102.29892 L 255.07038 109.54236 L 266.41794 112.45909 M 262.69654 120.36670 L 251.34898 117.44997 L 230.01194 165.55981 L 262.69654 120.36670 M 247.66162 116.98270 L 233.19764 116.62851 L 226.32458 165.09254 L 247.66162 116.98270 M 250.21761 108.95082 L 246.77250 100.83751 L 235.75363 108.59663 L 250.21761 108.95082 M 257.66989 100.72320 L 249.51204 99.85333 L 252.95715 107.96664 L 257.66989 100.72320 M 245.37890 97.99041 L 238.67798 93.80764 L 234.75078 98.11590 L 245.37890 97.99041 M 237.18877 92.57865 L 233.46525 88.15843 L 233.26157 96.88690 L 237.18877 92.57865 M 228.96911 87.25099 L 201.21967 85.31913 L 228.76544 95.97946 L 228.96911 87.25099 M 227.43950 79.16864 L 201.05393 83.21778 L 228.80337 85.14964 L 227.43950 79.16864 M 225.67402 71.92282 L 200.66276 81.56443 L 227.04833 77.51529 L 225.67402 71.92282 M 236.45503 71.29912 L 230.14805 70.63966 L 231.52236 76.23213 L 236.45503 71.29912 M 237.86619 72.63179 L 232.93352 77.56480 L 241.43733 81.30105 L 237.86619 72.63179 M 219.67836 62.23312 L 210.62023 54.46678 L 198.17123 77.92685 L 219.67836 62.23312 M 224.07605 53.65012 L 213.85833 51.43219 L 222.91646 59.19853 L 224.07605 53.65012 M 226.61208 54.69451 L 225.45249 60.24291 L 234.14655 59.78727 L 226.61208 54.69451 M 225.92495 43.58710 L 226.39359 51.72363 L 231.70769 49.70517 L 225.92495 43.58710 M 224.28048 42.66695 L 218.55190 42.34403 L 224.74912 50.80349 L 224.28048 42.66695 M 217.15918 43.18954 L 213.13867 49.43107 L 223.35639 51.64900 L 217.15918 43.18954 M 213.26843 33.90447 L 205.07910 34.21616 L 207.13614 39.91962 L 213.26843 33.90447 M 203.04389 34.48457 L 196.98673 36.05177 L 205.10093 40.18803 L 203.04389 34.48457 M 195.97503 37.33034 L 194.95033 44.71310 L 204.08923 41.46660 L 195.97503 37.33034 M 193.69559 36.95779 L 185.85373 38.48624 L 192.67089 44.34056 L 193.69559 36.95779 M 187.63724 30.56676 L 185.22452 36.76452 L 193.06639 35.23607 L 187.63724 30.56676 M 185.13078 29.84405 L 173.01468 29.45444 L 182.71806 36.04182 L 185.13078 29.84405 M 182.83629 39.44951 L 176.06883 44.15706 L 183.14068 45.81068 L 182.83629 39.44951 M 174.22736 45.47354 L 168.10455 49.98139 L 181.29922 47.12717 L 174.22736 45.47354 M 166.70214 51.67228 L 163.00808 59.00069 L 179.89681 48.81806 L 166.70214 51.67228 M 162.57203 64.63861 L 156.82559 71.18047 L 185.84890 80.05120 L 162.57203 64.63861 M 157.44978 76.37113 L 167.56553 106.16390 L 186.47309 85.24186 L 157.44978 76.37113 M 141.28857 74.07735 L 138.05634 95.72606 L 149.15048 73.97087 L 141.28857 74.07735 M 139.28054 74.27808 L 133.08619 75.57677 L 136.04830 95.92680 L 139.28054 74.27808 M 137.90472 64.54797 L 133.31824 71.65441 L 139.51259 70.35573 L 137.90472 64.54797 M 131.46951 60.81340 L 132.31285 70.46162 L 136.89933 63.35517 L 131.46951 60.81340 M 129.14620 58.64554 L 124.43499 50.38286 L 123.86741 63.92327 L 129.14620 58.64554 M 144.18051 57.88517 L 136.41624 51.57841 L 138.76760 60.93168 L 144.18051 57.88517 M 147.38462 57.79132 L 157.18792 59.99726 L 146.83293 51.66817 L 147.38462 57.79132 M 143.97681 40.98833 L 136.99843 48.32010 L 144.21101 48.50371 L 143.97681 40.98833 M 146.32557 40.33386 L 146.55976 47.84924 L 155.78845 43.08430 L 146.32557 40.33386 M 134.94195 35.47934 L 135.83979 46.69205 L 142.81818 39.36028 L 134.94195 35.47934 M 140.98999 24.64596 L 119.62338 25.07575 L 128.35202 25.30160 L 140.98999 24.64596 M 142.82644 25.46778 L 130.18846 26.12342 L 134.31494 31.65032 L 142.82644 25.46778 M 147.01813 27.75910 L 146.38286 37.82259 L 155.84574 40.57304 L 147.01813 27.75910 M 153.28889 24.96265 L 170.12377 27.73943 L 188.54173 25.48818 L 153.28889 24.96265 M 166.34874 29.49492 L 149.51386 26.71814 L 158.34148 39.53208 L 166.34874 29.49492 M 171.70323 31.01234 L 174.63914 42.30727 L 181.40661 37.59972 L 171.70323 31.01234 M 204.31822 24.97592 L 197.87070 25.92630 L 203.05514 31.66929 L 204.31822 24.97592 M 207.56559 52.97987 L 195.24121 50.33787 L 195.11659 76.43994 L 207.56559 52.97987 M 189.12808 90.24615 L 170.22053 111.16818 L 178.68973 116.40540 L 189.12808 90.24615 M 165.90758 115.57665 L 160.88372 122.09831 L 168.11761 124.22945 L 165.90758 115.57665 M 160.07165 123.94372 L 159.41104 130.33995 L 167.30554 126.07486 L 160.07165 123.94372 M 168.33234 127.24520 L 160.43783 131.51029 L 168.28604 133.30639 L 168.33234 127.24520 M 176.61347 122.73237 L 170.35429 126.14796 L 170.30799 132.20916 L 176.61347 122.73237 M 181.89625 128.04425 L 175.59077 137.52103 L 212.61655 168.64299 L 181.89625 128.04425 M 188.16752 125.56682 L 218.88781 166.16555 L 225.76088 117.70153 L 188.16752 125.56682 M 173.46815 140.82872 L 164.91530 154.50576 L 210.49393 171.95068 L 173.46815 140.82872 M 166.97556 136.94357 L 158.55320 140.86947 L 158.42271 150.62060 L 166.97556 136.94357 M 159.22802 132.93702 L 158.65387 138.65902 L 167.07623 134.73312 L 159.22802 132.93702 M 156.80959 142.06020 L 153.02671 146.46943 L 156.67910 151.81134 L 156.80959 142.06020 M 148.75026 139.40123 L 156.36312 139.24254 L 156.93728 133.52053 L 148.75026 139.40123 M 146.83573 141.84241 L 145.40392 148.64075 L 150.66570 146.09294 L 146.83573 141.84241 M 144.12904 152.55794 L 140.08726 162.61728 L 145.94023 160.57274 L 144.12904 152.55794 M 133.06840 154.54784 L 125.96762 161.36292 L 136.63912 162.92618 L 133.06840 154.54784 M 125.19205 163.30647 L 126.86380 170.09622 L 135.86355 164.86973 L 125.19205 163.30647 M 139.01769 165.78747 L 136.73092 171.90679 L 143.71219 169.75555 L 139.01769 165.78747 M 137.55183 173.34847 L 145.58498 177.32086 L 144.53310 171.19722 L 137.55183 173.34847 M 134.64002 184.77902 L 108.51588 200.58734 L 137.10292 193.56194 L 134.64002 184.77902 M 141.81455 192.03525 L 146.20890 188.37384 L 139.35165 183.25233 L 141.81455 192.03525 M 143.27399 193.92908 L 151.02713 198.40294 L 147.66833 190.26766 L 143.27399 193.92908 M 144.81399 201.25310 L 150.67033 199.77612 L 142.91719 195.30226 L 144.81399 201.25310 M 145.67943 202.72418 L 149.84075 207.07086 L 151.53578 201.24719 L 145.67943 202.72418 M 152.84382 202.33119 L 151.14879 208.15487 L 156.14376 211.39620 L 152.84382 202.33119 M 160.05397 199.36770 L 163.35391 208.43270 L 208.82998 184.44689 L 160.05397 199.36770 M 150.93178 210.00488 L 151.10778 217.13133 L 155.92675 213.24622 L 150.93178 210.00488 M 157.07342 214.40165 L 152.25445 218.28676 L 160.10511 219.24833 L 157.07342 214.40165 M 143.85191 221.68666 L 150.86542 259.43645 L 149.75876 223.56155 L 143.85191 221.68666 M 109.13869 202.69217 L 139.62253 201.61761 L 137.72574 195.66676 L 109.13869 202.69217 M 96.35281 237.48890 L 132.68518 217.64340 L 103.77088 209.11971 L 96.35281 237.48890 M 81.70847 236.45938 L 89.98072 239.84090 L 97.39879 211.47171 L 81.70847 236.45938 M 70.28658 240.76037 L 77.32009 249.04858 L 77.28927 240.73675 L 70.28658 240.76037 M 69.30746 241.98042 L 69.45632 250.49710 L 76.34097 250.26863 L 69.30746 241.98042 M 60.99578 245.01176 L 67.53817 249.83999 L 67.38931 241.32331 L 60.99578 245.01176 M 60.32200 246.65839 L 61.99909 254.49631 L 66.86439 251.48661 L 60.32200 246.65839 M 50.25063 248.86286 L 50.69096 257.39330 L 59.08300 255.39755 L 50.25063 248.86286 M 44.20021 240.91633 L 38.68581 243.31608 L 47.26308 245.68970 L 44.20021 240.91633 M 45.48438 239.92670 L 48.54725 244.70007 L 48.95915 235.39904 L 45.48438 239.92670 M 44.09300 238.60860 L 47.56777 234.08095 L 37.41623 234.15528 L 44.09300 238.60860 M 39.18627 245.21663 L 48.20387 256.12069 L 47.76354 247.59024 L 39.18627 245.21663 M 38.38179 247.02270 L 41.32775 262.03884 L 47.39940 257.92676 L 38.38179 247.02270 M 36.13206 235.14491 L 37.29443 241.99798 L 42.80884 239.59823 L 36.13206 235.14491 M 34.09396 234.79110 L 26.50403 236.76777 L 35.25633 241.64418 L 34.09396 234.79110 M 25.41878 239.03862 L 25.41196 252.95792 L 34.17108 243.91503 L 25.41878 239.03862 M 29.03388 226.19546 L 34.55639 231.80695 L 36.88834 225.35908 L 29.03388 226.19546 M 25.89631 217.99042 L 24.64372 233.10961 L 26.71114 225.52146 L 25.89631 217.99042 M 39.41347 214.44407 L 39.07182 222.68674 L 43.82808 219.50723 L 39.41347 214.44407 M 41.09945 211.05979 L 51.63509 208.81154 L 46.43867 202.92389 L 41.09945 211.05979 M 47.53795 218.21373 L 58.21517 214.58700 L 53.65898 210.90233 L 47.53795 218.21373 M 53.58397 224.24888 L 59.30340 222.60613 L 59.51411 216.55799 L 53.58397 224.24888 M 52.52155 227.40688 L 50.83779 232.89576 L 58.41786 234.69032 L 52.52155 227.40688 M 51.56060 234.82243 L 58.30398 242.82022 L 59.14067 236.61699 L 51.56060 234.82243 M 60.81016 225.14063 L 60.98705 234.06682 L 65.67185 229.55052 L 60.81016 225.14063 M 68.28517 231.54083 L 69.15722 238.57191 L 76.15990 238.54828 L 68.28517 231.54083 M 65.08666 215.01468 L 69.73764 225.47272 L 93.30269 207.49250 L 65.08666 215.01468 M 54.90710 208.76112 L 59.46329 212.44579 L 57.52291 201.08406 L 54.90710 208.76112 M 48.31745 201.50599 L 53.51387 207.39364 L 56.12968 199.71659 L 48.31745 201.50599 M 57.49755 196.14855 L 61.25625 188.24935 L 52.88592 188.53799 L 57.49755 196.14855 M 62.46441 197.78428 L 92.62083 201.62383 L 66.22311 189.88508 L 62.46441 197.78428 M 51.32017 175.58153 L 52.06596 184.95652 L 60.05403 176.58310 L 51.32017 175.58153 M 49.15906 175.58131 L 42.76517 176.58129 L 49.90485 184.95629 L 49.15906 175.58131 M 54.57788 166.70617 L 51.63416 173.30024 L 60.36802 174.30180 L 54.57788 166.70617 M 44.73422 158.64538 L 45.55685 165.51408 L 52.16553 164.10144 L 44.73422 158.64538 M 43.62842 149.14787 L 37.79878 152.66224 L 42.92364 155.55589 L 43.62842 149.14787 M 37.95389 144.12972 L 43.79458 146.47715 L 44.26394 140.05193 L 37.95389 144.12972 M 37.17587 142.52847 L 43.48591 138.45068 L 37.57037 133.66714 L 37.17587 142.52847 M 24.65213 143.75862 L 23.37630 130.38131 L 23.45292 149.44907 L 24.65213 143.75862 M 22.96366 133.59742 L 23.91806 249.28666 L 23.32550 161.53175 L 22.96366 133.59742 M 24.32537 126.31446 L 25.75963 132.48248 L 30.88706 124.12358 L 24.32537 126.31446 M 34.65058 120.33589 L 45.68618 117.40849 L 38.27054 107.29920 L 34.65058 120.33589 M 41.75592 103.70469 L 57.48452 106.12198 L 54.22069 99.27178 L 41.75592 103.70469 M 56.92889 98.84050 L 60.19272 105.69070 L 63.42152 100.25447 L 56.92889 98.84050 M 72.68130 101.69440 L 66.57119 100.82323 L 72.78740 107.95563 L 72.68130 101.69440 M 74.37786 101.83206 L 74.48396 108.09328 L 80.14367 101.92446 L 74.37786 101.83206 M 72.84809 96.17055 L 74.12175 63.76478 L 66.73798 95.29937 L 72.84809 96.17055 M 82.97667 95.83657 L 95.87425 91.79593 L 78.48451 63.33840 L 82.97667 95.83657 M 84.54208 100.59146 L 91.00784 101.37751 L 97.43966 96.55081 L 84.54208 100.59146 M 82.79423 102.06276 L 83.45685 108.32123 L 89.25999 102.84882 L 82.79423 102.06276 M 81.06202 102.83173 L 75.40231 109.00055 L 81.72464 109.09019 L 81.06202 102.83173 M 81.43058 111.10686 L 75.10825 111.01722 L 78.70957 118.96506 L 81.43058 111.10686 M 73.35222 111.59545 L 67.38232 115.73268 L 76.95354 119.54329 L 73.35222 111.59545 M 66.48245 117.93378 L 66.15325 129.20427 L 76.05367 121.74439 L 66.48245 117.93378 M 89.74068 123.91673 L 82.32173 132.94319 L 96.66098 124.36544 L 89.74068 123.91673 M 91.82555 115.78063 L 90.92866 121.77141 L 97.84896 122.22012 L 91.82555 115.78063 M 92.87078 114.83879 L 98.89419 121.27828 L 99.29046 114.23665 L 92.87078 114.83879 M 91.89085 103.60671 L 91.94720 111.88459 L 97.98157 105.32043 L 91.89085 103.60671 M 112.19303 111.43598 L 130.69647 101.88600 L 112.00723 92.05172 L 112.19303 111.43598 M 112.23099 127.25910 L 101.49871 126.00544 L 103.37099 144.36077 L 112.23099 127.25910 M 115.06508 129.21355 L 106.20507 146.31523 L 124.17138 141.64105 L 115.06508 129.21355 M 122.96043 129.26962 L 117.15950 127.08285 L 126.26580 139.51035 L 122.96043 129.26962 M 131.92821 132.35921 L 124.80652 129.92916 L 128.11189 140.16989 L 131.92821 132.35921 M 134.24583 133.57370 L 130.42951 141.38439 L 143.34747 139.64512 L 134.24583 133.57370 M 135.01294 128.54060 L 143.90479 127.95575 L 136.77619 107.77585 L 135.01294 128.54060 M 132.72529 128.27700 L 134.48854 107.51226 L 125.60360 125.84696 L 132.72529 128.27700 M 125.01127 145.35286 L 107.04496 150.02704 L 121.78414 158.90802 L 125.01127 145.35286 M 106.82276 152.93345 L 123.23371 168.60418 L 121.56195 161.81444 L 106.82276 152.93345 M 104.54989 157.10706 L 103.37896 195.20333 L 120.96083 172.77779 L 104.54989 157.10706 M 99.12292 156.08323 L 77.54507 164.58710 L 97.95199 194.17949 L 99.12292 156.08323 M 80.76273 139.46652 L 75.39641 157.74797 L 96.97426 149.24410 L 80.76273 139.46652 M 83.57781 135.62949 L 99.78934 145.40707 L 97.91706 127.05174 L 83.57781 135.62949 M 63.71127 145.43954 L 76.00501 136.39268 L 65.83993 133.88805 L 63.71127 145.43954 M 56.59435 141.50855 L 61.28493 146.07902 L 63.41360 134.52753 L 56.59435 141.50855 M 55.37886 143.80053 L 53.68972 152.86335 L 60.06945 148.37100 L 55.37886 143.80053 M 33.32610 160.16619 L 34.73801 153.69839 L 25.67910 153.86292 L 33.32610 160.16619 M 27.35291 164.97352 L 32.68143 168.94827 L 33.28357 163.09514 L 27.35291 164.97352 M 26.34088 166.19928 L 25.18731 172.90125 L 31.66940 170.17403 L 26.34088 166.19928 M 23.46063 163.44894 L 24.07445 221.80624 L 24.02339 178.33257 L 23.46063 163.44894 M 23.46695 171.64794 L 24.07395 243.92453 L 24.08077 230.00523 L 23.46695 171.64794 M 25.89244 174.71402 L 31.98193 180.70141 L 32.37453 171.98680 L 25.89244 174.71402 M 25.17499 177.16612 L 26.63498 191.60355 L 31.26448 183.15351 L 25.17499 177.16612 M 24.49130 180.36141 L 25.79495 208.71589 L 25.95129 194.79885 L 24.49130 180.36141 M 32.89692 184.97869 L 28.26742 193.42874 L 38.23452 191.76757 L 32.89692 184.97869 M 34.04806 172.11474 L 33.65546 180.82936 L 39.28068 175.73757 L 34.04806 172.11474 M 24.63017 155.05523 L 26.34650 163.23689 L 32.27716 161.35851 L 24.63017 155.05523 M 26.98351 197.87612 L 26.82717 211.79316 L 32.74909 204.97959 L 26.98351 197.87612 M 40.38063 223.99064 L 49.88397 224.87529 L 45.13689 220.81113 L 40.38063 223.99064 M 40.81825 225.35536 L 48.63784 231.72889 L 50.32159 226.24001 L 40.81825 225.35536 M 27.08314 255.79971 L 38.78822 261.77295 L 35.84226 246.75682 L 27.08314 255.79971 M 24.86078 260.08360 L 24.84634 275.56192 L 29.78289 271.52287 L 24.86078 260.08360 M 24.05647 263.60251 L 24.07091 248.12419 L 23.46391 175.84760 L 24.05647 263.60251 M 33.09043 272.19444 L 39.60156 274.96121 L 39.87340 266.72841 L 33.09043 272.19444 M 32.84858 274.24486 L 37.93864 283.13177 L 39.35972 277.01163 L 32.84858 274.24486 M 41.92077 266.47866 L 41.64893 274.71146 L 49.46938 270.19645 L 41.92077 266.47866 M 42.82698 264.71511 L 50.37559 268.43290 L 48.89862 260.60304 L 42.82698 264.71511 M 50.92614 260.58117 L 52.40310 268.41104 L 59.04710 264.54022 L 50.92614 260.58117 M 60.03496 263.13656 L 60.30604 257.18176 L 51.91401 259.17752 L 60.03496 263.13656 M 62.64431 263.31695 L 72.78880 260.62063 L 62.91539 257.36215 L 62.64431 263.31695 M 64.13157 264.85683 L 74.81346 269.68115 L 74.27606 262.16051 L 64.13157 264.85683 M 54.15340 270.01867 L 64.92851 273.44220 L 60.79739 266.14785 L 54.15340 270.01867 M 40.32465 284.12564 L 51.93666 282.19579 L 41.74573 278.00550 L 40.32465 284.12564 M 40.83716 285.57823 L 45.84581 289.62621 L 52.44918 283.64838 L 40.83716 285.57823 M 46.29266 291.21304 L 35.10658 291.46312 L 62.20138 292.04495 L 46.29266 291.21304 M 47.67711 290.14656 L 55.48758 289.74102 L 54.28048 284.16873 L 47.67711 290.14656 M 58.74813 289.93378 L 66.84639 291.17123 L 64.45612 284.87887 L 58.74813 289.93378 M 77.14374 280.57963 L 83.03365 285.29617 L 86.67070 279.01567 L 77.14374 280.57963 M 76.44981 279.03739 L 85.97677 277.47342 L 77.48223 272.95820 L 76.44981 279.03739 M 87.93552 276.12844 L 92.11981 268.27751 L 79.44098 271.61322 L 87.93552 276.12844 M 88.96606 280.09168 L 85.32901 286.37218 L 95.50663 289.18770 L 88.96606 280.09168 M 76.67060 261.63806 L 77.20801 269.15870 L 83.28796 260.67722 L 76.67060 261.63806 M 76.86191 259.63559 L 83.47927 258.67475 L 78.73846 253.13894 L 76.86191 259.63559 M 80.18389 251.50652 L 84.92469 257.04233 L 88.42531 246.57621 L 80.18389 251.50652 M 103.10757 257.36086 L 100.63212 265.80114 L 140.87976 268.09354 L 103.10757 257.36086 M 161.59052 265.46860 L 197.85700 254.39007 L 192.27950 245.14748 L 161.59052 265.46860 M 206.49587 259.59830 L 206.63345 285.64257 L 224.98639 271.84756 L 206.49587 259.59830 M 210.74276 254.98154 L 229.23328 267.23081 L 240.60853 248.70852 L 210.74276 254.98154 M 207.97779 246.41006 L 208.08582 252.37895 L 237.95159 246.10593 L 207.97779 246.41006 M 222.85370 192.18776 L 209.82378 238.88616 L 239.79758 238.58203 L 222.85370 192.18776 M 228.35338 191.23407 L 245.29726 237.62834 L 253.82123 231.25666 L 228.35338 191.23407 M 234.78976 184.50050 L 274.71376 212.71295 L 282.33220 195.56993 L 234.78976 184.50050 M 155.78418 156.02409 L 148.68120 161.24480 L 153.10084 165.19965 L 155.78418 156.02409 M 141.35199 105.15474 L 157.53802 119.71397 L 162.56188 113.19231 L 141.35199 105.15474 M 121.93448 78.21795 L 133.88005 96.41928 L 130.91793 76.06925 L 121.93448 78.21795 M 119.68775 79.72020 L 112.94407 88.08725 L 131.63331 97.92153 L 119.68775 79.72020 M 113.62263 74.99058 L 83.11236 60.08459 L 106.87895 83.35763 L 113.62263 74.99058 M 84.59006 52.03462 L 118.52922 46.88100 L 115.27163 39.01747 L 84.59006 52.03462 M 67.17579 60.31656 L 33.97852 77.28785 L 43.09394 83.14810 L 67.17579 60.31656 M 27.21456 77.34350 L 24.98031 56.41781 L 24.41379 87.54770 L 27.21456 77.34350 M 25.19659 96.46930 L 24.38660 110.20833 L 34.85347 103.84734 L 25.19659 96.46930 M 30.47208 32.92327 L 24.40058 37.53030 L 25.34079 45.92474 L 30.47208 32.92327 M 103.00234 28.58773 L 44.72625 32.29975 L 75.02647 49.25562 L 103.00234 28.58773 M 111.71403 29.15040 L 83.73816 49.81829 L 114.41973 36.80115 L 111.71403 29.15040 M 125.68617 26.45596 L 116.95753 26.23011 L 119.66323 33.88085 L 125.68617 26.45596 M 257.55164 44.92436 L 249.39646 43.17311 L 246.63421 51.33858 L 257.55164 44.92436 M 267.93775 75.39902 L 260.17258 79.60838 L 266.12279 81.38659 L 267.93775 75.39902 M 264.81088 83.01164 L 258.86067 81.23343 L 257.44247 88.39945 L 264.81088 83.01164 M 265.67404 84.06735 L 258.30563 89.45516 L 265.76599 89.67911 L 265.67404 84.06735 M 307.44648 123.90739 L 284.88630 103.28611 L 275.02674 114.16489 L 307.44648 123.90739 M 308.60127 130.86584 L 276.18154 121.12335 L 294.12467 158.95378 L 308.60127 130.86584 M 376.59236 152.06555 L 380.99063 148.30302 L 375.15207 142.25799 L 376.59236 152.06555 M 389.78716 154.33058 L 392.26520 148.21256 L 384.35818 149.21631 L 389.78716 154.33058 M 397.80512 165.69359 L 390.74967 157.87779 L 387.48086 163.66012 L 397.80512 165.69359 M 399.34821 165.04161 L 399.82557 158.44428 L 392.29276 157.22581 L 399.34821 165.04161 M 408.93855 169.04578 L 401.90629 159.92178 L 401.42893 166.51911 L 408.93855 169.04578 M 410.30542 167.83112 L 412.36387 156.80179 L 403.27316 158.70711 L 410.30542 167.83112 M 409.25275 171.14807 L 401.74313 168.62140 L 404.41991 176.74011 L 409.25275 171.14807 M 402.34232 176.80985 L 399.66554 168.69115 L 392.63198 171.70603 L 402.34232 176.80985 M 400.97709 179.81886 L 388.37382 181.16121 L 391.63665 186.31701 L 400.97709 179.81886 M 403.51885 202.23818 L 403.87245 193.47094 L 397.66515 201.04155 L 403.51885 202.23818 M 402.34331 210.75110 L 396.17636 203.68117 L 391.64884 208.71458 L 402.34331 210.75110 M 405.84744 210.65366 L 413.82820 206.73844 L 405.53419 204.78036 L 405.84744 210.65366 M 413.83397 204.64693 L 405.89355 193.92161 L 405.53995 202.68885 L 413.83397 204.64693 M 415.84460 202.76353 L 421.62505 187.62166 L 407.90419 192.03821 L 415.84460 202.76353 M 427.08368 208.96389 L 427.01094 144.00037 L 426.88245 153.98840 L 427.08368 208.96389 M 425.75467 220.00707 L 423.85636 191.11777 L 418.07591 206.25964 L 425.75467 220.00707 M 427.35109 226.19856 L 427.05845 116.32481 L 427.06021 141.73049 L 427.35109 226.19856 M 424.66781 178.72220 L 426.36489 152.63601 L 424.76877 162.07059 L 424.66781 178.72220 M 411.95650 154.63985 L 407.04648 150.53558 L 402.86579 156.54517 L 411.95650 154.63985 M 413.66830 153.25342 L 416.56016 145.45374 L 408.75828 149.14915 L 413.66830 153.25342 M 405.06649 148.30504 L 401.17136 144.13198 L 395.83103 146.97813 L 405.06649 148.30504 M 408.64227 141.92628 L 402.77276 143.50050 L 406.66789 147.67356 L 408.64227 141.92628 M 403.40793 134.53125 L 398.13049 136.83715 L 401.24257 141.47479 L 403.40793 134.53125 M 403.01969 131.98738 L 402.19905 125.96578 L 393.67983 129.45138 L 403.01969 131.98738 M 395.47278 136.28364 L 391.41037 131.44174 L 389.32082 139.58273 L 395.47278 136.28364 M 416.12421 134.87163 L 406.39083 134.08878 L 410.09498 139.45809 L 416.12421 134.87163 M 420.60781 127.71363 L 414.42088 128.10518 L 418.18453 132.90185 L 420.60781 127.71363 M 426.48479 131.25353 L 426.37271 121.44077 L 422.85805 126.79000 L 426.48479 131.25353 M 425.26151 134.44839 L 419.21149 135.17307 L 419.00977 141.81139 L 425.26151 134.44839 M 425.97895 145.75975 L 426.10745 135.77172 L 419.85570 143.13473 L 425.97895 145.75975 M 424.67272 147.92585 L 418.54947 145.30083 L 415.65760 153.10051 L 424.67272 147.92585 M 405.12747 115.76996 L 398.52735 119.18693 L 402.97187 123.02335 L 405.12747 115.76996 M 404.64957 114.15939 L 399.14870 110.13874 L 398.04946 117.57635 L 404.64957 114.15939 M 413.72214 108.39715 L 408.16388 113.92674 L 415.10477 117.22418 L 413.72214 108.39715 M 412.53808 106.72640 L 405.63223 103.85819 L 406.97981 112.25600 L 412.53808 106.72640 M 424.36535 97.08537 L 414.69646 91.14586 L 415.47694 103.62829 L 424.36535 97.08537 M 425.18707 94.28623 L 422.05073 81.23513 L 415.51818 88.34672 L 425.18707 94.28623 M 424.44321 70.46904 L 419.74896 66.02901 L 415.87141 71.19803 L 424.44321 70.46904 M 376.94736 73.18879 L 365.89349 64.28243 L 363.67500 74.47043 L 376.94736 73.18879 M 362.43156 53.53948 L 355.90276 56.50865 L 363.41704 60.10342 L 362.43156 53.53948 M 360.97371 52.27674 L 351.75429 50.00151 L 354.44492 55.24591 L 360.97371 52.27674 M 361.17547 50.90541 L 356.05895 44.27520 L 351.95604 48.63017 L 361.17547 50.90541 M 351.75899 57.57483 L 341.33599 58.18163 L 347.21867 65.05684 L 351.75899 57.57483 M 344.04090 39.93987 L 336.21642 41.92583 L 340.79133 46.14045 L 344.04090 39.93987" fill="none" stroke="black" stroke-width="0.01cm" />
   </g>
</svg>