<?xml version="1.0" standalone="no"?>
  <!DOCTYPE svg PUBLIC "-//W3C//DTD SVG 1.1//EN" 
    "http://www.w3.org/Graphics/SVG/1.1/DTD/svg11.dtd">
  <svg width="12.7cm" height="8.89cm"
       xmlns="http://www.w3.org/2000/svg" version="1.1" viewBox="0 0 449.99999 314.99999">
   <g>
     <path d="M 227.21001 154.61878 L 233.08020 156.82353 L 233.91394 148.53355 L 227.21001 154.61878 M 216.28276 150.66338 L 214.35021 159.28181 L 223.16988 155.12857 L 216.28276 150.66338 M 214.04661 151.00992 L 205.28065 157.90089 L 212.11406 159.62835 L 214.04661 151.00992 M 215.00680 161.09895 L 221.53551 165.20051 L 223.82648 156.94571 L 215.00680 161.09895 M 213.74038 162.79838 L 213.69512 170.54116 L 220.26909 166.89994 L 213.74038 162.79838 M 211.66411 163.28297 L 203.65889 170.77669 L 211.61884 171.02575 L 211.66411 163.28297 M 222.31664 167.49933 L 215.74267 171.14055 L 230.12079 167.59352 L 222.31664 167.49933 M 224.42165 166.11486 L 232.22580 166.20905 L 232.58281 160.06482 L 224.42165 166.11486 M 234.16279 143.94159 L 234.23493 131.46355 L 228.29488 138.65115 L 234.16279 143.94159 M 242.96140 139.86263 L 236.06825 131.61499 L 235.99610 144.09303 L 242.96140 139.86263 M 245.07986 129.01557 L 245.51749 121.77559 L 237.36157 127.93005 L 245.07986 129.01557 M 254.38702 125.16960 L 247.64567 121.43054 L 247.20804 128.67052 L 254.38702 125.16960 M 261.81364 119.80518 L 255.19124 116.38310 L 256.84826 123.62373 L 261.81364 119.80518 M 266.78709 127.72742 L 263.26312 121.22322 L 258.29774 125.04177 L 266.78709 127.72742 M 271.92244 119.64147 L 266.72379 111.16872 L 264.76994 118.78333 L 271.92244 119.64147 M 276.50214 110.00697 L 274.54257 104.27729 L 268.31850 108.48644 L 276.50214 110.00697 M 273.89703 102.70332 L 271.33784 97.41517 L 267.67296 106.91247 L 273.89703 102.70332 M 264.86618 107.57701 L 260.70933 99.75677 L 259.26456 106.34258 L 264.86618 107.57701 M 264.75595 110.55726 L 256.17970 114.74979 L 262.80210 118.17187 L 264.75595 110.55726 M 256.94999 107.51370 L 250.76900 104.93322 L 253.97536 112.94066 L 256.94999 107.51370 M 249.40286 105.32628 L 246.02089 110.65817 L 252.60922 113.33371 L 249.40286 105.32628 M 247.81854 102.55070 L 244.84372 97.42747 L 239.52750 101.58424 L 247.81854 102.55070 M 237.72921 103.91509 L 233.83939 110.74236 L 242.63828 110.21344 L 237.72921 103.91509 M 235.98719 101.16546 L 231.38633 93.46272 L 229.41313 102.74636 L 235.98719 101.16546 M 229.01271 92.21473 L 216.99823 91.18148 L 227.03951 101.49836 L 229.01271 92.21473 M 238.47610 88.03420 L 231.33446 83.52372 L 231.87636 89.86785 L 238.47610 88.03420 M 239.41081 71.77042 L 233.92808 70.06749 L 238.68990 78.04863 L 239.41081 71.77042 M 231.61383 70.57640 L 227.21804 74.52055 L 230.05439 79.87871 L 231.61383 70.57640 M 231.21583 68.69953 L 226.87040 64.86369 L 226.82004 72.64368 L 231.21583 68.69953 M 237.39571 63.29365 L 228.19236 63.69494 L 232.53779 67.53077 L 237.39571 63.29365 M 246.83035 67.61586 L 240.41080 63.99663 L 241.03560 69.93669 L 246.83035 67.61586 M 247.72529 66.45160 L 248.19515 60.62264 L 241.30574 62.83238 L 247.72529 66.45160 M 254.94880 64.30786 L 249.90053 60.80707 L 249.43068 66.63604 L 254.94880 64.30786 M 255.51413 65.92530 L 249.99601 68.25347 L 254.42318 73.74657 L 255.51413 65.92530 M 260.26941 59.18624 L 251.25538 59.87585 L 256.30364 63.37664 L 260.26941 59.18624 M 264.65560 65.45845 L 261.94444 59.88407 L 257.97867 64.07446 L 264.65560 65.45845 M 252.80705 74.41071 L 248.37988 68.91762 L 242.58514 71.23845 L 252.80705 74.41071 M 251.87624 75.63915 L 241.65433 72.46688 L 240.93342 78.74509 L 251.87624 75.63915 M 260.15154 84.69325 L 255.09804 77.70253 L 251.43238 85.08917 L 260.15154 84.69325 M 260.69375 86.89826 L 251.97459 87.29418 L 259.43573 95.34264 L 260.69375 86.89826 M 257.74164 96.38928 L 250.28050 88.34082 L 247.14106 95.27137 L 257.74164 96.38928 M 257.71812 98.11125 L 247.11754 96.99334 L 250.09237 102.11658 L 257.71812 98.11125 M 242.21012 111.99135 L 233.41123 112.52027 L 234.30394 118.13839 L 242.21012 111.99135 M 229.52513 112.08588 L 226.84090 106.83951 L 214.69828 119.38069 L 229.52513 112.08588 M 230.92883 119.25607 L 230.03613 113.63795 L 215.20927 120.93276 L 230.92883 119.25607 M 231.82041 129.03700 L 214.84658 124.52916 L 225.88035 136.22459 L 231.82041 129.03700 M 212.89469 126.54317 L 216.20532 145.14909 L 223.92847 138.23860 L 212.89469 126.54317 M 210.22387 127.16431 L 202.56188 143.20771 L 213.53450 145.77023 L 210.22387 127.16431 M 201.78255 146.85012 L 203.98922 156.30361 L 212.75517 149.41264 L 201.78255 146.85012 M 188.59877 156.42280 L 188.15839 162.54659 L 195.37908 163.57102 L 188.59877 156.42280 M 187.09122 156.93848 L 183.31867 167.69650 L 186.65083 163.06227 L 187.09122 156.93848 M 185.68201 158.04952 L 175.37719 171.95055 L 181.90946 168.80753 L 185.68201 158.04952 M 188.63065 164.37024 L 192.37687 171.01204 L 195.85134 165.39468 L 188.63065 164.37024 M 194.22168 173.84583 L 200.58982 182.08939 L 200.49540 173.17963 L 194.22168 173.84583 M 191.81364 183.77762 L 191.90407 192.34341 L 199.36767 185.32223 L 191.81364 183.77762 M 183.23363 180.10970 L 180.18801 185.34382 L 188.71918 182.42072 L 183.23363 180.10970 M 179.29640 188.38029 L 176.01035 195.83565 L 187.91801 194.02298 L 179.29640 188.38029 M 176.16190 197.86183 L 180.50884 204.58973 L 188.06957 196.04916 L 176.16190 197.86183 M 167.57577 190.18314 L 173.46757 195.35567 L 176.75362 187.90031 L 167.57577 190.18314 M 165.89828 191.60169 L 163.33378 199.24865 L 171.79009 196.77421 L 165.89828 191.60169 M 163.57759 201.79200 L 167.84874 211.94846 L 172.03389 199.31756 L 163.57759 201.79200 M 169.67778 212.55610 L 178.20986 206.65310 L 173.86293 199.92520 L 169.67778 212.55610 M 169.94462 217.07848 L 174.63502 228.01906 L 179.83937 219.26070 L 169.94462 217.07848 M 162.24144 228.37569 L 166.14210 236.13082 L 172.25719 231.14876 L 162.24144 228.37569 M 167.77907 238.91959 L 171.61592 246.04290 L 177.61548 238.58048 L 167.77907 238.91959 M 161.65410 244.77443 L 164.81671 237.83403 L 160.91606 230.07890 L 161.65410 244.77443 M 162.94278 248.71723 L 167.38867 254.49804 L 169.94224 248.90014 L 162.94278 248.71723 M 161.69945 249.75259 L 159.99559 257.18299 L 166.14534 255.53340 L 161.69945 249.75259 M 168.61851 257.07991 L 169.19564 264.28404 L 174.75792 256.57012 L 168.61851 257.07991 M 159.26257 260.13135 L 155.25820 266.13531 L 165.98946 265.68589 L 159.26257 260.13135 M 155.71584 267.62974 L 162.92371 272.08678 L 166.44710 267.18032 L 155.71584 267.62974 M 154.78333 278.95310 L 165.29552 279.74149 L 162.69214 274.74062 L 154.78333 278.95310 M 169.11460 279.61278 L 176.37744 279.44300 L 175.46974 273.09235 L 169.11460 279.61278 M 179.17123 280.75784 L 185.76195 287.37157 L 183.96646 277.16715 L 179.17123 280.75784 M 185.46970 276.94826 L 187.26519 287.15268 L 191.19721 279.00670 L 185.46970 276.94826 M 192.59013 275.70291 L 197.82587 268.24796 L 187.44535 266.11894 L 192.59013 275.70291 M 205.12043 278.30436 L 213.45773 274.24492 L 202.10839 269.43989 L 205.12043 278.30436 M 202.99107 267.38984 L 214.34042 272.19487 L 212.18191 261.90396 L 202.99107 267.38984 M 213.05002 258.42684 L 221.08367 260.55224 L 204.06081 247.73839 L 213.05002 258.42684 M 205.46495 253.07731 L 211.09768 257.49247 L 202.10847 246.80402 L 205.46495 253.07731 M 206.89251 243.33199 L 223.91537 256.14585 L 235.70359 223.17564 L 206.89251 243.33199 M 188.25918 245.73203 L 193.32392 252.73557 L 198.22185 245.45934 L 188.25918 245.73203 M 183.28321 251.46805 L 184.46328 245.90134 L 174.09947 248.25060 L 183.28321 251.46805 M 173.64459 246.72491 L 184.00840 244.37564 L 179.64414 239.26249 L 173.64459 246.72491 M 181.89417 236.83598 L 191.01133 238.39789 L 186.89192 230.86404 L 181.89417 236.83598 M 176.33879 231.30661 L 180.06011 235.94957 L 185.05786 229.97763 L 176.33879 231.30661 M 176.55066 229.39214 L 185.26972 228.06316 L 181.75501 220.63378 L 176.55066 229.39214 M 188.08942 228.90500 L 192.20883 236.43884 L 191.47417 221.16364 L 188.08942 228.90500 M 181.42469 209.03643 L 182.78736 217.12165 L 189.68682 216.80967 L 181.42469 209.03643 M 182.48130 207.81073 L 190.74343 215.58397 L 191.24024 207.31606 L 182.48130 207.81073 M 192.08817 194.71651 L 193.28638 202.76241 L 199.55176 187.69533 L 192.08817 194.71651 M 206.63574 186.40725 L 234.62905 208.13964 L 214.50126 177.74656 L 206.63574 186.40725 M 173.60202 175.57733 L 171.07364 180.66829 L 180.54124 178.82982 L 173.60202 175.57733 M 149.14349 194.71149 L 148.68577 201.62320 L 158.90499 200.13296 L 149.14349 194.71149 M 156.04207 212.03514 L 165.84976 213.53816 L 161.57861 203.38170 L 156.04207 212.03514 M 127.62069 197.86715 L 135.54943 199.29109 L 144.20786 194.20061 L 127.62069 197.86715 M 110.05898 200.56498 L 112.37765 232.78662 L 121.25173 202.29603 L 110.05898 200.56498 M 88.05498 200.13640 L 95.58092 197.21011 L 84.15169 191.94590 L 88.05498 200.13640 M 81.93449 192.42574 L 77.84332 201.04883 L 85.83778 200.61624 L 81.93449 192.42574 M 71.07560 190.63960 L 64.78884 192.85566 L 74.29800 199.98808 L 71.07560 190.63960 M 65.08637 195.30415 L 73.45583 210.22753 L 74.59553 202.43657 L 65.08637 195.30415 M 61.44271 180.29730 L 63.18193 190.39431 L 69.46869 188.17825 L 61.44271 180.29730 M 39.42197 180.52665 L 55.96181 177.76060 L 43.90055 175.21556 L 39.42197 180.52665 M 39.25112 186.29971 L 40.79452 211.30304 L 57.53018 193.63067 L 39.25112 186.29971 M 27.82712 188.35258 L 37.08164 210.64328 L 35.53824 185.63995 L 27.82712 188.35258 M 27.63676 178.37383 L 26.64651 184.31890 L 34.35763 181.60627 L 27.63676 178.37383 M 23.10524 173.65758 L 22.88704 234.48574 L 24.86850 189.67037 L 23.10524 173.65758 M 31.20481 170.74515 L 36.32735 179.64972 L 40.80593 174.33863 L 31.20481 170.74515 M 31.36403 169.15991 L 40.96514 172.75339 L 37.60109 166.96779 L 31.36403 169.15991 M 39.86625 165.32942 L 47.87592 166.18665 L 44.83963 160.98132 L 39.86625 165.32942 M 32.50504 157.97842 L 37.94489 164.30339 L 42.91827 159.95529 L 32.50504 157.97842 M 32.94436 156.57944 L 43.35759 158.55631 L 41.45944 153.11161 L 32.94436 156.57944 M 25.82391 151.53409 L 23.89557 160.77184 L 29.04463 156.65033 L 25.82391 151.53409 M 27.30192 149.57679 L 30.52264 154.69304 L 35.71966 145.11347 L 27.30192 149.57679 M 24.62662 138.30531 L 23.34332 158.47871 L 25.27166 149.24096 L 24.62662 138.30531 M 24.33860 134.75847 L 22.96752 120.86619 L 23.05530 154.93187 L 24.33860 134.75847 M 32.73255 128.44265 L 37.11840 133.47650 L 41.47476 128.74379 L 32.73255 128.44265 M 34.47166 121.25965 L 32.40171 126.91554 L 41.14392 127.21668 L 34.47166 121.25965 M 24.31249 122.51991 L 23.12467 116.81469 L 24.49575 130.70697 L 24.31249 122.51991 M 39.12999 144.20287 L 42.44805 150.31461 L 46.06944 145.75985 L 39.12999 144.20287 M 47.85556 145.20958 L 50.72793 150.53062 L 46.92516 139.03436 L 47.85556 145.20958 M 45.52347 138.05178 L 39.51441 142.67002 L 46.45387 144.22700 L 45.52347 138.05178 M 58.00414 148.55077 L 106.06529 129.37082 L 54.20137 137.05451 L 58.00414 148.55077 M 61.57538 153.90217 L 82.77125 179.86566 L 109.63653 134.72221 L 61.57538 153.90217 M 52.29537 156.82465 L 50.73605 166.70840 L 58.15169 174.18180 L 52.29537 156.82465 M 50.80224 155.01340 L 46.20663 159.69181 L 49.24292 164.89715 L 50.80224 155.01340 M 56.80413 111.51772 L 109.50362 118.24892 L 86.34633 73.99049 L 56.80413 111.51772 M 34.35261 92.38610 L 39.73831 52.28339 L 25.93385 104.75276 L 34.35261 92.38610 M 52.74952 38.85429 L 88.60173 41.12810 L 88.78561 35.14889 L 52.74952 38.85429 M 87.93158 43.98224 L 52.07938 41.70844 L 83.42447 57.98205 L 87.93158 43.98224 M 93.19083 45.65787 L 88.68372 59.65768 L 94.15338 55.11346 L 93.19083 45.65787 M 94.83883 44.38932 L 95.80138 53.84490 L 101.86770 49.50923 L 94.83883 44.38932 M 101.09785 40.63599 L 95.50089 42.73820 L 102.52976 47.85812 L 101.09785 40.63599 M 103.18260 40.87815 L 104.61451 48.10027 L 112.17888 44.67545 L 103.18260 40.87815 M 113.39526 46.27801 L 105.83089 49.70284 L 112.91367 53.69866 L 113.39526 46.27801 M 123.55915 39.46545 L 116.48919 44.66292 L 123.03080 49.40026 L 123.55915 39.46545 M 134.25283 38.08562 L 126.68480 38.14675 L 133.39796 44.10930 L 134.25283 38.08562 M 136.24527 38.69930 L 135.39040 44.72298 L 142.62429 43.05618 L 136.24527 38.69930 M 134.65660 47.50502 L 132.96126 53.11945 L 139.30413 53.67438 L 134.65660 47.50502 M 143.16609 44.79804 L 135.93221 46.46485 L 140.57973 52.63420 L 143.16609 44.79804 M 152.22105 40.92242 L 146.07955 44.04710 L 150.51202 51.41815 L 152.22105 40.92242 M 156.87302 41.63819 L 155.16400 52.13392 L 183.29534 49.77331 L 156.87302 41.63819 M 162.73519 29.82109 L 157.81942 38.84909 L 184.24174 46.98420 L 162.73519 29.82109 M 154.83383 25.89279 L 126.86434 23.81633 L 144.08454 26.66229 L 154.83383 25.89279 M 144.00967 29.80872 L 137.32267 36.83501 L 143.70169 41.19189 L 144.00967 29.80872 M 142.80641 28.33177 L 134.07558 29.37630 L 136.11941 35.35806 L 142.80641 28.33177 M 130.27064 29.83216 L 119.93488 31.91752 L 124.74643 35.87506 L 130.27064 29.83216 M 129.84704 28.41310 L 121.35767 24.52261 L 119.51129 30.49847 L 129.84704 28.41310 M 119.31765 23.91315 L 113.52685 23.53746 L 117.47126 29.88901 L 119.31765 23.91315 M 112.45834 24.52226 L 110.76958 31.79156 L 116.40275 30.87381 L 112.45834 24.52226 M 110.62986 23.71518 L 101.77489 24.41713 L 108.94110 30.98447 L 110.62986 23.71518 M 108.75873 22.72939 L 93.97209 23.09814 L 99.90377 23.43134 L 108.75873 22.72939 M 99.95727 25.53603 L 96.08889 32.66633 L 107.12348 32.10336 L 99.95727 25.53603 M 98.08615 24.55024 L 92.15447 24.21703 L 94.21777 31.68054 L 98.08615 24.55024 M 86.45383 25.76499 L 52.48103 36.93390 L 88.51713 33.22850 L 86.45383 25.76499 M 150.25329 54.87102 L 143.23446 55.33614 L 152.73759 60.70927 L 150.25329 54.87102 M 183.40609 52.10673 L 155.27475 54.46735 L 157.75904 60.30560 L 183.40609 52.10673 M 186.55846 55.42263 L 160.91141 63.62149 L 180.49368 80.99452 L 186.55846 55.42263 M 219.36230 64.34488 L 194.74464 55.52064 L 195.71836 81.15328 L 219.36230 64.34488 M 226.47804 54.21390 L 198.58960 52.15322 L 223.20726 60.97746 L 226.47804 54.21390 M 229.47635 43.24639 L 226.97858 32.21465 L 199.34178 47.73874 L 229.47635 43.24639 M 241.77329 53.78930 L 233.02642 54.36825 L 238.95899 60.73052 L 241.77329 53.78930 M 243.60501 54.38252 L 240.79070 61.32374 L 247.68012 59.11400 L 243.60501 54.38252 M 253.66396 41.97389 L 246.66953 43.33224 L 251.35135 48.61773 L 253.66396 41.97389 M 253.49887 40.02827 L 250.03066 33.05277 L 246.50444 41.38662 L 253.49887 40.02827 M 263.45669 40.20753 L 256.70946 41.53772 L 261.97372 47.81691 L 263.45669 40.20753 M 265.52157 29.83341 L 256.77497 24.16284 L 252.50769 30.00625 L 265.52157 29.83341 M 266.51476 23.75631 L 268.99757 29.21617 L 274.05192 24.85758 L 266.51476 23.75631 M 270.99125 22.77790 L 318.61043 22.70081 L 264.72746 22.56718 L 270.99125 22.77790 M 275.58606 25.88783 L 270.53172 30.24642 L 278.78790 31.99835 L 275.58606 25.88783 M 276.34823 24.22735 L 287.36804 24.17438 L 268.81107 23.12609 L 276.34823 24.22735 M 277.88237 25.25761 L 281.08421 31.36813 L 288.90218 25.20464 L 277.88237 25.25761 M 278.83185 34.66182 L 267.77723 38.72804 L 278.73615 41.37737 L 278.83185 34.66182 M 281.70667 34.29143 L 281.61096 41.00699 L 290.77573 35.76499 L 281.70667 34.29143 M 278.14210 43.03347 L 267.18318 40.38413 L 274.07947 47.91056 L 278.14210 43.03347 M 272.30205 48.61914 L 265.40576 41.09271 L 263.92279 48.70209 L 272.30205 48.61914 M 275.85688 50.95441 L 273.16959 56.64575 L 288.15241 54.16652 L 275.85688 50.95441 M 286.65335 45.16539 L 280.57587 43.63112 L 276.51324 48.50822 L 286.65335 45.16539 M 299.40612 31.40840 L 294.82725 35.01799 L 300.37521 37.16704 L 299.40612 31.40840 M 298.43483 30.01038 L 292.60487 25.98293 L 293.85596 33.61998 L 298.43483 30.01038 M 290.65517 26.28808 L 282.83719 32.45157 L 291.90625 33.92512 L 290.65517 26.28808 M 290.53709 24.09897 L 301.70059 23.62402 L 271.98012 23.05067 L 290.53709 24.09897 M 305.18444 24.34913 L 294.02093 24.82407 L 299.85089 28.85153 L 305.18444 24.34913 M 307.98489 33.47918 L 306.92994 25.43101 L 301.59638 29.93341 L 307.98489 33.47918 M 307.36139 34.94505 L 300.97289 31.39928 L 301.94198 37.15792 L 307.36139 34.94505 M 317.20838 28.10588 L 311.15789 34.57259 L 319.87496 37.09920 L 317.20838 28.10588 M 318.21862 25.35254 L 329.01189 23.12064 L 311.11318 23.77108 L 318.21862 25.35254 M 327.96952 32.20764 L 319.30983 27.81026 L 321.97641 36.80358 L 327.96952 32.20764 M 329.29734 33.93365 L 323.30424 38.52959 L 329.93244 41.61830 L 329.29734 33.93365 M 320.99858 40.68170 L 316.91616 45.78347 L 321.56266 49.13743 L 320.99858 40.68170 M 315.57306 47.67010 L 310.25376 55.77472 L 320.21956 51.02406 L 315.57306 47.67010 M 313.73103 47.28712 L 305.48333 47.96017 L 308.41173 55.39173 L 313.73103 47.28712 M 320.87406 52.42038 L 310.90826 57.17104 L 320.80908 58.84068 L 320.87406 52.42038 M 323.99742 52.16269 L 323.93244 58.58299 L 335.89519 55.10953 L 323.99742 52.16269 M 321.42239 61.82646 L 314.28039 67.78611 L 323.02174 68.67737 L 321.42239 61.82646 M 333.72766 68.87191 L 323.85330 61.96219 L 325.45265 68.81310 L 333.72766 68.87191 M 334.34506 71.10794 L 326.07006 71.04912 L 328.79256 79.85040 L 334.34506 71.10794 M 327.26516 80.62660 L 324.54266 71.82533 L 322.12586 77.31756 L 327.26516 80.62660 M 326.91230 82.21801 L 321.77300 78.90897 L 321.71977 84.55659 L 326.91230 82.21801 M 320.25394 87.69002 L 313.68953 91.35989 L 321.80328 97.96796 L 320.25394 87.69002 M 319.27549 76.75038 L 312.95093 70.36688 L 313.20354 76.98043 L 319.27549 76.75038 M 309.87820 77.00037 L 309.62560 70.38682 L 292.67282 76.90989 L 309.87820 77.00037 M 309.83634 79.24337 L 292.63095 79.15288 L 309.29065 88.33081 L 309.83634 79.24337 M 308.12271 90.70486 L 291.46301 81.52693 L 300.49283 98.23577 L 308.12271 90.70486 M 311.00786 103.04013 L 310.56582 93.39401 L 302.93593 100.92492 L 311.00786 103.04013 M 308.78628 111.52038 L 310.78542 105.30593 L 302.71349 103.19072 L 308.78628 111.52038 M 306.94917 112.37606 L 300.87638 104.04639 L 296.08857 112.15135 L 306.94917 112.37606 M 306.61576 114.50085 L 295.75515 114.27614 L 298.20907 121.04467 L 306.61576 114.50085 M 316.79905 122.07036 L 312.55684 128.65792 L 319.40841 128.51416 L 316.79905 122.07036 M 321.32042 127.64603 L 327.85292 121.71287 L 318.71107 121.20223 L 321.32042 127.64603 M 311.41766 127.07632 L 315.65988 120.48876 L 310.29502 115.86132 L 311.41766 127.07632 M 308.38681 129.24062 L 298.85748 124.56944 L 299.81976 131.25934 L 308.38681 129.24062 M 305.16495 138.06665 L 309.17525 130.92777 L 300.60819 132.94649 L 305.16495 138.06665 M 303.50660 139.60144 L 298.94985 134.48127 L 295.90846 143.20601 L 303.50660 139.60144 M 311.36931 142.56487 L 310.52039 132.13007 L 306.51009 139.26895 L 311.36931 142.56487 M 310.53488 144.73817 L 305.67566 141.44225 L 303.84492 149.51643 L 310.53488 144.73817 M 311.47780 156.17163 L 303.96649 152.84428 L 305.82689 159.95946 L 311.47780 156.17163 M 303.94473 160.56047 L 302.08433 153.44529 L 296.42050 160.97969 L 303.94473 160.56047 M 294.83846 160.05569 L 300.50229 152.52129 L 291.28846 153.16850 L 294.83846 160.05569 M 292.89410 160.73312 L 289.34409 153.84594 L 284.94735 157.94077 L 292.89410 160.73312 M 286.75393 164.64146 L 292.57033 162.08256 L 284.62358 159.29021 L 286.75393 164.64146 M 283.57069 156.75028 L 287.96742 152.65545 L 281.88075 151.20927 L 283.57069 156.75028 M 281.99757 156.97853 L 280.30763 151.43752 L 275.38249 154.48146 L 281.99757 156.97853 M 273.92168 152.95744 L 278.84682 149.91349 L 270.31111 144.78635 L 273.92168 152.95744 M 289.08788 151.33951 L 292.53431 146.22269 L 283.00120 149.89332 L 289.08788 151.33951 M 292.40447 144.76271 L 288.04922 139.65960 L 282.87137 148.43333 L 292.40447 144.76271 M 300.48750 150.80644 L 294.72009 146.33683 L 291.27366 151.45365 L 300.48750 150.80644 M 295.97716 132.53443 L 284.08037 129.12982 L 288.58052 136.15607 L 295.97716 132.53443 M 286.33150 119.74588 L 283.67896 126.24231 L 294.61347 122.95702 L 286.33150 119.74588 M 283.58564 117.88898 L 278.28235 112.76753 L 275.29735 119.71974 L 283.58564 117.88898 M 286.27481 106.54540 L 279.65453 111.12073 L 284.95782 116.24219 L 286.27481 106.54540 M 285.23726 104.99524 L 276.65742 103.84089 L 278.61698 109.57057 L 285.23726 104.99524 M 293.89261 111.24220 L 298.68043 103.13724 L 289.38155 105.10279 L 293.89261 111.24220 M 289.04462 82.88357 L 288.77555 101.55796 L 298.07443 99.59241 L 289.04462 82.88357 M 283.59595 80.35689 L 265.62414 85.82147 L 272.18785 92.58879 L 283.59595 80.35689 M 283.04605 77.47185 L 267.78862 69.50842 L 265.07424 82.93642 L 283.04605 77.47185 M 306.04974 56.21554 L 303.12134 48.78397 L 294.83514 53.87756 L 306.04974 56.21554 M 336.77078 53.42563 L 330.93713 45.11176 L 324.87301 50.47879 L 336.77078 53.42563 M 337.29653 57.01382 L 325.33378 60.48728 L 335.20814 67.39700 L 337.29653 57.01382 M 348.50144 68.23369 L 353.31616 62.18595 L 341.88272 57.29553 L 348.50144 68.23369 M 346.45039 71.61789 L 337.74327 71.06291 L 338.99612 78.87634 L 346.45039 71.61789 M 358.76159 68.81160 L 355.42601 63.62546 L 350.61130 69.67320 L 358.76159 68.81160 M 359.74404 66.86125 L 358.47090 54.07038 L 356.40846 61.67511 L 359.74404 66.86125 M 366.34535 70.88564 L 359.71301 55.22170 L 360.98615 68.01256 L 366.34535 70.88564 M 358.06858 77.52344 L 359.09191 70.54885 L 350.94162 71.41045 L 358.06858 77.52344 M 357.09378 78.99861 L 349.96682 72.88562 L 351.29349 82.35019 L 357.09378 78.99861 M 358.72271 80.75547 L 352.92242 84.10705 L 362.99830 86.94048 L 358.72271 80.75547 M 352.24548 85.54718 L 353.30718 92.27652 L 362.32136 88.38061 L 352.24548 85.54718 M 349.72451 94.05446 L 341.40205 91.94995 L 340.92075 97.97930 L 349.72451 94.05446 M 348.00398 104.55247 L 340.22099 100.93283 L 336.82474 108.03367 L 348.00398 104.55247 M 338.78727 98.22797 L 339.26858 92.19861 L 332.65668 96.04376 L 338.78727 98.22797 M 338.14797 90.49415 L 329.82244 84.59222 L 331.53607 94.33929 L 338.14797 90.49415 M 338.87536 88.96899 L 337.35518 82.13804 L 330.54983 83.06706 L 338.87536 88.96899 M 329.08447 95.63260 L 322.17830 88.22411 L 323.72765 98.50205 L 329.08447 95.63260 M 328.25740 119.72516 L 324.55623 111.74440 L 319.11554 119.21453 L 328.25740 119.72516 M 346.74604 124.46317 L 343.01405 119.83088 L 341.18074 126.53299 L 346.74604 124.46317 M 356.06284 126.51081 L 352.54537 117.42852 L 349.45864 124.19378 L 356.06284 126.51081 M 355.50862 129.33397 L 348.90442 127.01694 L 348.11161 140.01385 L 355.50862 129.33397 M 346.37311 139.97854 L 347.16592 126.98163 L 341.60063 129.05145 L 346.37311 139.97854 M 356.84692 158.00637 L 362.93904 154.96007 L 349.81971 146.30446 L 356.84692 158.00637 M 351.84000 167.19902 L 355.05961 161.39985 L 344.83302 164.60683 L 351.84000 167.19902 M 359.49936 171.90698 L 363.20943 166.28165 L 354.37513 168.55257 L 359.49936 171.90698 M 354.70941 180.26998 L 352.07190 171.03541 L 347.27030 180.26428 L 354.70941 180.26998 M 345.89251 178.57474 L 350.69412 169.34588 L 343.68714 166.75369 L 345.89251 178.57474 M 342.84187 181.35509 L 335.93817 173.62835 L 330.98732 187.49433 L 342.84187 181.35509 M 332.22926 170.84681 L 321.21791 168.73075 L 319.23105 175.08474 L 332.22926 170.84681 M 333.23090 169.48241 L 327.24417 164.16955 L 322.21955 167.36635 L 333.23090 169.48241 M 334.01450 159.92881 L 328.71854 163.23986 L 334.70527 168.55271 L 334.01450 159.92881 M 319.71575 165.11557 L 322.82450 156.26982 L 315.11634 157.12515 L 319.71575 165.11557 M 311.27122 167.56561 L 318.27159 166.52754 L 313.67218 158.53712 L 311.27122 167.56561 M 316.65795 174.93074 L 318.64481 168.57675 L 311.64444 169.61482 L 316.65795 174.93074 M 305.43019 176.44193 L 315.00612 175.91389 L 309.99261 170.59797 L 305.43019 176.44193 M 303.68991 175.64652 L 308.25233 169.80255 L 301.08386 169.55056 L 303.68991 175.64652 M 301.85737 176.19275 L 299.25132 170.09679 L 293.59204 174.17245 L 301.85737 176.19275 M 292.70464 172.64882 L 298.36393 168.57316 L 294.75822 164.00371 L 292.70464 172.64882 M 290.96185 186.62503 L 290.13044 175.81386 L 278.99247 174.43724 L 290.96185 186.62503 M 293.73376 187.11031 L 301.16768 178.31944 L 292.90234 176.29914 L 293.73376 187.11031 M 309.16741 183.57889 L 314.90297 177.53651 L 305.32704 178.06455 L 309.16741 183.57889 M 328.14419 186.99593 L 333.09504 173.12995 L 320.09684 177.36789 L 328.14419 186.99593 M 326.66928 203.88185 L 341.68326 185.13678 L 329.82871 191.27602 L 326.66928 203.88185 M 323.41628 206.13055 L 326.57570 193.52472 L 315.65925 203.12641 L 323.41628 206.13055 M 315.76740 217.64308 L 320.35197 222.61319 L 322.73677 210.97557 L 315.76740 217.64308 M 307.86885 225.00103 L 318.49348 224.36637 L 313.90891 219.39626 L 307.86885 225.00103 M 306.24458 224.09335 L 312.28465 218.48858 L 305.49938 217.10494 L 306.24458 224.09335 M 298.73012 221.61663 L 304.55027 224.48436 L 303.80506 217.49595 L 298.73012 221.61663 M 294.04154 227.87246 L 296.50335 221.42548 L 294.27290 212.38749 L 294.04154 227.87246 M 295.19162 229.57327 L 303.47359 225.99402 L 297.65344 223.12630 L 295.19162 229.57327 M 295.77399 231.32502 L 302.31237 237.14026 L 304.05596 227.74577 L 295.77399 231.32502 M 288.47452 227.25151 L 288.70588 211.76654 L 251.96721 216.45789 L 288.47452 227.25151 M 283.02071 241.25471 L 287.76387 230.93753 L 251.25656 220.14391 L 283.02071 241.25471 M 288.73142 244.39228 L 296.94224 245.24442 L 293.47458 234.07509 L 288.73142 244.39228 M 273.25482 257.31517 L 282.90031 255.37780 L 284.92456 248.10044 L 273.25482 257.31517 M 280.97250 265.06904 L 282.40631 257.49887 L 272.76081 259.43625 L 280.97250 265.06904 M 282.87939 275.40361 L 281.31346 268.57054 L 275.35634 273.04500 L 282.87939 275.40361 M 291.78577 279.37655 L 292.97528 273.26065 L 286.00064 276.62824 L 291.78577 279.37655 M 293.68379 279.59677 L 301.18487 278.39005 L 294.87331 273.48088 L 293.68379 279.59677 M 302.56100 277.42264 L 304.69284 271.85751 L 296.24944 272.51347 L 302.56100 277.42264 M 306.36352 278.70521 L 326.66963 282.77406 L 308.49537 273.14009 L 306.36352 278.70521 M 306.13182 267.90690 L 309.32524 254.32006 L 302.43597 260.06049 L 306.13182 267.90690 M 308.21002 267.52245 L 319.06158 256.98493 L 311.40344 253.93562 L 308.21002 267.52245 M 311.64163 250.41014 L 316.97334 248.16896 L 312.44196 244.60916 L 311.64163 250.41014 M 318.37224 247.35014 L 322.83283 243.85955 L 313.84086 243.79033 L 318.37224 247.35014 M 311.15056 241.90612 L 312.07993 235.11683 L 304.91243 239.13495 L 311.15056 241.90612 M 309.68795 243.24501 L 303.44983 240.47383 L 300.37911 245.82791 L 309.68795 243.24501 M 340.94011 253.78354 L 359.20047 260.97266 L 360.10168 232.48281 L 340.94011 253.78354 M 363.75747 261.80950 L 377.39608 260.47832 L 364.65867 233.31965 L 363.75747 261.80950 M 370.89169 269.37145 L 378.17520 264.98480 L 364.53660 266.31598 L 370.89169 269.37145 M 364.26156 275.17236 L 369.15248 270.64490 L 362.79739 267.58943 L 364.26156 275.17236 M 370.55412 281.96931 L 370.12208 272.44239 L 365.23115 276.96985 L 370.55412 281.96931 M 372.27415 281.50603 L 378.99142 273.26361 L 371.84211 271.97911 L 372.27415 281.50603 M 374.01676 292.09619 L 390.49737 291.23506 L 379.68825 290.99116 L 374.01676 292.09619 M 381.09962 290.12203 L 391.90874 290.36593 L 385.30772 285.14308 L 381.09962 290.12203 M 385.52637 281.30565 L 392.24529 272.63664 L 382.73091 273.31440 L 385.52637 281.30565 M 379.97020 271.27595 L 380.10441 265.60479 L 372.82089 269.99145 L 379.97020 271.27595 M 381.89276 270.39507 L 388.20134 262.94439 L 382.02696 264.72391 L 381.89276 270.39507 M 386.40089 258.25441 L 367.48910 232.87527 L 380.22650 260.03394 L 386.40089 258.25441 M 388.82284 255.61554 L 399.60215 238.92298 L 369.91106 230.23640 L 388.82284 255.61554 M 398.22506 261.31363 L 401.38945 253.17628 L 392.16743 260.65227 L 398.22506 261.31363 M 397.36560 263.34918 L 391.30797 262.68783 L 394.51377 269.46075 L 397.36560 263.34918 M 398.83507 282.11717 L 420.50079 286.36229 L 397.92069 274.17658 L 398.83507 282.11717 M 397.78594 290.05298 L 420.48394 288.34684 L 398.81822 284.10172 L 397.78594 290.05298 M 393.60037 289.55059 L 394.63265 283.59934 L 386.99935 284.32774 L 393.60037 289.55059 M 420.77756 284.35484 L 401.04929 266.05756 L 398.19747 272.16912 L 420.77756 284.35484 M 423.69013 282.18563 L 421.49799 254.81546 L 403.96186 263.88835 L 423.69013 282.18563 M 424.37336 251.64059 L 426.56550 279.01076 L 426.96486 238.48939 L 424.37336 251.64059 M 419.13172 251.03909 L 404.75999 251.97463 L 401.59559 260.11198 L 419.13172 251.03909 M 420.89530 246.79389 L 414.14693 235.36694 L 408.08085 238.51286 L 420.89530 246.79389 M 423.09615 246.09815 L 425.68765 232.94694 L 416.34778 234.67120 L 423.09615 246.09815 M 416.09454 231.73545 L 425.43441 230.01118 L 421.07026 222.61209 L 416.09454 231.73545 M 414.44449 230.81530 L 419.42021 221.69194 L 412.23401 222.64999 L 414.44449 230.81530 M 406.14005 227.11298 L 410.22355 221.62167 L 409.63048 216.13936 L 406.14005 227.11298 M 406.21766 236.49844 L 412.28373 233.35252 L 405.98976 230.67853 L 406.21766 236.49844 M 420.64831 213.61407 L 424.86236 171.67460 L 412.86905 209.08980 L 420.64831 213.61407 M 407.63931 205.63657 L 419.63263 168.22136 L 378.81045 185.98819 L 407.63931 205.63657 M 415.40301 164.43268 L 373.80235 175.32710 L 374.58083 182.19950 L 415.40301 164.43268 M 424.30411 149.30737 L 416.99232 109.75081 L 411.50081 111.64798 L 424.30411 149.30737 M 425.94760 148.87495 L 424.64866 108.18867 L 418.63580 109.31840 L 425.94760 148.87495 M 426.85799 147.79207 L 425.91893 100.65535 L 425.55905 107.10579 L 426.85799 147.79207 M 426.95772 145.91229 L 426.35692 92.06753 L 426.01867 98.77557 L 426.95772 145.91229 M 427.08790 142.42194 L 427.06013 70.85281 L 426.48710 88.57719 L 427.08790 142.42194 M 424.51451 101.45486 L 424.87439 95.00441 L 418.50165 102.58458 L 424.51451 101.45486 M 424.57787 81.80323 L 422.60209 73.23812 L 414.36288 79.07101 L 424.57787 81.80323 M 410.89381 81.38965 L 404.33676 84.04698 L 411.62156 91.86219 L 410.89381 81.38965 M 400.61205 80.09773 L 395.20561 57.63369 L 393.78743 80.07487 L 400.61205 80.09773 M 391.67928 80.04508 L 393.09745 57.60390 L 383.74681 79.85939 L 391.67928 80.04508 M 378.95729 82.02668 L 369.70373 75.39178 L 371.96728 81.76281 L 378.95729 82.02668 M 383.08713 90.07159 L 381.08592 84.80400 L 377.74160 92.07889 L 383.08713 90.07159 M 376.45714 91.28869 L 379.80146 84.01380 L 372.81146 83.74992 L 376.45714 91.28869 M 374.83421 91.81035 L 371.18853 84.27158 L 366.81803 88.18708 L 374.83421 91.81035 M 368.84512 95.18510 L 374.54128 93.17454 L 366.52511 89.55127 L 368.84512 95.18510 M 367.19393 95.72846 L 364.87392 90.09464 L 361.33179 97.52145 L 367.19393 95.72846 M 363.25475 89.84636 L 354.24057 93.74227 L 359.71262 97.27318 L 363.25475 89.84636 M 369.43256 82.87040 L 360.78648 80.60089 L 365.06207 86.78590 L 369.43256 82.87040 M 379.29246 99.31237 L 382.86295 91.88513 L 377.51741 93.89244 L 379.29246 99.31237 M 379.06127 104.07599 L 372.56163 115.03710 L 385.73809 113.61305 L 379.06127 104.07599 M 389.09966 97.26034 L 384.31073 92.30612 L 380.74024 99.73336 L 389.09966 97.26034 M 390.45705 95.47332 L 391.59938 85.43721 L 385.66812 90.51910 L 390.45705 95.47332 M 399.83074 92.34549 L 393.36970 85.66551 L 392.22738 95.70162 L 399.83074 92.34549 M 401.77312 95.50717 L 396.37230 104.71193 L 406.70625 105.11031 L 401.77312 95.50717 M 395.04573 106.90710 L 391.16059 113.06854 L 405.37969 107.30548 L 395.04573 106.90710 M 390.14554 123.42760 L 374.12202 152.12014 L 417.16794 155.32392 L 390.14554 123.42760 M 360.21411 102.26796 L 354.96098 113.69617 L 367.04782 114.84544 L 360.21411 102.26796 M 356.36104 52.63087 L 342.86517 55.34517 L 354.29861 60.23560 L 356.36104 52.63087 M 356.06180 49.64072 L 351.90468 36.31442 L 342.56593 52.35503 L 356.06180 49.64072 M 352.87091 30.35642 L 368.12677 24.60457 L 339.19698 23.76924 L 352.87091 30.35642 M 389.01095 48.48082 L 374.87316 29.35931 L 363.77441 48.43747 L 389.01095 48.48082 M 394.20794 45.66241 L 405.35037 25.89015 L 380.07015 26.54089 L 394.20794 45.66241 M 390.64230 56.62953 L 372.03811 72.25012 L 381.29166 78.88502 L 390.64230 56.62953 M 420.97488 67.87654 L 423.52369 58.71726 L 400.77217 53.90271 L 420.97488 67.87654 M 423.87900 54.87668 L 423.81733 37.15186 L 401.12748 50.06213 L 423.87900 54.87668 M 322.51809 144.94104 L 314.54262 145.48452 L 323.07212 152.73481 L 322.51809 144.94104 M 277.66329 136.55146 L 280.07059 128.87621 L 270.80631 129.85661 L 277.66329 136.55146 M 255.44815 154.52039 L 265.74242 143.93974 L 256.20211 140.73110 L 255.44815 154.52039 M 253.08468 154.27538 L 253.83864 140.48609 L 246.83462 141.97968 L 253.08468 154.27538 M 276.24493 169.26821 L 281.48973 159.20737 L 274.87465 156.71030 L 276.24493 169.26821 M 278.33616 172.02333 L 289.47412 173.39995 L 285.71131 167.31374 L 278.33616 172.02333 M 295.76807 206.50532 L 309.07108 203.13461 L 294.93033 193.22379 L 295.76807 206.50532 M 244.10091 206.42888 L 268.03246 176.26821 L 238.35124 172.48876 L 244.10091 206.42888 M 261.13354 253.98134 L 279.69191 244.13519 L 247.92777 223.02439 L 261.13354 253.98134 M 250.55412 258.35981 L 257.49131 255.75942 L 244.28554 224.80246 L 250.55412 258.35981 M 239.83214 259.88200 L 248.34672 258.87514 L 242.07815 225.31779 L 239.83214 259.88200 M 227.71038 258.20411 L 237.25259 259.79813 L 239.49860 225.23391 L 227.71038 258.20411 M 226.64634 263.76297 L 230.98626 269.70478 L 236.18855 265.35698 L 226.64634 263.76297 M 228.78378 270.64356 L 224.44386 264.70176 L 218.56871 272.86726 L 228.78378 270.64356 M 241.31209 276.43623 L 251.00032 272.19870 L 240.04186 267.04223 L 241.31209 276.43623 M 238.19877 287.06470 L 238.64255 279.84147 L 228.81757 282.82336 L 238.19877 287.06470 M 241.83170 288.94460 L 252.44080 291.55246 L 247.71571 288.03146 L 241.83170 288.94460 M 247.94798 286.01334 L 253.85517 282.63074 L 242.50775 279.70325 L 247.94798 286.01334 M 254.12525 290.93879 L 255.30736 284.03518 L 249.40016 287.41778 L 254.12525 290.93879 M 256.73304 280.77860 L 261.28271 275.43373 L 255.07385 273.61358 L 256.73304 280.77860 M 256.14434 272.10890 L 262.35320 273.92906 L 265.29695 268.74122 L 256.14434 272.10890 M 254.24263 270.19754 L 258.73595 261.43381 L 251.79875 264.03420 L 254.24263 270.19754 M 264.30128 274.03079 L 271.72895 272.92273 L 267.24503 268.84295 L 264.30128 274.03079 M 288.17428 291.91836 L 354.38187 292.01367 L 305.29738 289.56522 L 288.17428 291.91836 M 331.46346 278.95675 L 333.86256 258.70427 L 324.14076 258.78526 L 331.46346 278.95675 M 335.46091 279.97220 L 356.12038 266.90883 L 337.86001 259.71972 L 335.46091 279.97220 M 360.19673 288.97545 L 339.05553 285.93107 L 366.13527 291.28289 L 360.19673 288.97545 M 364.11767 288.90674 L 370.05622 291.21418 L 370.42308 285.38139 L 364.11767 288.90674 M 355.01321 228.01521 L 326.08035 233.93197 L 328.26400 240.61585 L 355.01321 228.01521 M 354.84816 223.63052 L 327.62187 211.72400 L 325.23706 223.36162 L 354.84816 223.63052 M 357.33370 219.29013 L 345.12139 188.63854 L 330.10741 207.38361 L 357.33370 219.29013 M 228.65772 289.72316 L 225.45245 284.38448 L 217.89751 291.23303 L 228.65772 289.72316 M 216.45924 289.64116 L 224.01418 282.79261 L 217.15158 276.98820 L 216.45924 289.64116 M 185.95939 262.30637 L 191.64360 255.53729 L 185.39879 254.10046 L 185.95939 262.30637 M 184.26758 262.36834 L 183.70697 254.16244 L 178.10907 256.03310 L 184.26758 262.36834 M 177.16406 268.98700 L 183.44971 264.22141 L 177.29121 257.88617 L 177.16406 268.98700 M 177.19232 272.55514 L 178.10003 278.90579 L 182.89525 275.31510 L 177.19232 272.55514 M 168.75659 267.59996 L 165.23319 272.50642 L 174.19171 270.98687 L 168.75659 267.59996 M 143.19742 287.59641 L 152.77283 289.74225 L 151.22584 281.49272 L 143.19742 287.59641 M 139.73652 288.57488 L 123.53866 289.32049 L 149.31193 290.72073 L 139.73652 288.57488 M 139.56102 286.85640 L 140.55248 278.97588 L 130.71864 285.59900 L 139.56102 286.85640 M 127.79450 280.95737 L 137.62833 274.33425 L 116.16788 249.72336 L 127.79450 280.95737 M 117.55965 288.69834 L 124.91512 286.69533 L 110.32220 287.00093 L 117.55965 288.69834 M 109.71204 282.25278 L 124.30496 281.94718 L 112.67834 250.71317 L 109.71204 282.25278 M 93.26537 290.64840 L 76.31414 291.80594 L 138.90130 291.22728 L 93.26537 290.64840 M 74.02188 289.47610 L 68.20421 291.58704 L 85.15544 290.42951 L 74.02188 289.47610 M 67.96963 284.54070 L 66.05599 290.85094 L 71.87366 288.73999 L 67.96963 284.54070 M 63.50179 277.13375 L 60.63278 282.30294 L 66.43684 282.30134 L 63.50179 277.13375 M 58.99350 281.75914 L 61.86251 276.58995 L 53.32263 277.95092 L 58.99350 281.75914 M 62.42995 265.41180 L 64.62561 274.23514 L 74.75403 273.10495 L 62.42995 265.41180 M 54.87372 252.22590 L 59.77140 260.04851 L 60.57902 246.84457 L 54.87372 252.22590 M 63.03927 249.06111 L 62.23165 262.26505 L 74.55574 269.95820 L 63.03927 249.06111 M 68.14781 246.93043 L 79.66428 267.82752 L 103.10002 245.21962 L 68.14781 246.93043 M 48.12261 258.65650 L 46.47231 264.13425 L 57.45387 262.68410 L 48.12261 258.65650 M 44.14598 263.54125 L 45.79629 258.06350 L 38.84324 257.94009 L 44.14598 263.54125 M 45.00819 267.14985 L 42.75386 272.59697 L 49.64553 275.88400 L 45.00819 267.14985 M 38.04266 256.09664 L 49.42928 252.42503 L 33.30778 252.58863 L 38.04266 256.09664 M 31.01425 253.57098 L 31.08100 260.28387 L 35.74913 257.07899 L 31.01425 253.57098 M 29.64626 260.47439 L 29.57950 253.76150 L 24.27117 258.60312 L 29.64626 260.47439 M 32.51495 261.58518 L 42.48582 263.98146 L 37.18307 258.38030 L 32.51495 261.58518 M 25.02984 267.09275 L 30.80230 270.48959 L 29.86642 263.27636 L 25.02984 267.09275 M 24.25875 268.45594 L 23.69771 274.18189 L 30.03121 271.85278 L 24.25875 268.45594 M 22.81868 261.47049 L 22.79615 272.88410 L 23.35719 267.15815 L 22.81868 261.47049 M 23.36557 250.77597 L 23.48609 257.39081 L 28.79442 252.54920 L 23.36557 250.77597 M 23.90519 275.76370 L 25.91859 281.11047 L 30.23869 273.43460 L 23.90519 275.76370 M 22.98165 277.58274 L 22.85037 287.98687 L 24.99505 282.92951 L 22.98165 277.58274 M 27.03790 281.78962 L 32.85963 281.19692 L 31.35800 274.11375 L 27.03790 281.78962 M 27.03267 283.78148 L 31.31612 290.04859 L 32.85440 283.18878 L 27.03267 283.78148 M 32.76347 290.98123 L 38.61141 291.24256 L 34.30174 284.12141 L 32.76347 290.98123 M 42.38621 223.52632 L 52.70057 247.66063 L 58.40587 242.27930 L 42.38621 223.52632 M 44.60145 214.48223 L 69.70657 211.73323 L 61.33711 196.80986 L 44.60145 214.48223 M 120.56327 237.38924 L 154.73183 226.97754 L 150.24948 217.30702 L 120.56327 237.38924 M 121.30904 240.87011 L 156.21564 245.15394 L 155.47760 230.45841 L 121.30904 240.87011 M 119.49696 139.81674 L 110.94889 188.94375 L 122.14164 190.67479 L 119.49696 139.81674 M 123.46552 139.54024 L 126.11020 190.39829 L 142.69738 186.73175 L 123.46552 139.54024 M 126.56908 138.59280 L 145.80094 185.78431 L 150.93869 182.81879 L 126.56908 138.59280 M 129.08483 136.73638 L 153.45444 180.96237 L 165.92695 170.93296 L 129.08483 136.73638 M 132.33874 133.31775 L 169.18085 167.51432 L 179.48567 153.61329 L 132.33874 133.31775 M 192.12423 89.38563 L 187.68326 94.35818 L 194.07653 99.59841 L 192.12423 89.38563 M 221.58062 77.13247 L 197.98703 86.16089 L 212.94439 87.80151 L 221.58062 77.13247 M 225.35632 76.60815 L 216.72009 87.27719 L 228.19268 81.96631 L 225.35632 76.60815 M 223.16510 105.84078 L 200.11876 104.09607 L 211.02248 118.38197 L 223.16510 105.84078 M 261.39247 50.72189 L 253.81561 51.08654 L 261.11930 56.80357 L 261.39247 50.72189 M 247.58830 31.81179 L 233.95994 30.10047 L 244.06207 40.14564 L 247.58830 31.81179 M 244.00155 23.46444 L 176.96256 25.95749 L 226.10591 27.59652 L 244.00155 23.46444" fill="none" stroke="black" stroke-width="0.01cm" />
   </g>
</svg>