<?xml version="1.0" standalone="no"?>
  <!DOCTYPE svg PUBLIC "-//W3C//DTD SVG 1.1//EN" 
    "http://www.w3.org/Graphics/SVG/1.1/DTD/svg11.dtd">
  <svg width="12.7cm" height="8.89cm"
       xmlns="http://www.w3.org/2000/svg" version="1.1" viewBox="0 0 449.99999 314.99999">
   <g>
     <path d="M 238.28057 152.09454 L 240.72713 146.18238 L 234.64012 144.72787 L 238.28057 152.09454 M 240.66817 144.34082 L 237.80889 137.36206 L 234.58116 142.88631 L 240.66817 144.34082 M 237.32235 135.56742 L 236.77585 129.98375 L 234.09462 141.09168 L 237.32235 135.56742 M 233.62914 128.90639 L 212.14865 126.94859 L 230.94790 140.01432 L 233.62914 128.90639 M 232.60097 116.50856 L 229.61828 109.52022 L 211.88667 122.18282 L 232.60097 116.50856 M 228.31016 107.74218 L 222.13600 102.28425 L 210.57855 120.40478 L 228.31016 107.74218 M 231.18482 99.07655 L 224.71178 99.61822 L 230.88594 105.07615 L 231.18482 99.07655 M 231.16512 97.37456 L 230.72839 91.46024 L 224.69209 97.91623 L 231.16512 97.37456 M 229.65755 89.07051 L 225.13654 84.47009 L 221.08309 89.31315 L 229.65755 89.07051 M 236.36937 84.96716 L 227.04732 83.92684 L 231.56834 88.52726 L 236.36937 84.96716 M 239.37339 94.31732 L 232.56356 91.01038 L 233.00029 96.92469 L 239.37339 94.31732 M 240.75916 95.98250 L 234.38605 98.58988 L 243.64971 104.33187 L 240.75916 95.98250 M 242.69657 105.56144 L 233.43291 99.81945 L 233.13404 105.81905 L 242.69657 105.56144 M 246.50264 114.50462 L 244.70312 108.27063 L 238.12328 115.51658 L 246.50264 114.50462 M 255.46254 112.73962 L 246.87053 107.92351 L 248.67004 114.15750 L 255.46254 112.73962 M 256.52907 111.67377 L 257.20227 105.63069 L 247.93706 106.85766 L 256.52907 111.67377 M 265.91768 109.82738 L 259.44985 106.00191 L 258.77665 112.04498 L 265.91768 109.82738 M 266.61317 108.17668 L 264.34059 98.83942 L 260.14534 104.35121 L 266.61317 108.17668 M 276.87283 108.68477 L 269.35593 110.80635 L 272.29791 118.17285 L 276.87283 108.68477 M 277.13497 106.39441 L 274.39504 99.85003 L 269.61807 108.51600 L 277.13497 106.39441 M 275.02964 96.72499 L 280.60213 95.36652 L 271.86231 91.41854 L 275.02964 96.72499 M 273.22649 96.82316 L 270.05916 91.51671 L 266.17694 96.15186 L 273.22649 96.82316 M 268.58933 90.55585 L 261.46787 89.13633 L 264.70711 95.19101 L 268.58933 90.55585 M 257.86979 87.28069 L 252.60596 82.00833 L 248.30778 87.03777 L 257.86979 87.28069 M 261.16025 78.57087 L 256.82001 70.25109 L 253.91737 79.17538 L 261.16025 78.57087 M 250.41525 79.86472 L 245.90264 72.31187 L 240.55850 82.71410 L 250.41525 79.86472 M 246.14770 86.69163 L 250.44588 81.66219 L 240.58914 84.51157 L 246.14770 86.69163 M 251.19408 95.15551 L 242.86017 95.55321 L 245.75072 103.90258 L 251.19408 95.15551 M 243.43285 70.77277 L 230.65689 67.55189 L 238.08871 81.17499 L 243.43285 70.77277 M 255.14066 69.25847 L 247.72541 70.62992 L 252.23801 78.18276 L 255.14066 69.25847 M 253.30656 60.02518 L 247.85898 68.36022 L 255.27423 66.98877 L 253.30656 60.02518 M 251.83970 58.43041 L 243.53930 54.23064 L 246.39212 66.76545 L 251.83970 58.43041 M 261.37608 59.68142 L 262.54522 53.57382 L 255.61635 57.57032 L 261.37608 59.68142 M 261.71895 52.18827 L 254.76596 48.59702 L 254.79009 56.18477 L 261.71895 52.18827 M 273.35315 51.21770 L 274.31407 45.42721 L 265.95353 51.28417 L 273.35315 51.21770 M 274.57486 54.07480 L 272.38300 60.35564 L 278.87994 62.06962 L 274.57486 54.07480 M 283.77126 56.84740 L 275.99839 53.63627 L 280.30348 61.63109 L 283.77126 56.84740 M 287.07670 50.09299 L 286.31458 56.11933 L 292.11499 58.62180 L 287.07670 50.09299 M 284.16452 47.99082 L 276.59044 45.01554 L 275.62953 50.80603 L 284.16452 47.99082 M 279.73408 37.97129 L 272.32844 37.32301 L 275.73138 42.40415 L 279.73408 37.97129 M 273.61755 42.57944 L 270.21460 37.49831 L 262.82340 39.37369 L 273.61755 42.57944 M 272.90932 44.14203 L 262.11517 40.93627 L 264.54878 49.99900 L 272.90932 44.14203 M 269.12005 36.03932 L 264.86111 30.90753 L 261.72884 37.91470 L 269.12005 36.03932 M 263.00838 30.79164 L 254.29823 35.11216 L 259.87611 37.79880 L 263.00838 30.79164 M 262.70431 29.44308 L 257.44359 27.01032 L 253.99416 33.76360 L 262.70431 29.44308 M 258.66022 25.24040 L 276.80851 23.57247 L 250.83965 23.70495 L 258.66022 25.24040 M 255.57484 26.44343 L 247.75426 24.90798 L 252.12541 33.19671 L 255.57484 26.44343 M 251.39830 37.10258 L 244.32835 41.24356 L 252.45681 45.26070 L 251.39830 37.10258 M 242.11174 25.50072 L 217.50462 27.04437 L 239.41293 37.93042 L 242.11174 25.50072 M 266.89470 23.28662 L 179.34976 22.95356 L 240.92584 23.41910 L 266.89470 23.28662 M 274.80555 29.83983 L 266.49569 29.89817 L 270.75464 35.02996 L 274.80555 29.83983 M 276.03821 28.52090 L 280.61592 24.47856 L 267.72835 28.57925 L 276.03821 28.52090 M 276.47192 30.66555 L 272.42100 35.85568 L 279.82665 36.50397 L 276.47192 30.66555 M 284.86324 24.45400 L 289.03430 31.58889 L 292.95815 25.29019 L 284.86324 24.45400 M 300.37745 26.29427 L 301.45732 38.24112 L 339.21391 26.83857 L 300.37745 26.29427 M 302.97382 54.62111 L 296.83878 44.83663 L 295.05069 57.87129 L 302.97382 54.62111 M 292.35460 61.66180 L 283.08640 63.94303 L 292.46141 69.62935 L 292.35460 61.66180 M 291.30993 70.78749 L 281.93493 65.10118 L 283.14277 70.92697 L 291.30993 70.78749 M 291.44315 72.68423 L 283.27599 72.82371 L 283.00067 80.27509 L 291.44315 72.68423 M 298.25719 78.67480 L 294.23699 73.56664 L 293.16400 82.36567 L 298.25719 78.67480 M 299.60837 76.98859 L 303.97343 68.87599 L 295.58817 71.88043 L 299.60837 76.98859 M 308.05998 77.15893 L 305.53241 69.53580 L 301.16735 77.64840 L 308.05998 77.15893 M 318.06127 81.42611 L 310.87579 81.50850 L 313.98078 104.90422 L 318.06127 81.42611 M 323.19993 71.07023 L 315.66598 65.85542 L 319.61787 75.92754 L 323.19993 71.07023 M 329.17635 76.65007 L 324.88873 72.41956 L 321.30666 77.27688 L 329.17635 76.65007 M 335.83027 83.30210 L 340.39912 76.90947 L 332.51346 77.81842 L 335.83027 83.30210 M 349.66118 78.57245 L 343.24763 76.88819 L 344.31911 82.35659 L 349.66118 78.57245 M 356.43097 84.71714 L 359.05119 76.61461 L 352.76290 78.80434 L 356.43097 84.71714 M 355.59545 88.24921 L 349.95764 91.80018 L 354.33680 95.40742 L 355.59545 88.24921 M 349.16857 93.39493 L 349.28288 101.00723 L 353.54773 97.00217 L 349.16857 93.39493 M 347.36976 99.81257 L 347.25545 92.20027 L 338.24279 87.44488 L 347.36976 99.81257 M 353.65796 98.99274 L 349.39311 102.99780 L 350.05043 109.31949 L 353.65796 98.99274 M 345.95631 110.78500 L 345.29899 104.46331 L 320.90503 110.71686 L 345.95631 110.78500 M 343.16844 124.67549 L 319.83195 115.58654 L 338.42915 134.40002 L 343.16844 124.67549 M 350.00634 135.90066 L 346.94024 127.21475 L 342.20094 136.93928 L 350.00634 135.90066 M 346.23399 146.47274 L 341.02620 140.61146 L 340.13986 149.69227 L 346.23399 146.47274 M 347.24901 154.00436 L 347.01184 148.14685 L 340.91771 151.36638 L 347.24901 154.00436 M 339.53674 158.44337 L 346.31462 155.29143 L 339.98332 152.65344 L 339.53674 158.44337 M 337.79018 158.31844 L 338.23676 152.52851 L 332.34217 154.29197 L 337.79018 158.31844 M 337.67264 151.10598 L 333.27721 146.93821 L 331.77805 152.86944 L 337.67264 151.10598 M 338.64135 149.55680 L 339.52769 140.47599 L 334.24592 145.38903 L 338.64135 149.55680 M 330.11075 152.74176 L 331.60992 146.81053 L 324.33430 150.08460 L 330.11075 152.74176 M 328.61160 160.66026 L 329.73596 154.47298 L 323.95951 151.81582 L 328.61160 160.66026 M 324.02070 168.18510 L 327.24337 163.29096 L 317.36072 161.78004 L 324.02070 168.18510 M 331.22113 172.11945 L 328.97592 164.58339 L 325.75325 169.47752 L 331.22113 172.11945 M 332.62043 171.11160 L 336.94759 161.41473 L 330.37522 163.57554 L 332.62043 171.11160 M 339.63421 175.27212 L 343.92645 166.49160 L 334.42463 172.97532 L 339.63421 175.27212 M 335.02622 182.66054 L 338.52168 177.29324 L 333.31210 174.99644 L 335.02622 182.66054 M 327.82461 181.91234 L 333.68909 183.23793 L 331.97497 175.57383 L 327.82461 181.91234 M 318.95123 180.18626 L 325.29890 181.20064 L 323.98137 172.22020 L 318.95123 180.18626 M 317.17657 179.60484 L 322.20672 171.63877 L 311.10165 176.54924 L 317.17657 179.60484 M 310.86882 174.49623 L 321.97388 169.58576 L 315.31390 163.18070 L 310.86882 174.49623 M 308.71343 173.90106 L 313.15850 162.58553 L 304.73074 164.82443 L 308.71343 173.90106 M 305.62194 177.43214 L 299.04483 175.49750 L 291.02106 183.69214 L 305.62194 177.43214 M 300.56171 173.30655 L 307.13883 175.24119 L 303.15614 166.16456 L 300.56171 173.30655 M 297.54112 173.18307 L 293.61906 167.61533 L 289.49054 172.67911 L 297.54112 173.18307 M 294.92082 164.53970 L 301.43731 162.96545 L 297.31018 155.21608 L 294.92082 164.53970 M 287.99849 171.72464 L 292.12701 166.66086 L 285.60469 165.54733 L 287.99849 171.72464 M 286.07870 172.41041 L 283.68490 166.23310 L 276.76867 172.14699 L 286.07870 172.41041 M 283.13752 163.01725 L 282.72025 157.01642 L 275.20071 158.59832 L 283.13752 163.01725 M 274.39740 157.14070 L 281.91694 155.55880 L 276.71105 151.35625 L 274.39740 157.14070 M 274.30663 149.67482 L 269.00136 146.38603 L 265.67322 151.18059 L 274.30663 149.67482 M 269.66951 143.72021 L 276.23370 140.58170 L 269.75953 136.28129 L 269.66951 143.72021 M 263.95887 150.26202 L 267.28700 145.46745 L 260.59179 142.32621 L 263.95887 150.26202 M 257.68142 141.27904 L 251.05719 139.58571 L 253.99530 146.71923 L 257.68142 141.27904 M 258.10956 139.60432 L 257.42046 133.32144 L 251.48533 137.91099 L 258.10956 139.60432 M 256.49885 132.13365 L 250.73675 130.10204 L 250.56373 136.72320 L 256.49885 132.13365 M 257.36061 130.49140 L 257.45775 123.58520 L 251.59850 128.45979 L 257.36061 130.49140 M 266.72587 133.05044 L 259.34867 124.15903 L 259.25153 131.06523 L 266.72587 133.05044 M 266.81043 134.93460 L 259.33609 132.94939 L 260.02520 139.23227 L 266.81043 134.93460 M 277.30353 129.33348 L 272.43800 122.90182 L 270.18601 132.71834 L 277.30353 129.33348 M 279.81876 139.74043 L 291.23248 140.37487 L 280.46211 132.05516 L 279.81876 139.74043 M 285.85596 145.04268 L 291.90671 141.99831 L 280.49299 141.36387 L 285.85596 145.04268 M 294.59880 152.41530 L 286.68584 147.67353 L 285.26985 154.62456 L 294.59880 152.41530 M 320.17193 146.26156 L 314.13212 119.26099 L 310.12719 145.88392 L 320.17193 146.26156 M 322.64626 145.84778 L 329.92188 142.57371 L 316.60646 118.84721 L 322.64626 145.84778 M 331.71580 141.40413 L 336.99757 136.49110 L 318.40037 117.67762 L 331.71580 141.40413 M 345.38683 162.94267 L 346.99006 156.57758 L 340.21218 159.72952 L 345.38683 162.94267 M 347.07015 163.18258 L 353.67876 161.64876 L 348.67338 156.81749 L 347.07015 163.18258 M 353.57118 171.24256 L 354.29098 163.45189 L 347.68238 164.98571 L 353.57118 171.24256 M 355.14789 171.52449 L 360.29605 167.24108 L 355.86769 163.73381 L 355.14789 171.52449 M 361.19297 165.85429 L 362.32325 160.43017 L 356.76461 162.34703 L 361.19297 165.85429 M 362.81970 165.44572 L 369.77841 159.07849 L 363.94998 160.02160 L 362.81970 165.44572 M 379.95971 161.89802 L 366.75285 169.27680 L 389.16708 191.68181 L 379.95971 161.89802 M 384.34813 152.75316 L 406.79526 151.03069 L 388.62045 127.62420 L 384.34813 152.75316 M 379.18138 122.71023 L 351.56279 125.43612 L 354.62890 134.12203 L 379.18138 122.71023 M 378.98833 120.18070 L 353.08454 113.88579 L 351.36975 122.90659 L 378.98833 120.18070 M 385.12865 112.91685 L 387.08761 81.84644 L 372.62952 89.57135 L 385.12865 112.91685 M 366.15912 88.23833 L 357.62064 87.80398 L 356.36198 94.96219 L 366.15912 88.23833 M 368.14772 84.84556 L 369.65056 75.92251 L 362.22946 76.30867 L 368.14772 84.84556 M 357.49248 70.23080 L 350.37484 35.33098 L 344.79063 70.73628 L 357.49248 70.23080 M 385.51671 77.23664 L 372.56147 76.03851 L 371.05862 84.96155 L 385.51671 77.23664 M 387.99074 74.27031 L 390.85088 61.23091 L 375.03550 73.07218 L 387.99074 74.27031 M 401.35488 63.87466 L 406.30431 61.01369 L 395.81009 58.73600 L 401.35488 63.87466 M 410.95868 71.34487 L 408.19788 62.58980 L 403.24845 65.45077 L 410.95868 71.34487 M 409.21719 80.74855 L 410.03548 74.60231 L 393.92033 76.60895 L 409.21719 80.74855 M 406.63517 85.47384 L 391.33831 81.33425 L 389.37935 112.40467 L 406.63517 85.47384 M 424.27662 74.99559 L 413.83002 74.40064 L 413.01173 80.54688 L 424.27662 74.99559 M 425.54822 72.61342 L 423.18455 61.48952 L 415.10162 72.01847 L 425.54822 72.61342 M 427.03655 68.65569 L 427.00819 40.35661 L 424.67287 57.53179 L 427.03655 68.65569 M 421.29778 60.15380 L 410.45404 61.92768 L 413.21485 70.68275 L 421.29778 60.15380 M 410.62582 51.20186 L 404.64709 50.42530 L 408.31630 58.68219 L 410.62582 51.20186 M 410.08142 49.03290 L 403.96113 41.33052 L 404.10270 48.25634 L 410.08142 49.03290 M 411.26950 48.24214 L 413.60731 41.93024 L 405.14920 40.53975 L 411.26950 48.24214 M 413.29258 40.08096 L 408.75169 33.44793 L 404.83448 38.69048 L 413.29258 40.08096 M 408.02153 31.64208 L 407.45136 25.63413 L 404.10432 36.88462 L 408.02153 31.64208 M 398.25364 36.23822 L 401.60068 24.98773 L 361.21608 26.47085 L 398.25364 36.23822 M 386.92317 56.12922 L 356.56904 33.45683 L 371.10779 67.97049 L 386.92317 56.12922 M 424.25142 34.38609 L 411.17880 32.90988 L 415.71970 39.54292 L 424.25142 34.38609 M 419.15709 24.94935 L 411.60848 31.08569 L 424.68109 32.56189 L 419.15709 24.94935 M 346.82125 34.92868 L 329.06376 67.01242 L 341.23704 70.33398 L 346.82125 34.92868 M 291.38361 82.72034 L 292.45660 73.92131 L 284.01412 81.51217 L 291.38361 82.72034 M 290.26669 85.13600 L 282.89720 83.92782 L 283.52124 93.24655 L 290.26669 85.13600 M 281.04528 80.89397 L 281.32059 73.44259 L 275.80001 77.63528 L 281.04528 80.89397 M 279.93774 72.27113 L 269.98247 71.52227 L 274.41716 76.46382 L 279.93774 72.27113 M 278.24532 63.93701 L 271.74838 62.22303 L 269.49789 69.01394 L 278.24532 63.93701 M 281.30905 93.84120 L 280.68502 84.52247 L 272.56923 89.89322 L 281.30905 93.84120 M 281.44603 97.05949 L 275.87353 98.41797 L 278.61347 104.96235 L 281.44603 97.05949 M 270.26876 119.66045 L 267.32677 112.29395 L 260.63957 120.58556 L 270.26876 119.66045 M 247.44488 129.41026 L 238.44464 128.52357 L 238.99113 134.10724 L 247.44488 129.41026 M 249.28754 154.27400 L 252.26838 148.97542 L 243.90882 146.89649 L 249.28754 154.27400 M 248.48748 173.81443 L 255.09394 166.59439 L 248.18864 165.01414 L 248.48748 173.81443 M 237.99885 181.58301 L 243.99027 184.60551 L 246.12154 177.65666 L 237.99885 181.58301 M 237.12982 180.32877 L 245.25251 176.40242 L 237.03800 174.57159 L 237.12982 180.32877 M 237.30692 189.43596 L 242.88844 186.07792 L 236.89702 183.05543 L 237.30692 189.43596 M 228.47757 188.97434 L 235.50556 189.79801 L 235.09567 183.41748 L 228.47757 188.97434 M 220.56015 185.14603 L 225.78652 187.94054 L 225.82161 178.76528 L 220.56015 185.14603 M 216.04940 195.27563 L 221.54679 198.09938 L 224.81035 191.21428 L 216.04940 195.27563 M 209.52805 201.12323 L 215.57746 206.25014 L 213.68811 197.28226 L 209.52805 201.12323 M 216.95709 206.10483 L 220.56513 199.96069 L 215.06774 197.13694 L 216.95709 206.10483 M 218.42284 207.35288 L 226.79369 207.12140 L 222.03088 201.20875 L 218.42284 207.35288 M 218.75511 208.96963 L 224.68902 214.14275 L 227.12596 208.73815 L 218.75511 208.96963 M 226.49687 214.79870 L 233.21787 214.21722 L 228.93381 209.39410 L 226.49687 214.79870 M 226.63915 216.29881 L 230.07205 221.39498 L 233.36016 215.71733 L 226.63915 216.29881 M 219.81216 223.19931 L 221.73152 229.21574 L 228.02143 223.66153 L 219.81216 223.19931 M 212.40081 230.29398 L 216.75977 223.44412 L 209.88064 224.78656 L 212.40081 230.29398 M 209.42138 223.02642 L 216.30050 221.68399 L 208.72668 216.21293 L 209.42138 223.02642 M 202.49615 233.11044 L 210.61786 231.50227 L 208.09769 225.99485 L 202.49615 233.11044 M 202.54763 234.64781 L 208.50947 238.29386 L 210.66933 233.03965 L 202.54763 234.64781 M 210.60680 239.03348 L 219.32628 240.56477 L 212.76667 233.77926 L 210.60680 239.03348 M 210.55441 249.66213 L 215.34932 254.21435 L 219.60742 244.01629 L 210.55441 249.66213 M 217.07423 256.28616 L 220.93178 261.18628 L 224.75430 251.13847 L 217.07423 256.28616 M 212.13720 259.57682 L 185.25801 277.46375 L 215.99474 264.47694 L 212.13720 259.57682 M 223.32111 241.84664 L 226.74307 246.89700 L 232.58386 237.45259 L 223.32111 241.84664 M 222.79207 240.03674 L 232.05483 235.64270 L 222.51078 232.41781 L 222.79207 240.03674 M 232.91320 233.76082 L 229.65906 224.98172 L 223.36915 230.53593 L 232.91320 233.76082 M 249.67711 230.96921 L 251.29219 223.13516 L 243.14708 223.59680 L 249.67711 230.96921 M 252.49711 232.63678 L 260.79115 234.01001 L 259.02805 227.73008 L 252.49711 232.63678 M 253.65638 220.20498 L 259.32319 217.05139 L 254.77873 211.14298 L 253.65638 220.20498 M 255.97577 208.30012 L 263.82699 209.06671 L 259.92590 202.60400 L 255.97577 208.30012 M 261.77260 199.52739 L 270.25587 199.75623 L 266.16712 189.92114 L 261.77260 199.52739 M 253.63489 193.55321 L 263.59947 187.65651 L 255.28471 185.34875 L 253.63489 193.55321 M 243.29647 197.99105 L 243.68837 187.94487 L 238.10685 191.30291 L 243.29647 197.99105 M 243.88245 207.91019 L 243.22237 201.33188 L 237.24590 201.40503 L 243.88245 207.91019 M 235.86891 212.88508 L 242.96327 209.35434 L 236.32671 202.84918 L 235.86891 212.88508 M 201.13048 209.61569 L 206.78945 212.66984 L 207.15632 203.20691 L 201.13048 209.61569 M 199.89361 211.29624 L 197.26131 216.65127 L 205.55257 214.35038 L 199.89361 211.29624 M 197.25575 218.16669 L 199.84915 223.41962 L 205.54701 215.86580 L 197.25575 218.16669 M 190.73027 211.22174 L 195.40852 216.26019 L 198.04082 210.90516 L 190.73027 211.22174 M 193.53401 198.46471 L 199.47355 207.84005 L 205.49939 201.43127 L 193.53401 198.46471 M 194.15005 196.70991 L 206.11543 199.67647 L 204.40188 193.80168 L 194.15005 196.70991 M 195.88798 182.09372 L 204.60933 189.93585 L 206.24448 179.50020 L 195.88798 182.09372 M 194.63154 179.73056 L 204.98804 177.13704 L 194.55777 171.03056 L 194.63154 179.73056 M 187.87192 174.93751 L 192.49202 179.45562 L 192.41825 170.75562 L 187.87192 174.93751 M 183.68360 168.82368 L 186.77087 173.60851 L 191.31720 169.42663 L 183.68360 168.82368 M 197.91522 160.57663 L 194.39265 167.62519 L 200.21832 165.64263 L 197.91522 160.57663 M 201.20513 167.52192 L 195.37947 169.50448 L 205.80974 175.61096 L 201.20513 167.52192 M 205.59266 157.53474 L 202.57173 164.75085 L 207.89594 162.64107 L 205.59266 157.53474 M 212.50571 153.55261 L 206.83441 156.13496 L 209.13768 161.24129 L 212.50571 153.55261 M 225.84209 153.07130 L 222.53324 164.53813 L 231.84126 161.38441 L 225.84209 153.07130 M 223.57260 166.86233 L 234.15699 171.66490 L 232.88062 163.70861 L 223.57260 166.86233 M 222.82763 168.30448 L 226.92083 175.24583 L 233.41202 173.10705 L 222.82763 168.30448 M 210.93007 178.33125 L 218.70309 183.94487 L 223.96456 177.56412 L 210.93007 178.33125 M 199.01876 151.62854 L 205.56954 154.93336 L 211.24085 152.35102 L 199.01876 151.62854 M 195.39632 152.71484 L 187.58530 158.89131 L 196.62307 158.16978 L 195.39632 152.71484 M 180.91272 149.20648 L 185.62151 157.77090 L 193.43252 151.59443 L 180.91272 149.20648 M 177.60901 150.28245 L 167.00288 160.20223 L 182.31781 158.84687 L 177.60901 150.28245 M 166.54296 162.31020 L 173.92966 167.14628 L 181.85789 160.95485 L 166.54296 162.31020 M 165.10297 175.38015 L 166.18317 182.81487 L 173.00276 178.56315 L 165.10297 175.38015 M 156.51180 180.66043 L 164.12180 183.07703 L 163.04160 175.64231 L 156.51180 180.66043 M 155.80060 182.43874 L 157.35206 189.86881 L 163.41060 184.85534 L 155.80060 182.43874 M 158.52901 191.30855 L 165.21627 193.95665 L 164.58756 186.29508 L 158.52901 191.30855 M 158.13442 193.16751 L 161.43084 201.16683 L 164.82168 195.81562 L 158.13442 193.16751 M 146.79013 190.29235 L 150.06855 201.95457 L 154.86844 192.64134 L 146.79013 190.29235 M 143.37001 180.80678 L 145.75888 186.72011 L 152.28574 181.63904 L 143.37001 180.80678 M 132.99624 176.00747 L 125.71664 178.49222 L 133.83993 183.35967 L 132.99624 176.00747 M 128.89336 169.91518 L 125.09832 176.81166 L 132.37791 174.32691 L 128.89336 169.91518 M 126.66797 160.83208 L 129.12846 166.52165 L 132.92411 159.76472 L 126.66797 160.83208 M 126.31906 153.16511 L 126.31680 159.16251 L 132.57293 158.09515 L 126.31906 153.16511 M 127.00951 151.80516 L 133.26339 156.73521 L 131.84041 148.28293 L 127.00951 151.80516 M 125.88441 143.65933 L 126.08714 150.17068 L 130.91804 146.64845 L 125.88441 143.65933 M 134.43206 147.04397 L 140.45458 151.69333 L 143.14318 145.69633 L 134.43206 147.04397 M 134.75372 137.26141 L 133.71945 145.23998 L 142.43057 143.89234 L 134.75372 137.26141 M 132.79018 137.02691 L 126.72229 142.01636 L 131.75592 145.00548 L 132.79018 137.02691 M 124.11308 127.34388 L 134.02410 134.17170 L 145.47040 133.98106 L 124.11308 127.34388 M 121.61105 128.08390 L 125.45418 139.90116 L 131.52207 134.91171 L 121.61105 128.08390 M 116.23394 129.39710 L 88.50521 145.41730 L 120.07708 141.21436 L 116.23394 129.39710 M 93.06800 111.40399 L 85.12907 141.69100 L 112.85781 125.67080 L 93.06800 111.40399 M 85.88538 110.61277 L 55.39686 119.34102 L 77.94645 140.89978 L 85.88538 110.61277 M 60.36424 90.80697 L 80.88367 94.42918 L 80.36083 84.54092 L 60.36424 90.80697 M 56.83196 94.33446 L 52.10259 112.76086 L 77.35139 97.95668 L 56.83196 94.33446 M 36.24670 110.14626 L 38.13047 119.66077 L 45.45745 116.92929 L 36.24670 110.14626 M 28.28745 116.45163 L 26.65018 106.58517 L 27.76717 124.92595 L 28.28745 116.45163 M 27.48800 127.52862 L 26.37101 109.18783 L 26.05410 137.27297 L 27.48800 127.52862 M 27.30009 143.77849 L 31.60254 152.52255 L 33.47043 142.74358 L 27.30009 143.77849 M 34.66217 144.88910 L 32.79427 154.66807 L 36.83398 160.94264 L 34.66217 144.88910 M 39.47050 144.20286 L 41.64232 160.25641 L 71.26096 149.17817 L 39.47050 144.20286 M 42.81821 164.37041 L 48.87764 177.11488 L 72.43685 153.29217 L 42.81821 164.37041 M 29.45996 171.70344 L 32.78906 179.71582 L 35.08232 173.10852 L 29.45996 171.70344 M 25.27313 162.50266 L 35.66035 163.14434 L 31.62064 156.86977 L 25.27313 162.50266 M 34.91918 182.52007 L 39.38575 187.15608 L 44.32762 182.89416 L 34.91918 182.52007 M 24.50570 189.55834 L 30.95649 192.49868 L 31.78016 183.85416 L 24.50570 189.55834 M 23.88265 191.85449 L 26.79576 202.22332 L 30.33344 194.79482 L 23.88265 191.85449 M 22.96729 194.26435 L 23.01050 214.07374 L 25.88039 204.63319 L 22.96729 194.26435 M 30.39498 207.49673 L 33.73904 222.93117 L 52.87007 211.17879 L 30.39498 207.49673 M 23.90438 217.75992 L 30.11833 223.75381 L 26.77427 208.31937 L 23.90438 217.75992 M 23.62935 220.61700 L 24.57407 231.17600 L 29.84330 226.61089 L 23.62935 220.61700 M 26.36158 234.17866 L 32.65910 240.14454 L 36.90113 234.10728 L 26.36158 234.17866 M 24.97835 235.45097 L 25.83532 244.28576 L 31.27587 241.41685 L 24.97835 235.45097 M 34.88279 241.45734 L 44.15114 244.68106 L 39.12483 235.42008 L 34.88279 241.45734 M 34.53258 243.12245 L 36.32313 248.74095 L 43.80093 246.34617 L 34.53258 243.12245 M 37.33077 250.14312 L 42.59372 254.33985 L 44.80857 247.74834 L 37.33077 250.14312 M 44.33300 256.81262 L 47.59108 262.50407 L 50.20178 257.64237 L 44.33300 256.81262 M 52.38966 255.51937 L 57.20100 252.61610 L 54.41406 247.59353 L 52.38966 255.51937 M 59.23202 254.81150 L 59.65747 260.86682 L 65.42549 262.00467 L 59.23202 254.81150 M 60.51341 254.21290 L 66.70687 261.40607 L 69.90854 256.07798 L 60.51341 254.21290 M 60.38438 252.80442 L 69.77951 254.66950 L 65.67463 250.13825 L 60.38438 252.80442 M 55.85715 246.79789 L 58.64408 251.82047 L 63.93434 249.15430 L 55.85715 246.79789 M 55.98286 245.37494 L 64.06005 247.73134 L 59.64981 240.43682 L 55.98286 245.37494 M 61.32168 239.71636 L 65.73192 247.01088 L 69.35777 239.61124 L 61.32168 239.71636 M 60.61866 235.80794 L 68.65475 235.70283 L 60.10778 215.74355 L 60.61866 235.80794 M 48.73620 238.64053 L 47.22090 245.42351 L 52.89922 244.91892 L 48.73620 238.64053 M 48.46902 233.74575 L 55.78811 215.02163 L 41.92741 231.26775 L 48.46902 233.74575 M 40.66535 234.91162 L 45.69167 244.17259 L 47.20697 237.38962 L 40.66535 234.91162 M 40.23999 230.27179 L 54.10069 214.02567 L 34.96966 225.77805 L 40.23999 230.27179 M 65.07643 211.77346 L 86.12993 227.90943 L 87.86133 207.87049 L 65.07643 211.77346 M 86.02359 195.90913 L 90.85090 202.11125 L 92.08893 191.94065 L 86.02359 195.90913 M 93.19908 204.91840 L 98.44871 210.05240 L 100.79742 203.06167 L 93.19908 204.91840 M 100.53777 212.90249 L 104.96524 220.78039 L 107.83285 212.85052 L 100.53777 212.90249 M 106.94101 221.09542 L 116.34400 215.42273 L 109.80863 213.16555 L 106.94101 221.09542 M 111.38353 210.83357 L 117.91890 213.09075 L 119.54020 202.43958 L 111.38353 210.83357 M 112.78743 199.83833 L 110.74209 209.17702 L 118.89877 200.78303 L 112.78743 199.83833 M 103.92386 202.44616 L 108.87023 209.38491 L 110.91557 200.04622 L 103.92386 202.44616 M 105.24135 192.97377 L 103.47025 200.39476 L 110.46196 197.99482 L 105.24135 192.97377 M 96.14662 189.06678 L 104.27803 189.95967 L 109.11571 182.19592 L 96.14662 189.06678 M 115.03130 187.79900 L 124.10697 187.23039 L 122.63910 180.23247 L 115.03130 187.79900 M 122.18386 198.23444 L 127.63817 195.94260 L 125.45715 190.13545 L 122.18386 198.23444 M 122.47769 200.13219 L 127.80777 205.31745 L 127.93200 197.84035 L 122.47769 200.13219 M 130.31379 195.34043 L 136.93340 195.54757 L 134.78819 187.40282 L 130.31379 195.34043 M 138.38868 198.60030 L 131.64485 205.87026 L 146.55466 204.34756 L 138.38868 198.60030 M 120.68874 217.49811 L 120.05603 225.62363 L 135.79625 227.31576 L 120.68874 217.49811 M 120.26826 227.71942 L 122.38660 234.26441 L 136.00848 229.41155 L 120.26826 227.71942 M 111.74193 234.49792 L 116.29473 241.67781 L 119.24881 236.38049 L 111.74193 234.49792 M 107.83165 241.01452 L 114.86759 242.25706 L 110.31478 235.07718 L 107.83165 241.01452 M 118.06442 245.06107 L 120.06171 250.59415 L 126.85625 250.73362 L 118.06442 245.06107 M 120.47458 252.39298 L 121.36745 259.45174 L 127.26913 252.53245 L 120.47458 252.39298 M 122.86936 261.03416 L 132.48989 265.05234 L 128.77104 254.11487 L 122.86936 261.03416 M 130.66049 253.74553 L 134.37933 264.68300 L 137.98491 258.07945 L 130.66049 253.74553 M 145.90723 258.41263 L 172.14381 275.29597 L 164.19690 246.13117 L 145.90723 258.41263 M 111.23420 256.40519 L 119.36308 259.93583 L 118.47022 252.87708 L 111.23420 256.40519 M 110.72431 266.81668 L 118.39484 261.67828 L 110.26596 258.14764 L 110.72431 266.81668 M 112.38432 268.01354 L 123.54604 267.72255 L 120.05485 262.87514 L 112.38432 268.01354 M 112.82542 269.59669 L 123.58368 275.54030 L 123.98715 269.30570 L 112.82542 269.59669 M 101.83577 263.67629 L 97.41397 270.72436 L 107.45641 268.43610 L 101.83577 263.67629 M 98.25034 272.23103 L 108.52667 275.72961 L 108.29278 269.94276 L 98.25034 272.23103 M 96.80869 274.58129 L 96.75964 288.74486 L 107.08503 278.07987 L 96.80869 274.58129 M 86.09123 271.26790 L 88.35143 265.86899 L 80.09255 265.16933 L 86.09123 271.26790 M 75.02655 271.98443 L 78.55188 278.12482 L 84.43951 273.38689 L 75.02655 271.98443 M 75.01069 270.43636 L 84.42364 271.83882 L 78.42495 265.74025 L 75.01069 270.43636 M 68.83082 264.06636 L 73.06158 269.46480 L 76.47585 264.76869 L 68.83082 264.06636 M 71.88547 257.20591 L 68.68380 262.53400 L 76.32884 263.23633 L 71.88547 257.20591 M 67.56955 249.58254 L 71.67443 254.11379 L 75.54374 248.35873 L 67.56955 249.58254 M 67.50112 247.87813 L 75.47531 246.65432 L 71.12697 240.47849 L 67.50112 247.87813 M 80.18765 248.39751 L 87.21382 253.47306 L 93.82532 250.57229 L 80.18765 248.39751 M 89.65671 254.93583 L 99.73072 260.09967 L 96.26821 252.03506 L 89.65671 254.93583 M 98.44482 252.21429 L 101.90733 260.27890 L 107.06963 256.36966 L 98.44482 252.21429 M 98.92555 250.18387 L 107.55035 254.33924 L 105.75315 244.03551 L 98.92555 250.18387 M 92.63290 232.08601 L 107.42312 232.17422 L 104.04139 225.05897 L 92.63290 232.08601 M 64.60622 273.80223 L 71.57788 270.59399 L 67.34711 265.19555 L 64.60622 273.80223 M 54.90215 271.08885 L 61.80075 273.72185 L 58.77363 263.97733 L 54.90215 271.08885 M 50.80442 280.45341 L 60.80460 275.78136 L 53.90600 273.14836 L 50.80442 280.45341 M 51.87828 282.47537 L 62.49687 289.32408 L 61.87846 277.80333 L 51.87828 282.47537 M 35.86217 279.61402 L 27.59081 288.91565 L 42.05316 290.66002 L 35.86217 279.61402 M 27.52822 273.85537 L 25.77520 286.81507 L 34.04656 277.51344 L 27.52822 273.85537 M 28.91679 271.67145 L 35.43512 275.32952 L 36.88372 269.34371 L 28.91679 271.67145 M 39.53533 269.36843 L 38.08673 275.35424 L 50.12967 271.86924 L 39.53533 269.36843 M 40.68775 268.09888 L 51.28209 270.59968 L 47.30609 265.19780 L 40.68775 268.09888 M 65.30985 292.03653 L 51.94088 292.41378 L 87.13264 292.27699 L 65.30985 292.03653 M 78.50950 282.16711 L 68.63092 290.75570 L 90.45372 290.99615 L 78.50950 282.16711 M 99.20909 290.22005 L 116.40428 286.38279 L 109.53448 279.55506 L 99.20909 290.22005 M 121.48400 285.73083 L 129.32251 284.84758 L 125.13857 279.05986 L 121.48400 285.73083 M 177.60620 282.95380 L 145.41518 285.52555 L 213.85043 287.93864 L 177.60620 282.95380 M 181.38067 274.48277 L 203.46495 252.04362 L 189.77094 245.18131 L 181.38067 274.48277 M 192.12179 240.42955 L 205.81580 247.29186 L 200.18749 236.46869 L 192.12179 240.42955 M 188.41682 229.66534 L 198.92195 232.97336 L 198.13093 226.59809 L 188.41682 229.66534 M 183.86922 222.49215 L 186.21105 227.69857 L 193.33176 219.37839 L 183.86922 222.49215 M 175.39222 211.86728 L 181.93208 219.88343 L 186.71638 211.73123 L 175.39222 211.86728 M 179.41828 199.87710 L 187.98905 208.00194 L 189.36005 198.31001 L 179.41828 199.87710 M 180.55639 189.36938 L 178.48920 197.54803 L 188.43097 195.98094 L 180.55639 189.36938 M 182.19529 187.60974 L 190.06986 194.22131 L 191.60035 183.47094 L 182.19529 187.60974 M 181.75391 185.42853 L 191.15898 181.28973 L 186.53888 176.77162 L 181.75391 185.42853 M 154.39518 156.73174 L 152.16266 166.87061 L 161.07300 161.81034 L 154.39518 156.73174 M 146.20424 161.47887 L 150.30406 166.82918 L 152.53659 156.69031 L 146.20424 161.47887 M 145.00690 163.10404 L 142.95788 169.69170 L 149.10672 168.45435 L 145.00690 163.10404 M 142.59209 154.16704 L 145.24024 159.89610 L 151.57259 155.10754 L 142.59209 154.16704 M 136.13813 160.13839 L 141.33680 168.65220 L 143.38583 162.06455 L 136.13813 160.13839 M 157.74337 147.09751 L 155.09277 154.26011 L 161.77059 159.33870 L 157.74337 147.09751 M 160.21251 146.40591 L 164.23972 158.64711 L 174.84585 148.72733 L 160.21251 146.40591 M 150.35715 136.81886 L 146.58771 143.64043 L 155.53021 143.41534 L 150.35715 136.81886 M 167.81657 134.66042 L 160.65961 143.40757 L 175.29295 145.72900 L 167.81657 134.66042 M 202.59436 129.71140 L 183.03432 145.69904 L 195.55413 148.08699 L 202.59436 129.71140 M 210.98634 129.21322 L 224.33070 147.02349 L 229.78560 142.27896 L 210.98634 129.21322 M 204.08973 100.63518 L 175.69034 127.31542 L 202.72676 122.39635 L 204.08973 100.63518 M 203.60280 96.15626 L 198.83132 86.56500 L 175.20341 122.83650 L 203.60280 96.15626 M 217.86312 89.32970 L 215.60759 81.78710 L 210.20679 91.90240 L 217.86312 89.32970 M 223.58940 83.42724 L 217.28042 80.72771 L 219.53595 88.27030 L 223.58940 83.42724 M 214.05337 78.27923 L 210.20083 70.85800 L 203.88110 78.80328 L 214.05337 78.27923 M 212.82533 69.37124 L 216.67787 76.79247 L 224.87707 66.90922 L 212.82533 69.37124 M 210.30707 61.04866 L 202.79632 69.15872 L 209.66404 67.87187 L 210.30707 61.04866 M 193.99860 60.14548 L 156.41538 74.78168 L 195.06775 69.82612 L 193.99860 60.14548 M 209.75633 32.12649 L 201.60506 53.79982 L 210.18496 55.37041 L 209.75633 32.12649 M 203.37345 25.93691 L 178.39687 24.20575 L 175.94726 29.25831 L 203.37345 25.93691 M 168.55654 22.94570 L 180.54892 23.22371 L 230.13262 23.41124 L 168.55654 22.94570 M 166.21588 34.54855 L 146.28028 30.21808 L 147.90758 67.53669 L 166.21588 34.54855 M 153.16098 23.06267 L 129.35337 23.62489 L 142.76815 24.06279 L 153.16098 23.06267 M 141.51594 29.53689 L 128.10115 29.09899 L 143.14324 66.85549 L 141.51594 29.53689 M 105.67706 45.26707 L 101.75746 52.90326 L 136.23406 71.24821 L 105.67706 45.26707 M 99.73035 43.19819 L 88.66033 54.69722 L 95.81075 50.83438 L 99.73035 43.19819 M 95.04371 40.49962 L 58.31763 29.24580 L 83.97369 51.99865 L 95.04371 40.49962 M 100.63941 55.52902 L 96.73261 66.27315 L 135.11601 73.87397 L 100.63941 55.52902 M 98.84726 24.79219 L 60.17683 25.84500 L 96.90290 37.09882 L 98.84726 24.79219 M 55.87455 31.83797 L 75.49909 61.23692 L 81.53061 54.59081 L 55.87455 31.83797 M 49.61241 32.55668 L 31.43347 60.34054 L 69.23694 61.95564 L 49.61241 32.55668 M 29.38849 65.42901 L 33.25255 73.26442 L 67.19196 67.04410 L 29.38849 65.42901 M 27.86187 75.41838 L 23.99781 67.58297 L 24.06651 84.27580 L 27.86187 75.41838 M 30.97589 78.12895 L 27.18053 86.98637 L 48.91001 89.26755 L 30.97589 78.12895 M 23.45915 93.07013 L 23.39044 76.37730 L 23.00297 145.77303 L 23.45915 93.07013 M 28.81640 99.95550 L 48.64007 91.99586 L 26.91060 89.71469 L 28.81640 99.95550 M 81.78693 157.19614 L 84.89059 190.29474 L 90.95593 186.32626 L 81.78693 157.19614 M 88.47589 150.82910 L 115.79669 166.18013 L 120.25049 153.13751 L 88.47589 150.82910 M 51.43026 186.43260 L 60.13556 205.81359 L 78.09314 195.70849 L 51.43026 186.43260 M 162.95955 223.00658 L 172.88945 224.08283 L 171.74784 213.58670 L 162.95955 223.00658 M 176.64282 235.07905 L 169.08763 239.55179 L 185.42481 239.41514 L 176.64282 235.07905 M 255.48787 260.13646 L 260.34862 238.06080 L 252.05458 236.68757 L 255.48787 260.13646 M 291.50655 271.77024 L 296.02715 278.22880 L 300.86937 270.37614 L 291.50655 271.77024 M 293.12366 266.21000 L 302.48648 264.81590 L 308.96402 233.74689 L 293.12366 266.21000 M 299.92902 280.23674 L 322.72158 287.83372 L 304.77125 272.38407 L 299.92902 280.23674 M 297.31617 291.74825 L 350.43508 291.89512 L 327.50502 291.28067 L 297.31617 291.74825 M 290.75823 291.59675 L 320.94708 291.12917 L 297.97152 290.68313 L 290.75823 291.59675 M 288.38386 283.69201 L 294.82566 288.74542 L 295.00866 281.59447 L 288.38386 283.69201 M 282.51217 288.42622 L 283.28367 282.45919 L 261.42038 270.81835 L 282.51217 288.42622 M 333.85193 287.23195 L 354.85336 278.98341 L 350.02009 268.22148 L 333.85193 287.23195 M 360.16132 277.91678 L 366.00868 275.73583 L 365.63497 270.11793 L 360.16132 277.91678 M 368.98048 275.95355 L 376.95382 278.01122 L 375.58867 271.98293 L 368.98048 275.95355 M 367.98195 282.93410 L 366.30205 277.33785 L 360.45469 279.51881 L 367.98195 282.93410 M 374.88564 288.14660 L 377.07593 280.73121 L 370.78249 284.26979 L 374.88564 288.14660 M 377.89094 289.32121 L 390.17100 289.17950 L 384.73509 286.39297 L 377.89094 289.32121 M 370.00620 291.75949 L 408.97319 291.76139 L 391.98804 290.04691 L 370.00620 291.75949 M 363.48499 291.00123 L 373.18677 289.43035 L 369.08362 285.55354 L 363.48499 291.00123 M 361.82350 289.95950 L 367.42213 284.51181 L 359.89487 281.09651 L 361.82350 289.95950 M 378.93772 277.31292 L 384.85167 270.36712 L 377.57257 271.28463 L 378.93772 277.31292 M 385.12370 268.06401 L 381.11400 258.88800 L 377.84460 268.98152 L 385.12370 268.06401 M 390.75519 279.16206 L 386.49950 271.35180 L 380.58555 278.29760 L 390.75519 279.16206 M 393.79201 280.09320 L 399.16716 283.41499 L 395.24921 274.61464 L 393.79201 280.09320 M 400.41724 282.43232 L 403.79265 272.23184 L 396.49929 273.63197 L 400.41724 282.43232 M 395.90759 289.36119 L 412.89274 291.07567 L 401.36262 286.27377 L 395.90759 289.36119 M 414.99216 289.61988 L 412.70296 277.71486 L 403.46204 284.81798 L 414.99216 289.61988 M 417.52038 288.47680 L 423.68778 275.67331 L 415.23118 276.57178 L 417.52038 288.47680 M 413.04175 273.75514 L 414.32709 268.14255 L 407.17624 270.65777 L 413.04175 273.75514 M 417.07367 265.85990 L 424.24493 270.57401 L 420.69226 253.29502 L 417.07367 265.85990 M 415.06915 264.64605 L 418.68774 252.08117 L 408.20881 260.86318 L 415.06915 264.64605 M 406.24774 259.54127 L 416.72668 250.75926 L 399.38064 254.07078 L 406.24774 259.54127 M 404.31635 269.87490 L 404.60686 263.57682 L 397.02299 271.27504 L 404.31635 269.87490 M 393.11114 253.26255 L 383.87712 248.10293 L 382.67177 254.92355 L 393.11114 253.26255 M 379.97831 254.06458 L 381.18366 247.24395 L 371.56343 246.39076 L 379.97831 254.06458 M 359.78071 236.18464 L 366.78636 242.47119 L 358.38763 229.84775 L 359.78071 236.18464 M 354.09724 234.13446 L 352.70416 227.79758 L 321.31861 226.06979 L 354.09724 234.13446 M 352.90538 245.27195 L 354.12240 236.31876 L 321.34376 228.25409 L 352.90538 245.27195 M 352.17142 248.04960 L 320.60980 231.03173 L 348.25074 258.53992 L 352.17142 248.04960 M 353.97406 261.92339 L 366.39633 258.09953 L 357.89474 251.43307 L 353.97406 261.92339 M 342.81658 260.54723 L 315.17564 233.03904 L 308.69810 264.10805 L 342.81658 260.54723 M 303.47761 220.86604 L 275.40732 204.43218 L 270.82513 210.66606 L 303.47761 220.86604 M 274.00501 198.68278 L 285.02098 187.87700 L 276.66103 191.91052 L 274.00501 198.68278 M 271.84720 198.82145 L 274.50321 192.04919 L 267.75845 188.98637 L 271.84720 198.82145 M 274.74309 189.22522 L 273.76621 176.22967 L 267.99832 186.16239 L 274.74309 189.22522 M 276.90091 189.08655 L 285.26086 185.05302 L 275.92402 176.09100 L 276.90091 189.08655 M 288.93139 183.34377 L 296.95516 175.14913 L 288.90459 174.64516 L 288.93139 183.34377 M 273.43945 170.36528 L 272.41887 160.03247 L 267.38173 162.57568 L 273.43945 170.36528 M 311.32531 118.40912 L 297.71746 139.44660 L 307.32039 145.03205 L 311.32531 118.40912 M 307.19784 109.55666 L 285.36156 98.45183 L 282.52900 106.35469 L 307.19784 109.55666 M 348.45569 185.18241 L 352.30523 175.05644 L 342.12419 177.58012 L 348.45569 185.18241 M 340.56503 190.14798 L 346.55123 187.73976 L 336.72428 185.50477 L 340.56503 190.14798 M 384.53005 197.70085 L 353.11811 189.70522 L 351.86113 195.64098 L 384.53005 197.70085 M 385.25955 195.40632 L 357.69715 177.28472 L 353.84761 187.41068 L 385.25955 195.40632 M 394.26051 190.38163 L 407.50027 158.87537 L 385.05314 160.59784 L 394.26051 190.38163 M 399.53250 200.71256 L 418.44455 235.63855 L 421.55672 176.81307 L 399.53250 200.71256 M 426.32872 157.68627 L 425.96016 246.30587 L 426.87433 143.05533 L 426.32872 157.68627 M 424.00284 155.36281 L 424.81667 148.76080 L 415.22314 153.66916 L 424.00284 155.36281 M 418.03743 145.16176 L 414.47747 152.39403 L 424.07099 147.48567 L 418.03743 145.16176 M 423.50611 139.53196 L 419.16601 143.55400 L 425.19957 145.87791 L 423.50611 139.53196 M 423.58406 137.44182 L 425.82312 129.15684 L 419.24395 141.46387 L 423.58406 137.44182 M 422.90909 124.30576 L 422.00661 114.80745 L 394.59516 120.43857 L 422.90909 124.30576 M 426.98348 119.66546 L 427.19026 83.31616 L 426.08100 110.16715 L 426.98348 119.66546 M 421.75967 100.43500 L 423.41539 90.11129 L 413.79711 85.11910 L 421.75967 100.43500 M 226.32872 68.35504 L 218.12952 78.23830 L 224.43849 80.93783 L 226.32872 68.35504 M 148.21242 88.73756 L 151.45486 128.86260 L 163.78487 126.71193 L 148.21242 88.73756 M 143.39994 88.09664 L 125.28506 121.58450 L 146.64238 128.22167 L 143.39994 88.09664" fill="none" stroke="black" stroke-width="0.01cm" />
   </g>
</svg>