<?xml version="1.0" standalone="no"?>
  <!DOCTYPE svg PUBLIC "-//W3C//DTD SVG 1.1//EN" 
    "http://www.w3.org/Graphics/SVG/1.1/DTD/svg11.dtd">
  <svg width="12.7cm" height="8.89cm"
       xmlns="http://www.w3.org/2000/svg" version="1.1" viewBox="0 0 449.99999 314.99999">
   <g>
     <path d="M 223.71453 150.32152 L 230.57399 149.61226 L 227.71498 142.64272 L 223.71453 150.32152 M 223.40223 154.83189 L 225.21664 178.72570 L 230.26170 154.12263 L 223.40223 154.83189 M 213.89871 155.35069 L 223.17127 178.87921 L 221.35686 154.98540 L 213.89871 155.35069 M 215.23111 145.72638 L 212.90619 151.20658 L 220.36434 150.84130 L 215.23111 145.72638 M 208.98965 140.21654 L 206.13965 145.86481 L 213.21542 143.95233 L 208.98965 140.21654 M 207.46912 139.60154 L 201.05122 139.03237 L 204.61913 145.24982 L 207.46912 139.60154 M 199.40630 139.74078 L 194.30970 145.26885 L 202.97420 145.95823 L 199.40630 139.74078 M 197.39603 138.87912 L 186.89207 139.06493 L 192.29943 144.40719 L 197.39603 138.87912 M 195.85414 133.01749 L 199.95560 137.50332 L 206.37350 138.07250 L 195.85414 133.01749 M 204.84392 148.31810 L 200.94869 154.36259 L 209.59476 151.88581 L 204.84392 148.31810 M 191.24214 156.55329 L 193.65833 164.35497 L 197.66666 156.66307 L 191.24214 156.55329 M 189.53453 157.43669 L 184.00579 163.73023 L 191.95072 165.23836 L 189.53453 157.43669 M 184.01031 165.82461 L 189.57068 174.19172 L 191.95524 167.33274 L 184.01031 165.82461 M 174.31004 166.14091 L 179.76476 172.20157 L 180.96018 165.47106 L 174.31004 166.14091 M 172.00604 179.48576 L 165.25946 182.63524 L 172.19855 185.77462 L 172.00604 179.48576 M 164.59122 184.52263 L 166.66009 194.58491 L 171.53031 187.66202 L 164.59122 184.52263 M 163.22565 176.07047 L 155.83361 182.88151 L 162.46553 181.93431 L 163.22565 176.07047 M 159.94889 168.48945 L 165.68225 162.26716 L 123.12597 134.31946 L 159.94889 168.48945 M 148.13105 190.90179 L 150.68560 197.72499 L 156.08326 193.46893 L 148.13105 190.90179 M 140.54944 195.94456 L 143.63686 203.83752 L 148.46027 199.43737 L 140.54944 195.94456 M 138.47698 196.49071 L 131.88060 203.80658 L 141.56440 204.38367 L 138.47698 196.49071 M 134.08982 192.06104 L 145.69256 189.38548 L 150.73263 185.48614 L 134.08982 192.06104 M 130.89711 194.61475 L 130.54719 202.58546 L 137.14357 195.26959 L 130.89711 194.61475 M 131.58409 205.65559 L 136.10488 211.28280 L 141.26789 206.23269 L 131.58409 205.65559 M 127.99100 207.61804 L 112.52318 221.93227 L 132.51179 213.24525 L 127.99100 207.61804 M 148.94034 208.51561 L 171.79097 234.97675 L 164.95007 202.50799 L 148.94034 208.51561 M 177.95410 195.23814 L 187.54612 193.99692 L 184.49489 187.78026 L 177.95410 195.23814 M 185.93239 185.76886 L 188.98362 191.98552 L 189.45407 179.14695 L 185.93239 185.76886 M 198.37107 167.02422 L 220.29804 180.38406 L 211.02548 156.85554 L 198.37107 167.02422 M 180.67366 152.28561 L 174.42365 163.65141 L 181.07380 162.98156 L 180.67366 152.28561 M 183.43979 149.44546 L 189.36866 153.84787 L 191.02392 147.22377 L 183.43979 149.44546 M 224.66474 140.74896 L 211.30528 139.57705 L 215.53105 143.31284 L 224.66474 140.74896 M 233.70664 149.04028 L 248.77577 145.74572 L 230.84764 142.07075 L 233.70664 149.04028 M 237.66907 151.28144 L 262.54703 160.00000 L 252.73820 147.98687 L 237.66907 151.28144 M 229.75056 179.86989 L 259.67357 163.98538 L 234.79561 155.26681 L 229.75056 179.86989 M 263.96056 188.53606 L 263.31919 168.14403 L 233.39618 184.02854 L 263.96056 188.53606 M 269.07750 187.23555 L 274.33176 173.62446 L 268.43614 166.84352 L 269.07750 187.23555 M 270.45398 189.07965 L 279.44797 181.59628 L 275.70824 175.46855 L 270.45398 189.07965 M 286.35363 188.16590 L 280.77864 183.18344 L 271.78466 190.66681 L 286.35363 188.16590 M 288.82206 186.50424 L 291.53210 177.37354 L 283.24707 181.52179 L 288.82206 186.50424 M 297.09635 192.48623 L 296.95279 185.88858 L 290.96317 188.66862 L 297.09635 192.48623 M 305.67776 187.71635 L 305.05253 180.06773 L 299.47176 184.40294 L 305.67776 187.71635 M 307.65733 187.58913 L 315.30831 183.38512 L 307.03210 179.94050 L 307.65733 187.58913 M 315.75669 193.24061 L 308.54211 190.91190 L 314.54675 199.98999 L 315.75669 193.24061 M 312.65003 200.12650 L 306.64539 191.04841 L 300.58296 194.33264 L 312.65003 200.12650 M 321.26619 212.05188 L 314.68043 204.65259 L 304.23577 214.06401 L 321.26619 212.05188 M 318.69121 214.68605 L 301.66080 216.69818 L 294.08064 225.72594 L 318.69121 214.68605 M 326.47161 210.12300 L 336.33763 201.34411 L 329.42735 200.01256 L 326.47161 210.12300 M 327.47538 196.89409 L 326.09766 190.54501 L 319.14382 192.85585 L 327.47538 196.89409 M 328.63244 188.78425 L 337.40602 189.63469 L 332.02619 184.26841 L 328.63244 188.78425 M 326.44801 188.05963 L 329.84175 183.54380 L 319.93057 183.83776 L 326.44801 188.05963 M 331.71262 181.35336 L 334.86335 176.32217 L 328.35297 175.86132 L 331.71262 181.35336 M 328.09389 174.16350 L 334.60427 174.62434 L 329.63992 167.77076 L 328.09389 174.16350 M 326.27581 174.01432 L 327.82185 167.62158 L 320.05965 173.43090 L 326.27581 174.01432 M 316.44921 181.87463 L 316.78460 175.50521 L 308.17301 178.43001 L 316.44921 181.87463 M 307.35082 177.10862 L 315.96242 174.18382 L 309.87174 171.30352 L 307.35082 177.10862 M 303.99729 177.18387 L 300.51544 170.99614 L 295.13694 175.16843 L 303.99729 177.18387 M 301.76101 168.80531 L 307.76378 169.18794 L 302.58056 163.44695 L 301.76101 168.80531 M 308.93011 168.43496 L 311.09165 162.78146 L 303.74689 162.69397 L 308.93011 168.43496 M 310.54067 169.66657 L 316.63134 172.54687 L 312.70221 164.01307 L 310.54067 169.66657 M 299.71956 161.18646 L 293.06180 154.99551 L 290.71399 162.65336 L 299.71956 161.18646 M 304.60518 152.60288 L 300.89467 148.20441 L 294.73584 152.43634 L 304.60518 152.60288 M 306.15816 151.13006 L 307.15966 140.65379 L 302.44765 146.73159 L 306.15816 151.13006 M 317.36412 147.64173 L 316.89052 140.57070 L 310.00953 139.58166 L 317.36412 147.64173 M 317.03009 137.42835 L 318.48069 122.50296 L 310.14910 136.43931 L 317.03009 137.42835 M 325.47118 140.90506 L 318.82323 140.73612 L 319.29683 147.80715 L 325.47118 140.90506 M 326.24544 139.14428 L 325.49092 133.72088 L 319.59749 138.97534 L 326.24544 139.14428 M 324.74844 131.56454 L 320.30561 121.89362 L 318.85501 136.81900 L 324.74844 131.56454 M 334.73841 135.21928 L 338.39322 129.84365 L 328.52300 132.27013 L 334.73841 135.21928 M 344.93108 133.30514 L 340.44423 129.97303 L 336.78942 135.34866 L 344.93108 133.30514 M 346.31399 131.79194 L 347.85270 123.24307 L 341.82714 128.45983 L 346.31399 131.79194 M 347.13009 121.93427 L 340.53305 121.32154 L 341.10452 127.15103 L 347.13009 121.93427 M 346.95390 120.13669 L 339.69505 112.77036 L 340.35687 119.52396 L 346.95390 120.13669 M 356.81686 118.33524 L 354.85850 111.67321 L 350.46762 119.88270 L 356.81686 118.33524 M 358.38649 116.95445 L 363.02466 108.83639 L 356.42813 110.29242 L 358.38649 116.95445 M 365.60233 119.37922 L 364.17143 109.97224 L 359.53327 118.09030 L 365.60233 119.37922 M 357.14631 128.65051 L 349.76760 123.26691 L 348.22888 131.81578 L 357.14631 128.65051 M 365.64718 134.01722 L 359.84161 130.16586 L 356.60703 134.70363 L 365.64718 134.01722 M 368.55602 147.36167 L 367.55772 136.71590 L 365.08744 141.79596 L 368.55602 147.36167 M 367.28285 150.67860 L 360.82264 150.43464 L 360.36401 157.92958 L 367.28285 150.67860 M 359.52893 148.04083 L 362.52056 142.71909 L 353.48287 144.34484 L 359.52893 148.04083 M 352.37020 151.60310 L 358.26013 149.15134 L 352.21407 145.45534 L 352.37020 151.60310 M 349.45149 144.33672 L 343.04449 142.01135 L 342.72263 148.67551 L 349.45149 144.33672 M 351.22130 142.13319 L 353.68911 136.11378 L 348.00627 134.74128 L 351.22130 142.13319 M 358.59970 158.24498 L 359.05834 150.75004 L 353.16841 153.20181 L 358.59970 158.24498 M 369.05661 161.65004 L 368.31210 152.08052 L 361.39326 159.33151 L 369.05661 161.65004 M 371.02920 161.71678 L 377.17395 159.86538 L 370.28469 152.14725 L 371.02920 161.71678 M 372.15122 169.46820 L 377.40727 162.03049 L 371.26252 163.88189 L 372.15122 169.46820 M 361.91646 171.82615 L 359.21168 162.53333 L 355.81806 170.72083 L 361.91646 171.82615 M 352.43677 170.81926 L 345.16895 164.17567 L 345.52759 171.06973 L 352.43677 170.81926 M 352.32205 178.45927 L 353.33091 172.60471 L 346.42173 172.85518 L 352.32205 178.45927 M 351.20467 179.33493 L 345.30435 173.73085 L 344.39183 179.61001 L 351.20467 179.33493 M 341.42917 180.24394 L 336.49788 176.86999 L 333.34714 181.90119 L 341.42917 180.24394 M 342.99655 170.48432 L 342.63790 163.59026 L 332.18840 166.13595 L 342.99655 170.48432 M 349.80411 189.29279 L 356.13307 186.53241 L 353.00922 181.83319 L 349.80411 189.29279 M 337.11802 191.18683 L 328.34444 190.33638 L 329.72215 196.68546 L 337.11802 191.18683 M 339.77440 198.35172 L 346.56990 191.68253 L 340.25998 191.52154 L 339.77440 198.35172 M 345.75689 207.92196 L 349.64327 202.53709 L 340.72665 201.38006 L 345.75689 207.92196 M 341.26216 214.06278 L 351.00851 212.97595 L 345.96808 210.49103 L 341.26216 214.06278 M 339.82349 212.77324 L 344.52942 209.20148 L 339.49918 202.65957 L 339.82349 212.77324 M 337.67258 222.07187 L 327.48224 220.73709 L 337.18811 274.81163 L 337.67258 222.07187 M 363.43059 214.08299 L 362.01327 208.50012 L 355.25446 212.75699 L 363.43059 214.08299 M 366.53532 214.27247 L 372.51412 216.09666 L 372.69620 206.86579 L 366.53532 214.27247 M 373.06549 218.23054 L 367.08670 216.40635 L 377.10723 223.93682 L 373.06549 218.23054 M 374.13776 215.79110 L 379.52447 211.82798 L 374.31984 206.56023 L 374.13776 215.79110 M 380.87546 210.14105 L 384.94562 202.29564 L 375.67083 204.87330 L 380.87546 210.14105 M 384.92161 198.96136 L 381.91184 190.13161 L 374.41835 194.87427 L 384.92161 198.96136 M 387.36999 198.55175 L 394.00540 191.59742 L 384.36022 189.72200 L 387.36999 198.55175 M 382.58651 186.20047 L 387.88284 177.06502 L 377.52915 181.39037 L 382.58651 186.20047 M 376.42665 179.70398 L 386.78033 175.37863 L 373.76646 172.70933 L 376.42665 179.70398 M 387.15117 173.31686 L 379.39335 163.20986 L 374.13730 170.64757 L 387.15117 173.31686 M 396.72445 188.10768 L 403.82606 179.76928 L 392.37560 177.09681 L 396.72445 188.10768 M 405.99307 187.81841 L 405.52824 181.10948 L 398.42663 189.44788 L 405.99307 187.81841 M 415.49643 184.46838 L 414.21841 178.09978 L 408.33881 179.47635 L 415.49643 184.46838 M 424.04583 184.74180 L 422.92723 179.25427 L 418.20930 185.18171 L 424.04583 184.74180 M 423.33689 173.20087 L 424.45549 178.68840 L 421.48657 136.75451 L 423.33689 173.20087 M 422.32052 172.35391 L 420.47020 135.90755 L 416.32457 171.91275 L 422.32052 172.35391 M 424.69398 167.82550 L 425.24479 86.29765 L 421.72506 125.89160 L 424.69398 167.82550 M 411.88402 170.22075 L 416.02966 134.21554 L 386.79615 158.81785 L 411.88402 170.22075 M 404.57226 176.93757 L 410.45185 175.56100 L 385.36398 164.15810 L 404.57226 176.93757 M 373.26590 192.92572 L 380.75939 188.18306 L 375.70204 183.37296 L 373.26590 192.92572 M 362.61818 181.61695 L 354.61098 180.87371 L 357.73483 185.57293 L 362.61818 181.61695 M 331.77940 152.30684 L 332.35080 146.39641 L 321.50081 149.70294 L 331.77940 152.30684 M 317.03205 119.21237 L 305.44096 111.10363 L 308.70046 133.14872 L 317.03205 119.21237 M 323.77948 105.70819 L 316.77177 105.40567 L 319.96647 115.53032 L 323.77948 105.70819 M 324.21590 103.11690 L 323.45779 94.79994 L 317.20818 102.81437 L 324.21590 103.11690 M 322.31441 93.79462 L 315.06885 95.07437 L 316.06480 101.80906 L 322.31441 93.79462 M 323.21390 91.85669 L 323.26068 86.30557 L 315.96834 93.13643 L 323.21390 91.85669 M 332.26807 88.21709 L 325.29814 85.69066 L 325.25137 91.24177 L 332.26807 88.21709 M 334.53118 96.96347 L 333.42220 89.62619 L 326.40550 92.65087 L 334.53118 96.96347 M 336.96840 108.90018 L 335.06922 100.41234 L 327.70163 104.41670 L 336.96840 108.90018 M 339.42388 108.38754 L 347.34550 100.31557 L 337.52470 99.89970 L 339.42388 108.38754 M 335.37117 110.87539 L 326.10441 106.39191 L 322.29140 116.21403 L 335.37117 110.87539 M 349.28106 101.40766 L 341.35944 109.47964 L 353.00917 108.63647 L 349.28106 101.40766 M 348.03935 98.17019 L 344.97469 91.22451 L 338.21855 97.75432 L 348.03935 98.17019 M 359.93234 98.30057 L 351.60267 100.01028 L 355.33078 107.23909 L 359.93234 98.30057 M 360.05869 95.91397 L 356.34162 88.14632 L 351.72903 97.62368 L 360.05869 95.91397 M 370.04481 99.64521 L 364.90381 91.22613 L 363.04513 96.48079 L 370.04481 99.64521 M 370.55369 103.87759 L 365.54899 108.19565 L 366.97988 117.60263 L 370.55369 103.87759 M 376.17054 105.68645 L 372.59673 119.41150 L 410.48378 122.66658 L 376.17054 105.68645 M 380.72850 96.53864 L 377.18701 102.82734 L 411.50025 119.80748 L 380.72850 96.53864 M 374.91777 90.83823 L 370.15541 82.62326 L 366.23528 88.70785 L 374.91777 90.83823 M 367.53379 80.52449 L 359.52061 76.56105 L 358.03792 84.09608 L 367.53379 80.52449 M 367.80859 78.29384 L 360.23632 66.25087 L 359.79541 74.33040 L 367.80859 78.29384 M 357.04669 75.94313 L 347.74249 75.58116 L 355.56400 83.47817 L 357.04669 75.94313 M 356.47435 74.03067 L 350.98527 68.17843 L 347.17015 73.66869 L 356.47435 74.03067 M 358.07985 62.84874 L 356.04593 56.92901 L 352.14985 65.07603 L 358.07985 62.84874 M 354.71482 56.23618 L 347.43100 57.30608 L 350.81875 64.38320 L 354.71482 56.23618 M 355.51826 52.65226 L 355.42550 42.54748 L 350.05518 46.88649 L 355.51826 52.65226 M 362.26017 51.50988 L 357.30972 55.23324 L 359.34364 61.15297 L 362.26017 51.50988 M 361.95636 49.22066 L 356.91315 42.83925 L 357.00590 52.94403 L 361.95636 49.22066 M 362.77510 35.13687 L 351.77641 34.67408 L 356.42306 39.24439 L 362.77510 35.13687 M 363.26841 33.49158 L 360.36955 26.08202 L 352.26972 33.02879 L 363.26841 33.49158 M 365.59877 32.55782 L 370.91262 25.55874 L 362.69991 25.14827 L 365.59877 32.55782 M 373.14683 35.22476 L 366.49888 35.39226 L 368.56665 40.99216 L 373.14683 35.22476 M 373.61055 33.42490 L 372.27645 26.59332 L 366.96260 33.59240 L 373.61055 33.42490 M 373.05035 24.51870 L 391.10086 24.94431 L 356.43736 23.40139 L 373.05035 24.51870 M 347.52647 35.92252 L 334.14594 40.78535 L 346.80281 44.83184 L 347.52647 35.92252 M 344.61858 53.91679 L 346.43932 47.08112 L 333.78245 43.03463 L 344.61858 53.91679 M 342.98112 57.43365 L 328.82638 59.15064 L 336.65820 62.61690 L 342.98112 57.43365 M 345.48719 58.19938 L 339.16427 63.38263 L 348.87493 65.27651 L 345.48719 58.19938 M 342.86072 75.01215 L 331.32994 74.87447 L 337.34476 79.42574 L 342.86072 75.01215 M 325.52339 61.51730 L 322.19240 69.12048 L 327.71997 72.23001 L 325.52339 61.51730 M 323.78123 60.10975 L 313.78268 60.96961 L 320.45023 67.71293 L 323.78123 60.10975 M 317.93218 50.75916 L 325.13111 56.30816 L 328.44972 43.70901 L 317.93218 50.75916 M 313.71606 52.58803 L 304.71933 57.48008 L 310.91645 58.99688 L 313.71606 52.58803 M 312.76533 51.23583 L 303.31057 48.17930 L 303.76859 56.12788 L 312.76533 51.23583 M 309.78381 60.50553 L 303.58669 58.98873 L 304.65496 64.65720 L 309.78381 60.50553 M 300.27925 57.11580 L 292.56927 50.16549 L 292.10258 58.14094 L 300.27925 57.11580 M 289.94706 61.24668 L 283.72468 66.62420 L 289.72418 68.60873 L 289.94706 61.24668 M 288.37879 59.65030 L 277.17804 55.83768 L 282.15641 65.02782 L 288.37879 59.65030 M 289.80107 49.76728 L 278.13362 53.93012 L 289.33438 57.74273 L 289.80107 49.76728 M 282.37149 45.29610 L 277.26326 52.37429 L 288.93071 48.21145 L 282.37149 45.29610 M 280.50926 44.13897 L 274.03281 38.95441 L 275.40102 51.21716 L 280.50926 44.13897 M 271.64213 38.45461 L 261.38383 40.14053 L 273.01034 50.71735 L 271.64213 38.45461 M 265.85324 27.39477 L 260.48919 37.22521 L 270.74749 35.53929 L 265.85324 27.39477 M 267.17084 24.58060 L 284.09051 24.30633 L 259.00464 23.13064 L 267.17084 24.58060 M 255.82126 24.57417 L 258.62341 35.85457 L 263.98746 26.02413 L 255.82126 24.57417 M 253.33355 25.12014 L 244.08583 30.39193 L 256.13571 36.40054 L 253.33355 25.12014 M 243.52952 22.79648 L 195.66152 22.86713 L 216.32371 23.01237 L 243.52952 22.79648 M 235.66054 22.75958 L 153.37190 22.71721 L 187.79254 22.83023 L 235.66054 22.75958 M 234.78103 24.13978 L 227.99655 24.81842 L 228.16539 31.41090 L 234.78103 24.13978 M 233.59548 23.10704 L 218.68098 23.14894 L 226.81100 23.78567 L 233.59548 23.10704 M 225.86591 24.82440 L 217.73589 24.18767 L 226.03475 31.41689 L 225.86591 24.82440 M 225.74092 39.09737 L 217.04137 40.41122 L 223.91597 77.72519 L 225.74092 39.09737 M 253.43471 37.46413 L 241.38483 31.45552 L 231.72561 33.62884 L 253.43471 37.46413 M 268.18286 55.92856 L 256.55635 45.35174 L 233.02229 80.14426 L 268.18286 55.92856 M 287.24989 35.28238 L 275.51392 36.96257 L 281.99036 42.14712 L 287.24989 35.28238 M 286.68884 33.56646 L 277.50197 28.41984 L 274.95287 35.24666 L 286.68884 33.56646 M 289.87795 24.22763 L 313.47040 23.95101 L 264.79209 23.05194 L 289.87795 24.22763 M 304.48106 27.00517 L 299.15167 29.21488 L 302.19321 33.95650 L 304.48106 27.00517 M 305.84400 25.40466 L 318.60189 24.24510 L 295.00944 24.52172 L 305.84400 25.40466 M 328.07594 38.11124 L 323.43388 26.30781 L 316.26542 30.37957 L 328.07594 38.11124 M 318.81165 76.35905 L 319.89694 70.64374 L 313.77257 71.09759 L 318.81165 76.35905 M 317.82210 77.47091 L 312.78302 72.20945 L 311.98051 79.53862 L 317.82210 77.47091 M 308.71712 80.97412 L 301.64388 78.12486 L 299.59076 84.47499 L 308.71712 80.97412 M 309.31073 82.25718 L 300.18437 85.75805 L 306.39277 88.38937 L 309.31073 82.25718 M 304.82840 90.01669 L 298.62000 87.38537 L 296.79579 95.27578 L 304.82840 90.01669 M 304.95120 97.47041 L 305.61980 91.27732 L 297.58719 96.53641 L 304.95120 97.47041 M 302.78510 105.00103 L 304.59686 99.18588 L 297.23285 98.25187 L 302.78510 105.00103 M 313.17414 103.66131 L 306.58953 99.86206 L 304.77776 105.67721 L 313.17414 103.66131 M 314.23134 102.41122 L 313.23539 95.67654 L 307.64673 98.61197 L 314.23134 102.41122 M 312.39025 94.24906 L 307.47018 90.99141 L 306.80158 97.18450 L 312.39025 94.24906 M 296.22480 87.61300 L 285.66680 91.83768 L 294.40059 95.50340 L 296.22480 87.61300 M 299.53288 77.94527 L 291.82918 79.53735 L 297.47976 84.29539 L 299.53288 77.94527 M 298.78845 76.35143 L 291.52434 71.54474 L 291.08475 77.94351 L 298.78845 76.35143 M 288.01006 77.94985 L 282.45015 69.56655 L 280.19043 78.38665 L 288.01006 77.94985 M 292.92598 99.53283 L 284.19220 95.86711 L 284.42796 119.84843 L 292.92598 99.53283 M 274.41081 124.37866 L 233.38361 98.05687 L 253.58023 138.11511 L 274.41081 124.37866 M 283.23412 152.72288 L 290.48973 150.63178 L 284.05081 131.84340 L 283.23412 152.72288 M 288.72636 162.06767 L 291.07418 154.40981 L 283.81856 156.50091 L 288.72636 162.06767 M 284.34359 168.73446 L 287.88504 163.85825 L 282.97724 158.29149 L 284.34359 168.73446 M 285.44578 170.68167 L 291.79475 173.86922 L 288.98723 165.80546 L 285.44578 170.68167 M 277.35106 170.81171 L 283.02685 169.60364 L 281.66049 159.16068 L 277.35106 170.81171 M 275.69800 170.01558 L 280.00743 158.36455 L 269.80238 163.23465 L 275.69800 170.01558 M 286.56070 197.59668 L 287.07639 189.96755 L 272.50742 192.46847 L 286.56070 197.59668 M 276.57359 205.43847 L 285.24785 199.53054 L 271.19457 194.40233 L 276.57359 205.43847 M 280.32911 220.11587 L 283.15139 211.93925 L 277.35560 209.67427 L 280.32911 220.11587 M 278.82377 220.44091 L 275.85026 209.99931 L 271.10867 214.53954 L 278.82377 220.44091 M 275.33742 228.24654 L 278.64078 223.39013 L 269.97460 222.83533 L 275.33742 228.24654 M 273.40046 228.69749 L 268.03765 223.28628 L 263.14516 226.99770 L 273.40046 228.69749 M 277.48857 228.90751 L 287.18381 228.12309 L 280.79193 224.05110 L 277.48857 228.90751 M 281.03829 237.79721 L 276.08311 231.89370 L 274.28836 241.25273 L 281.03829 237.79721 M 273.74345 243.60015 L 271.72380 250.67306 L 280.49338 240.14463 L 273.74345 243.60015 M 264.73458 243.08417 L 271.17018 242.43469 L 264.32321 237.24438 L 264.73458 243.08417 M 264.29033 234.23477 L 272.93205 230.06605 L 262.67674 228.36626 L 264.29033 234.23477 M 262.04190 234.54818 L 260.42831 228.67967 L 254.94457 232.57334 L 262.04190 234.54818 M 261.60323 225.77726 L 266.49572 222.06584 L 261.06500 218.93401 L 261.60323 225.77726 M 260.08681 225.84358 L 259.54858 219.00032 L 254.36437 222.59634 L 260.08681 225.84358 M 261.38254 216.25291 L 267.76433 214.03818 L 263.19249 209.67506 L 261.38254 216.25291 M 259.53418 215.98339 L 261.34412 209.40555 L 252.97741 211.88206 L 259.53418 215.98339 M 253.79803 209.34047 L 262.16475 206.86396 L 266.09916 195.65071 L 253.79803 209.34047 M 251.36843 220.86932 L 249.99587 213.17195 L 242.67603 216.12869 L 251.36843 220.86932 M 241.73710 222.83008 L 250.33608 222.07658 L 241.64369 217.33595 L 241.73710 222.83008 M 234.58003 219.58208 L 239.76760 222.51827 L 239.67418 217.02414 L 234.58003 219.58208 M 233.00334 215.77521 L 238.09749 213.21726 L 227.15407 192.06325 L 233.00334 215.77521 M 224.85941 220.98811 L 230.65016 227.28616 L 231.92089 220.55229 L 224.85941 220.98811 M 219.82945 214.15667 L 221.04167 190.00890 L 196.25969 196.34660 L 219.82945 214.15667 M 224.99039 233.20285 L 229.78385 228.86748 L 223.99310 222.56943 L 224.99039 233.20285 M 232.16786 230.43803 L 232.93655 237.46391 L 237.50303 232.44334 L 232.16786 230.43803 M 234.22096 238.65424 L 242.44313 239.96068 L 238.78744 233.63367 L 234.22096 238.65424 M 244.51846 239.32694 L 250.82357 233.58434 L 240.86276 232.99993 L 244.51846 239.32694 M 246.10914 240.71543 L 253.58820 244.10782 L 252.41425 234.97283 L 246.10914 240.71543 M 249.25035 251.29049 L 253.19271 246.14753 L 245.71365 242.75514 L 249.25035 251.29049 M 250.90630 252.94812 L 258.96130 256.01625 L 254.84867 247.80517 L 250.90630 252.94812 M 260.42946 255.09292 L 262.65156 245.56146 L 256.31683 246.88184 L 260.42946 255.09292 M 262.15667 257.89530 L 265.71860 262.87747 L 268.79474 254.78728 L 262.15667 257.89530 M 268.60334 252.71390 L 264.18738 246.29047 L 261.96527 255.82193 L 268.60334 252.71390 M 278.26758 255.37180 L 326.09366 281.19010 L 287.03716 244.84337 L 278.26758 255.37180 M 258.59827 266.24688 L 264.44404 264.30992 L 260.88211 259.32775 L 258.59827 266.24688 M 258.78001 267.97811 L 262.33597 273.17760 L 264.62577 266.04115 L 258.78001 267.97811 M 249.96027 264.50707 L 256.78780 266.27152 L 259.07164 259.35239 L 249.96027 264.50707 M 261.05629 281.25821 L 261.88979 275.07973 L 258.33382 269.88024 L 261.05629 281.25821 M 269.16314 283.51409 L 323.18866 287.92727 L 269.99664 277.33561 L 269.16314 283.51409 M 233.93019 286.91823 L 256.70789 282.51747 L 247.15790 269.37504 L 233.93019 286.91823 M 231.20076 283.72417 L 244.42847 266.18098 L 234.87249 256.96502 L 231.20076 283.72417 M 225.95102 286.25531 L 229.62274 259.49616 L 202.43048 286.43008 L 225.95102 286.25531 M 176.20425 287.34890 L 184.17581 287.07506 L 176.95649 253.13234 L 176.20425 287.34890 M 149.60622 287.27116 L 155.08091 290.98947 L 160.98830 289.21799 L 149.60622 287.27116 M 146.82937 287.57832 L 138.77348 291.67530 L 152.30406 291.29663 L 146.82937 287.57832 M 128.90338 287.95325 L 135.21344 290.78780 L 138.18968 282.93422 L 128.90338 287.95325 M 127.93573 286.26469 L 137.22203 281.24566 L 127.47229 277.27930 L 127.93573 286.26469 M 126.75716 288.60689 L 121.01994 288.16335 L 133.06722 291.44144 L 126.75716 288.60689 M 127.46341 274.16990 L 134.38101 272.12721 L 130.69686 267.39855 L 127.46341 274.16990 M 121.44835 265.00471 L 125.84683 273.27959 L 129.08028 266.50824 L 121.44835 265.00471 M 114.53739 271.98787 L 124.02897 273.96455 L 119.63049 265.68967 L 114.53739 271.98787 M 103.94491 266.54234 L 111.13562 270.92176 L 109.09862 263.51693 L 103.94491 266.54234 M 101.07686 273.60842 L 110.13290 272.18320 L 102.94219 267.80377 L 101.07686 273.60842 M 92.70573 271.77999 L 98.89847 273.55802 L 100.76380 267.75337 L 92.70573 271.77999 M 91.54856 270.18876 L 99.60663 266.16214 L 89.64113 260.82817 L 91.54856 270.18876 M 81.37404 269.53565 L 79.62397 278.20216 L 88.40970 272.49404 L 81.37404 269.53565 M 71.71603 270.34977 L 77.53726 277.93413 L 79.28733 269.26762 L 71.71603 270.34977 M 66.44303 276.65770 L 75.93172 278.85789 L 70.11049 271.27353 L 66.44303 276.65770 M 66.50158 278.30385 L 70.57894 284.44274 L 75.99028 280.50404 L 66.50158 278.30385 M 64.96981 279.14785 L 63.73605 287.25603 L 69.04717 285.28674 L 64.96981 279.14785 M 70.47601 286.50040 L 65.16490 288.46969 L 76.40056 288.85708 L 70.47601 286.50040 M 62.70514 289.12581 L 50.79792 291.74936 L 73.94080 289.51320 L 62.70514 289.12581 M 56.78601 284.97925 L 62.20341 287.21760 L 63.43716 279.10942 L 56.78601 284.97925 M 88.83624 290.06835 L 96.27246 290.46811 L 92.28912 282.82847 L 88.83624 290.06835 M 96.47110 291.76911 L 59.99196 292.34801 L 122.92122 292.25776 L 96.47110 291.76911 M 99.33612 290.60437 L 105.51712 290.21405 L 103.18122 283.90912 L 99.33612 290.60437 M 104.57361 282.98567 L 106.90950 289.29059 L 110.47521 283.21675 L 104.57361 282.98567 M 93.90074 281.92911 L 97.88407 289.56876 L 101.72917 282.87350 L 93.90074 281.92911 M 104.96168 254.84250 L 109.32238 260.38295 L 112.13273 254.41584 L 104.96168 254.84250 M 104.75309 251.16163 L 111.92414 250.73497 L 107.65368 230.93597 L 104.75309 251.16163 M 112.19597 227.12048 L 125.37329 249.12369 L 132.18458 218.43346 L 112.19597 227.12048 M 105.31052 198.03515 L 107.70721 219.25647 L 111.84852 198.74587 L 105.31052 198.03515 M 89.76303 192.56321 L 94.43606 197.91767 L 101.38200 194.97721 L 89.76303 192.56321 M 91.53050 185.19749 L 103.14948 187.61150 L 108.57584 138.99195 L 91.53050 185.19749 M 75.16466 179.07457 L 88.03240 184.13038 L 105.07774 137.92483 L 75.16466 179.07457 M 69.69110 185.89430 L 67.20902 191.28516 L 76.63909 192.14766 L 69.69110 185.89430 M 67.34751 193.30457 L 70.79900 202.04954 L 76.77758 194.16707 L 67.34751 193.30457 M 61.68976 182.93849 L 65.34035 190.13402 L 67.82243 184.74316 L 61.68976 182.93849 M 60.27951 183.44530 L 56.54041 188.79757 L 63.93010 190.64082 L 60.27951 183.44530 M 55.70692 175.36217 L 65.94498 181.63978 L 54.42608 169.77994 L 55.70692 175.36217 M 52.09303 168.96055 L 47.28057 175.08462 L 53.37387 174.54277 L 52.09303 168.96055 M 42.85944 159.57570 L 44.49428 166.62707 L 50.61518 166.35781 L 42.85944 159.57570 M 49.65271 155.35297 L 57.40844 162.13507 L 98.84042 132.84517 L 49.65271 155.35297 M 35.32077 167.85151 L 35.70618 176.41595 L 42.00009 168.66417 L 35.32077 167.85151 M 33.80987 176.62563 L 33.42447 168.06118 L 26.82968 170.34158 L 33.80987 176.62563 M 36.84728 177.36845 L 44.44963 175.47149 L 43.14120 169.61667 L 36.84728 177.36845 M 38.42826 184.91737 L 43.86052 177.38408 L 36.25817 179.28104 L 38.42826 184.91737 M 39.68407 185.61233 L 46.30470 184.84072 L 45.11633 178.07904 L 39.68407 185.61233 M 39.67900 187.57944 L 45.07575 193.81598 L 46.29963 186.80784 L 39.67900 187.57944 M 31.32203 186.53382 L 34.97076 195.79832 L 36.89205 187.76926 L 31.32203 186.53382 M 23.74946 180.23335 L 24.00986 188.70237 L 28.64386 184.90806 L 23.74946 180.23335 M 25.12669 161.69569 L 32.81216 164.79568 L 30.00206 155.88197 L 25.12669 161.69569 M 24.52167 158.85359 L 29.39704 153.03986 L 27.97195 142.05880 L 24.52167 158.85359 M 23.61637 129.01740 L 23.79908 155.85078 L 27.24936 139.05600 L 23.61637 129.01740 M 24.67514 124.83725 L 28.30814 134.87584 L 32.26928 122.40955 L 24.67514 124.83725 M 25.53249 114.51837 L 24.32819 122.29256 L 31.92233 119.86487 L 25.53249 114.51837 M 24.08018 100.30815 L 25.16426 110.52645 L 28.85624 105.92201 L 24.08018 100.30815 M 24.56714 90.70158 L 24.19676 96.47051 L 30.50259 91.20812 L 24.56714 90.70158 M 31.13197 92.83423 L 24.82615 98.09662 L 29.60221 103.71048 L 31.13197 92.83423 M 39.63562 86.03824 L 34.43487 90.13894 L 44.51879 91.51122 L 39.63562 86.03824 M 34.53144 80.63243 L 39.54967 83.39437 L 43.64872 77.22282 L 34.53144 80.63243 M 25.13441 76.46952 L 31.22151 77.47775 L 28.27457 55.75557 L 25.13441 76.46952 M 33.75431 52.87314 L 51.18049 66.67869 L 54.49317 61.32674 L 33.75431 52.87314 M 52.46617 70.99354 L 47.10422 75.50056 L 52.71442 77.53297 L 52.46617 70.99354 M 54.05319 70.82530 L 54.30144 77.36473 L 59.80036 74.15469 L 54.05319 70.82530 M 57.80365 63.77458 L 54.49097 69.12653 L 60.23813 72.45592 L 57.80365 63.77458 M 59.69735 63.40383 L 62.13183 72.08517 L 69.64056 66.16054 L 59.69735 63.40383 M 62.07751 54.36866 L 58.95682 47.14272 L 58.50423 59.32224 L 62.07751 54.36866 M 65.06958 55.13716 L 71.43951 62.84745 L 72.95014 50.53400 L 65.06958 55.13716 M 75.62514 50.33684 L 74.11451 62.65029 L 86.46953 53.55987 L 75.62514 50.33684 M 66.24388 42.01412 L 59.92428 44.97921 L 63.04497 52.20515 L 66.24388 42.01412 M 71.90776 31.98466 L 61.79009 35.54698 L 67.43595 38.71938 L 71.90776 31.98466 M 66.04448 25.72625 L 61.61616 33.92284 L 71.73383 30.36052 L 66.04448 25.72625 M 63.95396 25.54302 L 55.00971 28.89460 L 59.52565 33.73960 L 63.95396 25.54302 M 54.28084 30.94233 L 58.12303 41.92481 L 58.79678 35.78732 L 54.28084 30.94233 M 49.83350 30.18015 L 44.40953 25.96397 L 32.48424 44.88855 L 49.83350 30.18015 M 79.78494 26.88810 L 68.31558 24.84691 L 74.00492 29.48118 L 79.78494 26.88810 M 89.87315 28.45194 L 83.83358 27.88884 L 88.88515 34.88286 L 89.87315 28.45194 M 96.93965 38.72929 L 90.42774 38.43487 L 90.65039 49.57954 L 96.93965 38.72929 M 108.13450 30.05636 L 100.69134 36.67079 L 106.70884 39.43160 L 108.13450 30.05636 M 107.47231 28.32923 L 101.41133 25.61454 L 100.02915 34.94366 L 107.47231 28.32923 M 117.48187 32.08560 L 110.29914 40.07666 L 123.65658 40.44713 L 117.48187 32.08560 M 119.47271 31.28344 L 125.64742 39.64496 L 126.22583 33.65936 L 119.47271 31.28344 M 121.36714 23.98318 L 104.07858 24.24448 L 110.13956 26.95917 L 121.36714 23.98318 M 124.84261 25.10589 L 119.37211 29.46605 L 126.12523 31.84198 L 124.84261 25.10589 M 131.97770 22.89748 L 106.80834 23.73677 L 124.09691 23.47547 L 131.97770 22.89748 M 135.67045 25.15336 L 129.07228 32.46744 L 135.06772 35.04774 L 135.67045 25.15336 M 144.79897 24.25512 L 138.39111 23.69396 L 143.82699 30.12543 L 144.79897 24.25512 M 152.26892 23.10667 L 139.44635 22.81662 L 145.85421 23.37777 L 152.26892 23.10667 M 153.04547 24.02545 L 146.63076 24.29655 L 145.65879 30.16687 L 153.04547 24.02545 M 157.23410 24.22601 L 161.06308 29.28611 L 168.92413 26.98236 L 157.23410 24.22601 M 160.71480 31.74996 L 157.58458 36.42339 L 165.43915 36.95960 L 160.71480 31.74996 M 155.27340 38.90435 L 149.48549 45.70618 L 155.86787 45.33197 L 155.27340 38.90435 M 154.72636 47.35931 L 148.34398 47.73352 L 146.14130 55.12308 L 154.72636 47.35931 M 143.93025 33.86238 L 137.89164 37.32528 L 146.22778 44.25633 L 143.93025 33.86238 M 137.05667 38.84351 L 137.25051 46.00820 L 145.39281 45.77456 L 137.05667 38.84351 M 135.97263 48.68556 L 129.03628 52.87286 L 141.91226 55.84148 L 135.97263 48.68556 M 139.47936 63.67952 L 126.60339 60.71090 L 116.50948 111.38988 L 139.47936 63.67952 M 157.77474 68.26181 L 143.37578 64.62339 L 120.40590 112.33375 L 157.77474 68.26181 M 161.88497 75.16869 L 124.51613 119.24062 L 176.25758 119.87840 L 161.88497 75.16869 M 177.23466 40.46718 L 173.02583 44.75119 L 183.20271 46.75571 L 177.23466 40.46718 M 175.40736 39.45118 L 168.58432 38.62771 L 171.19853 43.73519 L 175.40736 39.45118 M 171.79566 29.31134 L 168.65896 36.82473 L 175.48200 37.64820 L 171.79566 29.31134 M 173.46990 28.76678 L 177.15624 37.10364 L 182.05288 32.46825 L 173.46990 28.76678 M 170.14603 28.44946 L 162.28498 30.75322 L 167.00933 35.96286 L 170.14603 28.44946 M 177.86882 22.86562 L 143.44818 22.75260 L 156.27074 23.04265 L 177.86882 22.86562 M 181.37062 23.30082 L 159.77254 23.47785 L 171.46257 26.23419 L 181.37062 23.30082 M 184.26676 24.22336 L 174.35872 27.15674 L 182.94170 30.85821 L 184.26676 24.22336 M 194.22064 25.87824 L 186.25799 32.18654 L 194.25145 37.45679 L 194.22064 25.87824 M 197.33287 45.54245 L 190.41081 51.19613 L 217.80057 79.63963 L 197.33287 45.54245 M 214.79714 89.74343 L 173.17010 71.48154 L 187.54271 116.19125 L 214.79714 89.74343 M 223.37699 98.80182 L 212.28602 134.01318 L 225.64548 135.18508 L 223.37699 98.80182 M 126.46101 126.82489 L 177.44407 135.84285 L 178.20247 127.46267 L 126.46101 126.82489 M 124.83788 131.80688 L 167.39416 159.75458 L 173.64417 148.38878 L 124.83788 131.80688 M 121.25091 136.18136 L 150.68178 177.16239 L 158.07383 170.35135 L 121.25091 136.18136 M 113.77176 139.28639 L 114.88339 188.61666 L 126.55982 186.84230 L 113.77176 139.28639 M 111.16970 139.43834 L 105.74333 188.05789 L 112.28133 188.76861 L 111.16970 139.43834 M 111.02784 110.93327 L 121.12174 60.25429 L 95.62619 60.02659 L 111.02784 110.93327 M 53.64746 79.67209 L 48.82139 89.28421 L 59.14638 76.46205 L 53.64746 79.67209 M 51.47487 80.72198 L 41.76562 84.86112 L 46.64879 90.33410 L 51.47487 80.72198 M 42.46643 124.52997 L 47.78496 150.65233 L 96.97267 128.14454 L 42.46643 124.52997 M 49.40816 184.24871 L 58.41848 181.41813 L 54.31310 176.94518 L 49.40816 184.24871 M 47.11553 196.95953 L 50.76799 203.82233 L 53.56871 198.85692 L 47.11553 196.95953 M 52.70880 206.09848 L 57.53730 212.57379 L 60.61425 203.72801 L 52.70880 206.09848 M 46.56134 210.68502 L 55.78068 213.44342 L 50.95219 206.96811 L 46.56134 210.68502 M 43.31398 211.65665 L 30.73227 211.94598 L 46.77439 217.21021 L 43.31398 211.65665 M 38.81683 206.02411 L 48.92400 204.71823 L 45.27155 197.85543 L 38.81683 206.02411 M 36.28670 208.10782 L 29.42131 210.80818 L 42.00302 210.51885 L 36.28670 208.10782 M 36.38630 198.92363 L 37.24962 205.29979 L 43.70434 197.13110 L 36.38630 198.92363 M 24.15625 208.07585 L 26.34435 243.78614 L 26.33363 214.50099 L 24.15625 208.07585 M 58.92671 215.40011 L 61.34412 221.70956 L 64.48366 213.55376 L 58.92671 215.40011 M 67.17198 212.93079 L 70.98295 218.66201 L 73.48276 212.84090 L 67.17198 212.93079 M 67.09875 211.34204 L 73.40954 211.25215 L 70.39713 205.95205 L 67.09875 211.34204 M 77.65596 214.15023 L 75.15615 219.97133 L 100.55755 223.40541 L 77.65596 214.15023 M 75.05713 222.23754 L 76.86380 232.27987 L 100.45853 225.67162 L 75.05713 222.23754 M 78.74068 235.16663 L 90.07220 245.33164 L 102.33542 228.55838 L 78.74068 235.16663 M 77.40367 254.68816 L 86.80182 257.38831 L 88.19768 250.70402 L 77.40367 254.68816 M 34.90277 250.32172 L 68.40520 251.58200 L 59.11052 229.81510 L 34.90277 250.32172 M 32.40691 246.71013 L 56.61466 226.20350 L 48.43832 222.68921 L 32.40691 246.71013 M 31.41204 260.25113 L 44.80465 287.81181 L 51.29447 282.94991 L 31.41204 260.25113 M 84.92650 206.78942 L 78.87726 212.50249 L 101.77885 221.75768 L 84.92650 206.78942 M 131.69269 256.23616 L 134.73752 262.60921 L 166.51761 246.95694 L 131.69269 256.23616 M 182.06366 236.20208 L 214.95720 219.93082 L 191.38744 202.12075 L 182.06366 236.20208 M 185.57324 240.26543 L 219.46406 234.62759 L 218.46678 223.99417 L 185.57324 240.26543 M 186.67409 243.43294 L 227.27358 249.33423 L 220.56491 237.79510 L 186.67409 243.43294 M 297.63506 216.52551 L 286.48531 213.30465 L 290.05490 225.55326 L 297.63506 216.52551 M 297.53633 213.60815 L 289.26505 202.21439 L 286.38658 210.38729 L 297.53633 213.60815 M 298.89738 211.89609 L 297.27496 196.69081 L 290.62610 200.50233 L 298.89738 211.89609 M 328.02360 278.73062 L 293.70716 235.69597 L 288.96710 242.38389 L 328.02360 278.73062 M 324.40141 283.84990 L 276.57533 258.03160 L 273.49919 266.12180 L 324.40141 283.84990 M 423.45244 261.63725 L 424.13057 275.10180 L 424.76211 203.88658 L 423.45244 261.63725 M 422.08883 223.36420 L 423.19723 255.17005 L 424.50689 197.41938 L 422.08883 223.36420 M 410.08266 125.98352 L 372.19561 122.72843 L 372.96158 132.22194 L 410.08266 125.98352 M 417.60099 115.74754 L 421.12072 76.15359 L 391.70145 86.67301 L 417.60099 115.74754 M 418.66585 69.23825 L 397.96200 60.42482 L 389.24658 79.75767 L 418.66585 69.23825 M 422.86039 65.09392 L 422.80292 46.60304 L 402.15655 56.28050 L 422.86039 65.09392 M 425.85672 62.43450 L 426.12715 35.00509 L 425.79924 43.94362 L 425.85672 62.43450 M 424.42006 39.89360 L 424.74796 30.95508 L 414.82324 30.03435 L 424.42006 39.89360 M 409.11563 30.95843 L 399.73353 28.67025 L 398.06609 50.49513 L 409.11563 30.95843 M 390.15867 54.34479 L 370.52952 44.69328 L 367.15293 49.58231 L 390.15867 54.34479 M 389.92476 59.51881 L 364.00249 64.39942 L 371.57476 76.44239 L 389.92476 59.51881 M 392.38288 61.58342 L 374.03288 78.50699 L 383.66746 80.91627 L 392.38288 61.58342 M 363.40226 106.60774 L 361.40729 99.12525 L 356.80573 108.06377 L 363.40226 106.60774 M 352.91449 110.84194 L 341.26476 111.68511 L 348.52361 119.05144 L 352.91449 110.84194 M 128.04705 34.36739 L 127.46864 40.35299 L 134.04249 36.94769 L 128.04705 34.36739 M 111.15714 42.40641 L 124.34593 50.72356 L 124.51459 42.77687 L 111.15714 42.40641" fill="none" stroke="black" stroke-width="0.01cm" />
   </g>
</svg>