<?xml version="1.0" standalone="no"?>
  <!DOCTYPE svg PUBLIC "-//W3C//DTD SVG 1.1//EN" 
    "http://www.w3.org/Graphics/SVG/1.1/DTD/svg11.dtd">
  <svg width="12.7cm" height="8.89cm"
       xmlns="http://www.w3.org/2000/svg" version="1.1" viewBox="0 0 449.99999 314.99999">
   <g>
     <path d="M 233.19478 146.59349 L 227.32687 141.30304 L 226.49085 152.67872 L 233.19478 146.59349 M 225.38529 141.53447 L 217.66215 148.44496 L 224.54927 152.91015 L 225.38529 141.53447 M 225.92503 156.66735 L 223.63406 164.92215 L 231.79522 158.87211 L 225.92503 156.66735 M 235.39870 165.31266 L 249.80480 158.94375 L 235.75571 159.16843 L 235.39870 165.31266 M 239.58787 166.73033 L 269.26909 170.50978 L 253.99398 160.36142 L 239.58787 166.73033 M 249.97491 156.88172 L 236.75956 148.81642 L 235.92581 157.10640 L 249.97491 156.88172 M 251.08906 155.09309 L 244.83900 142.79740 L 237.87370 147.02779 L 251.08906 155.09309 M 257.32685 156.14606 L 271.23168 153.73651 L 267.62112 145.56542 L 257.32685 156.14606 M 267.20576 141.04358 L 267.15490 131.35114 L 257.66546 137.83494 L 267.20576 141.04358 M 276.34709 138.07615 L 269.49011 131.38130 L 269.54097 141.07374 L 276.34709 138.07615 M 286.44027 139.02330 L 279.53282 139.67230 L 281.26241 147.79703 L 286.44027 139.02330 M 286.53708 136.76616 L 282.03693 129.73991 L 279.62964 137.41516 L 286.53708 136.76616 M 294.20083 142.99194 L 297.24222 134.26720 L 289.84558 137.88884 L 294.20083 142.99194 M 302.06529 149.56052 L 303.89603 141.48634 L 296.29789 145.09092 L 302.06529 149.56052 M 312.16773 154.47257 L 311.34639 146.36696 L 304.65643 151.14522 L 312.16773 154.47257 M 322.05011 153.97039 L 313.52060 146.72011 L 314.34194 154.82572 L 322.05011 153.97039 M 327.58959 161.67388 L 332.88555 158.36283 L 325.67373 156.02493 L 327.58959 161.67388 M 326.11522 162.60358 L 324.19936 156.95463 L 321.09061 165.80037 L 326.11522 162.60358 M 332.53271 156.44244 L 324.76685 146.31078 L 325.32088 154.10455 L 332.53271 156.44244 M 342.05827 161.91773 L 345.25766 147.00885 L 336.66918 157.38814 L 342.05827 161.91773 M 344.28908 162.10667 L 354.51567 158.89969 L 347.48847 147.19779 L 344.28908 162.10667 M 336.23170 168.72679 L 340.93003 164.63247 L 335.54093 160.10288 L 336.23170 168.72679 M 344.22033 178.78933 L 342.01495 166.96828 L 337.31663 171.06260 L 344.22033 178.78933 M 356.12738 179.43078 L 358.61411 173.55062 L 353.48988 170.19621 L 356.12738 179.43078 M 355.76808 185.96719 L 348.32897 185.96149 L 360.54129 216.61308 L 355.76808 185.96719 M 366.99991 189.27150 L 358.10195 186.38095 L 362.87515 217.02683 L 366.99991 189.27150 M 367.47795 184.32468 L 366.69947 177.45228 L 358.57999 181.43413 L 367.47795 184.32468 M 365.78358 176.19932 L 360.15082 174.30101 L 357.66410 180.18117 L 365.78358 176.19932 M 366.66884 174.55568 L 364.74615 167.03204 L 361.03608 172.65737 L 366.66884 174.55568 M 371.49378 165.74688 L 373.41647 173.27053 L 415.01713 162.37610 L 371.49378 165.74688 M 371.28731 163.73285 L 414.81066 160.36207 L 371.76475 157.15830 L 371.28731 163.73285 M 364.26759 163.71036 L 364.74503 157.13580 L 358.65290 160.18210 L 364.26759 163.71036 M 362.93735 164.97399 L 357.32265 161.44574 L 354.10304 167.24491 L 362.93735 164.97399 M 362.99187 151.76267 L 357.26955 132.42719 L 349.87254 143.10707 L 362.99187 151.76267 M 343.37838 144.91438 L 327.02404 145.16201 L 334.78990 155.29367 L 343.37838 144.91438 M 342.99502 142.17167 L 331.72301 133.35203 L 326.64067 142.41930 L 342.99502 142.17167 M 344.64957 140.57529 L 339.87708 129.64820 L 333.37756 131.75564 L 344.64957 140.57529 M 338.19213 127.40240 L 331.16995 122.60886 L 331.69260 129.50984 L 338.19213 127.40240 M 339.38253 126.14389 L 341.21584 119.44178 L 332.36035 121.35036 L 339.38253 126.14389 M 340.67771 117.61771 L 335.07752 111.55131 L 331.82223 119.52628 L 340.67771 117.61771 M 351.06877 116.43576 L 344.25006 118.56873 L 347.98204 123.20102 L 351.06877 116.43576 M 351.33264 114.41006 L 350.09296 106.99543 L 344.51392 116.54303 L 351.33264 114.41006 M 348.31883 106.43351 L 337.13959 109.91471 L 342.73979 115.98111 L 348.31883 106.43351 M 349.74684 102.97738 L 350.76760 95.43289 L 341.96385 99.35773 L 349.74684 102.97738 M 352.80701 95.37661 L 351.78624 102.92110 L 358.27905 98.90752 L 352.80701 95.37661 M 350.83052 92.53243 L 349.76882 85.80310 L 342.50806 90.42793 L 350.83052 92.53243 M 348.36273 84.52660 L 339.58180 82.32048 L 341.10197 89.15143 L 348.36273 84.52660 M 349.21046 82.51383 L 347.88378 73.04926 L 340.42952 80.30771 L 349.21046 82.51383 M 336.95904 80.04598 L 335.70619 72.23255 L 330.15369 80.97501 L 336.95904 80.04598 M 327.89129 84.08317 L 322.69876 86.42175 L 329.60492 93.83024 L 327.89129 84.08317 M 320.11816 84.11673 L 320.17139 78.46912 L 314.09944 78.69916 L 320.11816 84.11673 M 319.17279 85.44780 L 313.15406 80.03023 L 312.60838 89.11767 L 319.17279 85.44780 M 320.92866 99.87025 L 312.81491 93.26217 L 313.25695 102.90829 L 320.92866 99.87025 M 323.38457 108.13976 L 322.24987 101.72994 L 314.57816 104.76799 L 323.38457 108.13976 M 322.00302 109.46155 L 313.19661 106.08978 L 311.19747 112.30424 L 322.00302 109.46155 M 322.48384 111.01039 L 311.67829 113.85308 L 317.04315 118.48052 L 322.48384 111.01039 M 332.59287 108.62805 L 324.50171 102.21245 L 325.63641 108.62227 L 332.59287 108.62805 M 333.19603 107.30244 L 330.46168 98.01740 L 325.10486 100.88684 L 333.19603 107.30244 M 338.23334 100.10371 L 332.10274 97.91950 L 334.83709 107.20455 L 338.23334 100.10371 M 358.31033 101.04454 L 351.81751 105.05812 L 353.05719 112.47275 L 358.31033 101.04454 M 368.63572 112.95670 L 367.66415 98.58622 L 361.80201 100.37921 L 368.63572 112.95670 M 370.54048 113.18761 L 377.04013 102.22650 L 369.56892 98.81713 L 370.54048 113.18761 M 366.79987 117.77551 L 354.71303 116.62624 L 358.23049 125.70852 L 366.79987 117.77551 M 368.11984 121.83519 L 359.55046 129.76820 L 365.27278 149.10368 L 368.11984 121.83519 M 371.22639 120.49847 L 368.37933 147.76696 L 384.40285 119.07442 L 371.22639 120.49847 M 388.17546 112.52940 L 392.06060 106.36796 L 381.49865 102.99235 L 388.17546 112.52940 M 394.46591 118.50537 L 421.48831 150.40169 L 408.68501 112.74230 L 394.46591 118.50537 M 392.30097 104.65223 L 390.09844 98.80361 L 381.73902 101.27662 L 392.30097 104.65223 M 394.58137 103.81950 L 399.98219 94.61474 L 392.37884 97.97087 L 394.58137 103.81950 M 408.57043 103.96078 L 411.28569 95.51572 L 403.63729 94.35764 L 408.57043 103.96078 M 415.55117 103.16446 L 412.77493 96.61657 L 410.05966 105.06164 L 415.55117 103.16446 M 410.63290 93.19282 L 403.34809 85.37762 L 402.98450 92.03475 L 410.63290 93.19282 M 417.07390 87.44662 L 412.48595 81.81461 L 413.21371 92.28714 L 417.07390 87.44662 M 418.42922 86.34086 L 424.05626 83.44107 L 413.84127 80.70885 L 418.42922 86.34086 M 423.77365 92.60347 L 418.48487 88.79523 L 414.62467 93.63575 L 423.77365 92.60347 M 423.61880 94.23039 L 414.46982 95.26267 L 417.24606 101.81056 L 423.61880 94.23039 M 425.12897 91.49772 L 425.46723 84.78968 L 419.84019 87.68947 L 425.12897 91.49772 M 426.11902 79.66149 L 426.69205 61.93711 L 424.14324 71.09639 L 426.11902 79.66149 M 411.19452 75.85116 L 419.43374 70.01828 L 399.23103 56.04445 L 411.19452 75.85116 M 409.08077 77.06405 L 397.11727 57.25734 L 402.52372 79.72137 L 409.08077 77.06405 M 400.96887 90.91502 L 401.33246 84.25789 L 394.50784 84.23504 L 400.96887 90.91502 M 384.69810 89.05884 L 390.62936 83.97695 L 382.69689 83.79126 L 384.69810 89.05884 M 377.71507 99.88635 L 375.94003 94.46642 L 370.24386 96.47698 L 377.71507 99.88635 M 369.73355 81.40089 L 367.47001 75.02986 L 361.08747 79.13138 L 369.73355 81.40089 M 366.38104 73.70928 L 361.02184 70.83620 L 359.99851 77.81079 L 366.38104 73.70928 M 346.56975 69.01837 L 339.95103 58.08021 L 337.86264 68.46339 L 346.56975 69.01837 M 322.90496 70.44068 L 314.16361 69.54942 L 320.48817 75.93292 L 322.90496 70.44068 M 319.77951 60.60924 L 309.87869 58.93960 L 312.63751 66.56889 L 319.77951 60.60924 M 309.62102 65.99637 L 306.86220 58.36709 L 295.64760 56.02911 L 309.62102 65.99637 M 307.59331 68.01814 L 293.61989 58.05087 L 290.64053 74.54120 L 307.59331 68.01814 M 289.48329 56.98115 L 274.50047 59.46038 L 286.50393 73.47148 L 289.48329 56.98115 M 287.82948 46.32099 L 277.68936 49.66382 L 289.98489 52.87593 L 287.82948 46.32099 M 291.63027 36.94353 L 282.46550 42.18554 L 288.54298 43.71980 L 291.63027 36.94353 M 299.28005 38.65074 L 293.73209 36.50168 L 290.64479 43.27795 L 299.28005 38.65074 M 300.33067 39.82754 L 291.69541 44.45475 L 302.13703 45.91610 L 300.33067 39.82754 M 302.33848 38.85038 L 304.14484 44.93895 L 307.75789 36.63751 L 302.33848 38.85038 M 301.21134 47.51356 L 290.76972 46.05220 L 292.92514 52.60714 L 301.21134 47.51356 M 313.82884 45.03954 L 309.19418 37.41115 L 305.58113 45.71259 L 313.82884 45.03954 M 319.67270 39.11279 L 310.95563 36.58617 L 315.59028 44.21457 L 319.67270 39.11279 M 329.15687 43.48282 L 322.52866 40.39411 L 323.09275 48.84985 L 329.15687 43.48282 M 332.41171 33.27107 L 333.04681 40.95572 L 348.21921 33.22898 L 332.41171 33.27107 M 329.13047 30.60404 L 331.26405 23.97476 L 320.47078 26.20666 L 329.13047 30.60404 M 315.81237 26.59520 L 308.70693 25.01374 L 309.76189 33.06191 L 315.81237 26.59520 M 305.85234 23.46325 L 323.75104 22.81281 L 276.13186 22.88991 L 305.85234 23.46325 M 269.40989 31.70024 L 266.61144 37.51840 L 277.66607 33.45218 L 269.40989 31.70024 M 266.37131 31.47466 L 253.35743 31.64750 L 263.57286 37.29281 L 266.37131 31.47466 M 262.20920 38.31401 L 251.99376 32.66869 L 255.46196 39.64419 L 262.20920 38.31401 M 260.67946 48.95606 L 255.41520 42.67687 L 253.10259 49.32070 L 260.67946 48.95606 M 259.79256 57.77090 L 252.48886 52.05387 L 250.77853 58.46050 L 259.79256 57.77090 M 257.25628 65.79041 L 256.16533 73.61168 L 263.93321 67.17440 L 257.25628 65.79041 M 264.49929 69.29040 L 256.73140 75.72768 L 261.78491 82.71840 L 264.49929 69.29040 M 271.89522 60.67851 L 268.64124 66.72618 L 283.89867 74.68961 L 271.89522 60.67851 M 269.32827 58.74454 L 263.36314 59.21783 L 266.07430 64.79221 L 269.32827 58.74454 M 268.97999 57.07939 L 263.28802 51.47100 L 263.01485 57.55268 L 268.97999 57.07939 M 272.90334 50.50739 L 264.52408 50.59034 L 270.21605 56.19872 L 272.90334 50.50739 M 250.61899 51.47646 L 244.83354 53.15161 L 248.90865 57.88309 L 250.61899 51.47646 M 245.51266 44.52067 L 244.40904 51.48130 L 250.19449 49.80615 L 245.51266 44.52067 M 243.75749 43.90653 L 236.15313 44.89309 L 242.65387 50.86717 L 243.75749 43.90653 M 242.47199 41.47713 L 232.36986 31.43195 L 234.86763 42.46369 L 242.47199 41.47713 M 241.24666 51.94425 L 234.74592 45.97018 L 232.49978 52.52321 L 241.24666 51.94425 M 237.24219 61.77945 L 231.30961 55.41718 L 228.03884 62.18074 L 237.24219 61.77945 M 238.79973 64.08490 L 233.94181 68.32203 L 239.42454 70.02496 L 238.79973 64.08490 M 232.92206 71.15312 L 231.36262 80.45543 L 237.68387 79.13425 L 232.92206 71.15312 M 222.82156 74.49690 L 222.87192 66.71691 L 199.22797 83.52532 L 222.82156 74.49690 M 228.67528 83.63807 L 217.20270 88.94894 L 229.21718 89.98219 L 228.67528 83.63807 M 238.48133 81.10751 L 232.16008 82.42868 L 239.30172 86.93916 L 238.48133 81.10751 M 239.21078 90.04089 L 232.61104 91.87454 L 237.21189 99.57727 L 239.21078 90.04089 M 240.62750 90.54746 L 238.62862 100.08384 L 243.94484 95.92706 L 240.62750 90.54746 M 248.29223 87.41260 L 241.83545 88.96355 L 245.15279 94.34316 L 248.29223 87.41260 M 247.70113 85.81100 L 240.42396 81.53030 L 241.24435 87.36194 L 247.70113 85.81100 M 252.81285 77.14756 L 241.87002 80.25350 L 249.14719 84.53420 L 252.81285 77.14756 M 259.02610 99.21178 L 251.40034 103.21711 L 257.58133 105.79759 L 259.02610 99.21178 M 258.63322 108.05869 L 255.65859 113.48564 L 264.23484 109.29312 L 258.63322 108.05869 M 252.34094 114.97786 L 245.75261 112.30231 L 247.25661 118.47943 L 252.34094 114.97786 M 253.51885 116.39446 L 248.43452 119.89603 L 255.17587 123.63509 L 253.51885 116.39446 M 245.18597 118.97536 L 243.68196 112.79824 L 235.77578 118.94528 L 245.18597 118.97536 M 244.23569 120.73701 L 234.82551 120.70693 L 236.07977 126.89147 L 244.23569 120.73701 M 231.23554 120.94216 L 215.51598 122.61886 L 232.48981 127.12670 L 231.23554 120.94216 M 236.08877 103.24117 L 229.51471 104.82207 L 232.19895 110.06844 L 236.08877 103.24117 M 247.76038 104.04429 L 239.46934 103.07783 L 244.37840 109.37618 L 247.76038 104.04429 M 269.85485 96.89930 L 262.03311 98.57636 L 266.18997 106.39659 L 269.85485 96.89930 M 269.44073 94.57578 L 262.87702 87.80846 L 261.61900 96.25284 L 269.44073 94.57578 M 284.59172 103.42126 L 273.45269 96.97877 L 276.01188 102.26692 L 284.59172 103.42126 M 285.85585 100.91840 L 286.12492 82.24401 L 274.71681 94.47590 L 285.85585 100.91840 M 292.37606 112.90824 L 287.86500 106.76884 L 286.54801 116.46563 L 292.37606 112.90824 M 295.82498 121.52077 L 293.37106 114.75224 L 287.54301 118.30962 L 295.82498 121.52077 M 296.89636 131.06135 L 295.93408 124.37146 L 284.99957 127.65674 L 296.89636 131.06135 M 309.45030 127.35009 L 308.32765 116.13509 L 299.92097 122.67891 L 309.45030 127.35009 M 318.92366 130.94592 L 312.07208 131.08969 L 312.92101 141.52450 L 318.92366 130.94592 M 329.75622 129.67265 L 329.23357 122.77167 L 322.70107 128.70483 L 329.75622 129.67265 M 330.02842 118.65883 L 333.28371 110.68385 L 326.32725 110.67806 L 330.02842 118.65883 M 324.02251 141.02109 L 329.10484 131.95382 L 322.04968 130.98601 L 324.02251 141.02109 M 322.15711 142.39406 L 320.18428 132.35897 L 314.18164 142.93754 L 322.15711 142.39406 M 309.80688 166.96524 L 312.20785 157.93675 L 306.55694 161.72458 L 309.80688 166.96524 M 308.43982 168.21903 L 305.18988 162.97837 L 301.27135 167.96704 L 308.43982 168.21903 M 299.73219 167.27826 L 303.65071 162.28959 L 296.12648 162.70881 L 299.73219 167.27826 M 291.35863 172.36160 L 293.41221 163.71649 L 287.59581 166.27539 L 291.35863 172.36160 M 277.49428 170.38940 L 284.86943 165.67982 L 282.73908 160.32856 L 277.49428 170.38940 M 273.31351 169.25571 L 271.94323 156.69780 L 258.03840 159.10735 L 273.31351 169.25571 M 279.30333 148.31797 L 277.57374 140.19324 L 270.76762 143.19082 L 279.30333 148.31797 M 279.60938 127.11323 L 273.97363 122.44756 L 270.34510 128.09362 L 279.60938 127.11323 M 283.96432 119.54868 L 275.67603 121.37944 L 281.31178 126.04511 L 283.96432 119.54868 M 276.35565 111.81867 L 268.17201 110.29814 L 273.37065 118.77089 L 276.35565 111.81867 M 268.51821 127.30450 L 272.14674 121.65844 L 264.99424 120.80030 L 268.51821 127.30450 M 265.93487 129.58285 L 257.44553 126.89720 L 256.44543 136.06664 L 265.93487 129.58285 M 254.20710 136.18311 L 255.20719 127.01367 L 248.02822 130.51459 L 254.20710 136.18311 M 253.06365 137.70640 L 246.88477 132.03788 L 246.05963 139.20000 L 253.06365 137.70640 M 244.07432 138.23513 L 244.89946 131.07301 L 237.18117 129.98749 L 244.07432 138.23513 M 208.19325 122.46548 L 197.28953 108.17958 L 200.53126 138.50888 L 208.19325 122.46548 M 194.97429 111.41082 L 189.67131 148.31539 L 198.21602 141.74012 L 194.97429 111.41082 M 193.59786 106.32946 L 187.20459 101.08923 L 188.29488 143.23403 L 193.59786 106.32946 M 194.89542 88.90963 L 196.84772 99.12242 L 209.85277 90.55025 L 194.89542 88.90963 M 190.83983 87.91798 L 183.80132 87.85723 L 186.39886 92.89054 L 190.83983 87.91798 M 176.58738 91.68892 L 133.12827 118.57147 L 179.18491 96.72222 L 176.58738 91.68892 M 153.83657 71.11499 L 129.95973 115.37057 L 173.41884 88.48801 L 153.83657 71.11499 M 148.77539 67.78626 L 132.92940 61.85820 L 124.89854 112.04184 L 148.77539 67.78626 M 141.32565 55.32331 L 134.98278 54.76838 L 150.82878 60.69644 L 141.32565 55.32331 M 144.83272 45.61293 L 142.24635 53.44910 L 149.26518 52.98398 L 144.83272 45.61293 M 132.95817 47.19115 L 125.71665 51.16341 L 131.26283 52.80558 L 132.95817 47.19115 M 123.67883 52.11421 L 116.65564 54.79752 L 129.22501 53.75638 L 123.67883 52.11421 M 115.41040 46.46551 L 114.92881 53.88616 L 121.95200 51.20285 L 115.41040 46.46551 M 125.52817 39.57474 L 124.99981 49.50956 L 132.24134 45.53730 L 125.52817 39.57474 M 118.13572 33.52329 L 115.87731 42.67830 L 122.94727 37.48083 L 118.13572 33.52329 M 116.64361 33.08904 L 111.01044 34.00678 L 114.38520 42.24405 L 116.64361 33.08904 M 109.40263 34.77217 L 103.78112 39.21214 L 112.77739 43.00943 L 109.40263 34.77217 M 96.30956 34.23880 L 101.72264 38.11581 L 107.34415 33.67584 L 96.30956 34.23880 M 94.52303 41.15261 L 100.12000 39.05040 L 94.70692 35.17340 L 94.52303 41.15261 M 103.88365 50.81148 L 97.81733 55.14715 L 110.96643 54.80730 L 103.88365 50.81148 M 96.16933 56.41571 L 90.69967 60.95993 L 109.31843 56.07586 L 96.16933 56.41571 M 93.22647 67.93174 L 116.38376 112.19017 L 111.84524 63.04767 L 93.22647 67.93174 M 128.87006 61.16006 L 116.30069 62.20121 L 120.83921 111.34371 L 128.87006 61.16006 M 132.03915 30.38879 L 126.51495 36.43169 L 134.08298 36.37055 L 132.03915 30.38879 M 141.30166 26.92144 L 124.08147 24.07548 L 132.57084 27.96597 L 141.30166 26.92144 M 145.79831 29.98474 L 145.49034 41.36792 L 151.63183 38.24324 L 145.79831 29.98474 M 158.12722 27.47914 L 147.37792 28.24865 L 153.21144 36.50715 L 158.12722 27.47914 M 170.45793 28.76552 L 191.96447 45.92863 L 219.60128 30.40454 L 170.45793 28.76552 M 190.36143 57.91317 L 184.29665 83.48506 L 191.33515 83.54581 L 190.36143 57.91317 M 229.51230 45.75850 L 199.37772 50.25085 L 227.26617 52.31153 L 229.51230 45.75850 M 232.98543 22.93365 L 137.97695 23.35025 L 165.94644 25.42671 L 232.98543 22.93365 M 228.16253 22.58335 L 127.36326 22.62425 L 133.15406 22.99994 L 228.16253 22.58335 M 248.70166 29.78647 L 252.96894 23.94306 L 235.07330 28.07514 L 248.70166 29.78647 M 264.54320 23.56889 L 258.27941 23.35817 L 267.02601 29.02874 L 264.54320 23.56889 M 348.43328 31.18413 L 334.75936 24.59695 L 332.62578 31.22622 L 348.43328 31.18413 M 349.14332 35.51448 L 333.97092 43.24122 L 339.80457 51.55509 L 349.14332 35.51448 M 370.67406 27.44936 L 355.41820 33.20121 L 359.57532 46.52752 L 370.67406 27.44936 M 373.91764 23.68992 L 399.19786 23.03918 L 344.98785 22.85459 L 373.91764 23.68992 M 388.37289 53.44398 L 363.13636 53.40062 L 369.76870 69.06457 L 388.37289 53.44398 M 422.15889 33.63946 L 410.61146 26.77747 L 399.46904 46.54973 L 422.15889 33.63946 M 424.69974 30.82656 L 419.79585 24.04650 L 413.15231 23.96457 L 424.69974 30.82656 M 427.34528 206.50098 L 427.16740 85.59328 L 427.19518 157.16242 L 427.34528 206.50098 M 422.38308 215.31740 L 426.74724 222.71650 L 426.59714 173.37793 L 422.38308 215.31740 M 411.83350 220.70033 L 419.01970 219.74228 L 411.24044 215.21802 L 411.83350 220.70033 M 412.83453 231.73663 L 410.62405 223.57133 L 406.54056 229.06264 L 412.83453 231.73663 M 401.34766 227.48793 L 404.83810 216.51431 L 371.88448 224.62125 L 401.34766 227.48793 M 401.10949 235.70692 L 400.88159 229.88700 L 371.41840 227.02033 L 401.10949 235.70692 M 419.80625 248.55996 L 406.99180 240.27893 L 405.43451 249.49550 L 419.80625 248.55996 M 392.84196 258.17314 L 402.06398 250.69715 L 403.62126 241.48058 L 392.84196 258.17314 M 392.74717 270.43065 L 389.54137 263.65773 L 383.23279 271.10841 L 392.74717 270.43065 M 387.01619 282.34319 L 394.64949 281.61479 L 393.73512 273.67419 L 387.01619 282.34319 M 383.20756 282.57996 L 380.41210 274.58871 L 373.69483 282.83114 L 383.20756 282.57996 M 378.79766 289.41179 L 383.00576 284.43284 L 373.49303 284.68402 L 378.79766 289.41179 M 371.71479 291.38595 L 377.38628 290.28093 L 372.08166 285.55316 L 371.71479 291.38595 M 363.40966 287.35928 L 369.71506 283.83392 L 364.39210 278.83446 L 363.40966 287.35928 M 359.97157 291.26274 L 332.89183 285.91092 L 310.88707 288.81429 L 359.97157 291.26274 M 338.34752 284.38360 L 359.48872 287.42799 L 360.47116 278.90317 L 338.34752 284.38360 M 338.27870 282.08249 L 360.40234 276.60206 L 358.93817 269.01912 L 338.27870 282.08249 M 328.52440 280.47368 L 321.20170 260.30219 L 310.35014 270.83971 L 328.52440 280.47368 M 304.11767 287.46848 L 326.12242 284.56511 L 305.81631 280.49626 L 304.11767 287.46848 M 300.14521 287.05961 L 301.84385 280.08739 L 294.34278 281.29411 L 300.14521 287.05961 M 296.02601 270.59754 L 304.46941 269.94158 L 300.77356 262.09518 L 296.02601 270.59754 M 293.80456 269.11472 L 298.55211 260.61236 L 286.69779 258.07907 L 293.80456 269.11472 M 284.95049 275.25947 L 291.92513 271.89188 L 283.38456 268.42640 L 284.95049 275.25947 M 283.36568 266.36879 L 291.90626 269.83428 L 284.79949 258.79862 L 283.36568 266.36879 M 273.64106 272.12523 L 279.59818 267.65077 L 269.15714 268.04545 L 273.64106 272.12523 M 268.83506 266.60156 L 279.27610 266.20687 L 271.06440 260.57408 L 268.83506 266.60156 M 266.67787 265.88708 L 268.90722 259.85960 L 262.01858 260.49102 L 266.67787 265.88708 M 264.00417 258.31356 L 270.89280 257.68214 L 282.56254 248.46741 L 264.00417 258.31356 M 255.89927 270.59692 L 265.05188 267.22924 L 260.39259 261.83319 L 255.89927 270.59692 M 243.11461 278.19644 L 254.46203 281.12394 L 252.80284 273.95891 L 243.11461 278.19644 M 239.00341 276.32071 L 237.73318 266.92670 L 232.53089 271.27450 L 239.00341 276.32071 M 241.07677 265.55639 L 252.03523 270.71286 L 249.59136 264.54952 L 241.07677 265.55639 M 222.67620 263.54930 L 214.64255 261.42389 L 216.80106 271.71480 L 222.67620 263.54930 M 218.70978 274.86296 L 225.57238 280.66737 L 228.92484 272.63927 L 218.70978 274.86296 M 227.95632 281.07059 L 237.78130 278.08869 L 231.30878 273.04248 L 227.95632 281.07059 M 231.07717 289.35070 L 237.25310 288.25336 L 227.87190 284.01202 L 231.07717 289.35070 M 233.93293 290.32916 L 250.71795 291.83968 L 240.10886 289.23181 L 233.93293 290.32916 M 240.37952 287.54016 L 246.26352 286.62702 L 240.82330 280.31693 L 240.37952 287.54016 M 256.96412 291.42308 L 272.11106 291.29209 L 258.14622 284.51947 L 256.96412 291.42308 M 268.41732 292.40421 L 349.77187 292.36855 L 283.56427 292.27323 L 268.41732 292.40421 M 272.92989 289.54231 L 263.51472 277.42482 L 258.96505 282.76969 L 272.92989 289.54231 M 274.64094 288.62047 L 272.65344 275.39492 L 265.22576 276.50298 L 274.64094 288.62047 M 276.77675 288.79912 L 282.31230 277.93219 L 274.78926 275.57357 L 276.77675 288.79912 M 278.67792 289.52868 L 289.99860 281.41005 L 284.21347 278.66175 L 278.67792 289.52868 M 280.33329 290.74493 L 297.45639 288.39180 L 291.65396 282.62631 L 280.33329 290.74493 M 285.74039 254.18314 L 295.97547 247.75792 L 287.76464 246.90578 L 285.74039 254.18314 M 298.99901 258.11795 L 297.37976 249.15944 L 287.14469 255.58466 L 298.99901 258.11795 M 301.67667 257.65979 L 308.56594 251.91936 L 300.05742 248.70128 L 301.67667 257.65979 M 309.66445 250.27059 L 310.46478 244.46960 L 301.15594 247.05251 L 309.66445 250.27059 M 314.16614 242.33684 L 323.15811 242.40606 L 320.97447 235.72217 L 314.16614 242.33684 M 313.01434 241.35705 L 319.82267 234.74238 L 313.94371 234.56776 L 313.01434 241.35705 M 314.81944 232.73914 L 320.69839 232.91377 L 320.02015 226.72810 L 314.81944 232.73914 M 313.20474 231.94614 L 318.40545 225.93510 L 307.78083 226.56976 L 313.20474 231.94614 M 304.27036 237.39699 L 311.43785 233.37888 L 306.01394 228.00250 L 304.27036 237.39699 M 298.55389 244.60128 L 301.62462 239.24720 L 295.08623 233.43196 L 298.55389 244.60128 M 320.17472 248.00677 L 328.26074 249.04336 L 324.63532 244.51618 L 320.17472 248.00677 M 320.27946 254.72378 L 317.95302 249.43329 L 312.62131 251.67447 L 320.27946 254.72378 M 322.19628 254.55170 L 327.95586 250.29780 L 319.86984 249.26121 L 322.19628 254.55170 M 323.91745 255.29591 L 333.63926 255.21493 L 329.67703 251.04201 L 323.91745 255.29591 M 332.71928 246.74461 L 355.84307 229.61679 L 329.09386 242.21743 L 332.71928 246.74461 M 337.76545 252.16039 L 356.92702 230.85966 L 333.80323 247.98748 L 337.76545 252.16039 M 354.60437 226.17670 L 324.99327 225.90780 L 325.67151 232.09346 L 354.60437 226.17670 M 314.99994 215.55140 L 321.96931 208.88389 L 314.21228 205.87974 L 314.99994 215.55140 M 313.03499 216.30624 L 312.24734 206.63458 L 306.24972 214.92259 L 313.03499 216.30624 M 314.14161 200.81334 L 325.05806 191.21165 L 311.27515 187.62600 L 314.14161 200.81334 M 310.56201 200.76918 L 307.69555 187.58183 L 296.42126 190.85835 L 310.56201 200.76918 M 296.93138 209.10515 L 304.23677 214.02246 L 310.23438 205.73445 L 296.93138 209.10515 M 297.58003 219.91581 L 302.65498 215.79513 L 295.34958 210.87782 L 297.58003 219.91581 M 295.46314 188.18668 L 306.73743 184.91016 L 302.89706 179.39582 L 295.46314 188.18668 M 325.46793 188.46455 L 317.42058 178.83651 L 311.68502 184.87889 L 325.46793 188.46455 M 251.88058 212.34839 L 288.61926 207.65704 L 287.78151 194.37551 L 251.88058 212.34839 M 250.05099 208.70991 L 285.95192 190.73704 L 273.98254 178.54924 L 250.05099 208.70991 M 217.67893 176.00260 L 237.80672 206.39568 L 232.05705 172.45556 L 217.67893 176.00260 M 202.52878 173.12004 L 202.62320 182.02980 L 210.48873 173.36911 L 202.52878 173.12004 M 197.28276 166.24834 L 193.80829 171.86570 L 200.08201 171.19950 L 197.28276 166.24834 M 198.34641 164.83585 L 201.14566 169.78702 L 202.31748 160.56584 L 198.34641 164.83585 M 203.86097 160.20262 L 202.68916 169.42380 L 210.69438 161.93008 L 203.86097 160.20262 M 198.99436 147.42337 L 190.44965 153.99865 L 201.20103 156.87686 L 198.99436 147.42337 M 190.19759 155.95915 L 196.97790 163.10737 L 200.94897 158.83736 L 190.19759 155.95915 M 187.12310 164.88593 L 183.79093 169.52015 L 190.86932 171.52773 L 187.12310 164.88593 M 183.37304 171.09583 L 183.78000 177.49133 L 190.45143 173.10340 L 183.37304 171.09583 M 181.42866 171.25803 L 174.89639 174.40105 L 181.83562 177.65354 L 181.42866 171.25803 M 184.62178 178.73512 L 190.10733 181.04614 L 191.29322 174.34719 L 184.62178 178.73512 M 180.98458 186.89765 L 189.60619 192.54034 L 189.51575 183.97455 L 180.98458 186.89765 M 171.62987 181.88066 L 178.05185 185.27631 L 181.09747 180.04219 L 171.62987 181.88066 M 169.88366 182.95451 L 167.12778 188.63300 L 176.30563 186.35016 L 169.88366 182.95451 M 158.35641 186.57487 L 168.30054 181.63642 L 170.82891 176.54546 L 158.35641 186.57487 M 157.60151 188.11337 L 164.78976 188.85340 L 167.54565 183.17491 L 157.60151 188.11337 M 156.84146 190.01700 L 161.46520 198.40400 L 164.02971 190.75704 L 156.84146 190.01700 M 155.08060 190.33493 L 149.94284 193.30046 L 159.70434 198.72193 L 155.08060 190.33493 M 146.51207 194.66421 L 137.85364 199.75469 L 146.05436 201.57592 L 146.51207 194.66421 M 146.65792 203.58662 L 138.45721 201.76539 L 151.34060 210.74982 L 146.65792 203.58662 M 149.28934 203.63390 L 153.97202 210.79711 L 159.50856 202.14367 L 149.28934 203.63390 M 155.89147 214.65285 L 160.37381 224.32337 L 165.69916 216.15587 L 155.89147 214.65285 M 162.44497 226.10103 L 172.46072 228.87410 L 167.77032 217.93352 L 162.44497 226.10103 M 168.10453 237.19025 L 177.94094 236.85114 L 174.21963 232.20819 L 168.10453 237.19025 M 162.75946 246.89992 L 169.75892 247.08283 L 165.92207 239.95952 L 162.75946 246.89992 M 168.90085 255.25105 L 175.04027 254.74126 L 171.45443 249.65315 L 168.90085 255.25105 M 173.13119 249.31308 L 176.71702 254.40119 L 182.31492 252.53053 L 173.13119 249.31308 M 185.48728 252.13294 L 191.73210 253.56977 L 186.66736 246.56624 L 185.48728 252.13294 M 188.21463 244.22421 L 198.17731 243.95151 L 192.96754 240.67296 L 188.21463 244.22421 M 193.54157 237.98347 L 198.75134 241.26202 L 192.80691 222.70827 L 193.54157 237.98347 M 181.80368 238.41956 L 186.16793 243.53271 L 190.92083 239.98147 L 181.80368 238.41956 M 183.48412 219.33802 L 186.99883 226.76739 L 190.38359 219.02604 L 183.48412 219.33802 M 180.38818 216.85447 L 179.02552 208.76926 L 170.49343 214.67226 L 180.38818 216.85447 M 182.38110 205.48019 L 191.14004 204.98552 L 189.94183 196.93962 L 182.38110 205.48019 M 197.38562 208.19758 L 196.88881 216.46549 L 231.64432 214.86289 L 197.38562 208.19758 M 198.35165 204.86401 L 232.61035 211.52932 L 204.61704 189.79693 L 198.35165 204.86401 M 197.66704 220.29715 L 203.61146 238.85090 L 232.42255 218.69455 L 197.66704 220.29715 M 195.22666 253.59280 L 203.48107 252.58985 L 200.12459 246.31657 L 195.22666 253.59280 M 199.89416 264.80152 L 203.45227 254.90047 L 195.19785 255.90342 L 199.89416 264.80152 M 201.87804 265.28897 L 211.06887 259.80309 L 205.43614 255.38793 L 201.87804 265.28897 M 194.50336 277.27341 L 202.75114 278.68292 L 199.73909 269.81845 L 194.50336 277.27341 M 185.29645 274.41541 L 191.02395 276.47385 L 185.87917 266.88987 L 185.29645 274.41541 M 177.96060 270.96711 L 183.66353 273.72707 L 184.24625 266.20153 L 177.96060 270.96711 M 170.05454 265.79705 L 175.48967 269.18395 L 175.61681 258.08312 L 170.05454 265.79705 M 165.10176 273.92175 L 167.70514 278.92262 L 174.06028 272.40220 L 165.10176 273.92175 M 168.58719 281.73374 L 171.25043 290.06002 L 175.85003 281.56395 L 168.58719 281.73374 M 173.22951 290.98058 L 184.41983 289.09825 L 177.82911 282.48452 L 173.22951 290.98058 M 186.90566 290.19905 L 175.71534 292.08138 L 197.71578 291.29090 L 186.90566 290.19905 M 189.06599 288.76643 L 199.87611 289.85828 L 192.99801 280.62045 L 189.06599 288.76643 M 200.54788 291.55619 L 178.54745 292.34667 L 209.56252 292.32139 L 200.54788 291.55619 M 201.61608 288.89593 L 202.98576 281.06760 L 194.73798 279.65810 L 201.61608 288.89593 M 203.88647 290.32493 L 212.90111 291.09013 L 205.25615 282.49661 L 203.88647 290.32493 M 214.28782 289.39188 L 214.98016 276.73892 L 206.64286 280.79835 L 214.28782 289.39188 M 220.75326 292.21149 L 248.29850 292.21214 L 231.51348 290.70162 L 220.75326 292.21149 M 187.52241 263.78279 L 197.90293 265.91180 L 193.20662 257.01371 L 187.52241 263.78279 M 160.71316 259.03798 L 167.44005 264.59253 L 166.86291 257.38839 L 160.71316 259.03798 M 154.37380 255.74518 L 156.07767 248.31478 L 121.17106 244.03095 L 154.37380 255.74518 M 149.55397 263.66834 L 153.55834 257.66438 L 120.35560 245.95015 L 149.55397 263.66834 M 154.08267 268.93245 L 153.38172 277.60197 L 161.29053 273.38949 L 154.08267 268.93245 M 144.20964 276.17309 L 151.24661 277.94993 L 151.94756 269.28040 L 144.20964 276.17309 M 141.97114 286.16407 L 149.99956 280.06038 L 142.96259 278.28355 L 141.97114 286.16407 M 147.08193 291.43356 L 84.49476 292.01222 L 158.71037 292.29869 L 147.08193 291.43356 M 155.42149 288.98293 L 164.38669 281.52178 L 153.87450 280.73339 L 155.42149 288.98293 M 157.30369 290.28502 L 168.93214 291.15015 L 166.26890 282.82387 L 157.30369 290.28502 M 128.26302 286.83130 L 120.90755 288.83431 L 137.10541 288.08870 L 128.26302 286.83130 M 118.38716 289.54434 L 98.52449 290.36571 L 144.16043 290.94458 L 118.38716 289.54434 M 106.43389 287.40441 L 93.80868 289.92318 L 113.67134 289.10182 L 106.43389 287.40441 M 82.00634 276.95426 L 89.85055 288.40474 L 102.47577 285.88597 L 82.00634 276.95426 M 78.61223 277.17788 L 75.32289 287.67495 L 86.45644 288.62836 L 78.61223 277.17788 M 84.23370 272.08877 L 104.70313 281.02048 L 107.66944 249.48087 L 84.23370 272.08877 M 69.27063 282.73955 L 73.17466 286.93885 L 76.46400 276.44178 L 69.27063 282.73955 M 65.35856 276.23384 L 68.29362 281.40143 L 75.48699 275.10365 L 65.35856 276.23384 M 60.77869 283.94263 L 64.66912 290.25127 L 66.58276 283.94103 L 60.77869 283.94263 M 56.21893 291.40012 L 63.37364 291.18365 L 59.48322 284.87501 L 56.21893 291.40012 M 52.44645 279.62153 L 54.85303 289.95486 L 58.11732 283.42975 L 52.44645 279.62153 M 53.41883 275.95198 L 61.95871 274.59101 L 59.76305 265.76768 L 53.41883 275.95198 M 42.54676 274.42700 L 43.35136 281.79007 L 49.43842 277.71403 L 42.54676 274.42700 M 34.02001 271.40721 L 40.80067 272.03738 L 43.05500 266.59025 L 34.02001 271.40721 M 32.91765 270.28672 L 41.95264 265.46977 L 31.98177 263.07349 L 32.91765 270.28672 M 32.94382 273.10722 L 34.44546 280.19039 L 39.72448 273.73739 L 32.94382 273.10722 M 35.52907 281.33228 L 41.61269 282.24235 L 40.80809 274.87928 L 35.52907 281.33228 M 35.39059 283.27145 L 39.70025 290.39260 L 41.47421 284.18152 L 35.39059 283.27145 M 43.55668 285.20542 L 41.78272 291.41651 L 52.05032 291.46271 L 43.55668 285.20542 M 44.67968 283.73583 L 53.17333 289.99312 L 50.76674 279.65979 L 44.67968 283.73583 M 46.89903 266.16453 L 51.53637 274.89867 L 57.88059 264.71437 L 46.89903 266.16453 M 48.99174 257.33182 L 58.32299 261.35942 L 53.42531 253.53681 L 48.99174 257.33182 M 39.71236 256.61541 L 46.66541 256.73882 L 51.09898 252.94381 L 39.71236 256.61541 M 33.46096 248.61636 L 49.58246 248.45276 L 39.26809 224.31846 L 33.46096 248.61636 M 24.95349 246.61318 L 30.38234 248.38641 L 36.18947 224.08851 L 24.95349 246.61318 M 24.46101 239.95766 L 35.69699 217.43299 L 26.44247 195.14229 L 24.46101 239.95766 M 23.58977 260.10730 L 24.12828 265.79496 L 28.96486 261.97857 L 23.58977 260.10730 M 25.89461 284.58863 L 23.74992 289.64600 L 30.17806 290.85574 L 25.89461 284.58863 M 74.53164 292.12581 L 67.37693 292.34228 L 148.74725 292.41228 L 74.53164 292.12581 M 67.80053 240.87342 L 102.75273 239.16261 L 76.88598 219.37145 L 67.80053 240.87342 M 60.51883 238.43883 L 69.60428 216.93686 L 44.49917 219.68585 L 60.51883 238.43883 M 77.09605 203.39369 L 75.95634 211.18465 L 85.09051 202.96110 L 77.09605 203.39369 M 88.62295 206.90140 L 79.48878 215.12495 L 105.35554 234.91611 L 88.62295 206.90140 M 98.52890 202.38228 L 91.00296 205.30857 L 107.73555 233.32327 L 98.52890 202.38228 M 100.58803 201.78129 L 109.79468 232.72228 L 107.47602 200.50064 L 100.58803 201.78129 M 86.21082 191.34490 L 97.64005 196.60912 L 104.52803 195.32847 L 86.21082 191.34490 M 88.41597 184.14381 L 106.73318 188.12738 L 115.28125 139.00036 L 88.41597 184.14381 M 76.74198 185.08525 L 55.54612 159.12175 L 61.40243 176.47890 L 76.74198 185.08525 M 71.41159 187.96530 L 78.72517 188.69069 L 63.38561 180.08435 L 71.41159 187.96530 M 73.01851 190.42665 L 76.24091 199.77513 L 80.33208 191.15204 L 73.01851 190.42665 M 57.93330 179.56660 L 41.39347 182.33266 L 59.67252 189.66361 L 57.93330 179.56660 M 49.84963 168.82441 L 45.20401 173.75278 L 57.26527 176.29782 L 49.84963 168.82441 M 39.63634 166.77709 L 43.00039 172.56269 L 47.64602 167.63432 L 39.63634 166.77709 M 29.60489 171.04210 L 28.00655 176.71423 L 34.72742 179.94667 L 29.60489 171.04210 M 23.52977 166.40609 L 25.29303 182.41887 L 26.28327 176.47380 L 23.52977 166.40609 M 23.89956 164.74649 L 26.65307 174.81420 L 28.25140 169.14208 L 23.89956 164.74649 M 24.24178 162.71946 L 28.59362 167.11505 L 29.39084 158.59795 L 24.24178 162.71946 M 30.90354 158.91273 L 30.10633 167.42983 L 36.34339 165.23771 L 30.90354 158.91273 M 32.19918 154.92852 L 40.71427 151.46069 L 37.39620 145.34896 L 32.19918 154.92852 M 43.60356 152.72567 L 45.50171 158.17038 L 50.09732 153.49197 L 43.60356 152.72567 M 43.84974 151.29718 L 50.34350 152.06347 L 47.47113 146.74243 L 43.84974 151.29718 M 38.46886 141.62403 L 44.47791 137.00580 L 38.08945 135.85910 L 38.46886 141.62403 M 38.65759 134.35944 L 45.04605 135.50613 L 43.01395 129.62673 L 38.65759 134.35944 M 45.83932 133.61067 L 45.00375 119.19577 L 43.80722 127.73127 L 45.83932 133.61067 M 53.53875 133.35292 L 105.40267 125.66923 L 52.70318 118.93802 L 53.53875 133.35292 M 43.76027 117.50485 L 35.89148 120.08332 L 42.56374 126.04035 L 43.76027 117.50485 M 35.03547 116.90708 L 42.90426 114.32862 L 35.71568 100.63049 L 35.03547 116.90708 M 26.03193 122.46041 L 30.51271 126.32101 L 32.58266 120.66512 L 26.03193 122.46041 M 25.12229 123.88646 L 25.30555 132.07352 L 29.60307 127.74705 L 25.12229 123.88646 M 24.03430 115.38864 L 25.22213 121.09386 L 31.77286 119.29857 L 24.03430 115.38864 M 22.75302 132.43784 L 22.62261 227.33167 L 22.84080 166.50352 L 22.75302 132.43784 M 26.57221 133.34415 L 35.25558 134.05155 L 30.86973 129.01769 L 26.57221 133.34415 M 26.45716 134.59848 L 29.94937 139.05231 L 35.14054 135.30588 L 26.45716 134.59848 M 25.30883 136.05966 L 25.95387 146.99531 L 28.80103 140.51349 L 25.30883 136.05966 M 31.24405 139.97693 L 36.81463 141.99542 L 36.43522 136.23050 L 31.24405 139.97693 M 30.09572 141.43811 L 27.24856 147.91993 L 35.66630 143.45660 L 30.09572 141.43811 M 33.48606 100.44028 L 25.06729 112.80695 L 32.80585 116.71688 L 33.48606 100.44028 M 41.06010 94.90111 L 48.24869 108.59924 L 77.79089 71.07202 L 41.06010 94.90111 M 46.18825 47.11257 L 40.80255 87.21527 L 77.53334 63.38618 L 46.18825 47.11257 M 133.65510 125.31120 L 180.80203 145.60675 L 179.71174 103.46195 L 133.65510 125.31120 M 193.15602 174.89800 L 191.97013 181.59694 L 199.52416 183.14155 L 193.15602 174.89800 M 134.88527 205.65760 L 118.08245 234.72425 L 147.76866 214.64203 L 134.88527 205.65760 M 115.10929 233.23734 L 131.91211 204.17069 L 123.98337 202.74674 L 115.10929 233.23734 M 118.67813 247.79253 L 140.13858 272.40342 L 147.87650 265.51072 L 118.67813 247.79253 M 213.42401 92.25847 L 200.41895 100.83063 L 223.46529 102.57535 L 213.42401 92.25847 M 401.21832 212.13973 L 372.38946 192.49135 L 368.26470 220.24668 L 401.21832 212.13973" fill="none" stroke="black" stroke-width="0.01cm" />
   </g>
</svg>