<?xml version="1.0" standalone="no"?>
  <!DOCTYPE svg PUBLIC "-//W3C//DTD SVG 1.1//EN" 
    "http://www.w3.org/Graphics/SVG/1.1/DTD/svg11.dtd">
  <svg width="12.7cm" height="8.89cm"
       xmlns="http://www.w3.org/2000/svg" version="1.1" viewBox="0 0 449.99999 314.99999">
   <g>
     <path d="M 198.90283 150.97643 L 203.62052 159.02088 L 206.04774 153.55006 L 198.90283 150.97643 M 192.62137 157.55181 L 194.04205 164.78022 L 201.58862 160.99928 L 192.62137 157.55181 M 188.94929 145.98195 L 182.76748 150.05660 L 189.96427 154.24726 L 188.94929 145.98195 M 179.05838 134.85075 L 181.62732 140.79395 L 187.61084 142.79760 L 179.05838 134.85075 M 177.11111 134.32289 L 172.03270 138.57469 L 179.68005 140.26608 L 177.11111 134.32289 M 175.80855 132.60445 L 169.25963 126.51861 L 170.73015 136.85626 L 175.80855 132.60445 M 171.31344 140.20130 L 171.35704 147.33576 L 178.96079 141.89269 L 171.31344 140.20130 M 170.51380 151.38995 L 167.97110 160.98373 L 174.71399 157.59798 L 170.51380 151.38995 M 176.93641 160.36823 L 175.76038 167.51642 L 182.72638 169.78948 L 176.93641 160.36823 M 178.59043 159.14961 L 184.38039 168.57086 L 188.99250 157.76747 L 178.59043 159.14961 M 186.66862 171.73021 L 195.47554 177.19599 L 192.70140 168.15524 L 186.66862 171.73021 M 185.47685 173.02244 L 183.16725 178.49307 L 194.28377 178.48822 L 185.47685 173.02244 M 183.39288 180.10667 L 187.28184 185.93122 L 194.50939 180.10182 L 183.39288 180.10667 M 176.20067 183.96351 L 184.99325 186.41393 L 181.10429 180.58938 L 176.20067 183.96351 M 173.21781 177.52437 L 174.72874 182.85232 L 179.63236 179.47819 L 173.21781 177.52437 M 161.61547 174.60541 L 153.84955 182.20225 L 162.91302 181.40544 L 161.61547 174.60541 M 153.28300 184.54479 L 157.08302 193.34574 L 162.34647 183.74798 L 153.28300 184.54479 M 158.57715 194.60579 L 165.23604 194.62518 L 163.84060 185.00803 L 158.57715 194.60579 M 158.19584 196.87170 L 160.79012 203.13528 L 164.85473 196.89109 L 158.19584 196.87170 M 162.17920 203.98417 L 169.30850 203.66276 L 166.24381 197.73997 L 162.17920 203.98417 M 168.88191 196.11801 L 177.27722 199.69723 L 177.95335 193.35206 L 168.88191 196.11801 M 179.57890 202.37576 L 180.25266 208.26868 L 187.29773 205.30822 L 179.57890 202.37576 M 180.22053 201.15894 L 187.93935 204.09140 L 185.38564 198.53413 L 180.22053 201.15894 M 180.94704 209.85842 L 185.13393 215.09368 L 187.99211 206.89796 L 180.94704 209.85842 M 186.88830 215.91874 L 194.98197 216.45886 L 189.74647 207.72302 L 186.88830 215.91874 M 177.95947 221.15821 L 183.87985 216.87621 L 179.69296 211.64095 L 177.95947 221.15821 M 178.19366 223.17635 L 181.56650 227.78604 L 184.11404 218.89435 L 178.19366 223.17635 M 182.98060 228.22353 L 189.50651 226.67625 L 185.52815 219.33184 L 182.98060 228.22353 M 191.02669 225.48317 L 195.14200 218.67888 L 187.04832 218.13876 L 191.02669 225.48317 M 190.34240 236.32959 L 200.24388 234.22971 L 191.95957 229.23224 L 190.34240 236.32959 M 179.41221 238.43182 L 187.24445 243.98262 L 187.50387 238.43542 L 179.41221 238.43182 M 169.14060 233.10337 L 176.53563 236.37816 L 179.71855 230.83169 L 169.14060 233.10337 M 167.14341 241.37671 L 174.96374 237.69629 L 167.56871 234.42149 L 167.14341 241.37671 M 157.96205 227.56933 L 165.34979 231.20139 L 164.17484 222.52274 L 157.96205 227.56933 M 156.82208 226.08811 L 163.03487 221.04152 L 156.23005 219.35164 L 156.82208 226.08811 M 157.53035 217.83318 L 164.33517 219.52305 L 167.22449 213.94038 L 157.53035 217.83318 M 157.09891 216.26919 L 166.79305 212.37640 L 160.88360 207.01115 L 157.09891 216.26919 M 166.50444 220.02122 L 174.88452 221.81850 L 169.39376 214.43855 L 166.50444 220.02122 M 170.83856 213.33570 L 176.32931 220.71565 L 178.06280 211.19839 L 170.83856 213.33570 M 170.22843 211.46904 L 177.45267 209.33173 L 171.44829 205.78239 L 170.22843 211.46904 M 180.73305 192.13651 L 185.22204 195.85686 L 185.95438 189.01843 L 180.73305 192.13651 M 197.87289 215.94393 L 204.60921 218.09871 L 198.04378 200.90861 L 197.87289 215.94393 M 211.93621 215.21065 L 256.48888 192.83941 L 205.37078 198.02054 L 211.93621 215.21065 M 213.28215 218.43541 L 216.13827 223.81861 L 257.83482 196.06417 L 213.28215 218.43541 M 209.40684 228.39264 L 206.55072 223.00944 L 203.98339 232.65641 L 209.40684 228.39264 M 211.53037 245.93692 L 211.37130 239.28270 L 202.68172 245.85604 L 211.53037 245.93692 M 199.48245 256.01004 L 204.42124 263.83159 L 206.23562 257.36441 L 199.48245 256.01004 M 207.99066 265.33838 L 228.03786 268.06432 L 209.80504 258.87120 L 207.99066 265.33838 M 204.02897 291.39493 L 134.13518 291.79000 L 232.40983 292.08712 L 204.02897 291.39493 M 177.45992 279.19598 L 205.45142 287.51457 L 201.88716 269.75783 L 177.45992 279.19598 M 176.24519 275.54193 L 200.67243 266.10378 L 195.73365 258.28223 L 176.24519 275.54193 M 174.59106 273.51146 L 194.07952 256.25175 L 187.43940 249.85995 L 174.59106 273.51146 M 143.10583 257.85485 L 164.60630 273.80864 L 148.55019 250.93148 L 143.10583 257.85485 M 131.22333 251.08280 L 132.18091 259.57201 L 137.57780 256.28982 L 131.22333 251.08280 M 131.70118 249.04348 L 138.05566 254.25050 L 136.00375 243.25747 L 131.70118 249.04348 M 130.75008 233.89910 L 135.76146 239.01738 L 136.82618 231.23406 L 130.75008 233.89910 M 138.54471 231.25525 L 137.47999 239.03857 L 144.49828 234.06864 L 138.54471 231.25525 M 139.39218 229.38681 L 145.34575 232.20020 L 144.25973 224.09105 L 139.39218 229.38681 M 138.35526 227.41465 L 143.22281 222.11889 L 137.05039 216.42290 L 138.35526 227.41465 M 129.81515 221.10947 L 136.67930 227.28847 L 135.37443 216.29672 L 129.81515 221.10947 M 118.91095 225.46029 L 127.78575 231.43209 L 126.99770 222.58804 L 118.91095 225.46029 M 117.79117 226.70948 L 118.03945 232.58153 L 126.66597 232.68127 L 117.79117 226.70948 M 109.32728 229.84406 L 115.87212 232.22688 L 115.62384 226.35483 L 109.32728 229.84406 M 108.65945 228.44862 L 114.95600 224.95939 L 110.52947 221.06336 L 108.65945 228.44862 M 106.84344 227.95571 L 108.71346 220.57045 L 100.42793 221.01610 L 106.84344 227.95571 M 108.27609 231.26656 L 107.21434 237.73484 L 114.82093 233.64938 L 108.27609 231.26656 M 107.62988 239.59995 L 111.60035 246.18746 L 115.23646 235.51450 L 107.62988 239.59995 M 97.43227 230.35259 L 105.04076 237.32274 L 106.10251 230.85446 L 97.43227 230.35259 M 89.28506 221.96647 L 94.66087 227.56561 L 96.91560 221.12787 L 89.28506 221.96647 M 100.09098 218.80817 L 108.37651 218.36251 L 104.14785 210.29222 L 100.09098 218.80817 M 106.39382 209.27136 L 110.62248 217.34166 L 118.05874 210.64129 L 106.39382 209.27136 M 111.85894 219.05113 L 116.28547 222.94716 L 119.29520 212.35077 L 111.85894 219.05113 M 123.03224 211.39917 L 128.10926 219.12330 L 133.66855 214.31056 L 123.03224 211.39917 M 112.29255 198.22603 L 106.60258 206.88190 L 118.26750 208.25184 L 112.29255 198.22603 M 118.04113 189.95731 L 113.76916 194.91689 L 120.11845 195.39415 L 118.04113 189.95731 M 119.58114 189.35278 L 121.65845 194.78962 L 126.08919 190.08065 L 119.58114 189.35278 M 127.67865 191.19023 L 123.24791 195.89921 L 132.29680 198.22944 L 127.67865 191.19023 M 129.35994 190.36959 L 133.97809 197.40880 L 136.69822 189.33404 L 129.35994 190.36959 M 138.21814 190.02055 L 135.49800 198.09531 L 141.51926 195.86166 L 138.21814 190.02055 M 139.93775 188.40389 L 143.23887 194.24500 L 149.25490 185.16203 L 139.93775 188.40389 M 142.58083 197.66521 L 136.55957 199.89886 L 146.71071 204.44895 L 142.58083 197.66521 M 144.84330 197.30583 L 148.97318 204.08957 L 154.65936 197.02381 L 144.84330 197.30583 M 146.23238 220.16244 L 153.49377 217.34271 L 148.99801 208.88685 L 146.23238 220.16244 M 148.35186 233.53511 L 155.58760 236.14936 L 155.11925 229.34270 L 148.35186 233.53511 M 147.45337 235.42540 L 147.93134 244.46499 L 154.68911 238.03965 L 147.45337 235.42540 M 137.60703 270.42349 L 163.23840 276.24514 L 141.73794 260.29135 L 137.60703 270.42349 M 136.56129 273.64156 L 133.37207 286.03596 L 162.19267 279.46321 L 136.56129 273.64156 M 122.80463 273.94881 L 128.44856 285.34666 L 131.63779 272.95226 L 122.80463 273.94881 M 117.11128 282.01046 L 126.63275 286.47893 L 120.98881 275.08108 L 117.11128 282.01046 M 99.72215 287.26134 L 108.38222 290.22064 L 104.94003 282.09648 L 99.72215 287.26134 M 98.27097 288.44904 L 93.33058 291.59809 L 106.93104 291.40834 L 98.27097 288.44904 M 97.19762 279.45412 L 98.32408 285.91552 L 103.54196 280.75067 L 97.19762 279.45412 M 97.52513 277.55650 L 103.86947 278.85304 L 100.94417 270.73450 L 97.52513 277.55650 M 102.49063 267.94511 L 109.03876 270.13963 L 106.27397 261.16541 L 102.49063 267.94511 M 93.88083 262.84556 L 90.24953 268.90351 L 99.02592 267.99444 L 93.88083 262.84556 M 96.27683 251.44855 L 105.60915 257.08367 L 109.26920 249.90054 L 96.27683 251.44855 M 96.23249 249.48132 L 109.22486 247.93331 L 105.25438 241.34580 L 96.23249 249.48132 M 84.97012 251.50237 L 91.06994 250.00611 L 83.04617 242.49982 L 84.97012 251.50237 M 78.70957 258.56224 L 84.26743 261.01365 L 83.73245 254.51015 L 78.70957 258.56224 M 78.07553 260.07802 L 78.66011 266.63642 L 83.63339 262.52944 L 78.07553 260.07802 M 75.10800 249.28174 L 82.97488 251.41183 L 81.05093 242.40928 L 75.10800 249.28174 M 63.83399 249.90321 L 65.60513 261.58119 L 71.26504 251.24433 L 63.83399 249.90321 M 56.67340 243.76516 L 62.27653 246.57199 L 66.17961 239.07931 L 56.67340 243.76516 M 56.35716 235.36694 L 55.93347 242.36453 L 65.43969 237.67868 L 56.35716 235.36694 M 57.69896 233.03008 L 66.78150 235.34183 L 66.66792 223.66972 L 57.69896 233.03008 M 50.94264 220.96715 L 55.71911 231.23325 L 64.68807 221.87288 L 50.94264 220.96715 M 38.93593 222.51577 L 45.26229 226.28860 L 46.91943 220.48918 L 38.93593 222.51577 M 39.77605 234.43579 L 43.77570 239.92905 L 45.00633 229.77303 L 39.77605 234.43579 M 46.30053 241.53879 L 53.54108 242.84705 L 53.96476 235.84945 L 46.30053 241.53879 M 47.14980 249.73235 L 52.68921 244.58241 L 45.44866 243.27415 L 47.14980 249.73235 M 47.98164 251.33853 L 52.10338 256.12358 L 53.52105 246.18859 L 47.98164 251.33853 M 46.62936 252.68204 L 42.70275 256.93672 L 50.75109 257.46710 L 46.62936 252.68204 M 42.12414 258.35400 L 42.00048 264.02024 L 50.17248 258.88437 L 42.12414 258.35400 M 43.16658 266.49469 L 51.45297 278.14958 L 51.33859 261.35882 L 43.16658 266.49469 M 41.21515 268.26046 L 35.72708 275.48498 L 49.50153 279.91535 L 41.21515 268.26046 M 31.61531 263.84444 L 33.49130 273.47612 L 38.97937 266.25159 L 31.61531 263.84444 M 32.41699 262.00290 L 39.78105 264.41006 L 39.90471 258.74381 L 32.41699 262.00290 M 24.19815 256.51451 L 24.14830 266.48835 L 28.93484 261.98612 L 24.19815 256.51451 M 25.29818 254.47398 L 30.03487 259.94559 L 32.94854 250.16409 L 25.29818 254.47398 M 26.37159 245.65452 L 24.84027 252.68759 L 32.49063 248.37771 L 26.37159 245.65452 M 27.86448 243.65544 L 33.98352 246.37862 L 36.78338 236.69490 L 27.86448 243.65544 M 25.09297 268.64596 L 31.75550 273.77541 L 29.87951 264.14374 L 25.09297 268.64596 M 25.11604 279.58821 L 32.71045 283.61360 L 32.07262 277.15454 L 25.11604 279.58821 M 35.03419 277.43978 L 35.67202 283.89884 L 48.80864 281.87015 L 35.03419 277.43978 M 52.62032 282.99440 L 39.48371 285.02309 L 65.52768 286.43377 L 52.62032 282.99440 M 56.67273 282.18246 L 69.58008 285.62183 L 71.90292 278.52752 L 56.67273 282.18246 M 68.43159 287.39734 L 42.38762 285.98666 L 75.85164 290.70296 L 68.43159 287.39734 M 72.85673 285.79465 L 82.88595 283.56499 L 75.17958 278.70034 L 72.85673 285.79465 M 73.58491 287.28035 L 81.00496 290.58596 L 83.61412 285.05069 L 73.58491 287.28035 M 82.96393 291.08081 L 89.25669 291.23908 L 85.57310 285.54554 L 82.96393 291.08081 M 87.17783 285.11828 L 90.86143 290.81183 L 95.80182 287.66278 L 87.17783 285.11828 M 87.72268 283.74536 L 96.34667 286.28986 L 95.22021 279.82846 L 87.72268 283.74536 M 86.79642 281.97760 L 94.29395 278.06070 L 88.93660 272.14777 L 86.79642 281.97760 M 67.56279 264.47603 L 76.65129 266.87974 L 76.06671 260.32135 L 67.56279 264.47603 M 69.31841 224.28016 L 69.43199 235.95227 L 78.90287 237.91359 L 69.31841 224.28016 M 71.53531 219.23393 L 85.18113 219.66885 L 83.10579 208.78099 L 71.53531 219.23393 M 80.96173 205.61269 L 81.77405 195.22816 L 55.64582 215.15990 L 80.96173 205.61269 M 86.14527 208.72332 L 88.22061 219.61118 L 95.85115 218.77259 L 86.14527 208.72332 M 87.81490 207.38695 L 97.52078 217.43622 L 101.57765 208.92027 L 87.81490 207.38695 M 98.91342 197.44841 L 104.18332 205.53147 L 109.87329 196.87560 L 98.91342 197.44841 M 94.32259 186.92591 L 100.86182 188.30096 L 89.09102 178.34551 L 94.32259 186.92591 M 87.30553 178.44327 L 86.57795 189.08309 L 92.53711 187.02368 L 87.30553 178.44327 M 81.60082 177.20142 L 46.89936 177.08887 L 80.87323 187.84124 L 81.60082 177.20142 M 93.25645 173.58264 L 115.44123 182.52485 L 117.23205 149.83623 L 93.25645 173.58264 M 123.30908 151.17372 L 128.02631 184.59020 L 135.36459 183.55465 L 123.30908 151.17372 M 130.77955 142.22657 L 165.33439 147.37750 L 165.29078 140.24303 L 130.77955 142.22657 M 162.43467 159.36102 L 164.97737 149.76725 L 130.42254 144.61632 L 162.43467 159.36102 M 160.88820 118.46411 L 130.03996 137.32019 L 163.08068 124.99901 L 160.88820 118.46411 M 158.43783 106.76787 L 146.29566 102.08068 L 162.17851 112.52293 L 158.43783 106.76787 M 150.73606 100.99697 L 144.86535 100.63993 L 157.00752 105.32712 L 150.73606 100.99697 M 146.26823 93.73580 L 143.52294 99.19102 L 149.39365 99.54806 L 146.26823 93.73580 M 154.45389 91.08949 L 151.99407 99.02392 L 158.74107 97.12005 L 154.45389 91.08949 M 149.92937 82.01728 L 153.90762 87.56794 L 155.88932 82.43270 L 149.92937 82.01728 M 146.59132 81.39871 L 139.87263 78.64921 L 139.88184 85.78430 L 146.59132 81.39871 M 142.64462 77.45135 L 149.36331 80.20086 L 162.05776 76.20149 L 142.64462 77.45135 M 137.32985 78.78850 L 126.24909 82.51308 L 137.33907 85.92360 L 137.32985 78.78850 M 137.02455 87.69346 L 125.93458 84.28294 L 134.81377 92.94742 L 137.02455 87.69346 M 131.28801 99.60817 L 110.33670 99.52811 L 120.89061 132.39499 L 131.28801 99.60817 M 122.62571 85.02207 L 110.55359 93.60650 L 131.50490 93.68655 L 122.62571 85.02207 M 108.76070 68.60784 L 100.43085 71.87063 L 106.43252 75.34180 L 108.76070 68.60784 M 99.01125 73.17118 L 97.40395 79.01221 L 105.01293 76.64234 L 99.01125 73.17118 M 90.08892 67.22713 L 87.08563 73.12703 L 96.20655 71.47114 L 90.08892 67.22713 M 87.72997 74.56774 L 95.24358 78.75288 L 96.85088 72.91186 L 87.72997 74.56774 M 87.08381 76.12253 L 91.68160 85.35011 L 94.59742 80.30766 L 87.08381 76.12253 M 76.17504 78.05923 L 81.90144 85.75699 L 83.95019 75.91791 L 76.17504 78.05923 M 75.07713 79.68847 L 75.16686 88.95182 L 80.80353 87.38623 L 75.07713 79.68847 M 73.51569 79.02697 L 68.31200 82.09425 L 73.60542 88.29032 L 73.51569 79.02697 M 69.88717 70.64984 L 74.01627 75.62653 L 76.53551 69.13071 L 69.88717 70.64984 M 67.34702 71.44930 L 61.41800 72.45904 L 66.27243 79.49326 L 67.34702 71.44930 M 63.27736 62.64369 L 61.04361 70.35284 L 66.97263 69.34310 L 63.27736 62.64369 M 61.88665 62.14546 L 55.84696 65.35722 L 59.65291 69.85460 L 61.88665 62.14546 M 59.68099 51.11486 L 62.97340 58.58258 L 65.59959 52.03111 L 59.68099 51.11486 M 65.56950 37.51635 L 72.43101 42.64439 L 73.95677 37.02467 L 65.56950 37.51635 M 56.01625 35.06049 L 56.71612 40.55283 L 61.83001 37.06571 L 56.01625 35.06049 M 49.88210 27.86630 L 45.37252 32.92128 L 53.42831 33.19038 L 49.88210 27.86630 M 47.91174 26.74428 L 37.66538 24.21421 L 43.40215 31.79925 L 47.91174 26.74428 M 44.87605 34.45154 L 45.91038 40.10839 L 52.93184 34.72064 L 44.87605 34.45154 M 47.16119 40.93145 L 54.88252 41.03605 L 54.18265 35.54371 L 47.16119 40.93145 M 44.86968 43.45209 L 39.79578 46.86901 L 48.64580 52.39650 L 44.86968 43.45209 M 38.92020 48.23475 L 37.86498 54.37799 L 47.77021 53.76223 L 38.92020 48.23475 M 36.37522 56.16500 L 29.74653 57.56617 L 43.53604 60.51390 L 36.37522 56.16500 M 26.74871 60.29758 L 25.03792 53.87322 L 27.89300 87.38840 L 26.74871 60.29758 M 25.82141 49.80294 L 27.53220 56.22730 L 34.16089 54.82613 L 25.82141 49.80294 M 32.14313 38.93997 L 26.52968 46.87412 L 35.92438 45.75407 L 32.14313 38.93997 M 34.21007 38.29183 L 37.99132 45.10593 L 43.06521 41.68901 L 34.21007 38.29183 M 35.90390 25.25916 L 33.81985 35.10388 L 41.64066 32.84421 L 35.90390 25.25916 M 33.94630 25.06369 L 25.97986 31.28045 L 31.86225 34.90841 L 33.94630 25.06369 M 71.92182 28.16483 L 64.11262 24.92803 L 64.41913 34.56344 L 71.92182 28.16483 M 73.16378 29.47108 L 65.66109 35.86969 L 74.04836 35.37801 L 73.16378 29.47108 M 75.89984 37.60589 L 74.37409 43.22560 L 81.11411 42.16609 L 75.89984 37.60589 M 89.77233 39.64401 L 84.26193 42.87121 L 88.83201 47.53354 L 89.77233 39.64401 M 92.55371 37.15711 L 101.59003 36.49580 L 96.53632 31.52686 L 92.55371 37.15711 M 98.27643 30.70799 L 103.33013 35.67693 L 106.47457 30.60617 L 98.27643 30.70799 M 99.93903 23.38525 L 91.30623 23.67866 L 96.21427 28.57253 L 99.93903 23.38525 M 96.59602 22.69290 L 69.47021 23.03369 L 87.96322 22.98631 L 96.59602 22.69290 M 91.19705 22.66767 L 44.77143 22.78450 L 64.07123 23.00847 L 91.19705 22.66767 M 101.93939 38.12778 L 92.90308 38.78910 L 99.33125 44.58273 L 101.93939 38.12778 M 110.33843 40.68231 L 104.11881 38.36444 L 101.51067 44.81939 L 110.33843 40.68231 M 111.03337 42.40251 L 102.20561 46.53959 L 109.67833 52.12604 L 111.03337 42.40251 M 116.25836 41.78653 L 114.90333 51.51006 L 144.00556 41.61171 L 116.25836 41.78653 M 117.97884 26.88398 L 116.64280 38.70827 L 144.39000 38.53345 L 117.97884 26.88398 M 112.49728 24.07142 L 103.61268 23.42162 L 108.08606 28.50707 L 112.49728 24.07142 M 91.02480 49.92464 L 95.37601 56.20637 L 98.39329 47.82875 L 91.02480 49.92464 M 85.16971 59.04456 L 89.60295 64.28205 L 93.74874 59.04784 L 85.16971 59.04456 M 95.25600 60.40234 L 91.11021 65.63655 L 97.22785 69.88055 L 95.25600 60.40234 M 97.31993 60.54252 L 99.29177 70.02072 L 107.62162 66.75793 L 97.31993 60.54252 M 113.36131 57.89223 L 113.17300 66.89882 L 133.21276 73.93899 L 113.36131 57.89223 M 94.69309 87.86728 L 104.43295 93.07018 L 104.35173 86.01448 L 94.69309 87.86728 M 93.34669 89.19979 L 93.58055 96.67462 L 103.08655 94.40270 L 93.34669 89.19979 M 83.39648 90.35173 L 83.30368 98.11478 L 90.27688 97.21506 L 83.39648 90.35173 M 73.20395 90.88271 L 67.91053 84.68664 L 70.30393 99.76608 L 73.20395 90.88271 M 71.85211 101.53658 L 80.29600 98.85067 L 74.75213 92.65322 L 71.85211 101.53658 M 69.31721 110.55289 L 74.65850 113.56617 L 70.62184 105.16049 L 69.31721 110.55289 M 76.51588 115.46249 L 75.20602 121.29244 L 81.44944 111.48780 L 76.51588 115.46249 M 85.94092 114.14546 L 79.69750 123.95010 L 112.44769 136.72379 L 85.94092 114.14546 M 78.51093 127.20186 L 76.44841 140.15956 L 111.26112 139.97556 L 78.51093 127.20186 M 73.35201 126.21556 L 69.98971 132.08516 L 71.28948 139.17326 L 73.35201 126.21556 M 66.09571 121.48845 L 69.34049 129.87456 L 72.70278 124.00496 L 66.09571 121.48845 M 64.69649 121.94899 L 61.50901 127.68927 L 67.94127 130.33510 L 64.69649 121.94899 M 61.37764 129.54365 L 63.64556 136.78406 L 67.80990 132.18948 L 61.37764 129.54365 M 53.05320 129.54702 L 59.64800 127.59076 L 62.83548 121.85048 L 53.05320 129.54702 M 50.61721 136.14195 L 41.07971 167.36947 L 59.47993 141.42609 L 50.61721 136.14195 M 28.99618 117.21847 L 26.68209 209.77967 L 35.03317 172.86170 L 28.99618 117.21847 M 31.55169 107.48340 L 37.58868 163.12663 L 47.12618 131.89911 L 31.55169 107.48340 M 27.72588 104.48155 L 24.87081 70.96637 L 25.41179 197.04275 L 27.72588 104.48155 M 57.42968 75.04808 L 35.44046 92.16169 L 62.28411 82.08231 L 57.42968 75.04808 M 73.90285 61.97861 L 77.83062 66.38696 L 81.65657 59.60408 L 73.90285 61.97861 M 73.95112 60.30235 L 81.70484 57.92782 L 78.21678 52.97687 L 73.95112 60.30235 M 152.25713 47.40702 L 143.00635 73.35212 L 162.41949 72.10226 L 152.25713 47.40702 M 157.83979 45.41733 L 174.05517 66.84170 L 181.61459 60.70545 L 157.83979 45.41733 M 173.71453 72.58569 L 167.66150 75.85656 L 168.72710 81.96212 L 173.71453 72.58569 M 166.52613 84.54430 L 158.72603 82.85352 L 162.84128 88.82833 L 166.52613 84.54430 M 166.33925 92.30119 L 164.52947 97.49218 L 192.20435 101.16144 L 166.33925 92.30119 M 193.19192 106.26202 L 168.78219 114.58184 L 170.97468 121.11674 L 193.19192 106.26202 M 194.44069 108.06498 L 172.22345 122.91970 L 178.77237 129.00554 L 194.44069 108.06498 M 204.28971 108.86073 L 216.26696 131.54675 L 223.37005 127.54020 L 204.28971 108.86073 M 232.72795 109.26135 L 234.68913 99.49331 L 207.37639 103.26825 L 232.72795 109.26135 M 233.17226 123.94323 L 234.92339 114.65253 L 228.65216 127.33889 L 233.17226 123.94323 M 241.35210 124.06834 L 231.01097 128.42103 L 247.97283 124.26661 L 241.35210 124.06834 M 245.28138 126.42394 L 228.31951 130.57836 L 219.82050 141.32697 L 245.28138 126.42394 M 250.04388 122.93825 L 247.57937 117.79411 L 243.42315 122.73998 L 250.04388 122.93825 M 251.58613 121.93966 L 255.76120 114.75127 L 249.12163 116.79553 L 251.58613 121.93966 M 258.32799 121.39770 L 256.91199 115.32654 L 252.73693 122.51493 L 258.32799 121.39770 M 255.87791 113.01342 L 252.51986 108.03690 L 249.23834 115.05768 L 255.87791 113.01342 M 246.29303 115.11436 L 243.82302 109.83386 L 238.06690 111.72654 L 246.29303 115.11436 M 249.58594 132.35064 L 224.12506 147.25367 L 262.75599 177.99198 L 249.58594 132.35064 M 268.61543 120.28409 L 273.42695 116.85321 L 267.90353 114.29982 L 268.61543 120.28409 M 274.15027 115.36324 L 274.40195 108.36431 L 268.62685 112.80985 L 274.15027 115.36324 M 273.52291 106.93870 L 267.11794 103.95835 L 267.74781 111.38424 L 273.52291 106.93870 M 274.22347 105.11920 L 273.35225 96.82821 L 267.81849 102.13885 L 274.22347 105.11920 M 283.29180 100.56000 L 275.28641 96.63086 L 276.15763 104.92184 L 283.29180 100.56000 M 284.19858 102.14996 L 277.06441 106.51180 L 282.54061 109.35051 L 284.19858 102.14996 M 273.70891 92.87509 L 276.23077 85.25420 L 269.02113 86.42571 L 273.70891 92.87509 M 266.22863 86.96967 L 260.06503 89.88674 L 264.74211 93.13821 L 266.22863 86.96967 M 265.75247 85.20653 L 260.93286 79.03306 L 259.58887 88.12359 L 265.75247 85.20653 M 266.99416 83.71753 L 269.52234 76.21161 L 262.17455 77.54406 L 266.99416 83.71753 M 275.92226 83.26059 L 271.24080 76.92618 L 268.71262 84.43209 L 275.92226 83.26059 M 287.31736 84.12202 L 283.58022 79.64022 L 279.36050 83.52769 L 287.31736 84.12202 M 292.51254 77.24749 L 287.37546 70.36349 L 285.04802 77.41370 L 292.51254 77.24749 M 301.19527 73.93983 L 295.19933 65.48068 L 295.17600 76.31897 L 301.19527 73.93983 M 292.59365 62.92549 L 285.48693 60.38230 L 287.43324 66.87978 L 292.59365 62.92549 M 293.25771 61.48183 L 292.74575 55.33045 L 286.15100 58.93863 L 293.25771 61.48183 M 291.96503 53.74603 L 287.01195 48.80647 L 285.37028 57.35422 L 291.96503 53.74603 M 284.09351 46.61281 L 277.16934 42.30231 L 273.89994 49.05494 L 284.09351 46.61281 M 274.99550 42.25145 L 266.70275 46.20597 L 271.72610 49.00408 L 274.99550 42.25145 M 270.36885 50.89637 L 265.34550 48.09826 L 264.13749 57.38976 L 270.36885 50.89637 M 271.12480 52.09420 L 264.89344 58.58758 L 271.39309 57.68088 L 271.12480 52.09420 M 271.12854 59.34355 L 264.62889 60.25026 L 269.00842 65.39558 L 271.12854 59.34355 M 261.27544 58.89048 L 257.65261 52.65851 L 252.30332 59.84263 L 261.27544 58.89048 M 256.27696 51.81366 L 250.27024 52.13171 L 250.92767 58.99778 L 256.27696 51.81366 M 256.54956 50.03716 L 253.10850 44.78576 L 250.54284 50.35521 L 256.54956 50.03716 M 262.92863 46.49512 L 254.65672 44.30325 L 258.09779 49.55465 L 262.92863 46.49512 M 263.80690 37.77766 L 257.29723 30.21376 L 254.66536 41.18566 L 263.80690 37.77766 M 265.16602 25.68033 L 258.60981 28.27560 L 265.11949 35.83950 L 265.16602 25.68033 M 267.13437 25.77199 L 267.08784 35.93116 L 274.35665 29.00892 L 267.13437 25.77199 M 261.81394 23.65791 L 286.10993 23.00788 L 207.45066 22.90541 L 261.81394 23.65791 M 255.42325 27.43010 L 261.97946 24.83483 L 239.62700 29.07549 L 255.42325 27.43010 M 234.01545 33.89216 L 228.33182 47.58936 L 238.56692 48.02559 L 234.01545 33.89216 M 229.89243 30.69835 L 213.94998 26.87722 L 215.84161 39.99341 L 229.89243 30.69835 M 214.57748 24.23024 L 252.87238 23.81070 L 198.50911 23.05821 L 214.57748 24.23024 M 209.15260 25.56541 L 198.81560 26.60325 L 203.74198 32.28223 L 209.15260 25.56541 M 202.09234 33.20353 L 197.16596 27.52455 L 195.95545 32.93577 L 202.09234 33.20353 M 195.64342 26.39757 L 189.91205 24.18770 L 194.43292 31.80880 L 195.64342 26.39757 M 185.08380 26.82263 L 159.65943 38.99522 L 186.96269 42.92555 L 185.08380 26.82263 M 192.27679 46.59456 L 193.86863 53.31999 L 198.70153 45.51896 L 192.27679 46.59456 M 198.85156 43.34649 L 195.06879 35.94028 L 192.42681 44.42209 L 198.85156 43.34649 M 202.55469 45.41930 L 208.61276 54.33741 L 212.21106 44.68021 L 202.55469 45.41930 M 211.68193 42.38641 L 204.37968 35.98704 L 202.02556 43.12550 L 211.68193 42.38641 M 215.67417 44.76259 L 218.29403 51.33344 L 224.04136 49.16472 L 215.67417 44.76259 M 217.30716 42.49603 L 225.67435 46.89816 L 231.35798 33.20097 L 217.30716 42.49603 M 217.39058 54.00804 L 211.17242 57.09439 L 220.41205 60.90433 L 217.39058 54.00804 M 209.37223 59.29255 L 207.48122 66.21867 L 214.11970 68.47710 L 209.37223 59.29255 M 204.59308 70.46610 L 197.39245 70.28436 L 200.10622 95.71223 L 204.59308 70.46610 M 192.91915 66.57986 L 185.99951 63.35076 L 178.44009 69.48702 L 192.91915 66.57986 M 225.78628 69.77862 L 222.05495 64.02372 L 217.56279 69.39834 L 225.78628 69.77862 M 226.97443 71.96168 L 218.75094 71.58140 L 231.56018 81.48826 L 226.97443 71.96168 M 238.31338 67.56106 L 229.65091 70.66914 L 236.08607 73.87574 L 238.31338 67.56106 M 240.13480 68.07260 L 237.90749 74.38728 L 244.22228 74.76146 L 240.13480 68.07260 M 244.61061 76.74337 L 238.29582 76.36920 L 243.24144 83.92789 L 244.61061 76.74337 M 252.35678 78.94844 L 254.04255 72.01742 L 247.37306 75.70657 L 252.35678 78.94844 M 259.48351 78.50606 L 254.15761 80.99052 L 258.13951 87.59659 L 259.48351 78.50606 M 257.38351 91.07517 L 251.23587 93.43329 L 255.60120 97.37045 L 257.38351 91.07517 M 255.00045 99.01886 L 250.63512 95.08169 L 252.57756 104.26239 L 255.00045 99.01886 M 263.87187 103.95293 L 254.34905 106.64880 L 257.70710 111.62533 L 263.87187 103.95293 M 287.23902 122.05692 L 281.97197 119.85679 L 271.71327 121.47972 L 287.23902 122.05692 M 289.65463 120.88270 L 291.03815 112.08598 L 284.38758 118.68257 L 289.65463 120.88270 M 294.83735 126.17096 L 288.84719 122.84619 L 273.32144 122.26899 L 294.83735 126.17096 M 298.43977 125.51388 L 302.14080 117.01241 L 292.44961 122.18912 L 298.43977 125.51388 M 302.30938 113.49774 L 298.40487 106.19326 L 294.00171 109.87773 L 302.30938 113.49774 M 304.06747 113.14106 L 308.06643 107.02428 L 300.16296 105.83658 L 304.06747 113.14106 M 321.38299 120.91152 L 305.75747 116.85271 L 302.05644 125.35418 L 321.38299 120.91152 M 322.48299 118.82320 L 310.85644 108.64761 L 306.85747 114.76438 L 322.48299 118.82320 M 330.05436 140.49701 L 326.19518 125.06702 L 321.06923 139.10939 L 330.05436 140.49701 M 337.25649 151.34807 L 337.96778 140.46992 L 333.16102 143.56829 L 337.25649 151.34807 M 343.98514 160.43362 L 350.79417 158.14303 L 348.18735 151.75845 L 343.98514 160.43362 M 338.49285 166.97117 L 341.51338 161.92270 L 338.24287 156.33203 L 338.49285 166.97117 M 347.04681 169.08630 L 350.65160 160.30901 L 343.84257 162.59961 L 347.04681 169.08630 M 342.93455 184.13301 L 345.70461 172.69536 L 339.47983 171.25713 L 342.93455 184.13301 M 360.88882 192.09431 L 359.98480 173.40465 L 346.90001 186.52706 L 360.88882 192.09431 M 363.11636 209.84626 L 379.43941 189.60627 L 364.85226 196.48551 L 363.11636 209.84626 M 359.12423 212.47719 L 360.86013 199.11644 L 347.50240 210.65377 L 359.12423 212.47719 M 359.21867 223.50729 L 359.02810 216.82745 L 348.27870 225.41523 L 359.21867 223.50729 M 355.30241 229.77954 L 358.75296 225.12630 L 347.81299 227.03424 L 355.30241 229.77954 M 363.66039 234.15983 L 357.24078 232.29246 L 360.35086 240.61696 L 363.66039 234.15983 M 358.79906 241.03845 L 355.68898 232.71394 L 351.24600 237.53172 L 358.79906 241.03845 M 359.28551 247.58208 L 345.66225 253.36897 L 365.65077 275.76937 L 359.28551 247.58208 M 347.95835 236.35014 L 344.91191 228.78706 L 339.98729 234.33106 L 347.95835 236.35014 M 338.11353 232.88583 L 343.03814 227.34183 L 332.96825 224.78832 L 338.11353 232.88583 M 343.61703 225.06251 L 342.74460 214.65131 L 333.54714 222.50901 L 343.61703 225.06251 M 333.33235 218.57818 L 342.52981 210.72049 L 341.89874 193.61592 L 333.33235 218.57818 M 325.95458 216.26437 L 334.52096 191.30211 L 283.50761 192.21000 L 325.95458 216.26437 M 328.40326 232.94761 L 336.28417 233.58655 L 331.13889 225.48904 L 328.40326 232.94761 M 327.54201 245.54279 L 335.83455 236.09327 L 327.95365 235.45433 L 327.54201 245.54279 M 319.05479 242.42816 L 325.44454 246.33465 L 325.85618 236.24619 L 319.05479 242.42816 M 315.50919 253.29925 L 316.19696 244.25895 L 310.07103 245.75870 L 315.50919 253.29925 M 324.38723 258.76044 L 325.17495 250.27897 L 318.09743 255.41278 L 324.38723 258.76044 M 326.85451 258.29320 L 337.83564 251.67491 L 327.64222 249.81173 L 326.85451 258.29320 M 329.00840 270.56146 L 332.69275 264.35628 L 326.43487 262.00777 L 329.00840 270.56146 M 333.43263 272.81605 L 361.82875 280.04447 L 337.11698 266.61087 L 333.43263 272.81605 M 326.35314 281.66458 L 327.67851 273.93669 L 320.80552 275.07651 L 326.35314 281.66458 M 323.98295 290.64603 L 325.78808 284.81955 L 319.41561 286.76185 L 323.98295 290.64603 M 317.57460 292.31527 L 403.00364 292.10094 L 332.35790 292.07212 L 317.57460 292.31527 M 306.82988 291.75627 L 321.61317 291.51312 L 317.04584 287.62894 L 306.82988 291.75627 M 303.60572 290.78217 L 307.63935 285.91717 L 302.00226 284.45803 L 303.60572 290.78217 M 308.27247 283.82299 L 308.67072 274.02874 L 302.63539 282.36385 L 308.27247 283.82299 M 310.07880 282.91820 L 317.08598 275.12550 L 310.47705 273.12394 L 310.07880 282.91820 M 311.36675 271.08498 L 317.97569 273.08654 L 317.19644 266.60653 L 311.36675 271.08498 M 306.04734 264.33186 L 316.28272 264.13224 L 315.07164 257.57108 L 306.04734 264.33186 M 304.56869 263.05370 L 313.59298 256.29292 L 304.45347 253.90699 L 304.56869 263.05370 M 298.82142 271.67008 L 301.40799 266.59488 L 290.77879 270.40041 L 298.82142 271.67008 M 292.73903 276.67526 L 297.73780 272.93013 L 289.69517 271.66046 L 292.73903 276.67526 M 285.13426 278.45704 L 291.16359 277.36612 L 288.11973 272.35133 L 285.13426 278.45704 M 283.23502 277.51807 L 286.22049 271.41236 L 275.96965 269.85438 L 283.23502 277.51807 M 279.37655 288.66314 L 282.44396 280.47698 L 275.69401 279.23379 L 279.37655 288.66314 M 283.14177 291.08036 L 299.79766 291.92105 L 292.22726 289.54470 L 283.14177 291.08036 M 294.37761 288.76135 L 301.94801 291.13770 L 300.34455 284.81355 L 294.37761 288.76135 M 268.00291 287.33035 L 272.71319 279.09463 L 266.99025 280.55727 L 268.00291 287.33035 M 259.85019 284.78690 L 266.39504 288.04188 L 265.38238 281.26880 L 259.85019 284.78690 M 259.45353 282.99740 L 264.98571 279.47930 L 263.22174 273.72587 L 259.45353 282.99740 M 256.20137 281.99424 L 259.96958 272.72271 L 238.96845 271.45403 L 256.20137 281.99424 M 255.09669 291.84817 L 275.36936 291.11400 L 266.97654 289.92038 L 255.09669 291.84817 M 258.67508 292.13879 L 295.60364 292.24531 L 278.94775 291.40462 L 258.67508 292.13879 M 265.57355 271.88817 L 273.06046 276.17896 L 272.54504 269.75846 L 265.57355 271.88817 M 274.05678 266.66647 L 285.12201 259.49960 L 267.11769 260.73970 L 274.05678 266.66647 M 276.51248 267.73572 L 286.76332 269.29370 L 287.57771 260.56885 L 276.51248 267.73572 M 266.78657 252.77633 L 284.79089 251.53623 L 271.40782 202.95957 L 266.78657 252.77633 M 259.92919 250.95945 L 264.55044 201.14268 L 229.93182 237.00116 L 259.92919 250.95945 M 239.51139 268.97860 L 260.51253 270.24728 L 260.54493 262.19079 L 239.51139 268.97860 M 235.23068 265.83363 L 256.26422 259.04582 L 226.26685 245.08753 L 235.23068 265.83363 M 292.57488 256.35440 L 302.27447 252.12701 L 305.97583 246.97239 L 292.57488 256.35440 M 304.96577 251.86394 L 314.10529 254.24987 L 308.66714 246.70933 L 304.96577 251.86394 M 306.83030 237.13360 L 322.49324 221.99331 L 280.04628 197.93894 L 306.83030 237.13360 M 341.45619 248.05185 L 347.52638 238.75824 L 339.55532 236.73916 L 341.45619 248.05185 M 319.90168 273.20964 L 326.77467 272.06982 L 319.12243 266.72964 L 319.90168 273.20964 M 337.72696 290.88256 L 399.64625 289.15355 L 369.25359 284.55660 L 337.72696 290.88256 M 372.32488 277.73085 L 399.05521 269.06073 L 365.95963 249.54355 L 372.32488 277.73085 M 377.11030 281.50099 L 404.24294 279.70468 L 403.84062 272.83087 L 377.11030 281.50099 M 398.61868 264.11153 L 368.83263 238.13721 L 365.52310 244.59435 L 398.61868 264.11153 M 409.85081 265.53245 L 422.07872 263.44618 L 413.36622 232.07367 L 409.85081 265.53245 M 415.66568 271.69850 L 422.36616 268.39929 L 410.13825 270.48555 L 415.66568 271.69850 M 409.84786 279.81492 L 416.42224 281.16997 L 414.97298 274.15406 L 409.84786 279.81492 M 414.55379 289.09463 L 423.28024 290.85246 L 417.86815 284.05643 L 414.55379 289.09463 M 425.75783 277.78457 L 424.31860 269.31166 L 417.61812 272.61088 L 425.75783 277.78457 M 407.36423 228.66109 L 374.06277 236.14555 L 403.84882 262.11987 L 407.36423 228.66109 M 404.53819 218.28749 L 384.40016 192.33152 L 368.07710 212.57150 L 404.53819 218.28749 M 406.37480 184.61837 L 389.18737 188.83738 L 409.32540 214.79335 L 406.37480 184.61837 M 410.42728 184.12610 L 413.37787 214.30108 L 421.60716 184.89917 L 410.42728 184.12610 M 409.11224 178.17252 L 414.67923 174.91101 L 408.47049 170.70703 L 409.11224 178.17252 M 405.06080 180.07190 L 398.81337 178.42154 L 387.87337 184.29090 L 405.06080 180.07190 M 399.85166 175.86268 L 405.45733 170.04754 L 396.82143 171.28549 L 399.85166 175.86268 M 398.91819 159.76176 L 398.36695 153.40888 L 392.56057 154.71905 L 398.91819 159.76176 M 397.43000 151.83200 L 391.42256 147.14668 L 391.62362 153.14216 L 397.43000 151.83200 M 388.87646 153.91398 L 380.32248 148.46055 L 383.80571 157.46451 L 388.87646 153.91398 M 388.60397 145.07374 L 383.43523 140.70190 L 380.25104 145.61579 L 388.60397 145.07374 M 390.04500 144.03412 L 391.77929 137.29888 L 384.87626 139.66228 L 390.04500 144.03412 M 391.30684 135.35326 L 386.26534 128.46922 L 384.40380 137.71667 L 391.30684 135.35326 M 382.72143 137.16681 L 384.58297 127.91935 L 377.84790 130.95436 L 382.72143 137.16681 M 381.13097 138.42727 L 376.25743 132.21482 L 371.85922 138.00301 L 381.13097 138.42727 M 375.10312 129.39223 L 374.19590 122.92391 L 368.40544 128.10309 L 375.10312 129.39223 M 385.62248 124.07097 L 388.01884 117.24437 L 381.90611 116.24137 L 385.62248 124.07097 M 393.62728 123.88246 L 389.48399 118.19951 L 387.08763 125.02611 L 393.62728 123.88246 M 395.00369 122.95536 L 398.09892 117.60929 L 390.86040 117.27241 L 395.00369 122.95536 M 398.81950 115.81176 L 400.76832 108.57517 L 391.58098 115.47488 L 398.81950 115.81176 M 407.13854 121.93191 L 400.13369 118.19172 L 397.03846 123.53780 L 407.13854 121.93191 M 407.43821 123.61651 L 397.33813 125.22240 L 402.53099 131.66854 L 407.43821 123.61651 M 409.32445 120.63975 L 414.52573 113.20056 L 402.31960 116.89957 L 409.32445 120.63975 M 413.80344 111.63245 L 403.54612 108.09486 L 401.59730 115.33146 L 413.80344 111.63245 M 416.26290 110.41722 L 421.27303 105.60964 L 406.00559 106.87964 L 416.26290 110.41722 M 419.76693 100.73791 L 404.21408 71.44335 L 404.49949 102.00790 L 419.76693 100.73791 M 426.11645 115.87221 L 425.54322 43.43978 L 424.53872 99.16688 L 426.11645 115.87221 M 413.71382 142.67649 L 411.25406 136.19367 L 405.46055 142.39815 L 413.71382 142.67649 M 404.19330 141.40788 L 409.98681 135.20340 L 403.57586 134.75436 L 404.19330 141.40788 M 403.72864 145.04781 L 400.69331 151.39641 L 408.68739 151.32072 L 403.72864 145.04781 M 401.70415 134.91615 L 395.01313 136.49770 L 402.32159 141.56967 L 401.70415 134.91615 M 380.53333 112.98060 L 385.78680 105.08267 L 375.49944 106.88569 L 380.53333 112.98060 M 365.40881 95.30917 L 356.18092 94.97665 L 353.54828 102.70877 L 365.40881 95.30917 M 357.23936 93.02726 L 366.46726 93.35978 L 362.01582 87.11368 L 357.23936 93.02726 M 352.49427 83.54616 L 355.49274 91.80056 L 360.26920 85.88698 L 352.49427 83.54616 M 339.74634 80.06763 L 324.34533 82.74591 L 339.22182 89.97383 L 339.74634 80.06763 M 339.09695 77.65705 L 334.02675 70.68923 L 323.69594 80.33533 L 339.09695 77.65705 M 341.51718 75.89856 L 343.05779 66.26738 L 336.44698 68.93073 L 341.51718 75.89856 M 349.41415 69.66632 L 344.67868 66.35932 L 343.13808 75.99051 L 349.41415 69.66632 M 354.68613 63.99900 L 351.97074 69.20834 L 356.13992 74.22901 L 354.68613 63.99900 M 353.41404 62.80933 L 345.96318 64.71168 L 350.69865 68.01867 L 353.41404 62.80933 M 347.69237 55.92494 L 345.58739 63.19996 L 353.03825 61.29762 L 347.69237 55.92494 M 343.95824 62.36506 L 346.06322 55.09004 L 340.00505 54.61842 L 343.95824 62.36506 M 342.71313 63.78483 L 338.75994 56.03819 L 336.10232 66.44819 L 342.71313 63.78483 M 337.27158 54.96385 L 330.80625 55.19017 L 334.61396 65.37385 L 337.27158 54.96385 M 329.01762 55.84254 L 322.96258 60.18283 L 332.82534 66.02623 L 329.01762 55.84254 M 327.82497 53.83420 L 323.28411 49.95947 L 321.76993 58.17448 L 327.82497 53.83420 M 319.54339 57.10906 L 321.05757 48.89404 L 310.01269 45.31077 L 319.54339 57.10906 M 306.06888 60.16064 L 305.77014 46.19130 L 296.34912 53.76728 L 306.06888 60.16064 M 303.67402 44.57232 L 289.29992 47.20874 L 294.25300 52.14830 L 303.67402 44.57232 M 319.39908 35.98229 L 309.99465 42.66992 L 321.03953 46.25319 L 319.39908 35.98229 M 318.34182 33.66246 L 312.58145 27.69452 L 308.93739 40.35009 L 318.34182 33.66246 M 325.54532 26.80566 L 330.95751 23.96076 L 315.82851 25.11162 L 325.54532 26.80566 M 334.14741 23.27118 L 359.08747 22.76211 L 310.99552 22.94899 L 334.14741 23.27118 M 338.87350 30.54124 L 328.11169 28.81663 L 331.00981 36.62988 L 338.87350 30.54124 M 341.39207 28.68845 L 345.74620 24.65250 L 336.04245 24.11894 L 341.39207 28.68845 M 342.90800 31.21968 L 344.71228 36.62598 L 350.71971 34.92653 L 342.90800 31.21968 M 342.01775 38.35740 L 332.34977 39.03974 L 337.02708 42.68927 L 342.01775 38.35740 M 346.77243 43.96040 L 343.82058 38.97249 L 338.82991 43.30435 L 346.77243 43.96040 M 338.27622 44.88468 L 339.39099 51.61512 L 346.21874 45.54073 L 338.27622 44.88468 M 334.80489 45.26358 L 324.91348 48.34560 L 329.45434 52.22034 L 334.80489 45.26358 M 328.57635 39.07189 L 321.72179 35.53254 L 323.36224 45.80344 L 328.57635 39.07189 M 310.05529 27.39271 L 298.13261 31.24798 L 306.41124 40.04828 L 310.05529 27.39271 M 309.42974 25.37434 L 301.40685 23.90128 L 297.50706 29.22961 L 309.42974 25.37434 M 296.45107 22.88832 L 344.54301 22.70144 L 217.79180 22.78586 L 296.45107 22.88832 M 278.33084 29.91230 L 278.48514 38.47989 L 291.50477 31.35367 L 278.33084 29.91230 M 281.78857 58.14441 L 273.23669 52.03880 L 273.50498 57.62548 L 281.78857 58.14441 M 285.87111 67.11481 L 283.92481 60.61733 L 280.09667 64.80573 L 285.87111 67.11481 M 298.04258 91.48791 L 289.81931 86.32028 L 287.41576 91.46433 L 298.04258 91.48791 M 297.68924 93.05301 L 287.06242 93.02943 L 286.99265 98.84109 L 297.68924 93.05301 M 317.06620 85.53173 L 303.56703 92.62522 L 309.88897 102.48865 L 317.06620 85.53173 M 317.05716 79.46457 L 308.29325 66.14611 L 305.08139 74.36328 L 317.05716 79.46457 M 347.94708 105.22418 L 340.80308 96.50997 L 330.37591 116.41455 L 347.94708 105.22418 M 350.83334 102.52097 L 353.46598 94.78884 L 343.68934 93.80675 L 350.83334 102.52097 M 356.52124 120.48016 L 359.92887 113.76013 L 352.97721 107.59260 L 356.52124 120.48016 M 358.37965 135.50570 L 356.01808 125.84414 L 349.99796 134.12286 L 358.37965 135.50570 M 369.10844 144.86942 L 368.93233 139.38430 L 361.93795 138.20422 L 369.10844 144.86942 M 363.19971 153.63163 L 357.15818 148.31403 L 353.92588 157.00454 L 363.19971 153.63163 M 372.36901 157.50409 L 370.01693 148.60667 L 366.67769 153.71966 L 372.36901 157.50409 M 373.69054 156.75267 L 377.24990 147.70827 L 371.33845 147.85524 L 373.69054 156.75267 M 371.52571 159.72958 L 365.83439 155.94514 L 363.27050 166.41057 L 371.52571 159.72958 M 375.17721 169.40919 L 372.69356 161.41259 L 364.43835 168.09358 L 375.17721 169.40919 M 377.36261 168.44899 L 381.92155 160.41193 L 374.87896 160.45238 L 377.36261 168.44899 M 423.80146 179.35112 L 425.36535 173.17816 L 418.18858 175.31653 L 423.80146 179.35112 M 424.67234 188.60955 L 425.15556 249.38396 L 426.23623 182.43659 L 424.67234 188.60955 M 426.40814 164.65489 L 426.27494 134.28564 L 425.10021 143.67260 L 426.40814 164.65489 M 345.75198 207.94977 L 359.10972 196.41245 L 345.12091 190.84520 L 345.75198 207.94977 M 323.97535 158.13566 L 282.82837 183.33443 L 330.38701 169.55066 L 323.97535 158.13566 M 272.80456 176.00594 L 292.83202 132.81593 L 271.31611 128.91396 L 272.80456 176.00594 M 255.55093 188.68002 L 204.43262 181.93552 L 204.43283 193.86115 L 255.55093 188.68002 M 207.82383 153.10326 L 205.39662 158.57408 L 213.11156 147.40197 L 207.82383 153.10326 M 205.14071 143.47324 L 199.62739 140.15595 L 198.35837 147.76068 L 205.14071 143.47324 M 214.36132 143.86265 L 215.75724 137.12059 L 208.71102 142.70287 L 214.36132 143.86265 M 216.38265 142.49282 L 224.88166 131.74421 L 217.77857 135.75076 L 216.38265 142.49282 M 249.71644 62.47548 L 242.44461 66.12248 L 253.20157 69.12219 L 249.71644 62.47548 M 248.42113 61.30206 L 242.83904 59.73485 L 241.14929 64.94907 L 248.42113 61.30206 M 248.82085 50.29171 L 251.38650 44.72227 L 242.77359 49.52919 L 248.82085 50.29171 M 241.70355 51.08181 L 242.82614 57.14318 L 247.75080 51.84433 L 241.70355 51.08181 M 351.08397 33.57763 L 347.62639 25.83484 L 343.27226 29.87079 L 351.08397 33.57763 M 356.20421 24.59300 L 349.24288 25.17512 L 352.70047 32.91791 L 356.20421 24.59300 M 356.50063 23.26172 L 364.77560 22.80120 L 339.83555 23.31027 L 356.50063 23.26172 M 367.95865 29.53067 L 368.29099 23.57875 L 360.01602 24.03927 L 367.95865 29.53067 M 377.47799 27.35864 L 369.66014 31.42943 L 366.14236 37.34823 L 377.47799 27.35864 M 378.02800 25.66282 L 370.54249 23.78169 L 370.21015 29.73362 L 378.02800 25.66282 M 383.68390 25.05941 L 415.45735 24.90629 L 376.19839 23.17828 L 383.68390 25.05941 M 357.70431 45.00963 L 357.20631 50.84954 L 362.56153 41.46724 L 357.70431 45.00963 M 355.76751 43.74312 L 352.69613 37.11544 L 349.64056 43.80282 L 355.76751 43.74312 M 355.63715 51.36412 L 356.13514 45.52421 L 350.00819 45.58390 L 355.63715 51.36412 M 354.65193 52.30779 L 349.02297 46.52757 L 348.25340 53.07358 L 354.65193 52.30779 M 355.30569 54.01046 L 348.90715 54.77625 L 354.25304 60.14893 L 355.30569 54.01046 M 392.74213 64.13374 L 359.78255 63.36468 L 361.23634 73.59468 L 392.74213 64.13374 M 393.46172 66.49206 L 361.95593 75.95300 L 365.53927 82.23124 L 393.46172 66.49206 M 394.60955 68.28125 L 366.68710 84.02043 L 371.13853 90.26653 L 394.60955 68.28125 M 400.59779 71.33889 L 390.83660 99.90223 L 400.88319 101.90344 L 400.59779 71.33889 M 402.14308 55.36176 L 418.70044 28.92923 L 386.92699 29.08234 L 402.14308 55.36176 M 141.03248 288.05599 L 197.84459 289.80184 L 169.85308 281.48325 L 141.03248 288.05599 M 43.06282 181.45624 L 50.90846 212.14034 L 77.03668 192.20861 L 43.06282 181.45624 M 38.18971 184.59314 L 38.05186 217.30384 L 46.03536 215.27725 L 38.18971 184.59314 M 43.12640 168.48056 L 66.99074 145.03070 L 61.52662 142.53718 L 43.12640 168.48056" fill="none" stroke="black" stroke-width="0.01cm" />
   </g>
</svg>