<?xml version="1.0" standalone="no"?>
  <!DOCTYPE svg PUBLIC "-//W3C//DTD SVG 1.1//EN" 
    "http://www.w3.org/Graphics/SVG/1.1/DTD/svg11.dtd">
  <svg width="15.875cm" height="11.43cm"
       xmlns="http://www.w3.org/2000/svg" version="1.1" viewBox="0 0 562.49999 404.99999">
   <g>
     <path d="M 295.14746 180.14382 L 299.51262 176.84081 L 294.80760 172.69325 L 295.14746 180.14382 M 302.22230 183.51217 L 307.09725 181.24650 L 301.66423 178.16543 L 302.22230 183.51217 M 303.22460 184.68880 L 309.68265 187.57849 L 308.09955 182.42313 L 303.22460 184.68880 M 303.46827 193.42146 L 309.10374 188.95329 L 302.64569 186.06359 L 303.46827 193.42146 M 305.00664 194.36073 L 314.95262 193.57780 L 310.64210 189.89256 L 305.00664 194.36073 M 306.15572 196.35741 L 319.83475 205.86594 L 316.10170 195.57447 L 306.15572 196.35741 M 316.94212 192.70324 L 320.92266 187.36429 L 312.63161 189.01800 L 316.94212 192.70324 M 318.95489 193.08290 L 328.73377 192.05527 L 322.93543 187.74394 L 318.95489 193.08290 M 331.96360 183.47608 L 336.83014 181.80329 L 329.20433 175.13424 L 331.96360 183.47608 M 340.78921 189.88279 L 332.74184 186.19529 L 332.24941 191.52763 L 340.78921 189.88279 M 341.55478 188.88205 L 338.37394 183.52177 L 333.50740 185.19456 L 341.55478 188.88205 M 343.37840 197.57755 L 351.62304 194.42001 L 344.12368 191.46886 L 343.37840 197.57755 M 329.63979 224.30558 L 356.92571 232.09813 L 342.35826 205.41253 L 329.63979 224.30558 M 328.59488 230.84750 L 333.99899 257.74794 L 355.88080 238.64006 L 328.59488 230.84750 M 313.25797 227.39325 L 298.45706 205.84692 L 253.39053 259.45279 L 313.25797 227.39325 M 316.21159 174.74763 L 317.96334 168.27919 L 311.73583 171.05756 L 316.21159 174.74763 M 308.43233 171.41947 L 302.58999 170.64057 L 301.85342 175.64336 L 308.43233 171.41947 M 308.67775 169.91737 L 303.81680 163.62658 L 302.83541 169.13847 L 308.67775 169.91737 M 301.02677 168.08034 L 302.00816 162.56844 L 294.20862 161.45228 L 301.02677 168.08034 M 290.42452 160.93278 L 285.61909 159.05274 L 283.35896 166.92051 L 290.42452 160.93278 M 283.50779 159.72796 L 273.53414 166.33455 L 281.24766 167.59574 L 283.50779 159.72796 M 283.17630 157.73202 L 278.59574 151.62821 L 273.20265 164.33861 L 283.17630 157.73202 M 289.15158 150.59968 L 286.34317 157.01263 L 291.14860 158.89267 L 289.15158 150.59968 M 287.96878 147.53426 L 286.26673 140.47306 L 280.57980 147.84340 L 287.96878 147.53426 M 293.59148 144.06705 L 287.89319 140.00102 L 289.59524 147.06221 L 293.59148 144.06705 M 296.78175 138.94345 L 279.26805 132.17954 L 287.10020 137.77810 L 296.78175 138.94345 M 303.91846 145.48099 L 300.57534 141.11439 L 296.59208 144.01506 L 303.91846 145.48099 M 311.23300 142.97521 L 306.80033 146.86819 L 311.87125 154.63910 L 311.23300 142.97521 M 310.88100 132.67270 L 312.39830 76.58557 L 303.10520 132.19908 L 310.88100 132.67270 M 327.43518 147.08030 L 345.92029 139.72003 L 317.30899 141.34111 L 327.43518 147.08030 M 310.93187 157.47186 L 305.24403 154.69890 L 304.33488 160.63935 L 310.93187 157.47186 M 303.71644 154.23386 L 298.71114 153.75155 L 302.80729 160.17431 L 303.71644 154.23386 M 276.40104 151.14287 L 265.61870 153.84927 L 271.00795 163.85327 L 276.40104 151.14287 M 275.70675 140.69618 L 266.20605 150.95463 L 276.98839 148.24823 L 275.70675 140.69618 M 274.73242 130.97695 L 267.46530 129.50446 L 275.59600 136.39380 L 274.73242 130.97695 M 262.48415 128.84516 L 244.38392 115.44409 L 261.11415 145.99295 L 262.48415 128.84516 M 256.75431 154.21766 L 217.61585 149.94897 L 250.01363 168.36274 L 256.75431 154.21766 M 272.78663 168.62314 L 277.52772 178.03668 L 280.50015 169.88433 L 272.78663 168.62314 M 279.27964 181.89369 L 272.27424 181.13152 L 296.77988 192.08905 L 279.27964 181.89369 M 285.68672 176.85704 L 279.55990 180.29574 L 285.88974 181.98198 L 285.68672 176.85704 M 325.74700 172.70756 L 319.71474 168.48544 L 317.96298 174.95388 L 325.74700 172.70756 M 349.85456 136.99736 L 358.90937 125.29889 L 321.24327 138.61843 L 349.85456 136.99736 M 361.97962 129.47465 L 364.00142 124.15592 L 354.94661 135.85439 L 361.97962 129.47465 M 355.03880 117.51803 L 318.89000 74.75044 L 317.37270 130.83756 L 355.03880 117.51803 M 363.59806 110.48913 L 385.84680 74.60639 L 327.44926 67.72154 L 363.59806 110.48913 M 399.05578 82.68708 L 394.79761 76.47708 L 372.54888 112.35982 L 399.05578 82.68708 M 403.55981 77.74087 L 408.58110 72.79017 L 399.30164 71.53088 L 403.55981 77.74087 M 416.38811 74.80584 L 410.71691 73.19954 L 405.69561 78.15024 L 416.38811 74.80584 M 417.55801 73.39881 L 415.05481 66.89402 L 411.88681 71.79251 L 417.55801 73.39881 M 419.08329 73.29259 L 424.08907 70.94273 L 416.58009 66.78780 L 419.08329 73.29259 M 425.56965 69.35823 L 428.30558 65.14228 L 420.68306 60.67758 L 425.56965 69.35823 M 435.76526 70.23153 L 426.48721 71.37320 L 421.48144 73.72305 L 435.76526 70.23153 M 436.87122 69.29356 L 430.32910 66.21928 L 427.59317 70.43523 L 436.87122 69.29356 M 428.55044 55.93095 L 424.46597 50.67698 L 420.58764 57.57840 L 428.55044 55.93095 M 415.15774 63.94639 L 417.78013 59.42067 L 412.59113 59.24199 L 415.15774 63.94639 M 414.01208 64.59957 L 411.44547 59.89516 L 408.61485 64.64606 L 414.01208 64.59957 M 409.64410 58.42105 L 399.60115 52.80672 L 406.81348 63.17195 L 409.64410 58.42105 M 412.74052 41.98722 L 400.71188 49.53480 L 413.71358 50.15851 L 412.74052 41.98722 M 410.98572 40.24229 L 399.67519 36.19907 L 398.95708 47.78987 L 410.98572 40.24229 M 419.32671 36.71564 L 465.68497 19.57668 L 408.01618 32.67242 L 419.32671 36.71564 M 388.91935 49.87854 L 389.63747 38.28774 L 330.68393 56.95163 L 388.91935 49.87854 M 389.00203 67.48630 L 388.83992 53.52836 L 330.60450 60.60145 L 389.00203 67.48630 M 437.61877 138.54250 L 419.75085 82.97371 L 409.05835 86.31811 L 437.61877 138.54250 M 441.18681 137.56594 L 437.60271 78.50562 L 423.31889 81.99715 L 441.18681 137.56594 M 487.40734 90.11736 L 482.18469 87.44937 L 453.26131 139.46193 L 487.40734 90.11736 M 506.88347 67.66400 L 484.27781 27.44154 L 487.79498 72.50784 L 506.88347 67.66400 M 520.18024 57.61348 L 538.70509 20.60383 L 491.41190 20.55771 L 520.18024 57.61348 M 526.30471 78.87721 L 521.45590 69.92546 L 515.29323 73.09215 L 526.30471 78.87721 M 527.29125 82.88767 L 519.43241 90.94856 L 526.19555 88.16319 L 527.29125 82.88767 M 527.60118 94.63947 L 526.23429 89.63216 L 519.47115 92.41754 L 527.60118 94.63947 M 536.01965 97.20702 L 530.16542 96.42839 L 532.76396 100.94288 L 536.01965 97.20702 M 539.83453 91.36370 L 538.75691 96.03388 L 547.73015 95.44934 L 539.83453 91.36370 M 545.77201 102.07469 L 548.47234 96.78822 L 539.49909 97.37276 L 545.77201 102.07469 M 545.01497 111.93975 L 545.05916 105.15201 L 536.54082 109.91712 L 545.01497 111.93975 M 536.77896 124.84892 L 540.81422 121.02053 L 532.78234 119.39653 L 536.77896 124.84892 M 543.32878 128.37248 L 542.13252 122.14253 L 538.09727 125.97091 L 543.32878 128.37248 M 550.00740 132.35416 L 549.85011 126.33465 L 545.50964 129.54752 L 550.00740 132.35416 M 549.86982 136.79499 L 547.48347 141.81542 L 546.63810 154.03427 L 549.86982 136.79499 M 547.30261 138.95172 L 549.68896 133.93129 L 545.19120 131.12465 L 547.30261 138.95172 M 546.13024 139.51097 L 544.01883 131.68391 L 540.31000 138.40531 L 546.13024 139.51097 M 539.26101 136.94408 L 542.96985 130.22267 L 537.73833 127.82110 L 539.26101 136.94408 M 536.90217 138.14286 L 529.73627 131.09730 L 529.74236 137.73553 L 536.90217 138.14286 M 528.12403 135.99672 L 528.11793 129.35849 L 523.95547 124.23238 L 528.12403 135.99672 M 529.63803 117.92517 L 525.46542 112.29835 L 523.82897 120.32886 L 529.63803 117.92517 M 524.09338 109.70959 L 518.66169 97.21510 L 522.45693 117.74010 L 524.09338 109.70959 M 511.94054 121.19465 L 491.12682 94.33552 L 456.98079 143.68009 L 511.94054 121.19465 M 519.99798 158.30269 L 520.23906 142.42542 L 461.11075 153.14653 L 519.99798 158.30269 M 520.44379 166.65431 L 520.02357 161.33130 L 461.13634 156.17514 L 520.44379 166.65431 M 529.76743 168.65459 L 535.72547 172.17743 L 529.34721 163.33159 L 529.76743 168.65459 M 528.19526 176.50293 L 528.61832 171.25703 L 526.53540 182.42798 L 528.19526 176.50293 M 534.09827 182.30542 L 528.88025 177.88397 L 527.22040 183.80903 L 534.09827 182.30542 M 536.02259 193.32072 L 547.24874 189.89381 L 537.11723 184.69670 L 536.02259 193.32072 M 531.62856 194.72850 L 525.84533 187.60810 L 518.97435 199.65252 L 531.62856 194.72850 M 527.56215 205.86154 L 531.84316 197.01019 L 519.18896 201.93420 L 527.56215 205.86154 M 523.17671 213.09336 L 526.39612 208.58220 L 517.36116 210.33691 L 523.17671 213.09336 M 521.96134 214.63418 L 516.14580 211.87773 L 516.67322 220.90876 L 521.96134 214.63418 M 524.33278 221.36636 L 522.98472 215.82026 L 517.69659 222.09484 L 524.33278 221.36636 M 526.13766 220.51155 L 532.13565 215.25639 L 524.78960 214.96545 L 526.13766 220.51155 M 533.82399 216.18388 L 527.82600 221.43904 L 538.29633 222.38536 L 533.82399 216.18388 M 533.62982 213.13075 L 534.87156 208.01760 L 529.50318 208.32865 L 533.62982 213.13075 M 536.72261 205.81045 L 544.15720 204.32490 L 535.63524 197.27014 L 536.72261 205.81045 M 549.22698 214.96704 L 546.46125 207.26905 L 543.86732 214.61084 L 549.22698 214.96704 M 548.62641 216.79563 L 543.26675 216.43944 L 541.65668 221.89782 L 548.62641 216.79563 M 540.02210 221.74078 L 541.63217 216.28240 L 535.54976 215.53930 L 540.02210 221.74078 M 547.74858 230.94371 L 540.72487 225.05202 L 535.75825 230.67916 L 547.74858 230.94371 M 547.81181 232.88678 L 535.82147 232.62223 L 541.23065 240.59654 L 547.81181 232.88678 M 549.45378 229.41095 L 549.39978 218.41707 L 542.43006 223.51926 L 549.45378 229.41095 M 530.98117 231.26518 L 525.47745 224.69172 L 520.00223 236.57817 L 530.98117 231.26518 M 518.26796 235.74317 L 523.74318 223.85672 L 517.10700 224.58520 L 518.26796 235.74317 M 514.79573 238.58808 L 505.95411 233.43656 L 503.64598 240.60948 L 514.79573 238.58808 M 504.26170 229.43284 L 504.77838 219.89016 L 498.43161 223.27391 L 504.26170 229.43284 M 494.65938 229.70614 L 495.67574 224.32715 L 489.57789 229.09601 L 494.65938 229.70614 M 496.18527 222.37849 L 503.68154 213.86581 L 485.14146 227.39846 L 496.18527 222.37849 M 505.01641 217.79421 L 506.16591 212.66528 L 498.66964 221.17796 L 505.01641 217.79421 M 513.87246 223.44817 L 506.70849 219.91194 L 506.19181 229.45462 L 513.87246 223.44817 M 514.36693 212.26893 L 507.73038 217.76373 L 514.89435 221.29996 L 514.36693 212.26893 M 513.50772 211.03105 L 508.02067 211.39692 L 506.87117 216.52585 L 513.50772 211.03105 M 501.96446 204.17500 L 508.11327 198.12706 L 457.75972 164.43253 L 501.96446 204.17500 M 509.97324 195.54244 L 516.84422 183.49802 L 459.61969 161.84791 L 509.97324 195.54244 M 500.11007 240.56269 L 495.57174 232.60983 L 493.35484 238.99363 L 500.11007 240.56269 M 490.71007 238.40866 L 487.84549 231.41473 L 484.03340 236.49306 L 490.71007 238.40866 M 482.91761 235.52980 L 486.72970 230.45146 L 481.78374 230.70256 L 482.91761 235.52980 M 486.33733 246.43700 L 490.52155 240.28644 L 483.84488 238.37084 L 486.33733 246.43700 M 470.32484 241.80357 L 465.02216 238.77079 L 461.82346 245.12674 L 470.32484 241.80357 M 464.51255 237.13129 L 469.23711 233.83987 L 458.32473 238.33498 L 464.51255 237.13129 M 469.69343 224.58104 L 476.30439 222.70597 L 450.63973 169.43085 L 469.69343 224.58104 M 457.92698 253.65224 L 458.90715 247.85377 L 451.17324 251.46539 L 457.92698 253.65224 M 463.49390 260.72722 L 465.22501 252.89180 L 459.99793 255.24112 L 463.49390 260.72722 M 467.89864 268.91850 L 469.62290 261.37251 L 464.86042 263.18923 L 467.89864 268.91850 M 466.45106 269.67675 L 463.41283 263.94748 L 458.04223 267.43852 L 466.45106 269.67675 M 465.71114 270.92898 L 457.30231 268.69075 L 457.49348 273.96533 L 465.71114 270.92898 M 455.46416 273.73075 L 455.27299 268.45617 L 449.47659 269.05230 L 455.46416 273.73075 M 456.05052 276.38881 L 451.16397 279.41247 L 458.86281 282.01858 L 456.05052 276.38881 M 460.84076 281.92228 L 466.98757 278.64203 L 458.02847 276.29251 L 460.84076 281.92228 M 452.39906 286.51376 L 458.40638 283.28420 L 450.70754 280.67809 L 452.39906 286.51376 M 455.62353 293.19646 L 459.02088 284.84900 L 453.01356 288.07855 L 455.62353 293.19646 M 461.76348 295.66427 L 460.11462 285.79721 L 456.71727 294.14468 L 461.76348 295.66427 M 463.22996 295.13115 L 468.44906 289.87972 L 461.58109 285.26409 L 463.22996 295.13115 M 460.68968 297.59332 L 455.64346 296.07373 L 451.52417 301.22963 L 460.68968 297.59332 M 462.37350 306.63855 L 469.05930 300.11234 L 463.38581 298.64305 L 462.37350 306.63855 M 460.25365 306.94812 L 461.26595 298.95262 L 452.10044 302.58893 L 460.25365 306.94812 M 459.42399 310.37395 L 453.75227 312.37385 L 452.14722 320.00022 L 459.42399 310.37395 M 453.62707 310.37593 L 459.29879 308.37603 L 451.14558 304.01684 L 453.62707 310.37593 M 451.42873 310.56326 L 448.94724 304.20417 L 441.71209 309.87467 L 451.42873 310.56326 M 445.81423 316.00859 L 451.03710 312.03881 L 441.32047 311.35022 L 445.81423 316.00859 M 440.46010 308.87131 L 447.69525 303.20081 L 441.41277 302.53640 L 440.46010 308.87131 M 438.60419 309.49361 L 439.55686 303.15870 L 432.84795 308.17926 L 438.60419 309.49361 M 432.19292 307.14567 L 438.90183 302.12512 L 433.36397 301.22492 L 432.19292 307.14567 M 427.68426 313.27202 L 430.06940 309.01259 L 425.46991 306.88026 L 427.68426 313.27202 M 426.48694 313.64512 L 424.27258 307.25336 L 420.49080 311.99738 L 426.48694 313.64512 M 426.80656 315.31832 L 420.81042 313.67058 L 426.82953 320.63893 L 426.80656 315.31832 M 417.95538 311.17961 L 416.09371 303.89545 L 411.84708 309.64310 L 417.95538 311.17961 M 414.91114 318.09506 L 417.80756 312.95457 L 411.69926 311.41805 L 414.91114 318.09506 M 421.86923 325.62595 L 425.85032 322.56994 L 416.93477 320.74209 L 421.86923 325.62595 M 433.65618 327.02729 L 437.37253 330.73461 L 436.71748 322.45906 L 433.65618 327.02729 M 438.58080 330.86951 L 443.32228 328.10642 L 437.92574 322.59395 L 438.58080 330.86951 M 445.09687 329.30257 L 443.10550 339.15024 L 449.37235 325.07855 L 445.09687 329.30257 M 444.09359 326.58590 L 444.75123 318.70529 L 438.69705 321.07343 L 444.09359 326.58590 M 436.34401 319.03739 L 437.90444 312.01088 L 429.76306 314.95596 L 436.34401 319.03739 M 442.20261 300.89644 L 448.48509 301.56086 L 446.77881 295.75164 L 442.20261 300.89644 M 441.20436 299.71076 L 445.78056 294.56596 L 440.49907 292.07540 L 441.20436 299.71076 M 433.38838 297.97136 L 438.22096 291.23620 L 433.09348 288.75256 L 433.38838 297.97136 M 423.95598 297.46303 L 416.63864 291.09431 L 417.29284 300.31040 L 423.95598 297.46303 M 423.83596 304.53001 L 424.85565 299.14249 L 418.19251 301.98987 L 423.83596 304.53001 M 410.35908 308.63769 L 414.60571 302.89004 L 406.05135 303.13633 L 410.35908 308.63769 M 397.66814 319.93454 L 405.10877 318.05124 L 398.34197 314.66050 L 397.66814 319.93454 M 405.14949 328.20059 L 405.95971 319.74375 L 398.51908 321.62705 L 405.14949 328.20059 M 404.60511 337.91832 L 405.11060 331.51524 L 399.52369 333.28438 L 404.60511 337.91832 M 394.51549 350.05895 L 402.84351 340.94256 L 394.26435 341.95888 L 394.51549 350.05895 M 394.92461 357.90813 L 402.92604 342.93622 L 394.59802 352.05260 L 394.92461 357.90813 M 389.72740 367.81766 L 392.42837 361.70779 L 385.33048 361.36812 L 389.72740 367.81766 M 388.55727 369.65370 L 384.16036 363.20416 L 383.06737 376.39611 L 388.55727 369.65370 M 392.74016 374.96638 L 393.35458 363.40757 L 390.65361 369.51744 L 392.74016 374.96638 M 381.03109 376.01307 L 382.12408 362.82112 L 372.26704 366.58940 L 381.03109 376.01307 M 368.32880 379.77181 L 368.52133 368.45606 L 361.11500 375.86233 L 368.32880 379.77181 M 363.16588 383.73020 L 367.65936 381.68108 L 360.44557 377.77160 L 363.16588 383.73020 M 364.45329 385.01745 L 370.74492 388.06958 L 368.94678 382.96832 L 364.45329 385.01745 M 362.28214 391.44023 L 369.91184 389.12857 L 363.62021 386.07644 L 362.28214 391.44023 M 355.03787 393.24385 L 378.73221 392.83410 L 362.30859 392.64833 L 355.03787 393.24385 M 352.08707 392.21999 L 359.35778 391.62447 L 355.12577 384.64320 L 352.08707 392.21999 M 350.31745 391.28794 L 353.35615 383.71115 L 345.20085 384.16813 L 350.31745 391.28794 M 340.38082 392.55804 L 348.69554 392.39380 L 343.57893 385.27399 L 340.38082 392.55804 M 333.05083 391.09862 L 337.83551 392.63064 L 336.31589 387.22260 L 333.05083 391.09862 M 335.27189 384.83098 L 334.36486 379.45441 L 327.12547 382.75031 L 335.27189 384.83098 M 333.60371 378.21879 L 329.18268 374.94599 L 326.36432 381.51469 L 333.60371 378.21879 M 324.99796 380.58942 L 327.81632 374.02073 L 322.67276 370.81669 L 324.99796 380.58942 M 324.66071 391.05966 L 330.38567 390.64216 L 325.50432 384.68547 L 324.66071 391.05966 M 318.41879 372.43596 L 293.78453 386.97483 L 320.74398 382.20869 L 318.41879 372.43596 M 317.24651 370.27572 L 311.36579 364.92677 L 292.61226 384.81459 L 317.24651 370.27572 M 322.28472 367.15912 L 328.29310 364.02265 L 321.02883 357.66933 L 322.28472 367.15912 M 323.19893 368.97252 L 328.34248 372.17656 L 329.20731 365.83605 L 323.19893 368.97252 M 329.32506 362.57769 L 330.54041 355.59945 L 322.06079 356.22437 L 329.32506 362.57769 M 331.39257 362.73330 L 338.60084 357.46928 L 332.60791 355.75506 L 331.39257 362.73330 M 336.19661 368.55175 L 339.04943 359.06887 L 331.84115 364.33289 L 336.19661 368.55175 M 338.06699 368.62393 L 346.80418 364.91035 L 340.91981 359.14105 L 338.06699 368.62393 M 350.42036 374.47669 L 357.06398 375.14992 L 349.97058 367.33942 L 350.42036 374.47669 M 345.09297 382.36939 L 353.24828 381.91242 L 349.45444 376.89808 L 345.09297 382.36939 M 349.21675 360.66580 L 357.36751 334.66752 L 343.33237 354.89650 L 349.21675 360.66580 M 341.58607 352.85915 L 355.62121 332.63017 L 335.24634 344.36699 L 341.58607 352.85915 M 326.24120 349.55545 L 331.17153 353.04631 L 330.82472 346.26837 L 326.24120 349.55545 M 321.92268 340.41402 L 329.89072 343.42627 L 327.08405 336.60879 L 321.92268 340.41402 M 325.93710 333.47998 L 321.49886 324.87768 L 319.99200 330.80328 L 325.93710 333.47998 M 311.73079 336.04699 L 318.90955 339.15702 L 318.12582 332.67509 L 311.73079 336.04699 M 311.28490 337.83999 L 314.55874 347.01907 L 318.46366 340.95002 L 311.28490 337.83999 M 302.80116 344.39699 L 291.41586 350.60933 L 296.82041 349.51478 L 302.80116 344.39699 M 307.81098 349.87811 L 312.83256 348.72080 L 306.40197 344.22752 L 307.81098 349.87811 M 305.25311 356.83728 L 306.11595 351.53240 L 298.72619 350.99959 L 305.25311 356.83728 M 306.89978 357.96048 L 311.89952 359.98519 L 307.76262 352.65559 L 306.89978 357.96048 M 309.81144 363.87339 L 304.81169 361.84868 L 291.05790 383.76121 L 309.81144 363.87339 M 314.70556 361.49410 L 320.58628 366.84305 L 319.33039 357.35326 L 314.70556 361.49410 M 313.99183 359.51755 L 318.61667 355.37671 L 314.87651 351.03065 L 313.99183 359.51755 M 291.49388 352.17440 L 303.42535 356.91753 L 296.89843 351.07984 L 291.49388 352.17440 M 295.37705 390.35135 L 332.00254 393.07393 L 321.49289 391.95940 L 295.37705 390.35135 M 224.34153 381.18190 L 278.88273 385.33189 L 280.70505 358.67622 L 224.34153 381.18190 M 214.54219 377.50569 L 270.90570 355.00002 L 200.48800 355.92223 L 214.54219 377.50569 M 181.32138 371.26642 L 155.84237 383.40527 L 199.62775 382.36674 L 181.32138 371.26642 M 173.59344 346.69864 L 180.71031 357.95694 L 185.91643 352.82777 L 173.59344 346.69864 M 172.13373 343.79873 L 184.45672 349.92786 L 169.03262 334.75764 L 172.13373 343.79873 M 159.12590 351.11497 L 179.32428 365.17335 L 178.37034 359.81937 L 159.12590 351.11497 M 157.97293 348.74179 L 177.21737 357.44619 L 170.10050 346.18789 L 157.97293 348.74179 M 151.43212 338.62324 L 153.58398 345.52387 L 156.38527 336.04961 L 151.43212 338.62324 M 158.42519 336.67057 L 155.62390 346.14484 L 167.75148 343.59094 L 158.42519 336.67057 M 159.71469 335.01415 L 169.04097 341.93452 L 165.93987 332.89343 L 159.71469 335.01415 M 152.56155 328.33520 L 156.88246 332.38975 L 156.92924 322.87314 L 152.56155 328.33520 M 158.43582 323.14940 L 158.38904 332.66601 L 164.61422 330.54529 L 158.43582 323.14940 M 166.52652 316.88562 L 172.70491 324.28151 L 223.11458 282.55579 L 166.52652 316.88562 M 146.45429 313.73731 L 150.09907 318.69501 L 155.49695 319.72951 L 146.45429 313.73731 M 135.79884 310.83684 L 135.85978 316.54608 L 142.68347 312.51046 L 135.79884 310.83684 M 127.17755 310.31606 L 133.13567 309.26555 L 127.39712 304.59889 L 127.17755 310.31606 M 128.70138 302.93575 L 134.43993 307.60240 L 137.61162 297.01089 L 128.70138 302.93575 M 120.48088 306.30641 L 125.59570 309.94617 L 125.81527 304.22900 L 120.48088 306.30641 M 119.76721 305.00464 L 125.10160 302.92723 L 119.88634 299.53195 L 119.76721 305.00464 M 113.09268 304.48811 L 118.26610 305.19975 L 118.38522 299.72706 L 113.09268 304.48811 M 104.71978 300.65423 L 104.97439 307.05220 L 110.09744 304.79695 L 104.71978 300.65423 M 93.64340 306.37350 L 98.33606 315.71100 L 102.43687 308.90035 L 93.64340 306.37350 M 85.07728 316.52047 L 89.17040 325.81990 L 95.91022 318.71839 L 85.07728 316.52047 M 81.89143 324.51969 L 87.41805 326.54506 L 83.32494 317.24564 L 81.89143 324.51969 M 75.24138 320.44320 L 80.36935 323.75696 L 81.80285 316.48290 L 75.24138 320.44320 M 73.97668 313.03447 L 74.44230 319.10288 L 81.00377 315.14259 L 73.97668 313.03447 M 66.81764 306.24545 L 72.68770 310.20371 L 77.02763 302.52317 L 66.81764 306.24545 M 56.33785 300.29274 L 63.56930 304.71657 L 64.14246 298.67421 L 56.33785 300.29274 M 53.90031 298.83015 L 56.67671 294.45086 L 49.09726 295.77659 L 53.90031 298.83015 M 47.17044 296.68896 L 41.26214 301.74981 L 51.97349 299.74252 L 47.17044 296.68896 M 40.50839 303.75631 L 41.14047 312.74099 L 51.21974 301.74902 L 40.50839 303.75631 M 33.62965 310.12339 L 38.94170 313.78779 L 38.30963 304.80311 L 33.62965 310.12339 M 25.05897 314.08269 L 23.72797 319.14602 L 30.05745 317.65706 L 25.05897 314.08269 M 17.10678 312.30019 L 22.10914 318.47641 L 23.44014 313.41309 L 17.10678 312.30019 M 15.87867 313.84492 L 13.61530 325.77094 L 20.88103 320.02114 L 15.87867 313.84492 M 22.75735 306.00829 L 24.98371 311.77591 L 30.35073 310.03376 L 22.75735 306.00829 M 25.70525 303.51636 L 37.97861 302.22154 L 43.88691 297.16069 L 25.70525 303.51636 M 33.32512 327.68050 L 37.11795 333.26898 L 41.20396 327.56398 L 33.32512 327.68050 M 24.87940 329.34632 L 26.96698 334.01208 L 30.38340 327.96110 L 24.87940 329.34632 M 20.29185 334.97876 L 25.70554 334.88928 L 23.61795 330.22353 L 20.29185 334.97876 M 18.83953 334.25407 L 22.16564 329.49883 L 14.08702 329.09170 L 18.83953 334.25407 M 19.06848 337.95922 L 15.90277 348.45067 L 22.41037 343.48623 L 19.06848 337.95922 M 12.57458 335.68532 L 13.23188 371.75633 L 14.16140 351.33913 L 12.57458 335.68532 M 13.15962 331.26980 L 14.74643 346.92361 L 17.91213 336.43216 L 13.15962 331.26980 M 28.84119 336.33657 L 36.08025 342.35375 L 36.05043 335.87407 L 28.84119 336.33657 M 34.75438 343.22218 L 27.51533 337.20499 L 25.44353 342.82148 L 34.75438 343.22218 M 37.78192 342.77254 L 42.45456 339.68686 L 37.75210 336.29286 L 37.78192 342.77254 M 37.78088 350.47537 L 45.76511 347.90155 L 38.15295 345.26112 L 37.78088 350.47537 M 41.41906 356.13767 L 46.17337 349.26111 L 38.18914 351.83494 L 41.41906 356.13767 M 43.06926 357.79351 L 48.02695 359.81902 L 51.18739 356.17957 L 43.06926 357.79351 M 49.87153 360.47271 L 57.82587 363.02305 L 53.03196 356.83327 L 49.87153 360.47271 M 52.44580 369.00316 L 60.06306 370.89454 L 58.89314 365.53325 L 52.44580 369.00316 M 51.77102 370.40786 L 53.49490 376.77087 L 59.38828 372.29924 L 51.77102 370.40786 M 42.43891 368.70651 L 41.64548 377.35821 L 48.57115 370.07393 L 42.43891 368.70651 M 40.56737 365.34678 L 40.23492 358.66843 L 33.13787 358.52611 L 40.56737 365.34678 M 32.15422 371.15533 L 39.59337 377.49338 L 40.38679 368.84169 L 32.15422 371.15533 M 42.76779 378.46255 L 51.41734 377.54128 L 49.69345 371.17828 L 42.76779 378.46255 M 40.57439 381.82613 L 36.49610 390.41442 L 44.87408 388.57732 L 40.57439 381.82613 M 37.91033 392.19100 L 30.44130 393.26654 L 67.73528 393.12610 L 37.91033 392.19100 M 54.72029 380.90683 L 50.37044 388.57930 L 71.81740 391.35150 L 54.72029 380.90683 M 56.18361 379.17196 L 73.28072 389.61663 L 62.07699 374.70034 L 56.18361 379.17196 M 61.72107 364.01141 L 67.82262 365.44610 L 70.13761 360.75507 L 61.72107 364.01141 M 61.03015 362.82711 L 69.44669 359.57077 L 62.29525 355.97172 L 61.03015 362.82711 M 62.99344 352.95627 L 70.15876 349.62260 L 66.60177 345.63621 L 62.99344 352.95627 M 56.02298 350.01213 L 53.95903 354.66877 L 60.01805 354.00316 L 56.02298 350.01213 M 55.20276 347.94241 L 56.82010 342.70802 L 49.77500 347.33643 L 55.20276 347.94241 M 49.24911 348.74943 L 52.61292 354.01205 L 54.67686 349.35541 L 49.24911 348.74943 M 45.64017 340.70574 L 48.57968 346.43184 L 55.62478 341.80344 L 45.64017 340.70574 M 45.96460 339.24557 L 55.94921 340.34327 L 51.17515 334.75051 L 45.96460 339.24557 M 44.45016 337.78890 L 49.66071 333.29384 L 43.83372 328.68989 L 44.45016 337.78890 M 53.26367 333.78642 L 58.03774 339.37918 L 62.67281 331.53287 L 53.26367 333.78642 M 59.57490 340.45034 L 65.56096 342.35571 L 64.20997 332.60403 L 59.57490 340.45034 M 71.45903 348.24605 L 73.39563 341.94382 L 67.90205 344.25965 L 71.45903 348.24605 M 81.96871 338.62618 L 84.70770 343.77430 L 87.08600 338.11997 L 81.96871 338.62618 M 82.37202 336.91071 L 87.48931 336.40451 L 87.93416 330.05060 L 82.37202 336.91071 M 89.05314 335.44516 L 94.88272 329.23598 L 89.49799 329.09126 L 89.05314 335.44516 M 95.67985 339.42739 L 100.63396 337.24373 L 96.85635 330.58428 L 95.67985 339.42739 M 86.10347 344.07826 L 93.13484 341.05785 L 88.48177 338.42393 L 86.10347 344.07826 M 88.85049 354.92655 L 96.27768 360.59182 L 94.00689 350.29476 L 88.85049 354.92655 M 87.42001 362.48803 L 95.45432 362.11598 L 88.02713 356.45071 L 87.42001 362.48803 M 85.88542 364.33865 L 79.35897 365.49619 L 90.31116 369.72609 L 85.88542 364.33865 M 78.47279 368.47979 L 78.79597 388.20743 L 89.42498 372.70969 L 78.47279 368.47979 M 70.10942 368.88665 L 76.38152 387.72955 L 76.05834 368.00191 L 70.10942 368.88665 M 81.80263 390.68172 L 102.52614 388.27407 L 92.43165 375.18398 L 81.80263 390.68172 M 95.10990 373.30656 L 105.20439 386.39665 L 103.22865 375.66239 L 95.10990 373.30656 M 99.61821 361.83761 L 107.43244 360.85207 L 105.48974 355.58128 L 99.61821 361.83761 M 109.00974 362.42751 L 105.70569 371.52836 L 113.59793 360.06949 L 109.00974 362.42751 M 107.26151 355.10363 L 109.20421 360.37442 L 113.79241 358.01639 L 107.26151 355.10363 M 107.74779 354.02345 L 114.27868 356.93622 L 113.09441 351.73298 L 107.74779 354.02345 M 106.77276 352.64841 L 112.11938 350.35794 L 106.47845 345.93595 L 106.77276 352.64841 M 107.42286 344.88783 L 113.06379 349.30982 L 114.32807 344.26344 L 107.42286 344.88783 M 114.55039 351.22076 L 115.73466 356.42400 L 119.39561 349.92571 L 114.55039 351.22076 M 124.52612 339.48543 L 127.75862 348.24065 L 131.91560 339.13819 L 124.52612 339.48543 M 118.45710 331.61371 L 125.25488 328.04689 L 120.56235 324.97269 L 118.45710 331.61371 M 112.69522 326.49063 L 116.88714 331.41918 L 118.99239 324.77816 L 112.69522 326.49063 M 111.63151 327.81356 L 110.48276 335.36158 L 115.82344 332.74210 L 111.63151 327.81356 M 105.55735 328.62062 L 110.36344 325.66762 L 109.33619 320.16959 L 105.55735 328.62062 M 105.53999 330.48435 L 109.19733 335.07936 L 110.34608 327.53134 L 105.53999 330.48435 M 100.14251 319.25697 L 104.27973 327.81929 L 108.05858 319.36826 L 100.14251 319.25697 M 111.66656 318.56192 L 118.99098 322.34748 L 117.90310 317.47176 L 111.66656 318.56192 M 121.63859 323.70670 L 126.33113 326.78089 L 127.06708 321.48575 L 121.63859 323.70670 M 128.47704 319.25172 L 133.33921 317.52005 L 127.32016 312.86132 L 128.47704 319.25172 M 129.77151 320.62459 L 137.67590 323.84425 L 134.63368 318.89291 L 129.77151 320.62459 M 141.50866 324.78840 L 149.96509 327.25572 L 148.93491 320.75915 L 141.50866 324.78840 M 134.54025 339.62789 L 135.79641 347.18450 L 140.11017 344.94886 L 134.54025 339.62789 M 142.10278 345.95635 L 137.78903 348.19199 L 150.48114 347.68782 L 142.10278 345.95635 M 138.23156 352.18181 L 145.64305 377.87486 L 150.92367 351.67763 L 138.23156 352.18181 M 130.23195 354.02051 L 143.05658 378.16772 L 135.64509 352.47467 L 130.23195 354.02051 M 90.52438 327.16906 L 95.90910 327.31378 L 97.26420 320.06756 L 90.52438 327.16906 M 80.75114 302.67101 L 83.43829 312.45968 L 89.57857 305.32009 L 80.75114 302.67101 M 78.21956 298.80744 L 79.33861 292.00465 L 70.89409 291.00295 L 78.21956 298.80744 M 68.99393 287.75188 L 78.16470 276.58663 L 62.29208 284.96579 L 68.99393 287.75188 M 63.13681 280.97966 L 79.00943 272.60050 L 75.75179 255.86284 L 63.13681 280.97966 M 59.93345 286.94992 L 59.29574 292.45966 L 66.63531 289.73601 L 59.93345 286.94992 M 59.92295 293.64116 L 64.95117 296.40192 L 67.26252 290.91751 L 59.92295 293.64116 M 56.74989 314.82961 L 62.64523 306.73599 L 55.41377 302.31217 L 56.74989 314.82961 M 45.06419 326.49421 L 50.89118 331.09815 L 54.29393 320.22341 L 45.06419 326.49421 M 29.39075 350.86798 L 31.33705 356.17842 L 35.20418 352.01800 L 29.39075 350.86798 M 16.82666 349.87808 L 26.45960 349.37857 L 23.33426 344.91365 L 16.82666 349.87808 M 16.13776 351.75122 L 17.82302 359.89869 L 25.77069 351.25170 L 16.13776 351.75122 M 16.25676 379.15608 L 25.99744 380.93809 L 27.96245 372.68412 L 16.25676 379.15608 M 14.62444 381.30767 L 14.90388 389.89681 L 24.36512 383.08968 L 14.62444 381.30767 M 19.42537 261.34041 L 16.49301 304.43724 L 20.60001 299.78251 L 19.42537 261.34041 M 31.34163 247.65738 L 71.53009 247.79153 L 72.80929 233.28100 L 31.34163 247.65738 M 46.41536 201.28337 L 40.64567 201.46616 L 50.08427 204.47484 L 46.41536 201.28337 M 52.68989 199.20020 L 70.88493 200.77918 L 76.31581 186.41332 L 52.68989 199.20020 M 71.25399 205.89710 L 56.72786 207.50960 L 75.59930 224.16520 L 71.25399 205.89710 M 76.56370 204.91925 L 89.94278 215.35379 L 90.17181 207.52037 L 76.56370 204.91925 M 92.98648 208.20781 L 92.75746 216.04122 L 99.08113 210.41873 L 92.98648 208.20781 M 93.17552 198.41989 L 93.03967 205.16970 L 99.14175 200.69705 L 93.17552 198.41989 M 94.10389 196.88231 L 100.07012 199.15946 L 100.46666 192.86899 L 94.10389 196.88231 M 103.55908 193.00256 L 103.16255 199.29303 L 118.84331 197.95089 L 103.55908 193.00256 M 100.52841 182.39969 L 101.89583 189.62545 L 106.50819 184.45024 L 100.52841 182.39969 M 107.78453 172.37787 L 101.26449 180.24375 L 107.24428 182.29429 L 107.78453 172.37787 M 109.67483 171.61560 L 109.13459 181.53202 L 116.38694 174.14556 L 109.67483 171.61560 M 118.12309 175.29292 L 110.87074 182.67938 L 123.56407 180.79448 L 118.12309 175.29292 M 127.05876 182.93776 L 125.03729 194.94620 L 135.40876 182.31562 L 127.05876 182.93776 M 126.97546 196.30828 L 142.56409 193.83445 L 137.34693 183.67771 L 126.97546 196.30828 M 124.54218 201.50392 L 124.50223 214.88447 L 133.50928 209.38846 L 124.54218 201.50392 M 135.51320 208.15221 L 140.53364 204.99444 L 126.54611 200.26767 L 135.51320 208.15221 M 137.67437 210.23202 L 143.83540 216.90620 L 142.69480 207.07425 L 137.67437 210.23202 M 136.81889 211.46594 L 135.85100 216.94564 L 142.97992 218.14012 L 136.81889 211.46594 M 135.69243 218.44229 L 135.55037 223.43918 L 142.82136 219.63677 L 135.69243 218.44229 M 136.45120 224.48529 L 142.89902 226.81122 L 143.72218 220.68289 L 136.45120 224.48529 M 129.97031 231.06516 L 135.21260 230.84665 L 134.06916 226.08726 L 129.97031 231.06516 M 128.79171 230.50338 L 132.89056 225.52548 L 125.78376 226.35238 L 128.79171 230.50338 M 120.53515 231.95783 L 121.05370 237.24920 L 126.89332 232.42884 L 120.53515 231.95783 M 122.19948 238.41120 L 129.70141 241.25383 L 128.03910 233.59084 L 122.19948 238.41120 M 121.29056 240.01796 L 120.76775 246.44492 L 128.79249 242.86059 L 121.29056 240.01796 M 112.20313 242.73344 L 118.69408 246.42902 L 119.21689 240.00207 L 112.20313 242.73344 M 111.10011 244.24469 L 110.39271 252.09207 L 117.59105 247.94027 L 111.10011 244.24469 M 111.07792 253.43189 L 116.58174 254.96321 L 118.27626 249.28009 L 111.07792 253.43189 M 118.06054 254.94743 L 122.90832 253.30563 L 119.75506 249.26431 L 118.06054 254.94743 M 117.55648 256.88131 L 115.72262 264.73537 L 122.40427 255.23951 L 117.55648 256.88131 M 104.43236 262.77253 L 108.04191 254.68244 L 103.10154 252.72574 L 104.43236 262.77253 M 104.02880 268.07037 L 100.14477 281.24239 L 107.36664 273.84630 L 104.02880 268.07037 M 97.48838 260.62087 L 103.11317 263.51483 L 101.78235 253.46804 L 97.48838 260.62087 M 93.31480 249.71111 L 100.62869 249.98033 L 96.90380 243.03519 L 93.31480 249.71111 M 92.23957 248.08706 L 95.82857 241.41115 L 92.02684 236.98795 L 92.23957 248.08706 M 80.45371 251.09246 L 93.74171 259.03442 L 90.72179 251.61237 L 80.45371 251.09246 M 79.98698 231.78885 L 78.70778 246.29938 L 88.76313 235.72017 L 79.98698 231.78885 M 81.92589 229.65419 L 90.70204 233.58551 L 94.21904 229.22212 L 81.92589 229.65419 M 81.96269 227.97349 L 94.25584 227.54142 L 90.99645 220.13993 L 81.96269 227.97349 M 79.58576 225.42549 L 88.61952 217.59193 L 75.24044 207.15739 L 79.58576 225.42549 M 97.41461 230.16509 L 97.69934 238.95169 L 103.68874 232.77478 L 97.41461 230.16509 M 100.72879 221.59906 L 97.79329 227.99601 L 104.06742 230.60571 L 100.72879 221.59906 M 106.70300 231.43472 L 112.13942 233.69184 L 110.10281 223.36438 L 106.70300 231.43472 M 112.62720 222.29011 L 119.10584 229.56907 L 122.45607 225.88908 L 112.62720 222.29011 M 112.99291 220.93476 L 122.82177 224.53373 L 122.03147 218.72626 L 112.99291 220.93476 M 110.17465 212.09711 L 111.41202 219.38018 L 120.45058 217.17168 L 110.17465 212.09711 M 145.01591 205.25147 L 149.71043 208.80460 L 152.68936 201.92858 L 145.01591 205.25147 M 151.56223 211.00939 L 154.86453 214.75007 L 159.50690 212.27314 L 151.56223 211.00939 M 152.37059 209.93880 L 160.31526 211.20255 L 161.33144 206.18534 L 152.37059 209.93880 M 155.77071 215.86108 L 158.81169 219.89742 L 160.41308 213.38414 L 155.77071 215.86108 M 154.94375 217.36029 L 153.79739 225.37789 L 157.98473 221.39664 L 154.94375 217.36029 M 146.67364 219.68440 L 152.38351 225.16386 L 153.52986 217.14626 L 146.67364 219.68440 M 145.57659 220.92247 L 144.75343 227.05080 L 151.28645 226.40193 L 145.57659 220.92247 M 153.30228 227.51532 L 150.98282 234.45970 L 157.48961 223.53407 L 153.30228 227.51532 M 157.55130 246.24426 L 150.28228 286.59145 L 219.62593 270.51896 L 157.55130 246.24426 M 132.41805 241.31772 L 138.69029 239.14082 L 135.99803 233.43622 L 132.41805 241.31772 M 131.02535 244.97464 L 126.15386 252.60029 L 136.00011 252.88905 L 131.02535 244.97464 M 130.29918 274.47129 L 138.10104 288.57722 L 137.24689 260.16389 L 130.29918 274.47129 M 118.17295 282.84196 L 119.77042 288.20336 L 126.14312 276.94953 L 118.17295 282.84196 M 108.16700 287.15384 L 115.03229 282.63331 L 109.48061 276.12123 L 108.16700 287.15384 M 98.86440 280.00383 L 102.74843 266.83181 L 97.12364 263.93784 L 98.86440 280.00383 M 84.85683 273.57665 L 96.62795 280.84694 L 94.88719 264.78095 L 84.85683 273.57665 M 119.89635 297.98133 L 125.11161 301.37660 L 119.84730 292.59963 L 119.89635 297.98133 M 151.06607 294.96353 L 163.82166 313.22087 L 220.40972 278.89104 L 151.06607 294.96353 M 163.54255 205.71171 L 162.52637 210.72892 L 170.05944 206.14979 L 163.54255 205.71171 M 164.57334 204.08380 L 171.09023 204.52188 L 170.77269 197.70568 L 164.57334 204.08380 M 161.41309 196.62650 L 163.36370 203.09688 L 169.56305 196.71875 L 161.41309 196.62650 M 154.64013 201.89996 L 151.66120 208.77598 L 160.62205 205.02251 L 154.64013 201.89996 M 147.89907 193.68228 L 158.00274 194.21216 L 154.33448 184.40430 L 147.89907 193.68228 M 156.19974 183.25981 L 159.86799 193.06767 L 162.82110 184.52638 L 156.19974 183.25981 M 146.70808 179.51413 L 146.48724 191.84503 L 152.92265 182.56704 L 146.70808 179.51413 M 145.04342 179.38859 L 139.60542 181.56275 L 144.82259 191.71949 L 145.04342 179.38859 M 147.93781 176.96453 L 154.15238 180.01744 L 156.32508 171.44823 L 147.93781 176.96453 M 145.98751 175.57197 L 149.00386 168.61908 L 143.92091 170.31358 L 145.98751 175.57197 M 142.71315 171.61744 L 139.34174 179.04999 L 144.77974 176.87584 L 142.71315 171.61744 M 142.28840 165.81124 L 149.51818 157.84573 L 130.78057 145.82424 L 142.28840 165.81124 M 135.68923 172.40416 L 138.20543 178.49103 L 141.57683 171.05848 L 135.68923 172.40416 M 153.38170 160.42210 L 151.23486 166.69310 L 156.60579 168.12970 L 153.38170 160.42210 M 158.99452 152.01378 L 154.73332 157.80303 L 161.01069 159.23737 L 158.99452 152.01378 M 167.26458 142.70760 L 166.78420 157.04890 L 198.42484 147.41298 L 167.26458 142.70760 M 170.37307 133.01834 L 167.71319 139.70378 L 198.87345 144.40916 L 170.37307 133.01834 M 167.13967 123.22246 L 162.89733 125.62770 L 166.31200 129.10025 L 167.13967 123.22246 M 161.92701 126.84223 L 159.37716 132.93869 L 165.34169 130.31478 L 161.92701 126.84223 M 160.76219 125.83847 L 156.02311 122.28475 L 158.21233 131.93493 L 160.76219 125.83847 M 162.77863 116.39463 L 156.59390 120.34221 L 161.33298 123.89594 L 162.77863 116.39463 M 165.05356 113.89869 L 170.61940 114.53450 L 167.78181 107.24018 L 165.05356 113.89869 M 156.92285 109.32377 L 156.04263 118.52069 L 162.22737 114.57311 L 156.92285 109.32377 M 149.49458 112.26723 L 154.45103 118.23245 L 155.33125 109.03554 L 149.49458 112.26723 M 147.83459 103.21871 L 155.45190 106.01105 L 157.19683 100.06058 L 147.83459 103.21871 M 138.97292 103.39454 L 139.43169 109.73539 L 144.02969 104.00296 L 138.97292 103.39454 M 133.47341 98.56896 L 131.27590 105.20955 L 136.89381 102.28789 L 133.47341 98.56896 M 132.18624 98.14138 L 126.59641 98.86727 L 129.98872 104.78197 L 132.18624 98.14138 M 125.00958 99.81076 L 119.49159 105.68931 L 128.40189 105.72546 L 125.00958 99.81076 M 115.08641 97.21862 L 117.82716 104.62596 L 123.34515 98.74740 L 115.08641 97.21862 M 111.36874 89.76251 L 113.68638 94.43895 L 117.20329 88.59380 L 111.36874 89.76251 M 109.62390 90.67532 L 103.24459 95.89621 L 111.94154 95.35175 L 109.62390 90.67532 M 102.25663 89.54098 L 102.03398 95.16986 L 108.41329 89.94897 L 102.25663 89.54098 M 100.58527 90.12155 L 95.04235 94.59356 L 100.36261 95.75043 L 100.58527 90.12155 M 96.08249 86.13594 L 94.50734 93.39174 L 100.05025 88.91974 L 96.08249 86.13594 M 97.32686 84.90581 L 101.29463 87.68962 L 104.46235 83.55076 L 97.32686 84.90581 M 97.14438 77.26741 L 96.80808 83.60304 L 103.94357 82.24799 L 97.14438 77.26741 M 106.36207 74.28521 L 106.96378 81.10748 L 114.77232 76.32064 L 106.36207 74.28521 M 105.90869 84.00673 L 102.74097 88.14559 L 108.89762 88.55358 L 105.90869 84.00673 M 118.71420 89.48026 L 115.19729 95.32541 L 123.45603 96.85419 L 118.71420 89.48026 M 119.86451 76.43048 L 130.88995 83.03410 L 128.26564 73.34716 L 119.86451 76.43048 M 131.17050 72.09052 L 136.06593 76.26259 L 140.83235 71.89230 L 131.17050 72.09052 M 134.07954 85.08899 L 140.48577 88.69757 L 136.35064 79.57412 L 134.07954 85.08899 M 148.82527 81.32133 L 154.42369 85.99267 L 155.01416 80.52784 L 148.82527 81.32133 M 156.67010 88.89337 L 159.22122 96.81643 L 164.83589 91.13903 L 156.67010 88.89337 M 149.75909 94.14426 L 147.12299 101.73536 L 156.48523 98.57724 L 149.75909 94.14426 M 160.48913 99.34264 L 166.77696 103.88393 L 166.14023 98.88437 L 160.48913 99.34264 M 176.03934 98.45243 L 176.22226 106.32214 L 181.28203 102.66516 L 176.03934 98.45243 M 180.93760 104.55926 L 175.87782 108.21624 L 173.28385 113.60524 L 180.93760 104.55926 M 183.90745 103.99350 L 176.25370 113.03948 L 199.63662 103.69023 L 183.90745 103.99350 M 190.74753 89.40214 L 193.43708 95.60614 L 196.38377 90.44926 L 190.74753 89.40214 M 197.95037 91.84376 L 195.00367 97.00064 L 203.28027 100.55817 L 197.95037 91.84376 M 196.01060 82.84824 L 191.06922 87.80740 L 196.70546 88.85452 L 196.01060 82.84824 M 198.02915 82.28574 L 198.72401 88.29202 L 207.21757 83.30738 L 198.02915 82.28574 M 187.97128 81.86482 L 189.97744 86.93369 L 194.91883 81.97453 L 187.97128 81.86482 M 186.29275 82.52373 L 181.49056 87.24588 L 188.29891 87.59261 L 186.29275 82.52373 M 179.57991 78.14861 L 180.40068 86.06538 L 185.20287 81.34324 L 179.57991 78.14861 M 178.22065 78.32688 L 174.32884 82.76939 L 179.04143 86.24365 L 178.22065 78.32688 M 179.89569 76.27210 L 185.51866 79.46672 L 182.92698 71.05324 L 179.89569 76.27210 M 169.52962 72.70271 L 166.67934 81.36247 L 171.98960 81.60213 L 169.52962 72.70271 M 168.41539 71.98318 L 163.07578 75.84589 L 165.56511 80.64295 L 168.41539 71.98318 M 171.65437 69.01434 L 181.03744 68.25239 L 176.75421 61.51687 L 171.65437 69.01434 M 160.05633 65.02582 L 149.94721 64.71941 L 155.76170 68.04067 L 160.05633 65.02582 M 150.58994 63.09943 L 160.69906 63.40584 L 160.90353 55.08087 L 150.58994 63.09943 M 148.79342 65.67361 L 150.82607 72.65943 L 154.60792 68.99487 L 148.79342 65.67361 M 143.88209 49.77298 L 148.48782 61.39532 L 158.80141 53.37676 L 143.88209 49.77298 M 149.66439 36.96414 L 144.43534 34.26228 L 142.41659 44.93458 L 149.66439 36.96414 M 162.49902 36.82023 L 169.14514 31.97557 L 164.87022 26.44097 L 162.49902 36.82023 M 169.74542 33.76636 L 163.09929 38.61102 L 169.67242 40.76727 L 169.74542 33.76636 M 175.92391 36.73936 L 171.34849 33.53240 L 171.27550 40.53331 L 175.92391 36.73936 M 180.06308 43.66871 L 186.88875 38.49788 L 178.62700 37.63946 L 180.06308 43.66871 M 172.09721 44.13558 L 176.48611 56.32128 L 178.18170 46.37088 L 172.09721 44.13558 M 187.87665 39.80183 L 181.05099 44.97266 L 186.53024 48.07107 L 187.87665 39.80183 M 189.72628 39.57339 L 188.37987 47.84263 L 195.84806 43.14514 L 189.72628 39.57339 M 195.73283 33.63223 L 198.23312 41.25593 L 203.83884 36.78097 L 195.73283 33.63223 M 201.63530 27.45849 L 196.15810 31.90755 L 204.26412 35.05628 L 201.63530 27.45849 M 209.27489 26.50381 L 203.27490 26.78302 L 205.90371 34.38082 L 209.27489 26.50381 M 207.36898 38.91372 L 209.59661 50.93172 L 216.14057 43.15126 L 207.36898 38.91372 M 205.31508 38.94764 L 199.70936 43.42261 L 207.54270 50.96564 L 205.31508 38.94764 M 198.88824 45.36893 L 198.74614 54.51816 L 206.72159 52.91195 L 198.88824 45.36893 M 188.51598 51.84389 L 190.95724 62.43423 L 195.84207 56.29563 L 188.51598 51.84389 M 197.02842 58.30861 L 192.14359 64.44721 L 198.00676 67.94775 L 197.02842 58.30861 M 198.78876 58.23871 L 199.76711 67.87785 L 206.22636 63.88801 L 198.78876 58.23871 M 207.76380 55.02603 L 199.78835 56.63224 L 207.22595 62.28154 L 207.76380 55.02603 M 209.82048 55.95552 L 209.28263 63.21103 L 216.24176 64.06819 L 209.82048 55.95552 M 207.10488 65.63795 L 200.64563 69.62778 L 205.81691 72.23816 L 207.10488 65.63795 M 199.48619 71.34345 L 197.82938 79.36328 L 204.65747 73.95383 L 199.48619 71.34345 M 198.00357 71.40431 L 192.79651 74.44077 L 196.34676 79.42415 L 198.00357 71.40431 M 191.53949 66.25801 L 192.19560 72.79500 L 197.40266 69.75855 L 191.53949 66.25801 M 217.80595 75.14927 L 211.75969 81.75548 L 219.82632 81.46136 L 217.80595 75.14927 M 224.88795 76.93888 L 219.44698 74.54720 L 221.46735 80.85929 L 224.88795 76.93888 M 225.87196 77.96692 L 222.45136 81.88733 L 227.31906 82.77150 L 225.87196 77.96692 M 232.08621 76.80130 L 227.07631 77.33116 L 228.52341 82.13574 L 232.08621 76.80130 M 233.18899 78.07877 L 229.62619 83.41321 L 235.89856 87.55093 L 233.18899 78.07877 M 241.76114 75.78319 L 244.47071 85.25535 L 298.20337 65.04855 L 241.76114 75.78319 M 235.49964 89.11316 L 229.22727 84.97544 L 229.99758 90.57657 L 235.49964 89.11316 M 227.58881 85.35164 L 222.39200 92.12273 L 228.35912 90.95277 L 227.58881 85.35164 M 226.78338 84.42517 L 221.91569 83.54100 L 221.58657 91.19626 L 226.78338 84.42517 M 220.00653 84.17412 L 211.51013 89.49017 L 219.67742 91.82938 L 220.00653 84.17412 M 218.90117 83.12253 L 210.83454 83.41664 L 210.40477 88.43858 L 218.90117 83.12253 M 218.87616 93.36812 L 210.70887 91.02891 L 213.59647 96.48404 L 218.87616 93.36812 M 213.29794 98.63559 L 207.67646 101.85757 L 219.22180 101.90346 L 213.29794 98.63559 M 209.15156 91.93433 L 206.41768 100.61143 L 212.03916 97.38945 L 209.15156 91.93433 M 232.65858 97.50101 L 229.07337 93.26941 L 223.75041 100.82316 L 232.65858 97.50101 M 234.43789 112.24097 L 222.05437 107.48890 L 212.02967 138.52114 L 234.43789 112.24097 M 228.38967 66.05269 L 227.05960 75.32078 L 232.06949 74.79092 L 228.38967 66.05269 M 226.89669 65.78671 L 220.12565 72.66312 L 225.56662 75.05481 L 226.89669 65.78671 M 226.09663 64.64962 L 219.16611 65.95809 L 219.32558 71.52603 L 226.09663 64.64962 M 220.55843 54.71334 L 211.22995 54.89331 L 217.65124 63.00598 L 220.55843 54.71334 M 228.76629 51.44470 L 219.98130 44.69514 L 222.76581 52.29562 L 228.76629 51.44470 M 232.09898 42.65547 L 221.14794 43.49012 L 229.93294 50.23969 L 232.09898 42.65547 M 217.79144 44.84241 L 211.24748 52.62287 L 220.57596 52.44289 L 217.79144 44.84241 M 228.42203 25.59037 L 220.95908 40.40896 L 231.91011 39.57431 L 228.42203 25.59037 M 225.51815 21.00244 L 214.07949 14.98544 L 212.65478 23.70649 L 225.51815 21.00244 M 209.62928 13.27105 L 196.03243 14.56423 L 202.08861 14.71520 L 209.62928 13.27105 M 206.81050 13.21408 L 179.53841 14.25950 L 193.21366 14.50727 L 206.81050 13.21408 M 192.37475 16.25185 L 186.76717 20.13563 L 192.03158 23.03916 L 192.37475 16.25185 M 194.57957 23.60691 L 201.09489 24.52667 L 200.97891 16.97057 L 194.57957 23.60691 M 191.96735 25.55806 L 185.55833 28.13070 L 193.00546 30.92688 L 191.96735 25.55806 M 185.80257 21.47276 L 184.65797 26.94893 L 191.06698 24.37629 L 185.80257 21.47276 M 185.18928 29.47652 L 189.01492 36.32466 L 192.63641 32.27270 L 185.18928 29.47652 M 166.11801 23.97881 L 170.39294 29.51341 L 172.48138 17.12292 L 166.11801 23.97881 M 163.28537 26.14940 L 156.46635 29.64303 L 160.91417 36.52866 L 163.28537 26.14940 M 167.88709 14.19979 L 139.94564 12.12594 L 155.21664 15.05802 L 167.88709 14.19979 M 170.96967 15.47546 L 158.29922 16.33369 L 164.60630 22.33134 L 170.96967 15.47546 M 151.62483 15.68087 L 136.35384 12.74880 L 139.15264 19.18262 L 151.62483 15.68087 M 136.60119 20.00424 L 133.80239 13.57042 L 131.21322 22.25385 L 136.60119 20.00424 M 136.95176 21.80161 L 131.56379 24.05122 L 136.60692 27.94936 L 136.95176 21.80161 M 129.03664 24.86944 L 124.05905 26.26899 L 126.75523 30.84599 L 129.03664 24.86944 M 125.02508 19.11609 L 123.84278 24.80276 L 128.82037 23.40321 L 125.02508 19.11609 M 131.24320 12.29353 L 119.92300 14.07623 L 124.85876 16.68984 L 131.24320 12.29353 M 108.91643 17.71874 L 107.62694 25.92823 L 113.33663 25.78677 L 108.91643 17.71874 M 99.64709 13.77344 L 108.16543 15.06525 L 114.55750 14.06016 L 99.64709 13.77344 M 94.61619 14.26749 L 88.13474 13.66360 L 89.31007 19.90823 L 94.61619 14.26749 M 97.56471 22.39273 L 90.42253 22.49392 L 95.19838 28.80953 L 97.56471 22.39273 M 99.35542 22.94423 L 96.98909 29.36103 L 104.74821 26.90598 L 99.35542 22.94423 M 97.90096 32.23121 L 106.65042 45.90564 L 105.66009 29.77616 L 97.90096 32.23121 M 93.25017 37.63528 L 105.09918 46.88803 L 96.34972 33.21360 L 93.25017 37.63528 M 92.38327 39.19706 L 89.41448 45.70783 L 104.23228 48.44981 L 92.38327 39.19706 M 83.53562 41.01056 L 80.27999 45.64913 L 85.77004 45.59814 L 83.53562 41.01056 M 78.92029 47.95387 L 75.74939 54.79212 L 81.31900 52.55920 L 78.92029 47.95387 M 80.95152 54.31371 L 75.38191 56.54662 L 75.98046 61.98993 L 80.95152 54.31371 M 82.25943 55.24785 L 77.28836 62.92407 L 85.84516 64.01976 L 82.25943 55.24785 M 77.19134 65.05293 L 81.48324 72.27872 L 85.74814 66.14862 L 77.19134 65.05293 M 75.70355 65.70948 L 73.84582 71.40095 L 79.99545 72.93526 L 75.70355 65.70948 M 69.21776 60.50744 L 74.51374 62.76415 L 73.91519 57.32084 L 69.21776 60.50744 M 60.84414 60.80171 L 57.91830 67.65301 L 63.88071 66.90169 L 60.84414 60.80171 M 55.05861 60.11360 L 60.51628 58.33481 L 63.78971 52.23902 L 55.05861 60.11360 M 54.17300 61.96318 L 56.70484 67.03570 L 59.63067 60.18440 L 54.17300 61.96318 M 53.02472 62.97846 L 50.44446 68.30657 L 55.55656 68.05097 L 53.02472 62.97846 M 51.61591 62.71905 L 44.28608 65.97573 L 49.03565 68.04716 L 51.61591 62.71905 M 43.31660 64.77999 L 50.64643 61.52331 L 41.27977 58.48127 L 43.31660 64.77999 M 42.03609 67.24375 L 36.71383 69.03096 L 43.68778 73.14740 L 42.03609 67.24375 M 39.47232 59.20182 L 36.18689 67.28777 L 41.50916 65.50055 L 39.47232 59.20182 M 32.15794 53.84755 L 31.88446 59.42807 L 37.95525 57.03375 L 32.15794 53.84755 M 23.60479 55.90714 L 25.25493 63.60650 L 29.52296 60.38722 L 23.60479 55.90714 M 21.94784 55.77490 L 16.26735 59.32933 L 23.59798 63.47426 L 21.94784 55.77490 M 15.38177 52.96546 L 15.24033 58.01573 L 20.92081 54.46130 L 15.38177 52.96546 M 15.60969 51.08163 L 21.14873 52.57747 L 17.06371 42.94508 L 15.60969 51.08163 M 14.48079 50.81399 L 13.71296 37.24953 L 14.33935 55.86426 L 14.48079 50.81399 M 15.47828 61.14280 L 15.63526 70.28263 L 22.80890 65.28773 L 15.47828 61.14280 M 23.95580 66.67153 L 16.78215 71.66643 L 24.65341 72.21321 L 23.95580 66.67153 M 41.68041 80.68688 L 28.35068 79.63978 L 32.33292 124.49022 L 41.68041 80.68688 M 57.76995 69.31855 L 59.65729 74.12599 L 63.73235 68.56722 L 57.76995 69.31855 M 70.83222 73.40373 L 61.48220 75.93216 L 67.09432 80.73759 L 70.83222 73.40373 M 80.03461 74.84406 L 73.88499 73.30975 L 76.01689 80.97989 L 80.03461 74.84406 M 81.14920 75.83476 L 77.13148 81.97058 L 82.80172 81.23529 L 81.14920 75.83476 M 82.73650 82.88995 L 77.06627 83.62524 L 80.62747 89.07200 L 82.73650 82.88995 M 84.10795 83.51077 L 81.99891 89.69282 L 88.03781 88.59184 L 84.10795 83.51077 M 86.27444 81.55666 L 94.59944 83.51662 L 94.93574 77.18099 L 86.27444 81.55666 M 89.42228 90.70617 L 86.32480 97.39174 L 92.24227 94.84088 L 89.42228 90.70617 M 92.50223 96.16965 L 86.58477 98.72051 L 91.50197 101.33628 L 92.50223 96.16965 M 94.10762 95.97051 L 93.10736 101.13714 L 99.42787 97.12738 L 94.10762 95.97051 M 100.31733 98.49397 L 93.99682 102.50373 L 101.22325 106.90319 L 100.31733 98.49397 M 91.47793 107.63878 L 86.56072 105.02300 L 92.30989 146.58961 L 91.47793 107.63878 M 100.43917 113.04042 L 93.21274 108.64096 L 94.04469 147.59179 L 100.43917 113.04042 M 119.60625 110.00187 L 125.92681 134.31123 L 128.51655 110.03802 L 119.60625 110.00187 M 136.73421 113.95084 L 130.65754 110.53164 L 128.06781 134.80485 L 136.73421 113.95084 M 126.45489 147.51914 L 120.80033 170.05927 L 132.07511 168.85181 L 126.45489 147.51914 M 105.31029 160.72463 L 109.90361 166.19716 L 122.27027 146.18699 L 105.31029 160.72463 M 97.46914 156.80081 L 103.75598 159.55009 L 120.71596 145.01245 L 97.46914 156.80081 M 93.93601 159.39300 L 92.45088 165.74995 L 100.22284 162.14227 L 93.93601 159.39300 M 91.37361 168.06932 L 88.26653 172.43251 L 96.19688 169.97709 L 91.37361 168.06932 M 88.16909 173.79674 L 90.59405 178.98320 L 96.09943 171.34132 L 88.16909 173.79674 M 86.41388 175.06029 L 82.05780 181.44973 L 88.83884 180.24675 L 86.41388 175.06029 M 80.87852 186.04622 L 75.44765 200.41208 L 89.19160 196.26340 L 80.87852 186.04622 M 72.20161 179.82312 L 37.97139 148.05760 L 48.57570 192.61000 L 72.20161 179.82312 M 43.08186 135.40437 L 86.26038 150.06031 L 80.51122 108.49370 L 43.08186 135.40437 M 40.49306 127.84234 L 77.92242 100.93167 L 65.54999 89.56404 L 40.49306 127.84234 M 75.41769 83.68224 L 69.54789 83.34596 L 78.97889 89.12900 L 75.41769 83.68224 M 66.63280 51.86743 L 68.23265 59.14535 L 72.93007 55.95875 L 66.63280 51.86743 M 65.26556 52.15379 L 61.99213 58.24957 L 66.86540 59.43170 L 65.26556 52.15379 M 70.24336 46.63437 L 66.88414 50.30356 L 73.18141 54.39488 L 70.24336 46.63437 M 71.59596 46.24195 L 74.53401 54.00246 L 77.70491 47.16421 L 71.59596 46.24195 M 78.43536 32.68177 L 83.06169 38.17148 L 83.34933 33.01380 L 78.43536 32.68177 M 87.09245 23.70237 L 78.93921 30.87313 L 83.85318 31.20516 L 87.09245 23.70237 M 88.93946 23.58020 L 85.70019 31.08300 L 93.71531 29.89581 L 88.93946 23.58020 M 113.29389 29.26376 L 107.58420 29.40523 L 108.57454 45.53471 L 113.29389 29.26376 M 114.44315 51.29122 L 136.11677 60.98220 L 137.57884 49.49535 L 114.44315 51.29122 M 51.51029 38.90613 L 64.17525 48.36747 L 67.53447 44.69828 L 51.51029 38.90613 M 45.03143 40.35585 L 33.80131 51.46352 L 39.59862 54.64972 L 45.03143 40.35585 M 25.87166 43.56503 L 23.71607 52.70439 L 29.90772 51.60395 L 25.87166 43.56503 M 35.57153 21.31721 L 28.75736 38.25317 L 44.02353 35.18442 L 35.57153 21.31721 M 32.47322 19.44117 L 19.23704 20.17611 L 25.65905 36.37713 L 32.47322 19.44117 M 56.23776 17.98916 L 50.59979 34.45565 L 67.27744 35.02223 L 56.23776 17.98916 M 175.31793 171.86154 L 191.02942 184.68935 L 202.01357 153.72347 L 175.31793 171.86154 M 172.81755 176.15176 L 182.01046 188.04523 L 188.52903 188.97957 L 172.81755 176.15176 M 170.95523 189.41120 L 162.36203 194.91579 L 170.51199 195.00804 L 170.95523 189.41120 M 172.70192 196.98336 L 173.01946 203.79956 L 180.00718 198.30522 L 172.70192 196.98336 M 183.28939 190.55413 L 183.04896 196.22296 L 189.80796 191.48847 L 183.28939 190.55413 M 186.68589 205.89222 L 179.69816 211.38655 L 226.13153 257.67930 L 186.68589 205.89222 M 210.45548 153.76286 L 199.47133 184.72873 L 242.85326 172.17662 L 210.45548 153.76286 M 302.43701 70.49354 L 248.70434 90.70034 L 275.63021 119.34313 L 302.43701 70.49354 M 297.45039 54.79552 L 237.98344 27.38869 L 241.47153 41.37263 L 297.45039 54.79552 M 346.51424 271.13429 L 352.51269 274.01404 L 359.92892 244.92371 L 346.51424 271.13429 M 335.06384 279.38670 L 335.01657 271.33871 L 332.39951 266.77437 L 335.06384 279.38670 M 346.54401 285.91899 L 349.90672 292.60065 L 355.70125 286.37733 L 346.54401 285.91899 M 357.96176 284.24118 L 362.70244 279.93388 L 354.09281 279.36038 L 357.96176 284.24118 M 365.93256 290.22947 L 364.18241 281.29252 L 359.44173 285.59982 L 365.93256 290.22947 M 367.30997 290.09716 L 370.46100 284.54136 L 365.55982 281.16021 L 367.30997 290.09716 M 368.82267 291.45533 L 377.66142 292.02553 L 371.97370 285.89953 L 368.82267 291.45533 M 373.93236 297.55355 L 379.76535 299.74512 L 379.09491 294.24151 L 373.93236 297.55355 M 381.28342 299.69703 L 386.07693 297.16880 L 380.61298 294.19341 L 381.28342 299.69703 M 386.67195 296.06997 L 386.04358 290.90633 L 381.20800 293.09457 L 386.67195 296.06997 M 388.33159 295.85847 L 394.48512 291.40259 L 387.70322 290.69483 L 388.33159 295.85847 M 389.21377 296.71518 L 394.76066 297.54855 L 395.36730 292.25930 L 389.21377 296.71518 M 396.35082 297.30391 L 401.93505 294.75806 L 396.95746 292.01466 L 396.35082 297.30391 M 395.08320 289.94643 L 393.11625 284.20917 L 388.30130 289.23867 L 395.08320 289.94643 M 397.18405 288.73462 L 405.10811 279.54423 L 395.21710 282.99737 L 397.18405 288.73462 M 398.17613 289.94614 L 403.15372 292.68954 L 406.10019 280.75575 L 398.17613 289.94614 M 405.07040 292.48961 L 413.50958 288.34676 L 408.01687 280.55583 L 405.07040 292.48961 M 395.17447 281.27800 L 405.06548 277.82486 L 396.84302 274.97969 L 395.17447 281.27800 M 386.29439 281.98075 L 391.87849 281.95096 L 385.95028 276.88038 L 386.29439 281.98075 M 387.22258 288.42331 L 392.03752 283.39382 L 386.45343 283.42362 L 387.22258 288.42331 M 385.74470 288.70443 L 384.97554 283.70473 L 380.21447 285.64272 L 385.74470 288.70443 M 380.32820 291.91952 L 385.16378 289.73128 L 379.63355 286.66957 L 380.32820 291.91952 M 386.66038 304.76381 L 393.67230 299.11161 L 388.12540 298.27825 L 386.66038 304.76381 M 387.58562 305.59742 L 395.52727 304.94711 L 394.59753 299.94522 L 387.58562 305.59742 M 390.37581 311.06147 L 394.99956 306.33664 L 387.05790 306.98695 L 390.37581 311.06147 M 361.56936 321.60357 L 369.84661 300.35856 L 360.51915 297.62813 L 361.56936 321.60357 M 351.60481 297.74303 L 359.28913 321.27662 L 358.23892 297.30119 L 351.60481 297.74303 M 361.17644 294.03852 L 370.50391 296.76895 L 366.82770 292.88671 L 361.17644 294.03852 M 386.65773 274.54405 L 394.25448 273.31631 L 390.28540 269.58843 L 386.65773 274.54405 M 395.56270 271.92559 L 397.12343 263.41829 L 391.59362 268.19771 L 395.56270 271.92559 M 408.36590 273.96327 L 420.01703 258.89260 L 401.70417 262.61080 L 408.36590 273.96327 M 397.22933 258.53936 L 415.54219 254.82116 L 372.56721 241.39173 L 397.22933 258.53936 M 420.40276 247.71728 L 436.23406 237.61023 L 377.30761 198.38591 L 420.40276 247.71728 M 438.22944 227.38353 L 436.36579 165.90371 L 379.30299 188.15922 L 438.22944 227.38353 M 428.17038 286.32521 L 410.90437 279.78528 L 416.39707 287.57621 L 428.17038 286.32521 M 449.97105 300.91922 L 454.09035 295.76331 L 448.26478 295.11000 L 449.97105 300.91922 M 469.94950 298.21993 L 469.49511 291.49920 L 464.27601 296.75063 L 469.94950 298.21993 M 472.24572 305.14379 L 465.55992 311.67000 L 488.87712 338.89465 L 472.24572 305.14379 M 482.24034 300.72691 L 474.33077 303.77591 L 490.96217 337.52677 L 482.24034 300.72691 M 484.00481 291.94235 L 500.50030 276.73340 L 480.67281 285.50824 L 484.00481 291.94235 M 499.80105 274.66453 L 478.41078 275.39143 L 479.97356 283.43938 L 499.80105 274.66453 M 506.48895 266.74153 L 514.86258 242.75120 L 503.71284 244.77261 L 506.48895 266.74153 M 535.40022 270.39913 L 541.65264 267.17674 L 534.18480 264.32154 L 535.40022 270.39913 M 544.97947 277.19369 L 543.34637 269.42938 L 539.84908 277.80076 L 544.97947 277.19369 M 546.21533 276.31364 L 549.73602 270.76035 L 544.58223 268.54933 L 546.21533 276.31364 M 546.97681 277.94089 L 550.67402 281.56737 L 550.49749 272.38761 L 546.97681 277.94089 M 549.53760 283.20458 L 545.84040 279.57810 L 541.40620 285.48532 L 549.53760 283.20458 M 546.39969 289.58938 L 549.60752 284.45599 L 541.47611 286.73673 L 546.39969 289.58938 M 540.14512 285.05398 L 544.57931 279.14676 L 539.44892 279.75384 L 540.14512 285.05398 M 532.48983 286.30758 L 537.50632 279.34280 L 534.75119 274.19381 L 532.48983 286.30758 M 529.19710 285.72995 L 531.45846 273.61618 L 511.16452 274.72179 L 529.19710 285.72995 M 524.14870 290.87060 L 528.28338 287.88675 L 510.25080 276.87859 L 524.14870 290.87060 M 518.12149 299.69206 L 523.30654 294.73230 L 512.83323 299.82857 L 518.12149 299.69206 M 518.26460 300.88822 L 512.97634 301.02473 L 524.45136 304.30157 L 518.26460 300.88822 M 511.58854 297.12117 L 522.06184 292.02490 L 508.16394 278.03290 L 511.58854 297.12117 M 507.24663 297.29502 L 503.82203 278.20675 L 487.32653 293.41570 L 507.24663 297.29502 M 527.52508 303.20651 L 532.38101 297.22402 L 526.52335 294.83340 L 527.52508 303.20651 M 534.25073 307.05254 L 533.34693 298.75141 L 528.49100 304.73390 L 534.25073 307.05254 M 537.39546 308.17560 L 548.38080 311.44428 L 541.75970 302.14863 L 537.39546 308.17560 M 550.50403 308.00405 L 550.73601 287.11441 L 547.52818 292.24780 L 550.50403 308.00405 M 550.94606 315.15362 L 551.06442 349.44437 L 551.17804 294.26398 L 550.94606 315.15362 M 549.81206 329.57592 L 549.90370 315.90058 L 543.04914 320.85506 L 549.81206 329.57592 M 549.54316 332.68107 L 542.78024 323.96021 L 547.75246 340.74173 L 549.54316 332.68107 M 542.13436 342.22474 L 537.16214 325.44321 L 504.59832 344.54511 L 542.13436 342.22474 M 544.49448 369.17871 L 549.99369 361.52571 L 547.99299 348.97097 L 544.49448 369.17871 M 531.16490 372.61187 L 541.38471 348.12082 L 503.84867 350.44120 L 531.16490 372.61187 M 526.73982 391.12380 L 541.66360 391.59148 L 529.33705 386.37022 L 526.73982 391.12380 M 520.68695 393.19130 L 540.58234 392.44411 L 525.65856 391.97644 L 520.68695 393.19130 M 518.92602 392.44541 L 523.89762 391.23054 L 526.49485 386.47696 L 518.92602 392.44541 M 515.96074 388.03235 L 523.52957 382.06390 L 500.17541 355.92603 L 515.96074 388.03235 M 544.12684 389.16701 L 542.48365 375.69525 L 535.76236 379.97856 L 544.12684 389.16701 M 476.82386 387.13836 L 510.12253 388.66665 L 494.33720 356.56034 L 476.82386 387.13836 M 461.89128 389.76918 L 467.20108 390.17668 L 455.96343 382.80271 L 461.89128 389.76918 M 449.95588 388.82485 L 459.73563 389.60020 L 453.80778 382.63373 L 449.95588 388.82485 M 420.58867 362.39652 L 414.60462 339.56763 L 408.00056 342.04771 L 420.58867 362.39652 M 418.50217 364.88966 L 405.91406 344.54085 L 397.91263 359.51276 L 418.50217 364.88966 M 400.92465 386.23590 L 417.80169 371.54639 L 396.59774 377.72830 L 400.92465 386.23590 M 392.28470 392.15651 L 436.76632 389.91401 L 402.55261 389.87988 L 392.28470 392.15651 M 386.77890 390.93626 L 397.04681 388.65963 L 392.71989 380.15203 L 386.77890 390.93626 M 385.07842 389.90567 L 391.01941 379.12144 L 383.44295 380.41492 L 385.07842 389.90567 M 370.10803 361.47137 L 379.96508 357.70309 L 363.75906 335.06887 L 370.10803 361.47137 M 434.36064 340.02041 L 440.63635 341.36336 L 437.88624 334.27877 L 434.36064 340.02041 M 441.81737 340.14840 L 443.80874 330.30073 L 439.06725 333.06381 L 441.81737 340.14840 M 485.21095 350.41649 L 448.35013 346.88979 L 456.45996 373.62053 L 485.21095 350.41649 M 534.23534 294.93752 L 538.22506 287.89842 L 532.51237 289.56306 L 534.23534 294.93752 M 550.04964 268.66958 L 548.72430 259.58745 L 544.89585 266.45856 L 550.04964 268.66958 M 548.41832 253.31277 L 549.38641 235.47309 L 542.80525 243.18286 L 548.41832 253.31277 M 541.84537 254.64094 L 547.47569 255.70875 L 541.86262 245.57884 L 541.84537 254.64094 M 543.57700 156.64556 L 538.60213 143.32105 L 531.20124 158.79098 L 543.57700 156.64556" fill="none" stroke="black" stroke-width="0.01cm" />
   </g>
</svg>