<?xml version="1.0" standalone="no"?>
  <!DOCTYPE svg PUBLIC "-//W3C//DTD SVG 1.1//EN" 
    "http://www.w3.org/Graphics/SVG/1.1/DTD/svg11.dtd">
  <svg width="12.7cm" height="8.89cm"
       xmlns="http://www.w3.org/2000/svg" version="1.1" viewBox="0 0 449.99999 314.99999">
   <g>
     <path d="M 227.53637 149.94240 L 236.63172 152.56454 L 232.99127 145.19787 L 227.53637 149.94240 M 227.61412 151.80778 L 233.61329 160.12089 L 236.70947 154.42992 L 227.61412 151.80778 M 215.65650 153.35550 L 220.51014 163.53451 L 223.81900 152.06769 L 215.65650 153.35550 M 214.00928 154.63785 L 210.64125 162.32653 L 218.86292 164.81687 L 214.00928 154.63785 M 204.50304 157.11242 L 199.17902 159.26254 L 201.48211 164.32853 L 204.50304 157.11242 M 197.44800 152.30461 L 198.67475 157.75955 L 203.99878 155.60943 L 197.44800 152.30461 M 187.25733 160.67752 L 192.77253 167.00455 L 196.29509 159.95599 L 187.25733 160.67752 M 185.66359 161.59832 L 183.54519 167.32241 L 191.17879 167.92536 L 185.66359 161.59832 M 183.74310 161.57895 L 175.81488 167.77039 L 181.62470 167.30304 L 183.74310 161.57895 M 181.88844 169.77319 L 176.95587 177.02273 L 184.97570 174.55803 L 181.88844 169.77319 M 174.80760 169.62376 L 175.68486 176.40594 L 180.61742 169.15641 L 174.80760 169.62376 M 172.97440 170.20470 L 165.95187 173.80388 L 173.85166 176.98688 L 172.97440 170.20470 M 176.71334 178.94298 L 179.94821 185.13519 L 184.73318 176.47828 L 176.71334 178.94298 M 174.59343 179.90247 L 167.77383 184.15418 L 177.82829 186.09468 L 174.59343 179.90247 M 166.88942 185.85608 L 167.51812 193.51765 L 176.94388 187.79657 L 166.88942 185.85608 M 168.65916 194.96325 L 176.01772 197.42082 L 178.08492 189.24217 L 168.65916 194.96325 M 163.43738 201.89621 L 174.18678 199.00257 L 166.82822 196.54500 L 163.43738 201.89621 M 164.09527 203.42742 L 172.09127 208.79468 L 174.84466 200.53378 L 164.09527 203.42742 M 156.49340 194.11967 L 151.69352 203.43290 L 159.78982 202.11899 L 156.49340 194.11967 M 147.25420 187.90045 L 155.33250 190.24945 L 153.78105 182.81938 L 147.25420 187.90045 M 136.78903 184.89765 L 143.82180 187.12744 L 141.43293 181.21411 L 136.78903 184.89765 M 136.43207 186.58741 L 138.57728 194.73217 L 143.46484 188.81720 L 136.43207 186.58741 M 126.87554 188.67410 L 129.05656 194.48125 L 133.53096 186.54363 L 126.87554 188.67410 M 124.88640 179.84689 L 126.35427 186.84481 L 133.00969 184.71434 L 124.88640 179.84689 M 118.76830 172.01480 L 113.58559 178.92303 L 121.88528 177.55563 L 118.76830 172.01480 M 120.49612 170.83425 L 123.61310 176.37507 L 127.40814 169.47859 L 120.49612 170.83425 M 120.68677 169.03624 L 127.59879 167.68059 L 125.13831 161.99102 L 120.68677 169.03624 M 120.33560 167.36667 L 124.78713 160.32145 L 124.78939 154.32405 L 120.33560 167.36667 M 130.76486 167.58543 L 139.75918 169.34231 L 134.56051 160.82850 L 130.76486 167.58543 M 130.72042 169.18095 L 134.20497 173.59268 L 139.71474 170.93783 L 130.72042 169.18095 M 135.48670 174.74702 L 140.97430 178.41567 L 140.99647 172.09217 L 135.48670 174.74702 M 134.82012 176.17660 L 135.66382 183.52880 L 140.30772 179.84525 L 134.82012 176.17660 M 142.66199 171.53615 L 142.63981 177.85964 L 148.81084 170.29880 L 142.66199 171.53615 M 150.08135 171.32105 L 143.91032 178.88190 L 152.82605 179.71416 L 150.08135 171.32105 M 152.28785 170.72308 L 155.03255 179.11618 L 161.56235 174.09807 L 152.28785 170.72308 M 162.07899 163.74089 L 153.16866 168.80116 L 162.44316 172.17616 L 162.07899 163.74089 M 164.40714 163.70887 L 164.77131 172.14413 L 171.79384 168.54494 L 164.40714 163.70887 M 155.89056 145.38092 L 146.94806 145.60601 L 153.23996 152.54352 L 155.89056 145.38092 M 145.28647 146.49488 L 142.59787 152.49188 L 151.57837 153.43239 L 145.28647 146.49488 M 140.65208 154.57595 L 136.05254 158.37886 L 143.30024 160.30501 L 140.65208 154.57595 M 133.39090 148.44395 L 134.81387 156.89623 L 139.41341 153.09332 L 133.39090 148.44395 M 147.98296 135.90374 L 136.53666 136.09438 L 144.21351 142.72531 L 147.98296 135.90374 M 164.98709 133.38644 L 152.65707 135.53711 L 157.83013 142.13359 L 164.98709 133.38644 M 199.73776 127.78904 L 172.70134 132.70811 L 180.17772 143.77668 L 199.73776 127.78904 M 206.12892 130.15575 L 199.08869 148.53134 L 211.31077 149.25382 L 206.12892 130.15575 M 209.04100 130.07499 L 214.22286 149.17305 L 222.38535 147.88525 L 209.04100 130.07499 M 233.13652 118.59719 L 212.42223 124.27145 L 233.90272 126.22925 L 233.13652 118.59719 M 245.67212 116.63005 L 237.29276 117.64201 L 238.05896 125.27408 L 245.67212 116.63005 M 247.06732 117.84701 L 239.45416 126.49104 L 248.45441 127.37773 L 247.06732 117.84701 M 256.43644 121.93344 L 249.19011 117.27731 L 250.57719 126.80803 L 256.43644 121.93344 M 257.20864 120.36936 L 256.75481 114.29535 L 249.96231 115.71323 L 257.20864 120.36936 M 265.88634 111.55839 L 258.74531 113.77600 L 259.19914 119.85000 L 265.88634 111.55839 M 256.75247 103.69309 L 252.93062 96.17300 L 247.48725 104.92006 L 256.75247 103.69309 M 262.87064 97.21862 L 254.85354 95.21032 L 258.67539 102.73041 L 262.87064 97.21862 M 263.00721 95.56627 L 259.76796 89.51160 L 254.99011 93.55797 L 263.00721 95.56627 M 257.93921 88.61194 L 248.37721 88.36902 L 253.16136 92.65831 L 257.93921 88.61194 M 251.28825 93.29318 L 246.50410 89.00389 L 242.95434 93.69087 L 251.28825 93.29318 M 245.02657 88.07969 L 239.46800 85.89963 L 241.47681 92.76668 L 245.02657 88.07969 M 237.98806 86.09678 L 233.18703 89.65689 L 239.99687 92.96383 L 237.98806 86.09678 M 235.99354 82.51241 L 228.56172 68.88930 L 226.67149 81.47210 L 235.99354 82.51241 M 229.44108 90.65000 L 220.86662 90.89264 L 223.40477 97.10599 L 229.44108 90.65000 M 218.54794 91.29483 L 210.89161 93.86754 L 221.08609 97.50819 L 218.54794 91.29483 M 219.79762 100.98445 L 209.60314 97.34381 L 208.24017 119.10498 L 219.79762 100.98445 M 213.83219 80.78445 L 203.65992 81.30850 L 208.43139 90.89975 L 213.83219 80.78445 M 208.66936 69.98166 L 201.80164 71.26850 L 202.34963 77.92694 L 208.66936 69.98166 M 209.17323 59.84955 L 200.59333 58.27896 L 201.66248 67.95960 L 209.17323 59.84955 M 224.41857 64.87430 L 213.00985 60.51311 L 212.36683 67.33632 L 224.41857 64.87430 M 237.48099 53.87808 L 216.14912 58.83083 L 227.55784 63.19202 L 237.48099 53.87808 M 238.91969 51.48964 L 239.06751 44.08453 L 217.58783 56.44239 L 238.91969 51.48964 M 235.95886 41.47150 L 214.05055 30.58545 L 214.47918 53.82937 L 235.95886 41.47150 M 251.42570 46.91014 L 243.29724 42.89300 L 243.14943 50.29811 L 251.42570 46.91014 M 252.59035 48.56798 L 244.31408 51.95595 L 252.61448 56.15573 L 252.59035 48.56798 M 262.36113 50.32267 L 259.92752 41.25995 L 255.40814 46.73142 L 262.36113 50.32267 M 264.27902 53.89066 L 263.10989 59.99826 L 269.48679 60.10503 L 264.27902 53.89066 M 260.66734 61.24715 L 254.90761 59.13604 L 256.87527 66.09964 L 260.66734 61.24715 M 269.90925 61.96292 L 263.53236 61.85616 L 267.65877 68.75384 L 269.90925 61.96292 M 266.20606 69.43180 L 262.07965 62.53412 L 258.28758 67.38661 L 266.20606 69.43180 M 266.28437 71.31355 L 258.36589 69.26836 L 262.70613 77.58815 L 266.28437 71.31355 M 272.48380 77.25321 L 268.04911 72.31166 L 264.47087 78.58625 L 272.48380 77.25321 M 272.70725 79.19192 L 264.69432 80.52496 L 269.83673 87.82136 L 272.70725 79.19192 M 279.84655 82.72570 L 274.60128 79.46701 L 271.73076 88.09645 L 279.84655 82.72570 M 268.40931 88.85134 L 263.26689 81.55495 L 261.28784 87.43183 L 268.40931 88.85134 M 261.49756 80.59897 L 254.25468 81.20348 L 259.51851 86.47584 L 261.49756 80.59897 M 272.99654 98.81922 L 265.94699 98.14792 L 268.21957 107.48518 L 272.99654 98.81922 M 278.27880 126.57568 L 277.98819 110.65593 L 273.41327 120.14402 L 278.27880 126.57568 M 268.11534 131.93169 L 270.36733 122.11517 L 260.73814 123.04028 L 268.11534 131.93169 M 277.26335 139.03545 L 277.90670 131.35018 L 270.78918 134.73504 L 277.26335 139.03545 M 277.42370 148.61871 L 284.04558 145.87023 L 278.68262 142.19142 L 277.42370 148.61871 M 275.71982 148.54152 L 276.97874 142.11423 L 270.41455 145.25273 L 275.71982 148.54152 M 272.42036 156.75544 L 274.73401 150.97099 L 266.10060 152.47677 L 272.42036 156.75544 M 266.33311 160.48833 L 271.37025 157.94511 L 265.05048 153.66644 L 266.33311 160.48833 M 264.83746 160.40715 L 263.55483 153.58526 L 259.40505 157.29567 L 264.83746 160.40715 M 258.21421 155.96460 L 262.36400 152.25419 L 255.31081 149.75857 L 258.21421 155.96460 M 256.78078 156.36502 L 253.87738 150.15899 L 250.89653 155.45757 L 256.78078 156.36502 M 256.38598 163.97757 L 257.09436 158.09234 L 251.21011 157.18489 L 256.38598 163.97757 M 255.29831 164.59257 L 250.12244 157.79989 L 248.39301 163.01232 L 255.29831 164.59257 M 258.00264 164.55171 L 264.14343 161.77795 L 258.71102 158.66648 L 258.00264 164.55171 M 257.67460 172.82445 L 264.01388 163.54770 L 257.87309 166.32145 L 257.67460 172.82445 M 259.41724 173.54100 L 271.81425 172.05385 L 265.75653 164.26425 L 259.41724 173.54100 M 249.44559 174.96918 L 255.85356 174.25214 L 256.05206 167.74914 L 249.44559 174.96918 M 253.89876 182.19577 L 255.58440 176.05797 L 249.17643 176.77501 L 253.89876 182.19577 M 255.76120 183.29985 L 264.07596 185.60762 L 257.44684 177.16204 L 255.76120 183.29985 M 245.82527 184.81899 L 252.67887 183.29090 L 247.95654 177.87014 L 245.82527 184.81899 M 251.46799 193.44182 L 253.11780 185.23736 L 246.26420 186.76545 L 251.46799 193.44182 M 250.43291 195.09529 L 245.22913 188.41892 L 244.83723 198.46510 L 250.43291 195.09529 M 254.19493 195.25521 L 259.76498 198.96476 L 264.15950 189.35851 L 254.19493 195.25521 M 254.62275 206.84694 L 258.57288 201.15082 L 253.00283 197.44126 L 254.62275 206.84694 M 253.02764 206.79841 L 251.40773 197.39273 L 245.81204 200.76254 L 253.02764 206.79841 M 245.76703 208.76200 L 252.32256 208.21957 L 245.10696 202.18370 L 245.76703 208.76200 M 234.24342 212.70045 L 234.70123 202.66455 L 229.95935 207.87733 L 234.24342 212.70045 M 231.65826 222.09055 L 239.32879 221.86337 L 234.94636 216.41290 L 231.65826 222.09055 M 240.81199 220.54788 L 243.52393 211.56667 L 236.42957 215.09742 L 240.81199 220.54788 M 242.60164 221.26057 L 250.74674 220.79893 L 245.31357 212.27936 L 242.60164 221.26057 M 252.07067 219.43841 L 253.19302 210.37641 L 246.63750 210.91884 L 252.07067 219.43841 M 254.19831 221.91774 L 259.11418 224.84509 L 259.86512 218.76416 L 254.19831 221.91774 M 260.54072 225.42587 L 262.30381 231.70580 L 264.59842 214.20311 L 260.54072 225.42587 M 261.14706 217.57910 L 260.39612 223.66003 L 264.45383 212.43727 L 261.14706 217.57910 M 260.60513 215.86633 L 263.91190 210.72451 L 256.06067 209.95792 L 260.60513 215.86633 M 265.60320 208.28567 L 270.18538 202.05180 L 261.70211 201.82296 L 265.60320 208.28567 M 267.54812 231.55969 L 302.49521 224.25698 L 269.84273 214.05700 L 267.54812 231.55969 M 251.54297 231.32145 L 258.07392 226.41475 L 253.15804 223.48740 L 251.54297 231.32145 M 247.88262 232.32177 L 241.35258 224.94936 L 236.93620 233.95565 L 247.88262 232.32177 M 234.90755 232.93490 L 239.32393 223.92862 L 231.65341 224.15580 L 234.90755 232.93490 M 235.47089 236.59146 L 229.63010 246.03587 L 246.41730 234.95758 L 235.47089 236.59146 M 231.68434 249.15230 L 251.90483 261.52290 L 248.47155 238.07401 L 231.68434 249.15230 M 224.91757 262.21812 L 248.96058 264.54091 L 228.74009 252.17031 L 224.91757 262.21812 M 224.61418 265.23944 L 226.31300 276.34086 L 248.65720 267.56223 L 224.61418 265.23944 M 217.13146 254.12928 L 224.81152 248.98159 L 221.38956 243.93122 L 217.13146 254.12928 M 210.90113 258.22649 L 206.10622 253.67427 L 184.02195 276.11341 L 210.90113 258.22649 M 209.91707 247.98651 L 218.97008 242.34067 L 210.25060 240.80939 L 209.91707 247.98651 M 207.81974 247.24689 L 208.15327 240.06977 L 202.19143 236.42372 L 207.81974 247.24689 M 213.97212 232.90960 L 220.53174 239.69510 L 220.25044 232.07617 L 213.97212 232.90960 M 213.65774 230.96169 L 219.93606 230.12826 L 218.01670 224.11183 L 213.65774 230.96169 M 220.22030 221.67783 L 228.42957 222.14004 L 224.99666 217.04387 L 220.22030 221.67783 M 218.88218 220.21079 L 223.65855 215.57683 L 217.72463 210.40371 L 218.88218 220.21079 M 209.54404 214.62014 L 217.11787 220.09120 L 215.96032 210.28413 L 209.54404 214.62014 M 208.88135 203.02378 L 208.51448 212.48671 L 214.93076 208.15070 L 208.88135 203.02378 M 206.70552 193.67676 L 208.41906 199.55155 L 212.57912 195.71059 L 206.70552 193.67676 M 207.80475 192.14865 L 213.67835 194.18247 L 217.21292 187.32662 L 207.80475 192.14865 M 207.19926 190.36729 L 216.60743 185.54526 L 208.83441 179.93165 L 207.19926 190.36729 M 219.30357 187.03697 L 215.76900 193.89283 L 224.52994 189.83148 L 219.30357 187.03697 M 228.42372 190.85174 L 234.66485 198.43670 L 235.45171 191.67541 L 228.42372 190.85174 M 223.68994 198.60275 L 233.19463 199.30262 L 226.95350 191.71766 L 223.68994 198.60275 M 223.90412 200.43100 L 228.66694 206.34365 L 233.40881 201.13087 L 223.90412 200.43100 M 236.41023 199.50982 L 242.38670 199.43667 L 237.19708 192.74853 L 236.41023 199.50982 M 227.51368 178.37066 L 227.47859 187.54592 L 234.09668 181.98906 L 227.51368 178.37066 M 228.44600 176.75437 L 235.02900 180.37277 L 234.93719 174.61559 L 228.44600 176.75437 M 238.15569 172.75350 L 246.37020 174.58432 L 246.07136 165.78403 L 238.15569 172.75350 M 235.52348 163.39905 L 236.79985 171.35534 L 244.71552 164.38587 L 235.52348 163.39905 M 235.78346 161.44945 L 244.97549 162.43626 L 238.87964 155.75848 L 235.78346 161.44945 M 239.91853 153.35626 L 247.74380 154.82161 L 242.36509 147.44410 L 239.91853 153.35626 M 242.31224 143.82652 L 247.73369 138.77194 L 239.45295 136.84776 L 242.31224 143.82652 M 248.53290 137.10397 L 248.70591 130.48281 L 240.25216 135.17979 L 248.53290 137.10397 M 252.27449 147.19941 L 249.33638 140.06589 L 243.91493 145.12048 L 252.27449 147.19941 M 262.47582 150.59044 L 259.10875 142.65463 L 255.42263 148.09482 L 262.47582 150.59044 M 267.77531 143.71981 L 267.86533 136.28090 L 261.08010 140.57857 L 267.77531 143.71981 M 283.19344 154.33981 L 284.60944 147.38878 L 277.98756 150.13726 L 283.19344 154.33981 M 295.66547 150.98738 L 293.80327 143.20125 L 287.75252 146.24562 L 295.66547 150.98738 M 297.90171 151.35040 L 305.64244 149.14971 L 296.03951 143.56426 L 297.90171 151.35040 M 302.88446 161.31912 L 306.49805 151.36907 L 298.75733 153.56976 L 302.88446 161.31912 M 304.67802 162.10633 L 313.10578 159.86744 L 308.29161 152.15628 L 304.67802 162.10633 M 315.05697 158.49995 L 320.28753 151.16643 L 310.24280 150.78879 L 315.05697 158.49995 M 327.03917 161.32831 L 322.38708 152.48387 L 317.15651 159.81739 L 327.03917 161.32831 M 336.78747 159.45425 L 331.33946 155.42778 L 330.21510 161.61506 L 336.78747 159.45425 M 334.29857 171.26194 L 343.80039 164.77822 L 338.62574 161.56507 L 334.29857 171.26194 M 341.83287 175.23971 L 352.01391 172.71604 L 346.12511 166.45919 L 341.83287 175.23971 M 336.67495 184.07470 L 346.50190 186.30969 L 340.17041 178.70740 L 336.67495 184.07470 M 338.32339 189.63932 L 334.48264 184.99612 L 328.61817 183.67053 L 338.32339 189.63932 M 346.51854 194.84278 L 347.77551 188.90701 L 341.78931 191.31523 L 346.51854 194.84278 M 324.06295 186.68780 L 317.71528 185.67342 L 314.09381 216.11748 L 324.06295 186.68780 M 326.79861 180.44005 L 330.94897 174.10154 L 325.48109 171.45961 L 326.79861 180.44005 M 313.50429 181.20062 L 307.42938 178.14503 L 292.82850 184.40503 L 313.50429 181.20062 M 313.85479 185.98629 L 293.17899 189.19070 L 310.23332 216.43034 L 313.85479 185.98629 M 299.06183 172.23478 L 301.65626 165.09279 L 295.13978 166.66704 L 299.06183 172.23478 M 291.72543 164.92113 L 284.78584 157.80677 L 285.20311 163.80760 L 291.72543 164.92113 M 292.99853 163.74826 L 295.38788 154.42464 L 286.05893 156.63390 L 292.99853 163.74826 M 275.29287 170.63324 L 282.20910 164.71935 L 274.27229 160.30042 L 275.29287 170.63324 M 266.08777 184.51834 L 271.85565 174.58561 L 259.45865 176.07276 L 266.08777 184.51834 M 286.45131 183.23415 L 286.42450 174.53554 L 277.11447 174.27212 L 286.45131 183.23415 M 305.70592 218.43180 L 288.65159 191.19215 L 277.63563 201.99794 L 305.70592 218.43180 M 316.38708 217.11508 L 336.06145 193.65419 L 326.35622 187.68539 L 316.38708 217.11508 M 318.44915 218.47170 L 342.85274 198.53836 L 338.12351 195.01082 L 318.44915 218.47170 M 320.12217 222.07008 L 351.50773 223.79786 L 344.52577 202.13674 L 320.12217 222.07008 M 359.66094 221.24451 L 385.34790 201.64326 L 352.67899 199.58339 L 359.66094 221.24451 M 369.16148 243.49115 L 378.78172 244.34434 L 360.76275 230.86771 L 369.16148 243.49115 M 358.58885 247.32212 L 366.81151 244.65549 L 359.80586 238.36894 L 358.58885 247.32212 M 368.13109 256.21997 L 367.85216 246.88686 L 359.62950 249.55350 L 368.13109 256.21997 M 370.50788 256.93528 L 378.64383 255.27600 L 370.22896 247.60218 L 370.50788 256.93528 M 365.19331 266.80839 L 367.30865 260.02145 L 354.88638 263.84531 L 365.19331 266.80839 M 367.78804 274.85704 L 374.39623 270.88642 L 367.41433 269.23913 L 367.78804 274.85704 M 374.64504 269.11430 L 369.77848 260.68007 L 367.66314 267.46701 L 374.64504 269.11430 M 376.10951 267.90770 L 379.37890 257.81419 L 371.24295 259.47347 L 376.10951 267.90770 M 387.08210 266.38479 L 393.51176 255.54779 L 383.07239 257.20879 L 387.08210 266.38479 M 388.47104 268.02875 L 394.18394 270.36046 L 394.90070 257.19175 L 388.47104 268.02875 M 396.08347 269.59381 L 403.66734 261.89559 L 396.80024 256.42510 L 396.08347 269.59381 M 392.41617 278.50290 L 393.87337 273.02435 L 388.16047 270.69265 L 392.41617 278.50290 M 386.50079 285.45713 L 391.93670 288.24365 L 392.01657 281.83444 L 386.50079 285.45713 M 385.05940 284.41803 L 390.57518 280.79534 L 380.40554 279.93087 L 385.05940 284.41803 M 393.49255 288.20067 L 398.94758 285.11324 L 393.57242 281.79145 L 393.49255 288.20067 M 402.29708 282.67478 L 411.53800 275.57167 L 405.67249 272.47430 L 402.29708 282.67478 M 406.37981 269.31557 L 413.53066 266.80035 L 406.67031 263.01748 L 406.37981 269.31557 M 415.08777 274.06927 L 423.54437 273.17079 L 416.37311 268.45668 L 415.08777 274.06927 M 397.08048 252.55219 L 414.42652 249.24067 L 387.84647 247.39257 L 397.08048 252.55219 M 381.25146 239.74082 L 388.91946 206.66294 L 363.23250 226.26419 L 381.25146 239.74082 M 395.29075 208.85219 L 387.62275 241.93007 L 414.20280 243.77817 L 395.29075 208.85219 M 386.54494 193.34783 L 364.13071 170.94283 L 358.98254 175.22624 L 386.54494 193.34783 M 377.75178 157.78770 L 371.50364 158.79926 L 364.54492 165.16648 L 377.75178 157.78770 M 378.94000 152.54549 L 383.21233 127.41653 L 363.53026 149.36934 L 378.94000 152.54549 M 371.18894 157.29141 L 377.43708 156.27985 L 362.02733 153.10370 L 371.18894 157.29141 M 363.63528 158.51376 L 369.46371 157.57065 L 360.30211 153.38293 L 363.63528 158.51376 M 362.00856 158.92232 L 358.67538 153.79150 L 356.44991 160.83918 L 362.00856 158.92232 M 354.94077 160.42283 L 357.16624 153.37515 L 349.93539 155.59156 L 354.94077 160.42283 M 349.18646 154.06459 L 356.41730 151.84819 L 348.94929 148.20708 L 349.18646 154.06459 M 356.75451 150.02570 L 351.88410 139.48469 L 349.28650 146.38459 L 356.75451 150.02570 M 350.07327 138.12720 L 342.26787 139.16583 L 347.47567 145.02711 L 350.07327 138.12720 M 345.80524 112.97679 L 320.75396 112.90864 L 344.09045 121.99758 L 345.80524 112.97679 M 343.90124 101.79340 L 334.77427 89.42571 L 319.50728 108.04695 L 343.90124 101.79340 M 346.75736 90.30142 L 343.38502 84.62179 L 337.74470 85.54603 L 346.75736 90.30142 M 342.75019 83.02921 L 341.67871 77.56082 L 337.10987 83.95345 L 342.75019 83.02921 M 333.57951 83.52150 L 330.26269 78.03781 L 322.39301 78.66462 L 333.57951 83.52150 M 331.87234 86.96506 L 320.68584 82.10818 L 316.60535 105.58629 L 331.87234 86.96506 M 331.42711 76.43068 L 339.31277 75.52173 L 327.13949 72.20017 L 331.42711 76.43068 M 318.07964 76.63322 L 314.12776 66.56110 L 310.89416 76.71561 L 318.07964 76.63322 M 308.13703 82.11746 L 296.15121 86.29780 L 311.24202 105.51318 L 308.13703 82.11746 M 306.70880 78.84514 L 299.81617 79.33461 L 294.72297 83.02548 L 306.70880 78.84514 M 303.38386 67.00803 L 294.89179 62.04493 L 294.99859 70.01247 L 303.38386 67.00803 M 312.74018 65.48385 L 306.97901 68.01523 L 309.50658 75.63836 L 312.74018 65.48385 M 312.29782 63.22150 L 305.96771 57.53961 L 306.53665 65.75289 L 312.29782 63.22150 M 303.93154 57.19222 L 296.00840 60.44240 L 304.50048 65.40550 L 303.93154 57.19222 M 302.48802 41.34560 L 308.62307 51.13008 L 340.24461 29.94304 L 302.48802 41.34560 M 294.52778 41.41357 L 289.52405 35.76542 L 287.70140 45.91942 L 294.52778 41.41357 M 288.03866 35.35081 L 282.64462 38.09668 L 286.21600 45.50481 L 288.03866 35.35081 M 287.04921 33.45845 L 278.30044 30.36590 L 281.65517 36.20431 L 287.04921 33.45845 M 287.22392 32.04691 L 283.05287 24.91202 L 278.47516 28.95436 L 287.22392 32.04691 M 294.26883 27.11633 L 290.34498 33.41504 L 295.34870 39.06318 L 294.26883 27.11633 M 299.06676 24.46813 L 337.90323 25.01242 L 290.97186 23.63194 L 299.06676 24.46813 M 278.67727 24.13936 L 260.52898 25.80729 L 265.78970 28.24005 L 278.67727 24.13936 M 281.30223 39.12221 L 277.29953 43.55506 L 284.87361 46.53034 L 281.30223 39.12221 M 285.13766 49.27676 L 276.60266 52.09198 L 284.37554 55.30311 L 285.13766 49.27676 M 288.16077 48.58839 L 293.19906 57.11720 L 294.98715 44.08254 L 288.16077 48.58839 M 285.71030 57.66363 L 282.24252 62.44732 L 291.51072 60.16609 L 285.71030 57.66363 M 279.34601 65.01412 L 270.59858 70.09105 L 280.55385 70.83992 L 279.34601 65.01412 M 272.90275 52.94218 L 265.50313 53.00865 L 270.71089 59.22302 L 272.90275 52.94218 M 258.78302 39.58146 L 253.20514 36.89482 L 254.26364 45.05294 L 258.78302 39.58146 M 246.25149 26.46430 L 243.55269 38.89401 L 250.62264 34.75303 L 246.25149 26.46430 M 235.41390 23.69826 L 185.83019 23.51074 L 210.80678 25.24191 L 235.41390 23.69826 M 205.77707 29.28041 L 178.35088 32.60181 L 197.62580 50.95375 L 205.77707 29.28041 M 191.09230 56.14082 L 171.81738 37.78889 L 153.50908 70.77703 L 191.09230 56.14082 M 192.54963 84.95156 L 153.34926 83.24868 L 168.92172 121.22305 L 192.54963 84.95156 M 156.64640 77.11584 L 195.84676 78.81871 L 195.29877 72.16027 L 156.64640 77.11584 M 165.93421 25.02534 L 160.22554 23.77903 L 169.76831 29.10961 L 165.93421 25.02534 M 172.56786 23.33525 L 160.57548 23.05724 L 166.28415 24.30355 L 172.56786 23.33525 M 173.93111 24.09676 L 167.64740 25.06506 L 171.48151 29.14933 L 173.93111 24.09676 M 157.92533 23.74386 L 147.53250 24.74398 L 167.46810 29.07444 L 157.92533 23.74386 M 149.30593 22.92422 L 111.92776 22.95518 L 125.49832 23.48644 L 149.30593 22.92422 M 123.96833 30.71863 L 108.45342 42.49399 L 139.01042 68.47513 L 123.96833 30.71863 M 119.88081 25.24895 L 106.31026 24.71769 L 104.36590 37.02431 L 119.88081 25.24895 M 94.69269 53.46014 L 87.54227 57.32298 L 90.78589 64.20428 L 94.69269 53.46014 M 85.65913 58.82426 L 79.62761 65.47037 L 88.90276 65.70555 L 85.65913 58.82426 M 88.61130 68.23969 L 79.33615 68.00451 L 83.32745 79.09737 L 88.61130 68.23969 M 96.21309 70.02674 L 96.48321 85.55777 L 134.59648 77.62756 L 96.21309 70.02674 M 84.69106 81.34968 L 90.24503 86.02304 L 89.97491 70.49201 L 84.69106 81.34968 M 89.56489 88.98674 L 84.01091 84.31339 L 84.53375 94.20165 L 89.56489 88.98674 M 90.38811 91.26734 L 85.35697 96.48225 L 90.59669 102.55819 L 90.38811 91.26734 M 93.96376 94.17345 L 94.17234 105.46429 L 113.96214 119.73110 L 93.96376 94.17345 M 99.37871 91.42759 L 119.37710 116.98524 L 137.49198 83.49737 L 99.37871 91.42759 M 81.03127 99.34212 L 55.78246 114.14631 L 86.27098 105.41806 L 81.03127 99.34212 M 75.72466 70.45075 L 59.71936 87.80966 L 79.71596 81.54361 L 75.72466 70.45075 M 51.90916 95.48034 L 37.96903 107.12370 L 47.17979 113.90674 L 51.90916 95.48034 M 35.81271 105.62845 L 49.75283 93.98509 L 29.92917 101.94472 L 35.81271 105.62845 M 33.21465 108.17503 L 27.33111 104.49130 L 28.96839 114.35776 L 33.21465 108.17503 M 34.32427 110.06050 L 30.07801 116.24323 L 36.20804 119.57501 L 34.32427 110.06050 M 25.94729 111.55278 L 24.09822 146.44823 L 25.63037 139.63792 L 25.94729 111.55278 M 25.72030 106.07765 L 23.81449 95.83684 L 23.87124 140.97310 L 25.72030 106.07765 M 29.39707 118.33709 L 28.87678 126.81142 L 35.52710 121.66887 L 29.39707 118.33709 M 36.12941 124.12370 L 29.47909 129.26624 L 34.21553 137.97568 L 36.12941 124.12370 M 38.12617 122.99884 L 36.21229 136.85082 L 45.45315 120.26736 L 38.12617 122.99884 M 49.72124 122.95698 L 40.48037 139.54043 L 72.27083 144.51574 L 49.72124 122.95698 M 28.32420 131.39294 L 26.89030 141.13729 L 33.06064 140.10238 L 28.32420 131.39294 M 26.19974 144.89923 L 24.66758 151.70955 L 30.50218 153.64330 L 26.19974 144.89923 M 23.53381 147.03911 L 23.47707 101.90285 L 23.02089 154.60576 L 23.53381 147.03911 M 24.37543 153.76340 L 23.86251 161.33004 L 30.21003 155.69715 L 24.37543 153.76340 M 22.91075 154.68960 L 23.29823 85.29387 L 22.72139 164.40264 L 22.91075 154.68960 M 24.89621 164.02160 L 28.60532 169.02127 L 35.28344 164.66328 L 24.89621 164.02160 M 23.38527 165.31751 L 23.19591 175.03056 L 27.09438 170.31718 L 23.38527 165.31751 M 29.93839 169.93624 L 35.56076 171.34133 L 36.61650 165.57824 L 29.93839 169.93624 M 28.09984 172.17605 L 24.20137 176.88942 L 31.42894 180.18843 L 28.09984 172.17605 M 23.63775 178.84893 L 23.59086 187.85212 L 30.86531 182.14794 L 23.63775 178.84893 M 33.45745 183.70156 L 32.63377 192.34608 L 37.92402 188.33757 L 33.45745 183.70156 M 36.90197 174.30659 L 34.60871 180.91389 L 44.01715 181.28798 L 36.90197 174.30659 M 38.43615 166.77631 L 37.38040 172.53940 L 44.49558 179.52078 L 38.43615 166.77631 M 53.55225 180.26064 L 80.21513 189.53654 L 77.11147 156.43794 L 53.55225 180.26064 M 41.97343 189.97824 L 55.62059 205.09731 L 46.91530 185.71632 L 41.97343 189.97824 M 35.22145 195.16824 L 54.15886 206.27880 L 40.51170 191.15973 L 35.22145 195.16824 M 30.42265 204.23060 L 52.89773 207.91266 L 33.96032 196.80210 L 30.42265 204.23060 M 22.91529 226.93503 L 24.13081 277.15510 L 23.86001 237.49403 L 22.91529 226.93503 M 36.75424 232.60286 L 31.48391 228.10912 L 26.21468 232.67424 L 36.75424 232.60286 M 50.52211 234.29122 L 58.35208 235.63149 L 57.84120 215.56710 L 50.52211 234.29122 M 54.23426 244.14140 L 57.90121 239.20328 L 50.07124 237.86300 L 54.23426 244.14140 M 47.52642 247.45268 L 51.18034 254.87394 L 53.20474 246.94810 L 47.52642 247.45268 M 44.18397 255.05791 L 50.05275 255.88766 L 46.39882 248.46641 L 44.18397 255.05791 M 42.77870 257.08807 L 37.76741 259.84600 L 46.03678 262.77952 L 42.77870 257.08807 M 37.28737 261.07350 L 38.93841 266.90810 L 45.55675 264.00703 L 37.28737 261.07350 M 28.38993 258.32346 L 34.90368 258.76440 L 34.65203 251.80975 L 28.38993 258.32346 M 27.52361 260.48303 L 27.72147 269.08632 L 34.03736 260.92397 L 27.52361 260.48303 M 28.88787 269.98282 L 36.85480 267.65508 L 35.20376 261.82048 L 28.88787 269.98282 M 24.38819 279.92564 L 24.97436 249.09936 L 24.11739 240.26457 L 24.38819 279.92564 M 24.64905 282.51108 L 26.20422 260.94809 L 25.23521 251.68480 L 24.64905 282.51108 M 24.81574 285.06345 L 26.56877 272.10375 L 26.37091 263.50046 L 24.81574 285.06345 M 38.32113 278.83093 L 44.51212 289.87694 L 47.26249 282.65098 L 38.32113 278.83093 M 48.09849 280.57512 L 51.20006 273.27007 L 39.15713 276.75508 L 48.09849 280.57512 M 50.05677 284.17509 L 47.30640 291.40105 L 60.67536 291.02379 L 50.05677 284.17509 M 64.80662 277.55477 L 65.42504 289.07552 L 75.30362 280.48693 L 64.80662 277.55477 M 65.71423 275.45063 L 76.21122 278.38279 L 72.68589 272.24240 L 65.71423 275.45063 M 60.15070 263.12394 L 63.17782 272.86847 L 65.91871 264.26179 L 60.15070 263.12394 M 52.84858 257.10192 L 58.08536 260.25398 L 57.65991 254.19866 L 52.84858 257.10192 M 49.17759 263.07290 L 57.02507 261.36326 L 51.78829 258.21120 L 49.17759 263.07290 M 49.37263 264.53913 L 53.34863 269.94101 L 57.22011 262.82948 L 49.37263 264.53913 M 36.29846 251.47875 L 36.55012 258.43340 L 41.56141 255.67548 L 36.29846 251.47875 M 26.35197 247.67384 L 27.32097 256.93714 L 33.58306 250.42343 L 26.35197 247.67384 M 26.99076 245.94067 L 34.22186 248.69026 L 32.43131 243.07176 L 26.99076 245.94067 M 73.43160 238.87521 L 77.77993 245.05104 L 85.93813 235.05190 L 73.43160 238.87521 M 80.34936 246.24399 L 93.98704 248.41877 L 88.50756 236.24485 L 80.34936 246.24399 M 73.81734 254.66404 L 84.71283 253.98453 L 77.68665 248.90898 L 73.81734 254.66404 M 73.89935 256.34768 L 78.34272 262.37810 L 84.79484 255.66817 L 73.89935 256.34768 M 80.15732 263.33954 L 88.41621 264.03920 L 86.60944 256.62961 L 80.15732 263.33954 M 90.08062 266.65499 L 87.82042 272.05390 L 93.92607 271.45731 L 90.08062 266.65499 M 91.58454 265.56289 L 95.42999 270.36521 L 99.85179 263.31714 L 91.58454 265.56289 M 88.97032 256.40874 L 90.77708 263.81833 L 99.04433 261.57258 L 88.97032 256.40874 M 103.20493 262.11096 L 108.82557 266.87076 L 108.36722 258.20172 L 103.20493 262.11096 M 110.82132 254.60635 L 118.05734 251.07824 L 116.06006 245.54516 L 110.82132 254.60635 M 107.73366 243.33468 L 109.53086 253.63841 L 114.76960 244.57722 L 107.73366 243.33468 M 105.06836 239.97622 L 107.55149 234.03888 L 92.76127 233.95067 L 105.06836 239.97622 M 111.86132 232.80617 L 119.36820 234.68873 L 117.24987 228.14375 L 111.86132 232.80617 M 106.92407 224.40551 L 110.30580 231.52076 L 115.69435 226.85835 L 106.92407 224.40551 M 107.78425 222.57866 L 116.55453 225.03150 L 117.18724 216.90597 L 107.78425 222.57866 M 121.77218 215.55647 L 136.87969 225.37413 L 128.72357 210.09057 L 121.77218 215.55647 M 131.84660 209.09220 L 140.00272 224.37576 L 146.75642 207.56949 L 131.84660 209.09220 M 129.65685 197.54253 L 129.53262 205.01963 L 136.27645 197.74967 L 129.65685 197.54253 M 121.46689 201.98119 L 119.84558 212.63236 L 126.79697 207.16645 L 121.46689 201.98119 M 113.43272 190.97774 L 113.12376 197.56342 L 119.23510 198.50812 L 113.43272 190.97774 M 114.77338 189.95570 L 120.57576 197.48608 L 123.84905 189.38709 L 114.77338 189.95570 M 106.28430 191.69011 L 111.50491 196.71116 L 111.81387 190.12549 L 106.28430 191.69011 M 111.06728 182.09996 L 106.22960 189.86371 L 111.75917 188.29909 L 111.06728 182.09996 M 112.94405 180.79551 L 113.63594 186.99464 L 121.24373 179.42811 L 112.94405 180.79551 M 93.67514 184.77778 L 106.64423 177.90692 L 84.50613 155.64766 L 93.67514 184.77778 M 95.20251 191.23603 L 101.56282 199.54991 L 103.33392 192.12892 L 95.20251 191.23603 M 93.86402 192.56142 L 92.62600 202.73203 L 100.22433 200.87530 L 93.86402 192.56142 M 102.58952 203.78768 L 100.24081 210.77840 L 107.53589 210.72643 L 102.58952 203.78768 M 90.13486 228.08529 L 97.11589 213.18035 L 91.86626 208.04635 L 90.13486 228.08529 M 91.51730 229.94413 L 102.92579 222.91709 L 98.49833 215.03919 L 91.51730 229.94413 M 91.43117 235.67719 L 96.91065 247.85111 L 103.73825 241.70275 L 91.43117 235.67719 M 118.20111 243.51387 L 126.99294 249.18642 L 121.15519 238.21655 L 118.20111 243.51387 M 123.52318 236.76653 L 129.36093 247.73639 L 137.14507 231.91367 L 123.52318 236.76653 M 131.67972 248.98735 L 142.07354 246.77416 L 139.46386 233.16463 L 131.67972 248.98735 M 131.61405 251.86687 L 138.93848 256.20079 L 142.00787 249.65368 L 131.61405 251.86687 M 122.52500 262.71511 L 126.01619 267.56252 L 132.14553 266.73330 L 122.52500 262.71511 M 126.45730 269.14567 L 126.05383 275.38027 L 132.58664 268.31644 L 126.45730 269.14567 M 126.59390 277.09775 L 130.77785 282.88546 L 133.12671 270.03391 L 126.59390 277.09775 M 118.50547 287.23201 L 101.31028 291.06926 L 126.34397 286.34875 L 118.50547 287.23201 M 112.51302 278.05389 L 119.38281 284.88162 L 123.03738 278.21065 L 112.51302 278.05389 M 111.26430 270.46495 L 111.49820 276.25180 L 122.02257 276.40857 L 111.26430 270.46495 M 88.36277 274.76331 L 94.41936 288.33029 L 94.46841 274.16672 L 88.36277 274.76331 M 80.76182 280.26332 L 92.70603 289.09236 L 86.64944 275.52539 L 80.76182 280.26332 M 137.24022 286.56730 L 112.20653 291.28781 L 205.67547 288.98039 L 137.24022 286.56730 M 138.32313 270.49334 L 135.97427 283.34489 L 168.16528 280.77313 L 138.32313 270.49334 M 139.17376 267.71404 L 169.01592 277.99383 L 142.77934 261.11049 L 139.17376 267.71404 M 145.66702 248.51832 L 142.59763 255.06542 L 160.88730 242.78396 L 145.66702 248.51832 M 155.41579 240.27759 L 147.26929 246.66984 L 162.48957 240.93548 L 155.41579 240.27759 M 157.82224 238.64050 L 164.89602 239.29839 L 166.52096 233.57315 L 157.82224 238.64050 M 157.28335 237.03933 L 165.98207 231.97198 L 160.58490 226.48900 L 157.28335 237.03933 M 168.61081 233.02817 L 166.98588 238.75342 L 174.54107 234.28068 L 168.61081 233.02817 M 169.49048 231.58075 L 175.42074 232.83326 L 174.02321 227.17402 L 169.49048 231.58075 M 177.17400 232.59322 L 183.51655 229.66042 L 175.77647 226.93398 L 177.17400 232.59322 M 178.62822 234.02112 L 187.41020 238.35720 L 184.97077 231.08832 L 178.62822 234.02112 M 184.08808 228.49768 L 181.74625 223.29125 L 176.34800 225.77123 L 184.08808 228.49768 M 187.37758 231.14193 L 189.81701 238.41081 L 197.88271 234.44995 L 187.37758 231.14193 M 184.21814 220.58377 L 193.68069 217.47002 L 189.00244 212.43157 L 184.21814 220.58377 M 175.07919 223.88230 L 180.47744 221.40231 L 173.93757 213.38617 L 175.07919 223.88230 M 162.47511 225.13556 L 167.87227 230.61854 L 172.40501 226.21181 L 162.47511 225.13556 M 161.65418 220.74039 L 170.44246 211.32050 L 162.44646 205.95324 L 161.65418 220.74039 M 152.05125 206.68811 L 159.35528 220.16134 L 160.14755 205.37419 L 152.05125 206.68811 M 140.05030 196.71674 L 148.21629 202.46400 L 144.93787 190.80177 L 140.05030 196.71674 M 143.17613 226.08298 L 157.23385 222.74993 L 149.92982 209.27671 L 143.17613 226.08298 M 143.74791 229.51491 L 154.50408 236.73219 L 157.80563 226.18187 L 143.74791 229.51491 M 142.11248 231.93528 L 144.72215 245.54481 L 152.86865 239.15256 L 142.11248 231.93528 M 177.60468 201.28110 L 174.85130 209.54199 L 186.17545 209.40594 L 177.60468 201.28110 M 190.25781 209.11740 L 197.56836 208.80082 L 191.62881 199.42548 L 190.25781 209.11740 M 192.65935 194.75035 L 202.91119 191.84212 L 194.18984 183.99999 L 192.65935 194.75035 M 211.09697 176.42809 L 224.13145 175.66096 L 220.03824 168.71961 L 211.09697 176.42809 M 210.05730 164.88188 L 209.33770 175.08071 L 218.27898 167.37223 L 210.05730 164.88188 M 202.79797 166.93730 L 207.40257 175.02634 L 208.12218 164.82752 L 202.79797 166.93730 M 246.53570 161.83261 L 248.26513 156.62017 L 240.43985 155.15482 L 246.53570 161.83261 M 243.07997 107.41686 L 233.51744 107.67447 L 236.50013 114.66281 L 243.07997 107.41686 M 243.78875 67.49604 L 240.93594 54.96123 L 231.01280 64.27517 L 243.78875 67.49604 M 308.56613 107.26903 L 293.47531 88.05365 L 286.72985 96.16420 L 308.56613 107.26903 M 306.83470 112.95989 L 282.16587 109.75792 L 282.45648 125.67766 L 306.83470 112.95989 M 308.41484 116.42266 L 284.03662 129.14044 L 294.80699 137.46015 L 308.41484 116.42266 M 359.36736 98.35931 L 381.66362 114.98096 L 369.16449 91.63545 L 359.36736 98.35931 M 354.48810 86.92251 L 345.47795 84.79385 L 348.85029 90.47348 L 354.48810 86.92251 M 354.76949 85.57055 L 351.10142 79.65775 L 345.75934 83.44188 L 354.76949 85.57055 M 351.32266 77.71905 L 357.61096 75.52931 L 344.90911 76.03478 L 351.32266 77.71905 M 366.71324 86.05823 L 360.79498 77.52134 L 358.17476 85.62387 L 366.71324 86.05823 M 367.78829 69.71727 L 353.24955 35.20360 L 360.36719 70.10343 L 367.78829 69.71727 M 390.13728 52.59403 L 396.82072 39.68901 L 359.78316 29.92164 L 390.13728 52.59403 M 402.27359 48.99958 L 402.13202 42.07375 L 395.44859 54.97878 L 402.27359 48.99958 M 412.69910 52.12801 L 410.38957 59.60833 L 421.23331 57.83446 L 412.69910 52.12801 M 406.48719 59.42542 L 402.81799 51.16853 L 395.99298 57.14773 L 406.48719 59.42542 M 401.34069 66.98816 L 392.93577 74.88890 L 409.05092 72.88226 L 401.34069 66.98816 M 399.44712 65.41205 L 393.90233 60.27339 L 391.04219 73.31280 L 399.44712 65.41205 M 421.89721 55.86414 L 415.70081 43.84579 L 413.36300 50.15769 L 421.89721 55.86414 M 425.78532 37.05057 L 417.25360 42.20740 L 423.45000 54.22575 L 425.78532 37.05057 M 417.20812 23.88019 L 409.08934 24.00858 L 409.65951 30.01652 L 417.20812 23.88019 M 396.53417 23.16496 L 404.65295 23.03657 L 309.21820 23.26760 L 396.53417 23.16496 M 349.22052 24.87830 L 389.60512 23.39518 L 302.28915 23.49782 L 349.22052 24.87830 M 342.02535 32.15253 L 310.40380 53.33956 L 316.73391 59.02146 L 342.02535 32.15253 M 344.00593 33.70920 L 318.71449 60.57813 L 326.24844 65.79294 L 344.00593 33.70920 M 379.74866 117.41676 L 357.45240 100.79511 L 353.84487 111.12186 L 379.74866 117.41676 M 380.31516 125.45693 L 355.76269 136.86873 L 360.63309 147.40974 L 380.31516 125.45693 M 415.51897 139.72784 L 422.09814 127.42081 L 393.78420 123.55362 L 415.51897 139.72784 M 410.51056 149.75144 L 414.07052 142.51917 L 392.33575 126.34495 L 410.51056 149.75144 M 411.96193 159.71598 L 398.72217 191.22224 L 420.74640 167.32275 L 411.96193 159.71598 M 423.88726 157.15068 L 415.10757 155.45703 L 423.89203 163.06381 L 423.88726 157.15068 M 425.26254 162.36261 L 426.07159 149.84748 L 425.25776 156.44949 L 425.26254 162.36261 M 425.32615 174.07941 L 425.76664 250.18388 L 426.13520 161.56428 L 425.32615 174.07941 M 426.13945 144.11976 L 426.68506 129.48882 L 424.44600 137.77381 L 426.13945 144.11976 M 421.56439 112.59572 L 419.37132 106.61190 L 394.15293 118.22684 L 421.56439 112.59572 M 425.40355 109.46163 L 424.86620 93.15411 L 423.21048 103.47781 L 425.40355 109.46163 M 417.92051 103.56909 L 409.95795 88.25320 L 392.70213 115.18402 L 417.92051 103.56909 M 423.88715 87.13027 L 425.53376 76.58679 L 414.26887 82.13808 L 423.88715 87.13027 M 426.98457 79.62961 L 425.33796 90.17308 L 425.87531 106.48060 L 426.98457 79.62961 M 421.65380 243.09640 L 425.20647 260.37539 L 424.76597 184.27093 L 421.65380 243.09640 M 376.24978 279.37792 L 368.27644 277.32024 L 369.95634 282.91649 L 376.24978 279.37792 M 376.44954 288.28211 L 383.29369 285.35388 L 378.63983 280.86672 L 376.44954 288.28211 M 365.82545 291.53481 L 387.80729 289.82223 L 375.52723 289.96394 L 365.82545 291.53481 M 358.63551 276.69093 L 364.10916 268.89207 L 353.80224 265.92899 L 358.63551 276.69093 M 334.81792 290.03551 L 357.74798 290.64996 L 355.81935 281.78697 L 334.81792 290.03551 M 328.28739 286.20322 L 344.45555 267.19275 L 310.33707 270.75358 L 328.28739 286.20322 M 299.02814 289.53105 L 322.00369 289.97709 L 299.21113 282.38011 L 299.02814 289.53105 M 286.55575 290.81111 L 293.76905 289.89750 L 287.32725 284.84409 L 286.55575 290.81111 M 287.76421 281.74779 L 294.38900 279.65026 L 289.86841 273.19169 L 287.76421 281.74779 M 283.69448 280.38446 L 285.79868 271.82836 L 261.83120 268.74362 L 283.69448 280.38446 M 289.05658 262.81481 L 304.89695 230.35170 L 269.94985 237.65441 L 289.05658 262.81481 M 259.40226 263.92698 L 283.36975 267.01172 L 264.26302 241.85132 L 259.40226 263.92698 M 237.11362 287.03980 L 276.74091 288.99880 L 255.64913 271.39093 L 237.11362 287.03980 M 227.09979 278.90824 L 230.90848 285.77848 L 249.44398 270.12961 L 227.09979 278.90824 M 218.48732 277.86429 L 216.78851 266.76287 L 186.05178 279.74968 L 218.48732 277.86429 M 186.83856 282.31706 L 223.08280 287.30191 L 219.27411 280.43167 L 186.83856 282.31706 M 177.09050 273.52196 L 185.48077 244.22050 L 169.14359 244.35715 L 177.09050 273.52196 M 197.64744 224.93692 L 195.05404 219.68399 L 187.93333 228.00417 L 197.64744 224.93692 M 200.43188 226.05415 L 201.22291 232.42942 L 206.82444 225.31383 L 200.43188 226.05415 M 201.13286 224.06428 L 207.52542 223.32396 L 206.83072 216.51046 L 201.13286 224.06428 M 87.09925 153.67922 L 109.23734 175.93848 L 114.42005 169.03025 L 87.09925 153.67922 M 89.08319 148.03567 L 120.85778 150.34408 L 120.65506 143.83273 L 89.08319 148.03567 M 64.63415 208.02474 L 87.41906 204.12176 L 82.59174 197.91964 L 64.63415 208.02474 M 63.04244 215.18235 L 71.58941 235.14162 L 84.09594 231.31832 L 63.04244 215.18235 M 36.36658 75.97499 L 54.30069 87.11359 L 70.30599 69.75467 L 36.36658 75.97499" fill="none" stroke="black" stroke-width="0.01cm" />
   </g>
</svg>