<?xml version="1.0" standalone="no"?>
  <!DOCTYPE svg PUBLIC "-//W3C//DTD SVG 1.1//EN" 
    "http://www.w3.org/Graphics/SVG/1.1/DTD/svg11.dtd">
  <svg width="12.7cm" height="8.89cm"
       xmlns="http://www.w3.org/2000/svg" version="1.1" viewBox="0 0 449.99999 314.99999">
   <g>
     <path d="M 236.15336 180.27103 L 283.69580 191.34046 L 285.62254 178.87717 L 236.15336 180.27103 M 231.63625 188.63667 L 257.10411 228.65926 L 271.56025 216.84912 L 231.63625 188.63667 M 262.00063 233.69816 L 270.80845 228.94793 L 276.45677 221.88802 L 262.00063 233.69816 M 262.21043 245.56650 L 272.83978 248.91551 L 270.67410 243.03569 L 262.21043 245.56650 M 260.58435 255.60789 L 260.05641 262.26770 L 266.35260 257.55598 L 260.58435 255.60789 M 260.86826 263.33623 L 267.07916 264.15613 L 267.16445 258.62451 L 260.86826 263.33623 M 265.54366 272.40617 L 266.87656 265.87884 L 260.66567 265.05894 L 265.54366 272.40617 M 268.45150 274.78792 L 277.82134 281.09005 L 275.89138 271.28353 L 268.45150 274.78792 M 266.02188 281.46657 L 276.58766 282.36293 L 267.21781 276.06080 L 266.02188 281.46657 M 263.68639 281.75963 L 264.88232 276.35387 L 257.90378 284.70743 L 263.68639 281.75963 M 257.37777 282.88557 L 264.35631 274.53201 L 259.47832 267.18478 L 257.37777 282.88557 M 266.85314 290.60508 L 273.91300 290.04951 L 265.68418 283.93667 L 266.85314 290.60508 M 269.55205 291.45058 L 287.27541 290.70060 L 276.61191 290.89500 L 269.55205 291.45058 M 280.16257 281.67335 L 287.18133 279.45433 L 278.23261 271.86683 L 280.16257 281.67335 M 279.03164 270.35955 L 287.98036 277.94705 L 286.55485 269.61515 L 279.03164 270.35955 M 289.66930 268.25975 L 300.15088 271.92277 L 294.89111 264.18519 L 289.66930 268.25975 M 294.06367 260.27940 L 294.76149 252.98759 L 287.61176 252.04283 L 294.06367 260.27940 M 296.29038 261.10154 L 305.42544 258.61998 L 296.98820 253.80973 L 296.29038 261.10154 M 306.17178 256.81621 L 302.26108 246.67132 L 297.73454 252.00595 L 306.17178 256.81621 M 305.00448 242.57886 L 321.90656 239.12650 L 306.69037 232.86352 L 305.00448 242.57886 M 302.48490 231.24103 L 294.78632 228.30079 L 294.27543 238.80213 L 302.48490 231.24103 M 303.14810 228.70326 L 299.58110 218.50000 L 295.44953 225.76303 L 303.14810 228.70326 M 304.66134 228.02800 L 307.55538 220.36092 L 301.09433 217.82474 L 304.66134 228.02800 M 309.91670 218.08466 L 316.53246 214.99863 L 310.47506 210.36775 L 309.91670 218.08466 M 301.58753 215.62703 L 308.04858 218.16321 L 308.60694 210.44630 L 301.58753 215.62703 M 293.63613 223.91556 L 297.76769 216.65254 L 288.64087 213.92357 L 293.63613 223.91556 M 281.46141 215.13561 L 288.77100 203.88175 L 289.07986 197.99259 L 281.46141 215.13561 M 296.50567 203.40062 L 290.96039 196.52572 L 290.65153 202.41488 L 296.50567 203.40062 M 299.09158 203.16804 L 304.53544 200.85975 L 300.34970 195.98760 L 299.09158 203.16804 M 305.51124 202.29355 L 300.06738 204.60183 L 308.15611 207.45798 L 305.51124 202.29355 M 305.73466 199.84530 L 308.68539 195.05243 L 301.54892 194.97315 L 305.73466 199.84530 M 298.77982 195.33522 L 291.97643 195.64076 L 297.52170 202.51566 L 298.77982 195.33522 M 299.91468 192.67252 L 303.90486 186.45110 L 295.80701 187.74095 L 299.91468 192.67252 M 291.56935 193.91047 L 298.37274 193.60494 L 294.26507 188.67337 L 291.56935 193.91047 M 304.09960 184.76220 L 301.47263 179.16139 L 296.00175 186.05206 L 304.09960 184.76220 M 305.80575 183.74356 L 309.65095 177.90288 L 303.17878 178.14274 L 305.80575 183.74356 M 300.26159 176.42834 L 295.18028 170.12400 L 294.02173 176.09282 L 300.26159 176.42834 M 301.27941 175.58138 L 302.16429 169.31717 L 296.19810 169.27704 L 301.27941 175.58138 M 319.08576 198.46507 L 330.80456 186.09150 L 313.41947 193.91222 L 319.08576 198.46507 M 310.16481 207.09394 L 316.13695 201.68948 L 307.51994 201.92951 L 310.16481 207.09394 M 317.46539 213.12415 L 317.38013 203.08881 L 311.40799 208.49327 L 317.46539 213.12415 M 332.24720 207.64826 L 333.15803 187.80850 L 321.43922 200.18207 L 332.24720 207.64826 M 335.42499 207.89691 L 346.86158 202.17133 L 336.33583 188.05716 L 335.42499 207.89691 M 347.59695 211.00516 L 348.26922 205.03983 L 336.83263 210.76541 L 347.59695 211.00516 M 359.07058 205.87405 L 351.04897 204.42840 L 350.37669 210.39374 L 359.07058 205.87405 M 368.31891 209.81288 L 370.91484 203.22246 L 363.27148 205.67551 L 368.31891 209.81288 M 369.92869 201.73273 L 360.42963 197.89504 L 362.28532 204.18578 L 369.92869 201.73273 M 370.76003 200.33041 L 368.93606 192.96724 L 361.26098 196.49272 L 370.76003 200.33041 M 367.89507 191.40292 L 362.43213 187.81587 L 360.21999 194.92841 L 367.89507 191.40292 M 361.61637 183.70977 L 363.56362 177.13062 L 357.20957 172.24585 L 361.61637 183.70977 M 358.63764 184.34157 L 354.23084 172.87766 L 339.73381 182.18505 L 358.63764 184.34157 M 356.73902 194.10790 L 358.95116 186.99535 L 340.04734 184.83883 L 356.73902 194.10790 M 363.89333 175.01494 L 364.25404 166.78429 L 357.53928 170.13017 L 363.89333 175.01494 M 371.74893 177.36795 L 365.38104 177.77088 L 363.43379 184.35003 L 371.74893 177.36795 M 374.69800 174.50029 L 380.34740 170.98474 L 375.00901 165.32719 L 374.69800 174.50029 M 384.46215 179.25351 L 381.52904 172.72553 L 375.87964 176.24108 L 384.46215 179.25351 M 388.93761 170.67473 L 385.64690 165.62637 L 383.11157 170.59292 L 388.93761 170.67473 M 385.06904 162.35047 L 388.33786 156.56814 L 378.51060 155.21639 L 385.06904 162.35047 M 388.02926 155.01148 L 382.60028 149.89721 L 378.20201 153.65973 L 388.02926 155.01148 M 394.11688 149.11724 L 391.63885 155.23526 L 399.17165 156.45373 L 394.11688 149.11724 M 392.05867 146.74074 L 388.13495 142.55604 L 384.15165 147.74449 L 392.05867 146.74074 M 386.17129 141.83586 L 376.34943 140.97928 L 382.18800 147.02431 L 386.17129 141.83586 M 386.02114 140.45816 L 380.98676 136.00266 L 376.19928 139.60158 L 386.02114 140.45816 M 387.72277 139.41753 L 389.81232 131.27654 L 382.68839 134.96203 L 387.72277 139.41753 M 395.73481 138.04446 L 389.58284 141.34354 L 393.50657 145.52824 L 395.73481 138.04446 M 400.17033 142.87331 L 397.05824 138.23568 L 394.83000 145.71946 L 400.17033 142.87331 M 405.02570 149.75970 L 395.79024 148.43279 L 400.84501 155.76929 L 405.02570 149.75970 M 408.39516 140.33819 L 404.69101 134.96888 L 402.52565 141.91242 L 408.39516 140.33819 M 416.14078 144.04638 L 410.31327 141.99451 L 408.33890 147.74179 L 416.14078 144.04638 M 417.28416 142.57013 L 417.48588 135.93180 L 411.45664 140.51826 L 417.28416 142.57013 M 425.63651 132.75888 L 422.00977 128.29535 L 419.58649 133.48356 L 425.63651 132.75888 M 420.39960 126.17643 L 416.51879 120.60424 L 414.21266 126.56798 L 420.39960 126.17643 M 425.30020 120.00710 L 417.90473 119.78413 L 421.78554 125.35632 L 425.30020 120.00710 M 425.41503 118.47825 L 422.70416 113.12559 L 418.01956 118.25528 L 425.41503 118.47825 M 426.48728 116.28255 L 426.59760 100.68963 L 423.77642 110.92988 L 426.48728 116.28255 M 421.45015 111.83273 L 415.38293 108.13539 L 416.76555 116.96243 L 421.45015 111.83273 M 414.00279 119.05032 L 407.06190 115.75289 L 404.90629 123.00628 L 414.00279 119.05032 M 414.66489 120.37334 L 405.56840 124.32930 L 412.35876 126.33708 L 414.66489 120.37334 M 411.17649 127.76245 L 404.38614 125.75467 L 405.20677 131.77627 L 411.17649 127.76245 M 412.68421 128.73451 L 406.71448 132.74833 L 416.44787 133.53119 L 412.68421 128.73451 M 402.38300 133.17703 L 393.04314 130.64102 L 397.10556 135.48293 L 402.38300 133.17703 M 397.00238 120.72107 L 392.92766 128.04309 L 401.44689 124.55749 L 397.00238 120.72107 M 396.43627 116.96913 L 397.53552 109.53152 L 391.74407 109.30161 L 396.43627 116.96913 M 388.03579 108.32224 L 378.91247 106.06543 L 381.68479 111.62090 L 388.03579 108.32224 M 388.40748 106.96639 L 384.65833 100.77406 L 379.28416 104.70958 L 388.40748 106.96639 M 383.00951 98.87777 L 375.21697 91.79606 L 377.63535 102.81329 L 383.00951 98.87777 M 383.67049 97.50194 L 382.92313 91.80666 L 375.87794 90.42023 L 383.67049 97.50194 M 375.14978 106.14389 L 366.25824 107.30147 L 369.59813 113.34778 L 375.14978 106.14389 M 367.92099 114.39776 L 364.58110 108.35145 L 361.73262 114.54377 L 367.92099 114.39776 M 362.99495 107.71015 L 355.23179 109.26733 L 360.14647 113.90247 L 362.99495 107.71015 M 364.79642 98.53875 L 355.07222 100.42843 L 363.49388 105.02097 L 364.79642 98.53875 M 371.62025 90.37769 L 361.82477 92.85547 L 366.44963 96.07028 L 371.62025 90.37769 M 380.09614 77.46259 L 375.43114 87.91531 L 382.47633 89.30174 L 380.09614 77.46259 M 377.86006 75.95437 L 364.58770 77.23601 L 373.19507 86.40710 L 377.86006 75.95437 M 377.83036 62.89091 L 367.66291 62.83499 L 378.71678 71.74135 L 377.83036 62.89091 M 377.58747 60.74936 L 376.77367 54.60895 L 367.42002 60.69344 L 377.58747 60.74936 M 375.18040 53.66326 L 364.84126 53.18381 L 365.82674 59.74775 L 375.18040 53.66326 M 387.65549 59.14690 L 385.88301 51.68793 L 379.94379 53.43029 L 387.65549 59.14690 M 397.51163 51.63719 L 395.34591 45.82913 L 388.68948 50.00894 L 397.51163 51.63719 M 394.28851 44.25724 L 389.05246 39.06202 L 387.63209 48.43705 L 394.28851 44.25724 M 402.82681 44.16870 L 397.11307 45.09910 L 399.27880 50.90716 L 402.82681 44.16870 M 410.39053 49.66286 L 401.50015 53.00376 L 409.54154 58.47437 L 410.39053 49.66286 M 415.60319 54.24680 L 412.15341 49.81824 L 411.30442 58.62975 L 415.60319 54.24680 M 424.90215 56.37701 L 423.93614 49.10598 L 418.42324 53.91735 L 424.90215 56.37701 M 424.40681 58.10465 L 417.92790 55.64499 L 419.97341 62.92707 L 424.40681 58.10465 M 425.64635 53.48896 L 424.37687 30.81291 L 424.68034 46.21793 L 425.64635 53.48896 M 423.21049 44.34413 L 422.90702 28.93911 L 413.88759 38.49855 L 423.21049 44.34413 M 419.78170 26.00208 L 403.30587 24.02674 L 405.66433 32.38272 L 419.78170 26.00208 M 394.88720 30.11228 L 398.54262 23.65255 L 387.68961 24.90477 L 394.88720 30.11228 M 384.41107 26.40207 L 377.13439 31.98990 L 386.78856 35.25065 L 384.41107 26.40207 M 383.21448 25.08412 L 377.21585 24.70698 L 375.93780 30.67194 L 383.21448 25.08412 M 377.72129 38.68442 L 374.70651 33.95872 L 371.62738 40.68774 L 377.72129 38.68442 M 365.90500 25.83689 L 360.42243 28.11243 L 364.80093 33.04914 L 365.90500 25.83689 M 365.86761 24.32929 L 372.65449 23.85292 L 352.23239 23.74024 L 365.86761 24.32929 M 358.63226 26.99796 L 364.11484 24.72242 L 350.47961 24.13337 L 358.63226 26.99796 M 344.51404 23.51495 L 381.78777 22.75254 L 287.26917 23.40206 L 344.51404 23.51495 M 340.62852 28.98881 L 345.24026 24.55188 L 334.96437 26.49810 L 340.62852 28.98881 M 340.62989 32.02056 L 336.19624 40.16085 L 344.02072 38.17489 L 340.62989 32.02056 M 338.72040 31.58086 L 328.74476 34.65723 L 334.28675 39.72114 L 338.72040 31.58086 M 332.88046 27.57143 L 328.56897 33.13851 L 338.54461 30.06214 L 332.88046 27.57143 M 312.71194 28.72539 L 284.65362 27.38570 L 299.31745 36.86885 L 312.71194 28.72539 M 316.84482 47.88433 L 301.95110 42.29601 L 304.22358 57.07116 L 316.84482 47.88433 M 297.66267 43.07210 L 288.63676 53.98760 L 293.83576 57.95273 L 297.66267 43.07210 M 294.89142 38.05524 L 280.22759 28.57208 L 277.30374 38.21646 L 294.89142 38.05524 M 277.16119 40.36885 L 279.08718 45.79124 L 294.74887 40.20763 L 277.16119 40.36885 M 272.39612 39.46643 L 268.42236 35.16196 L 262.52806 42.71511 L 272.39612 39.46643 M 266.75992 34.87700 L 259.09658 37.18669 L 260.86562 42.43014 L 266.75992 34.87700 M 257.08951 38.01553 L 250.70337 41.50773 L 258.85855 43.25898 L 257.08951 38.01553 M 258.57943 46.49310 L 247.66200 52.90732 L 257.61882 55.72303 L 258.57943 46.49310 M 256.76405 57.54958 L 246.80723 54.73387 L 251.74123 61.10548 L 256.76405 57.54958 M 252.43831 64.15091 L 250.69570 71.59421 L 259.14934 68.09816 L 252.43831 64.15091 M 250.11281 64.40351 L 240.54532 70.11895 L 248.37019 71.84681 L 250.11281 64.40351 M 247.51357 73.90177 L 239.68870 72.17391 L 243.25984 80.84317 L 247.51357 73.90177 M 255.81073 79.58757 L 249.52883 74.82848 L 245.27509 81.76988 L 255.81073 79.58757 M 256.50555 81.29116 L 245.96991 83.47347 L 255.08735 88.45718 L 256.50555 81.29116 M 255.68609 91.99256 L 249.85316 97.85657 L 258.01101 98.72644 L 255.68609 91.99256 M 265.04549 91.41078 L 257.58513 91.18683 L 259.91005 97.92072 L 265.04549 91.41078 M 272.56193 101.45849 L 266.91759 92.69474 L 261.78215 99.20467 L 272.56193 101.45849 M 280.47491 85.42765 L 277.30404 92.98083 L 284.67764 90.67970 L 280.47491 85.42765 M 277.86399 82.52249 L 270.14917 75.76329 L 268.33421 81.75085 L 277.86399 82.52249 M 282.99877 72.94916 L 271.98224 74.66308 L 279.69706 81.42228 L 282.99877 72.94916 M 289.69670 79.03698 L 285.21307 73.49590 L 281.91136 81.96902 L 289.69670 79.03698 M 302.25732 77.85832 L 293.34009 80.12405 L 297.65763 87.39020 L 302.25732 77.85832 M 302.07447 76.10983 L 296.19482 73.40230 L 293.15724 78.37556 L 302.07447 76.10983 M 311.30505 73.62825 L 305.46803 76.53049 L 308.58908 81.93557 L 311.30505 73.62825 M 312.82581 74.07258 L 310.10985 82.37990 L 317.63417 80.08514 L 312.82581 74.07258 M 310.71487 71.28823 L 303.86767 63.21542 L 304.87785 74.19047 L 310.71487 71.28823 M 302.19386 63.24324 L 297.32440 71.51076 L 303.20404 74.21829 L 302.19386 63.24324 M 301.17821 61.69044 L 295.07882 61.79592 L 296.30874 69.95797 L 301.17821 61.69044 M 293.40771 62.07086 L 287.80934 63.88999 L 294.63763 70.23291 L 293.40771 62.07086 M 272.13517 68.23657 L 263.36734 68.67758 L 268.96076 72.72338 L 272.13517 68.23657 M 267.39797 73.96569 L 261.80454 69.91989 L 259.63280 78.17504 L 267.39797 73.96569 M 259.79781 69.84136 L 251.34417 73.33741 L 257.62607 78.09651 L 259.79781 69.84136 M 267.96328 61.91325 L 273.03850 65.84369 L 272.49474 57.95185 L 267.96328 61.91325 M 271.90467 56.16335 L 268.31794 51.53566 L 267.37321 60.12475 L 271.90467 56.16335 M 277.14739 27.98019 L 270.24978 33.32010 L 274.22354 37.62456 L 277.14739 27.98019 M 276.26890 26.36633 L 267.19565 24.71373 L 269.37129 31.70625 L 276.26890 26.36633 M 261.48965 23.68127 L 240.51713 23.30509 L 253.76902 25.47534 L 261.48965 23.68127 M 253.82670 27.55175 L 246.46625 30.61416 L 256.05963 35.05988 L 253.82670 27.55175 M 245.87293 32.18564 L 249.08017 40.12356 L 255.46631 36.63136 L 245.87293 32.18564 M 243.75958 32.39872 L 238.55948 38.33599 L 246.96682 40.33664 L 243.75958 32.39872 M 241.81045 29.90910 L 235.91901 24.67644 L 232.06513 31.58963 L 241.81045 29.90910 M 234.20171 24.02949 L 228.07203 24.73353 L 230.34782 30.94268 L 234.20171 24.02949 M 224.71694 24.88320 L 217.72660 25.09852 L 216.62713 31.22069 L 224.71694 24.88320 M 215.58145 25.09221 L 207.55573 24.83270 L 214.48198 31.21438 L 215.58145 25.09221 M 206.22876 25.75182 L 204.96568 32.44519 L 213.15501 32.13350 L 206.22876 25.75182 M 198.54147 24.08042 L 156.84111 24.50528 L 192.09395 25.03080 L 198.54147 24.08042 M 196.82495 27.10638 L 195.95223 34.41656 L 202.00939 32.84937 L 196.82495 27.10638 M 195.18405 26.66322 L 188.88218 29.30410 L 194.31133 33.97341 L 195.18405 26.66322 M 192.67759 25.94052 L 174.25962 28.19177 L 186.37572 28.58139 L 192.67759 25.94052 M 184.77695 39.61333 L 185.08135 45.97450 L 191.59411 45.46765 L 184.77695 39.61333 M 182.69435 52.06677 L 165.80562 62.24940 L 189.08250 77.66199 L 182.69435 52.06677 M 192.55019 50.03285 L 186.03742 50.53970 L 192.42557 76.13492 L 192.55019 50.03285 M 205.70347 42.89871 L 196.56457 46.14521 L 208.88895 48.78722 L 205.70347 42.89871 M 215.24443 42.03148 L 208.03845 42.38449 L 211.22393 48.27300 L 215.24443 42.03148 M 214.59172 34.66882 L 208.45943 40.68397 L 215.66541 40.33096 L 214.59172 34.66882 M 216.43951 34.66452 L 217.51320 40.32666 L 223.24178 40.64958 L 216.43951 34.66452 M 228.13253 33.70898 L 217.76693 33.83731 L 224.56920 39.82237 L 228.13253 33.70898 M 237.08975 41.48992 L 234.76391 49.46464 L 242.73482 51.65603 L 237.08975 41.48992 M 232.85099 51.59507 L 227.53689 53.61353 L 235.07137 58.70629 L 232.85099 51.59507 M 234.48149 61.44448 L 225.78742 61.90013 L 229.29155 67.95226 L 234.48149 61.44448 M 235.88307 62.40328 L 230.69314 68.91105 L 237.00012 69.57051 L 235.88307 62.40328 M 242.71976 53.81117 L 234.74885 51.61977 L 236.96922 58.73099 L 242.71976 53.81117 M 224.97710 70.25931 L 221.47297 64.20718 L 199.96584 79.90092 L 224.97710 70.25931 M 240.92751 82.86020 L 232.42369 79.12395 L 233.78756 85.10494 L 240.92751 82.86020 M 241.65428 84.34608 L 234.51433 86.59083 L 238.23786 91.01105 L 241.65428 84.34608 M 243.14348 85.57508 L 239.72707 92.24004 L 246.42798 96.42281 L 243.14348 85.57508 M 244.93403 85.33490 L 248.21853 96.18263 L 254.05147 90.31862 L 244.93403 85.33490 M 244.76204 99.69639 L 234.13393 99.82188 L 233.74317 107.45552 L 244.76204 99.69639 M 201.13475 87.65658 L 228.28976 105.95054 L 228.68052 98.31691 L 201.13475 87.65658 M 185.27010 116.02996 L 222.86346 108.16467 L 195.70845 89.87071 L 185.27010 116.02996 M 167.83517 115.39316 L 170.04519 124.04596 L 176.30437 120.63037 L 167.83517 115.39316 M 157.74432 124.44223 L 148.68689 130.06288 L 157.08371 130.83846 L 157.74432 124.44223 M 146.46898 127.06924 L 155.52641 121.44859 L 139.34038 106.88935 L 146.46898 127.06924 M 147.42294 131.81673 L 147.63273 138.47300 L 155.81976 132.59230 L 147.42294 131.81673 M 144.95313 131.78948 L 136.06128 132.37434 L 145.16292 138.44576 L 144.95313 131.78948 M 148.12782 140.84855 L 151.95780 145.09908 L 155.74068 140.68986 L 148.12782 140.84855 M 151.73461 147.46329 L 146.47283 150.01110 L 155.38701 152.80520 L 151.73461 147.46329 M 145.97989 151.52004 L 147.79108 159.53485 L 154.89406 154.31414 L 145.97989 151.52004 M 135.17029 153.33412 L 138.74102 161.71245 L 142.78280 151.65311 L 135.17029 153.33412 M 130.23316 144.43426 L 134.10681 151.17434 L 141.71931 149.49333 L 130.23316 144.43426 M 131.52520 143.22293 L 143.01136 148.28200 L 144.44316 141.48366 L 131.52520 143.22293 M 128.13126 145.64799 L 124.90414 159.20315 L 132.00491 152.38807 L 128.13126 145.64799 M 146.03347 162.57666 L 140.18051 164.62120 L 144.87501 168.58928 L 146.03347 162.57666 M 147.50099 162.84956 L 146.34252 168.86218 L 151.92063 166.80441 L 147.50099 162.84956 M 146.32730 170.59593 L 147.37918 176.71957 L 151.90540 168.53817 L 146.32730 170.59593 M 152.72218 172.53901 L 148.84936 187.59390 L 152.20815 195.72918 L 152.72218 172.53901 M 160.17001 171.56965 L 159.65598 194.75982 L 208.43199 179.83901 L 160.17001 171.56965 M 163.31013 157.77041 L 160.62678 166.94597 L 208.88876 175.21534 L 163.31013 157.77041 M 147.62279 178.57630 L 148.27619 185.44979 L 152.14901 170.39490 L 147.62279 178.57630 M 139.88607 181.74735 L 146.74332 186.86885 L 146.08992 179.99536 L 139.88607 181.74735 M 136.81584 174.47356 L 138.64513 180.19793 L 144.84898 178.44595 L 136.81584 174.47356 M 134.70925 173.77852 L 127.99627 172.88569 L 136.53855 179.50290 L 134.70925 173.77852 M 128.06162 171.19373 L 134.77460 172.08656 L 137.06137 165.96724 L 128.06162 171.19373 M 124.52558 175.96179 L 106.94371 198.38732 L 133.06785 182.57900 L 124.52558 175.96179 M 109.18544 204.91346 L 138.09974 213.43715 L 139.66929 203.83891 L 109.18544 204.91346 M 144.61859 204.30635 L 143.04905 213.90459 L 148.77991 208.65304 L 144.61859 204.30635 M 143.66867 215.54361 L 149.57552 217.41850 L 149.39952 210.29206 L 143.66867 215.54361 M 164.25842 210.42009 L 167.29011 215.26677 L 209.73450 186.43428 L 164.25842 210.42009 M 171.14392 218.04376 L 195.08891 232.63596 L 213.58831 189.21126 L 171.14392 218.04376 M 199.29098 235.18824 L 204.76045 238.46194 L 217.79037 191.76354 L 199.29098 235.18824 M 197.44500 242.71214 L 203.02250 251.95473 L 202.91447 245.98584 L 197.44500 242.71214 M 157.37302 262.06363 L 188.06200 241.74251 L 164.11701 227.15030 L 157.37302 262.06363 M 152.83078 259.84166 L 159.57478 224.92833 L 151.72412 223.96676 L 152.83078 259.84166 M 162.40696 270.50958 L 198.81102 285.47532 L 198.67344 259.43105 L 162.40696 270.50958 M 151.81298 274.18573 L 113.92163 288.84030 L 188.21705 289.15147 L 151.81298 274.18573 M 107.85530 252.29552 L 145.62749 263.02820 L 138.61397 225.27841 L 107.85530 252.29552 M 96.08933 242.56616 L 101.66303 249.73776 L 132.42170 222.72065 L 96.08933 242.56616 M 90.39890 246.89639 L 86.89828 257.36251 L 95.97261 254.06799 L 90.39890 246.89639 M 79.47140 241.21645 L 79.50222 249.52828 L 87.74365 244.59797 L 79.47140 241.21645 M 70.19303 252.60922 L 75.20113 258.87740 L 77.07768 252.38075 L 70.19303 252.60922 M 63.64916 256.08151 L 73.52257 259.33999 L 68.51446 253.07181 L 63.64916 256.08151 M 51.20991 247.45805 L 60.04228 253.99274 L 58.36519 246.15482 L 51.20991 247.45805 M 50.41889 235.89478 L 50.00698 245.19580 L 57.16227 243.89257 L 50.41889 235.89478 M 53.57914 226.38807 L 59.47546 233.67152 L 59.29857 224.74532 L 53.57914 226.38807 M 47.34167 219.83881 L 52.08876 223.90297 L 58.01889 216.21208 L 47.34167 219.83881 M 40.96736 212.94537 L 45.38198 218.00853 L 51.50300 210.69712 L 40.96736 212.94537 M 36.06406 205.36318 L 39.15307 210.62874 L 44.49230 202.49285 L 36.06406 205.36318 M 36.22299 203.35886 L 44.65123 200.48853 L 40.42451 194.59424 L 36.22299 203.35886 M 28.42972 195.65067 L 34.19530 202.75413 L 38.39682 193.98950 L 28.42972 195.65067 M 24.29002 184.50945 L 24.34108 227.98311 L 25.59367 212.86392 L 24.29002 184.50945 M 39.98711 177.95236 L 34.36188 183.04414 L 39.69948 189.83302 L 39.98711 177.95236 M 41.81067 178.42139 L 41.52304 190.30205 L 48.95035 186.79638 L 41.81067 178.42139 M 42.13506 174.50181 L 48.52895 173.50182 L 44.86399 168.32039 L 42.13506 174.50181 M 35.24151 170.50429 L 40.47413 174.12711 L 43.20306 167.94570 L 35.24151 170.50429 M 35.18215 163.29745 L 34.58001 169.15058 L 42.54156 166.59199 L 35.18215 163.29745 M 36.20200 161.95069 L 43.56141 165.24524 L 42.73878 158.37654 L 36.20200 161.95069 M 36.76427 154.08826 L 35.35235 160.55607 L 41.88913 156.98192 L 36.76427 154.08826 M 44.55396 155.76078 L 50.84132 154.30136 L 45.25874 149.35276 L 44.55396 155.76078 M 45.51489 157.45565 L 52.94621 162.91171 L 51.80225 155.99622 L 45.51489 157.45565 M 54.60146 156.46520 L 55.74542 163.38068 L 67.90862 161.20745 L 54.60146 156.46520 M 55.34943 154.83551 L 68.65659 159.57776 L 61.72916 150.34315 L 55.34943 154.83551 M 56.73601 165.45370 L 62.52615 173.04933 L 68.89920 163.28046 L 56.73601 165.45370 M 46.19793 167.23553 L 49.86289 172.41696 L 52.80662 165.82288 L 46.19793 167.23553 M 63.40793 175.28939 L 63.79018 183.37417 L 69.78098 165.52052 L 63.40793 175.28939 M 73.60669 168.35246 L 67.61589 186.20610 L 94.01361 197.94485 L 73.60669 168.35246 M 53.36827 186.25456 L 61.73859 185.96593 L 61.35634 177.88115 L 53.36827 186.25456 M 42.08577 192.84134 L 46.31249 198.73563 L 49.51308 189.33566 L 42.08577 192.84134 M 48.03234 199.32205 L 55.84456 197.53264 L 51.23293 189.92208 L 48.03234 199.32205 M 62.20465 200.53585 L 64.14503 211.89757 L 92.36107 204.37539 L 62.20465 200.53585 M 61.02569 216.95330 L 60.81499 223.00144 L 65.67668 227.41133 L 61.02569 216.95330 M 71.52703 227.96779 L 79.40176 234.97524 L 95.09208 209.98757 L 71.52703 227.96779 M 66.49095 231.18495 L 61.80615 235.70125 L 67.36300 238.21603 L 66.49095 231.18495 M 61.01737 237.23261 L 60.18068 243.43584 L 66.57421 239.74739 L 61.01737 237.23261 M 39.12749 226.15010 L 36.79554 232.59797 L 46.94708 232.52363 L 39.12749 226.15010 M 27.61647 227.39896 L 25.54905 234.98712 L 33.13898 233.01045 L 27.61647 227.39896 M 27.31372 216.78692 L 28.12855 224.31796 L 35.98301 223.48158 L 27.31372 216.78692 M 28.48459 215.48991 L 37.15388 222.18457 L 37.49553 213.94190 L 28.48459 215.48991 M 28.09211 213.56016 L 37.10305 212.01215 L 34.01404 206.74659 L 28.09211 213.56016 M 31.45711 270.16501 L 38.24008 264.69898 L 26.53500 258.72573 L 31.45711 270.16501 M 31.21320 274.42661 L 26.27665 278.46566 L 36.30326 283.31352 L 31.21320 274.42661 M 26.12131 280.34923 L 29.97049 289.49516 L 36.14792 285.19709 L 26.12131 280.34923 M 38.29581 286.46793 L 32.11838 290.76599 L 43.30446 290.51591 L 38.29581 286.46793 M 43.06594 276.48619 L 53.25688 280.67648 L 50.88639 271.97118 L 43.06594 276.48619 M 53.54290 271.81526 L 55.91339 280.52056 L 64.31800 275.23879 L 53.54290 271.81526 M 57.23990 281.83809 L 64.15500 282.35547 L 65.64452 276.55632 L 57.23990 281.83809 M 56.21169 283.38867 L 57.41879 288.96096 L 63.12678 283.90605 L 56.21169 283.38867 M 56.81692 290.71384 L 49.00645 291.11938 L 64.91518 291.95129 L 56.81692 290.71384 M 66.27267 283.84389 L 68.66294 290.13624 L 73.28054 281.65389 L 66.27267 283.84389 M 67.63351 276.31737 L 66.14399 282.11653 L 73.15187 279.92653 L 67.63351 276.31737 M 68.78213 275.13606 L 74.30048 278.74522 L 75.33290 272.66603 L 68.78213 275.13606 M 67.40363 273.57842 L 73.95440 271.10839 L 63.27252 266.28407 L 67.40363 273.57842 M 75.12308 282.01482 L 70.50548 290.49718 L 81.01300 286.73136 L 75.12308 282.01482 M 83.30836 287.80737 L 72.80084 291.57319 L 93.48598 290.62289 L 83.30836 287.80737 M 90.08340 278.07290 L 96.62397 287.16893 L 94.26768 270.22197 L 90.08340 278.07290 M 100.61510 269.42789 L 102.97139 286.37485 L 140.86274 271.72029 L 100.61510 269.42789 M 87.34089 259.59278 L 93.93977 264.73855 L 96.41521 256.29826 L 87.34089 259.59278 M 79.09604 269.75654 L 91.77487 266.42083 L 85.17599 261.27507 L 79.09604 269.75654 M 105.55356 291.06956 L 84.86842 292.01986 L 179.84898 291.38074 L 105.55356 291.06956 M 230.21100 275.06697 L 211.85806 288.86198 L 248.29270 285.35359 L 230.21100 275.06697 M 235.71602 272.32281 L 253.79773 282.60942 L 255.89828 266.90863 L 235.71602 272.32281 M 234.75796 268.20725 L 254.94022 262.79307 L 246.13321 249.68496 L 234.75796 268.20725 M 249.09181 247.96011 L 257.89881 261.06822 L 258.42675 254.40841 L 249.09181 247.96011 M 249.01609 244.28442 L 258.10401 244.48272 L 257.54006 237.91274 L 249.01609 244.28442 M 276.36470 248.93076 L 284.06541 249.27887 L 280.54332 239.46059 L 276.36470 248.93076 M 278.63529 256.96602 L 283.82691 251.46705 L 276.12619 251.11894 L 278.63529 256.96602 M 285.90161 248.39373 L 291.05431 241.84962 L 282.37953 238.57545 L 285.90161 248.39373 M 287.42616 249.93130 L 294.57589 250.87606 L 292.57885 243.38719 L 287.42616 249.93130 M 291.29329 239.98058 L 287.81349 233.44145 L 282.61851 236.70642 L 291.29329 239.98058 M 292.60553 238.94813 L 293.11643 228.44679 L 289.12573 232.40900 L 292.60553 238.94813 M 322.56084 236.64329 L 310.23869 222.71324 L 307.34465 230.38032 L 322.56084 236.64329 M 323.91938 235.10714 L 318.21300 218.09105 L 311.59724 221.17708 L 323.91938 235.10714 M 326.39631 234.29925 L 331.41264 214.71402 L 320.68993 217.28317 L 326.39631 234.29925 M 349.27915 228.30277 L 343.90210 222.23504 L 330.96060 236.35932 L 349.27915 228.30277 M 352.02947 226.21090 L 352.96322 219.62440 L 346.65243 220.14317 L 352.02947 226.21090 M 353.86376 226.36355 L 361.32671 221.36437 L 354.79750 219.77705 L 353.86376 226.36355 M 354.09002 236.02097 L 359.65872 237.75619 L 353.59982 229.98975 L 354.09002 236.02097 M 365.45509 229.14215 L 362.65891 222.53501 L 355.19596 227.53419 L 365.45509 229.14215 M 376.65342 223.57312 L 386.80878 221.06785 L 380.30468 217.89110 L 376.65342 223.57312 M 381.14619 229.18824 L 386.91397 222.47999 L 376.75861 224.98526 L 381.14619 229.18824 M 388.55792 229.82180 L 388.38888 223.08456 L 382.62111 229.79281 L 388.55792 229.82180 M 392.54500 237.42290 L 389.42335 232.37364 L 386.25380 238.42100 L 392.54500 237.42290 M 384.95973 237.69554 L 388.12928 231.64818 L 382.19246 231.61918 L 384.95973 237.69554 M 388.99046 245.51444 L 392.49089 239.06550 L 386.19969 240.06360 L 388.99046 245.51444 M 390.24045 246.13604 L 396.19963 245.03642 L 393.74089 239.68711 L 390.24045 246.13604 M 389.63869 253.93243 L 395.68685 246.81708 L 389.72768 247.91670 L 389.63869 253.93243 M 386.29353 255.11315 L 378.18161 249.55600 L 377.12650 255.80432 L 386.29353 255.11315 M 388.45658 263.88105 L 399.56410 262.37622 L 389.92826 257.43504 L 388.45658 263.88105 M 399.69051 269.27322 L 400.78438 263.85599 L 389.67686 265.36082 L 399.69051 269.27322 M 403.48605 277.02116 L 400.36381 272.00815 L 393.03492 276.81004 L 403.48605 277.02116 M 407.56785 289.50654 L 417.56750 290.71063 L 413.15553 283.85144 L 407.56785 289.50654 M 415.38399 291.56401 L 405.38434 290.35992 L 395.68745 290.67843 L 415.38399 291.56401 M 425.32745 284.31657 L 423.14457 276.41330 L 415.74850 281.68619 L 425.32745 284.31657 M 425.71462 267.30125 L 426.88342 280.71864 L 427.18213 258.41685 L 425.71462 267.30125 M 409.75790 264.59729 L 412.89707 256.14116 L 404.48300 262.31204 L 409.75790 264.59729 M 411.98634 254.97204 L 402.47207 255.24429 L 403.57227 261.14291 L 411.98634 254.97204 M 412.79130 253.40410 L 410.01199 248.59942 L 403.27704 253.67636 L 412.79130 253.40410 M 416.27852 253.00022 L 425.29937 252.93728 L 419.37466 245.70354 L 416.27852 253.00022 M 409.07592 245.98281 L 407.79024 238.62913 L 399.85350 244.90184 L 409.07592 245.98281 M 410.33755 234.49690 L 423.20526 227.08778 L 408.65002 226.60687 L 410.33755 234.49690 M 407.15422 222.17991 L 414.03071 208.91338 L 406.04994 212.82860 L 407.15422 222.17991 M 402.54443 212.69410 L 391.84996 210.65758 L 397.78532 219.22517 L 402.54443 212.69410 M 403.51308 204.32969 L 397.65939 203.13306 L 403.82634 210.20299 L 403.51308 204.32969 M 402.46360 192.71477 L 392.24807 196.18886 L 396.25630 200.28538 L 402.46360 192.71477 M 403.33581 189.57763 L 402.84734 180.87091 L 393.50690 187.36907 L 403.33581 189.57763 M 400.92425 178.16143 L 391.21391 173.05761 L 388.32098 179.50378 L 400.92425 178.16143 M 397.80825 167.24083 L 387.48399 165.20736 L 390.77469 170.25572 L 397.80825 167.24083 M 411.66506 172.92077 L 406.83221 178.51280 L 421.04155 182.80297 L 411.66506 172.92077 M 423.08588 181.03705 L 423.18683 164.38545 L 413.70938 171.15485 L 423.08588 181.03705 M 424.92458 185.22804 L 426.82289 214.11735 L 426.62165 159.14186 L 424.92458 185.22804 M 420.42092 184.84565 L 406.21159 180.55548 L 406.70006 189.26221 L 420.42092 184.84565 M 422.14139 161.39808 L 414.72240 157.13816 L 412.66395 168.16749 L 422.14139 161.39808 M 423.72333 159.08323 L 425.31946 149.64865 L 416.30434 154.82331 L 423.72333 159.08323 M 389.18406 129.30641 L 382.69672 123.65651 L 382.06014 132.99191 L 389.18406 129.30641 M 379.59788 121.76095 L 370.79277 117.36839 L 372.56184 127.86989 L 379.59788 121.76095 M 369.91601 130.12843 L 364.83325 126.16654 L 361.74484 133.28960 L 369.91601 130.12843 M 363.69647 124.68718 L 360.82178 118.29357 L 360.60806 131.81025 L 363.69647 124.68718 M 359.70901 116.71804 L 354.79433 112.08290 L 359.49530 130.23471 L 359.70901 116.71804 M 351.94976 140.45838 L 355.18990 134.90128 L 323.80499 130.34168 L 351.94976 140.45838 M 350.63097 143.10654 L 322.48620 132.98984 L 344.63958 156.08659 L 350.63097 143.10654 M 363.73167 145.15939 L 356.60856 143.75754 L 357.19248 149.77600 L 363.73167 145.15939 M 371.87176 139.94056 L 362.08863 136.27637 L 365.97160 143.23533 L 371.87176 139.94056 M 374.91540 151.67265 L 373.47511 141.86510 L 367.57495 145.15986 L 374.91540 151.67265 M 368.21180 155.95860 L 374.25749 153.43434 L 366.91703 146.92155 L 368.21180 155.95860 M 372.71244 162.84089 L 367.98205 158.92208 L 366.39425 164.18628 L 372.71244 162.84089 M 354.95253 168.14626 L 356.02084 161.86675 L 348.84582 162.07732 L 354.95253 168.14626 M 377.55569 186.80559 L 373.95363 178.94567 L 371.10143 189.51481 L 377.55569 186.80559 M 380.38969 194.73114 L 378.36020 188.77877 L 371.90593 191.48799 L 380.38969 194.73114 M 381.22613 203.52968 L 380.97593 197.49540 L 374.31614 201.61542 L 381.22613 203.52968 M 379.90389 205.05974 L 372.99390 203.14548 L 370.39796 209.73591 L 379.90389 205.05974 M 387.79403 209.44324 L 382.73635 206.30897 L 381.09003 214.68124 L 387.79403 209.44324 M 379.00951 214.90151 L 380.65584 206.52924 L 371.14991 211.20542 L 379.00951 214.90151 M 390.09372 219.98350 L 396.22898 220.13634 L 390.29362 211.56875 L 390.09372 219.98350 M 397.81101 229.64968 L 397.18979 223.23862 L 391.22357 229.82302 L 397.81101 229.64968 M 399.38099 253.69760 L 396.89352 247.53969 L 390.84536 254.65504 L 399.38099 253.69760 M 379.11793 246.95980 L 387.31884 246.50122 L 384.52807 241.05039 L 379.11793 246.95980 M 377.55254 246.21062 L 382.96268 240.30121 L 374.79573 240.50780 L 377.55254 246.21062 M 375.03898 255.03585 L 376.09409 248.78754 L 369.59341 248.96543 L 375.03898 255.03585 M 373.57031 256.40308 L 368.12474 250.33266 L 364.34478 259.72537 L 373.57031 256.40308 M 362.07762 258.74318 L 365.85758 249.35046 L 355.43300 248.54550 L 362.07762 258.74318 M 358.10569 263.59587 L 346.39278 258.88796 L 339.15046 282.68224 L 358.10569 263.59587 M 373.77787 270.60741 L 374.27696 258.93743 L 365.05142 262.25972 L 373.77787 270.60741 M 376.19514 270.95491 L 384.38958 265.03978 L 376.69423 259.28493 L 376.19514 270.95491 M 381.68781 285.38153 L 388.03413 278.10543 L 377.15493 275.30627 L 381.68781 285.38153 M 383.34133 287.09456 L 390.38308 289.01055 L 389.68765 279.81847 L 383.34133 287.09456 M 374.79195 291.15993 L 388.52112 290.42824 L 381.47936 288.51225 L 374.79195 291.15993 M 373.13844 289.44690 L 379.82584 286.79921 L 375.29297 276.72396 L 373.13844 289.44690 M 360.17410 291.25153 L 334.64697 289.26728 L 303.79287 290.49762 L 360.17410 291.25153 M 341.76258 286.36489 L 367.28972 288.34915 L 360.71781 267.27852 L 341.76258 286.36489 M 333.69536 282.42332 L 340.93767 258.62905 L 314.46482 261.52455 L 333.69536 282.42332 M 340.04637 253.70104 L 326.56490 242.99930 L 313.57352 256.59655 L 340.04637 253.70104 M 302.20186 270.98618 L 306.07715 260.76704 L 296.94209 263.24860 L 302.20186 270.98618 M 291.60931 280.02955 L 297.58161 283.35655 L 300.66538 275.36068 L 291.60931 280.02955 M 296.40477 289.83076 L 327.25886 288.60042 L 301.06927 285.91665 L 296.40477 289.83076 M 394.26733 289.26892 L 403.96422 288.95041 L 404.02303 280.28795 L 394.26733 289.26892 M 423.94654 224.06541 L 416.26778 210.31798 L 409.39129 223.58451 L 423.94654 224.06541 M 427.14359 219.60389 L 427.36173 239.10845 L 427.07085 154.64037 L 427.14359 219.60389 M 389.34521 198.26074 L 383.76825 204.25641 L 388.82593 207.39068 L 389.34521 198.26074 M 388.70313 188.74411 L 380.45985 188.43578 L 382.48934 194.38816 L 388.70313 188.74411 M 404.05235 104.07375 L 399.89907 108.45092 L 405.39993 112.47156 L 404.05235 104.07375 M 403.26985 102.20090 L 399.13991 97.48872 L 399.11656 106.57806 L 403.26985 102.20090 M 396.40294 94.12329 L 391.66201 87.39497 L 386.09163 91.09511 L 396.40294 94.12329 M 410.86359 90.58791 L 400.60829 95.48995 L 404.73823 100.20213 L 410.86359 90.58791 M 412.44013 91.67082 L 406.31477 101.28504 L 413.22062 104.15325 L 412.44013 91.67082 M 412.17446 85.72226 L 412.79692 74.19078 L 404.34736 77.71050 L 412.17446 85.72226 M 420.75839 78.73927 L 414.84830 74.31938 L 414.22584 85.85086 L 420.75839 78.73927 M 424.73357 71.83888 L 416.16177 72.56788 L 422.07185 76.98778 L 424.73357 71.83888 M 425.63049 69.04169 L 425.36963 59.77924 L 420.93624 64.60166 L 425.63049 69.04169 M 418.17203 64.98056 L 411.82775 62.08143 L 414.29448 70.14958 L 418.17203 64.98056 M 411.64892 71.78660 L 402.99042 66.48886 L 403.19935 75.30633 L 411.64892 71.78660 M 400.15495 77.13129 L 394.25391 71.38334 L 392.98582 83.31677 L 400.15495 77.13129 M 400.65107 79.79725 L 393.48194 85.98274 L 398.22287 92.71105 L 400.65107 79.79725 M 426.50054 92.53473 L 426.02592 74.33474 L 423.36420 79.48363 L 426.50054 92.53473 M 425.34359 99.39677 L 416.45518 105.93969 L 422.52241 109.63702 L 425.34359 99.39677 M 358.83160 77.59182 L 347.03389 80.13569 L 352.21634 85.42809 L 358.83160 77.59182 M 358.37148 75.57225 L 348.53537 69.27150 L 346.57376 78.11611 L 358.37148 75.57225 M 362.59228 63.56541 L 350.53768 67.45266 L 360.37379 73.75341 L 362.59228 63.56541 M 361.83573 61.59645 L 354.32146 58.00168 L 349.78114 65.48369 L 361.83573 61.59645 M 349.33260 50.51236 L 341.60023 56.36357 L 352.02323 55.75677 L 349.33260 50.51236 M 348.70264 47.78169 L 345.60167 40.67185 L 342.35210 46.87243 L 348.70264 47.78169 M 335.55284 59.02702 L 318.03591 61.81477 L 328.89342 68.42541 L 335.55284 59.02702 M 344.77833 66.48615 L 338.89564 59.61094 L 332.23623 69.00933 L 344.77833 66.48615 M 328.45605 73.20020 L 321.38803 80.13290 L 328.26437 83.68208 L 328.45605 73.20020 M 326.78681 71.83424 L 314.91043 72.75437 L 319.71879 78.76694 L 326.78681 71.83424 M 326.24545 69.89948 L 315.38794 63.28885 L 314.36908 70.81961 L 326.24545 69.89948 M 331.77257 85.80013 L 338.87313 90.75581 L 342.54475 81.63969 L 331.77257 85.80013 M 325.77023 89.76317 L 311.36957 88.50874 L 316.02723 119.55415 L 325.77023 89.76317 M 335.94239 95.60601 L 328.84183 90.65033 L 319.09883 120.44131 L 335.94239 95.60601 M 308.20937 88.91908 L 300.48862 93.04589 L 312.86703 119.96449 L 308.20937 88.91908 M 312.01689 136.27592 L 297.54028 164.36386 L 303.50647 164.40399 L 312.01689 136.27592 M 159.11612 59.26548 L 162.81018 51.93707 L 148.76113 50.93639 L 159.11612 59.26548 M 148.04298 59.91574 L 152.09985 68.66353 L 157.84629 62.12168 L 148.04298 59.91574 M 146.09894 60.86550 L 142.29390 69.71978 L 150.15580 69.61330 L 146.09894 60.86550 M 144.74611 60.05103 L 139.33320 63.09754 L 140.94107 68.90531 L 144.74611 60.05103 M 144.32328 50.45207 L 137.11070 50.26846 L 144.87497 56.57522 L 144.32328 50.45207 M 134.86727 51.65052 L 131.78882 58.46201 L 137.21864 61.00379 L 134.86727 51.65052 M 133.41856 50.10702 L 125.62888 48.65583 L 130.34010 56.91851 L 133.41856 50.10702 M 129.93971 61.20425 L 124.66092 66.48197 L 130.78305 70.85247 L 129.93971 61.20425 M 123.49804 68.16724 L 120.63673 74.68644 L 129.62018 72.53774 L 123.49804 68.16724 M 132.83223 36.31942 L 125.94040 46.08094 L 133.73007 47.53213 L 132.83223 36.31942 M 131.25405 34.98875 L 121.10463 36.88674 L 124.36222 44.75027 L 131.25405 34.98875 M 127.52262 27.27778 L 121.49968 34.70268 L 131.64910 32.80469 L 127.52262 27.27778 M 144.54111 26.81176 L 136.02962 32.99430 L 143.90585 36.87525 L 144.54111 26.81176 M 157.82891 44.30088 L 148.60023 49.06582 L 162.64928 50.06650 L 157.82891 44.30088 M 160.71061 43.79986 L 165.53097 49.56547 L 171.65378 45.05763 L 160.71061 43.79986 M 169.17314 31.50516 L 161.16588 41.54232 L 172.10905 42.80009 L 169.17314 31.50516 M 140.62458 99.96696 L 161.83447 108.00453 L 151.71871 78.21176 L 140.62458 99.96696 M 132.09709 105.91015 L 113.59364 115.46012 L 123.21214 124.24485 L 132.09709 105.91015 M 111.49566 117.76697 L 115.31323 124.36492 L 121.11416 126.55169 L 111.49566 117.76697 M 109.13377 117.27548 L 102.21906 122.61978 L 112.95134 123.87343 L 109.13377 117.27548 M 101.13876 114.39311 L 100.74249 121.43474 L 107.65720 116.09044 L 101.13876 114.39311 M 100.75502 106.57343 L 101.14033 112.53544 L 107.65877 114.23278 L 100.75502 106.57343 M 98.90671 106.41697 L 92.87234 112.98112 L 99.29202 112.37899 L 98.90671 106.41697 M 101.65968 104.04672 L 108.56343 111.70607 L 108.37763 92.32181 L 101.65968 104.04672 M 99.23345 96.90793 L 92.80163 101.73463 L 98.89235 103.44835 L 99.23345 96.90793 M 101.06326 95.47776 L 100.72216 102.01818 L 107.44011 90.29327 L 101.06326 95.47776 M 90.19172 104.14366 L 84.38858 109.61608 L 90.24807 112.42155 L 90.19172 104.14366 M 83.17084 111.52045 L 80.44983 119.37865 L 89.03034 114.32592 L 83.17084 111.52045 M 81.15877 120.63526 L 88.84239 121.57330 L 89.73928 115.58253 L 81.15877 120.63526 M 79.97080 122.78058 L 80.23545 132.74508 L 87.65441 123.71862 L 79.97080 122.78058 M 67.55837 131.17214 L 77.72345 133.67677 L 77.45879 123.71227 L 67.55837 131.17214 M 76.69054 139.36213 L 64.39680 148.40898 L 71.32423 157.64358 L 76.69054 139.36213 M 49.44015 131.28282 L 55.11375 139.65902 L 61.93300 132.67801 L 49.44015 131.28282 M 48.77735 128.94097 L 61.27020 130.33616 L 49.81134 120.92427 L 48.77735 128.94097 M 44.54860 137.00168 L 45.67736 130.93646 L 38.63306 132.21814 L 44.54860 137.00168 M 46.36544 138.01518 L 53.16780 140.32617 L 47.49420 131.94997 L 46.36544 138.01518 M 46.13714 139.79953 L 45.66778 146.22475 L 52.93950 142.11052 L 46.13714 139.79953 M 46.39824 147.84958 L 51.98082 152.79818 L 53.66996 143.73535 L 46.39824 147.84958 M 37.05403 145.54966 L 37.06508 151.41146 L 42.89472 147.89709 L 37.05403 145.54966 M 27.24976 145.59818 L 35.10946 151.12409 L 35.09841 145.26229 L 27.24976 145.59818 M 25.95721 146.45908 L 24.75799 152.14953 L 33.81690 151.98500 L 25.95721 146.45908 M 26.30800 136.56957 L 26.14958 143.77886 L 33.99823 143.44298 L 26.30800 136.56957 M 27.48560 135.25568 L 35.17583 142.12909 L 35.57033 133.26776 L 27.48560 135.25568 M 27.11948 133.07964 L 35.20422 131.09172 L 32.24691 124.72074 L 27.11948 133.07964 M 25.00451 134.70651 L 23.57025 128.53849 L 24.84608 141.91580 L 25.00451 134.70651 M 23.15329 127.20361 L 22.86806 118.33703 L 23.22991 146.27137 L 23.15329 127.20361 M 23.79450 115.30009 L 24.07973 124.16666 L 30.64142 121.97579 L 23.79450 115.30009 M 25.24902 113.12472 L 32.09594 119.80042 L 35.71589 106.76373 L 25.24902 113.12472 M 35.56225 122.92532 L 45.56385 128.01462 L 46.59785 119.99792 L 35.56225 122.92532 M 37.36551 130.62464 L 44.40981 129.34296 L 34.40820 124.25366 L 37.36551 130.62464 M 51.64306 119.51352 L 63.10192 128.92541 L 63.43112 117.65492 L 51.64306 119.51352 M 51.19365 117.07010 L 62.98171 115.21151 L 59.50661 109.37810 L 51.19365 117.07010 M 62.04346 108.52156 L 65.51856 114.35497 L 71.48846 110.21773 L 62.04346 108.52156 M 65.23706 101.47538 L 62.00827 106.91161 L 71.45327 108.60778 L 65.23706 101.47538 M 58.44497 93.55896 L 64.93759 94.97293 L 72.32136 63.43833 L 58.44497 93.55896 M 74.54465 96.30820 L 80.31047 96.40060 L 75.81831 63.90243 L 74.54465 96.30820 M 42.09104 89.96279 L 39.83173 101.68479 L 52.29651 97.25188 L 42.09104 89.96279 M 38.93081 89.54206 L 27.01461 93.88601 L 36.67150 101.26406 L 38.93081 89.54206 M 28.83594 81.17006 L 26.03517 91.37426 L 37.95136 87.03031 L 28.83594 81.17006 M 23.76365 89.76896 L 23.38996 50.24462 L 22.95366 103.50799 L 23.76365 89.76896 M 41.03462 105.78214 L 48.45026 115.89143 L 56.76322 108.19943 L 41.03462 105.78214 M 69.93592 62.19504 L 45.85407 85.02657 L 56.05953 92.31566 L 69.93592 62.19504 M 81.23800 62.02052 L 98.62774 90.47805 L 105.00459 85.29357 L 81.23800 62.02052 M 84.48450 57.95798 L 114.99477 72.86397 L 117.85609 66.34477 L 84.48450 57.95798 M 84.97434 55.09232 L 118.34593 63.47912 L 118.91351 49.93871 L 84.97434 55.09232 M 35.66805 34.68739 L 30.53675 47.68886 L 65.96827 51.64326 L 35.66805 34.68739 M 30.12289 52.53560 L 32.35713 73.46129 L 65.55441 56.49000 L 30.12289 52.53560 M 24.52682 52.22922 L 23.58661 43.83478 L 23.96029 83.35911 L 24.52682 52.22922 M 23.61813 156.28100 L 24.18090 171.16463 L 25.33447 164.46265 L 23.61813 156.28100" fill="none" stroke="black" stroke-width="0.01cm" />
   </g>
</svg>